# vtk DataFile Version 2.0
MATLAB generated vtk file, WMC
ASCII
DATASET UNSTRUCTURED_GRID
POINTS 260 double
0.000000 0.000000 0.000000 
0.000000 0.000000 0.781250 
0.000000 0.000000 1.562500 
0.000000 0.000000 2.343750 
0.000000 0.000000 3.125000 
0.000000 0.000000 3.906250 
0.000000 0.000000 4.687500 
0.000000 0.000000 5.468750 
0.000000 0.000000 6.250000 
0.000000 0.000000 7.031250 
0.000000 0.000000 7.812500 
0.000000 0.000000 8.593750 
0.000000 0.000000 9.375000 
0.000000 0.000000 10.156250 
0.000000 0.000000 10.937500 
0.000000 0.000000 11.718750 
0.000000 0.000000 12.500000 
0.000000 0.000000 13.281250 
0.000000 0.000000 14.062500 
0.000000 0.000000 14.843750 
0.000000 0.000000 15.625000 
0.000000 0.000000 16.406250 
0.000000 0.000000 17.187500 
0.000000 0.000000 17.968750 
0.000000 0.000000 18.750000 
0.000000 0.000000 19.531250 
0.000000 0.000000 20.312500 
0.000000 0.000000 21.093750 
0.000000 0.000000 21.875000 
0.000000 0.000000 22.656250 
0.000000 0.000000 23.437500 
0.000000 0.000000 24.218750 
0.000000 0.000000 25.000000 
0.000000 0.000000 25.781250 
0.000000 0.000000 26.562500 
0.000000 0.000000 27.343750 
0.000000 0.000000 28.125000 
0.000000 0.000000 28.906250 
0.000000 0.000000 29.687500 
0.000000 0.000000 30.468750 
0.000000 0.000000 31.250000 
0.000000 0.000000 32.031250 
0.000000 0.000000 32.812500 
0.000000 0.000000 33.593750 
0.000000 0.000000 34.375000 
0.000000 0.000000 35.156250 
0.000000 0.000000 35.937500 
0.000000 0.000000 36.718750 
0.000000 0.000000 37.500000 
0.000000 0.000000 38.281250 
0.000000 0.000000 39.062500 
0.000000 0.000000 39.843750 
0.000000 0.000000 40.625000 
0.000000 0.000000 41.406250 
0.000000 0.000000 42.187500 
0.000000 0.000000 42.968750 
0.000000 0.000000 43.750000 
0.000000 0.000000 44.531250 
0.000000 0.000000 45.312500 
0.000000 0.000000 46.093750 
0.000000 0.000000 46.875000 
0.000000 0.000000 47.656250 
0.000000 0.000000 48.437500 
0.000000 0.000000 49.218750 
0.000000 0.000000 50.000000 
0.781250 0.000000 0.000000 
0.781250 0.000000 0.781250 
0.781250 0.000000 1.562500 
0.781250 0.000000 2.343750 
0.781250 0.000000 3.125000 
0.781250 0.000000 3.906250 
0.781250 0.000000 4.687500 
0.781250 0.000000 5.468750 
0.781250 0.000000 6.250000 
0.781250 0.000000 7.031250 
0.781250 0.000000 7.812500 
0.781250 0.000000 8.593750 
0.781250 0.000000 9.375000 
0.781250 0.000000 10.156250 
0.781250 0.000000 10.937500 
0.781250 0.000000 11.718750 
0.781250 0.000000 12.500000 
0.781250 0.000000 13.281250 
0.781250 0.000000 14.062500 
0.781250 0.000000 14.843750 
0.781250 0.000000 15.625000 
0.781250 0.000000 16.406250 
0.781250 0.000000 17.187500 
0.781250 0.000000 17.968750 
0.781250 0.000000 18.750000 
0.781250 0.000000 19.531250 
0.781250 0.000000 20.312500 
0.781250 0.000000 21.093750 
0.781250 0.000000 21.875000 
0.781250 0.000000 22.656250 
0.781250 0.000000 23.437500 
0.781250 0.000000 24.218750 
0.781250 0.000000 25.000000 
0.781250 0.000000 25.781250 
0.781250 0.000000 26.562500 
0.781250 0.000000 27.343750 
0.781250 0.000000 28.125000 
0.781250 0.000000 28.906250 
0.781250 0.000000 29.687500 
0.781250 0.000000 30.468750 
0.781250 0.000000 31.250000 
0.781250 0.000000 32.031250 
0.781250 0.000000 32.812500 
0.781250 0.000000 33.593750 
0.781250 0.000000 34.375000 
0.781250 0.000000 35.156250 
0.781250 0.000000 35.937500 
0.781250 0.000000 36.718750 
0.781250 0.000000 37.500000 
0.781250 0.000000 38.281250 
0.781250 0.000000 39.062500 
0.781250 0.000000 39.843750 
0.781250 0.000000 40.625000 
0.781250 0.000000 41.406250 
0.781250 0.000000 42.187500 
0.781250 0.000000 42.968750 
0.781250 0.000000 43.750000 
0.781250 0.000000 44.531250 
0.781250 0.000000 45.312500 
0.781250 0.000000 46.093750 
0.781250 0.000000 46.875000 
0.781250 0.000000 47.656250 
0.781250 0.000000 48.437500 
0.781250 0.000000 49.218750 
0.781250 0.000000 50.000000 
0.000000 0.781250 0.000000 
0.000000 0.781250 0.781250 
0.000000 0.781250 1.562500 
0.000000 0.781250 2.343750 
0.000000 0.781250 3.125000 
0.000000 0.781250 3.906250 
0.000000 0.781250 4.687500 
0.000000 0.781250 5.468750 
0.000000 0.781250 6.250000 
0.000000 0.781250 7.031250 
0.000000 0.781250 7.812500 
0.000000 0.781250 8.593750 
0.000000 0.781250 9.375000 
0.000000 0.781250 10.156250 
0.000000 0.781250 10.937500 
0.000000 0.781250 11.718750 
0.000000 0.781250 12.500000 
0.000000 0.781250 13.281250 
0.000000 0.781250 14.062500 
0.000000 0.781250 14.843750 
0.000000 0.781250 15.625000 
0.000000 0.781250 16.406250 
0.000000 0.781250 17.187500 
0.000000 0.781250 17.968750 
0.000000 0.781250 18.750000 
0.000000 0.781250 19.531250 
0.000000 0.781250 20.312500 
0.000000 0.781250 21.093750 
0.000000 0.781250 21.875000 
0.000000 0.781250 22.656250 
0.000000 0.781250 23.437500 
0.000000 0.781250 24.218750 
0.000000 0.781250 25.000000 
0.000000 0.781250 25.781250 
0.000000 0.781250 26.562500 
0.000000 0.781250 27.343750 
0.000000 0.781250 28.125000 
0.000000 0.781250 28.906250 
0.000000 0.781250 29.687500 
0.000000 0.781250 30.468750 
0.000000 0.781250 31.250000 
0.000000 0.781250 32.031250 
0.000000 0.781250 32.812500 
0.000000 0.781250 33.593750 
0.000000 0.781250 34.375000 
0.000000 0.781250 35.156250 
0.000000 0.781250 35.937500 
0.000000 0.781250 36.718750 
0.000000 0.781250 37.500000 
0.000000 0.781250 38.281250 
0.000000 0.781250 39.062500 
0.000000 0.781250 39.843750 
0.000000 0.781250 40.625000 
0.000000 0.781250 41.406250 
0.000000 0.781250 42.187500 
0.000000 0.781250 42.968750 
0.000000 0.781250 43.750000 
0.000000 0.781250 44.531250 
0.000000 0.781250 45.312500 
0.000000 0.781250 46.093750 
0.000000 0.781250 46.875000 
0.000000 0.781250 47.656250 
0.000000 0.781250 48.437500 
0.000000 0.781250 49.218750 
0.000000 0.781250 50.000000 
0.781250 0.781250 0.000000 
0.781250 0.781250 0.781250 
0.781250 0.781250 1.562500 
0.781250 0.781250 2.343750 
0.781250 0.781250 3.125000 
0.781250 0.781250 3.906250 
0.781250 0.781250 4.687500 
0.781250 0.781250 5.468750 
0.781250 0.781250 6.250000 
0.781250 0.781250 7.031250 
0.781250 0.781250 7.812500 
0.781250 0.781250 8.593750 
0.781250 0.781250 9.375000 
0.781250 0.781250 10.156250 
0.781250 0.781250 10.937500 
0.781250 0.781250 11.718750 
0.781250 0.781250 12.500000 
0.781250 0.781250 13.281250 
0.781250 0.781250 14.062500 
0.781250 0.781250 14.843750 
0.781250 0.781250 15.625000 
0.781250 0.781250 16.406250 
0.781250 0.781250 17.187500 
0.781250 0.781250 17.968750 
0.781250 0.781250 18.750000 
0.781250 0.781250 19.531250 
0.781250 0.781250 20.312500 
0.781250 0.781250 21.093750 
0.781250 0.781250 21.875000 
0.781250 0.781250 22.656250 
0.781250 0.781250 23.437500 
0.781250 0.781250 24.218750 
0.781250 0.781250 25.000000 
0.781250 0.781250 25.781250 
0.781250 0.781250 26.562500 
0.781250 0.781250 27.343750 
0.781250 0.781250 28.125000 
0.781250 0.781250 28.906250 
0.781250 0.781250 29.687500 
0.781250 0.781250 30.468750 
0.781250 0.781250 31.250000 
0.781250 0.781250 32.031250 
0.781250 0.781250 32.812500 
0.781250 0.781250 33.593750 
0.781250 0.781250 34.375000 
0.781250 0.781250 35.156250 
0.781250 0.781250 35.937500 
0.781250 0.781250 36.718750 
0.781250 0.781250 37.500000 
0.781250 0.781250 38.281250 
0.781250 0.781250 39.062500 
0.781250 0.781250 39.843750 
0.781250 0.781250 40.625000 
0.781250 0.781250 41.406250 
0.781250 0.781250 42.187500 
0.781250 0.781250 42.968750 
0.781250 0.781250 43.750000 
0.781250 0.781250 44.531250 
0.781250 0.781250 45.312500 
0.781250 0.781250 46.093750 
0.781250 0.781250 46.875000 
0.781250 0.781250 47.656250 
0.781250 0.781250 48.437500 
0.781250 0.781250 49.218750 
0.781250 0.781250 50.000000 

CELLS 64 576
8 0 65 195 130 1 66 196 131
8 1 66 196 131 2 67 197 132
8 2 67 197 132 3 68 198 133
8 3 68 198 133 4 69 199 134
8 4 69 199 134 5 70 200 135
8 5 70 200 135 6 71 201 136
8 6 71 201 136 7 72 202 137
8 7 72 202 137 8 73 203 138
8 8 73 203 138 9 74 204 139
8 9 74 204 139 10 75 205 140
8 10 75 205 140 11 76 206 141
8 11 76 206 141 12 77 207 142
8 12 77 207 142 13 78 208 143
8 13 78 208 143 14 79 209 144
8 14 79 209 144 15 80 210 145
8 15 80 210 145 16 81 211 146
8 16 81 211 146 17 82 212 147
8 17 82 212 147 18 83 213 148
8 18 83 213 148 19 84 214 149
8 19 84 214 149 20 85 215 150
8 20 85 215 150 21 86 216 151
8 21 86 216 151 22 87 217 152
8 22 87 217 152 23 88 218 153
8 23 88 218 153 24 89 219 154
8 24 89 219 154 25 90 220 155
8 25 90 220 155 26 91 221 156
8 26 91 221 156 27 92 222 157
8 27 92 222 157 28 93 223 158
8 28 93 223 158 29 94 224 159
8 29 94 224 159 30 95 225 160
8 30 95 225 160 31 96 226 161
8 31 96 226 161 32 97 227 162
8 32 97 227 162 33 98 228 163
8 33 98 228 163 34 99 229 164
8 34 99 229 164 35 100 230 165
8 35 100 230 165 36 101 231 166
8 36 101 231 166 37 102 232 167
8 37 102 232 167 38 103 233 168
8 38 103 233 168 39 104 234 169
8 39 104 234 169 40 105 235 170
8 40 105 235 170 41 106 236 171
8 41 106 236 171 42 107 237 172
8 42 107 237 172 43 108 238 173
8 43 108 238 173 44 109 239 174
8 44 109 239 174 45 110 240 175
8 45 110 240 175 46 111 241 176
8 46 111 241 176 47 112 242 177
8 47 112 242 177 48 113 243 178
8 48 113 243 178 49 114 244 179
8 49 114 244 179 50 115 245 180
8 50 115 245 180 51 116 246 181
8 51 116 246 181 52 117 247 182
8 52 117 247 182 53 118 248 183
8 53 118 248 183 54 119 249 184
8 54 119 249 184 55 120 250 185
8 55 120 250 185 56 121 251 186
8 56 121 251 186 57 122 252 187
8 57 122 252 187 58 123 253 188
8 58 123 253 188 59 124 254 189
8 59 124 254 189 60 125 255 190
8 60 125 255 190 61 126 256 191
8 61 126 256 191 62 127 257 192
8 62 127 257 192 63 128 258 193
8 63 128 258 193 64 129 259 194

CELL_TYPES 64
12
12
12
12
12
12
12
12
12
12
12
12
12
12
12
12
12
12
12
12
12
12
12
12
12
12
12
12
12
12
12
12
12
12
12
12
12
12
12
12
12
12
12
12
12
12
12
12
12
12
12
12
12
12
12
12
12
12
12
12
12
12
12
12

POINT_DATA 260
SCALARS u_x FLOAT 1
LOOKUP_TABLE default
0.000000
0.000000
0.000000
0.000000
0.000000
0.000000
0.000000
0.000000
0.000000
0.000000
0.000000
0.000000
0.000000
0.000000
0.000000
0.000000
0.000000
0.000000
0.000000
0.000000
0.000000
0.000000
0.000000
0.000000
0.000000
0.000000
0.000000
0.000000
0.000000
0.000000
0.000000
0.000000
0.000000
0.000000
0.000000
0.000000
0.000000
0.000000
0.000000
0.000000
0.000000
0.000000
0.000000
0.000000
0.000000
0.000000
0.000000
0.000000
0.000000
0.000000
0.000000
0.000000
0.000000
0.000000
0.000000
0.000000
0.000000
0.000000
0.000000
0.000000
0.000000
0.000000
0.000000
0.000000
0.000000
0.000000
0.000000
0.000000
0.000000
0.000000
0.000000
0.000000
0.000000
0.000000
0.000000
0.000000
0.000000
0.000000
0.000000
0.000000
0.000000
0.000000
0.000000
0.000000
0.000000
0.000000
0.000000
0.000000
0.000000
0.000000
0.000000
0.000000
0.000000
0.000000
0.000000
0.000000
0.000000
0.000000
0.000000
0.000000
0.000000
0.000000
0.000000
0.000000
0.000000
0.000000
0.000000
0.000000
0.000000
0.000000
0.000000
0.000000
0.000000
0.000000
0.000000
0.000000
0.000000
0.000000
0.000000
0.000000
0.000000
0.000000
0.000000
0.000000
0.000000
0.000000
0.000000
0.000000
0.000000
0.000000
0.000000
0.000000
0.000000
0.000000
0.000000
0.000000
0.000000
0.000000
0.000000
0.000000
0.000000
0.000000
0.000000
0.000000
0.000000
0.000000
0.000000
0.000000
0.000000
0.000000
0.000000
0.000000
0.000000
0.000000
0.000000
0.000000
0.000000
0.000000
0.000000
0.000000
0.000000
0.000000
0.000000
0.000000
0.000000
0.000000
0.000000
0.000000
0.000000
0.000000
0.000000
0.000000
0.000000
0.000000
0.000000
0.000000
0.000000
0.000000
0.000000
0.000000
0.000000
0.000000
0.000000
0.000000
0.000000
0.000000
0.000000
0.000000
0.000000
0.000000
0.000000
0.000000
0.000000
0.000000
0.000000
0.000000
0.000000
0.000000
0.000000
0.000000
0.000000
0.000000
0.000000
0.000000
0.000000
0.000000
0.000000
0.000000
0.000000
0.000000
0.000000
0.000000
0.000000
0.000000
0.000000
0.000000
0.000000
0.000000
0.000000
0.000000
0.000000
0.000000
0.000000
0.000000
0.000000
0.000000
0.000000
0.000000
0.000000
0.000000
0.000000
0.000000
0.000000
0.000000
0.000000
0.000000
0.000000
0.000000
0.000000
0.000000
0.000000
0.000000
0.000000
0.000000
0.000000
0.000000
0.000000
0.000000
0.000000
0.000000
0.000000
0.000000
0.000000
0.000000
0.000000
0.000000
0.000000
0.000000
0.000000
0.000000

SCALARS u_y FLOAT 1
LOOKUP_TABLE default
0.000000
0.000000
0.000000
0.000000
0.000000
0.000000
0.000000
0.000000
0.000000
0.000000
0.000000
0.000000
0.000000
0.000000
0.000000
0.000000
0.000000
0.000000
0.000000
0.000000
0.000000
0.000000
0.000000
0.000000
0.000000
0.000000
0.000000
0.000000
0.000000
0.000000
0.000000
0.000000
0.000000
0.000000
0.000000
0.000000
0.000000
0.000000
0.000000
0.000000
0.000000
0.000000
0.000000
0.000000
0.000000
0.000000
0.000000
0.000000
0.000000
0.000000
0.000000
0.000000
0.000000
0.000000
0.000000
0.000000
0.000000
0.000000
0.000000
0.000000
0.000000
0.000000
0.000000
0.000000
0.000000
0.000000
0.000000
0.000000
0.000000
0.000000
0.000000
0.000000
0.000000
0.000000
0.000000
0.000000
0.000000
0.000000
0.000000
0.000000
0.000000
0.000000
0.000000
0.000000
0.000000
0.000000
0.000000
0.000000
0.000000
0.000000
0.000000
0.000000
0.000000
0.000000
0.000000
0.000000
0.000000
0.000000
0.000000
0.000000
0.000000
0.000000
0.000000
0.000000
0.000000
0.000000
0.000000
0.000000
0.000000
0.000000
0.000000
0.000000
0.000000
0.000000
0.000000
0.000000
0.000000
0.000000
0.000000
0.000000
0.000000
0.000000
0.000000
0.000000
0.000000
0.000000
0.000000
0.000000
0.000000
0.000000
0.000000
0.000000
0.000000
0.000000
0.000000
0.000000
0.000000
0.000000
0.000000
0.000000
0.000000
0.000000
0.000000
0.000000
0.000000
0.000000
0.000000
0.000000
0.000000
0.000000
0.000000
0.000000
0.000000
0.000000
0.000000
0.000000
0.000000
0.000000
0.000000
0.000000
0.000000
0.000000
0.000000
0.000000
0.000000
0.000000
0.000000
0.000000
0.000000
0.000000
0.000000
0.000000
0.000000
0.000000
0.000000
0.000000
0.000000
0.000000
0.000000
0.000000
0.000000
0.000000
0.000000
0.000000
0.000000
0.000000
0.000000
0.000000
0.000000
0.000000
0.000000
0.000000
0.000000
0.000000
0.000000
0.000000
0.000000
0.000000
0.000000
0.000000
0.000000
0.000000
0.000000
0.000000
0.000000
0.000000
0.000000
0.000000
0.000000
0.000000
0.000000
0.000000
0.000000
0.000000
0.000000
0.000000
0.000000
0.000000
0.000000
0.000000
0.000000
0.000000
0.000000
0.000000
0.000000
0.000000
0.000000
0.000000
0.000000
0.000000
0.000000
0.000000
0.000000
0.000000
0.000000
0.000000
0.000000
0.000000
0.000000
0.000000
0.000000
0.000000
0.000000
0.000000
0.000000
0.000000
0.000000
0.000000
0.000000
0.000000
0.000000
0.000000
0.000000
0.000000
0.000000
0.000000
0.000000
0.000000
0.000000
0.000000

SCALARS u_z FLOAT 1
LOOKUP_TABLE default
0.000000
-0.045613
-0.090496
-0.135006
-0.178696
-0.222167
-0.264751
-0.306879
-0.348244
-0.389300
-0.429612
-0.469463
-0.508379
-0.546657
-0.584620
-0.621676
-0.658233
-0.694058
-0.729185
-0.763862
-0.797568
-0.830613
-0.863104
-0.894714
-0.925555
-0.955968
-0.985587
-1.014361
-1.042376
-1.069491
-1.095816
-1.121324
-1.146299
-1.170431
-1.193544
-1.215745
-1.237159
-1.257884
-1.277674
-1.296530
-1.314442
-1.331395
-1.347363
-1.362556
-1.376754
-1.389949
-1.402129
-1.413280
-1.423388
-1.432440
-1.440419
-1.447311
-1.453098
-1.457763
-1.461285
-1.463699
-1.464814
-1.465288
0.000000
0.000000
0.000000
0.000000
0.000000
0.000000
0.000000
0.000000
-0.045613
-0.090496
-0.135006
-0.178696
-0.222167
-0.264751
-0.306879
-0.348244
-0.389300
-0.429612
-0.469463
-0.508379
-0.546657
-0.584620
-0.621676
-0.658233
-0.694058
-0.729185
-0.763862
-0.797568
-0.830613
-0.863104
-0.894714
-0.925555
-0.955968
-0.985587
-1.014361
-1.042376
-1.069491
-1.095816
-1.121324
-1.146299
-1.170431
-1.193544
-1.215745
-1.237159
-1.257884
-1.277674
-1.296530
-1.314442
-1.331395
-1.347363
-1.362556
-1.376754
-1.389949
-1.402129
-1.413280
-1.423388
-1.432440
-1.440419
-1.447311
-1.453098
-1.457763
-1.461285
-1.463699
-1.464814
-1.465288
0.000000
0.000000
0.000000
0.000000
0.000000
0.000000
0.000000
0.000000
-0.045613
-0.090496
-0.135006
-0.178696
-0.222167
-0.264751
-0.306879
-0.348244
-0.389300
-0.429612
-0.469463
-0.508379
-0.546657
-0.584620
-0.621676
-0.658233
-0.694058
-0.729185
-0.763862
-0.797568
-0.830613
-0.863104
-0.894714
-0.925555
-0.955968
-0.985587
-1.014361
-1.042376
-1.069491
-1.095816
-1.121324
-1.146299
-1.170431
-1.193544
-1.215745
-1.237159
-1.257884
-1.277674
-1.296530
-1.314442
-1.331395
-1.347363
-1.362556
-1.376754
-1.389949
-1.402129
-1.413280
-1.423388
-1.432440
-1.440419
-1.447311
-1.453098
-1.457763
-1.461285
-1.463699
-1.464814
-1.465288
0.000000
0.000000
0.000000
0.000000
0.000000
0.000000
0.000000
0.000000
-0.045613
-0.090496
-0.135006
-0.178696
-0.222167
-0.264751
-0.306879
-0.348244
-0.389300
-0.429612
-0.469463
-0.508379
-0.546657
-0.584620
-0.621676
-0.658233
-0.694058
-0.729185
-0.763862
-0.797568
-0.830613
-0.863104
-0.894714
-0.925555
-0.955968
-0.985587
-1.014361
-1.042376
-1.069491
-1.095816
-1.121324
-1.146299
-1.170431
-1.193544
-1.215745
-1.237159
-1.257884
-1.277674
-1.296530
-1.314442
-1.331395
-1.347363
-1.362556
-1.376754
-1.389949
-1.402129
-1.413280
-1.423388
-1.432440
-1.440419
-1.447311
-1.453098
-1.457763
-1.461285
-1.463699
-1.464814
-1.465288
0.000000
0.000000
0.000000
0.000000
0.000000
0.000000
0.000000

VECTORS u_vector FLOAT
0.000000 0.000000 0.000000
0.000000 0.000000 -0.045613
0.000000 0.000000 -0.090496
0.000000 0.000000 -0.135006
0.000000 0.000000 -0.178696
0.000000 0.000000 -0.222167
0.000000 0.000000 -0.264751
0.000000 0.000000 -0.306879
0.000000 0.000000 -0.348244
0.000000 0.000000 -0.389300
0.000000 0.000000 -0.429612
0.000000 0.000000 -0.469463
0.000000 0.000000 -0.508379
0.000000 0.000000 -0.546657
0.000000 0.000000 -0.584620
0.000000 0.000000 -0.621676
0.000000 0.000000 -0.658233
0.000000 0.000000 -0.694058
0.000000 0.000000 -0.729185
0.000000 0.000000 -0.763862
0.000000 0.000000 -0.797568
0.000000 0.000000 -0.830613
0.000000 0.000000 -0.863104
0.000000 0.000000 -0.894714
0.000000 0.000000 -0.925555
0.000000 0.000000 -0.955968
0.000000 0.000000 -0.985587
0.000000 0.000000 -1.014361
0.000000 0.000000 -1.042376
0.000000 0.000000 -1.069491
0.000000 0.000000 -1.095816
0.000000 0.000000 -1.121324
0.000000 0.000000 -1.146299
0.000000 0.000000 -1.170431
0.000000 0.000000 -1.193544
0.000000 0.000000 -1.215745
0.000000 0.000000 -1.237159
0.000000 0.000000 -1.257884
0.000000 0.000000 -1.277674
0.000000 0.000000 -1.296530
0.000000 0.000000 -1.314442
0.000000 0.000000 -1.331395
0.000000 0.000000 -1.347363
0.000000 0.000000 -1.362556
0.000000 0.000000 -1.376754
0.000000 0.000000 -1.389949
0.000000 0.000000 -1.402129
0.000000 0.000000 -1.413280
0.000000 0.000000 -1.423388
0.000000 0.000000 -1.432440
0.000000 0.000000 -1.440419
0.000000 0.000000 -1.447311
0.000000 0.000000 -1.453098
0.000000 0.000000 -1.457763
0.000000 0.000000 -1.461285
0.000000 0.000000 -1.463699
0.000000 0.000000 -1.464814
0.000000 0.000000 -1.465288
0.000000 0.000000 0.000000
0.000000 0.000000 0.000000
0.000000 0.000000 0.000000
0.000000 0.000000 0.000000
0.000000 0.000000 0.000000
0.000000 0.000000 0.000000
0.000000 0.000000 0.000000
0.000000 0.000000 0.000000
0.000000 0.000000 -0.045613
0.000000 0.000000 -0.090496
0.000000 0.000000 -0.135006
0.000000 0.000000 -0.178696
0.000000 0.000000 -0.222167
0.000000 0.000000 -0.264751
0.000000 0.000000 -0.306879
0.000000 0.000000 -0.348244
0.000000 0.000000 -0.389300
0.000000 0.000000 -0.429612
0.000000 0.000000 -0.469463
0.000000 0.000000 -0.508379
0.000000 0.000000 -0.546657
0.000000 0.000000 -0.584620
0.000000 0.000000 -0.621676
0.000000 0.000000 -0.658233
0.000000 0.000000 -0.694058
0.000000 0.000000 -0.729185
0.000000 0.000000 -0.763862
0.000000 0.000000 -0.797568
0.000000 0.000000 -0.830613
0.000000 0.000000 -0.863104
0.000000 0.000000 -0.894714
0.000000 0.000000 -0.925555
0.000000 0.000000 -0.955968
0.000000 0.000000 -0.985587
0.000000 0.000000 -1.014361
0.000000 0.000000 -1.042376
0.000000 0.000000 -1.069491
0.000000 0.000000 -1.095816
0.000000 0.000000 -1.121324
0.000000 0.000000 -1.146299
0.000000 0.000000 -1.170431
0.000000 0.000000 -1.193544
0.000000 0.000000 -1.215745
0.000000 0.000000 -1.237159
0.000000 0.000000 -1.257884
0.000000 0.000000 -1.277674
0.000000 0.000000 -1.296530
0.000000 0.000000 -1.314442
0.000000 0.000000 -1.331395
0.000000 0.000000 -1.347363
0.000000 0.000000 -1.362556
0.000000 0.000000 -1.376754
0.000000 0.000000 -1.389949
0.000000 0.000000 -1.402129
0.000000 0.000000 -1.413280
0.000000 0.000000 -1.423388
0.000000 0.000000 -1.432440
0.000000 0.000000 -1.440419
0.000000 0.000000 -1.447311
0.000000 0.000000 -1.453098
0.000000 0.000000 -1.457763
0.000000 0.000000 -1.461285
0.000000 0.000000 -1.463699
0.000000 0.000000 -1.464814
0.000000 0.000000 -1.465288
0.000000 0.000000 0.000000
0.000000 0.000000 0.000000
0.000000 0.000000 0.000000
0.000000 0.000000 0.000000
0.000000 0.000000 0.000000
0.000000 0.000000 0.000000
0.000000 0.000000 0.000000
0.000000 0.000000 0.000000
0.000000 0.000000 -0.045613
0.000000 0.000000 -0.090496
0.000000 0.000000 -0.135006
0.000000 0.000000 -0.178696
0.000000 0.000000 -0.222167
0.000000 0.000000 -0.264751
0.000000 0.000000 -0.306879
0.000000 0.000000 -0.348244
0.000000 0.000000 -0.389300
0.000000 0.000000 -0.429612
0.000000 0.000000 -0.469463
0.000000 0.000000 -0.508379
0.000000 0.000000 -0.546657
0.000000 0.000000 -0.584620
0.000000 0.000000 -0.621676
0.000000 0.000000 -0.658233
0.000000 0.000000 -0.694058
0.000000 0.000000 -0.729185
0.000000 0.000000 -0.763862
0.000000 0.000000 -0.797568
0.000000 0.000000 -0.830613
0.000000 0.000000 -0.863104
0.000000 0.000000 -0.894714
0.000000 0.000000 -0.925555
0.000000 0.000000 -0.955968
0.000000 0.000000 -0.985587
0.000000 0.000000 -1.014361
0.000000 0.000000 -1.042376
0.000000 0.000000 -1.069491
0.000000 0.000000 -1.095816
0.000000 0.000000 -1.121324
0.000000 0.000000 -1.146299
0.000000 0.000000 -1.170431
0.000000 0.000000 -1.193544
0.000000 0.000000 -1.215745
0.000000 0.000000 -1.237159
0.000000 0.000000 -1.257884
0.000000 0.000000 -1.277674
0.000000 0.000000 -1.296530
0.000000 0.000000 -1.314442
0.000000 0.000000 -1.331395
0.000000 0.000000 -1.347363
0.000000 0.000000 -1.362556
0.000000 0.000000 -1.376754
0.000000 0.000000 -1.389949
0.000000 0.000000 -1.402129
0.000000 0.000000 -1.413280
0.000000 0.000000 -1.423388
0.000000 0.000000 -1.432440
0.000000 0.000000 -1.440419
0.000000 0.000000 -1.447311
0.000000 0.000000 -1.453098
0.000000 0.000000 -1.457763
0.000000 0.000000 -1.461285
0.000000 0.000000 -1.463699
0.000000 0.000000 -1.464814
0.000000 0.000000 -1.465288
0.000000 0.000000 0.000000
0.000000 0.000000 0.000000
0.000000 0.000000 0.000000
0.000000 0.000000 0.000000
0.000000 0.000000 0.000000
0.000000 0.000000 0.000000
0.000000 0.000000 0.000000
0.000000 0.000000 0.000000
0.000000 0.000000 -0.045613
0.000000 0.000000 -0.090496
0.000000 0.000000 -0.135006
0.000000 0.000000 -0.178696
0.000000 0.000000 -0.222167
0.000000 0.000000 -0.264751
0.000000 0.000000 -0.306879
0.000000 0.000000 -0.348244
0.000000 0.000000 -0.389300
0.000000 0.000000 -0.429612
0.000000 0.000000 -0.469463
0.000000 0.000000 -0.508379
0.000000 0.000000 -0.546657
0.000000 0.000000 -0.584620
0.000000 0.000000 -0.621676
0.000000 0.000000 -0.658233
0.000000 0.000000 -0.694058
0.000000 0.000000 -0.729185
0.000000 0.000000 -0.763862
0.000000 0.000000 -0.797568
0.000000 0.000000 -0.830613
0.000000 0.000000 -0.863104
0.000000 0.000000 -0.894714
0.000000 0.000000 -0.925555
0.000000 0.000000 -0.955968
0.000000 0.000000 -0.985587
0.000000 0.000000 -1.014361
0.000000 0.000000 -1.042376
0.000000 0.000000 -1.069491
0.000000 0.000000 -1.095816
0.000000 0.000000 -1.121324
0.000000 0.000000 -1.146299
0.000000 0.000000 -1.170431
0.000000 0.000000 -1.193544
0.000000 0.000000 -1.215745
0.000000 0.000000 -1.237159
0.000000 0.000000 -1.257884
0.000000 0.000000 -1.277674
0.000000 0.000000 -1.296530
0.000000 0.000000 -1.314442
0.000000 0.000000 -1.331395
0.000000 0.000000 -1.347363
0.000000 0.000000 -1.362556
0.000000 0.000000 -1.376754
0.000000 0.000000 -1.389949
0.000000 0.000000 -1.402129
0.000000 0.000000 -1.413280
0.000000 0.000000 -1.423388
0.000000 0.000000 -1.432440
0.000000 0.000000 -1.440419
0.000000 0.000000 -1.447311
0.000000 0.000000 -1.453098
0.000000 0.000000 -1.457763
0.000000 0.000000 -1.461285
0.000000 0.000000 -1.463699
0.000000 0.000000 -1.464814
0.000000 0.000000 -1.465288
0.000000 0.000000 0.000000
0.000000 0.000000 0.000000
0.000000 0.000000 0.000000
0.000000 0.000000 0.000000
0.000000 0.000000 0.000000
0.000000 0.000000 0.000000
0.000000 0.000000 0.000000

