# vtk DataFile Version 2.0
MATLAB generated vtk file, WMC
ASCII
DATASET UNSTRUCTURED_GRID
POINTS 130 double
0.000000 0.000000 0.000000 
0.781250 0.000000 0.000000 
0.000000 0.781250 0.000000 
0.781250 0.781250 0.000000 
0.000000 1.562500 0.000000 
0.781250 1.562500 0.000000 
0.000000 2.343750 0.000000 
0.781250 2.343750 0.000000 
0.000000 3.125000 0.000000 
0.781250 3.125000 0.000000 
0.000000 3.906250 0.000000 
0.781250 3.906250 0.000000 
0.000000 4.687500 0.000000 
0.781250 4.687500 0.000000 
0.000000 5.468750 0.000000 
0.781250 5.468750 0.000000 
0.000000 6.250000 0.000000 
0.781250 6.250000 0.000000 
0.000000 7.031250 0.000000 
0.781250 7.031250 0.000000 
0.000000 7.812500 0.000000 
0.781250 7.812500 0.000000 
0.000000 8.593750 0.000000 
0.781250 8.593750 0.000000 
0.000000 9.375000 0.000000 
0.781250 9.375000 0.000000 
0.000000 10.156250 0.000000 
0.781250 10.156250 0.000000 
0.000000 10.937500 0.000000 
0.781250 10.937500 0.000000 
0.000000 11.718750 0.000000 
0.781250 11.718750 0.000000 
0.000000 12.500000 0.000000 
0.781250 12.500000 0.000000 
0.000000 13.281250 0.000000 
0.781250 13.281250 0.000000 
0.000000 14.062500 0.000000 
0.781250 14.062500 0.000000 
0.000000 14.843750 0.000000 
0.781250 14.843750 0.000000 
0.000000 15.625000 0.000000 
0.781250 15.625000 0.000000 
0.000000 16.406250 0.000000 
0.781250 16.406250 0.000000 
0.000000 17.187500 0.000000 
0.781250 17.187500 0.000000 
0.000000 17.968750 0.000000 
0.781250 17.968750 0.000000 
0.000000 18.750000 0.000000 
0.781250 18.750000 0.000000 
0.000000 19.531250 0.000000 
0.781250 19.531250 0.000000 
0.000000 20.312500 0.000000 
0.781250 20.312500 0.000000 
0.000000 21.093750 0.000000 
0.781250 21.093750 0.000000 
0.000000 21.875000 0.000000 
0.781250 21.875000 0.000000 
0.000000 22.656250 0.000000 
0.781250 22.656250 0.000000 
0.000000 23.437500 0.000000 
0.781250 23.437500 0.000000 
0.000000 24.218750 0.000000 
0.781250 24.218750 0.000000 
0.000000 25.000000 0.000000 
0.781250 25.000000 0.000000 
0.000000 25.781250 0.000000 
0.781250 25.781250 0.000000 
0.000000 26.562500 0.000000 
0.781250 26.562500 0.000000 
0.000000 27.343750 0.000000 
0.781250 27.343750 0.000000 
0.000000 28.125000 0.000000 
0.781250 28.125000 0.000000 
0.000000 28.906250 0.000000 
0.781250 28.906250 0.000000 
0.000000 29.687500 0.000000 
0.781250 29.687500 0.000000 
0.000000 30.468750 0.000000 
0.781250 30.468750 0.000000 
0.000000 31.250000 0.000000 
0.781250 31.250000 0.000000 
0.000000 32.031250 0.000000 
0.781250 32.031250 0.000000 
0.000000 32.812500 0.000000 
0.781250 32.812500 0.000000 
0.000000 33.593750 0.000000 
0.781250 33.593750 0.000000 
0.000000 34.375000 0.000000 
0.781250 34.375000 0.000000 
0.000000 35.156250 0.000000 
0.781250 35.156250 0.000000 
0.000000 35.937500 0.000000 
0.781250 35.937500 0.000000 
0.000000 36.718750 0.000000 
0.781250 36.718750 0.000000 
0.000000 37.500000 0.000000 
0.781250 37.500000 0.000000 
0.000000 38.281250 0.000000 
0.781250 38.281250 0.000000 
0.000000 39.062500 0.000000 
0.781250 39.062500 0.000000 
0.000000 39.843750 0.000000 
0.781250 39.843750 0.000000 
0.000000 40.625000 0.000000 
0.781250 40.625000 0.000000 
0.000000 41.406250 0.000000 
0.781250 41.406250 0.000000 
0.000000 42.187500 0.000000 
0.781250 42.187500 0.000000 
0.000000 42.968750 0.000000 
0.781250 42.968750 0.000000 
0.000000 43.750000 0.000000 
0.781250 43.750000 0.000000 
0.000000 44.531250 0.000000 
0.781250 44.531250 0.000000 
0.000000 45.312500 0.000000 
0.781250 45.312500 0.000000 
0.000000 46.093750 0.000000 
0.781250 46.093750 0.000000 
0.000000 46.875000 0.000000 
0.781250 46.875000 0.000000 
0.000000 47.656250 0.000000 
0.781250 47.656250 0.000000 
0.000000 48.437500 0.000000 
0.781250 48.437500 0.000000 
0.000000 49.218750 0.000000 
0.781250 49.218750 0.000000 
0.000000 50.000000 0.000000 
0.781250 50.000000 0.000000 

CELLS 64 320
4 0 1 2 3
4 2 3 4 5
4 4 5 6 7
4 6 7 8 9
4 8 9 10 11
4 10 11 12 13
4 12 13 14 15
4 14 15 16 17
4 16 17 18 19
4 18 19 20 21
4 20 21 22 23
4 22 23 24 25
4 24 25 26 27
4 26 27 28 29
4 28 29 30 31
4 30 31 32 33
4 32 33 34 35
4 34 35 36 37
4 36 37 38 39
4 38 39 40 41
4 40 41 42 43
4 42 43 44 45
4 44 45 46 47
4 46 47 48 49
4 48 49 50 51
4 50 51 52 53
4 52 53 54 55
4 54 55 56 57
4 56 57 58 59
4 58 59 60 61
4 60 61 62 63
4 62 63 64 65
4 64 65 66 67
4 66 67 68 69
4 68 69 70 71
4 70 71 72 73
4 72 73 74 75
4 74 75 76 77
4 76 77 78 79
4 78 79 80 81
4 80 81 82 83
4 82 83 84 85
4 84 85 86 87
4 86 87 88 89
4 88 89 90 91
4 90 91 92 93
4 92 93 94 95
4 94 95 96 97
4 96 97 98 99
4 98 99 100 101
4 100 101 102 103
4 102 103 104 105
4 104 105 106 107
4 106 107 108 109
4 108 109 110 111
4 110 111 112 113
4 112 113 114 115
4 114 115 116 117
4 116 117 118 119
4 118 119 120 121
4 120 121 122 123
4 122 123 124 125
4 124 125 126 127
4 126 127 128 129

CELL_TYPES 64
8
8
8
8
8
8
8
8
8
8
8
8
8
8
8
8
8
8
8
8
8
8
8
8
8
8
8
8
8
8
8
8
8
8
8
8
8
8
8
8
8
8
8
8
8
8
8
8
8
8
8
8
8
8
8
8
8
8
8
8
8
8
8
8

POINT_DATA 130
SCALARS u_x FLOAT 1
LOOKUP_TABLE default
0.000000
0.000000
0.000000
0.000000
0.000000
0.000000
0.000000
0.000000
0.000000
0.000000
0.000000
0.000000
0.000000
0.000000
0.000000
0.000000
0.000000
0.000000
0.000000
0.000000
0.000000
0.000000
0.000000
0.000000
0.000000
0.000000
0.000000
0.000000
0.000000
0.000000
0.000000
0.000000
0.000000
0.000000
0.000000
0.000000
0.000000
0.000000
0.000000
0.000000
0.000000
0.000000
0.000000
0.000000
0.000000
0.000000
0.000000
0.000000
0.000000
0.000000
0.000000
0.000000
0.000000
0.000000
0.000000
0.000000
0.000000
0.000000
0.000000
0.000000
0.000000
0.000000
0.000000
0.000000
0.000000
0.000000
0.000000
0.000000
0.000000
0.000000
0.000000
0.000000
0.000000
0.000000
0.000000
0.000000
0.000000
0.000000
0.000000
0.000000
0.000000
0.000000
0.000000
0.000000
0.000000
0.000000
0.000000
0.000000
0.000000
0.000000
0.000000
0.000000
0.000000
0.000000
0.000000
0.000000
0.000000
0.000000
0.000000
0.000000
0.000000
0.000000
0.000000
0.000000
0.000000
0.000000
0.000000
0.000000
0.000000
0.000000
0.000000
0.000000
0.000000
0.000000
0.000000
0.000000
0.000000
0.000000
0.000000
0.000000
0.000000
0.000000
0.000000
0.000000
0.000000
0.000000
0.000000
0.000000
0.000000
0.000000

SCALARS u_y FLOAT 1
LOOKUP_TABLE default
0.000000
0.000000
-0.028501
-0.028501
-0.056616
-0.056616
-0.084372
-0.084372
-0.111958
-0.111958
-0.139206
-0.139206
-0.165857
-0.165857
-0.192312
-0.192312
-0.218387
-0.218387
-0.244272
-0.244272
-0.269490
-0.269490
-0.294602
-0.294602
-0.319153
-0.319153
-0.343327
-0.343327
-0.367292
-0.367292
-0.390628
-0.390628
-0.413450
-0.413450
-0.435931
-0.435931
-0.457848
-0.457848
-0.479688
-0.479688
-0.500776
-0.500776
-0.521421
-0.521421
-0.541990
-0.541990
-0.561165
-0.561165
-0.580444
-0.580444
-0.599253
-0.599253
-0.616976
-0.616976
-0.634865
-0.634865
-0.651461
-0.651461
-0.668042
-0.668042
-0.683597
-0.683597
-0.698779
-0.698779
-0.713174
-0.713174
-0.726960
-0.726960
-0.740061
-0.740061
-0.752472
-0.752472
-0.764012
-0.764012
-0.774853
-0.774853
-0.785033
-0.785033
-0.794155
-0.794155
-0.802395
-0.802395
-0.809896
-0.809896
-0.816864
-0.816864
-0.822523
-0.822523
-0.827074
-0.827074
-0.830629
-0.830629
-0.833043
-0.833043
-0.834492
-0.834492
-0.834571
-0.834571
0.000000
0.000000
0.000000
0.000000
0.000000
0.000000
0.000000
0.000000
0.000000
0.000000
0.000000
0.000000
0.000000
0.000000
0.000000
0.000000
0.000000
0.000000
0.000000
0.000000
0.000000
0.000000
0.000000
0.000000
0.000000
0.000000
0.000000
0.000000
0.000000
0.000000
0.000000
0.000000

VECTORS u_vector FLOAT
0.000000 0.000000 0.000000
0.000000 0.000000 0.000000
0.000000 -0.028501 0.000000
0.000000 -0.028501 0.000000
0.000000 -0.056616 0.000000
0.000000 -0.056616 0.000000
0.000000 -0.084372 0.000000
0.000000 -0.084372 0.000000
0.000000 -0.111958 0.000000
0.000000 -0.111958 0.000000
0.000000 -0.139206 0.000000
0.000000 -0.139206 0.000000
0.000000 -0.165857 0.000000
0.000000 -0.165857 0.000000
0.000000 -0.192312 0.000000
0.000000 -0.192312 0.000000
0.000000 -0.218387 0.000000
0.000000 -0.218387 0.000000
0.000000 -0.244272 0.000000
0.000000 -0.244272 0.000000
0.000000 -0.269490 0.000000
0.000000 -0.269490 0.000000
0.000000 -0.294602 0.000000
0.000000 -0.294602 0.000000
0.000000 -0.319153 0.000000
0.000000 -0.319153 0.000000
0.000000 -0.343327 0.000000
0.000000 -0.343327 0.000000
0.000000 -0.367292 0.000000
0.000000 -0.367292 0.000000
0.000000 -0.390628 0.000000
0.000000 -0.390628 0.000000
0.000000 -0.413450 0.000000
0.000000 -0.413450 0.000000
0.000000 -0.435931 0.000000
0.000000 -0.435931 0.000000
0.000000 -0.457848 0.000000
0.000000 -0.457848 0.000000
0.000000 -0.479688 0.000000
0.000000 -0.479688 0.000000
0.000000 -0.500776 0.000000
0.000000 -0.500776 0.000000
0.000000 -0.521421 0.000000
0.000000 -0.521421 0.000000
0.000000 -0.541990 0.000000
0.000000 -0.541990 0.000000
0.000000 -0.561165 0.000000
0.000000 -0.561165 0.000000
0.000000 -0.580444 0.000000
0.000000 -0.580444 0.000000
0.000000 -0.599253 0.000000
0.000000 -0.599253 0.000000
0.000000 -0.616976 0.000000
0.000000 -0.616976 0.000000
0.000000 -0.634865 0.000000
0.000000 -0.634865 0.000000
0.000000 -0.651461 0.000000
0.000000 -0.651461 0.000000
0.000000 -0.668042 0.000000
0.000000 -0.668042 0.000000
0.000000 -0.683597 0.000000
0.000000 -0.683597 0.000000
0.000000 -0.698779 0.000000
0.000000 -0.698779 0.000000
0.000000 -0.713174 0.000000
0.000000 -0.713174 0.000000
0.000000 -0.726960 0.000000
0.000000 -0.726960 0.000000
0.000000 -0.740061 0.000000
0.000000 -0.740061 0.000000
0.000000 -0.752472 0.000000
0.000000 -0.752472 0.000000
0.000000 -0.764012 0.000000
0.000000 -0.764012 0.000000
0.000000 -0.774853 0.000000
0.000000 -0.774853 0.000000
0.000000 -0.785033 0.000000
0.000000 -0.785033 0.000000
0.000000 -0.794155 0.000000
0.000000 -0.794155 0.000000
0.000000 -0.802395 0.000000
0.000000 -0.802395 0.000000
0.000000 -0.809896 0.000000
0.000000 -0.809896 0.000000
0.000000 -0.816864 0.000000
0.000000 -0.816864 0.000000
0.000000 -0.822523 0.000000
0.000000 -0.822523 0.000000
0.000000 -0.827074 0.000000
0.000000 -0.827074 0.000000
0.000000 -0.830629 0.000000
0.000000 -0.830629 0.000000
0.000000 -0.833043 0.000000
0.000000 -0.833043 0.000000
0.000000 -0.834492 0.000000
0.000000 -0.834492 0.000000
0.000000 -0.834571 0.000000
0.000000 -0.834571 0.000000
0.000000 0.000000 0.000000
0.000000 0.000000 0.000000
0.000000 0.000000 0.000000
0.000000 0.000000 0.000000
0.000000 0.000000 0.000000
0.000000 0.000000 0.000000
0.000000 0.000000 0.000000
0.000000 0.000000 0.000000
0.000000 0.000000 0.000000
0.000000 0.000000 0.000000
0.000000 0.000000 0.000000
0.000000 0.000000 0.000000
0.000000 0.000000 0.000000
0.000000 0.000000 0.000000
0.000000 0.000000 0.000000
0.000000 0.000000 0.000000
0.000000 0.000000 0.000000
0.000000 0.000000 0.000000
0.000000 0.000000 0.000000
0.000000 0.000000 0.000000
0.000000 0.000000 0.000000
0.000000 0.000000 0.000000
0.000000 0.000000 0.000000
0.000000 0.000000 0.000000
0.000000 0.000000 0.000000
0.000000 0.000000 0.000000
0.000000 0.000000 0.000000
0.000000 0.000000 0.000000
0.000000 0.000000 0.000000
0.000000 0.000000 0.000000
0.000000 0.000000 0.000000
0.000000 0.000000 0.000000

