# vtk DataFile Version 2.0
MATLAB generated vtk file, WMC
ASCII
DATASET UNSTRUCTURED_GRID
POINTS 68 double
0.000000 0.000000 0.000000 
0.000000 0.000000 3.125000 
0.000000 0.000000 6.250000 
0.000000 0.000000 9.375000 
0.000000 0.000000 12.500000 
0.000000 0.000000 15.625000 
0.000000 0.000000 18.750000 
0.000000 0.000000 21.875000 
0.000000 0.000000 25.000000 
0.000000 0.000000 28.125000 
0.000000 0.000000 31.250000 
0.000000 0.000000 34.375000 
0.000000 0.000000 37.500000 
0.000000 0.000000 40.625000 
0.000000 0.000000 43.750000 
0.000000 0.000000 46.875000 
0.000000 0.000000 50.000000 
3.125000 0.000000 0.000000 
3.125000 0.000000 3.125000 
3.125000 0.000000 6.250000 
3.125000 0.000000 9.375000 
3.125000 0.000000 12.500000 
3.125000 0.000000 15.625000 
3.125000 0.000000 18.750000 
3.125000 0.000000 21.875000 
3.125000 0.000000 25.000000 
3.125000 0.000000 28.125000 
3.125000 0.000000 31.250000 
3.125000 0.000000 34.375000 
3.125000 0.000000 37.500000 
3.125000 0.000000 40.625000 
3.125000 0.000000 43.750000 
3.125000 0.000000 46.875000 
3.125000 0.000000 50.000000 
0.000000 3.125000 0.000000 
0.000000 3.125000 3.125000 
0.000000 3.125000 6.250000 
0.000000 3.125000 9.375000 
0.000000 3.125000 12.500000 
0.000000 3.125000 15.625000 
0.000000 3.125000 18.750000 
0.000000 3.125000 21.875000 
0.000000 3.125000 25.000000 
0.000000 3.125000 28.125000 
0.000000 3.125000 31.250000 
0.000000 3.125000 34.375000 
0.000000 3.125000 37.500000 
0.000000 3.125000 40.625000 
0.000000 3.125000 43.750000 
0.000000 3.125000 46.875000 
0.000000 3.125000 50.000000 
3.125000 3.125000 0.000000 
3.125000 3.125000 3.125000 
3.125000 3.125000 6.250000 
3.125000 3.125000 9.375000 
3.125000 3.125000 12.500000 
3.125000 3.125000 15.625000 
3.125000 3.125000 18.750000 
3.125000 3.125000 21.875000 
3.125000 3.125000 25.000000 
3.125000 3.125000 28.125000 
3.125000 3.125000 31.250000 
3.125000 3.125000 34.375000 
3.125000 3.125000 37.500000 
3.125000 3.125000 40.625000 
3.125000 3.125000 43.750000 
3.125000 3.125000 46.875000 
3.125000 3.125000 50.000000 

CELLS 16 144
8 0 17 51 34 1 18 52 35
8 1 18 52 35 2 19 53 36
8 2 19 53 36 3 20 54 37
8 3 20 54 37 4 21 55 38
8 4 21 55 38 5 22 56 39
8 5 22 56 39 6 23 57 40
8 6 23 57 40 7 24 58 41
8 7 24 58 41 8 25 59 42
8 8 25 59 42 9 26 60 43
8 9 26 60 43 10 27 61 44
8 10 27 61 44 11 28 62 45
8 11 28 62 45 12 29 63 46
8 12 29 63 46 13 30 64 47
8 13 30 64 47 14 31 65 48
8 14 31 65 48 15 32 66 49
8 15 32 66 49 16 33 67 50

CELL_TYPES 16
12
12
12
12
12
12
12
12
12
12
12
12
12
12
12
12

POINT_DATA 68
SCALARS u_x FLOAT 1
LOOKUP_TABLE default
0.000000
0.000000
0.000000
0.000000
0.000000
0.000000
0.000000
0.000000
0.000000
0.000000
0.000000
0.000000
0.000000
0.000000
0.000000
0.000000
0.000000
0.000000
0.000000
0.000000
0.000000
0.000000
0.000000
0.000000
0.000000
0.000000
0.000000
0.000000
0.000000
0.000000
0.000000
0.000000
0.000000
0.000000
0.000000
0.000000
0.000000
0.000000
0.000000
0.000000
0.000000
0.000000
0.000000
0.000000
0.000000
0.000000
0.000000
0.000000
0.000000
0.000000
0.000000
0.000000
0.000000
0.000000
0.000000
0.000000
0.000000
0.000000
0.000000
0.000000
0.000000
0.000000
0.000000
0.000000
0.000000
0.000000
0.000000
0.000000

SCALARS u_y FLOAT 1
LOOKUP_TABLE default
0.000000
0.000000
0.000000
0.000000
0.000000
0.000000
0.000000
0.000000
0.000000
0.000000
0.000000
0.000000
0.000000
0.000000
0.000000
0.000000
0.000000
0.000000
0.000000
0.000000
0.000000
0.000000
0.000000
0.000000
0.000000
0.000000
0.000000
0.000000
0.000000
0.000000
0.000000
0.000000
0.000000
0.000000
0.000000
0.000000
0.000000
0.000000
0.000000
0.000000
0.000000
0.000000
0.000000
0.000000
0.000000
0.000000
0.000000
0.000000
0.000000
0.000000
0.000000
0.000000
0.000000
0.000000
0.000000
0.000000
0.000000
0.000000
0.000000
0.000000
0.000000
0.000000
0.000000
0.000000
0.000000
0.000000
0.000000
0.000000

SCALARS u_z FLOAT 1
LOOKUP_TABLE default
0.000000
-0.228853
-0.444793
-0.647542
-0.836801
-1.012257
-1.173554
-1.320781
-1.454146
-1.572086
-1.674174
-1.759932
-1.828831
-1.880429
-1.913443
-1.931485
-1.908122
0.000000
-0.228853
-0.444793
-0.647542
-0.836801
-1.012257
-1.173554
-1.320781
-1.454146
-1.572086
-1.674174
-1.759932
-1.828831
-1.880429
-1.913443
-1.931485
-1.908122
0.000000
-0.228853
-0.444793
-0.647542
-0.836801
-1.012257
-1.173554
-1.320781
-1.454146
-1.572086
-1.674174
-1.759932
-1.828831
-1.880429
-1.913443
-1.931485
-1.908122
0.000000
-0.228853
-0.444793
-0.647542
-0.836801
-1.012257
-1.173554
-1.320781
-1.454146
-1.572086
-1.674174
-1.759932
-1.828831
-1.880429
-1.913443
-1.931485
-1.908122

VECTORS u_vector FLOAT
0.000000 0.000000 0.000000
0.000000 0.000000 -0.228853
0.000000 0.000000 -0.444793
0.000000 0.000000 -0.647542
0.000000 0.000000 -0.836801
0.000000 0.000000 -1.012257
0.000000 0.000000 -1.173554
0.000000 0.000000 -1.320781
0.000000 0.000000 -1.454146
0.000000 0.000000 -1.572086
0.000000 0.000000 -1.674174
0.000000 0.000000 -1.759932
0.000000 0.000000 -1.828831
0.000000 0.000000 -1.880429
0.000000 0.000000 -1.913443
0.000000 0.000000 -1.931485
0.000000 0.000000 -1.908122
0.000000 0.000000 0.000000
0.000000 0.000000 -0.228853
0.000000 0.000000 -0.444793
0.000000 0.000000 -0.647542
0.000000 0.000000 -0.836801
0.000000 0.000000 -1.012257
0.000000 0.000000 -1.173554
0.000000 0.000000 -1.320781
0.000000 0.000000 -1.454146
0.000000 0.000000 -1.572086
0.000000 0.000000 -1.674174
0.000000 0.000000 -1.759932
0.000000 0.000000 -1.828831
0.000000 0.000000 -1.880429
0.000000 0.000000 -1.913443
0.000000 0.000000 -1.931485
0.000000 0.000000 -1.908122
0.000000 0.000000 0.000000
0.000000 0.000000 -0.228853
0.000000 0.000000 -0.444793
0.000000 0.000000 -0.647542
0.000000 0.000000 -0.836801
0.000000 0.000000 -1.012257
0.000000 0.000000 -1.173554
0.000000 0.000000 -1.320781
0.000000 0.000000 -1.454146
0.000000 0.000000 -1.572086
0.000000 0.000000 -1.674174
0.000000 0.000000 -1.759932
0.000000 0.000000 -1.828831
0.000000 0.000000 -1.880429
0.000000 0.000000 -1.913443
0.000000 0.000000 -1.931485
0.000000 0.000000 -1.908122
0.000000 0.000000 0.000000
0.000000 0.000000 -0.228853
0.000000 0.000000 -0.444793
0.000000 0.000000 -0.647542
0.000000 0.000000 -0.836801
0.000000 0.000000 -1.012257
0.000000 0.000000 -1.173554
0.000000 0.000000 -1.320781
0.000000 0.000000 -1.454146
0.000000 0.000000 -1.572086
0.000000 0.000000 -1.674174
0.000000 0.000000 -1.759932
0.000000 0.000000 -1.828831
0.000000 0.000000 -1.880429
0.000000 0.000000 -1.913443
0.000000 0.000000 -1.931485
0.000000 0.000000 -1.908122

