# vtk DataFile Version 2.0
MATLAB generated vtk file, WMC
ASCII
DATASET UNSTRUCTURED_GRID
POINTS 256 double
0.195312 0.081751 0.000000 
0.195312 0.245253 0.000000 
0.585938 0.081751 0.000000 
0.585938 0.245253 0.000000 
0.195312 0.408981 0.000000 
0.195312 0.573452 0.000000 
0.585938 0.408981 0.000000 
0.585938 0.573452 0.000000 
0.195312 0.738648 0.000000 
0.195312 0.904589 0.000000 
0.585938 0.738648 0.000000 
0.585938 0.904589 0.000000 
0.195312 1.071044 0.000000 
0.195312 1.238099 0.000000 
0.585938 1.071044 0.000000 
0.585938 1.238099 0.000000 
0.195312 1.405792 0.000000 
0.195312 1.574214 0.000000 
0.585938 1.405792 0.000000 
0.585938 1.574214 0.000000 
0.195312 1.743264 0.000000 
0.195312 1.912937 0.000000 
0.585938 1.743264 0.000000 
0.585938 1.912937 0.000000 
0.195312 2.083241 0.000000 
0.195312 2.254268 0.000000 
0.585938 2.083241 0.000000 
0.585938 2.254268 0.000000 
0.195312 2.425986 0.000000 
0.195312 2.598364 0.000000 
0.585938 2.425986 0.000000 
0.585938 2.598364 0.000000 
0.195312 2.771416 0.000000 
0.195312 2.945176 0.000000 
0.585938 2.771416 0.000000 
0.585938 2.945176 0.000000 
0.195312 3.119661 0.000000 
0.195312 3.294820 0.000000 
0.585938 3.119661 0.000000 
0.585938 3.294820 0.000000 
0.195312 3.470702 0.000000 
0.195312 3.647294 0.000000 
0.585938 3.470702 0.000000 
0.585938 3.647294 0.000000 
0.195312 3.824645 0.000000 
0.195312 4.002727 0.000000 
0.585938 3.824645 0.000000 
0.585938 4.002727 0.000000 
0.195312 4.181572 0.000000 
0.195312 4.361167 0.000000 
0.585938 4.181572 0.000000 
0.585938 4.361167 0.000000 
0.195312 4.541591 0.000000 
0.195312 4.722757 0.000000 
0.585938 4.541591 0.000000 
0.585938 4.722757 0.000000 
0.195312 4.904740 0.000000 
0.195312 5.087469 0.000000 
0.585938 4.904740 0.000000 
0.585938 5.087469 0.000000 
0.195312 5.270962 0.000000 
0.195312 5.455285 0.000000 
0.585938 5.270962 0.000000 
0.585938 5.455285 0.000000 
0.195312 5.640430 0.000000 
0.195312 5.826461 0.000000 
0.585938 5.640430 0.000000 
0.585938 5.826461 0.000000 
0.195312 6.013240 0.000000 
0.195312 6.200982 0.000000 
0.585938 6.013240 0.000000 
0.585938 6.200982 0.000000 
0.195312 6.389530 0.000000 
0.195312 6.578953 0.000000 
0.585938 6.389530 0.000000 
0.585938 6.578953 0.000000 
0.195312 6.769191 0.000000 
0.195312 6.960328 0.000000 
0.585938 6.769191 0.000000 
0.585938 6.960328 0.000000 
0.195312 7.152450 0.000000 
0.195312 7.345345 0.000000 
0.585938 7.152450 0.000000 
0.585938 7.345345 0.000000 
0.195312 7.539323 0.000000 
0.195312 7.734138 0.000000 
0.585938 7.539323 0.000000 
0.585938 7.734138 0.000000 
0.195312 7.930007 0.000000 
0.195312 8.126715 0.000000 
0.585938 7.930007 0.000000 
0.585938 8.126715 0.000000 
0.195312 8.324388 0.000000 
0.195312 8.523090 0.000000 
0.585938 8.324388 0.000000 
0.585938 8.523090 0.000000 
0.195312 8.722757 0.000000 
0.195312 8.923498 0.000000 
0.585938 8.722757 0.000000 
0.585938 8.923498 0.000000 
0.195312 9.125154 0.000000 
0.195312 9.327858 0.000000 
0.585938 9.125154 0.000000 
0.585938 9.327858 0.000000 
0.195312 9.531669 0.000000 
0.195312 9.736462 0.000000 
0.585938 9.531669 0.000000 
0.585938 9.736462 0.000000 
0.195312 9.942520 0.000000 
0.195312 10.149607 0.000000 
0.585938 9.942520 0.000000 
0.585938 10.149607 0.000000 
0.195312 10.357845 0.000000 
0.195312 10.567107 0.000000 
0.585938 10.357845 0.000000 
0.585938 10.567107 0.000000 
0.195312 10.777478 0.000000 
0.195312 10.989044 0.000000 
0.585938 10.777478 0.000000 
0.585938 10.989044 0.000000 
0.195312 11.201769 0.000000 
0.195312 11.415760 0.000000 
0.585938 11.201769 0.000000 
0.585938 11.415760 0.000000 
0.195312 11.630895 0.000000 
0.195312 11.847253 0.000000 
0.585938 11.630895 0.000000 
0.585938 11.847253 0.000000 
0.195312 12.064921 0.000000 
0.195312 12.283699 0.000000 
0.585938 12.064921 0.000000 
0.585938 12.283699 0.000000 
0.195312 12.503933 0.000000 
0.195312 12.725390 0.000000 
0.585938 12.503933 0.000000 
0.585938 12.725390 0.000000 
0.195312 12.948155 0.000000 
0.195312 13.172473 0.000000 
0.585938 12.948155 0.000000 
0.585938 13.172473 0.000000 
0.195312 13.397909 0.000000 
0.195312 13.624887 0.000000 
0.585938 13.397909 0.000000 
0.585938 13.624887 0.000000 
0.195312 13.853115 0.000000 
0.195312 14.082868 0.000000 
0.585938 13.853115 0.000000 
0.585938 14.082868 0.000000 
0.195312 14.314077 0.000000 
0.195312 14.546748 0.000000 
0.585938 14.314077 0.000000 
0.585938 14.546748 0.000000 
0.195312 14.781052 0.000000 
0.195312 15.016824 0.000000 
0.585938 14.781052 0.000000 
0.585938 15.016824 0.000000 
0.195312 15.254053 0.000000 
0.195312 15.493107 0.000000 
0.585938 15.254053 0.000000 
0.585938 15.493107 0.000000 
0.195312 15.733597 0.000000 
0.195312 15.975858 0.000000 
0.585938 15.733597 0.000000 
0.585938 15.975858 0.000000 
0.195312 16.219631 0.000000 
0.195312 16.465187 0.000000 
0.585938 16.219631 0.000000 
0.585938 16.465187 0.000000 
0.195312 16.712710 0.000000 
0.195312 16.961590 0.000000 
0.585938 16.712710 0.000000 
0.585938 16.961590 0.000000 
0.195312 17.212652 0.000000 
0.195312 17.465289 0.000000 
0.585938 17.212652 0.000000 
0.585938 17.465289 0.000000 
0.195312 17.720017 0.000000 
0.195312 17.976582 0.000000 
0.585938 17.720017 0.000000 
0.585938 17.976582 0.000000 
0.195312 18.235143 0.000000 
0.195312 18.495682 0.000000 
0.585938 18.235143 0.000000 
0.585938 18.495682 0.000000 
0.195312 18.758281 0.000000 
0.195312 19.022990 0.000000 
0.585938 18.758281 0.000000 
0.585938 19.022990 0.000000 
0.195312 19.289974 0.000000 
0.195312 19.558742 0.000000 
0.585938 19.289974 0.000000 
0.585938 19.558742 0.000000 
0.195312 19.830199 0.000000 
0.195312 20.103621 0.000000 
0.585938 19.830199 0.000000 
0.585938 20.103621 0.000000 
0.195312 20.379755 0.000000 
0.195312 20.657891 0.000000 
0.585938 20.379755 0.000000 
0.585938 20.657891 0.000000 
0.195312 20.938662 0.000000 
0.195312 21.222037 0.000000 
0.585938 20.938662 0.000000 
0.585938 21.222037 0.000000 
0.195312 21.507700 0.000000 
0.195312 21.796418 0.000000 
0.585938 21.507700 0.000000 
0.585938 21.796418 0.000000 
0.195312 22.087642 0.000000 
0.195312 22.381956 0.000000 
0.585938 22.087642 0.000000 
0.585938 22.381956 0.000000 
0.195312 22.678669 0.000000 
0.195312 22.978314 0.000000 
0.585938 22.678669 0.000000 
0.585938 22.978314 0.000000 
0.195312 23.281348 0.000000 
0.195312 23.587295 0.000000 
0.585938 23.281348 0.000000 
0.585938 23.587295 0.000000 
0.195312 23.896541 0.000000 
0.195312 24.208776 0.000000 
0.585938 23.896541 0.000000 
0.585938 24.208776 0.000000 
0.195312 24.524805 0.000000 
0.195312 24.844315 0.000000 
0.585938 24.524805 0.000000 
0.585938 24.844315 0.000000 
0.195312 25.167458 0.000000 
0.195312 25.494352 0.000000 
0.585938 25.167458 0.000000 
0.585938 25.494352 0.000000 
0.195312 25.824920 0.000000 
0.195312 26.159382 0.000000 
0.585938 25.824920 0.000000 
0.585938 26.159382 0.000000 
0.195312 26.497864 0.000000 
0.195312 26.841514 0.000000 
0.585938 26.497864 0.000000 
0.585938 26.841514 0.000000 
0.195312 27.189088 0.000000 
0.195312 27.541670 0.000000 
0.585938 27.189088 0.000000 
0.585938 27.541670 0.000000 
0.195312 27.898506 0.000000 
0.195312 28.260964 0.000000 
0.585938 27.898506 0.000000 
0.585938 28.260964 0.000000 
0.195312 28.627809 0.000000 
0.195312 29.000875 0.000000 
0.585938 28.627809 0.000000 
0.585938 29.000875 0.000000 
0.195312 29.379055 0.000000 
0.195312 29.763804 0.000000 
0.585938 29.379055 0.000000 
0.585938 29.763804 0.000000 

POINT_DATA 256
SCALARS sigma_xx FLOAT 1
LOOKUP_TABLE default
0.000000
0.000000
0.000000
0.000000
0.000000
0.000000
-0.000000
0.000000
-0.000000
-0.000000
-0.000000
-0.000000
0.000000
0.000000
0.000000
0.000000
0.000000
0.000000
0.000000
0.000000
0.000000
-0.000000
0.000000
-0.000000
0.000000
-0.000000
0.000000
-0.000000
-0.000000
0.000000
-0.000000
-0.000000
-0.000000
-0.000000
-0.000000
-0.000000
-0.000000
0.000000
-0.000000
0.000000
0.000000
-0.000000
0.000000
-0.000000
-0.000000
0.000000
-0.000000
0.000000
0.000000
-0.000000
0.000000
-0.000000
0.000000
-0.000000
0.000000
-0.000000
-0.000000
-0.000000
-0.000000
-0.000000
-0.000000
-0.000000
-0.000000
0.000000
-0.000000
0.000000
-0.000000
0.000000
0.000000
-0.000000
0.000000
-0.000000
-0.000000
0.000000
-0.000000
0.000000
-0.000000
-0.000000
-0.000000
-0.000000
-0.000000
0.000000
-0.000000
0.000000
0.000000
-0.000000
0.000000
-0.000000
-0.000000
0.000000
0.000000
0.000000
-0.000000
0.000000
-0.000000
0.000000
-0.000000
-0.000000
-0.000000
-0.000000
0.000000
-0.000000
-0.000000
-0.000000
-0.000000
-0.000000
-0.000000
-0.000000
-0.000000
-0.000000
0.000000
-0.000000
-0.000000
-0.000000
-0.000000
-0.000000
-0.000000
0.000000
-0.000000
0.000000
-0.000000
-0.000000
-0.000000
-0.000000
-0.000000
-0.000000
-0.000000
-0.000000
-0.000000
-0.000000
-0.000000
-0.000000
-0.000000
-0.000000
-0.000000
-0.000000
-0.000000
0.000000
-0.000000
-0.000000
0.000000
-0.000000
0.000000
-0.000000
-0.000000
-0.000000
-0.000000
-0.000000
-0.000000
-0.000000
-0.000000
-0.000000
0.000000
-0.000000
0.000000
-0.000000
0.000000
-0.000000
0.000000
-0.000000
-0.000000
-0.000000
-0.000000
-0.000000
-0.000000
-0.000000
-0.000000
-0.000000
-0.000000
-0.000000
-0.000000
-0.000000
-0.000000
-0.000000
-0.000000
-0.000000
-0.000000
-0.000000
-0.000000
-0.000000
-0.000000
-0.000000
-0.000000
-0.000000
-0.000000
-0.000000
-0.000000
-0.000000
-0.000000
-0.000000
-0.000000
-0.000000
-0.000000
-0.000000
-0.000000
0.000000
-0.000000
-0.000000
-0.000000
-0.000000
-0.000000
0.000000
-0.000000
0.000000
0.000000
-0.000000
0.000000
-0.000000
-0.000000
-0.000000
-0.000000
-0.000000
-0.000000
-0.000000
-0.000000
0.000000
-0.000000
-0.000000
-0.000000
-0.000000
-0.000000
-0.000000
-0.000000
-0.000000
-0.000000
0.000000
-0.000000
0.000000
-0.000000
-0.000000
-0.000000
-0.000000
0.000000
-0.000000
-0.000000
-0.000000
-0.000000
-0.000000
-0.000000
-0.000000
-0.000000
-0.000000
-0.000000
-0.000000
-0.000000
-0.000000
0.000000
-0.000000
0.000000
-0.000000
0.000000
-0.000000
-0.000000
-0.000000
0.000000
-0.000000

SCALARS sigma_yy FLOAT 1
LOOKUP_TABLE default
-20807.267538
-20807.267538
-20807.267538
-20807.267538
-20645.251987
-20458.128253
-20645.251987
-20458.128253
-20231.025884
-20094.970680
-20231.025884
-20094.970680
-19933.073976
-19790.243520
-19933.073976
-19790.243520
-19599.557537
-19433.285713
-19599.557537
-19433.285713
-19271.387848
-19128.813716
-19271.387848
-19128.813716
-18948.576432
-18784.297246
-18948.576432
-18784.297246
-18610.339040
-18463.923235
-18610.339040
-18463.923235
-18285.466764
-18133.808889
-18285.466764
-18133.808889
-17955.489994
-17816.688342
-17955.489994
-17816.688342
-17634.803631
-17483.971438
-17634.803631
-17483.971438
-17297.354918
-17161.088447
-17297.354918
-17161.088447
-16974.951965
-16823.041159
-16974.951965
-16823.041159
-16632.416334
-16487.213945
-16632.416334
-16487.213945
-16312.017462
-16174.287451
-16312.017462
-16174.287451
-15985.879998
-15842.746959
-15985.879998
-15842.746959
-15665.070507
-15502.472523
-15665.070507
-15502.472523
-15334.406299
-15172.245289
-15334.406299
-15172.245289
-15008.397593
-14848.376302
-15008.397593
-14848.376302
-14691.130270
-14523.003913
-14691.130270
-14523.003913
-14348.525731
-14201.310541
-14348.525731
-14201.310541
-14018.314857
-13864.778014
-14018.314857
-13864.778014
-13681.219314
-13553.092404
-13681.219314
-13553.092404
-13369.137223
-13207.768557
-13369.137223
-13207.768557
-13044.507053
-12882.245496
-13044.507053
-12882.245496
-12720.706735
-12560.968015
-12720.706735
-12560.968015
-12385.340924
-12227.979337
-12385.340924
-12227.979337
-12048.424215
-11890.187278
-12048.424215
-11890.187278
-11716.001762
-11580.354746
-11716.001762
-11580.354746
-11396.713254
-11246.526796
-11396.713254
-11246.526796
-11070.413932
-10912.653148
-11070.413932
-10912.653148
-10736.589742
-10597.153080
-10736.589742
-10597.153080
-10407.829540
-10274.071510
-10407.829540
-10274.071510
-10074.020668
-9934.996904
-10074.020668
-9934.996904
-9743.862053
-9601.070041
-9743.862053
-9601.070041
-9430.376858
-9275.040312
-9430.376858
-9275.040312
-9109.718460
-8941.399092
-9109.718460
-8941.399092
-8779.667152
-8618.194790
-8779.667152
-8618.194790
-8430.230909
-8295.938176
-8430.230909
-8295.938176
-8118.180058
-7943.755898
-8118.180058
-7943.755898
-7803.690056
-7624.113606
-7803.690056
-7624.113606
-7473.963963
-7287.314775
-7473.963963
-7287.314775
-7140.829411
-6975.018510
-7140.829411
-6975.018510
-6804.490969
-6653.737966
-6804.490969
-6653.737966
-6466.150066
-6322.403717
-6466.150066
-6322.403717
-6157.988086
-5984.693064
-6157.988086
-5984.693064
-5832.115650
-5651.889996
-5832.115650
-5651.889996
-5497.445578
-5344.127088
-5497.445578
-5344.127088
-5156.000014
-5016.460911
-5156.000014
-5016.460911
-4818.894214
-4700.866061
-4818.894214
-4700.866061
-4490.405696
-4367.074134
-4490.405696
-4367.074134
-4177.479675
-4019.316728
-4177.479675
-4019.316728
-3848.040398
-3688.498724
-3848.040398
-3688.498724
-3535.950408
-3368.643067
-3535.950408
-3368.643067
-3190.219599
-3038.823056
-3190.219599
-3038.823056
-2871.805105
-2723.798037
-2871.805105
-2723.798037
-2524.781188
-2386.952506
-2524.781188
-2386.952506
-2199.762189
-2062.351507
-2199.762189
-2062.351507
-1880.009114
-1749.001898
-1880.009114
-1749.001898
-1545.451234
-1388.461875
-1545.451234
-1388.461875
-1220.775426
-1067.671675
-1220.775426
-1067.671675
-895.747328
-741.888009
-895.747328
-741.888009
-572.380656
-411.330743
-572.380656
-411.330743
-240.774097
-83.743874
-240.774097
-83.743874

SCALARS sigma_zz FLOAT 1
LOOKUP_TABLE default
0.000000
0.000000
0.000000
0.000000
0.000000
0.000000
0.000000
0.000000
0.000000
0.000000
0.000000
0.000000
0.000000
0.000000
0.000000
0.000000
0.000000
0.000000
0.000000
0.000000
0.000000
0.000000
0.000000
0.000000
0.000000
0.000000
0.000000
0.000000
0.000000
0.000000
0.000000
0.000000
0.000000
0.000000
0.000000
0.000000
0.000000
0.000000
0.000000
0.000000
0.000000
0.000000
0.000000
0.000000
0.000000
0.000000
0.000000
0.000000
0.000000
0.000000
0.000000
0.000000
0.000000
0.000000
0.000000
0.000000
0.000000
0.000000
0.000000
0.000000
0.000000
0.000000
0.000000
0.000000
0.000000
0.000000
0.000000
0.000000
0.000000
0.000000
0.000000
0.000000
0.000000
0.000000
0.000000
0.000000
0.000000
0.000000
0.000000
0.000000
0.000000
0.000000
0.000000
0.000000
0.000000
0.000000
0.000000
0.000000
0.000000
0.000000
0.000000
0.000000
0.000000
0.000000
0.000000
0.000000
0.000000
0.000000
0.000000
0.000000
0.000000
0.000000
0.000000
0.000000
0.000000
0.000000
0.000000
0.000000
0.000000
0.000000
0.000000
0.000000
0.000000
0.000000
0.000000
0.000000
0.000000
0.000000
0.000000
0.000000
0.000000
0.000000
0.000000
0.000000
0.000000
0.000000
0.000000
0.000000
0.000000
0.000000
0.000000
0.000000
0.000000
0.000000
0.000000
0.000000
0.000000
0.000000
0.000000
0.000000
0.000000
0.000000
0.000000
0.000000
0.000000
0.000000
0.000000
0.000000
0.000000
0.000000
0.000000
0.000000
0.000000
0.000000
0.000000
0.000000
0.000000
0.000000
0.000000
0.000000
0.000000
0.000000
0.000000
0.000000
0.000000
0.000000
0.000000
0.000000
0.000000
0.000000
0.000000
0.000000
0.000000
0.000000
0.000000
0.000000
0.000000
0.000000
0.000000
0.000000
0.000000
0.000000
0.000000
0.000000
0.000000
0.000000
0.000000
0.000000
0.000000
0.000000
0.000000
0.000000
0.000000
0.000000
0.000000
0.000000
0.000000
0.000000
0.000000
0.000000
0.000000
0.000000
0.000000
0.000000
0.000000
0.000000
0.000000
0.000000
0.000000
0.000000
0.000000
0.000000
0.000000
0.000000
0.000000
0.000000
0.000000
0.000000
0.000000
0.000000
0.000000
0.000000
0.000000
0.000000
0.000000
0.000000
0.000000
0.000000
0.000000
0.000000
0.000000
0.000000
0.000000
0.000000
0.000000
0.000000
0.000000
0.000000
0.000000
0.000000
0.000000
0.000000
0.000000
0.000000
0.000000
0.000000
0.000000
0.000000
0.000000
0.000000
0.000000
0.000000
0.000000
0.000000
0.000000
0.000000

SCALARS sigma_xy FLOAT 1
LOOKUP_TABLE default
0.000000
0.000000
0.000000
0.000000
0.000000
0.000000
0.000000
0.000000
0.000000
0.000000
0.000000
0.000000
0.000000
0.000000
0.000000
0.000000
0.000000
0.000000
0.000000
0.000000
0.000000
0.000000
0.000000
0.000000
0.000000
-0.000000
0.000000
-0.000000
-0.000000
0.000000
-0.000000
-0.000000
0.000000
0.000000
0.000000
0.000000
0.000000
0.000000
0.000000
0.000000
0.000000
-0.000000
0.000000
-0.000000
-0.000000
0.000000
-0.000000
0.000000
0.000000
0.000000
0.000000
0.000000
0.000000
-0.000000
0.000000
-0.000000
0.000000
0.000000
0.000000
0.000000
0.000000
-0.000000
0.000000
0.000000
0.000000
0.000000
0.000000
0.000000
0.000000
-0.000000
0.000000
-0.000000
-0.000000
0.000000
-0.000000
0.000000
0.000000
0.000000
0.000000
0.000000
0.000000
0.000000
0.000000
0.000000
0.000000
-0.000000
0.000000
-0.000000
-0.000000
0.000000
0.000000
0.000000
0.000000
0.000000
0.000000
0.000000
0.000000
-0.000000
0.000000
-0.000000
0.000000
0.000000
0.000000
0.000000
0.000000
0.000000
0.000000
0.000000
-0.000000
-0.000000
0.000000
-0.000000
-0.000000
-0.000000
-0.000000
-0.000000
-0.000000
0.000000
-0.000000
0.000000
0.000000
0.000000
0.000000
0.000000
0.000000
-0.000000
0.000000
-0.000000
-0.000000
-0.000000
-0.000000
-0.000000
0.000000
0.000000
0.000000
0.000000
0.000000
0.000000
0.000000
0.000000
0.000000
-0.000000
0.000000
-0.000000
-0.000000
-0.000000
-0.000000
-0.000000
0.000000
0.000000
0.000000
0.000000
0.000000
0.000000
0.000000
0.000000
0.000000
-0.000000
0.000000
-0.000000
-0.000000
-0.000000
-0.000000
-0.000000
-0.000000
-0.000000
-0.000000
-0.000000
0.000000
0.000000
0.000000
0.000000
0.000000
0.000000
0.000000
0.000000
0.000000
0.000000
0.000000
0.000000
-0.000000
-0.000000
-0.000000
-0.000000
-0.000000
0.000000
-0.000000
0.000000
0.000000
0.000000
0.000000
0.000000
0.000000
0.000000
0.000000
0.000000
-0.000000
-0.000000
-0.000000
-0.000000
0.000000
0.000000
0.000000
0.000000
0.000000
-0.000000
0.000000
-0.000000
0.000000
-0.000000
0.000000
-0.000000
-0.000000
-0.000000
-0.000000
0.000000
0.000000
0.000000
0.000000
0.000000
-0.000000
0.000000
-0.000000
0.000000
-0.000000
0.000000
-0.000000
0.000000
0.000000
0.000000
0.000000
0.000000
0.000000
0.000000
-0.000000
0.000000
-0.000000
-0.000000
-0.000000
-0.000000
-0.000000
0.000000
-0.000000
0.000000
0.000000
0.000000
0.000000
0.000000
0.000000
0.000000
0.000000
0.000000
-0.000000
-0.000000
0.000000
-0.000000

SCALARS sigma_yz FLOAT 1
LOOKUP_TABLE default
0.000000
0.000000
0.000000
0.000000
0.000000
0.000000
0.000000
0.000000
0.000000
0.000000
0.000000
0.000000
0.000000
0.000000
0.000000
0.000000
0.000000
0.000000
0.000000
0.000000
0.000000
0.000000
0.000000
0.000000
0.000000
0.000000
0.000000
0.000000
0.000000
0.000000
0.000000
0.000000
0.000000
0.000000
0.000000
0.000000
0.000000
0.000000
0.000000
0.000000
0.000000
0.000000
0.000000
0.000000
0.000000
0.000000
0.000000
0.000000
0.000000
0.000000
0.000000
0.000000
0.000000
0.000000
0.000000
0.000000
0.000000
0.000000
0.000000
0.000000
0.000000
0.000000
0.000000
0.000000
0.000000
0.000000
0.000000
0.000000
0.000000
0.000000
0.000000
0.000000
0.000000
0.000000
0.000000
0.000000
0.000000
0.000000
0.000000
0.000000
0.000000
0.000000
0.000000
0.000000
0.000000
0.000000
0.000000
0.000000
0.000000
0.000000
0.000000
0.000000
0.000000
0.000000
0.000000
0.000000
0.000000
0.000000
0.000000
0.000000
0.000000
0.000000
0.000000
0.000000
0.000000
0.000000
0.000000
0.000000
0.000000
0.000000
0.000000
0.000000
0.000000
0.000000
0.000000
0.000000
0.000000
0.000000
0.000000
0.000000
0.000000
0.000000
0.000000
0.000000
0.000000
0.000000
0.000000
0.000000
0.000000
0.000000
0.000000
0.000000
0.000000
0.000000
0.000000
0.000000
0.000000
0.000000
0.000000
0.000000
0.000000
0.000000
0.000000
0.000000
0.000000
0.000000
0.000000
0.000000
0.000000
0.000000
0.000000
0.000000
0.000000
0.000000
0.000000
0.000000
0.000000
0.000000
0.000000
0.000000
0.000000
0.000000
0.000000
0.000000
0.000000
0.000000
0.000000
0.000000
0.000000
0.000000
0.000000
0.000000
0.000000
0.000000
0.000000
0.000000
0.000000
0.000000
0.000000
0.000000
0.000000
0.000000
0.000000
0.000000
0.000000
0.000000
0.000000
0.000000
0.000000
0.000000
0.000000
0.000000
0.000000
0.000000
0.000000
0.000000
0.000000
0.000000
0.000000
0.000000
0.000000
0.000000
0.000000
0.000000
0.000000
0.000000
0.000000
0.000000
0.000000
0.000000
0.000000
0.000000
0.000000
0.000000
0.000000
0.000000
0.000000
0.000000
0.000000
0.000000
0.000000
0.000000
0.000000
0.000000
0.000000
0.000000
0.000000
0.000000
0.000000
0.000000
0.000000
0.000000
0.000000
0.000000
0.000000
0.000000
0.000000
0.000000
0.000000
0.000000
0.000000
0.000000
0.000000
0.000000
0.000000
0.000000
0.000000
0.000000
0.000000
0.000000
0.000000
0.000000
0.000000
0.000000
0.000000
0.000000

SCALARS sigma_zx FLOAT 1
LOOKUP_TABLE default
0.000000
0.000000
0.000000
0.000000
0.000000
0.000000
0.000000
0.000000
0.000000
0.000000
0.000000
0.000000
0.000000
0.000000
0.000000
0.000000
0.000000
0.000000
0.000000
0.000000
0.000000
0.000000
0.000000
0.000000
0.000000
0.000000
0.000000
0.000000
0.000000
0.000000
0.000000
0.000000
0.000000
0.000000
0.000000
0.000000
0.000000
0.000000
0.000000
0.000000
0.000000
0.000000
0.000000
0.000000
0.000000
0.000000
0.000000
0.000000
0.000000
0.000000
0.000000
0.000000
0.000000
0.000000
0.000000
0.000000
0.000000
0.000000
0.000000
0.000000
0.000000
0.000000
0.000000
0.000000
0.000000
0.000000
0.000000
0.000000
0.000000
0.000000
0.000000
0.000000
0.000000
0.000000
0.000000
0.000000
0.000000
0.000000
0.000000
0.000000
0.000000
0.000000
0.000000
0.000000
0.000000
0.000000
0.000000
0.000000
0.000000
0.000000
0.000000
0.000000
0.000000
0.000000
0.000000
0.000000
0.000000
0.000000
0.000000
0.000000
0.000000
0.000000
0.000000
0.000000
0.000000
0.000000
0.000000
0.000000
0.000000
0.000000
0.000000
0.000000
0.000000
0.000000
0.000000
0.000000
0.000000
0.000000
0.000000
0.000000
0.000000
0.000000
0.000000
0.000000
0.000000
0.000000
0.000000
0.000000
0.000000
0.000000
0.000000
0.000000
0.000000
0.000000
0.000000
0.000000
0.000000
0.000000
0.000000
0.000000
0.000000
0.000000
0.000000
0.000000
0.000000
0.000000
0.000000
0.000000
0.000000
0.000000
0.000000
0.000000
0.000000
0.000000
0.000000
0.000000
0.000000
0.000000
0.000000
0.000000
0.000000
0.000000
0.000000
0.000000
0.000000
0.000000
0.000000
0.000000
0.000000
0.000000
0.000000
0.000000
0.000000
0.000000
0.000000
0.000000
0.000000
0.000000
0.000000
0.000000
0.000000
0.000000
0.000000
0.000000
0.000000
0.000000
0.000000
0.000000
0.000000
0.000000
0.000000
0.000000
0.000000
0.000000
0.000000
0.000000
0.000000
0.000000
0.000000
0.000000
0.000000
0.000000
0.000000
0.000000
0.000000
0.000000
0.000000
0.000000
0.000000
0.000000
0.000000
0.000000
0.000000
0.000000
0.000000
0.000000
0.000000
0.000000
0.000000
0.000000
0.000000
0.000000
0.000000
0.000000
0.000000
0.000000
0.000000
0.000000
0.000000
0.000000
0.000000
0.000000
0.000000
0.000000
0.000000
0.000000
0.000000
0.000000
0.000000
0.000000
0.000000
0.000000
0.000000
0.000000
0.000000
0.000000
0.000000
0.000000
0.000000
0.000000
0.000000
0.000000
0.000000
0.000000
0.000000
0.000000

SCALARS u_x FLOAT 1
LOOKUP_TABLE default
0.000000
0.000000
0.000000
0.000000
0.000000
0.000000
0.000000
0.000000
0.000000
0.000000
0.000000
0.000000
0.000000
0.000000
0.000000
0.000000
0.000000
0.000000
0.000000
0.000000
0.000000
0.000000
0.000000
0.000000
0.000000
0.000000
0.000000
0.000000
0.000000
0.000000
0.000000
0.000000
0.000000
0.000000
0.000000
0.000000
0.000000
0.000000
0.000000
0.000000
0.000000
0.000000
0.000000
0.000000
0.000000
0.000000
0.000000
0.000000
0.000000
0.000000
0.000000
0.000000
0.000000
0.000000
0.000000
0.000000
0.000000
0.000000
0.000000
0.000000
0.000000
0.000000
0.000000
0.000000
0.000000
0.000000
0.000000
0.000000
0.000000
0.000000
0.000000
0.000000
0.000000
0.000000
0.000000
0.000000
0.000000
0.000000
0.000000
0.000000
0.000000
0.000000
0.000000
0.000000
0.000000
0.000000
0.000000
0.000000
0.000000
0.000000
0.000000
0.000000
0.000000
0.000000
0.000000
0.000000
0.000000
0.000000
0.000000
0.000000
0.000000
0.000000
0.000000
0.000000
0.000000
0.000000
0.000000
0.000000
0.000000
0.000000
0.000000
0.000000
0.000000
0.000000
0.000000
0.000000
0.000000
0.000000
0.000000
0.000000
0.000000
0.000000
0.000000
0.000000
0.000000
0.000000
0.000000
0.000000
0.000000
0.000000
0.000000
0.000000
0.000000
0.000000
0.000000
0.000000
0.000000
0.000000
0.000000
0.000000
0.000000
0.000000
0.000000
0.000000
0.000000
0.000000
0.000000
0.000000
0.000000
0.000000
0.000000
0.000000
0.000000
0.000000
0.000000
0.000000
0.000000
0.000000
0.000000
0.000000
0.000000
0.000000
0.000000
0.000000
0.000000
0.000000
0.000000
0.000000
0.000000
0.000000
0.000000
0.000000
0.000000
0.000000
0.000000
0.000000
0.000000
0.000000
0.000000
0.000000
0.000000
0.000000
0.000000
0.000000
0.000000
0.000000
0.000000
0.000000
0.000000
0.000000
0.000000
0.000000
0.000000
0.000000
0.000000
0.000000
0.000000
0.000000
0.000000
0.000000
0.000000
0.000000
0.000000
0.000000
0.000000
0.000000
0.000000
0.000000
0.000000
0.000000
0.000000
0.000000
0.000000
0.000000
0.000000
0.000000
0.000000
0.000000
0.000000
0.000000
0.000000
0.000000
0.000000
0.000000
0.000000
0.000000
0.000000
0.000000
0.000000
0.000000
0.000000
0.000000
0.000000
0.000000
0.000000
0.000000
0.000000
0.000000
0.000000
0.000000
0.000000
0.000000
0.000000
0.000000
0.000000
0.000000
0.000000
0.000000
0.000000
0.000000
0.000000
0.000000
0.000000
0.000000
0.000000
0.000000

SCALARS u_y FLOAT 1
LOOKUP_TABLE default
-0.113561
-0.340684
-0.113561
-0.340684
-0.567581
-0.793736
-0.567581
-0.793736
-1.019164
-1.243849
-1.019164
-1.243849
-1.468019
-1.691588
-1.468019
-1.691588
-1.914521
-2.136723
-1.914521
-2.136723
-2.358298
-2.579251
-2.358298
-2.579251
-2.799571
-3.019169
-2.799571
-3.019169
-3.238076
-3.456323
-3.238076
-3.456323
-3.673896
-3.890762
-3.673896
-3.890762
-4.106902
-4.322368
-4.106902
-4.322368
-4.537111
-4.751143
-4.537111
-4.751143
-4.964417
-5.176960
-4.964417
-5.176960
-5.388741
-5.599770
-5.388741
-5.599770
-5.809972
-6.019430
-5.809972
-6.019430
-6.228072
-6.435968
-6.228072
-6.435968
-6.643101
-6.849403
-6.643101
-6.849403
-7.054882
-7.259476
-7.054882
-7.259476
-7.463322
-7.666206
-7.463322
-7.666206
-7.868283
-8.069485
-7.868283
-8.069485
-8.269872
-8.469360
-8.269872
-8.469360
-8.667863
-8.865593
-8.667863
-8.865593
-9.062240
-9.258050
-9.062240
-9.258050
-9.452805
-9.646723
-9.452805
-9.646723
-9.839675
-10.031597
-9.839675
-10.031597
-10.222556
-10.412440
-10.222556
-10.412440
-10.601408
-10.789329
-10.601408
-10.789329
-10.976144
-11.161976
-10.976144
-11.161976
-11.346542
-11.530081
-11.346542
-11.530081
-11.712467
-11.893831
-11.712467
-11.893831
-12.074084
-12.253143
-12.074084
-12.253143
-12.431043
-12.607678
-12.431043
-12.607678
-12.783167
-12.957434
-12.783167
-12.957434
-13.130392
-13.302238
-13.130392
-13.302238
-13.472629
-13.641797
-13.472629
-13.641797
-13.809658
-13.975964
-13.809658
-13.975964
-14.141154
-14.304800
-14.141154
-14.304800
-14.467197
-14.628070
-14.467197
-14.628070
-14.787486
-14.945439
-14.787486
-14.945439
-15.101761
-15.256614
-15.101761
-15.256614
-15.410009
-15.561581
-15.410009
-15.561581
-15.711715
-15.860079
-15.711715
-15.860079
-16.006931
-16.152000
-16.006931
-16.152000
-16.295103
-16.436847
-16.295103
-16.436847
-16.576410
-16.714398
-16.576410
-16.714398
-16.850296
-16.984355
-16.850296
-16.984355
-17.116419
-17.246506
-17.116419
-17.246506
-17.374532
-17.500447
-17.374532
-17.500447
-17.624088
-17.745946
-17.624088
-17.745946
-17.865113
-17.982316
-17.865113
-17.982316
-18.096807
-18.209296
-18.096807
-18.209296
-18.319150
-18.426400
-18.319150
-18.426400
-18.531362
-18.633269
-18.531362
-18.633269
-18.732671
-18.828981
-18.732671
-18.828981
-18.922893
-19.013873
-18.922893
-19.013873
-19.101464
-19.186143
-19.101464
-19.186143
-19.267522
-19.345911
-19.267522
-19.345911
-19.420508
-19.491622
-19.420508
-19.491622
-19.559105
-19.622835
-19.559105
-19.622835
-19.682893
-19.739056
-19.682893
-19.739056
-19.791198
-19.838174
-19.791198
-19.838174
-19.881225
-19.919267
-19.881225
-19.919267
-19.953057
-19.981223
-19.953057
-19.981223
-20.005003
-20.022563
-20.005003
-20.022563
-20.035007
-20.040884
-20.035007
-20.040884

