# vtk DataFile Version 2.0
MATLAB generated vtk file, WMC
ASCII
DATASET UNSTRUCTURED_GRID
POINTS 256 double
0.195312 0.092310 0.000000 
0.195312 0.276931 0.000000 
0.585938 0.092310 0.000000 
0.585938 0.276931 0.000000 
0.195312 0.461805 0.000000 
0.195312 0.647519 0.000000 
0.585938 0.461805 0.000000 
0.585938 0.647519 0.000000 
0.195312 0.833999 0.000000 
0.195312 1.021104 0.000000 
0.585938 0.833999 0.000000 
0.585938 1.021104 0.000000 
0.195312 1.208759 0.000000 
0.195312 1.397092 0.000000 
0.585938 1.208759 0.000000 
0.585938 1.397092 0.000000 
0.195312 1.586127 0.000000 
0.195312 1.775846 0.000000 
0.585938 1.586127 0.000000 
0.585938 1.775846 0.000000 
0.195312 1.966183 0.000000 
0.195312 2.157218 0.000000 
0.585938 1.966183 0.000000 
0.585938 2.157218 0.000000 
0.195312 2.348957 0.000000 
0.195312 2.541401 0.000000 
0.585938 2.348957 0.000000 
0.585938 2.541401 0.000000 
0.195312 2.734485 0.000000 
0.195312 2.928296 0.000000 
0.585938 2.734485 0.000000 
0.585938 2.928296 0.000000 
0.195312 3.122856 0.000000 
0.195312 3.318119 0.000000 
0.585938 3.122856 0.000000 
0.585938 3.318119 0.000000 
0.195312 3.514073 0.000000 
0.195312 3.710758 0.000000 
0.585938 3.514073 0.000000 
0.585938 3.710758 0.000000 
0.195312 3.908243 0.000000 
0.195312 4.106417 0.000000 
0.585938 3.908243 0.000000 
0.585938 4.106417 0.000000 
0.195312 4.305330 0.000000 
0.195312 4.504962 0.000000 
0.585938 4.305330 0.000000 
0.585938 4.504962 0.000000 
0.195312 4.705424 0.000000 
0.195312 4.906651 0.000000 
0.585938 4.705424 0.000000 
0.585938 4.906651 0.000000 
0.195312 5.108679 0.000000 
0.195312 5.311423 0.000000 
0.585938 5.108679 0.000000 
0.585938 5.311423 0.000000 
0.195312 5.515047 0.000000 
0.195312 5.719449 0.000000 
0.585938 5.515047 0.000000 
0.585938 5.719449 0.000000 
0.195312 5.924658 0.000000 
0.195312 6.130744 0.000000 
0.585938 5.924658 0.000000 
0.585938 6.130744 0.000000 
0.195312 6.337710 0.000000 
0.195312 6.545532 0.000000 
0.585938 6.337710 0.000000 
0.585938 6.545532 0.000000 
0.195312 6.754025 0.000000 
0.195312 6.963468 0.000000 
0.585938 6.754025 0.000000 
0.585938 6.963468 0.000000 
0.195312 7.173709 0.000000 
0.195312 7.384897 0.000000 
0.585938 7.173709 0.000000 
0.585938 7.384897 0.000000 
0.195312 7.596964 0.000000 
0.195312 7.809983 0.000000 
0.585938 7.596964 0.000000 
0.585938 7.809983 0.000000 
0.195312 8.023974 0.000000 
0.195312 8.238674 0.000000 
0.585938 8.023974 0.000000 
0.585938 8.238674 0.000000 
0.195312 8.454465 0.000000 
0.195312 8.671039 0.000000 
0.585938 8.454465 0.000000 
0.585938 8.671039 0.000000 
0.195312 8.888711 0.000000 
0.195312 9.107271 0.000000 
0.585938 8.888711 0.000000 
0.585938 9.107271 0.000000 
0.195312 9.326855 0.000000 
0.195312 9.547449 0.000000 
0.585938 9.326855 0.000000 
0.585938 9.547449 0.000000 
0.195312 9.768945 0.000000 
0.195312 9.991561 0.000000 
0.585938 9.768945 0.000000 
0.585938 9.991561 0.000000 
0.195312 10.215054 0.000000 
0.195312 10.439587 0.000000 
0.585938 10.215054 0.000000 
0.585938 10.439587 0.000000 
0.195312 10.665280 0.000000 
0.195312 10.891931 0.000000 
0.585938 10.665280 0.000000 
0.585938 10.891931 0.000000 
0.195312 11.119886 0.000000 
0.195312 11.348721 0.000000 
0.585938 11.119886 0.000000 
0.585938 11.348721 0.000000 
0.195312 11.578761 0.000000 
0.195312 11.809815 0.000000 
0.585938 11.578761 0.000000 
0.585938 11.809815 0.000000 
0.195312 12.041895 0.000000 
0.195312 12.275259 0.000000 
0.585938 12.041895 0.000000 
0.585938 12.275259 0.000000 
0.195312 12.509720 0.000000 
0.195312 12.745437 0.000000 
0.585938 12.509720 0.000000 
0.585938 12.745437 0.000000 
0.195312 12.982228 0.000000 
0.195312 13.220291 0.000000 
0.585938 12.982228 0.000000 
0.585938 13.220291 0.000000 
0.195312 13.459697 0.000000 
0.195312 13.700140 0.000000 
0.585938 13.459697 0.000000 
0.585938 13.700140 0.000000 
0.195312 13.941981 0.000000 
0.195312 14.185000 0.000000 
0.585938 13.941981 0.000000 
0.585938 14.185000 0.000000 
0.195312 14.429274 0.000000 
0.195312 14.675126 0.000000 
0.585938 14.429274 0.000000 
0.585938 14.675126 0.000000 
0.195312 14.921986 0.000000 
0.195312 15.170414 0.000000 
0.585938 14.921986 0.000000 
0.585938 15.170414 0.000000 
0.195312 15.420047 0.000000 
0.195312 15.671175 0.000000 
0.585938 15.420047 0.000000 
0.585938 15.671175 0.000000 
0.195312 15.923737 0.000000 
0.195312 16.177613 0.000000 
0.585938 15.923737 0.000000 
0.585938 16.177613 0.000000 
0.195312 16.433080 0.000000 
0.195312 16.689961 0.000000 
0.585938 16.433080 0.000000 
0.585938 16.689961 0.000000 
0.195312 16.948218 0.000000 
0.195312 17.208272 0.000000 
0.585938 16.948218 0.000000 
0.585938 17.208272 0.000000 
0.195312 17.469585 0.000000 
0.195312 17.732694 0.000000 
0.585938 17.469585 0.000000 
0.585938 17.732694 0.000000 
0.195312 17.997229 0.000000 
0.195312 18.263314 0.000000 
0.585938 17.997229 0.000000 
0.585938 18.263314 0.000000 
0.195312 18.531349 0.000000 
0.195312 18.800667 0.000000 
0.585938 18.531349 0.000000 
0.585938 18.800667 0.000000 
0.195312 19.072101 0.000000 
0.195312 19.344982 0.000000 
0.585938 19.072101 0.000000 
0.585938 19.344982 0.000000 
0.195312 19.619862 0.000000 
0.195312 19.896421 0.000000 
0.585938 19.619862 0.000000 
0.585938 19.896421 0.000000 
0.195312 20.174908 0.000000 
0.195312 20.455289 0.000000 
0.585938 20.174908 0.000000 
0.585938 20.455289 0.000000 
0.195312 20.737564 0.000000 
0.195312 21.021687 0.000000 
0.585938 20.737564 0.000000 
0.585938 21.021687 0.000000 
0.195312 21.307863 0.000000 
0.195312 21.595719 0.000000 
0.585938 21.307863 0.000000 
0.585938 21.595719 0.000000 
0.195312 21.886159 0.000000 
0.195312 22.178238 0.000000 
0.585938 21.886159 0.000000 
0.585938 22.178238 0.000000 
0.195312 22.473041 0.000000 
0.195312 22.769734 0.000000 
0.585938 22.473041 0.000000 
0.585938 22.769734 0.000000 
0.195312 23.068587 0.000000 
0.195312 23.369624 0.000000 
0.585938 23.068587 0.000000 
0.585938 23.369624 0.000000 
0.195312 23.672785 0.000000 
0.195312 23.978841 0.000000 
0.585938 23.672785 0.000000 
0.585938 23.978841 0.000000 
0.195312 24.287070 0.000000 
0.195312 24.598012 0.000000 
0.585938 24.287070 0.000000 
0.585938 24.598012 0.000000 
0.195312 24.911098 0.000000 
0.195312 25.226888 0.000000 
0.585938 24.911098 0.000000 
0.585938 25.226888 0.000000 
0.195312 25.545720 0.000000 
0.195312 25.867120 0.000000 
0.585938 25.545720 0.000000 
0.585938 25.867120 0.000000 
0.195312 26.191279 0.000000 
0.195312 26.517994 0.000000 
0.585938 26.191279 0.000000 
0.585938 26.517994 0.000000 
0.195312 26.847871 0.000000 
0.195312 27.180764 0.000000 
0.585938 26.847871 0.000000 
0.585938 27.180764 0.000000 
0.195312 27.516758 0.000000 
0.195312 27.856082 0.000000 
0.585938 27.516758 0.000000 
0.585938 27.856082 0.000000 
0.195312 28.198599 0.000000 
0.195312 28.544647 0.000000 
0.585938 28.198599 0.000000 
0.585938 28.544647 0.000000 
0.195312 28.893727 0.000000 
0.195312 29.246759 0.000000 
0.585938 28.893727 0.000000 
0.585938 29.246759 0.000000 
0.195312 29.603029 0.000000 
0.195312 29.963573 0.000000 
0.585938 29.603029 0.000000 
0.585938 29.963573 0.000000 
0.195312 30.327521 0.000000 
0.195312 30.696114 0.000000 
0.585938 30.327521 0.000000 
0.585938 30.696114 0.000000 
0.195312 31.068178 0.000000 
0.195312 31.445271 0.000000 
0.585938 31.068178 0.000000 
0.585938 31.445271 0.000000 
0.195312 31.826455 0.000000 
0.195312 32.212830 0.000000 
0.585938 31.826455 0.000000 
0.585938 32.212830 0.000000 

POINT_DATA 256
SCALARS sigma_xx FLOAT 1
LOOKUP_TABLE default
0.000000
0.000000
0.000000
0.000000
-0.000000
0.000000
-0.000000
0.000000
-0.000000
-0.000000
-0.000000
-0.000000
0.000000
0.000000
0.000000
0.000000
0.000000
-0.000000
0.000000
-0.000000
0.000000
-0.000000
0.000000
-0.000000
-0.000000
0.000000
-0.000000
0.000000
-0.000000
-0.000000
-0.000000
-0.000000
0.000000
0.000000
0.000000
0.000000
0.000000
-0.000000
-0.000000
-0.000000
-0.000000
-0.000000
-0.000000
-0.000000
0.000000
0.000000
0.000000
0.000000
0.000000
0.000000
0.000000
0.000000
0.000000
-0.000000
0.000000
-0.000000
-0.000000
-0.000000
-0.000000
-0.000000
-0.000000
-0.000000
-0.000000
0.000000
0.000000
-0.000000
0.000000
-0.000000
-0.000000
-0.000000
-0.000000
-0.000000
-0.000000
-0.000000
-0.000000
-0.000000
-0.000000
-0.000000
-0.000000
-0.000000
-0.000000
-0.000000
-0.000000
-0.000000
-0.000000
-0.000000
-0.000000
-0.000000
-0.000000
-0.000000
-0.000000
-0.000000
-0.000000
-0.000000
-0.000000
-0.000000
-0.000000
-0.000000
-0.000000
-0.000000
-0.000000
-0.000000
-0.000000
-0.000000
-0.000000
0.000000
-0.000000
0.000000
-0.000000
-0.000000
-0.000000
-0.000000
-0.000000
-0.000000
-0.000000
-0.000000
-0.000000
0.000000
0.000000
0.000000
-0.000000
-0.000000
-0.000000
-0.000000
-0.000000
-0.000000
-0.000000
-0.000000
-0.000000
-0.000000
-0.000000
-0.000000
-0.000000
-0.000000
-0.000000
-0.000000
-0.000000
-0.000000
-0.000000
-0.000000
0.000000
-0.000000
0.000000
-0.000000
0.000000
-0.000000
0.000000
-0.000000
-0.000000
0.000000
-0.000000
0.000000
-0.000000
-0.000000
-0.000000
-0.000000
0.000000
-0.000000
0.000000
-0.000000
-0.000000
-0.000000
0.000000
-0.000000
-0.000000
-0.000000
-0.000000
-0.000000
-0.000000
-0.000000
-0.000000
-0.000000
-0.000000
-0.000000
-0.000000
-0.000000
-0.000000
0.000000
-0.000000
0.000000
-0.000000
-0.000000
-0.000000
-0.000000
0.000000
-0.000000
0.000000
-0.000000
0.000000
-0.000000
0.000000
-0.000000
0.000000
-0.000000
0.000000
-0.000000
-0.000000
0.000000
0.000000
0.000000
0.000000
-0.000000
-0.000000
-0.000000
0.000000
-0.000000
0.000000
-0.000000
0.000000
0.000000
0.000000
0.000000
0.000000
0.000000
0.000000
0.000000
0.000000
-0.000000
0.000000
-0.000000
-0.000000
-0.000000
-0.000000
-0.000000
-0.000000
0.000000
-0.000000
0.000000
-0.000000
-0.000000
-0.000000
-0.000000
-0.000000
-0.000000
0.000000
-0.000000
-0.000000
-0.000000
-0.000000
-0.000000
0.000000
-0.000000
0.000000
-0.000000
0.000000
-0.000000
0.000000
-0.000000
-0.000000
-0.000000
-0.000000
-0.000000
-0.000000
-0.000000
-0.000000
-0.000000

SCALARS sigma_yy FLOAT 1
LOOKUP_TABLE default
-15856.997041
-15856.997041
-15856.997041
-15856.997041
-15722.838996
-15567.912641
-15722.838996
-15567.912641
-15413.564029
-15324.782888
-15413.564029
-15324.782888
-15190.468070
-15071.986811
-15190.468070
-15071.986811
-14925.984283
-14818.243767
-14925.984283
-14818.243767
-14687.181825
-14568.739950
-14687.181825
-14568.739950
-14426.055863
-14319.333166
-14426.055863
-14319.333166
-14186.227736
-14064.397359
-14186.227736
-14064.397359
-13921.779827
-13820.098109
-13921.779827
-13820.098109
-13684.094985
-13568.716238
-13684.094985
-13568.716238
-13425.559244
-13322.265423
-13425.559244
-13322.265423
-13184.176954
-13079.587449
-13184.176954
-13079.587449
-12929.686081
-12820.965853
-12929.686081
-12820.965853
-12683.406015
-12572.031751
-12683.406015
-12572.031751
-12431.734799
-12324.935504
-12431.734799
-12324.935504
-12174.537809
-12060.808434
-12174.537809
-12060.808434
-11922.766125
-11812.771213
-11922.766125
-11812.771213
-11691.168209
-11572.648578
-11691.168209
-11572.648578
-11444.714988
-11312.176668
-11444.714988
-11312.176668
-11185.350597
-11055.766059
-11185.350597
-11055.766059
-10929.761987
-10821.952936
-10929.761987
-10821.952936
-10686.115480
-10575.265637
-10686.115480
-10575.265637
-10421.829115
-10325.428956
-10421.829115
-10325.428956
-10172.887993
-10064.166169
-10172.887993
-10064.166169
-9939.584497
-9810.509714
-9939.584497
-9810.509714
-9696.715087
-9567.924599
-9696.715087
-9567.924599
-9432.061084
-9310.650566
-9432.061084
-9310.650566
-9176.972010
-9069.367889
-9176.972010
-9069.367889
-8917.605378
-8835.666849
-8917.605378
-8835.666849
-8683.247657
-8567.524333
-8683.247657
-8567.524333
-8436.596370
-8315.674074
-8436.596370
-8315.674074
-8185.125684
-8067.782758
-8185.125684
-8067.782758
-7922.656103
-7830.880580
-7922.656103
-7830.880580
-7673.995192
-7573.723511
-7673.995192
-7573.723511
-7424.195801
-7314.059585
-7424.195801
-7314.059585
-7190.550982
-7061.267979
-7190.550982
-7061.267979
-6940.971815
-6805.638098
-6940.971815
-6805.638098
-6688.493864
-6568.344666
-6688.493864
-6568.344666
-6423.775910
-6321.525970
-6423.775910
-6321.525970
-6183.620573
-6056.794364
-6183.620573
-6056.794364
-5948.953357
-5802.335550
-5948.953357
-5802.335550
-5704.248267
-5556.159993
-5704.248267
-5556.159993
-5443.343680
-5317.963319
-5443.343680
-5317.963319
-5180.221855
-5069.410766
-5180.221855
-5069.410766
-4929.076142
-4814.713765
-4929.076142
-4814.713765
-4685.288954
-4556.684274
-4685.288954
-4556.684274
-4440.893989
-4308.011815
-4440.893989
-4308.011815
-4193.889101
-4072.751164
-4193.889101
-4072.751164
-3921.712735
-3830.817039
-3921.712735
-3830.817039
-3649.752747
-3580.651226
-3649.752747
-3580.651226
-3421.843032
-3339.594775
-3421.843032
-3339.594775
-3184.013526
-3059.436423
-3184.013526
-3059.436423
-2936.010230
-2811.723122
-2936.010230
-2811.723122
-2695.690094
-2562.062013
-2695.690094
-2562.062013
-2422.243202
-2312.404127
-2422.243202
-2312.404127
-2187.963407
-2081.860557
-2187.963407
-2081.860557
-1924.541292
-1830.061163
-1924.541292
-1830.061163
-1673.020808
-1572.695874
-1673.020808
-1572.695874
-1420.587544
-1324.296393
-1420.587544
-1324.296393
-1181.121493
-1072.117152
-1181.121493
-1072.117152
-933.046299
-818.755739
-933.046299
-818.755739
-683.629531
-565.880001
-683.629531
-565.880001
-438.056926
-308.497149
-438.056926
-308.497149
-179.806732
-56.630335
-179.806732
-56.630335

SCALARS sigma_zz FLOAT 1
LOOKUP_TABLE default
0.000000
0.000000
0.000000
0.000000
0.000000
0.000000
0.000000
0.000000
0.000000
0.000000
0.000000
0.000000
0.000000
0.000000
0.000000
0.000000
0.000000
0.000000
0.000000
0.000000
0.000000
0.000000
0.000000
0.000000
0.000000
0.000000
0.000000
0.000000
0.000000
0.000000
0.000000
0.000000
0.000000
0.000000
0.000000
0.000000
0.000000
0.000000
0.000000
0.000000
0.000000
0.000000
0.000000
0.000000
0.000000
0.000000
0.000000
0.000000
0.000000
0.000000
0.000000
0.000000
0.000000
0.000000
0.000000
0.000000
0.000000
0.000000
0.000000
0.000000
0.000000
0.000000
0.000000
0.000000
0.000000
0.000000
0.000000
0.000000
0.000000
0.000000
0.000000
0.000000
0.000000
0.000000
0.000000
0.000000
0.000000
0.000000
0.000000
0.000000
0.000000
0.000000
0.000000
0.000000
0.000000
0.000000
0.000000
0.000000
0.000000
0.000000
0.000000
0.000000
0.000000
0.000000
0.000000
0.000000
0.000000
0.000000
0.000000
0.000000
0.000000
0.000000
0.000000
0.000000
0.000000
0.000000
0.000000
0.000000
0.000000
0.000000
0.000000
0.000000
0.000000
0.000000
0.000000
0.000000
0.000000
0.000000
0.000000
0.000000
0.000000
0.000000
0.000000
0.000000
0.000000
0.000000
0.000000
0.000000
0.000000
0.000000
0.000000
0.000000
0.000000
0.000000
0.000000
0.000000
0.000000
0.000000
0.000000
0.000000
0.000000
0.000000
0.000000
0.000000
0.000000
0.000000
0.000000
0.000000
0.000000
0.000000
0.000000
0.000000
0.000000
0.000000
0.000000
0.000000
0.000000
0.000000
0.000000
0.000000
0.000000
0.000000
0.000000
0.000000
0.000000
0.000000
0.000000
0.000000
0.000000
0.000000
0.000000
0.000000
0.000000
0.000000
0.000000
0.000000
0.000000
0.000000
0.000000
0.000000
0.000000
0.000000
0.000000
0.000000
0.000000
0.000000
0.000000
0.000000
0.000000
0.000000
0.000000
0.000000
0.000000
0.000000
0.000000
0.000000
0.000000
0.000000
0.000000
0.000000
0.000000
0.000000
0.000000
0.000000
0.000000
0.000000
0.000000
0.000000
0.000000
0.000000
0.000000
0.000000
0.000000
0.000000
0.000000
0.000000
0.000000
0.000000
0.000000
0.000000
0.000000
0.000000
0.000000
0.000000
0.000000
0.000000
0.000000
0.000000
0.000000
0.000000
0.000000
0.000000
0.000000
0.000000
0.000000
0.000000
0.000000
0.000000
0.000000
0.000000
0.000000
0.000000
0.000000
0.000000
0.000000
0.000000
0.000000
0.000000
0.000000
0.000000
0.000000
0.000000
0.000000
0.000000
0.000000
0.000000

SCALARS sigma_xy FLOAT 1
LOOKUP_TABLE default
0.000000
0.000000
0.000000
0.000000
0.000000
0.000000
0.000000
0.000000
0.000000
0.000000
0.000000
0.000000
0.000000
0.000000
0.000000
0.000000
0.000000
0.000000
0.000000
0.000000
0.000000
0.000000
0.000000
0.000000
0.000000
0.000000
0.000000
0.000000
-0.000000
-0.000000
-0.000000
-0.000000
0.000000
0.000000
0.000000
0.000000
0.000000
-0.000000
0.000000
-0.000000
-0.000000
-0.000000
-0.000000
-0.000000
0.000000
0.000000
0.000000
0.000000
0.000000
0.000000
0.000000
0.000000
0.000000
-0.000000
0.000000
-0.000000
0.000000
0.000000
0.000000
0.000000
0.000000
-0.000000
0.000000
0.000000
0.000000
-0.000000
0.000000
-0.000000
-0.000000
-0.000000
-0.000000
-0.000000
-0.000000
0.000000
-0.000000
0.000000
0.000000
0.000000
0.000000
0.000000
0.000000
0.000000
0.000000
0.000000
0.000000
-0.000000
0.000000
-0.000000
-0.000000
-0.000000
-0.000000
-0.000000
-0.000000
-0.000000
-0.000000
-0.000000
0.000000
0.000000
0.000000
0.000000
0.000000
0.000000
0.000000
0.000000
0.000000
0.000000
0.000000
0.000000
-0.000000
-0.000000
-0.000000
-0.000000
-0.000000
0.000000
-0.000000
0.000000
-0.000000
0.000000
0.000000
0.000000
0.000000
0.000000
0.000000
0.000000
0.000000
-0.000000
0.000000
-0.000000
-0.000000
-0.000000
-0.000000
-0.000000
0.000000
0.000000
0.000000
0.000000
0.000000
-0.000000
0.000000
-0.000000
0.000000
0.000000
0.000000
0.000000
0.000000
-0.000000
0.000000
-0.000000
-0.000000
0.000000
-0.000000
0.000000
-0.000000
0.000000
-0.000000
0.000000
0.000000
0.000000
0.000000
0.000000
-0.000000
-0.000000
0.000000
-0.000000
-0.000000
-0.000000
-0.000000
-0.000000
0.000000
0.000000
0.000000
0.000000
0.000000
-0.000000
0.000000
-0.000000
0.000000
0.000000
0.000000
0.000000
0.000000
-0.000000
0.000000
-0.000000
0.000000
0.000000
0.000000
0.000000
0.000000
-0.000000
0.000000
-0.000000
0.000000
0.000000
0.000000
0.000000
0.000000
0.000000
0.000000
0.000000
0.000000
-0.000000
-0.000000
-0.000000
0.000000
-0.000000
0.000000
-0.000000
0.000000
0.000000
0.000000
0.000000
0.000000
0.000000
0.000000
0.000000
0.000000
0.000000
0.000000
0.000000
-0.000000
0.000000
-0.000000
0.000000
-0.000000
0.000000
-0.000000
0.000000
0.000000
0.000000
0.000000
0.000000
0.000000
0.000000
0.000000
0.000000
-0.000000
-0.000000
-0.000000
-0.000000
0.000000
0.000000
0.000000
0.000000
0.000000
0.000000
0.000000
0.000000
0.000000
0.000000
0.000000
0.000000
-0.000000
-0.000000
-0.000000
-0.000000

SCALARS sigma_yz FLOAT 1
LOOKUP_TABLE default
0.000000
0.000000
0.000000
0.000000
0.000000
0.000000
0.000000
0.000000
0.000000
0.000000
0.000000
0.000000
0.000000
0.000000
0.000000
0.000000
0.000000
0.000000
0.000000
0.000000
0.000000
0.000000
0.000000
0.000000
0.000000
0.000000
0.000000
0.000000
0.000000
0.000000
0.000000
0.000000
0.000000
0.000000
0.000000
0.000000
0.000000
0.000000
0.000000
0.000000
0.000000
0.000000
0.000000
0.000000
0.000000
0.000000
0.000000
0.000000
0.000000
0.000000
0.000000
0.000000
0.000000
0.000000
0.000000
0.000000
0.000000
0.000000
0.000000
0.000000
0.000000
0.000000
0.000000
0.000000
0.000000
0.000000
0.000000
0.000000
0.000000
0.000000
0.000000
0.000000
0.000000
0.000000
0.000000
0.000000
0.000000
0.000000
0.000000
0.000000
0.000000
0.000000
0.000000
0.000000
0.000000
0.000000
0.000000
0.000000
0.000000
0.000000
0.000000
0.000000
0.000000
0.000000
0.000000
0.000000
0.000000
0.000000
0.000000
0.000000
0.000000
0.000000
0.000000
0.000000
0.000000
0.000000
0.000000
0.000000
0.000000
0.000000
0.000000
0.000000
0.000000
0.000000
0.000000
0.000000
0.000000
0.000000
0.000000
0.000000
0.000000
0.000000
0.000000
0.000000
0.000000
0.000000
0.000000
0.000000
0.000000
0.000000
0.000000
0.000000
0.000000
0.000000
0.000000
0.000000
0.000000
0.000000
0.000000
0.000000
0.000000
0.000000
0.000000
0.000000
0.000000
0.000000
0.000000
0.000000
0.000000
0.000000
0.000000
0.000000
0.000000
0.000000
0.000000
0.000000
0.000000
0.000000
0.000000
0.000000
0.000000
0.000000
0.000000
0.000000
0.000000
0.000000
0.000000
0.000000
0.000000
0.000000
0.000000
0.000000
0.000000
0.000000
0.000000
0.000000
0.000000
0.000000
0.000000
0.000000
0.000000
0.000000
0.000000
0.000000
0.000000
0.000000
0.000000
0.000000
0.000000
0.000000
0.000000
0.000000
0.000000
0.000000
0.000000
0.000000
0.000000
0.000000
0.000000
0.000000
0.000000
0.000000
0.000000
0.000000
0.000000
0.000000
0.000000
0.000000
0.000000
0.000000
0.000000
0.000000
0.000000
0.000000
0.000000
0.000000
0.000000
0.000000
0.000000
0.000000
0.000000
0.000000
0.000000
0.000000
0.000000
0.000000
0.000000
0.000000
0.000000
0.000000
0.000000
0.000000
0.000000
0.000000
0.000000
0.000000
0.000000
0.000000
0.000000
0.000000
0.000000
0.000000
0.000000
0.000000
0.000000
0.000000
0.000000
0.000000
0.000000
0.000000
0.000000
0.000000
0.000000
0.000000
0.000000
0.000000

SCALARS sigma_zx FLOAT 1
LOOKUP_TABLE default
0.000000
0.000000
0.000000
0.000000
0.000000
0.000000
0.000000
0.000000
0.000000
0.000000
0.000000
0.000000
0.000000
0.000000
0.000000
0.000000
0.000000
0.000000
0.000000
0.000000
0.000000
0.000000
0.000000
0.000000
0.000000
0.000000
0.000000
0.000000
0.000000
0.000000
0.000000
0.000000
0.000000
0.000000
0.000000
0.000000
0.000000
0.000000
0.000000
0.000000
0.000000
0.000000
0.000000
0.000000
0.000000
0.000000
0.000000
0.000000
0.000000
0.000000
0.000000
0.000000
0.000000
0.000000
0.000000
0.000000
0.000000
0.000000
0.000000
0.000000
0.000000
0.000000
0.000000
0.000000
0.000000
0.000000
0.000000
0.000000
0.000000
0.000000
0.000000
0.000000
0.000000
0.000000
0.000000
0.000000
0.000000
0.000000
0.000000
0.000000
0.000000
0.000000
0.000000
0.000000
0.000000
0.000000
0.000000
0.000000
0.000000
0.000000
0.000000
0.000000
0.000000
0.000000
0.000000
0.000000
0.000000
0.000000
0.000000
0.000000
0.000000
0.000000
0.000000
0.000000
0.000000
0.000000
0.000000
0.000000
0.000000
0.000000
0.000000
0.000000
0.000000
0.000000
0.000000
0.000000
0.000000
0.000000
0.000000
0.000000
0.000000
0.000000
0.000000
0.000000
0.000000
0.000000
0.000000
0.000000
0.000000
0.000000
0.000000
0.000000
0.000000
0.000000
0.000000
0.000000
0.000000
0.000000
0.000000
0.000000
0.000000
0.000000
0.000000
0.000000
0.000000
0.000000
0.000000
0.000000
0.000000
0.000000
0.000000
0.000000
0.000000
0.000000
0.000000
0.000000
0.000000
0.000000
0.000000
0.000000
0.000000
0.000000
0.000000
0.000000
0.000000
0.000000
0.000000
0.000000
0.000000
0.000000
0.000000
0.000000
0.000000
0.000000
0.000000
0.000000
0.000000
0.000000
0.000000
0.000000
0.000000
0.000000
0.000000
0.000000
0.000000
0.000000
0.000000
0.000000
0.000000
0.000000
0.000000
0.000000
0.000000
0.000000
0.000000
0.000000
0.000000
0.000000
0.000000
0.000000
0.000000
0.000000
0.000000
0.000000
0.000000
0.000000
0.000000
0.000000
0.000000
0.000000
0.000000
0.000000
0.000000
0.000000
0.000000
0.000000
0.000000
0.000000
0.000000
0.000000
0.000000
0.000000
0.000000
0.000000
0.000000
0.000000
0.000000
0.000000
0.000000
0.000000
0.000000
0.000000
0.000000
0.000000
0.000000
0.000000
0.000000
0.000000
0.000000
0.000000
0.000000
0.000000
0.000000
0.000000
0.000000
0.000000
0.000000
0.000000
0.000000
0.000000
0.000000
0.000000
0.000000
0.000000
0.000000
0.000000

SCALARS u_x FLOAT 1
LOOKUP_TABLE default
0.000000
0.000000
0.000000
0.000000
0.000000
0.000000
0.000000
0.000000
0.000000
0.000000
0.000000
0.000000
0.000000
0.000000
0.000000
0.000000
0.000000
0.000000
0.000000
0.000000
0.000000
0.000000
0.000000
0.000000
0.000000
0.000000
0.000000
0.000000
0.000000
0.000000
0.000000
0.000000
0.000000
0.000000
0.000000
0.000000
0.000000
0.000000
0.000000
0.000000
0.000000
0.000000
0.000000
0.000000
0.000000
0.000000
0.000000
0.000000
0.000000
0.000000
0.000000
0.000000
0.000000
0.000000
0.000000
0.000000
0.000000
0.000000
0.000000
0.000000
0.000000
0.000000
0.000000
0.000000
0.000000
0.000000
0.000000
0.000000
0.000000
0.000000
0.000000
0.000000
0.000000
0.000000
0.000000
0.000000
0.000000
0.000000
0.000000
0.000000
0.000000
0.000000
0.000000
0.000000
0.000000
0.000000
0.000000
0.000000
0.000000
0.000000
0.000000
0.000000
0.000000
0.000000
0.000000
0.000000
0.000000
0.000000
0.000000
0.000000
0.000000
0.000000
0.000000
0.000000
0.000000
0.000000
0.000000
0.000000
0.000000
0.000000
0.000000
0.000000
0.000000
0.000000
0.000000
0.000000
0.000000
0.000000
0.000000
0.000000
0.000000
0.000000
0.000000
0.000000
0.000000
0.000000
0.000000
0.000000
0.000000
0.000000
0.000000
0.000000
0.000000
0.000000
0.000000
0.000000
0.000000
0.000000
0.000000
0.000000
0.000000
0.000000
0.000000
0.000000
0.000000
0.000000
0.000000
0.000000
0.000000
0.000000
0.000000
0.000000
0.000000
0.000000
0.000000
0.000000
0.000000
0.000000
0.000000
0.000000
0.000000
0.000000
0.000000
0.000000
0.000000
0.000000
0.000000
0.000000
0.000000
0.000000
0.000000
0.000000
0.000000
0.000000
0.000000
0.000000
0.000000
0.000000
0.000000
0.000000
0.000000
0.000000
0.000000
0.000000
0.000000
0.000000
0.000000
0.000000
0.000000
0.000000
0.000000
0.000000
0.000000
0.000000
0.000000
0.000000
0.000000
0.000000
0.000000
0.000000
0.000000
0.000000
0.000000
0.000000
0.000000
0.000000
0.000000
0.000000
0.000000
0.000000
0.000000
0.000000
0.000000
0.000000
0.000000
0.000000
0.000000
0.000000
0.000000
0.000000
0.000000
0.000000
0.000000
0.000000
0.000000
0.000000
0.000000
0.000000
0.000000
0.000000
0.000000
0.000000
0.000000
0.000000
0.000000
0.000000
0.000000
0.000000
0.000000
0.000000
0.000000
0.000000
0.000000
0.000000
0.000000
0.000000
0.000000
0.000000
0.000000
0.000000
0.000000
0.000000
0.000000
0.000000
0.000000
0.000000

SCALARS u_y FLOAT 1
LOOKUP_TABLE default
-0.103002
-0.309007
-0.103002
-0.309007
-0.514757
-0.719668
-0.514757
-0.719668
-0.923814
-1.127334
-0.923814
-1.127334
-1.330303
-1.532595
-1.330303
-1.532595
-1.734185
-1.935092
-1.734185
-1.935092
-2.135380
-2.334969
-2.135380
-2.334969
-2.533856
-2.732036
-2.533856
-2.732036
-2.929577
-3.126392
-2.929577
-3.126392
-3.322456
-3.517819
-3.322456
-3.517819
-3.712489
-3.906429
-3.712489
-3.906429
-4.099570
-4.292021
-4.099570
-4.292021
-4.483732
-4.674726
-4.483732
-4.674726
-4.864888
-5.054287
-4.864888
-5.054287
-5.242883
-5.430764
-5.242883
-5.430764
-5.617766
-5.803989
-5.617766
-5.803989
-5.989404
-6.173943
-5.989404
-6.173943
-6.357603
-6.540406
-6.357603
-6.540406
-6.722538
-6.903719
-6.722538
-6.903719
-7.084103
-7.263540
-7.084103
-7.263540
-7.442098
-7.619705
-7.442098
-7.619705
-7.796338
-7.972263
-7.796338
-7.972263
-8.147097
-8.321148
-8.147097
-8.321148
-8.494102
-8.666166
-8.494102
-8.666166
-8.837208
-9.007238
-8.837208
-9.007238
-9.176367
-9.344376
-9.176367
-9.344376
-9.511508
-9.677601
-9.511508
-9.677601
-9.842533
-10.006507
-9.842533
-10.006507
-10.169176
-10.330967
-10.169176
-10.330967
-10.491551
-10.651122
-10.491551
-10.651122
-10.809668
-10.966928
-10.809668
-10.966928
-11.123093
-11.278001
-11.123093
-11.278001
-11.431835
-11.584396
-11.431835
-11.584396
-11.735616
-11.885798
-11.735616
-11.885798
-12.034581
-12.182188
-12.034581
-12.182188
-12.328538
-12.473311
-12.328538
-12.473311
-12.617076
-12.759274
-12.617076
-12.759274
-12.900266
-13.039763
-12.900266
-13.039763
-13.177825
-13.314575
-13.177825
-13.314575
-13.449733
-13.583476
-13.449733
-13.583476
-13.715845
-13.846415
-13.715845
-13.846415
-13.975727
-14.103244
-13.975727
-14.103244
-14.229333
-14.353874
-14.229333
-14.353874
-14.476463
-14.597770
-14.476463
-14.597770
-14.716962
-14.834705
-14.716962
-14.834705
-14.950451
-15.064516
-14.950451
-15.064516
-15.176654
-15.286898
-15.176654
-15.286898
-15.395249
-15.501751
-15.395249
-15.501751
-15.606199
-15.708968
-15.606199
-15.708968
-15.809153
-15.907700
-15.809153
-15.907700
-16.003522
-16.097454
-16.003522
-16.097454
-16.189226
-16.278813
-16.189226
-16.278813
-16.366278
-16.450846
-16.366278
-16.450846
-16.533243
-16.612925
-16.533243
-16.612925
-16.690465
-16.765300
-16.690465
-16.765300
-16.837093
-16.906318
-16.837093
-16.906318
-16.972784
-17.036693
-16.972784
-17.036693
-17.097442
-17.155173
-17.097442
-17.155173
-17.209805
-17.261105
-17.209805
-17.261105
-17.309214
-17.353790
-17.309214
-17.353790
-17.395335
-17.432929
-17.395335
-17.432929
-17.467283
-17.497364
-17.467283
-17.497364
-17.524041
-17.546074
-17.524041
-17.546074
-17.564634
-17.578167
-17.564634
-17.578167
-17.587607
-17.591858
-17.587607
-17.591858

