# vtk DataFile Version 2.0
MATLAB generated vtk file, WMC
ASCII
DATASET UNSTRUCTURED_GRID
POINTS 256 double
0.195312 0.060699 0.000000 
0.195312 0.182097 0.000000 
0.585938 0.060699 0.000000 
0.585938 0.182097 0.000000 
0.195312 0.303663 0.000000 
0.195312 0.425780 0.000000 
0.585938 0.303663 0.000000 
0.585938 0.425780 0.000000 
0.195312 0.548437 0.000000 
0.195312 0.671742 0.000000 
0.585938 0.548437 0.000000 
0.585938 0.671742 0.000000 
0.195312 0.795663 0.000000 
0.195312 0.920125 0.000000 
0.585938 0.795663 0.000000 
0.585938 0.920125 0.000000 
0.195312 1.045063 0.000000 
0.195312 1.170555 0.000000 
0.585938 1.045063 0.000000 
0.585938 1.170555 0.000000 
0.195312 1.296609 0.000000 
0.195312 1.423266 0.000000 
0.585938 1.296609 0.000000 
0.585938 1.423266 0.000000 
0.195312 1.550528 0.000000 
0.195312 1.678395 0.000000 
0.585938 1.550528 0.000000 
0.585938 1.678395 0.000000 
0.195312 1.806795 0.000000 
0.195312 1.935787 0.000000 
0.585938 1.806795 0.000000 
0.585938 1.935787 0.000000 
0.195312 2.065373 0.000000 
0.195312 2.195579 0.000000 
0.585938 2.065373 0.000000 
0.585938 2.195579 0.000000 
0.195312 2.326422 0.000000 
0.195312 2.457890 0.000000 
0.585938 2.326422 0.000000 
0.585938 2.457890 0.000000 
0.195312 2.589991 0.000000 
0.195312 2.722724 0.000000 
0.585938 2.589991 0.000000 
0.585938 2.722724 0.000000 
0.195312 2.856115 0.000000 
0.195312 2.990155 0.000000 
0.585938 2.856115 0.000000 
0.585938 2.990155 0.000000 
0.195312 3.124886 0.000000 
0.195312 3.260271 0.000000 
0.585938 3.124886 0.000000 
0.585938 3.260271 0.000000 
0.195312 3.396333 0.000000 
0.195312 3.533034 0.000000 
0.585938 3.396333 0.000000 
0.585938 3.533034 0.000000 
0.195312 3.670473 0.000000 
0.195312 3.808636 0.000000 
0.585938 3.670473 0.000000 
0.585938 3.808636 0.000000 
0.195312 3.947511 0.000000 
0.195312 4.087097 0.000000 
0.585938 3.947511 0.000000 
0.585938 4.087097 0.000000 
0.195312 4.227403 0.000000 
0.195312 4.368487 0.000000 
0.585938 4.227403 0.000000 
0.585938 4.368487 0.000000 
0.195312 4.510250 0.000000 
0.195312 4.652859 0.000000 
0.585938 4.510250 0.000000 
0.585938 4.652859 0.000000 
0.195312 4.796212 0.000000 
0.195312 4.940373 0.000000 
0.585938 4.796212 0.000000 
0.585938 4.940373 0.000000 
0.195312 5.085287 0.000000 
0.195312 5.231020 0.000000 
0.585938 5.085287 0.000000 
0.585938 5.231020 0.000000 
0.195312 5.377624 0.000000 
0.195312 5.524985 0.000000 
0.585938 5.377624 0.000000 
0.585938 5.524985 0.000000 
0.195312 5.673277 0.000000 
0.195312 5.822320 0.000000 
0.585938 5.673277 0.000000 
0.585938 5.822320 0.000000 
0.195312 5.972336 0.000000 
0.195312 6.123190 0.000000 
0.585938 5.972336 0.000000 
0.585938 6.123190 0.000000 
0.195312 6.274973 0.000000 
0.195312 6.427622 0.000000 
0.585938 6.274973 0.000000 
0.585938 6.427622 0.000000 
0.195312 6.581146 0.000000 
0.195312 6.735664 0.000000 
0.585938 6.581146 0.000000 
0.585938 6.735664 0.000000 
0.195312 6.891077 0.000000 
0.195312 7.047464 0.000000 
0.585938 6.891077 0.000000 
0.585938 7.047464 0.000000 
0.195312 7.204899 0.000000 
0.195312 7.363198 0.000000 
0.585938 7.204899 0.000000 
0.585938 7.363198 0.000000 
0.195312 7.522633 0.000000 
0.195312 7.683031 0.000000 
0.585938 7.522633 0.000000 
0.585938 7.683031 0.000000 
0.195312 7.844504 0.000000 
0.195312 8.007011 0.000000 
0.585938 7.844504 0.000000 
0.585938 8.007011 0.000000 
0.195312 8.170597 0.000000 
0.195312 8.335260 0.000000 
0.585938 8.170597 0.000000 
0.585938 8.335260 0.000000 
0.195312 8.501108 0.000000 
0.195312 8.668131 0.000000 
0.585938 8.501108 0.000000 
0.585938 8.668131 0.000000 
0.195312 8.836184 0.000000 
0.195312 9.005455 0.000000 
0.585938 8.836184 0.000000 
0.585938 9.005455 0.000000 
0.195312 9.175990 0.000000 
0.195312 9.347617 0.000000 
0.585938 9.175990 0.000000 
0.585938 9.347617 0.000000 
0.195312 9.520573 0.000000 
0.195312 9.694704 0.000000 
0.585938 9.520573 0.000000 
0.585938 9.694704 0.000000 
0.195312 9.870103 0.000000 
0.195312 10.047004 0.000000 
0.585938 9.870103 0.000000 
0.585938 10.047004 0.000000 
0.195312 10.225117 0.000000 
0.195312 10.404685 0.000000 
0.585938 10.225117 0.000000 
0.585938 10.404685 0.000000 
0.195312 10.585544 0.000000 
0.195312 10.767833 0.000000 
0.585938 10.585544 0.000000 
0.585938 10.767833 0.000000 
0.195312 10.951559 0.000000 
0.195312 11.136785 0.000000 
0.585938 10.951559 0.000000 
0.585938 11.136785 0.000000 
0.195312 11.323549 0.000000 
0.195312 11.511901 0.000000 
0.585938 11.323549 0.000000 
0.585938 11.511901 0.000000 
0.195312 11.701761 0.000000 
0.195312 11.893297 0.000000 
0.585938 11.701761 0.000000 
0.585938 11.893297 0.000000 
0.195312 12.086380 0.000000 
0.195312 12.281187 0.000000 
0.585938 12.086380 0.000000 
0.585938 12.281187 0.000000 
0.195312 12.477623 0.000000 
0.195312 12.675867 0.000000 
0.585938 12.477623 0.000000 
0.585938 12.675867 0.000000 
0.195312 12.876015 0.000000 
0.195312 13.077849 0.000000 
0.585938 12.876015 0.000000 
0.585938 13.077849 0.000000 
0.195312 13.281786 0.000000 
0.195312 13.487468 0.000000 
0.585938 13.281786 0.000000 
0.585938 13.487468 0.000000 
0.195312 13.695168 0.000000 
0.195312 13.904869 0.000000 
0.585938 13.695168 0.000000 
0.585938 13.904869 0.000000 
0.195312 14.116905 0.000000 
0.195312 14.331007 0.000000 
0.585938 14.116905 0.000000 
0.585938 14.331007 0.000000 
0.195312 14.547250 0.000000 
0.195312 14.765672 0.000000 
0.585938 14.547250 0.000000 
0.585938 14.765672 0.000000 
0.195312 14.986413 0.000000 
0.195312 15.209344 0.000000 
0.585938 14.986413 0.000000 
0.585938 15.209344 0.000000 
0.195312 15.435042 0.000000 
0.195312 15.663337 0.000000 
0.585938 15.435042 0.000000 
0.585938 15.663337 0.000000 
0.195312 15.894318 0.000000 
0.195312 16.127717 0.000000 
0.585938 15.894318 0.000000 
0.585938 16.127717 0.000000 
0.195312 16.363975 0.000000 
0.195312 16.603232 0.000000 
0.585938 16.363975 0.000000 
0.585938 16.603232 0.000000 
0.195312 16.845256 0.000000 
0.195312 17.090492 0.000000 
0.585938 16.845256 0.000000 
0.585938 17.090492 0.000000 
0.195312 17.338734 0.000000 
0.195312 17.590420 0.000000 
0.585938 17.338734 0.000000 
0.585938 17.590420 0.000000 
0.195312 17.845310 0.000000 
0.195312 18.103848 0.000000 
0.585938 17.845310 0.000000 
0.585938 18.103848 0.000000 
0.195312 18.366186 0.000000 
0.195312 18.632213 0.000000 
0.585938 18.366186 0.000000 
0.585938 18.632213 0.000000 
0.195312 18.902453 0.000000 
0.195312 19.176521 0.000000 
0.585938 18.902453 0.000000 
0.585938 19.176521 0.000000 
0.195312 19.454974 0.000000 
0.195312 19.737685 0.000000 
0.585938 19.454974 0.000000 
0.585938 19.737685 0.000000 
0.195312 20.025110 0.000000 
0.195312 20.317601 0.000000 
0.585938 20.025110 0.000000 
0.585938 20.317601 0.000000 
0.195312 20.615119 0.000000 
0.195312 20.918651 0.000000 
0.585938 20.615119 0.000000 
0.585938 20.918651 0.000000 
0.195312 21.227757 0.000000 
0.195312 21.542933 0.000000 
0.585938 21.227757 0.000000 
0.585938 21.542933 0.000000 
0.195312 21.863543 0.000000 
0.195312 22.192032 0.000000 
0.585938 21.863543 0.000000 
0.585938 22.192032 0.000000 
0.195312 22.527414 0.000000 
0.195312 22.870328 0.000000 
0.585938 22.527414 0.000000 
0.585938 22.870328 0.000000 
0.195312 23.220792 0.000000 
0.195312 23.581328 0.000000 
0.585938 23.220792 0.000000 
0.585938 23.581328 0.000000 
0.195312 23.950304 0.000000 
0.195312 24.330310 0.000000 
0.585938 23.950304 0.000000 
0.585938 24.330310 0.000000 

POINT_DATA 256
SCALARS sigma_xx FLOAT 1
LOOKUP_TABLE default
0.000000
0.000000
0.000000
0.000000
0.000000
-0.000000
-0.000000
-0.000000
0.000000
-0.000000
0.000000
-0.000000
-0.000000
-0.000000
-0.000000
-0.000000
-0.000000
-0.000000
-0.000000
-0.000000
-0.000000
-0.000000
-0.000000
-0.000000
-0.000000
-0.000000
-0.000000
-0.000000
0.000000
-0.000000
-0.000000
-0.000000
0.000000
-0.000000
0.000000
-0.000000
-0.000000
-0.000000
-0.000000
-0.000000
-0.000000
-0.000000
-0.000000
-0.000000
-0.000000
-0.000000
0.000000
-0.000000
-0.000000
-0.000000
-0.000000
-0.000000
-0.000000
-0.000000
-0.000000
-0.000000
-0.000000
-0.000000
-0.000000
-0.000000
-0.000000
0.000000
-0.000000
-0.000000
-0.000000
-0.000000
-0.000000
-0.000000
-0.000000
-0.000000
-0.000000
-0.000000
-0.000000
-0.000000
-0.000000
-0.000000
-0.000000
-0.000000
-0.000000
-0.000000
-0.000000
-0.000000
-0.000000
-0.000000
-0.000000
-0.000000
-0.000000
-0.000000
-0.000000
-0.000000
-0.000000
-0.000000
-0.000000
-0.000000
-0.000000
-0.000000
-0.000000
-0.000000
-0.000000
-0.000000
-0.000000
-0.000000
-0.000000
-0.000000
-0.000000
-0.000000
-0.000000
-0.000000
-0.000000
-0.000000
0.000000
-0.000000
-0.000000
0.000000
-0.000000
-0.000000
-0.000000
-0.000000
-0.000000
-0.000000
-0.000000
-0.000000
-0.000000
-0.000000
-0.000000
-0.000000
-0.000000
-0.000000
-0.000000
-0.000000
-0.000000
-0.000000
-0.000000
-0.000000
-0.000000
-0.000000
-0.000000
-0.000000
-0.000000
-0.000000
-0.000000
-0.000000
-0.000000
-0.000000
-0.000000
-0.000000
-0.000000
-0.000000
0.000000
-0.000000
0.000000
-0.000000
-0.000000
-0.000000
-0.000000
-0.000000
-0.000000
-0.000000
-0.000000
-0.000000
-0.000000
-0.000000
-0.000000
-0.000000
-0.000000
0.000000
-0.000000
0.000000
-0.000000
-0.000000
-0.000000
-0.000000
-0.000000
-0.000000
-0.000000
-0.000000
-0.000000
-0.000000
-0.000000
-0.000000
-0.000000
-0.000000
-0.000000
-0.000000
-0.000000
-0.000000
-0.000000
-0.000000
-0.000000
-0.000000
-0.000000
-0.000000
-0.000000
-0.000000
-0.000000
-0.000000
-0.000000
-0.000000
-0.000000
-0.000000
-0.000000
-0.000000
-0.000000
-0.000000
-0.000000
-0.000000
-0.000000
-0.000000
-0.000000
-0.000000
-0.000000
-0.000000
-0.000000
-0.000000
-0.000000
-0.000000
-0.000000
-0.000000
-0.000000
-0.000000
0.000000
-0.000000
0.000000
-0.000000
-0.000000
-0.000000
-0.000000
-0.000000
0.000000
-0.000000
0.000000
-0.000000
-0.000000
-0.000000
0.000000
-0.000000
-0.000000
-0.000000
-0.000000
-0.000000
-0.000000
-0.000000
-0.000000
-0.000000
-0.000000
-0.000000
0.000000
-0.000000
-0.000000
-0.000000
0.000000
-0.000000
0.000000
-0.000000
0.000000
-0.000000

SCALARS sigma_yy FLOAT 1
LOOKUP_TABLE default
-37604.517427
-37604.517427
-37604.517427
-37604.517427
-37351.550192
-37059.295071
-37351.550192
-37059.295071
-36698.879360
-36371.970199
-36698.879360
-36371.970199
-36014.672006
-35784.228884
-36014.672006
-35784.228884
-35487.473553
-35207.274638
-35487.473553
-35207.274638
-34885.209869
-34593.011142
-34885.209869
-34593.011142
-34254.639835
-33991.046340
-34254.639835
-33991.046340
-33694.389720
-33415.448498
-33694.389720
-33415.448498
-33095.415397
-32819.691371
-33095.415397
-32819.691371
-32489.331710
-32226.510047
-32489.331710
-32226.510047
-31904.984809
-31625.491072
-31904.984809
-31625.491072
-31298.149449
-31036.243892
-31298.149449
-31036.243892
-30706.177944
-30441.492050
-30706.177944
-30441.492050
-30124.711757
-29856.260887
-30124.711757
-29856.260887
-29525.329863
-29248.833127
-29525.329863
-29248.833127
-28922.683652
-28665.648594
-28922.683652
-28665.648594
-28355.678554
-28054.895757
-28355.678554
-28054.895757
-27764.164447
-27468.052778
-27764.164447
-27468.052778
-27162.003349
-26869.173243
-27162.003349
-26869.173243
-26576.121053
-26283.904572
-26576.121053
-26283.904572
-25956.375874
-25691.730183
-25956.375874
-25691.730183
-25377.709740
-25098.923067
-25377.709740
-25098.923067
-24758.022839
-24495.174143
-24758.022839
-24495.174143
-24173.690151
-23910.401684
-24173.690151
-23910.401684
-23605.292654
-23306.534912
-23605.292654
-23306.534912
-23012.244889
-22711.734288
-23012.244889
-22711.734288
-22406.492653
-22135.601311
-22406.492653
-22135.601311
-21814.146885
-21532.772366
-21814.146885
-21532.772366
-21216.503014
-20939.970019
-21216.503014
-20939.970019
-20627.765496
-20344.329900
-20627.765496
-20344.329900
-20014.741505
-19746.121196
-20014.741505
-19746.121196
-19440.040994
-19159.966727
-19440.040994
-19159.966727
-18833.844707
-18580.356788
-18833.844707
-18580.356788
-18245.536082
-17985.210381
-18245.536082
-17985.210381
-17652.373877
-17368.371902
-17652.373877
-17368.371902
-17060.722014
-16774.125772
-17060.722014
-16774.125772
-16477.026650
-16185.962062
-16477.026650
-16185.962062
-15886.009500
-15596.329607
-15886.009500
-15596.329607
-15270.689352
-14985.927920
-15270.689352
-14985.927920
-14694.386202
-14384.475200
-14694.386202
-14384.475200
-14115.292189
-13809.456483
-14115.292189
-13809.456483
-13515.610529
-13207.584112
-13515.610529
-13207.584112
-12918.141969
-12608.471258
-12918.141969
-12608.471258
-12316.022103
-12031.749633
-12316.022103
-12031.749633
-11731.008460
-11420.211973
-11731.008460
-11420.211973
-11119.410850
-10820.958111
-11119.410850
-10820.958111
-10543.740385
-10250.643518
-10543.740385
-10250.643518
-9961.186933
-9669.996872
-9961.186933
-9669.996872
-9329.919415
-9048.826665
-9329.919415
-9048.826665
-8740.670663
-8477.479519
-8740.670663
-8477.479519
-8148.435557
-7870.092349
-8148.435557
-7870.092349
-7571.148166
-7275.084694
-7571.148166
-7275.084694
-6983.994136
-6679.431742
-6983.994136
-6679.431742
-6382.981488
-6087.185943
-6382.981488
-6087.185943
-5786.122851
-5483.645957
-5786.122851
-5483.645957
-5179.622226
-4905.929446
-5179.622226
-4905.929446
-4606.605786
-4324.671091
-4606.605786
-4324.671091
-4014.963000
-3725.070735
-4014.963000
-3725.070735
-3402.203162
-3109.634787
-3402.203162
-3109.634787
-2799.241914
-2547.618948
-2799.241914
-2547.618948
-2236.854232
-1914.204376
-2236.854232
-1914.204376
-1625.201379
-1360.882894
-1625.201379
-1360.882894
-1031.817165
-734.219470
-1031.817165
-734.219470
-451.553751
-120.122585
-451.553751
-120.122585

SCALARS sigma_zz FLOAT 1
LOOKUP_TABLE default
0.000000
0.000000
0.000000
0.000000
0.000000
0.000000
0.000000
0.000000
0.000000
0.000000
0.000000
0.000000
0.000000
0.000000
0.000000
0.000000
0.000000
0.000000
0.000000
0.000000
0.000000
0.000000
0.000000
0.000000
0.000000
0.000000
0.000000
0.000000
0.000000
0.000000
0.000000
0.000000
0.000000
0.000000
0.000000
0.000000
0.000000
0.000000
0.000000
0.000000
0.000000
0.000000
0.000000
0.000000
0.000000
0.000000
0.000000
0.000000
0.000000
0.000000
0.000000
0.000000
0.000000
0.000000
0.000000
0.000000
0.000000
0.000000
0.000000
0.000000
0.000000
0.000000
0.000000
0.000000
0.000000
0.000000
0.000000
0.000000
0.000000
0.000000
0.000000
0.000000
0.000000
0.000000
0.000000
0.000000
0.000000
0.000000
0.000000
0.000000
0.000000
0.000000
0.000000
0.000000
0.000000
0.000000
0.000000
0.000000
0.000000
0.000000
0.000000
0.000000
0.000000
0.000000
0.000000
0.000000
0.000000
0.000000
0.000000
0.000000
0.000000
0.000000
0.000000
0.000000
0.000000
0.000000
0.000000
0.000000
0.000000
0.000000
0.000000
0.000000
0.000000
0.000000
0.000000
0.000000
0.000000
0.000000
0.000000
0.000000
0.000000
0.000000
0.000000
0.000000
0.000000
0.000000
0.000000
0.000000
0.000000
0.000000
0.000000
0.000000
0.000000
0.000000
0.000000
0.000000
0.000000
0.000000
0.000000
0.000000
0.000000
0.000000
0.000000
0.000000
0.000000
0.000000
0.000000
0.000000
0.000000
0.000000
0.000000
0.000000
0.000000
0.000000
0.000000
0.000000
0.000000
0.000000
0.000000
0.000000
0.000000
0.000000
0.000000
0.000000
0.000000
0.000000
0.000000
0.000000
0.000000
0.000000
0.000000
0.000000
0.000000
0.000000
0.000000
0.000000
0.000000
0.000000
0.000000
0.000000
0.000000
0.000000
0.000000
0.000000
0.000000
0.000000
0.000000
0.000000
0.000000
0.000000
0.000000
0.000000
0.000000
0.000000
0.000000
0.000000
0.000000
0.000000
0.000000
0.000000
0.000000
0.000000
0.000000
0.000000
0.000000
0.000000
0.000000
0.000000
0.000000
0.000000
0.000000
0.000000
0.000000
0.000000
0.000000
0.000000
0.000000
0.000000
0.000000
0.000000
0.000000
0.000000
0.000000
0.000000
0.000000
0.000000
0.000000
0.000000
0.000000
0.000000
0.000000
0.000000
0.000000
0.000000
0.000000
0.000000
0.000000
0.000000
0.000000
0.000000
0.000000
0.000000
0.000000
0.000000
0.000000
0.000000
0.000000
0.000000
0.000000
0.000000
0.000000
0.000000
0.000000
0.000000
0.000000
0.000000

SCALARS sigma_xy FLOAT 1
LOOKUP_TABLE default
0.000000
0.000000
0.000000
0.000000
0.000000
-0.000000
-0.000000
-0.000000
0.000000
-0.000000
0.000000
-0.000000
-0.000000
-0.000000
-0.000000
-0.000000
0.000000
0.000000
0.000000
0.000000
0.000000
0.000000
0.000000
0.000000
0.000000
0.000000
0.000000
0.000000
0.000000
-0.000000
-0.000000
-0.000000
0.000000
-0.000000
0.000000
-0.000000
-0.000000
0.000000
-0.000000
0.000000
0.000000
0.000000
0.000000
0.000000
0.000000
-0.000000
0.000000
-0.000000
-0.000000
-0.000000
-0.000000
-0.000000
-0.000000
0.000000
-0.000000
0.000000
0.000000
0.000000
0.000000
0.000000
0.000000
0.000000
0.000000
0.000000
-0.000000
-0.000000
-0.000000
-0.000000
-0.000000
-0.000000
-0.000000
-0.000000
-0.000000
0.000000
-0.000000
0.000000
0.000000
0.000000
0.000000
0.000000
0.000000
0.000000
0.000000
0.000000
0.000000
-0.000000
0.000000
-0.000000
-0.000000
-0.000000
-0.000000
-0.000000
-0.000000
-0.000000
-0.000000
-0.000000
0.000000
-0.000000
0.000000
-0.000000
0.000000
-0.000000
0.000000
-0.000000
-0.000000
0.000000
-0.000000
0.000000
-0.000000
0.000000
0.000000
0.000000
0.000000
0.000000
0.000000
-0.000000
-0.000000
-0.000000
-0.000000
-0.000000
0.000000
0.000000
0.000000
0.000000
0.000000
0.000000
0.000000
0.000000
-0.000000
-0.000000
-0.000000
-0.000000
-0.000000
-0.000000
-0.000000
-0.000000
0.000000
0.000000
0.000000
0.000000
0.000000
-0.000000
0.000000
-0.000000
-0.000000
-0.000000
-0.000000
-0.000000
0.000000
0.000000
0.000000
0.000000
0.000000
0.000000
0.000000
0.000000
-0.000000
-0.000000
-0.000000
-0.000000
-0.000000
-0.000000
-0.000000
-0.000000
-0.000000
0.000000
-0.000000
0.000000
0.000000
0.000000
0.000000
0.000000
0.000000
0.000000
0.000000
0.000000
0.000000
-0.000000
0.000000
-0.000000
-0.000000
-0.000000
-0.000000
-0.000000
0.000000
0.000000
0.000000
0.000000
0.000000
-0.000000
0.000000
-0.000000
0.000000
-0.000000
0.000000
-0.000000
0.000000
-0.000000
0.000000
-0.000000
0.000000
-0.000000
0.000000
-0.000000
0.000000
-0.000000
0.000000
-0.000000
0.000000
-0.000000
0.000000
-0.000000
-0.000000
-0.000000
-0.000000
-0.000000
0.000000
0.000000
0.000000
0.000000
0.000000
-0.000000
0.000000
-0.000000
-0.000000
-0.000000
-0.000000
-0.000000
0.000000
0.000000
0.000000
0.000000
0.000000
0.000000
0.000000
0.000000
-0.000000
-0.000000
-0.000000
-0.000000
-0.000000
0.000000
-0.000000
0.000000
0.000000
0.000000
0.000000
0.000000
0.000000
0.000000
0.000000
0.000000
0.000000
0.000000
0.000000
-0.000000

SCALARS sigma_yz FLOAT 1
LOOKUP_TABLE default
0.000000
0.000000
0.000000
0.000000
0.000000
0.000000
0.000000
0.000000
0.000000
0.000000
0.000000
0.000000
0.000000
0.000000
0.000000
0.000000
0.000000
0.000000
0.000000
0.000000
0.000000
0.000000
0.000000
0.000000
0.000000
0.000000
0.000000
0.000000
0.000000
0.000000
0.000000
0.000000
0.000000
0.000000
0.000000
0.000000
0.000000
0.000000
0.000000
0.000000
0.000000
0.000000
0.000000
0.000000
0.000000
0.000000
0.000000
0.000000
0.000000
0.000000
0.000000
0.000000
0.000000
0.000000
0.000000
0.000000
0.000000
0.000000
0.000000
0.000000
0.000000
0.000000
0.000000
0.000000
0.000000
0.000000
0.000000
0.000000
0.000000
0.000000
0.000000
0.000000
0.000000
0.000000
0.000000
0.000000
0.000000
0.000000
0.000000
0.000000
0.000000
0.000000
0.000000
0.000000
0.000000
0.000000
0.000000
0.000000
0.000000
0.000000
0.000000
0.000000
0.000000
0.000000
0.000000
0.000000
0.000000
0.000000
0.000000
0.000000
0.000000
0.000000
0.000000
0.000000
0.000000
0.000000
0.000000
0.000000
0.000000
0.000000
0.000000
0.000000
0.000000
0.000000
0.000000
0.000000
0.000000
0.000000
0.000000
0.000000
0.000000
0.000000
0.000000
0.000000
0.000000
0.000000
0.000000
0.000000
0.000000
0.000000
0.000000
0.000000
0.000000
0.000000
0.000000
0.000000
0.000000
0.000000
0.000000
0.000000
0.000000
0.000000
0.000000
0.000000
0.000000
0.000000
0.000000
0.000000
0.000000
0.000000
0.000000
0.000000
0.000000
0.000000
0.000000
0.000000
0.000000
0.000000
0.000000
0.000000
0.000000
0.000000
0.000000
0.000000
0.000000
0.000000
0.000000
0.000000
0.000000
0.000000
0.000000
0.000000
0.000000
0.000000
0.000000
0.000000
0.000000
0.000000
0.000000
0.000000
0.000000
0.000000
0.000000
0.000000
0.000000
0.000000
0.000000
0.000000
0.000000
0.000000
0.000000
0.000000
0.000000
0.000000
0.000000
0.000000
0.000000
0.000000
0.000000
0.000000
0.000000
0.000000
0.000000
0.000000
0.000000
0.000000
0.000000
0.000000
0.000000
0.000000
0.000000
0.000000
0.000000
0.000000
0.000000
0.000000
0.000000
0.000000
0.000000
0.000000
0.000000
0.000000
0.000000
0.000000
0.000000
0.000000
0.000000
0.000000
0.000000
0.000000
0.000000
0.000000
0.000000
0.000000
0.000000
0.000000
0.000000
0.000000
0.000000
0.000000
0.000000
0.000000
0.000000
0.000000
0.000000
0.000000
0.000000
0.000000
0.000000
0.000000
0.000000
0.000000
0.000000
0.000000
0.000000
0.000000

SCALARS sigma_zx FLOAT 1
LOOKUP_TABLE default
0.000000
0.000000
0.000000
0.000000
0.000000
0.000000
0.000000
0.000000
0.000000
0.000000
0.000000
0.000000
0.000000
0.000000
0.000000
0.000000
0.000000
0.000000
0.000000
0.000000
0.000000
0.000000
0.000000
0.000000
0.000000
0.000000
0.000000
0.000000
0.000000
0.000000
0.000000
0.000000
0.000000
0.000000
0.000000
0.000000
0.000000
0.000000
0.000000
0.000000
0.000000
0.000000
0.000000
0.000000
0.000000
0.000000
0.000000
0.000000
0.000000
0.000000
0.000000
0.000000
0.000000
0.000000
0.000000
0.000000
0.000000
0.000000
0.000000
0.000000
0.000000
0.000000
0.000000
0.000000
0.000000
0.000000
0.000000
0.000000
0.000000
0.000000
0.000000
0.000000
0.000000
0.000000
0.000000
0.000000
0.000000
0.000000
0.000000
0.000000
0.000000
0.000000
0.000000
0.000000
0.000000
0.000000
0.000000
0.000000
0.000000
0.000000
0.000000
0.000000
0.000000
0.000000
0.000000
0.000000
0.000000
0.000000
0.000000
0.000000
0.000000
0.000000
0.000000
0.000000
0.000000
0.000000
0.000000
0.000000
0.000000
0.000000
0.000000
0.000000
0.000000
0.000000
0.000000
0.000000
0.000000
0.000000
0.000000
0.000000
0.000000
0.000000
0.000000
0.000000
0.000000
0.000000
0.000000
0.000000
0.000000
0.000000
0.000000
0.000000
0.000000
0.000000
0.000000
0.000000
0.000000
0.000000
0.000000
0.000000
0.000000
0.000000
0.000000
0.000000
0.000000
0.000000
0.000000
0.000000
0.000000
0.000000
0.000000
0.000000
0.000000
0.000000
0.000000
0.000000
0.000000
0.000000
0.000000
0.000000
0.000000
0.000000
0.000000
0.000000
0.000000
0.000000
0.000000
0.000000
0.000000
0.000000
0.000000
0.000000
0.000000
0.000000
0.000000
0.000000
0.000000
0.000000
0.000000
0.000000
0.000000
0.000000
0.000000
0.000000
0.000000
0.000000
0.000000
0.000000
0.000000
0.000000
0.000000
0.000000
0.000000
0.000000
0.000000
0.000000
0.000000
0.000000
0.000000
0.000000
0.000000
0.000000
0.000000
0.000000
0.000000
0.000000
0.000000
0.000000
0.000000
0.000000
0.000000
0.000000
0.000000
0.000000
0.000000
0.000000
0.000000
0.000000
0.000000
0.000000
0.000000
0.000000
0.000000
0.000000
0.000000
0.000000
0.000000
0.000000
0.000000
0.000000
0.000000
0.000000
0.000000
0.000000
0.000000
0.000000
0.000000
0.000000
0.000000
0.000000
0.000000
0.000000
0.000000
0.000000
0.000000
0.000000
0.000000
0.000000
0.000000
0.000000
0.000000
0.000000
0.000000
0.000000
0.000000
0.000000

SCALARS u_x FLOAT 1
LOOKUP_TABLE default
0.000000
0.000000
0.000000
0.000000
0.000000
0.000000
0.000000
0.000000
0.000000
0.000000
0.000000
0.000000
0.000000
0.000000
0.000000
0.000000
0.000000
0.000000
0.000000
0.000000
0.000000
0.000000
0.000000
0.000000
0.000000
0.000000
0.000000
0.000000
0.000000
0.000000
0.000000
0.000000
0.000000
0.000000
0.000000
0.000000
0.000000
0.000000
0.000000
0.000000
0.000000
0.000000
0.000000
0.000000
0.000000
0.000000
0.000000
0.000000
0.000000
0.000000
0.000000
0.000000
0.000000
0.000000
0.000000
0.000000
0.000000
0.000000
0.000000
0.000000
0.000000
0.000000
0.000000
0.000000
0.000000
0.000000
0.000000
0.000000
0.000000
0.000000
0.000000
0.000000
0.000000
0.000000
0.000000
0.000000
0.000000
0.000000
0.000000
0.000000
0.000000
0.000000
0.000000
0.000000
0.000000
0.000000
0.000000
0.000000
0.000000
0.000000
0.000000
0.000000
0.000000
0.000000
0.000000
0.000000
0.000000
0.000000
0.000000
0.000000
0.000000
0.000000
0.000000
0.000000
0.000000
0.000000
0.000000
0.000000
0.000000
0.000000
0.000000
0.000000
0.000000
0.000000
0.000000
0.000000
0.000000
0.000000
0.000000
0.000000
0.000000
0.000000
0.000000
0.000000
0.000000
0.000000
0.000000
0.000000
0.000000
0.000000
0.000000
0.000000
0.000000
0.000000
0.000000
0.000000
0.000000
0.000000
0.000000
0.000000
0.000000
0.000000
0.000000
0.000000
0.000000
0.000000
0.000000
0.000000
0.000000
0.000000
0.000000
0.000000
0.000000
0.000000
0.000000
0.000000
0.000000
0.000000
0.000000
0.000000
0.000000
0.000000
0.000000
0.000000
0.000000
0.000000
0.000000
0.000000
0.000000
0.000000
0.000000
0.000000
0.000000
0.000000
0.000000
0.000000
0.000000
0.000000
0.000000
0.000000
0.000000
0.000000
0.000000
0.000000
0.000000
0.000000
0.000000
0.000000
0.000000
0.000000
0.000000
0.000000
0.000000
0.000000
0.000000
0.000000
0.000000
0.000000
0.000000
0.000000
0.000000
0.000000
0.000000
0.000000
0.000000
0.000000
0.000000
0.000000
0.000000
0.000000
0.000000
0.000000
0.000000
0.000000
0.000000
0.000000
0.000000
0.000000
0.000000
0.000000
0.000000
0.000000
0.000000
0.000000
0.000000
0.000000
0.000000
0.000000
0.000000
0.000000
0.000000
0.000000
0.000000
0.000000
0.000000
0.000000
0.000000
0.000000
0.000000
0.000000
0.000000
0.000000
0.000000
0.000000
0.000000
0.000000
0.000000
0.000000
0.000000
0.000000
0.000000
0.000000
0.000000
0.000000
0.000000
0.000000

SCALARS u_y FLOAT 1
LOOKUP_TABLE default
-0.134613
-0.403840
-0.134613
-0.403840
-0.672900
-0.941407
-0.672900
-0.941407
-1.209375
-1.476695
-1.209375
-1.476695
-1.743400
-2.009563
-1.743400
-2.009563
-2.275250
-2.540383
-2.275250
-2.540383
-2.804953
-3.068921
-2.804953
-3.068921
-3.332285
-3.595043
-3.332285
-3.595043
-3.857267
-4.118900
-3.857267
-4.118900
-4.379940
-4.640358
-4.379940
-4.640358
-4.900140
-5.159297
-4.900140
-5.159297
-5.417822
-5.675714
-5.417822
-5.675714
-5.932948
-6.189532
-5.932948
-6.189532
-6.445427
-6.700667
-6.445427
-6.700667
-6.955229
-7.209154
-6.955229
-7.209154
-7.462339
-7.714801
-7.462339
-7.714801
-7.966552
-8.217590
-7.966552
-8.217590
-8.467910
-8.717451
-8.467910
-8.717451
-8.966313
-9.214329
-8.966313
-9.214329
-9.461601
-9.708065
-9.461601
-9.708065
-9.953775
-10.198668
-9.953775
-10.198668
-10.442688
-10.685952
-10.442688
-10.685952
-10.928285
-11.169867
-10.928285
-11.169867
-11.410476
-11.650247
-11.410476
-11.650247
-11.889089
-12.127065
-11.889089
-12.127065
-12.364167
-12.600273
-12.364167
-12.600273
-12.835486
-13.069723
-12.835486
-13.069723
-13.302914
-13.535240
-13.302914
-13.535240
-13.766429
-13.996657
-13.766429
-13.996657
-14.225809
-14.453926
-14.225809
-14.453926
-14.680965
-14.906928
-14.680965
-14.906928
-15.131705
-15.355306
-15.131705
-15.355306
-15.577878
-15.799232
-15.577878
-15.799232
-16.019322
-16.238320
-16.019322
-16.238320
-16.455989
-16.672483
-16.455989
-16.672483
-16.887710
-17.101433
-16.887710
-17.101433
-17.313946
-17.525003
-17.313946
-17.525003
-17.734768
-17.943104
-17.734768
-17.943104
-18.150003
-18.355403
-18.150003
-18.355403
-18.559263
-18.761537
-18.559263
-18.761537
-18.962302
-19.161390
-18.962302
-19.161390
-19.358933
-19.554751
-19.358933
-19.554751
-19.748940
-19.941320
-19.748940
-19.941320
-20.131797
-20.320589
-20.131797
-20.320589
-20.507277
-20.692220
-20.507277
-20.692220
-20.875145
-21.056068
-20.875145
-21.056068
-21.234657
-21.411180
-21.234657
-21.411180
-21.585562
-21.757766
-21.585562
-21.757766
-21.927650
-22.095344
-21.927650
-22.095344
-22.260270
-22.422600
-22.260270
-22.422600
-22.582245
-22.739470
-22.582245
-22.739470
-22.893838
-23.045206
-22.893838
-23.045206
-23.193806
-23.339196
-23.193806
-23.339196
-23.481578
-23.620517
-23.481578
-23.620517
-23.756252
-23.888340
-23.756252
-23.888340
-24.016627
-24.141224
-24.016627
-24.141224
-24.261609
-24.378167
-24.261609
-24.378167
-24.490339
-24.598252
-24.490339
-24.598252
-24.701452
-24.799587
-24.701452
-24.799587
-24.892693
-24.979787
-24.892693
-24.979787
-25.061305
-25.136754
-25.061305
-25.136754
-25.206769
-25.268905
-25.206769
-25.268905
-25.324148
-25.371860
-25.324148
-25.371860
-25.412021
-25.442110
-25.412021
-25.442110
-25.463758
-25.474378
-25.463758
-25.474378

