# vtk DataFile Version 2.0
MATLAB generated vtk file, WMC
ASCII
DATASET UNSTRUCTURED_GRID
POINTS 256 double
0.195312 0.083612 0.000000 
0.195312 0.250836 0.000000 
0.585938 0.083612 0.000000 
0.585938 0.250836 0.000000 
0.195312 0.418290 0.000000 
0.195312 0.586504 0.000000 
0.585938 0.418290 0.000000 
0.585938 0.586504 0.000000 
0.195312 0.755459 0.000000 
0.195312 0.925152 0.000000 
0.585938 0.755459 0.000000 
0.585938 0.925152 0.000000 
0.195312 1.095363 0.000000 
0.195312 1.266189 0.000000 
0.585938 1.095363 0.000000 
0.585938 1.266189 0.000000 
0.195312 1.437667 0.000000 
0.195312 1.609868 0.000000 
0.585938 1.437667 0.000000 
0.585938 1.609868 0.000000 
0.195312 1.782662 0.000000 
0.195312 1.956090 0.000000 
0.585938 1.782662 0.000000 
0.585938 1.956090 0.000000 
0.195312 2.130163 0.000000 
0.195312 2.304975 0.000000 
0.585938 2.130163 0.000000 
0.585938 2.304975 0.000000 
0.195312 2.480473 0.000000 
0.195312 2.656639 0.000000 
0.585938 2.480473 0.000000 
0.585938 2.656639 0.000000 
0.195312 2.833494 0.000000 
0.195312 3.011072 0.000000 
0.585938 2.833494 0.000000 
0.585938 3.011072 0.000000 
0.195312 3.189387 0.000000 
0.195312 3.368384 0.000000 
0.585938 3.189387 0.000000 
0.585938 3.368384 0.000000 
0.195312 3.548120 0.000000 
0.195312 3.728582 0.000000 
0.585938 3.548120 0.000000 
0.585938 3.728582 0.000000 
0.195312 3.909805 0.000000 
0.195312 4.091696 0.000000 
0.585938 3.909805 0.000000 
0.585938 4.091696 0.000000 
0.195312 4.274352 0.000000 
0.195312 4.457776 0.000000 
0.585938 4.274352 0.000000 
0.585938 4.457776 0.000000 
0.195312 4.642044 0.000000 
0.195312 4.827029 0.000000 
0.585938 4.642044 0.000000 
0.585938 4.827029 0.000000 
0.195312 5.012833 0.000000 
0.195312 5.199398 0.000000 
0.585938 5.012833 0.000000 
0.585938 5.199398 0.000000 
0.195312 5.386742 0.000000 
0.195312 5.574919 0.000000 
0.585938 5.386742 0.000000 
0.585938 5.574919 0.000000 
0.195312 5.763924 0.000000 
0.195312 5.953833 0.000000 
0.585938 5.763924 0.000000 
0.585938 5.953833 0.000000 
0.195312 6.144505 0.000000 
0.195312 6.336126 0.000000 
0.585938 6.144505 0.000000 
0.585938 6.336126 0.000000 
0.195312 6.528527 0.000000 
0.195312 6.721822 0.000000 
0.585938 6.528527 0.000000 
0.585938 6.721822 0.000000 
0.195312 6.915948 0.000000 
0.195312 7.110982 0.000000 
0.585938 6.915948 0.000000 
0.585938 7.110982 0.000000 
0.195312 7.307010 0.000000 
0.195312 7.503827 0.000000 
0.585938 7.307010 0.000000 
0.585938 7.503827 0.000000 
0.195312 7.701748 0.000000 
0.195312 7.900489 0.000000 
0.585938 7.701748 0.000000 
0.585938 7.900489 0.000000 
0.195312 8.100261 0.000000 
0.195312 8.300887 0.000000 
0.585938 8.100261 0.000000 
0.585938 8.300887 0.000000 
0.195312 8.502499 0.000000 
0.195312 8.705103 0.000000 
0.585938 8.502499 0.000000 
0.585938 8.705103 0.000000 
0.195312 8.908643 0.000000 
0.195312 9.113278 0.000000 
0.585938 8.908643 0.000000 
0.585938 9.113278 0.000000 
0.195312 9.318847 0.000000 
0.195312 9.525486 0.000000 
0.585938 9.318847 0.000000 
0.585938 9.525486 0.000000 
0.195312 9.733255 0.000000 
0.195312 9.942026 0.000000 
0.585938 9.733255 0.000000 
0.585938 9.942026 0.000000 
0.195312 10.152065 0.000000 
0.195312 10.363009 0.000000 
0.585938 10.152065 0.000000 
0.585938 10.363009 0.000000 
0.195312 10.575099 0.000000 
0.195312 10.788233 0.000000 
0.585938 10.575099 0.000000 
0.585938 10.788233 0.000000 
0.195312 11.002505 0.000000 
0.195312 11.218014 0.000000 
0.585938 11.002505 0.000000 
0.585938 11.218014 0.000000 
0.195312 11.434703 0.000000 
0.195312 11.652680 0.000000 
0.585938 11.434703 0.000000 
0.585938 11.652680 0.000000 
0.195312 11.871743 0.000000 
0.195312 12.092013 0.000000 
0.585938 11.871743 0.000000 
0.585938 12.092013 0.000000 
0.195312 12.313617 0.000000 
0.195312 12.536324 0.000000 
0.585938 12.313617 0.000000 
0.585938 12.536324 0.000000 
0.195312 12.760424 0.000000 
0.195312 12.985760 0.000000 
0.585938 12.760424 0.000000 
0.585938 12.985760 0.000000 
0.195312 13.212427 0.000000 
0.195312 13.440651 0.000000 
0.585938 13.212427 0.000000 
0.585938 13.440651 0.000000 
0.195312 13.670000 0.000000 
0.195312 13.900919 0.000000 
0.585938 13.670000 0.000000 
0.585938 13.900919 0.000000 
0.195312 14.133053 0.000000 
0.195312 14.366623 0.000000 
0.585938 14.133053 0.000000 
0.585938 14.366623 0.000000 
0.195312 14.601669 0.000000 
0.195312 14.838191 0.000000 
0.585938 14.601669 0.000000 
0.585938 14.838191 0.000000 
0.195312 15.076292 0.000000 
0.195312 15.315871 0.000000 
0.585938 15.076292 0.000000 
0.585938 15.315871 0.000000 
0.195312 15.556930 0.000000 
0.195312 15.799805 0.000000 
0.585938 15.556930 0.000000 
0.585938 15.799805 0.000000 
0.195312 16.044124 0.000000 
0.195312 16.290241 0.000000 
0.585938 16.044124 0.000000 
0.585938 16.290241 0.000000 
0.195312 16.537812 0.000000 
0.195312 16.787120 0.000000 
0.585938 16.537812 0.000000 
0.585938 16.787120 0.000000 
0.195312 17.038425 0.000000 
0.195312 17.291058 0.000000 
0.585938 17.038425 0.000000 
0.585938 17.291058 0.000000 
0.195312 17.545834 0.000000 
0.195312 17.802208 0.000000 
0.585938 17.545834 0.000000 
0.585938 17.802208 0.000000 
0.195312 18.060655 0.000000 
0.195312 18.320885 0.000000 
0.585938 18.060655 0.000000 
0.585938 18.320885 0.000000 
0.195312 18.583137 0.000000 
0.195312 18.847344 0.000000 
0.585938 18.583137 0.000000 
0.585938 18.847344 0.000000 
0.195312 19.113555 0.000000 
0.195312 19.381903 0.000000 
0.585938 19.113555 0.000000 
0.585938 19.381903 0.000000 
0.195312 19.652474 0.000000 
0.195312 19.924749 0.000000 
0.585938 19.652474 0.000000 
0.585938 19.924749 0.000000 
0.195312 20.199749 0.000000 
0.195312 20.476639 0.000000 
0.585938 20.199749 0.000000 
0.585938 20.476639 0.000000 
0.195312 20.756206 0.000000 
0.195312 21.037795 0.000000 
0.585938 20.756206 0.000000 
0.585938 21.037795 0.000000 
0.195312 21.321967 0.000000 
0.195312 21.608745 0.000000 
0.585938 21.321967 0.000000 
0.585938 21.608745 0.000000 
0.195312 21.897768 0.000000 
0.195312 22.189568 0.000000 
0.585938 21.897768 0.000000 
0.585938 22.189568 0.000000 
0.195312 22.483863 0.000000 
0.195312 22.781284 0.000000 
0.585938 22.483863 0.000000 
0.585938 22.781284 0.000000 
0.195312 23.081134 0.000000 
0.195312 23.383931 0.000000 
0.585938 23.081134 0.000000 
0.585938 23.383931 0.000000 
0.195312 23.689939 0.000000 
0.195312 23.998819 0.000000 
0.585938 23.689939 0.000000 
0.585938 23.998819 0.000000 
0.195312 24.310943 0.000000 
0.195312 24.625901 0.000000 
0.585938 24.310943 0.000000 
0.585938 24.625901 0.000000 
0.195312 24.944660 0.000000 
0.195312 25.266677 0.000000 
0.585938 24.944660 0.000000 
0.585938 25.266677 0.000000 
0.195312 25.592275 0.000000 
0.195312 25.921651 0.000000 
0.585938 25.592275 0.000000 
0.585938 25.921651 0.000000 
0.195312 26.254725 0.000000 
0.195312 26.591558 0.000000 
0.585938 26.254725 0.000000 
0.585938 26.591558 0.000000 
0.195312 26.931725 0.000000 
0.195312 27.276992 0.000000 
0.585938 26.931725 0.000000 
0.585938 27.276992 0.000000 
0.195312 27.626077 0.000000 
0.195312 27.980149 0.000000 
0.585938 27.626077 0.000000 
0.585938 27.980149 0.000000 
0.195312 28.338394 0.000000 
0.195312 28.702215 0.000000 
0.585938 28.338394 0.000000 
0.585938 28.702215 0.000000 
0.195312 29.070198 0.000000 
0.195312 29.444119 0.000000 
0.585938 29.070198 0.000000 
0.585938 29.444119 0.000000 
0.195312 29.822921 0.000000 
0.195312 30.207883 0.000000 
0.585938 29.822921 0.000000 
0.585938 30.207883 0.000000 

POINT_DATA 256
SCALARS sigma_xx FLOAT 1
LOOKUP_TABLE default
0.000000
0.000000
0.000000
0.000000
0.000000
-0.000000
-0.000000
-0.000000
-0.000000
0.000000
-0.000000
0.000000
0.000000
0.000000
0.000000
0.000000
-0.000000
-0.000000
-0.000000
-0.000000
-0.000000
-0.000000
-0.000000
-0.000000
0.000000
-0.000000
0.000000
-0.000000
-0.000000
-0.000000
-0.000000
-0.000000
0.000000
0.000000
0.000000
0.000000
0.000000
-0.000000
-0.000000
-0.000000
-0.000000
-0.000000
-0.000000
-0.000000
0.000000
0.000000
0.000000
0.000000
0.000000
-0.000000
0.000000
-0.000000
0.000000
-0.000000
0.000000
-0.000000
-0.000000
-0.000000
-0.000000
-0.000000
-0.000000
0.000000
-0.000000
-0.000000
-0.000000
-0.000000
-0.000000
-0.000000
-0.000000
-0.000000
-0.000000
-0.000000
-0.000000
0.000000
-0.000000
0.000000
-0.000000
-0.000000
-0.000000
-0.000000
-0.000000
0.000000
-0.000000
0.000000
-0.000000
-0.000000
-0.000000
-0.000000
-0.000000
0.000000
-0.000000
0.000000
-0.000000
-0.000000
-0.000000
-0.000000
-0.000000
-0.000000
-0.000000
-0.000000
-0.000000
-0.000000
-0.000000
-0.000000
-0.000000
-0.000000
-0.000000
-0.000000
-0.000000
-0.000000
-0.000000
-0.000000
-0.000000
-0.000000
-0.000000
-0.000000
-0.000000
-0.000000
-0.000000
-0.000000
-0.000000
-0.000000
-0.000000
-0.000000
-0.000000
-0.000000
-0.000000
-0.000000
-0.000000
-0.000000
-0.000000
-0.000000
-0.000000
-0.000000
-0.000000
-0.000000
-0.000000
-0.000000
-0.000000
-0.000000
-0.000000
-0.000000
-0.000000
-0.000000
0.000000
-0.000000
0.000000
-0.000000
-0.000000
-0.000000
-0.000000
-0.000000
-0.000000
-0.000000
-0.000000
-0.000000
-0.000000
0.000000
-0.000000
0.000000
-0.000000
-0.000000
0.000000
-0.000000
-0.000000
-0.000000
-0.000000
-0.000000
-0.000000
-0.000000
-0.000000
0.000000
-0.000000
-0.000000
-0.000000
-0.000000
-0.000000
-0.000000
-0.000000
-0.000000
0.000000
-0.000000
0.000000
-0.000000
-0.000000
-0.000000
-0.000000
-0.000000
0.000000
0.000000
0.000000
0.000000
-0.000000
-0.000000
-0.000000
0.000000
0.000000
0.000000
-0.000000
0.000000
-0.000000
-0.000000
-0.000000
-0.000000
-0.000000
-0.000000
-0.000000
-0.000000
-0.000000
-0.000000
-0.000000
-0.000000
-0.000000
-0.000000
-0.000000
-0.000000
-0.000000
-0.000000
-0.000000
-0.000000
-0.000000
-0.000000
-0.000000
-0.000000
-0.000000
0.000000
-0.000000
0.000000
-0.000000
-0.000000
-0.000000
-0.000000
0.000000
-0.000000
-0.000000
-0.000000
-0.000000
-0.000000
-0.000000
-0.000000
-0.000000
-0.000000
-0.000000
-0.000000
0.000000
-0.000000
-0.000000
-0.000000
-0.000000
-0.000000
-0.000000
-0.000000
0.000000
-0.000000
-0.000000
-0.000000

SCALARS sigma_yy FLOAT 1
LOOKUP_TABLE default
-19818.447424
-19818.447424
-19818.447424
-19818.447424
-19661.945088
-19481.193614
-19661.945088
-19481.193614
-19264.608700
-19138.364779
-19264.608700
-19138.364779
-18981.948260
-18843.955796
-18981.948260
-18843.955796
-18659.733497
-18512.696885
-18659.733497
-18512.696885
-18360.147582
-18222.325773
-18360.147582
-18222.325773
-18048.100623
-17891.044507
-18048.100623
-17891.044507
-17727.360316
-17585.805623
-17727.360316
-17585.805623
-17413.278592
-17266.663710
-17413.278592
-17266.663710
-17096.285845
-16962.420199
-17096.285845
-16962.420199
-16786.581411
-16640.767087
-16786.581411
-16640.767087
-16471.893610
-16350.709788
-16471.893610
-16350.709788
-16170.616178
-16023.641436
-16170.616178
-16023.641436
-15842.195792
-15710.407183
-15842.195792
-15710.407183
-15540.833818
-15407.528141
-15540.833818
-15407.528141
-15225.508394
-15091.824447
-15225.508394
-15091.824447
-14919.831752
-14762.440179
-14919.831752
-14762.440179
-14599.760549
-14455.959187
-14599.760549
-14455.959187
-14297.984978
-14143.009150
-14297.984978
-14143.009150
-13990.725787
-13831.174881
-13990.725787
-13831.174881
-13662.517175
-13519.938035
-13662.517175
-13519.938035
-13342.711167
-13206.289216
-13342.711167
-13206.289216
-13029.176149
-12905.022299
-13029.176149
-12905.022299
-12727.579892
-12586.805951
-12727.579892
-12586.805951
-12428.492788
-12271.154756
-12428.492788
-12271.154756
-12114.360818
-11958.934937
-12114.360818
-11958.934937
-11788.661649
-11636.102836
-11788.661649
-11636.102836
-11475.071663
-11335.572321
-11475.071663
-11335.572321
-11166.475327
-11034.795694
-11166.475327
-11034.795694
-10853.433919
-10706.919953
-10853.433919
-10706.919953
-10536.014927
-10385.968930
-10536.014927
-10385.968930
-10227.332626
-10091.915298
-10227.332626
-10091.915298
-9908.056711
-9788.141195
-9908.056711
-9788.141195
-9598.783714
-9463.667833
-9598.783714
-9463.667833
-9278.737280
-9143.281294
-9278.737280
-9143.281294
-8977.364513
-8826.381361
-8977.364513
-8826.381361
-8681.003871
-8520.968117
-8681.003871
-8520.968117
-8363.594772
-8211.691736
-8363.594772
-8211.691736
-8034.399437
-7903.647616
-8034.399437
-7903.647616
-7731.767572
-7566.122388
-7731.767572
-7566.122388
-7429.717455
-7255.279780
-7429.717455
-7255.279780
-7122.941915
-6941.006387
-7122.941915
-6941.006387
-6798.227760
-6646.290673
-6798.227760
-6646.290673
-6480.936422
-6333.900254
-6480.936422
-6333.900254
-6160.127945
-6021.386624
-6160.127945
-6021.386624
-5860.911626
-5700.995827
-5860.911626
-5700.995827
-5553.372753
-5377.339028
-5553.372753
-5377.339028
-5239.298358
-5090.106075
-5239.298358
-5090.106075
-4907.233721
-4781.236074
-4907.233721
-4781.236074
-4587.884720
-4474.681082
-4587.884720
-4474.681082
-4273.900800
-4153.134230
-4273.900800
-4153.134230
-3982.107751
-3837.514206
-3982.107751
-3837.514206
-3669.399502
-3512.384601
-3669.399502
-3512.384601
-3362.639966
-3203.515966
-3362.639966
-3203.515966
-3038.686704
-2889.878650
-3038.686704
-2889.878650
-2736.356060
-2593.423003
-2736.356060
-2593.423003
-2402.758241
-2277.569451
-2402.758241
-2277.569451
-2092.972206
-1957.642153
-2092.972206
-1957.642153
-1777.857632
-1670.623560
-1777.857632
-1670.623560
-1484.388536
-1330.741022
-1484.388536
-1330.741022
-1168.778403
-1017.423055
-1168.778403
-1017.423055
-851.805900
-699.057177
-851.805900
-699.057177
-546.040360
-386.648986
-546.040360
-386.648986
-232.499465
-78.298429
-232.499465
-78.298429

SCALARS sigma_zz FLOAT 1
LOOKUP_TABLE default
0.000000
0.000000
0.000000
0.000000
0.000000
0.000000
0.000000
0.000000
0.000000
0.000000
0.000000
0.000000
0.000000
0.000000
0.000000
0.000000
0.000000
0.000000
0.000000
0.000000
0.000000
0.000000
0.000000
0.000000
0.000000
0.000000
0.000000
0.000000
0.000000
0.000000
0.000000
0.000000
0.000000
0.000000
0.000000
0.000000
0.000000
0.000000
0.000000
0.000000
0.000000
0.000000
0.000000
0.000000
0.000000
0.000000
0.000000
0.000000
0.000000
0.000000
0.000000
0.000000
0.000000
0.000000
0.000000
0.000000
0.000000
0.000000
0.000000
0.000000
0.000000
0.000000
0.000000
0.000000
0.000000
0.000000
0.000000
0.000000
0.000000
0.000000
0.000000
0.000000
0.000000
0.000000
0.000000
0.000000
0.000000
0.000000
0.000000
0.000000
0.000000
0.000000
0.000000
0.000000
0.000000
0.000000
0.000000
0.000000
0.000000
0.000000
0.000000
0.000000
0.000000
0.000000
0.000000
0.000000
0.000000
0.000000
0.000000
0.000000
0.000000
0.000000
0.000000
0.000000
0.000000
0.000000
0.000000
0.000000
0.000000
0.000000
0.000000
0.000000
0.000000
0.000000
0.000000
0.000000
0.000000
0.000000
0.000000
0.000000
0.000000
0.000000
0.000000
0.000000
0.000000
0.000000
0.000000
0.000000
0.000000
0.000000
0.000000
0.000000
0.000000
0.000000
0.000000
0.000000
0.000000
0.000000
0.000000
0.000000
0.000000
0.000000
0.000000
0.000000
0.000000
0.000000
0.000000
0.000000
0.000000
0.000000
0.000000
0.000000
0.000000
0.000000
0.000000
0.000000
0.000000
0.000000
0.000000
0.000000
0.000000
0.000000
0.000000
0.000000
0.000000
0.000000
0.000000
0.000000
0.000000
0.000000
0.000000
0.000000
0.000000
0.000000
0.000000
0.000000
0.000000
0.000000
0.000000
0.000000
0.000000
0.000000
0.000000
0.000000
0.000000
0.000000
0.000000
0.000000
0.000000
0.000000
0.000000
0.000000
0.000000
0.000000
0.000000
0.000000
0.000000
0.000000
0.000000
0.000000
0.000000
0.000000
0.000000
0.000000
0.000000
0.000000
0.000000
0.000000
0.000000
0.000000
0.000000
0.000000
0.000000
0.000000
0.000000
0.000000
0.000000
0.000000
0.000000
0.000000
0.000000
0.000000
0.000000
0.000000
0.000000
0.000000
0.000000
0.000000
0.000000
0.000000
0.000000
0.000000
0.000000
0.000000
0.000000
0.000000
0.000000
0.000000
0.000000
0.000000
0.000000
0.000000
0.000000
0.000000
0.000000
0.000000
0.000000
0.000000
0.000000
0.000000
0.000000
0.000000
0.000000
0.000000
0.000000
0.000000

SCALARS sigma_xy FLOAT 1
LOOKUP_TABLE default
0.000000
0.000000
0.000000
0.000000
0.000000
-0.000000
0.000000
-0.000000
0.000000
0.000000
0.000000
0.000000
0.000000
0.000000
0.000000
0.000000
0.000000
0.000000
0.000000
0.000000
0.000000
0.000000
0.000000
0.000000
0.000000
-0.000000
0.000000
-0.000000
-0.000000
-0.000000
-0.000000
-0.000000
0.000000
0.000000
0.000000
0.000000
0.000000
-0.000000
0.000000
-0.000000
-0.000000
-0.000000
-0.000000
-0.000000
0.000000
0.000000
0.000000
0.000000
0.000000
0.000000
0.000000
0.000000
0.000000
-0.000000
0.000000
-0.000000
0.000000
0.000000
0.000000
0.000000
0.000000
0.000000
0.000000
0.000000
0.000000
-0.000000
0.000000
-0.000000
-0.000000
-0.000000
-0.000000
-0.000000
-0.000000
0.000000
-0.000000
0.000000
0.000000
0.000000
0.000000
0.000000
0.000000
0.000000
0.000000
0.000000
-0.000000
-0.000000
-0.000000
-0.000000
-0.000000
0.000000
-0.000000
0.000000
0.000000
0.000000
0.000000
0.000000
0.000000
-0.000000
0.000000
-0.000000
-0.000000
0.000000
-0.000000
0.000000
0.000000
0.000000
0.000000
0.000000
-0.000000
-0.000000
-0.000000
-0.000000
-0.000000
0.000000
-0.000000
0.000000
0.000000
0.000000
0.000000
0.000000
0.000000
0.000000
0.000000
0.000000
0.000000
-0.000000
0.000000
-0.000000
-0.000000
-0.000000
-0.000000
-0.000000
0.000000
0.000000
0.000000
0.000000
0.000000
0.000000
0.000000
0.000000
0.000000
0.000000
0.000000
0.000000
0.000000
-0.000000
0.000000
-0.000000
0.000000
0.000000
0.000000
0.000000
-0.000000
0.000000
-0.000000
0.000000
0.000000
0.000000
0.000000
0.000000
-0.000000
-0.000000
0.000000
-0.000000
-0.000000
-0.000000
-0.000000
-0.000000
0.000000
0.000000
0.000000
0.000000
-0.000000
-0.000000
-0.000000
-0.000000
0.000000
0.000000
0.000000
0.000000
0.000000
-0.000000
0.000000
-0.000000
-0.000000
0.000000
-0.000000
0.000000
0.000000
0.000000
0.000000
0.000000
0.000000
0.000000
0.000000
0.000000
0.000000
0.000000
-0.000000
0.000000
0.000000
-0.000000
0.000000
-0.000000
-0.000000
-0.000000
-0.000000
-0.000000
0.000000
0.000000
0.000000
0.000000
-0.000000
-0.000000
-0.000000
-0.000000
0.000000
0.000000
0.000000
0.000000
-0.000000
0.000000
-0.000000
0.000000
-0.000000
0.000000
-0.000000
0.000000
0.000000
0.000000
0.000000
0.000000
0.000000
0.000000
-0.000000
0.000000
-0.000000
-0.000000
-0.000000
-0.000000
-0.000000
0.000000
-0.000000
0.000000
0.000000
0.000000
-0.000000
0.000000
0.000000
0.000000
0.000000
0.000000
0.000000
-0.000000
0.000000
-0.000000

SCALARS sigma_yz FLOAT 1
LOOKUP_TABLE default
0.000000
0.000000
0.000000
0.000000
0.000000
0.000000
0.000000
0.000000
0.000000
0.000000
0.000000
0.000000
0.000000
0.000000
0.000000
0.000000
0.000000
0.000000
0.000000
0.000000
0.000000
0.000000
0.000000
0.000000
0.000000
0.000000
0.000000
0.000000
0.000000
0.000000
0.000000
0.000000
0.000000
0.000000
0.000000
0.000000
0.000000
0.000000
0.000000
0.000000
0.000000
0.000000
0.000000
0.000000
0.000000
0.000000
0.000000
0.000000
0.000000
0.000000
0.000000
0.000000
0.000000
0.000000
0.000000
0.000000
0.000000
0.000000
0.000000
0.000000
0.000000
0.000000
0.000000
0.000000
0.000000
0.000000
0.000000
0.000000
0.000000
0.000000
0.000000
0.000000
0.000000
0.000000
0.000000
0.000000
0.000000
0.000000
0.000000
0.000000
0.000000
0.000000
0.000000
0.000000
0.000000
0.000000
0.000000
0.000000
0.000000
0.000000
0.000000
0.000000
0.000000
0.000000
0.000000
0.000000
0.000000
0.000000
0.000000
0.000000
0.000000
0.000000
0.000000
0.000000
0.000000
0.000000
0.000000
0.000000
0.000000
0.000000
0.000000
0.000000
0.000000
0.000000
0.000000
0.000000
0.000000
0.000000
0.000000
0.000000
0.000000
0.000000
0.000000
0.000000
0.000000
0.000000
0.000000
0.000000
0.000000
0.000000
0.000000
0.000000
0.000000
0.000000
0.000000
0.000000
0.000000
0.000000
0.000000
0.000000
0.000000
0.000000
0.000000
0.000000
0.000000
0.000000
0.000000
0.000000
0.000000
0.000000
0.000000
0.000000
0.000000
0.000000
0.000000
0.000000
0.000000
0.000000
0.000000
0.000000
0.000000
0.000000
0.000000
0.000000
0.000000
0.000000
0.000000
0.000000
0.000000
0.000000
0.000000
0.000000
0.000000
0.000000
0.000000
0.000000
0.000000
0.000000
0.000000
0.000000
0.000000
0.000000
0.000000
0.000000
0.000000
0.000000
0.000000
0.000000
0.000000
0.000000
0.000000
0.000000
0.000000
0.000000
0.000000
0.000000
0.000000
0.000000
0.000000
0.000000
0.000000
0.000000
0.000000
0.000000
0.000000
0.000000
0.000000
0.000000
0.000000
0.000000
0.000000
0.000000
0.000000
0.000000
0.000000
0.000000
0.000000
0.000000
0.000000
0.000000
0.000000
0.000000
0.000000
0.000000
0.000000
0.000000
0.000000
0.000000
0.000000
0.000000
0.000000
0.000000
0.000000
0.000000
0.000000
0.000000
0.000000
0.000000
0.000000
0.000000
0.000000
0.000000
0.000000
0.000000
0.000000
0.000000
0.000000
0.000000
0.000000
0.000000
0.000000
0.000000
0.000000
0.000000
0.000000
0.000000

SCALARS sigma_zx FLOAT 1
LOOKUP_TABLE default
0.000000
0.000000
0.000000
0.000000
0.000000
0.000000
0.000000
0.000000
0.000000
0.000000
0.000000
0.000000
0.000000
0.000000
0.000000
0.000000
0.000000
0.000000
0.000000
0.000000
0.000000
0.000000
0.000000
0.000000
0.000000
0.000000
0.000000
0.000000
0.000000
0.000000
0.000000
0.000000
0.000000
0.000000
0.000000
0.000000
0.000000
0.000000
0.000000
0.000000
0.000000
0.000000
0.000000
0.000000
0.000000
0.000000
0.000000
0.000000
0.000000
0.000000
0.000000
0.000000
0.000000
0.000000
0.000000
0.000000
0.000000
0.000000
0.000000
0.000000
0.000000
0.000000
0.000000
0.000000
0.000000
0.000000
0.000000
0.000000
0.000000
0.000000
0.000000
0.000000
0.000000
0.000000
0.000000
0.000000
0.000000
0.000000
0.000000
0.000000
0.000000
0.000000
0.000000
0.000000
0.000000
0.000000
0.000000
0.000000
0.000000
0.000000
0.000000
0.000000
0.000000
0.000000
0.000000
0.000000
0.000000
0.000000
0.000000
0.000000
0.000000
0.000000
0.000000
0.000000
0.000000
0.000000
0.000000
0.000000
0.000000
0.000000
0.000000
0.000000
0.000000
0.000000
0.000000
0.000000
0.000000
0.000000
0.000000
0.000000
0.000000
0.000000
0.000000
0.000000
0.000000
0.000000
0.000000
0.000000
0.000000
0.000000
0.000000
0.000000
0.000000
0.000000
0.000000
0.000000
0.000000
0.000000
0.000000
0.000000
0.000000
0.000000
0.000000
0.000000
0.000000
0.000000
0.000000
0.000000
0.000000
0.000000
0.000000
0.000000
0.000000
0.000000
0.000000
0.000000
0.000000
0.000000
0.000000
0.000000
0.000000
0.000000
0.000000
0.000000
0.000000
0.000000
0.000000
0.000000
0.000000
0.000000
0.000000
0.000000
0.000000
0.000000
0.000000
0.000000
0.000000
0.000000
0.000000
0.000000
0.000000
0.000000
0.000000
0.000000
0.000000
0.000000
0.000000
0.000000
0.000000
0.000000
0.000000
0.000000
0.000000
0.000000
0.000000
0.000000
0.000000
0.000000
0.000000
0.000000
0.000000
0.000000
0.000000
0.000000
0.000000
0.000000
0.000000
0.000000
0.000000
0.000000
0.000000
0.000000
0.000000
0.000000
0.000000
0.000000
0.000000
0.000000
0.000000
0.000000
0.000000
0.000000
0.000000
0.000000
0.000000
0.000000
0.000000
0.000000
0.000000
0.000000
0.000000
0.000000
0.000000
0.000000
0.000000
0.000000
0.000000
0.000000
0.000000
0.000000
0.000000
0.000000
0.000000
0.000000
0.000000
0.000000
0.000000
0.000000
0.000000
0.000000
0.000000
0.000000
0.000000
0.000000
0.000000
0.000000

SCALARS u_x FLOAT 1
LOOKUP_TABLE default
0.000000
0.000000
0.000000
0.000000
0.000000
0.000000
0.000000
0.000000
0.000000
0.000000
0.000000
0.000000
0.000000
0.000000
0.000000
0.000000
0.000000
0.000000
0.000000
0.000000
0.000000
0.000000
0.000000
0.000000
0.000000
0.000000
0.000000
0.000000
0.000000
0.000000
0.000000
0.000000
0.000000
0.000000
0.000000
0.000000
0.000000
0.000000
0.000000
0.000000
0.000000
0.000000
0.000000
0.000000
0.000000
0.000000
0.000000
0.000000
0.000000
0.000000
0.000000
0.000000
0.000000
0.000000
0.000000
0.000000
0.000000
0.000000
0.000000
0.000000
0.000000
0.000000
0.000000
0.000000
0.000000
0.000000
0.000000
0.000000
0.000000
0.000000
0.000000
0.000000
0.000000
0.000000
0.000000
0.000000
0.000000
0.000000
0.000000
0.000000
0.000000
0.000000
0.000000
0.000000
0.000000
0.000000
0.000000
0.000000
0.000000
0.000000
0.000000
0.000000
0.000000
0.000000
0.000000
0.000000
0.000000
0.000000
0.000000
0.000000
0.000000
0.000000
0.000000
0.000000
0.000000
0.000000
0.000000
0.000000
0.000000
0.000000
0.000000
0.000000
0.000000
0.000000
0.000000
0.000000
0.000000
0.000000
0.000000
0.000000
0.000000
0.000000
0.000000
0.000000
0.000000
0.000000
0.000000
0.000000
0.000000
0.000000
0.000000
0.000000
0.000000
0.000000
0.000000
0.000000
0.000000
0.000000
0.000000
0.000000
0.000000
0.000000
0.000000
0.000000
0.000000
0.000000
0.000000
0.000000
0.000000
0.000000
0.000000
0.000000
0.000000
0.000000
0.000000
0.000000
0.000000
0.000000
0.000000
0.000000
0.000000
0.000000
0.000000
0.000000
0.000000
0.000000
0.000000
0.000000
0.000000
0.000000
0.000000
0.000000
0.000000
0.000000
0.000000
0.000000
0.000000
0.000000
0.000000
0.000000
0.000000
0.000000
0.000000
0.000000
0.000000
0.000000
0.000000
0.000000
0.000000
0.000000
0.000000
0.000000
0.000000
0.000000
0.000000
0.000000
0.000000
0.000000
0.000000
0.000000
0.000000
0.000000
0.000000
0.000000
0.000000
0.000000
0.000000
0.000000
0.000000
0.000000
0.000000
0.000000
0.000000
0.000000
0.000000
0.000000
0.000000
0.000000
0.000000
0.000000
0.000000
0.000000
0.000000
0.000000
0.000000
0.000000
0.000000
0.000000
0.000000
0.000000
0.000000
0.000000
0.000000
0.000000
0.000000
0.000000
0.000000
0.000000
0.000000
0.000000
0.000000
0.000000
0.000000
0.000000
0.000000
0.000000
0.000000
0.000000
0.000000
0.000000
0.000000
0.000000
0.000000
0.000000
0.000000
0.000000

SCALARS u_y FLOAT 1
LOOKUP_TABLE default
-0.111701
-0.335102
-0.111701
-0.335102
-0.558272
-0.780683
-0.558272
-0.780683
-1.002353
-1.223286
-1.002353
-1.223286
-1.443699
-1.663498
-1.443699
-1.663498
-1.882646
-2.101069
-1.882646
-2.101069
-2.318901
-2.536098
-2.318901
-2.536098
-2.752649
-2.968463
-2.752649
-2.968463
-3.183589
-3.398049
-3.183589
-3.398049
-3.611819
-3.824866
-3.611819
-3.824866
-4.037176
-4.248804
-4.037176
-4.248804
-4.459692
-4.669855
-4.459692
-4.669855
-4.879257
-5.087992
-4.879257
-5.087992
-5.295960
-5.503161
-5.295960
-5.503161
-5.709519
-5.915158
-5.709519
-5.915158
-6.119980
-6.324040
-6.119980
-6.324040
-6.527320
-6.729768
-6.527320
-6.729768
-6.931389
-7.132105
-6.931389
-7.132105
-7.332058
-7.531062
-7.332058
-7.531062
-7.729285
-7.926616
-7.729285
-7.926616
-8.123115
-8.318705
-8.123115
-8.318705
-8.513302
-8.707110
-8.513302
-8.707110
-8.899814
-9.091699
-8.899814
-9.091699
-9.282552
-9.472550
-9.282552
-9.472550
-9.661564
-9.849584
-9.661564
-9.849584
-10.036670
-10.222659
-10.036670
-10.222659
-10.407716
-10.591701
-10.407716
-10.591701
-10.774557
-10.956411
-10.774557
-10.956411
-11.136998
-11.316679
-11.136998
-11.316679
-11.495213
-11.672705
-11.495213
-11.672705
-11.849057
-12.024174
-11.849057
-12.024174
-12.198109
-12.370758
-12.198109
-12.370758
-12.542319
-12.712674
-12.542319
-12.712674
-12.881696
-13.049613
-12.881696
-13.049613
-13.216139
-13.381427
-13.216139
-13.381427
-13.545385
-13.707786
-13.545385
-13.707786
-13.869062
-14.028768
-13.869062
-14.028768
-14.187259
-14.344315
-14.187259
-14.344315
-14.499893
-14.653997
-14.499893
-14.653997
-14.806521
-14.957566
-14.806521
-14.957566
-15.107132
-15.254882
-15.107132
-15.254882
-15.401188
-15.545696
-15.401188
-15.545696
-15.688751
-15.830067
-15.688751
-15.830067
-15.969387
-16.107379
-15.969387
-16.107379
-16.243228
-16.377480
-16.243228
-16.377480
-16.509657
-16.640052
-16.509657
-16.640052
-16.768425
-16.894844
-16.768425
-16.894844
-17.019258
-17.141534
-17.019258
-17.141534
-17.261588
-17.379938
-17.261588
-17.379938
-17.495564
-17.609298
-17.495564
-17.609298
-17.720356
-17.829393
-17.720356
-17.829393
-17.935846
-18.039693
-17.935846
-18.039693
-18.141294
-18.240119
-18.141294
-18.240119
-18.336450
-18.429653
-18.336450
-18.429653
-18.520429
-18.608256
-18.520429
-18.608256
-18.692874
-18.774618
-18.692874
-18.774618
-18.853119
-18.928786
-18.853119
-18.928786
-19.000652
-19.069260
-19.000652
-19.069260
-19.134288
-19.195537
-19.134288
-19.195537
-19.253088
-19.306879
-19.253088
-19.306879
-19.357338
-19.402695
-19.357338
-19.402695
-19.444235
-19.480788
-19.444235
-19.480788
-19.513168
-19.539973
-19.513168
-19.539973
-19.562615
-19.579319
-19.562615
-19.579319
-19.591142
-19.596805
-19.591142
-19.596805

