# vtk DataFile Version 2.0
MATLAB generated vtk file, WMC
ASCII
DATASET UNSTRUCTURED_GRID
POINTS 128 double
0.781250 0.781250 0.714969 
0.781250 0.781250 2.144907 
0.781250 2.343750 0.714969 
0.781250 2.343750 2.144907 
2.343750 0.781250 0.714969 
2.343750 0.781250 2.144907 
2.343750 2.343750 0.714969 
2.343750 2.343750 2.144907 
0.781250 0.781250 3.578630 
0.781250 0.781250 5.016139 
0.781250 2.343750 3.578630 
0.781250 2.343750 5.016139 
2.343750 0.781250 3.578630 
2.343750 0.781250 5.016139 
2.343750 2.343750 3.578630 
2.343750 2.343750 5.016139 
0.781250 0.781250 6.457492 
0.781250 0.781250 7.902690 
0.781250 2.343750 6.457492 
0.781250 2.343750 7.902690 
2.343750 0.781250 6.457492 
2.343750 0.781250 7.902690 
2.343750 2.343750 6.457492 
2.343750 2.343750 7.902690 
0.781250 0.781250 9.351794 
0.781250 0.781250 10.804803 
0.781250 2.343750 9.351794 
0.781250 2.343750 10.804803 
2.343750 0.781250 9.351794 
2.343750 0.781250 10.804803 
2.343750 2.343750 9.351794 
2.343750 2.343750 10.804803 
0.781250 0.781250 12.261780 
0.781250 0.781250 13.722725 
0.781250 2.343750 12.261780 
0.781250 2.343750 13.722725 
2.343750 0.781250 12.261780 
2.343750 0.781250 13.722725 
2.343750 2.343750 12.261780 
2.343750 2.343750 13.722725 
0.781250 0.781250 15.187703 
0.781250 0.781250 16.656713 
0.781250 2.343750 15.187703 
0.781250 2.343750 16.656713 
2.343750 0.781250 15.187703 
2.343750 0.781250 16.656713 
2.343750 2.343750 15.187703 
2.343750 2.343750 16.656713 
0.781250 0.781250 18.129821 
0.781250 0.781250 19.607029 
0.781250 2.343750 18.129821 
0.781250 2.343750 19.607029 
2.343750 0.781250 18.129821 
2.343750 0.781250 19.607029 
2.343750 2.343750 18.129821 
2.343750 2.343750 19.607029 
0.781250 0.781250 21.088402 
0.781250 0.781250 22.573943 
0.781250 2.343750 21.088402 
0.781250 2.343750 22.573943 
2.343750 0.781250 21.088402 
2.343750 0.781250 22.573943 
2.343750 2.343750 21.088402 
2.343750 2.343750 22.573943 
0.781250 0.781250 24.063720 
0.781250 0.781250 25.557735 
0.781250 2.343750 24.063720 
0.781250 2.343750 25.557735 
2.343750 0.781250 24.063720 
2.343750 0.781250 25.557735 
2.343750 2.343750 24.063720 
2.343750 2.343750 25.557735 
0.781250 0.781250 27.056058 
0.781250 0.781250 28.558691 
0.781250 2.343750 27.056058 
0.781250 2.343750 28.558691 
2.343750 0.781250 27.056058 
2.343750 0.781250 28.558691 
2.343750 2.343750 27.056058 
2.343750 2.343750 28.558691 
0.781250 0.781250 30.065707 
0.781250 0.781250 31.577107 
0.781250 2.343750 30.065707 
0.781250 2.343750 31.577107 
2.343750 0.781250 30.065707 
2.343750 0.781250 31.577107 
2.343750 2.343750 30.065707 
2.343750 2.343750 31.577107 
0.781250 0.781250 33.092967 
0.781250 0.781250 34.613288 
0.781250 2.343750 33.092967 
0.781250 2.343750 34.613288 
2.343750 0.781250 33.092967 
2.343750 0.781250 34.613288 
2.343750 2.343750 33.092967 
2.343750 2.343750 34.613288 
0.781250 0.781250 36.138148 
0.781250 0.781250 37.667548 
0.781250 2.343750 36.138148 
0.781250 2.343750 37.667548 
2.343750 0.781250 36.138148 
2.343750 0.781250 37.667548 
2.343750 2.343750 36.138148 
2.343750 2.343750 37.667548 
0.781250 0.781250 39.201570 
0.781250 0.781250 40.740213 
0.781250 2.343750 39.201570 
0.781250 2.343750 40.740213 
2.343750 0.781250 39.201570 
2.343750 0.781250 40.740213 
2.343750 2.343750 39.201570 
2.343750 2.343750 40.740213 
0.781250 0.781250 42.283561 
0.781250 0.781250 43.831615 
0.781250 2.343750 42.283561 
0.781250 2.343750 43.831615 
2.343750 0.781250 42.283561 
2.343750 0.781250 43.831615 
2.343750 2.343750 42.283561 
2.343750 2.343750 43.831615 
0.781250 0.781250 45.384462 
0.781250 0.781250 46.942102 
0.781250 2.343750 45.384462 
0.781250 2.343750 46.942102 
2.343750 0.781250 45.384462 
2.343750 0.781250 46.942102 
2.343750 2.343750 45.384462 
2.343750 2.343750 46.942102 

POINT_DATA 128
SCALARS sigma_xx FLOAT 1
LOOKUP_TABLE default
0.000000
-0.000000
0.000000
0.000000
-0.000000
-0.000000
0.000000
0.000000
0.000000
0.000000
-0.000000
0.000000
0.000000
0.000000
-0.000000
-0.000000
0.000000
-0.000000
0.000000
0.000000
0.000000
0.000000
0.000000
0.000000
0.000000
0.000000
0.000000
-0.000000
0.000000
0.000000
0.000000
0.000000
0.000000
0.000000
0.000000
0.000000
0.000000
0.000000
0.000000
0.000000
0.000000
0.000000
0.000000
0.000000
0.000000
0.000000
0.000000
0.000000
0.000000
-0.000000
0.000000
0.000000
0.000000
-0.000000
-0.000000
0.000000
0.000000
0.000000
-0.000000
0.000000
0.000000
-0.000000
0.000000
0.000000
0.000000
-0.000000
0.000000
0.000000
0.000000
0.000000
0.000000
0.000000
-0.000000
-0.000000
-0.000000
-0.000000
-0.000000
0.000000
0.000000
0.000000
0.000000
-0.000000
-0.000000
0.000000
0.000000
-0.000000
-0.000000
0.000000
0.000000
0.000000
0.000000
0.000000
0.000000
0.000000
0.000000
0.000000
0.000000
0.000000
0.000000
0.000000
-0.000000
0.000000
0.000000
-0.000000
-0.000000
-0.000000
0.000000
-0.000000
0.000000
0.000000
-0.000000
0.000000
0.000000
-0.000000
-0.000000
0.000000
-0.000000
0.000000
-0.000000
0.000000
-0.000000
0.000000
-0.000000
0.000000
-0.000000
-0.000000
-0.000000
-0.000000

SCALARS sigma_yy FLOAT 1
LOOKUP_TABLE default
0.000000
-0.000000
0.000000
0.000000
-0.000000
-0.000000
0.000000
0.000000
0.000000
0.000000
-0.000000
0.000000
0.000000
0.000000
-0.000000
-0.000000
0.000000
-0.000000
0.000000
0.000000
0.000000
0.000000
0.000000
0.000000
0.000000
0.000000
0.000000
-0.000000
0.000000
0.000000
0.000000
0.000000
0.000000
0.000000
0.000000
0.000000
0.000000
0.000000
0.000000
0.000000
0.000000
0.000000
0.000000
0.000000
0.000000
0.000000
0.000000
0.000000
0.000000
-0.000000
0.000000
0.000000
0.000000
-0.000000
-0.000000
0.000000
0.000000
0.000000
-0.000000
0.000000
0.000000
-0.000000
0.000000
0.000000
0.000000
-0.000000
0.000000
0.000000
0.000000
0.000000
0.000000
0.000000
-0.000000
-0.000000
-0.000000
-0.000000
-0.000000
0.000000
0.000000
0.000000
0.000000
-0.000000
-0.000000
0.000000
0.000000
-0.000000
-0.000000
0.000000
0.000000
0.000000
0.000000
0.000000
0.000000
0.000000
0.000000
0.000000
0.000000
0.000000
0.000000
0.000000
-0.000000
0.000000
0.000000
-0.000000
-0.000000
-0.000000
0.000000
-0.000000
0.000000
0.000000
-0.000000
0.000000
0.000000
-0.000000
-0.000000
0.000000
-0.000000
0.000000
-0.000000
0.000000
-0.000000
0.000000
-0.000000
0.000000
-0.000000
-0.000000
-0.000000
-0.000000

SCALARS sigma_zz FLOAT 1
LOOKUP_TABLE default
-968.750000
-968.750000
-968.750000
-968.750000
-968.750000
-968.750000
-968.750000
-968.750000
-906.250000
-906.250000
-906.250000
-906.250000
-906.250000
-906.250000
-906.250000
-906.250000
-843.750000
-843.750000
-843.750000
-843.750000
-843.750000
-843.750000
-843.750000
-843.750000
-781.250000
-781.250000
-781.250000
-781.250000
-781.250000
-781.250000
-781.250000
-781.250000
-718.750000
-718.750000
-718.750000
-718.750000
-718.750000
-718.750000
-718.750000
-718.750000
-656.250000
-656.250000
-656.250000
-656.250000
-656.250000
-656.250000
-656.250000
-656.250000
-593.750000
-593.750000
-593.750000
-593.750000
-593.750000
-593.750000
-593.750000
-593.750000
-531.250000
-531.250000
-531.250000
-531.250000
-531.250000
-531.250000
-531.250000
-531.250000
-468.750000
-468.750000
-468.750000
-468.750000
-468.750000
-468.750000
-468.750000
-468.750000
-406.250000
-406.250000
-406.250000
-406.250000
-406.250000
-406.250000
-406.250000
-406.250000
-343.750000
-343.750000
-343.750000
-343.750000
-343.750000
-343.750000
-343.750000
-343.750000
-281.250000
-281.250000
-281.250000
-281.250000
-281.250000
-281.250000
-281.250000
-281.250000
-218.750000
-218.750000
-218.750000
-218.750000
-218.750000
-218.750000
-218.750000
-218.750000
-156.250000
-156.250000
-156.250000
-156.250000
-156.250000
-156.250000
-156.250000
-156.250000
-93.750000
-93.750000
-93.750000
-93.750000
-93.750000
-93.750000
-93.750000
-93.750000
-31.250000
-31.250000
-31.250000
-31.250000
-31.250000
-31.250000
-31.250000
-31.250000

SCALARS sigma_xy FLOAT 1
LOOKUP_TABLE default
0.000000
-0.000000
0.000000
0.000000
0.000000
0.000000
0.000000
0.000000
0.000000
0.000000
0.000000
0.000000
0.000000
0.000000
-0.000000
0.000000
0.000000
0.000000
0.000000
0.000000
0.000000
0.000000
0.000000
0.000000
0.000000
0.000000
0.000000
-0.000000
0.000000
0.000000
0.000000
0.000000
0.000000
0.000000
0.000000
0.000000
0.000000
0.000000
0.000000
0.000000
0.000000
0.000000
0.000000
0.000000
0.000000
0.000000
0.000000
-0.000000
0.000000
0.000000
0.000000
0.000000
0.000000
0.000000
-0.000000
0.000000
0.000000
0.000000
-0.000000
0.000000
0.000000
-0.000000
0.000000
0.000000
0.000000
0.000000
0.000000
0.000000
0.000000
0.000000
0.000000
0.000000
0.000000
0.000000
0.000000
0.000000
-0.000000
0.000000
0.000000
0.000000
0.000000
0.000000
-0.000000
0.000000
0.000000
-0.000000
0.000000
0.000000
0.000000
0.000000
0.000000
0.000000
0.000000
0.000000
0.000000
0.000000
0.000000
0.000000
0.000000
0.000000
-0.000000
0.000000
0.000000
-0.000000
0.000000
-0.000000
0.000000
0.000000
0.000000
0.000000
-0.000000
0.000000
0.000000
0.000000
0.000000
0.000000
0.000000
-0.000000
0.000000
0.000000
-0.000000
0.000000
0.000000
0.000000
0.000000
0.000000
-0.000000
0.000000

SCALARS sigma_yz FLOAT 1
LOOKUP_TABLE default
0.000000
0.000000
0.000000
0.000000
0.000000
0.000000
0.000000
0.000000
0.000000
0.000000
0.000000
0.000000
0.000000
0.000000
0.000000
0.000000
0.000000
0.000000
0.000000
0.000000
0.000000
0.000000
0.000000
0.000000
0.000000
0.000000
0.000000
0.000000
0.000000
0.000000
0.000000
0.000000
0.000000
0.000000
0.000000
0.000000
0.000000
0.000000
0.000000
0.000000
0.000000
0.000000
0.000000
0.000000
0.000000
0.000000
0.000000
0.000000
0.000000
0.000000
0.000000
0.000000
0.000000
0.000000
0.000000
0.000000
0.000000
0.000000
0.000000
0.000000
0.000000
0.000000
0.000000
0.000000
0.000000
0.000000
0.000000
0.000000
0.000000
0.000000
0.000000
0.000000
0.000000
0.000000
0.000000
0.000000
0.000000
0.000000
0.000000
0.000000
0.000000
0.000000
0.000000
0.000000
0.000000
0.000000
0.000000
0.000000
0.000000
0.000000
0.000000
0.000000
0.000000
0.000000
0.000000
0.000000
0.000000
0.000000
0.000000
0.000000
0.000000
0.000000
0.000000
0.000000
0.000000
-0.000000
0.000000
-0.000000
0.000000
0.000000
0.000000
0.000000
0.000000
0.000000
-0.000000
0.000000
0.000000
0.000000
0.000000
0.000000
0.000000
0.000000
0.000000
0.000000
-0.000000
-0.000000
-0.000000
-0.000000

SCALARS sigma_zx FLOAT 1
LOOKUP_TABLE default
0.000000
0.000000
0.000000
0.000000
0.000000
0.000000
0.000000
0.000000
0.000000
0.000000
0.000000
0.000000
0.000000
0.000000
0.000000
0.000000
0.000000
0.000000
0.000000
0.000000
0.000000
0.000000
0.000000
0.000000
0.000000
0.000000
0.000000
0.000000
0.000000
0.000000
0.000000
0.000000
0.000000
0.000000
0.000000
0.000000
0.000000
0.000000
0.000000
0.000000
0.000000
0.000000
0.000000
0.000000
0.000000
0.000000
0.000000
0.000000
0.000000
0.000000
0.000000
0.000000
0.000000
0.000000
0.000000
0.000000
0.000000
0.000000
0.000000
0.000000
0.000000
0.000000
0.000000
0.000000
0.000000
0.000000
0.000000
0.000000
0.000000
0.000000
0.000000
0.000000
-0.000000
0.000000
-0.000000
0.000000
0.000000
0.000000
0.000000
0.000000
0.000000
0.000000
0.000000
0.000000
0.000000
0.000000
-0.000000
0.000000
0.000000
0.000000
0.000000
0.000000
0.000000
0.000000
0.000000
0.000000
0.000000
0.000000
0.000000
0.000000
0.000000
0.000000
0.000000
0.000000
0.000000
-0.000000
0.000000
0.000000
0.000000
0.000000
0.000000
0.000000
0.000000
0.000000
0.000000
0.000000
0.000000
0.000000
0.000000
0.000000
0.000000
0.000000
-0.000000
0.000000
0.000000
0.000000
-0.000000
0.000000

SCALARS u_x FLOAT 1
LOOKUP_TABLE default
0.000000
0.000000
0.000000
0.000000
0.000000
0.000000
0.000000
0.000000
0.000000
0.000000
0.000000
0.000000
0.000000
0.000000
0.000000
0.000000
0.000000
0.000000
0.000000
0.000000
0.000000
0.000000
0.000000
0.000000
0.000000
0.000000
0.000000
0.000000
0.000000
0.000000
0.000000
0.000000
0.000000
0.000000
0.000000
0.000000
0.000000
0.000000
0.000000
0.000000
0.000000
0.000000
0.000000
0.000000
0.000000
0.000000
0.000000
0.000000
0.000000
0.000000
0.000000
0.000000
0.000000
0.000000
0.000000
0.000000
0.000000
0.000000
0.000000
0.000000
0.000000
0.000000
0.000000
0.000000
0.000000
0.000000
0.000000
0.000000
0.000000
0.000000
0.000000
0.000000
0.000000
0.000000
0.000000
0.000000
0.000000
0.000000
0.000000
0.000000
0.000000
0.000000
0.000000
0.000000
0.000000
0.000000
0.000000
0.000000
0.000000
0.000000
0.000000
0.000000
0.000000
0.000000
0.000000
0.000000
0.000000
0.000000
0.000000
0.000000
0.000000
0.000000
0.000000
0.000000
0.000000
0.000000
0.000000
0.000000
0.000000
0.000000
0.000000
0.000000
0.000000
0.000000
0.000000
0.000000
0.000000
0.000000
0.000000
0.000000
0.000000
0.000000
0.000000
0.000000
0.000000
0.000000
0.000000
0.000000

SCALARS u_y FLOAT 1
LOOKUP_TABLE default
0.000000
0.000000
0.000000
0.000000
0.000000
0.000000
0.000000
0.000000
0.000000
0.000000
0.000000
0.000000
0.000000
0.000000
0.000000
0.000000
0.000000
0.000000
0.000000
0.000000
0.000000
0.000000
0.000000
0.000000
0.000000
0.000000
0.000000
0.000000
0.000000
0.000000
0.000000
0.000000
0.000000
0.000000
0.000000
0.000000
0.000000
0.000000
0.000000
0.000000
0.000000
0.000000
0.000000
0.000000
0.000000
0.000000
0.000000
0.000000
0.000000
0.000000
0.000000
0.000000
0.000000
0.000000
0.000000
0.000000
0.000000
0.000000
0.000000
0.000000
0.000000
0.000000
0.000000
0.000000
0.000000
0.000000
0.000000
0.000000
0.000000
0.000000
0.000000
0.000000
0.000000
0.000000
0.000000
0.000000
0.000000
0.000000
0.000000
0.000000
0.000000
0.000000
0.000000
0.000000
0.000000
0.000000
0.000000
0.000000
0.000000
0.000000
0.000000
0.000000
0.000000
0.000000
0.000000
0.000000
0.000000
0.000000
0.000000
0.000000
0.000000
0.000000
0.000000
0.000000
0.000000
0.000000
0.000000
0.000000
0.000000
0.000000
0.000000
0.000000
0.000000
0.000000
0.000000
0.000000
0.000000
0.000000
0.000000
0.000000
0.000000
0.000000
0.000000
0.000000
0.000000
0.000000
0.000000
0.000000

SCALARS u_z FLOAT 1
LOOKUP_TABLE default
-0.066281
-0.198843
-0.066281
-0.198843
-0.066281
-0.198843
-0.066281
-0.198843
-0.327620
-0.452611
-0.327620
-0.452611
-0.327620
-0.452611
-0.327620
-0.452611
-0.573758
-0.691060
-0.573758
-0.691060
-0.573758
-0.691060
-0.573758
-0.691060
-0.804456
-0.913947
-0.804456
-0.913947
-0.804456
-0.913947
-0.804456
-0.913947
-1.019470
-1.121025
-1.019470
-1.121025
-1.019470
-1.121025
-1.019470
-1.121025
-1.218547
-1.312037
-1.218547
-1.312037
-1.218547
-1.312037
-1.218547
-1.312037
-1.401429
-1.486721
-1.401429
-1.486721
-1.401429
-1.486721
-1.401429
-1.486721
-1.567848
-1.644807
-1.567848
-1.644807
-1.567848
-1.644807
-1.567848
-1.644807
-1.717530
-1.786015
-1.717530
-1.786015
-1.717530
-1.786015
-1.717530
-1.786015
-1.850192
-1.910059
-1.850192
-1.910059
-1.850192
-1.910059
-1.850192
-1.910059
-1.965543
-2.016643
-1.965543
-2.016643
-1.965543
-2.016643
-1.965543
-2.016643
-2.063283
-2.105462
-2.063283
-2.105462
-2.063283
-2.105462
-2.063283
-2.105462
-2.143102
-2.176202
-2.143102
-2.176202
-2.143102
-2.176202
-2.143102
-2.176202
-2.204680
-2.228537
-2.204680
-2.228537
-2.204680
-2.228537
-2.204680
-2.228537
-2.247689
-2.262135
-2.247689
-2.262135
-2.247689
-2.262135
-2.247689
-2.262135
-2.271788
-2.276648
-2.271788
-2.276648
-2.271788
-2.276648
-2.271788
-2.276648

