# vtk DataFile Version 2.0
MATLAB generated vtk file, WMC
ASCII
DATASET UNSTRUCTURED_GRID
POINTS 128 double
0.781250 0.781250 0.299605 
0.781250 0.781250 0.898815 
0.781250 2.343750 0.299605 
0.781250 2.343750 0.898815 
2.343750 0.781250 0.299605 
2.343750 0.781250 0.898815 
2.343750 2.343750 0.299605 
2.343750 2.343750 0.898815 
0.781250 0.781250 1.501456 
0.781250 0.781250 2.115702 
0.781250 2.343750 1.501456 
0.781250 2.343750 2.115702 
2.343750 0.781250 1.501456 
2.343750 0.781250 2.115702 
2.343750 2.343750 1.501456 
2.343750 2.343750 2.115702 
0.781250 0.781250 2.741679 
0.781250 0.781250 3.381164 
0.781250 2.343750 2.741679 
0.781250 2.343750 3.381164 
2.343750 0.781250 2.741679 
2.343750 0.781250 3.381164 
2.343750 2.343750 2.741679 
2.343750 2.343750 3.381164 
0.781250 0.781250 4.030413 
0.781250 0.781250 4.690856 
0.781250 2.343750 4.030413 
0.781250 2.343750 4.690856 
2.343750 0.781250 4.030413 
2.343750 0.781250 4.690856 
2.343750 2.343750 4.030413 
2.343750 2.343750 4.690856 
0.781250 0.781250 5.363695 
0.781250 0.781250 6.051063 
0.781250 2.343750 5.363695 
0.781250 2.343750 6.051063 
2.343750 0.781250 5.363695 
2.343750 0.781250 6.051063 
2.343750 2.343750 5.363695 
2.343750 2.343750 6.051063 
0.781250 0.781250 6.752754 
0.781250 0.781250 7.468435 
0.781250 2.343750 6.752754 
0.781250 2.343750 7.468435 
2.343750 0.781250 6.752754 
2.343750 0.781250 7.468435 
2.343750 2.343750 6.752754 
2.343750 2.343750 7.468435 
0.781250 0.781250 8.198898 
0.781250 0.781250 8.945972 
0.781250 2.343750 8.198898 
0.781250 2.343750 8.945972 
2.343750 0.781250 8.198898 
2.343750 0.781250 8.945972 
2.343750 2.343750 8.198898 
2.343750 2.343750 8.945972 
0.781250 0.781250 9.710836 
0.781250 0.781250 10.493554 
0.781250 2.343750 9.710836 
0.781250 2.343750 10.493554 
2.343750 0.781250 9.710836 
2.343750 0.781250 10.493554 
2.343750 2.343750 9.710836 
2.343750 2.343750 10.493554 
0.781250 0.781250 11.294130 
0.781250 0.781250 12.116354 
0.781250 2.343750 11.294130 
0.781250 2.343750 12.116354 
2.343750 0.781250 11.294130 
2.343750 0.781250 12.116354 
2.343750 2.343750 11.294130 
2.343750 2.343750 12.116354 
0.781250 0.781250 12.962283 
0.781250 0.781250 13.830657 
0.781250 2.343750 12.962283 
0.781250 2.343750 13.830657 
2.343750 0.781250 12.962283 
2.343750 0.781250 13.830657 
2.343750 2.343750 12.962283 
2.343750 2.343750 13.830657 
0.781250 0.781250 14.724298 
0.781250 0.781250 15.647323 
0.781250 2.343750 14.724298 
0.781250 2.343750 15.647323 
2.343750 0.781250 14.724298 
2.343750 0.781250 15.647323 
2.343750 2.343750 14.724298 
2.343750 2.343750 15.647323 
0.781250 0.781250 16.599552 
0.781250 0.781250 17.583446 
0.781250 2.343750 16.599552 
0.781250 2.343750 17.583446 
2.343750 0.781250 16.599552 
2.343750 0.781250 17.583446 
2.343750 2.343750 16.599552 
2.343750 2.343750 17.583446 
0.781250 0.781250 18.605109 
0.781250 0.781250 19.669070 
0.781250 2.343750 18.605109 
0.781250 2.343750 19.669070 
2.343750 0.781250 18.605109 
2.343750 0.781250 19.669070 
2.343750 2.343750 18.605109 
2.343750 2.343750 19.669070 
0.781250 0.781250 20.776645 
0.781250 0.781250 21.928710 
0.781250 2.343750 20.776645 
0.781250 2.343750 21.928710 
2.343750 0.781250 20.776645 
2.343750 0.781250 21.928710 
2.343750 2.343750 20.776645 
2.343750 2.343750 21.928710 
0.781250 0.781250 23.132721 
0.781250 0.781250 24.425743 
0.781250 2.343750 23.132721 
0.781250 2.343750 24.425743 
2.343750 0.781250 23.132721 
2.343750 0.781250 24.425743 
2.343750 2.343750 23.132721 
2.343750 2.343750 24.425743 
0.781250 0.781250 25.776593 
0.781250 0.781250 27.168134 
0.781250 2.343750 25.776593 
0.781250 2.343750 27.168134 
2.343750 0.781250 25.776593 
2.343750 0.781250 27.168134 
2.343750 2.343750 25.776593 
2.343750 2.343750 27.168134 

POINT_DATA 128
SCALARS sigma_xx FLOAT 1
LOOKUP_TABLE default
0.000000
-0.000000
0.000000
-0.000000
0.000000
0.000000
0.000000
-0.000000
-0.000000
-0.000000
0.000000
-0.000000
-0.000000
-0.000000
0.000000
-0.000000
-0.000000
0.000000
-0.000000
-0.000000
0.000000
-0.000000
-0.000000
0.000000
-0.000000
-0.000000
0.000000
0.000000
-0.000000
0.000000
0.000000
0.000000
0.000000
-0.000000
0.000000
-0.000000
-0.000000
0.000000
-0.000000
0.000000
-0.000000
-0.000000
-0.000000
-0.000000
-0.000000
0.000000
-0.000000
-0.000000
0.000000
-0.000000
-0.000000
-0.000000
0.000000
-0.000000
-0.000000
-0.000000
-0.000000
-0.000000
-0.000000
-0.000000
-0.000000
-0.000000
-0.000000
-0.000000
0.000000
0.000000
-0.000000
-0.000000
-0.000000
-0.000000
-0.000000
-0.000000
-0.000000
0.000000
-0.000000
-0.000000
-0.000000
0.000000
0.000000
0.000000
-0.000000
-0.000000
-0.000000
0.000000
-0.000000
-0.000000
0.000000
0.000000
0.000000
0.000000
0.000000
-0.000000
0.000000
0.000000
0.000000
-0.000000
-0.000000
0.000000
-0.000000
-0.000000
0.000000
-0.000000
0.000000
0.000000
-0.000000
-0.000000
0.000000
-0.000000
-0.000000
0.000000
0.000000
-0.000000
0.000000
-0.000000
-0.000000
-0.000000
-0.000000
0.000000
0.000000
0.000000
0.000000
-0.000000
-0.000000
-0.000000
0.000000
0.000000
-0.000000
0.000000

SCALARS sigma_yy FLOAT 1
LOOKUP_TABLE default
0.000000
-0.000000
-0.000000
-0.000000
-0.000000
0.000000
-0.000000
0.000000
0.000000
-0.000000
0.000000
0.000000
-0.000000
0.000000
0.000000
0.000000
-0.000000
-0.000000
-0.000000
0.000000
0.000000
-0.000000
-0.000000
-0.000000
0.000000
-0.000000
0.000000
-0.000000
-0.000000
-0.000000
-0.000000
-0.000000
0.000000
0.000000
0.000000
-0.000000
-0.000000
-0.000000
-0.000000
-0.000000
-0.000000
-0.000000
0.000000
0.000000
-0.000000
-0.000000
0.000000
0.000000
0.000000
-0.000000
0.000000
-0.000000
0.000000
0.000000
-0.000000
0.000000
0.000000
0.000000
-0.000000
-0.000000
-0.000000
-0.000000
-0.000000
0.000000
0.000000
-0.000000
0.000000
-0.000000
-0.000000
-0.000000
0.000000
-0.000000
-0.000000
0.000000
0.000000
-0.000000
-0.000000
0.000000
0.000000
-0.000000
0.000000
-0.000000
-0.000000
-0.000000
0.000000
-0.000000
0.000000
0.000000
-0.000000
0.000000
-0.000000
-0.000000
-0.000000
-0.000000
-0.000000
-0.000000
0.000000
0.000000
-0.000000
-0.000000
-0.000000
-0.000000
0.000000
0.000000
-0.000000
-0.000000
0.000000
0.000000
-0.000000
0.000000
0.000000
0.000000
0.000000
-0.000000
0.000000
0.000000
-0.000000
-0.000000
0.000000
-0.000000
-0.000000
0.000000
-0.000000
-0.000000
0.000000
-0.000000
-0.000000
0.000000

SCALARS sigma_zz FLOAT 1
LOOKUP_TABLE default
-24992.025159
-24992.025159
-24992.025159
-24992.025159
-24992.025159
-24992.025159
-24992.025159
-24992.025159
-24229.397038
-23341.140515
-24229.397038
-23341.140515
-24229.397038
-23341.140515
-24229.397038
-23341.140515
-22264.163184
-21499.464508
-22264.163184
-21499.464508
-22264.163184
-21499.464508
-22264.163184
-21499.464508
-20737.418968
-20007.787426
-20737.418968
-20007.787426
-20737.418968
-20007.787426
-20737.418968
-20007.787426
-19101.969830
-18256.690326
-19101.969830
-18256.690326
-19101.969830
-18256.690326
-19101.969830
-18256.690326
-17406.229757
-16688.303052
-17406.229757
-16688.303052
-17406.229757
-16688.303052
-17406.229757
-16688.303052
-15850.108271
-15017.566204
-15850.108271
-15017.566204
-15850.108271
-15017.566204
-15850.108271
-15017.566204
-14174.250598
-13453.904919
-14174.250598
-13453.904919
-14174.250598
-13453.904919
-14174.250598
-13453.904919
-12612.934265
-11792.809387
-12612.934265
-11792.809387
-12612.934265
-11792.809387
-12612.934265
-11792.809387
-10925.799202
-10193.726819
-10925.799202
-10193.726819
-10925.799202
-10193.726819
-10925.799202
-10193.726819
-9334.387428
-8511.989316
-9334.387428
-8511.989316
-9334.387428
-8511.989316
-9334.387428
-8511.989316
-7740.192765
-6950.011651
-7740.192765
-6950.011651
-7740.192765
-6950.011651
-7740.192765
-6950.011651
-6029.977601
-5266.800446
-6029.977601
-5266.800446
-6029.977601
-5266.800446
-6029.977601
-5266.800446
-4460.862862
-3828.069603
-4460.862862
-3828.069603
-4460.862862
-3828.069603
-4460.862862
-3828.069603
-2834.319045
-1910.697487
-2834.319045
-1910.697487
-2834.319045
-1910.697487
-2834.319045
-1910.697487
-1539.824054
-49.621573
-1539.824054
-49.621573
-1539.824054
-49.621573
-1539.824054
-49.621573

SCALARS sigma_xy FLOAT 1
LOOKUP_TABLE default
-0.000000
-0.000000
0.000000
-0.000000
-0.000000
-0.000000
0.000000
0.000000
0.000000
0.000000
0.000000
0.000000
-0.000000
-0.000000
0.000000
0.000000
0.000000
-0.000000
-0.000000
-0.000000
-0.000000
0.000000
-0.000000
-0.000000
-0.000000
0.000000
0.000000
-0.000000
0.000000
-0.000000
-0.000000
0.000000
-0.000000
-0.000000
-0.000000
0.000000
0.000000
0.000000
0.000000
0.000000
0.000000
-0.000000
0.000000
-0.000000
0.000000
-0.000000
0.000000
-0.000000
0.000000
-0.000000
0.000000
-0.000000
-0.000000
-0.000000
0.000000
0.000000
0.000000
-0.000000
-0.000000
0.000000
0.000000
0.000000
0.000000
-0.000000
0.000000
-0.000000
0.000000
-0.000000
-0.000000
0.000000
0.000000
-0.000000
0.000000
0.000000
-0.000000
-0.000000
-0.000000
0.000000
-0.000000
0.000000
0.000000
-0.000000
-0.000000
-0.000000
-0.000000
0.000000
-0.000000
-0.000000
0.000000
-0.000000
0.000000
-0.000000
0.000000
-0.000000
0.000000
-0.000000
0.000000
-0.000000
0.000000
0.000000
-0.000000
-0.000000
-0.000000
-0.000000
0.000000
0.000000
0.000000
-0.000000
0.000000
0.000000
-0.000000
-0.000000
0.000000
0.000000
0.000000
0.000000
0.000000
0.000000
0.000000
-0.000000
0.000000
0.000000
0.000000
0.000000
0.000000
0.000000
0.000000
-0.000000

SCALARS sigma_yz FLOAT 1
LOOKUP_TABLE default
0.000000
-0.000000
-0.000000
-0.000000
0.000000
-0.000000
-0.000000
-0.000000
-0.000000
0.000000
-0.000000
-0.000000
-0.000000
-0.000000
-0.000000
-0.000000
-0.000000
-0.000000
-0.000000
-0.000000
-0.000000
-0.000000
-0.000000
0.000000
-0.000000
-0.000000
0.000000
-0.000000
-0.000000
-0.000000
0.000000
0.000000
-0.000000
0.000000
0.000000
0.000000
-0.000000
0.000000
0.000000
0.000000
-0.000000
0.000000
0.000000
0.000000
0.000000
-0.000000
0.000000
0.000000
-0.000000
-0.000000
-0.000000
0.000000
-0.000000
-0.000000
0.000000
-0.000000
-0.000000
-0.000000
0.000000
0.000000
-0.000000
0.000000
-0.000000
0.000000
0.000000
0.000000
0.000000
0.000000
0.000000
-0.000000
0.000000
0.000000
-0.000000
-0.000000
0.000000
0.000000
-0.000000
-0.000000
-0.000000
0.000000
-0.000000
-0.000000
-0.000000
-0.000000
-0.000000
-0.000000
-0.000000
0.000000
-0.000000
-0.000000
0.000000
-0.000000
-0.000000
0.000000
-0.000000
0.000000
-0.000000
-0.000000
0.000000
0.000000
-0.000000
-0.000000
0.000000
0.000000
-0.000000
0.000000
0.000000
0.000000
-0.000000
0.000000
0.000000
0.000000
-0.000000
-0.000000
0.000000
0.000000
0.000000
-0.000000
0.000000
0.000000
-0.000000
0.000000
-0.000000
0.000000
-0.000000
-0.000000
0.000000
0.000000

SCALARS sigma_zx FLOAT 1
LOOKUP_TABLE default
0.000000
0.000000
0.000000
-0.000000
0.000000
0.000000
0.000000
0.000000
-0.000000
0.000000
0.000000
0.000000
0.000000
0.000000
0.000000
0.000000
0.000000
-0.000000
0.000000
0.000000
0.000000
0.000000
0.000000
0.000000
-0.000000
-0.000000
-0.000000
-0.000000
-0.000000
-0.000000
0.000000
0.000000
-0.000000
-0.000000
0.000000
0.000000
-0.000000
-0.000000
0.000000
0.000000
-0.000000
-0.000000
0.000000
-0.000000
0.000000
-0.000000
0.000000
-0.000000
-0.000000
-0.000000
-0.000000
-0.000000
0.000000
-0.000000
-0.000000
-0.000000
-0.000000
0.000000
-0.000000
-0.000000
0.000000
0.000000
0.000000
0.000000
0.000000
0.000000
0.000000
0.000000
0.000000
0.000000
0.000000
0.000000
0.000000
-0.000000
0.000000
0.000000
0.000000
-0.000000
0.000000
0.000000
-0.000000
-0.000000
-0.000000
-0.000000
-0.000000
0.000000
-0.000000
-0.000000
-0.000000
-0.000000
-0.000000
-0.000000
0.000000
0.000000
-0.000000
0.000000
-0.000000
-0.000000
0.000000
-0.000000
0.000000
0.000000
0.000000
0.000000
-0.000000
-0.000000
0.000000
-0.000000
0.000000
0.000000
0.000000
0.000000
-0.000000
0.000000
-0.000000
-0.000000
0.000000
0.000000
0.000000
0.000000
-0.000000
-0.000000
-0.000000
0.000000
0.000000
0.000000
0.000000
0.000000

SCALARS u_x FLOAT 1
LOOKUP_TABLE default
0.000000
0.000000
0.000000
0.000000
0.000000
0.000000
0.000000
0.000000
0.000000
0.000000
0.000000
0.000000
0.000000
0.000000
0.000000
0.000000
0.000000
0.000000
0.000000
0.000000
0.000000
0.000000
0.000000
0.000000
0.000000
0.000000
0.000000
0.000000
0.000000
0.000000
0.000000
0.000000
0.000000
0.000000
0.000000
0.000000
0.000000
0.000000
0.000000
0.000000
0.000000
0.000000
0.000000
0.000000
0.000000
0.000000
0.000000
0.000000
0.000000
0.000000
0.000000
0.000000
0.000000
0.000000
0.000000
0.000000
0.000000
0.000000
0.000000
0.000000
0.000000
0.000000
0.000000
0.000000
0.000000
0.000000
0.000000
0.000000
0.000000
0.000000
0.000000
0.000000
0.000000
0.000000
0.000000
0.000000
0.000000
0.000000
0.000000
0.000000
0.000000
0.000000
0.000000
0.000000
0.000000
0.000000
0.000000
0.000000
0.000000
0.000000
0.000000
0.000000
0.000000
0.000000
0.000000
0.000000
0.000000
0.000000
0.000000
0.000000
0.000000
0.000000
0.000000
0.000000
0.000000
0.000000
0.000000
0.000000
0.000000
0.000000
0.000000
0.000000
0.000000
0.000000
0.000000
0.000000
0.000000
0.000000
0.000000
0.000000
0.000000
0.000000
0.000000
0.000000
0.000000
0.000000
0.000000
0.000000

SCALARS u_y FLOAT 1
LOOKUP_TABLE default
0.000000
0.000000
0.000000
0.000000
0.000000
0.000000
0.000000
0.000000
0.000000
0.000000
0.000000
0.000000
0.000000
0.000000
0.000000
0.000000
0.000000
0.000000
0.000000
0.000000
0.000000
0.000000
0.000000
0.000000
0.000000
0.000000
0.000000
0.000000
0.000000
0.000000
0.000000
0.000000
0.000000
0.000000
0.000000
0.000000
0.000000
0.000000
0.000000
0.000000
0.000000
0.000000
0.000000
0.000000
0.000000
0.000000
0.000000
0.000000
0.000000
0.000000
0.000000
0.000000
0.000000
0.000000
0.000000
0.000000
0.000000
0.000000
0.000000
0.000000
0.000000
0.000000
0.000000
0.000000
0.000000
0.000000
0.000000
0.000000
0.000000
0.000000
0.000000
0.000000
0.000000
0.000000
0.000000
0.000000
0.000000
0.000000
0.000000
0.000000
0.000000
0.000000
0.000000
0.000000
0.000000
0.000000
0.000000
0.000000
0.000000
0.000000
0.000000
0.000000
0.000000
0.000000
0.000000
0.000000
0.000000
0.000000
0.000000
0.000000
0.000000
0.000000
0.000000
0.000000
0.000000
0.000000
0.000000
0.000000
0.000000
0.000000
0.000000
0.000000
0.000000
0.000000
0.000000
0.000000
0.000000
0.000000
0.000000
0.000000
0.000000
0.000000
0.000000
0.000000
0.000000
0.000000
0.000000
0.000000

SCALARS u_z FLOAT 1
LOOKUP_TABLE default
-0.481645
-1.444935
-0.481645
-1.444935
-0.481645
-1.444935
-0.481645
-1.444935
-2.404794
-3.353048
-2.404794
-3.353048
-2.404794
-3.353048
-2.404794
-3.353048
-4.289571
-5.212586
-4.289571
-5.212586
-4.289571
-5.212586
-4.289571
-5.212586
-6.125837
-7.027894
-6.125837
-7.027894
-6.125837
-7.027894
-6.125837
-7.027894
-7.917555
-8.792687
-7.917555
-8.792687
-7.917555
-8.792687
-7.917555
-8.792687
-9.653496
-10.500315
-9.653496
-10.500315
-9.653496
-10.500315
-9.653496
-10.500315
-11.332352
-12.147778
-11.332352
-12.147778
-11.332352
-12.147778
-11.332352
-12.147778
-12.945414
-13.725196
-12.945414
-13.725196
-12.945414
-13.725196
-12.945414
-13.725196
-14.487120
-15.227396
-14.487120
-15.227396
-14.487120
-15.227396
-14.487120
-15.227396
-15.943967
-16.638093
-15.943967
-16.638093
-15.943967
-16.638093
-15.943967
-16.638093
-17.306952
-17.946427
-17.306952
-17.946427
-17.306952
-17.946427
-17.306952
-17.946427
-18.556698
-19.135304
-18.556698
-19.135304
-18.556698
-19.135304
-18.556698
-19.135304
-19.676141
-20.174680
-19.676141
-20.174680
-19.676141
-20.174680
-19.676141
-20.174680
-20.629605
-21.040040
-20.629605
-21.040040
-20.629605
-21.040040
-20.629605
-21.040040
-21.398529
-21.668007
-21.398529
-21.668007
-21.398529
-21.668007
-21.398529
-21.668007
-21.879657
-22.050616
-21.879657
-22.050616
-21.879657
-22.050616
-21.879657
-22.050616

