# vtk DataFile Version 2.0
MATLAB generated vtk file, WMC
ASCII
DATASET UNSTRUCTURED_GRID
POINTS 128 double
0.781250 0.781250 0.553696 
0.781250 0.781250 1.661087 
0.781250 2.343750 0.553696 
0.781250 2.343750 1.661087 
2.343750 0.781250 0.553696 
2.343750 0.781250 1.661087 
2.343750 2.343750 0.553696 
2.343750 2.343750 1.661087 
0.781250 0.781250 2.774771 
0.781250 0.781250 3.903801 
0.781250 2.343750 2.774771 
0.781250 2.343750 3.903801 
2.343750 0.781250 2.774771 
2.343750 0.781250 3.903801 
2.343750 2.343750 2.774771 
2.343750 2.343750 3.903801 
0.781250 0.781250 5.038837 
0.781250 0.781250 6.186332 
0.781250 2.343750 5.038837 
0.781250 2.343750 6.186332 
2.343750 0.781250 5.038837 
2.343750 0.781250 6.186332 
2.343750 2.343750 5.038837 
2.343750 2.343750 6.186332 
0.781250 0.781250 7.343320 
0.781250 0.781250 8.510324 
0.781250 2.343750 7.343320 
0.781250 2.343750 8.510324 
2.343750 0.781250 7.343320 
2.343750 0.781250 8.510324 
2.343750 2.343750 7.343320 
2.343750 2.343750 8.510324 
0.781250 0.781250 9.688692 
0.781250 0.781250 10.876790 
0.781250 2.343750 9.688692 
0.781250 2.343750 10.876790 
2.343750 0.781250 9.688692 
2.343750 0.781250 10.876790 
2.343750 2.343750 9.688692 
2.343750 2.343750 10.876790 
0.781250 0.781250 12.076133 
0.781250 0.781250 13.288351 
0.781250 2.343750 12.076133 
0.781250 2.343750 13.288351 
2.343750 0.781250 12.076133 
2.343750 0.781250 13.288351 
2.343750 2.343750 12.076133 
2.343750 2.343750 13.288351 
0.781250 0.781250 14.511409 
0.781250 0.781250 15.747106 
0.781250 2.343750 14.511409 
0.781250 2.343750 15.747106 
2.343750 0.781250 14.511409 
2.343750 0.781250 15.747106 
2.343750 2.343750 14.511409 
2.343750 2.343750 15.747106 
0.781250 0.781250 16.994941 
0.781250 0.781250 18.256359 
0.781250 2.343750 16.994941 
0.781250 2.343750 18.256359 
2.343750 0.781250 16.994941 
2.343750 0.781250 18.256359 
2.343750 2.343750 16.994941 
2.343750 2.343750 18.256359 
0.781250 0.781250 19.530595 
0.781250 0.781250 20.817834 
0.781250 2.343750 19.530595 
0.781250 2.343750 20.817834 
2.343750 0.781250 19.530595 
2.343750 0.781250 20.817834 
2.343750 2.343750 19.530595 
2.343750 2.343750 20.817834 
0.781250 0.781250 22.121798 
0.781250 0.781250 23.438550 
0.781250 2.343750 22.121798 
0.781250 2.343750 23.438550 
2.343750 0.781250 22.121798 
2.343750 0.781250 23.438550 
2.343750 2.343750 22.121798 
2.343750 2.343750 23.438550 
0.781250 0.781250 24.770807 
0.781250 0.781250 26.117262 
0.781250 2.343750 24.770807 
0.781250 2.343750 26.117262 
2.343750 0.781250 24.770807 
2.343750 0.781250 26.117262 
2.343750 2.343750 24.770807 
2.343750 2.343750 26.117262 
0.781250 0.781250 27.480587 
0.781250 0.781250 28.859540 
0.781250 2.343750 27.480587 
0.781250 2.343750 28.859540 
2.343750 0.781250 27.480587 
2.343750 0.781250 28.859540 
2.343750 2.343750 27.480587 
2.343750 2.343750 28.859540 
0.781250 0.781250 30.256211 
0.781250 0.781250 31.671130 
0.781250 2.343750 30.256211 
0.781250 2.343750 31.671130 
2.343750 0.781250 30.256211 
2.343750 0.781250 31.671130 
2.343750 2.343750 30.256211 
2.343750 2.343750 31.671130 
0.781250 0.781250 33.104785 
0.781250 0.781250 34.557121 
0.781250 2.343750 33.104785 
0.781250 2.343750 34.557121 
2.343750 0.781250 33.104785 
2.343750 0.781250 34.557121 
2.343750 2.343750 33.104785 
2.343750 2.343750 34.557121 
0.781250 0.781250 36.029973 
0.781250 0.781250 37.527972 
0.781250 2.343750 36.029973 
0.781250 2.343750 37.527972 
2.343750 0.781250 36.029973 
2.343750 0.781250 37.527972 
2.343750 2.343750 36.029973 
2.343750 2.343750 37.527972 
0.781250 0.781250 39.043114 
0.781250 0.781250 40.574454 
0.781250 2.343750 39.043114 
0.781250 2.343750 40.574454 
2.343750 0.781250 39.043114 
2.343750 0.781250 40.574454 
2.343750 2.343750 39.043114 
2.343750 2.343750 40.574454 

POINT_DATA 128
SCALARS sigma_xx FLOAT 1
LOOKUP_TABLE default
0.000000
-0.000000
0.000000
-0.000000
-0.000000
-0.000000
0.000000
0.000000
0.000000
-0.000000
-0.000000
0.000000
0.000000
0.000000
-0.000000
-0.000000
-0.000000
-0.000000
-0.000000
-0.000000
0.000000
-0.000000
-0.000000
0.000000
-0.000000
-0.000000
0.000000
-0.000000
0.000000
0.000000
-0.000000
-0.000000
-0.000000
-0.000000
0.000000
-0.000000
-0.000000
-0.000000
0.000000
-0.000000
-0.000000
-0.000000
-0.000000
0.000000
-0.000000
-0.000000
-0.000000
-0.000000
0.000000
-0.000000
-0.000000
-0.000000
0.000000
-0.000000
0.000000
-0.000000
-0.000000
0.000000
-0.000000
-0.000000
-0.000000
-0.000000
-0.000000
0.000000
-0.000000
0.000000
-0.000000
0.000000
-0.000000
-0.000000
-0.000000
-0.000000
-0.000000
-0.000000
0.000000
-0.000000
-0.000000
-0.000000
0.000000
0.000000
-0.000000
-0.000000
-0.000000
0.000000
0.000000
-0.000000
-0.000000
0.000000
0.000000
-0.000000
0.000000
-0.000000
0.000000
0.000000
0.000000
-0.000000
0.000000
-0.000000
-0.000000
0.000000
-0.000000
-0.000000
-0.000000
0.000000
-0.000000
-0.000000
-0.000000
-0.000000
-0.000000
-0.000000
-0.000000
0.000000
0.000000
-0.000000
-0.000000
-0.000000
-0.000000
0.000000
0.000000
-0.000000
-0.000000
0.000000
-0.000000
-0.000000
0.000000
-0.000000
-0.000000
0.000000

SCALARS sigma_yy FLOAT 1
LOOKUP_TABLE default
0.000000
-0.000000
0.000000
-0.000000
-0.000000
-0.000000
0.000000
0.000000
0.000000
0.000000
0.000000
-0.000000
0.000000
0.000000
-0.000000
-0.000000
-0.000000
-0.000000
-0.000000
-0.000000
0.000000
-0.000000
-0.000000
0.000000
-0.000000
-0.000000
0.000000
0.000000
-0.000000
-0.000000
-0.000000
-0.000000
-0.000000
0.000000
0.000000
-0.000000
0.000000
0.000000
-0.000000
-0.000000
-0.000000
-0.000000
-0.000000
0.000000
-0.000000
-0.000000
-0.000000
0.000000
0.000000
-0.000000
0.000000
-0.000000
0.000000
-0.000000
0.000000
0.000000
-0.000000
0.000000
-0.000000
-0.000000
-0.000000
0.000000
-0.000000
0.000000
-0.000000
-0.000000
-0.000000
0.000000
-0.000000
0.000000
-0.000000
-0.000000
-0.000000
0.000000
0.000000
-0.000000
-0.000000
-0.000000
0.000000
0.000000
0.000000
-0.000000
-0.000000
0.000000
-0.000000
-0.000000
-0.000000
0.000000
0.000000
-0.000000
0.000000
0.000000
0.000000
-0.000000
-0.000000
-0.000000
-0.000000
-0.000000
0.000000
0.000000
0.000000
-0.000000
0.000000
-0.000000
-0.000000
-0.000000
-0.000000
-0.000000
-0.000000
0.000000
-0.000000
-0.000000
-0.000000
-0.000000
-0.000000
-0.000000
-0.000000
-0.000000
-0.000000
-0.000000
-0.000000
0.000000
0.000000
-0.000000
0.000000
-0.000000
-0.000000
0.000000

SCALARS sigma_zz FLOAT 1
LOOKUP_TABLE default
-4857.702474
-4857.702474
-4857.702474
-4857.702474
-4857.702474
-4857.702474
-4857.702474
-4857.702474
-4584.615129
-4469.654193
-4584.615129
-4469.654193
-4584.615129
-4469.654193
-4584.615129
-4469.654193
-4295.579836
-4132.516683
-4295.579836
-4132.516683
-4295.579836
-4132.516683
-4295.579836
-4132.516683
-3977.856437
-3833.308524
-3977.856437
-3833.308524
-3977.856437
-3833.308524
-3977.856437
-3833.308524
-3657.180233
-3545.884881
-3657.180233
-3545.884881
-3657.180233
-3545.884881
-3657.180233
-3545.884881
-3338.116682
-3217.246527
-3338.116682
-3217.246527
-3338.116682
-3217.246527
-3338.116682
-3217.246527
-3038.946741
-2902.393791
-3038.946741
-2902.393791
-3038.946741
-2902.393791
-3038.946741
-2902.393791
-2725.879651
-2583.386352
-2725.879651
-2583.386352
-2725.879651
-2583.386352
-2725.879651
-2583.386352
-2420.258909
-2270.351136
-2420.258909
-2270.351136
-2420.258909
-2270.351136
-2420.258909
-2270.351136
-2083.642638
-1966.342323
-2083.642638
-1966.342323
-2083.642638
-1966.342323
-2083.642638
-1966.342323
-1779.345063
-1661.787019
-1779.345063
-1661.787019
-1779.345063
-1661.787019
-1779.345063
-1661.787019
-1469.499136
-1353.766710
-1469.499136
-1353.766710
-1469.499136
-1353.766710
-1469.499136
-1353.766710
-1157.776859
-1032.447481
-1157.776859
-1032.447481
-1157.776859
-1032.447481
-1157.776859
-1032.447481
-847.827876
-723.231462
-847.827876
-723.231462
-847.827876
-723.231462
-847.827876
-723.231462
-522.336719
-380.136502
-522.336719
-380.136502
-522.336719
-380.136502
-522.336719
-380.136502
-261.125700
-52.639737
-261.125700
-52.639737
-261.125700
-52.639737
-261.125700
-52.639737

SCALARS sigma_xy FLOAT 1
LOOKUP_TABLE default
0.000000
0.000000
0.000000
0.000000
0.000000
0.000000
0.000000
0.000000
0.000000
0.000000
0.000000
-0.000000
0.000000
0.000000
-0.000000
0.000000
-0.000000
0.000000
-0.000000
0.000000
-0.000000
-0.000000
-0.000000
-0.000000
0.000000
0.000000
0.000000
-0.000000
0.000000
-0.000000
-0.000000
-0.000000
0.000000
0.000000
0.000000
0.000000
0.000000
0.000000
0.000000
0.000000
0.000000
0.000000
0.000000
-0.000000
0.000000
0.000000
-0.000000
-0.000000
0.000000
-0.000000
0.000000
0.000000
0.000000
0.000000
-0.000000
-0.000000
0.000000
-0.000000
-0.000000
-0.000000
0.000000
-0.000000
0.000000
0.000000
0.000000
0.000000
0.000000
0.000000
-0.000000
-0.000000
-0.000000
-0.000000
0.000000
0.000000
0.000000
-0.000000
-0.000000
0.000000
0.000000
0.000000
-0.000000
-0.000000
-0.000000
-0.000000
0.000000
-0.000000
0.000000
0.000000
-0.000000
-0.000000
0.000000
-0.000000
-0.000000
0.000000
-0.000000
-0.000000
0.000000
0.000000
0.000000
0.000000
-0.000000
-0.000000
-0.000000
0.000000
0.000000
0.000000
-0.000000
-0.000000
-0.000000
0.000000
-0.000000
0.000000
-0.000000
-0.000000
0.000000
0.000000
0.000000
0.000000
0.000000
-0.000000
0.000000
-0.000000
0.000000
-0.000000
-0.000000
0.000000
-0.000000
-0.000000

SCALARS sigma_yz FLOAT 1
LOOKUP_TABLE default
0.000000
0.000000
0.000000
0.000000
-0.000000
-0.000000
0.000000
0.000000
0.000000
0.000000
-0.000000
0.000000
0.000000
0.000000
0.000000
0.000000
-0.000000
-0.000000
-0.000000
-0.000000
0.000000
-0.000000
0.000000
-0.000000
-0.000000
0.000000
0.000000
0.000000
-0.000000
0.000000
0.000000
0.000000
-0.000000
0.000000
0.000000
0.000000
0.000000
-0.000000
-0.000000
0.000000
-0.000000
0.000000
0.000000
0.000000
0.000000
0.000000
0.000000
-0.000000
-0.000000
-0.000000
0.000000
0.000000
-0.000000
-0.000000
0.000000
-0.000000
0.000000
-0.000000
0.000000
0.000000
0.000000
-0.000000
0.000000
0.000000
0.000000
-0.000000
0.000000
-0.000000
0.000000
-0.000000
0.000000
0.000000
0.000000
-0.000000
0.000000
0.000000
-0.000000
-0.000000
0.000000
0.000000
-0.000000
-0.000000
0.000000
0.000000
-0.000000
0.000000
0.000000
0.000000
-0.000000
-0.000000
0.000000
-0.000000
-0.000000
-0.000000
0.000000
0.000000
0.000000
-0.000000
0.000000
-0.000000
-0.000000
-0.000000
-0.000000
0.000000
0.000000
0.000000
0.000000
-0.000000
-0.000000
-0.000000
0.000000
-0.000000
-0.000000
-0.000000
0.000000
0.000000
-0.000000
-0.000000
0.000000
0.000000
-0.000000
-0.000000
0.000000
0.000000
-0.000000
-0.000000
0.000000
-0.000000

SCALARS sigma_zx FLOAT 1
LOOKUP_TABLE default
0.000000
0.000000
-0.000000
0.000000
0.000000
0.000000
-0.000000
0.000000
0.000000
0.000000
-0.000000
0.000000
0.000000
0.000000
0.000000
0.000000
-0.000000
-0.000000
0.000000
0.000000
0.000000
-0.000000
0.000000
0.000000
0.000000
0.000000
0.000000
-0.000000
-0.000000
0.000000
0.000000
0.000000
0.000000
0.000000
0.000000
-0.000000
0.000000
0.000000
-0.000000
0.000000
-0.000000
0.000000
-0.000000
0.000000
0.000000
0.000000
0.000000
-0.000000
-0.000000
0.000000
-0.000000
-0.000000
0.000000
-0.000000
0.000000
-0.000000
-0.000000
0.000000
-0.000000
-0.000000
-0.000000
0.000000
0.000000
0.000000
-0.000000
-0.000000
0.000000
-0.000000
0.000000
0.000000
0.000000
0.000000
-0.000000
-0.000000
-0.000000
0.000000
0.000000
-0.000000
-0.000000
0.000000
-0.000000
-0.000000
-0.000000
0.000000
0.000000
0.000000
-0.000000
0.000000
0.000000
-0.000000
-0.000000
-0.000000
-0.000000
0.000000
0.000000
0.000000
0.000000
0.000000
0.000000
-0.000000
0.000000
0.000000
0.000000
0.000000
-0.000000
-0.000000
-0.000000
-0.000000
0.000000
-0.000000
0.000000
-0.000000
-0.000000
-0.000000
-0.000000
-0.000000
-0.000000
-0.000000
0.000000
0.000000
0.000000
-0.000000
-0.000000
0.000000
0.000000
0.000000
0.000000
0.000000

SCALARS u_x FLOAT 1
LOOKUP_TABLE default
0.000000
0.000000
0.000000
0.000000
0.000000
0.000000
0.000000
0.000000
0.000000
0.000000
0.000000
0.000000
0.000000
0.000000
0.000000
0.000000
0.000000
0.000000
0.000000
0.000000
0.000000
0.000000
0.000000
0.000000
0.000000
0.000000
0.000000
0.000000
0.000000
0.000000
0.000000
0.000000
0.000000
0.000000
0.000000
0.000000
0.000000
0.000000
0.000000
0.000000
0.000000
0.000000
0.000000
0.000000
0.000000
0.000000
0.000000
0.000000
0.000000
0.000000
0.000000
0.000000
0.000000
0.000000
0.000000
0.000000
0.000000
0.000000
0.000000
0.000000
0.000000
0.000000
0.000000
0.000000
0.000000
0.000000
0.000000
0.000000
0.000000
0.000000
0.000000
0.000000
0.000000
0.000000
0.000000
0.000000
0.000000
0.000000
0.000000
0.000000
0.000000
0.000000
0.000000
0.000000
0.000000
0.000000
0.000000
0.000000
0.000000
0.000000
0.000000
0.000000
0.000000
0.000000
0.000000
0.000000
0.000000
0.000000
0.000000
0.000000
0.000000
0.000000
0.000000
0.000000
0.000000
0.000000
0.000000
0.000000
0.000000
0.000000
0.000000
0.000000
0.000000
0.000000
0.000000
0.000000
0.000000
0.000000
0.000000
0.000000
0.000000
0.000000
0.000000
0.000000
0.000000
0.000000
0.000000
0.000000

SCALARS u_y FLOAT 1
LOOKUP_TABLE default
0.000000
0.000000
0.000000
0.000000
0.000000
0.000000
0.000000
0.000000
0.000000
0.000000
0.000000
0.000000
0.000000
0.000000
0.000000
0.000000
0.000000
0.000000
0.000000
0.000000
0.000000
0.000000
0.000000
0.000000
0.000000
0.000000
0.000000
0.000000
0.000000
0.000000
0.000000
0.000000
0.000000
0.000000
0.000000
0.000000
0.000000
0.000000
0.000000
0.000000
0.000000
0.000000
0.000000
0.000000
0.000000
0.000000
0.000000
0.000000
0.000000
0.000000
0.000000
0.000000
0.000000
0.000000
0.000000
0.000000
0.000000
0.000000
0.000000
0.000000
0.000000
0.000000
0.000000
0.000000
0.000000
0.000000
0.000000
0.000000
0.000000
0.000000
0.000000
0.000000
0.000000
0.000000
0.000000
0.000000
0.000000
0.000000
0.000000
0.000000
0.000000
0.000000
0.000000
0.000000
0.000000
0.000000
0.000000
0.000000
0.000000
0.000000
0.000000
0.000000
0.000000
0.000000
0.000000
0.000000
0.000000
0.000000
0.000000
0.000000
0.000000
0.000000
0.000000
0.000000
0.000000
0.000000
0.000000
0.000000
0.000000
0.000000
0.000000
0.000000
0.000000
0.000000
0.000000
0.000000
0.000000
0.000000
0.000000
0.000000
0.000000
0.000000
0.000000
0.000000
0.000000
0.000000
0.000000
0.000000

SCALARS u_z FLOAT 1
LOOKUP_TABLE default
-0.227554
-0.682663
-0.227554
-0.682663
-0.227554
-0.682663
-0.227554
-0.682663
-1.131479
-1.564949
-1.131479
-1.564949
-1.131479
-1.564949
-1.131479
-1.564949
-1.992413
-2.407418
-1.992413
-2.407418
-1.992413
-2.407418
-1.992413
-2.407418
-2.812930
-3.208426
-2.812930
-3.208426
-2.812930
-3.208426
-2.812930
-3.208426
-3.592558
-3.966960
-3.592558
-3.966960
-3.592558
-3.966960
-3.592558
-3.966960
-4.330117
-4.680399
-4.330117
-4.680399
-4.330117
-4.680399
-4.330117
-4.680399
-5.019841
-5.346644
-5.019841
-5.346644
-5.019841
-5.346644
-5.019841
-5.346644
-5.661309
-5.962391
-5.661309
-5.962391
-5.661309
-5.962391
-5.661309
-5.962391
-6.250655
-6.525916
-6.250655
-6.525916
-6.250655
-6.525916
-6.250655
-6.525916
-6.784452
-7.030200
-6.784452
-7.030200
-6.784452
-7.030200
-6.784452
-7.030200
-7.260443
-7.476488
-7.260443
-7.476488
-7.260443
-7.476488
-7.260443
-7.476488
-7.675663
-7.859210
-7.675663
-7.859210
-7.675663
-7.859210
-7.675663
-7.859210
-8.025039
-8.172620
-8.025039
-8.172620
-8.025039
-8.172620
-8.025039
-8.172620
-8.301465
-8.411629
-8.301465
-8.411629
-8.301465
-8.411629
-8.301465
-8.411629
-8.501277
-8.565778
-8.501277
-8.565778
-8.501277
-8.565778
-8.501277
-8.565778
-8.613136
-8.644296
-8.613136
-8.644296
-8.613136
-8.644296
-8.613136
-8.644296

