# vtk DataFile Version 2.0
MATLAB generated vtk file, WMC
ASCII
DATASET UNSTRUCTURED_GRID
POINTS 256 double
0.195312 0.154344 0.000000 
0.195312 0.463031 0.000000 
0.585938 0.154344 0.000000 
0.585938 0.463031 0.000000 
0.195312 0.772098 0.000000 
0.195312 1.081827 0.000000 
0.585938 0.772098 0.000000 
0.585938 1.081827 0.000000 
0.195312 1.391866 0.000000 
0.195312 1.702563 0.000000 
0.585938 1.391866 0.000000 
0.585938 1.702563 0.000000 
0.195312 2.013599 0.000000 
0.195312 2.325188 0.000000 
0.585938 2.013599 0.000000 
0.585938 2.325188 0.000000 
0.195312 2.637173 0.000000 
0.195312 2.949660 0.000000 
0.585938 2.637173 0.000000 
0.585938 2.949660 0.000000 
0.195312 3.262693 0.000000 
0.195312 3.576155 0.000000 
0.585938 3.262693 0.000000 
0.585938 3.576155 0.000000 
0.195312 3.890164 0.000000 
0.195312 4.204603 0.000000 
0.585938 3.890164 0.000000 
0.585938 4.204603 0.000000 
0.195312 4.519529 0.000000 
0.195312 4.834890 0.000000 
0.585938 4.519529 0.000000 
0.585938 4.834890 0.000000 
0.195312 5.150763 0.000000 
0.195312 5.467158 0.000000 
0.585938 5.150763 0.000000 
0.585938 5.467158 0.000000 
0.195312 5.784070 0.000000 
0.195312 6.101467 0.000000 
0.585938 5.784070 0.000000 
0.585938 6.101467 0.000000 
0.195312 6.419428 0.000000 
0.195312 6.737783 0.000000 
0.585938 6.419428 0.000000 
0.585938 6.737783 0.000000 
0.195312 7.056735 0.000000 
0.195312 7.376082 0.000000 
0.585938 7.056735 0.000000 
0.585938 7.376082 0.000000 
0.195312 7.696103 0.000000 
0.195312 8.016522 0.000000 
0.585938 7.696103 0.000000 
0.585938 8.016522 0.000000 
0.195312 8.337575 0.000000 
0.195312 8.659111 0.000000 
0.585938 8.337575 0.000000 
0.585938 8.659111 0.000000 
0.195312 8.981079 0.000000 
0.195312 9.303603 0.000000 
0.585938 8.981079 0.000000 
0.585938 9.303603 0.000000 
0.195312 9.626520 0.000000 
0.195312 9.950153 0.000000 
0.585938 9.626520 0.000000 
0.585938 9.950153 0.000000 
0.195312 10.274127 0.000000 
0.195312 10.598874 0.000000 
0.585938 10.274127 0.000000 
0.585938 10.598874 0.000000 
0.195312 10.923973 0.000000 
0.195312 11.249777 0.000000 
0.585938 10.923973 0.000000 
0.585938 11.249777 0.000000 
0.195312 11.575998 0.000000 
0.195312 11.902811 0.000000 
0.585938 11.575998 0.000000 
0.585938 11.902811 0.000000 
0.195312 12.230126 0.000000 
0.195312 12.557953 0.000000 
0.585938 12.230126 0.000000 
0.585938 12.557953 0.000000 
0.195312 12.886437 0.000000 
0.195312 13.215361 0.000000 
0.585938 12.886437 0.000000 
0.585938 13.215361 0.000000 
0.195312 13.545001 0.000000 
0.195312 13.875071 0.000000 
0.585938 13.545001 0.000000 
0.585938 13.875071 0.000000 
0.195312 14.205817 0.000000 
0.195312 14.537002 0.000000 
0.585938 14.205817 0.000000 
0.585938 14.537002 0.000000 
0.195312 14.868816 0.000000 
0.195312 15.201106 0.000000 
0.585938 14.868816 0.000000 
0.585938 15.201106 0.000000 
0.195312 15.534011 0.000000 
0.195312 15.867493 0.000000 
0.585938 15.534011 0.000000 
0.585938 15.867493 0.000000 
0.195312 16.201566 0.000000 
0.195312 16.536233 0.000000 
0.585938 16.201566 0.000000 
0.585938 16.536233 0.000000 
0.195312 16.871494 0.000000 
0.195312 17.207339 0.000000 
0.585938 16.871494 0.000000 
0.585938 17.207339 0.000000 
0.195312 17.543810 0.000000 
0.195312 17.880801 0.000000 
0.585938 17.543810 0.000000 
0.585938 17.880801 0.000000 
0.195312 18.218424 0.000000 
0.195312 18.556580 0.000000 
0.585938 18.218424 0.000000 
0.585938 18.556580 0.000000 
0.195312 18.895441 0.000000 
0.195312 19.234806 0.000000 
0.585938 18.895441 0.000000 
0.585938 19.234806 0.000000 
0.195312 19.574878 0.000000 
0.195312 19.915514 0.000000 
0.585938 19.574878 0.000000 
0.585938 19.915514 0.000000 
0.195312 20.256807 0.000000 
0.195312 20.598717 0.000000 
0.585938 20.256807 0.000000 
0.585938 20.598717 0.000000 
0.195312 20.941223 0.000000 
0.195312 21.284418 0.000000 
0.585938 20.941223 0.000000 
0.585938 21.284418 0.000000 
0.195312 21.628089 0.000000 
0.195312 21.972478 0.000000 
0.585938 21.628089 0.000000 
0.585938 21.972478 0.000000 
0.195312 22.317336 0.000000 
0.195312 22.663045 0.000000 
0.585938 22.317336 0.000000 
0.585938 22.663045 0.000000 
0.195312 23.009185 0.000000 
0.195312 23.356209 0.000000 
0.585938 23.009185 0.000000 
0.585938 23.356209 0.000000 
0.195312 23.703658 0.000000 
0.195312 24.051993 0.000000 
0.585938 23.703658 0.000000 
0.585938 24.051993 0.000000 
0.195312 24.400780 0.000000 
0.195312 24.750426 0.000000 
0.585938 24.400780 0.000000 
0.585938 24.750426 0.000000 
0.195312 25.100577 0.000000 
0.195312 25.451524 0.000000 
0.585938 25.100577 0.000000 
0.585938 25.451524 0.000000 
0.195312 25.803052 0.000000 
0.195312 26.155269 0.000000 
0.585938 25.803052 0.000000 
0.585938 26.155269 0.000000 
0.195312 26.508127 0.000000 
0.195312 26.861620 0.000000 
0.585938 26.508127 0.000000 
0.585938 26.861620 0.000000 
0.195312 27.215884 0.000000 
0.195312 27.570724 0.000000 
0.585938 27.215884 0.000000 
0.585938 27.570724 0.000000 
0.195312 27.926410 0.000000 
0.195312 28.282626 0.000000 
0.585938 27.926410 0.000000 
0.585938 28.282626 0.000000 
0.195312 28.639739 0.000000 
0.195312 28.997358 0.000000 
0.585938 28.639739 0.000000 
0.585938 28.997358 0.000000 
0.195312 29.355901 0.000000 
0.195312 29.714947 0.000000 
0.585938 29.355901 0.000000 
0.585938 29.714947 0.000000 
0.195312 30.074929 0.000000 
0.195312 30.435424 0.000000 
0.585938 30.074929 0.000000 
0.585938 30.435424 0.000000 
0.195312 30.796852 0.000000 
0.195312 31.158820 0.000000 
0.585938 30.796852 0.000000 
0.585938 31.158820 0.000000 
0.195312 31.521702 0.000000 
0.195312 31.885161 0.000000 
0.585938 31.521702 0.000000 
0.585938 31.885161 0.000000 
0.195312 32.249469 0.000000 
0.195312 32.614367 0.000000 
0.585938 32.249469 0.000000 
0.585938 32.614367 0.000000 
0.195312 32.980119 0.000000 
0.195312 33.346548 0.000000 
0.585938 32.980119 0.000000 
0.585938 33.346548 0.000000 
0.195312 33.713805 0.000000 
0.195312 34.081779 0.000000 
0.585938 33.713805 0.000000 
0.585938 34.081779 0.000000 
0.195312 34.450563 0.000000 
0.195312 34.820096 0.000000 
0.585938 34.450563 0.000000 
0.585938 34.820096 0.000000 
0.195312 35.190427 0.000000 
0.195312 35.561537 0.000000 
0.585938 35.190427 0.000000 
0.585938 35.561537 0.000000 
0.195312 35.933436 0.000000 
0.195312 36.306138 0.000000 
0.585938 35.933436 0.000000 
0.585938 36.306138 0.000000 
0.195312 36.679627 0.000000 
0.195312 37.053939 0.000000 
0.585938 36.679627 0.000000 
0.585938 37.053939 0.000000 
0.195312 37.429040 0.000000 
0.195312 37.804980 0.000000 
0.585938 37.429040 0.000000 
0.585938 37.804980 0.000000 
0.195312 38.181714 0.000000 
0.195312 38.559302 0.000000 
0.585938 38.181714 0.000000 
0.585938 38.559302 0.000000 
0.195312 38.937691 0.000000 
0.195312 39.316946 0.000000 
0.585938 38.937691 0.000000 
0.585938 39.316946 0.000000 
0.195312 39.697012 0.000000 
0.195312 40.077955 0.000000 
0.585938 39.697012 0.000000 
0.585938 40.077955 0.000000 
0.195312 40.459721 0.000000 
0.195312 40.842374 0.000000 
0.585938 40.459721 0.000000 
0.585938 40.842374 0.000000 
0.195312 41.225862 0.000000 
0.195312 41.610248 0.000000 
0.585938 41.225862 0.000000 
0.585938 41.610248 0.000000 
0.195312 41.995482 0.000000 
0.195312 42.381619 0.000000 
0.585938 41.995482 0.000000 
0.585938 42.381619 0.000000 
0.195312 42.768613 0.000000 
0.195312 43.156589 0.000000 
0.585938 42.768613 0.000000 
0.585938 43.156589 0.000000 
0.195312 43.545514 0.000000 
0.195312 43.935317 0.000000 
0.585938 43.545514 0.000000 
0.585938 43.935317 0.000000 

POINT_DATA 256
SCALARS sigma_xx FLOAT 1
LOOKUP_TABLE default
0.000000
0.000000
0.000000
0.000000
0.000000
0.000000
0.000000
0.000000
0.000000
0.000000
0.000000
0.000000
0.000000
0.000000
0.000000
0.000000
0.000000
0.000000
0.000000
0.000000
0.000000
0.000000
0.000000
0.000000
0.000000
0.000000
0.000000
0.000000
0.000000
-0.000000
0.000000
-0.000000
0.000000
0.000000
0.000000
0.000000
0.000000
0.000000
0.000000
0.000000
0.000000
0.000000
0.000000
0.000000
0.000000
0.000000
0.000000
0.000000
0.000000
0.000000
0.000000
0.000000
0.000000
0.000000
0.000000
0.000000
0.000000
0.000000
0.000000
0.000000
0.000000
0.000000
0.000000
0.000000
0.000000
0.000000
0.000000
0.000000
0.000000
0.000000
0.000000
0.000000
0.000000
0.000000
0.000000
0.000000
0.000000
0.000000
0.000000
0.000000
-0.000000
-0.000000
-0.000000
-0.000000
-0.000000
-0.000000
-0.000000
-0.000000
-0.000000
0.000000
-0.000000
0.000000
0.000000
0.000000
0.000000
0.000000
0.000000
0.000000
0.000000
0.000000
0.000000
0.000000
0.000000
0.000000
0.000000
0.000000
0.000000
0.000000
0.000000
-0.000000
0.000000
-0.000000
-0.000000
0.000000
-0.000000
0.000000
-0.000000
0.000000
-0.000000
0.000000
0.000000
0.000000
0.000000
0.000000
0.000000
0.000000
0.000000
0.000000
-0.000000
-0.000000
-0.000000
-0.000000
0.000000
0.000000
0.000000
0.000000
-0.000000
-0.000000
-0.000000
-0.000000
-0.000000
0.000000
-0.000000
0.000000
-0.000000
-0.000000
-0.000000
-0.000000
0.000000
-0.000000
0.000000
-0.000000
0.000000
-0.000000
0.000000
-0.000000
-0.000000
0.000000
-0.000000
0.000000
-0.000000
-0.000000
-0.000000
-0.000000
-0.000000
-0.000000
-0.000000
-0.000000
-0.000000
0.000000
-0.000000
0.000000
0.000000
0.000000
0.000000
0.000000
0.000000
0.000000
0.000000
0.000000
0.000000
0.000000
0.000000
0.000000
-0.000000
-0.000000
-0.000000
-0.000000
-0.000000
0.000000
-0.000000
0.000000
0.000000
0.000000
0.000000
0.000000
0.000000
0.000000
0.000000
0.000000
0.000000
0.000000
0.000000
0.000000
-0.000000
0.000000
-0.000000
0.000000
-0.000000
0.000000
-0.000000
0.000000
0.000000
0.000000
0.000000
0.000000
0.000000
0.000000
0.000000
0.000000
0.000000
-0.000000
0.000000
-0.000000
-0.000000
0.000000
-0.000000
0.000000
0.000000
-0.000000
0.000000
-0.000000
0.000000
-0.000000
0.000000
-0.000000
-0.000000
-0.000000
-0.000000
-0.000000
-0.000000
0.000000
-0.000000
0.000000
0.000000
-0.000000
0.000000
-0.000000
0.000000
-0.000000
0.000000
-0.000000
-0.000000
-0.000000
-0.000000
-0.000000

SCALARS sigma_yy FLOAT 1
LOOKUP_TABLE default
-2979.087588
-2979.087588
-2979.087588
-2979.087588
-2934.358401
-2925.148135
-2934.358401
-2925.148135
-2890.118708
-2873.241193
-2890.118708
-2873.241193
-2845.440089
-2826.048313
-2845.440089
-2826.048313
-2800.547967
-2778.728739
-2800.547967
-2778.728739
-2750.536669
-2732.894455
-2750.536669
-2732.894455
-2701.703309
-2687.545053
-2701.703309
-2687.545053
-2656.678657
-2643.163765
-2656.678657
-2643.163765
-2609.866511
-2593.775814
-2609.866511
-2593.775814
-2562.951517
-2545.524283
-2562.951517
-2545.524283
-2515.707609
-2501.018492
-2515.707609
-2501.018492
-2467.879597
-2455.797140
-2467.879597
-2455.797140
-2416.243225
-2410.401070
-2416.243225
-2410.401070
-2365.582363
-2364.274729
-2365.582363
-2364.274729
-2323.493886
-2319.808486
-2323.493886
-2319.808486
-2278.954127
-2269.233611
-2278.954127
-2269.233611
-2234.222808
-2217.225817
-2234.222808
-2217.225817
-2189.478663
-2167.490691
-2189.478663
-2167.490691
-2144.742800
-2120.832997
-2144.742800
-2120.832997
-2099.578557
-2074.515414
-2099.578557
-2074.515414
-2049.785545
-2028.845323
-2049.785545
-2028.845323
-1999.009186
-1983.802071
-1999.009186
-1983.802071
-1950.802399
-1939.594045
-1950.802399
-1939.594045
-1904.937406
-1894.665552
-1904.937406
-1894.665552
-1858.360943
-1846.149292
-1858.360943
-1846.149292
-1811.526969
-1797.868453
-1811.526969
-1797.868453
-1764.814522
-1749.830025
-1764.814522
-1749.830025
-1717.992890
-1704.510528
-1717.992890
-1704.510528
-1671.204103
-1658.277649
-1671.204103
-1658.277649
-1621.951175
-1612.836847
-1621.951175
-1612.836847
-1573.151638
-1565.763614
-1573.151638
-1565.763614
-1525.281405
-1519.182991
-1525.281405
-1519.182991
-1477.828632
-1472.554761
-1477.828632
-1472.554761
-1434.509625
-1427.469834
-1434.509625
-1427.469834
-1389.150790
-1377.758946
-1389.150790
-1377.758946
-1343.707120
-1328.236485
-1343.707120
-1328.236485
-1298.251743
-1278.843457
-1298.251743
-1278.843457
-1252.763038
-1229.544885
-1252.763038
-1229.544885
-1207.296841
-1180.864441
-1207.296841
-1180.864441
-1161.872618
-1134.764713
-1161.872618
-1134.764713
-1116.786902
-1088.577444
-1116.786902
-1088.577444
-1068.331646
-1042.825339
-1068.331646
-1042.825339
-1019.562598
-997.123382
-1019.562598
-997.123382
-970.853605
-951.376592
-970.853605
-951.376592
-922.268740
-905.601387
-922.268740
-905.601387
-873.797671
-859.791958
-873.797671
-859.791958
-825.433295
-813.955687
-825.433295
-813.955687
-777.288629
-768.149805
-777.288629
-768.149805
-731.551393
-723.185562
-731.551393
-723.185562
-684.858555
-675.803956
-684.858555
-675.803956
-638.165639
-628.463623
-638.165639
-628.463623
-591.473213
-581.161845
-591.473213
-581.161845
-544.779879
-533.897746
-544.779879
-533.897746
-498.084303
-486.670340
-498.084303
-486.670340
-451.385079
-439.478641
-451.385079
-439.478641
-404.680741
-392.321647
-404.680741
-392.321647
-357.969758
-345.198341
-357.969758
-345.198341
-311.250531
-298.107705
-311.250531
-298.107705
-264.521366
-251.048536
-264.521366
-251.048536
-217.780743
-204.021458
-217.780743
-204.021458
-171.024367
-157.005509
-171.024367
-157.005509
-124.278172
-110.242645
-124.278172
-110.242645
-77.207782
-60.665727
-77.207782
-60.665727
-27.183173
-16.638996
-27.183173
-16.638996

SCALARS sigma_zz FLOAT 1
LOOKUP_TABLE default
0.000000
0.000000
0.000000
0.000000
0.000000
0.000000
0.000000
0.000000
0.000000
0.000000
0.000000
0.000000
0.000000
0.000000
0.000000
0.000000
0.000000
0.000000
0.000000
0.000000
0.000000
0.000000
0.000000
0.000000
0.000000
0.000000
0.000000
0.000000
0.000000
0.000000
0.000000
0.000000
0.000000
0.000000
0.000000
0.000000
0.000000
0.000000
0.000000
0.000000
0.000000
0.000000
0.000000
0.000000
0.000000
0.000000
0.000000
0.000000
0.000000
0.000000
0.000000
0.000000
0.000000
0.000000
0.000000
0.000000
0.000000
0.000000
0.000000
0.000000
0.000000
0.000000
0.000000
0.000000
0.000000
0.000000
0.000000
0.000000
0.000000
0.000000
0.000000
0.000000
0.000000
0.000000
0.000000
0.000000
0.000000
0.000000
0.000000
0.000000
0.000000
0.000000
0.000000
0.000000
0.000000
0.000000
0.000000
0.000000
0.000000
0.000000
0.000000
0.000000
0.000000
0.000000
0.000000
0.000000
0.000000
0.000000
0.000000
0.000000
0.000000
0.000000
0.000000
0.000000
0.000000
0.000000
0.000000
0.000000
0.000000
0.000000
0.000000
0.000000
0.000000
0.000000
0.000000
0.000000
0.000000
0.000000
0.000000
0.000000
0.000000
0.000000
0.000000
0.000000
0.000000
0.000000
0.000000
0.000000
0.000000
0.000000
0.000000
0.000000
0.000000
0.000000
0.000000
0.000000
0.000000
0.000000
0.000000
0.000000
0.000000
0.000000
0.000000
0.000000
0.000000
0.000000
0.000000
0.000000
0.000000
0.000000
0.000000
0.000000
0.000000
0.000000
0.000000
0.000000
0.000000
0.000000
0.000000
0.000000
0.000000
0.000000
0.000000
0.000000
0.000000
0.000000
0.000000
0.000000
0.000000
0.000000
0.000000
0.000000
0.000000
0.000000
0.000000
0.000000
0.000000
0.000000
0.000000
0.000000
0.000000
0.000000
0.000000
0.000000
0.000000
0.000000
0.000000
0.000000
0.000000
0.000000
0.000000
0.000000
0.000000
0.000000
0.000000
0.000000
0.000000
0.000000
0.000000
0.000000
0.000000
0.000000
0.000000
0.000000
0.000000
0.000000
0.000000
0.000000
0.000000
0.000000
0.000000
0.000000
0.000000
0.000000
0.000000
0.000000
0.000000
0.000000
0.000000
0.000000
0.000000
0.000000
0.000000
0.000000
0.000000
0.000000
0.000000
0.000000
0.000000
0.000000
0.000000
0.000000
0.000000
0.000000
0.000000
0.000000
0.000000
0.000000
0.000000
0.000000
0.000000
0.000000
0.000000
0.000000
0.000000
0.000000
0.000000
0.000000
0.000000
0.000000
0.000000
0.000000
0.000000
0.000000
0.000000
0.000000

SCALARS sigma_xy FLOAT 1
LOOKUP_TABLE default
0.000000
0.000000
0.000000
0.000000
0.000000
0.000000
0.000000
0.000000
0.000000
0.000000
0.000000
0.000000
0.000000
0.000000
0.000000
0.000000
0.000000
0.000000
0.000000
0.000000
0.000000
0.000000
0.000000
0.000000
0.000000
0.000000
0.000000
0.000000
0.000000
-0.000000
0.000000
-0.000000
0.000000
0.000000
0.000000
0.000000
0.000000
0.000000
0.000000
0.000000
0.000000
0.000000
0.000000
0.000000
0.000000
0.000000
0.000000
0.000000
0.000000
0.000000
0.000000
0.000000
0.000000
0.000000
0.000000
0.000000
0.000000
0.000000
0.000000
0.000000
0.000000
0.000000
0.000000
0.000000
0.000000
0.000000
0.000000
0.000000
0.000000
0.000000
0.000000
0.000000
0.000000
0.000000
0.000000
0.000000
0.000000
0.000000
0.000000
0.000000
-0.000000
-0.000000
-0.000000
-0.000000
0.000000
0.000000
0.000000
0.000000
-0.000000
0.000000
-0.000000
0.000000
0.000000
0.000000
0.000000
0.000000
0.000000
0.000000
0.000000
0.000000
0.000000
0.000000
0.000000
0.000000
0.000000
0.000000
0.000000
0.000000
0.000000
-0.000000
0.000000
-0.000000
-0.000000
0.000000
-0.000000
0.000000
0.000000
0.000000
0.000000
0.000000
0.000000
0.000000
0.000000
0.000000
0.000000
0.000000
0.000000
0.000000
-0.000000
-0.000000
-0.000000
-0.000000
0.000000
0.000000
0.000000
0.000000
0.000000
0.000000
0.000000
0.000000
0.000000
0.000000
0.000000
0.000000
-0.000000
-0.000000
-0.000000
-0.000000
0.000000
0.000000
0.000000
0.000000
0.000000
0.000000
0.000000
0.000000
0.000000
0.000000
0.000000
0.000000
-0.000000
-0.000000
-0.000000
-0.000000
-0.000000
-0.000000
-0.000000
-0.000000
-0.000000
0.000000
-0.000000
0.000000
0.000000
0.000000
0.000000
0.000000
0.000000
0.000000
0.000000
0.000000
0.000000
0.000000
0.000000
0.000000
0.000000
0.000000
0.000000
0.000000
0.000000
0.000000
0.000000
0.000000
0.000000
0.000000
0.000000
0.000000
0.000000
0.000000
0.000000
0.000000
0.000000
0.000000
0.000000
0.000000
0.000000
0.000000
0.000000
0.000000
0.000000
0.000000
0.000000
0.000000
0.000000
0.000000
0.000000
0.000000
0.000000
0.000000
0.000000
0.000000
0.000000
0.000000
0.000000
0.000000
-0.000000
0.000000
-0.000000
0.000000
0.000000
0.000000
0.000000
0.000000
0.000000
-0.000000
0.000000
-0.000000
-0.000000
-0.000000
-0.000000
-0.000000
-0.000000
0.000000
-0.000000
0.000000
0.000000
-0.000000
0.000000
-0.000000
0.000000
0.000000
0.000000
0.000000
0.000000
0.000000
0.000000
0.000000

SCALARS sigma_yz FLOAT 1
LOOKUP_TABLE default
0.000000
0.000000
0.000000
0.000000
0.000000
0.000000
0.000000
0.000000
0.000000
0.000000
0.000000
0.000000
0.000000
0.000000
0.000000
0.000000
0.000000
0.000000
0.000000
0.000000
0.000000
0.000000
0.000000
0.000000
0.000000
0.000000
0.000000
0.000000
0.000000
0.000000
0.000000
0.000000
0.000000
0.000000
0.000000
0.000000
0.000000
0.000000
0.000000
0.000000
0.000000
0.000000
0.000000
0.000000
0.000000
0.000000
0.000000
0.000000
0.000000
0.000000
0.000000
0.000000
0.000000
0.000000
0.000000
0.000000
0.000000
0.000000
0.000000
0.000000
0.000000
0.000000
0.000000
0.000000
0.000000
0.000000
0.000000
0.000000
0.000000
0.000000
0.000000
0.000000
0.000000
0.000000
0.000000
0.000000
0.000000
0.000000
0.000000
0.000000
0.000000
0.000000
0.000000
0.000000
0.000000
0.000000
0.000000
0.000000
0.000000
0.000000
0.000000
0.000000
0.000000
0.000000
0.000000
0.000000
0.000000
0.000000
0.000000
0.000000
0.000000
0.000000
0.000000
0.000000
0.000000
0.000000
0.000000
0.000000
0.000000
0.000000
0.000000
0.000000
0.000000
0.000000
0.000000
0.000000
0.000000
0.000000
0.000000
0.000000
0.000000
0.000000
0.000000
0.000000
0.000000
0.000000
0.000000
0.000000
0.000000
0.000000
0.000000
0.000000
0.000000
0.000000
0.000000
0.000000
0.000000
0.000000
0.000000
0.000000
0.000000
0.000000
0.000000
0.000000
0.000000
0.000000
0.000000
0.000000
0.000000
0.000000
0.000000
0.000000
0.000000
0.000000
0.000000
0.000000
0.000000
0.000000
0.000000
0.000000
0.000000
0.000000
0.000000
0.000000
0.000000
0.000000
0.000000
0.000000
0.000000
0.000000
0.000000
0.000000
0.000000
0.000000
0.000000
0.000000
0.000000
0.000000
0.000000
0.000000
0.000000
0.000000
0.000000
0.000000
0.000000
0.000000
0.000000
0.000000
0.000000
0.000000
0.000000
0.000000
0.000000
0.000000
0.000000
0.000000
0.000000
0.000000
0.000000
0.000000
0.000000
0.000000
0.000000
0.000000
0.000000
0.000000
0.000000
0.000000
0.000000
0.000000
0.000000
0.000000
0.000000
0.000000
0.000000
0.000000
0.000000
0.000000
0.000000
0.000000
0.000000
0.000000
0.000000
0.000000
0.000000
0.000000
0.000000
0.000000
0.000000
0.000000
0.000000
0.000000
0.000000
0.000000
0.000000
0.000000
0.000000
0.000000
0.000000
0.000000
0.000000
0.000000
0.000000
0.000000
0.000000
0.000000
0.000000
0.000000
0.000000
0.000000
0.000000
0.000000
0.000000
0.000000
0.000000
0.000000

SCALARS sigma_zx FLOAT 1
LOOKUP_TABLE default
0.000000
0.000000
0.000000
0.000000
0.000000
0.000000
0.000000
0.000000
0.000000
0.000000
0.000000
0.000000
0.000000
0.000000
0.000000
0.000000
0.000000
0.000000
0.000000
0.000000
0.000000
0.000000
0.000000
0.000000
0.000000
0.000000
0.000000
0.000000
0.000000
0.000000
0.000000
0.000000
0.000000
0.000000
0.000000
0.000000
0.000000
0.000000
0.000000
0.000000
0.000000
0.000000
0.000000
0.000000
0.000000
0.000000
0.000000
0.000000
0.000000
0.000000
0.000000
0.000000
0.000000
0.000000
0.000000
0.000000
0.000000
0.000000
0.000000
0.000000
0.000000
0.000000
0.000000
0.000000
0.000000
0.000000
0.000000
0.000000
0.000000
0.000000
0.000000
0.000000
0.000000
0.000000
0.000000
0.000000
0.000000
0.000000
0.000000
0.000000
0.000000
0.000000
0.000000
0.000000
0.000000
0.000000
0.000000
0.000000
0.000000
0.000000
0.000000
0.000000
0.000000
0.000000
0.000000
0.000000
0.000000
0.000000
0.000000
0.000000
0.000000
0.000000
0.000000
0.000000
0.000000
0.000000
0.000000
0.000000
0.000000
0.000000
0.000000
0.000000
0.000000
0.000000
0.000000
0.000000
0.000000
0.000000
0.000000
0.000000
0.000000
0.000000
0.000000
0.000000
0.000000
0.000000
0.000000
0.000000
0.000000
0.000000
0.000000
0.000000
0.000000
0.000000
0.000000
0.000000
0.000000
0.000000
0.000000
0.000000
0.000000
0.000000
0.000000
0.000000
0.000000
0.000000
0.000000
0.000000
0.000000
0.000000
0.000000
0.000000
0.000000
0.000000
0.000000
0.000000
0.000000
0.000000
0.000000
0.000000
0.000000
0.000000
0.000000
0.000000
0.000000
0.000000
0.000000
0.000000
0.000000
0.000000
0.000000
0.000000
0.000000
0.000000
0.000000
0.000000
0.000000
0.000000
0.000000
0.000000
0.000000
0.000000
0.000000
0.000000
0.000000
0.000000
0.000000
0.000000
0.000000
0.000000
0.000000
0.000000
0.000000
0.000000
0.000000
0.000000
0.000000
0.000000
0.000000
0.000000
0.000000
0.000000
0.000000
0.000000
0.000000
0.000000
0.000000
0.000000
0.000000
0.000000
0.000000
0.000000
0.000000
0.000000
0.000000
0.000000
0.000000
0.000000
0.000000
0.000000
0.000000
0.000000
0.000000
0.000000
0.000000
0.000000
0.000000
0.000000
0.000000
0.000000
0.000000
0.000000
0.000000
0.000000
0.000000
0.000000
0.000000
0.000000
0.000000
0.000000
0.000000
0.000000
0.000000
0.000000
0.000000
0.000000
0.000000
0.000000
0.000000
0.000000
0.000000
0.000000
0.000000
0.000000
0.000000
0.000000

SCALARS u_x FLOAT 1
LOOKUP_TABLE default
0.000000
0.000000
0.000000
0.000000
0.000000
0.000000
0.000000
0.000000
0.000000
0.000000
0.000000
0.000000
0.000000
0.000000
0.000000
0.000000
0.000000
0.000000
0.000000
0.000000
0.000000
0.000000
0.000000
0.000000
0.000000
0.000000
0.000000
0.000000
0.000000
0.000000
0.000000
0.000000
0.000000
0.000000
0.000000
0.000000
0.000000
0.000000
0.000000
0.000000
0.000000
0.000000
0.000000
0.000000
0.000000
0.000000
0.000000
0.000000
0.000000
0.000000
0.000000
0.000000
0.000000
0.000000
0.000000
0.000000
0.000000
0.000000
0.000000
0.000000
0.000000
0.000000
0.000000
0.000000
0.000000
0.000000
0.000000
0.000000
0.000000
0.000000
0.000000
0.000000
0.000000
0.000000
0.000000
0.000000
0.000000
0.000000
0.000000
0.000000
0.000000
0.000000
0.000000
0.000000
0.000000
0.000000
0.000000
0.000000
0.000000
0.000000
0.000000
0.000000
0.000000
0.000000
0.000000
0.000000
0.000000
0.000000
0.000000
0.000000
0.000000
0.000000
0.000000
0.000000
0.000000
0.000000
0.000000
0.000000
0.000000
0.000000
0.000000
0.000000
0.000000
0.000000
0.000000
0.000000
0.000000
0.000000
0.000000
0.000000
0.000000
0.000000
0.000000
0.000000
0.000000
0.000000
0.000000
0.000000
0.000000
0.000000
0.000000
0.000000
0.000000
0.000000
0.000000
0.000000
0.000000
0.000000
0.000000
0.000000
0.000000
0.000000
0.000000
0.000000
0.000000
0.000000
0.000000
0.000000
0.000000
0.000000
0.000000
0.000000
0.000000
0.000000
0.000000
0.000000
0.000000
0.000000
0.000000
0.000000
0.000000
0.000000
0.000000
0.000000
0.000000
0.000000
0.000000
0.000000
0.000000
0.000000
0.000000
0.000000
0.000000
0.000000
0.000000
0.000000
0.000000
0.000000
0.000000
0.000000
0.000000
0.000000
0.000000
0.000000
0.000000
0.000000
0.000000
0.000000
0.000000
0.000000
0.000000
0.000000
0.000000
0.000000
0.000000
0.000000
0.000000
0.000000
0.000000
0.000000
0.000000
0.000000
0.000000
0.000000
0.000000
0.000000
0.000000
0.000000
0.000000
0.000000
0.000000
0.000000
0.000000
0.000000
0.000000
0.000000
0.000000
0.000000
0.000000
0.000000
0.000000
0.000000
0.000000
0.000000
0.000000
0.000000
0.000000
0.000000
0.000000
0.000000
0.000000
0.000000
0.000000
0.000000
0.000000
0.000000
0.000000
0.000000
0.000000
0.000000
0.000000
0.000000
0.000000
0.000000
0.000000
0.000000
0.000000
0.000000
0.000000
0.000000
0.000000
0.000000
0.000000
0.000000
0.000000
0.000000

SCALARS u_y FLOAT 1
LOOKUP_TABLE default
-0.040969
-0.122907
-0.040969
-0.122907
-0.204465
-0.285360
-0.204465
-0.285360
-0.365946
-0.445874
-0.365946
-0.445874
-0.525464
-0.604499
-0.525464
-0.604499
-0.683139
-0.761278
-0.683139
-0.761278
-0.838869
-0.916033
-0.838869
-0.916033
-0.992648
-1.068835
-0.992648
-1.068835
-1.144534
-1.219798
-1.144534
-1.219798
-1.294550
-1.368780
-1.294550
-1.368780
-1.442493
-1.515721
-1.442493
-1.515721
-1.588385
-1.660655
-1.588385
-1.660655
-1.732327
-1.803606
-1.732327
-1.803606
-1.874209
-1.944415
-1.874209
-1.944415
-2.013987
-2.083077
-2.013987
-2.083077
-2.151734
-2.219835
-2.151734
-2.219835
-2.287542
-2.354534
-2.287542
-2.354534
-2.421186
-2.487063
-2.421186
-2.487063
-2.552589
-2.617410
-2.552589
-2.617410
-2.681815
-2.745627
-2.681815
-2.745627
-2.808937
-2.871735
-2.808937
-2.871735
-2.933875
-2.995576
-2.933875
-2.995576
-3.056561
-3.117117
-3.056561
-3.117117
-3.176995
-3.236436
-3.176995
-3.236436
-3.295247
-3.353582
-3.295247
-3.353582
-3.411302
-3.468445
-3.411302
-3.468445
-3.524997
-3.580955
-3.524997
-3.580955
-3.636318
-3.691098
-3.636318
-3.691098
-3.745253
-3.798887
-3.745253
-3.798887
-3.851889
-3.904358
-3.851889
-3.904358
-3.956122
-4.007381
-3.956122
-4.007381
-4.057934
-4.107923
-4.057934
-4.107923
-4.157255
-4.205971
-4.157255
-4.205971
-4.254089
-4.301519
-4.254089
-4.301519
-4.348473
-4.394709
-4.348473
-4.394709
-4.440477
-4.485392
-4.440477
-4.485392
-4.529878
-4.573479
-4.529878
-4.573479
-4.616654
-4.658944
-4.616654
-4.658944
-4.700783
-4.741762
-4.700783
-4.741762
-4.782236
-4.821913
-4.782236
-4.821913
-4.861011
-4.899419
-4.861011
-4.899419
-4.937186
-4.974317
-4.937186
-4.974317
-5.010679
-5.046463
-5.010679
-5.046463
-5.081403
-5.115811
-5.081403
-5.115811
-5.149324
-5.182330
-5.149324
-5.182330
-5.214411
-5.245991
-5.214411
-5.245991
-5.276634
-5.306763
-5.276634
-5.306763
-5.335960
-5.364617
-5.335960
-5.364617
-5.392361
-5.419526
-5.392361
-5.419526
-5.445843
-5.471571
-5.445843
-5.471571
-5.496443
-5.520640
-5.496443
-5.520640
-5.544007
-5.566658
-5.544007
-5.566658
-5.588500
-5.609591
-5.588500
-5.609591
-5.629885
-5.649401
-5.629885
-5.649401
-5.668127
-5.686050
-5.668127
-5.686050
-5.703185
-5.719498
-5.703185
-5.719498
-5.735022
-5.749707
-5.735022
-5.749707
-5.763598
-5.776636
-5.763598
-5.776636
-5.788871
-5.800242
-5.788871
-5.800242
-5.810800
-5.820482
-5.810800
-5.820482
-5.829341
-5.837313
-5.829341
-5.837313
-5.844450
-5.850690
-5.844450
-5.850690
-5.856081
-5.860569
-5.856081
-5.860569
-5.864199
-5.866848
-5.864199
-5.866848
-5.868548
-5.869371
-5.868548
-5.869371

