# vtk DataFile Version 2.0
MATLAB generated vtk file, WMC
ASCII
DATASET UNSTRUCTURED_GRID
POINTS 128 double
0.781250 0.781250 0.584106 
0.781250 0.781250 1.752317 
0.781250 2.343750 0.584106 
0.781250 2.343750 1.752317 
2.343750 0.781250 0.584106 
2.343750 0.781250 1.752317 
2.343750 2.343750 0.584106 
2.343750 2.343750 1.752317 
0.781250 0.781250 2.926998 
0.781250 0.781250 4.115655 
0.781250 2.343750 2.926998 
0.781250 2.343750 4.115655 
2.343750 0.781250 2.926998 
2.343750 0.781250 4.115655 
2.343750 2.343750 2.926998 
2.343750 2.343750 4.115655 
0.781250 0.781250 5.309953 
0.781250 0.781250 6.516057 
0.781250 2.343750 5.309953 
0.781250 2.343750 6.516057 
2.343750 0.781250 5.309953 
2.343750 0.781250 6.516057 
2.343750 2.343750 5.309953 
2.343750 2.343750 6.516057 
0.781250 0.781250 7.728605 
0.781250 0.781250 8.951432 
0.781250 2.343750 7.728605 
0.781250 2.343750 8.951432 
2.343750 0.781250 7.728605 
2.343750 0.781250 8.951432 
2.343750 2.343750 7.728605 
2.343750 2.343750 8.951432 
0.781250 0.781250 10.185152 
0.781250 0.781250 11.428485 
0.781250 2.343750 10.185152 
0.781250 2.343750 11.428485 
2.343750 0.781250 10.185152 
2.343750 0.781250 11.428485 
2.343750 2.343750 10.185152 
2.343750 2.343750 11.428485 
0.781250 0.781250 12.682425 
0.781250 0.781250 13.945751 
0.781250 2.343750 12.682425 
0.781250 2.343750 13.945751 
2.343750 0.781250 12.682425 
2.343750 0.781250 13.945751 
2.343750 2.343750 12.682425 
2.343750 2.343750 13.945751 
0.781250 0.781250 15.219950 
0.781250 0.781250 16.504605 
0.781250 2.343750 15.219950 
0.781250 2.343750 16.504605 
2.343750 0.781250 15.219950 
2.343750 0.781250 16.504605 
2.343750 2.343750 15.219950 
2.343750 2.343750 16.504605 
0.781250 0.781250 17.800484 
0.781250 0.781250 19.109276 
0.781250 2.343750 17.800484 
0.781250 2.343750 19.109276 
2.343750 0.781250 17.800484 
2.343750 0.781250 19.109276 
2.343750 2.343750 17.800484 
2.343750 2.343750 19.109276 
0.781250 0.781250 20.428663 
0.781250 0.781250 21.760838 
0.781250 2.343750 20.428663 
0.781250 2.343750 21.760838 
2.343750 0.781250 20.428663 
2.343750 0.781250 21.760838 
2.343750 2.343750 20.428663 
2.343750 2.343750 21.760838 
0.781250 0.781250 23.105343 
0.781250 0.781250 24.461859 
0.781250 2.343750 23.105343 
0.781250 2.343750 24.461859 
2.343750 0.781250 23.105343 
2.343750 0.781250 24.461859 
2.343750 2.343750 23.105343 
2.343750 2.343750 24.461859 
0.781250 0.781250 25.831511 
0.781250 0.781250 27.213848 
0.781250 2.343750 25.831511 
0.781250 2.343750 27.213848 
2.343750 0.781250 25.831511 
2.343750 0.781250 27.213848 
2.343750 2.343750 25.831511 
2.343750 2.343750 27.213848 
0.781250 0.781250 28.611645 
0.781250 0.781250 30.022195 
0.781250 2.343750 28.611645 
0.781250 2.343750 30.022195 
2.343750 0.781250 28.611645 
2.343750 0.781250 30.022195 
2.343750 2.343750 28.611645 
2.343750 2.343750 30.022195 
0.781250 0.781250 31.449337 
0.781250 0.781250 32.889857 
0.781250 2.343750 31.449337 
0.781250 2.343750 32.889857 
2.343750 0.781250 31.449337 
2.343750 0.781250 32.889857 
2.343750 2.343750 31.449337 
2.343750 2.343750 32.889857 
0.781250 0.781250 34.348185 
0.781250 0.781250 35.820372 
0.781250 2.343750 34.348185 
0.781250 2.343750 35.820372 
2.343750 0.781250 34.348185 
2.343750 0.781250 35.820372 
2.343750 2.343750 34.348185 
2.343750 2.343750 35.820372 
0.781250 0.781250 37.311519 
0.781250 0.781250 38.818577 
0.781250 2.343750 37.311519 
0.781250 2.343750 38.818577 
2.343750 0.781250 37.311519 
2.343750 0.781250 38.818577 
2.343750 2.343750 37.311519 
2.343750 2.343750 38.818577 
0.781250 0.781250 40.340290 
0.781250 0.781250 41.877568 
0.781250 2.343750 40.340290 
0.781250 2.343750 41.877568 
2.343750 0.781250 40.340290 
2.343750 0.781250 41.877568 
2.343750 2.343750 40.340290 
2.343750 2.343750 41.877568 

POINT_DATA 128
SCALARS sigma_xx FLOAT 1
LOOKUP_TABLE default
0.000000
-0.000000
0.000000
-0.000000
0.000000
-0.000000
0.000000
0.000000
0.000000
-0.000000
-0.000000
0.000000
0.000000
0.000000
-0.000000
-0.000000
-0.000000
0.000000
-0.000000
0.000000
0.000000
0.000000
-0.000000
-0.000000
-0.000000
-0.000000
0.000000
-0.000000
0.000000
0.000000
-0.000000
0.000000
0.000000
-0.000000
0.000000
0.000000
0.000000
0.000000
-0.000000
-0.000000
-0.000000
0.000000
-0.000000
0.000000
0.000000
-0.000000
-0.000000
-0.000000
0.000000
-0.000000
0.000000
-0.000000
-0.000000
0.000000
0.000000
0.000000
-0.000000
-0.000000
-0.000000
-0.000000
-0.000000
-0.000000
0.000000
0.000000
0.000000
-0.000000
-0.000000
0.000000
-0.000000
-0.000000
-0.000000
-0.000000
-0.000000
-0.000000
-0.000000
-0.000000
-0.000000
-0.000000
0.000000
0.000000
-0.000000
-0.000000
-0.000000
0.000000
0.000000
-0.000000
-0.000000
0.000000
0.000000
0.000000
0.000000
0.000000
0.000000
0.000000
-0.000000
-0.000000
-0.000000
-0.000000
-0.000000
0.000000
-0.000000
-0.000000
-0.000000
0.000000
-0.000000
0.000000
-0.000000
-0.000000
-0.000000
-0.000000
-0.000000
0.000000
-0.000000
-0.000000
0.000000
-0.000000
-0.000000
0.000000
-0.000000
-0.000000
-0.000000
0.000000
-0.000000
-0.000000
0.000000
-0.000000
-0.000000
0.000000

SCALARS sigma_yy FLOAT 1
LOOKUP_TABLE default
0.000000
-0.000000
0.000000
-0.000000
-0.000000
-0.000000
0.000000
0.000000
0.000000
-0.000000
-0.000000
0.000000
0.000000
0.000000
-0.000000
-0.000000
-0.000000
-0.000000
-0.000000
0.000000
0.000000
0.000000
-0.000000
-0.000000
-0.000000
-0.000000
0.000000
0.000000
-0.000000
-0.000000
-0.000000
0.000000
0.000000
-0.000000
0.000000
0.000000
-0.000000
0.000000
-0.000000
-0.000000
0.000000
0.000000
-0.000000
0.000000
0.000000
-0.000000
-0.000000
0.000000
0.000000
-0.000000
0.000000
-0.000000
-0.000000
-0.000000
0.000000
0.000000
-0.000000
-0.000000
-0.000000
-0.000000
-0.000000
0.000000
0.000000
0.000000
0.000000
-0.000000
-0.000000
0.000000
-0.000000
0.000000
-0.000000
-0.000000
-0.000000
-0.000000
-0.000000
-0.000000
-0.000000
-0.000000
0.000000
0.000000
-0.000000
-0.000000
-0.000000
0.000000
-0.000000
-0.000000
-0.000000
0.000000
0.000000
0.000000
0.000000
0.000000
0.000000
-0.000000
-0.000000
-0.000000
-0.000000
-0.000000
0.000000
0.000000
0.000000
-0.000000
0.000000
-0.000000
-0.000000
0.000000
-0.000000
-0.000000
-0.000000
0.000000
-0.000000
-0.000000
-0.000000
-0.000000
0.000000
0.000000
-0.000000
0.000000
-0.000000
-0.000000
-0.000000
0.000000
-0.000000
-0.000000
0.000000
-0.000000
-0.000000
0.000000

SCALARS sigma_zz FLOAT 1
LOOKUP_TABLE default
-3889.672100
-3889.672100
-3889.672100
-3889.672100
-3889.672100
-3889.672100
-3889.672100
-3889.672100
-3655.576064
-3579.450439
-3655.576064
-3579.450439
-3655.576064
-3579.450439
-3655.576064
-3579.450439
-3420.399179
-3319.951837
-3420.399179
-3319.951837
-3420.399179
-3319.951837
-3420.399179
-3319.951837
-3196.539836
-3066.766682
-3196.539836
-3066.766682
-3196.539836
-3066.766682
-3196.539836
-3066.766682
-2921.778835
-2819.221606
-2921.778835
-2819.221606
-2921.778835
-2819.221606
-2921.778835
-2819.221606
-2670.735053
-2582.199984
-2670.735053
-2582.199984
-2670.735053
-2582.199984
-2670.735053
-2582.199984
-2425.415004
-2336.692279
-2425.415004
-2336.692279
-2425.415004
-2336.692279
-2425.415004
-2336.692279
-2171.965525
-2071.792630
-2171.965525
-2071.792630
-2171.965525
-2071.792630
-2171.965525
-2071.792630
-1928.381111
-1815.619348
-1928.381111
-1815.619348
-1928.381111
-1815.619348
-1928.381111
-1815.619348
-1678.299469
-1572.094321
-1678.299469
-1572.094321
-1678.299469
-1572.094321
-1678.299469
-1572.094321
-1434.711418
-1322.827413
-1434.711418
-1322.827413
-1434.711418
-1322.827413
-1434.711418
-1322.827413
-1178.142913
-1074.238038
-1178.142913
-1074.238038
-1178.142913
-1074.238038
-1178.142913
-1074.238038
-924.198801
-824.373152
-924.198801
-824.373152
-924.198801
-824.373152
-924.198801
-824.373152
-671.274191
-577.108104
-671.274191
-577.108104
-671.274191
-577.108104
-671.274191
-577.108104
-416.043148
-333.459123
-416.043148
-333.459123
-416.043148
-333.459123
-416.043148
-333.459123
-217.556563
-15.175657
-217.556563
-15.175657
-217.556563
-15.175657
-217.556563
-15.175657

SCALARS sigma_xy FLOAT 1
LOOKUP_TABLE default
0.000000
0.000000
-0.000000
0.000000
0.000000
0.000000
0.000000
0.000000
-0.000000
0.000000
0.000000
-0.000000
0.000000
0.000000
-0.000000
0.000000
-0.000000
0.000000
-0.000000
0.000000
-0.000000
0.000000
0.000000
-0.000000
-0.000000
0.000000
0.000000
0.000000
0.000000
-0.000000
-0.000000
0.000000
0.000000
0.000000
0.000000
0.000000
0.000000
0.000000
0.000000
0.000000
0.000000
0.000000
0.000000
0.000000
0.000000
0.000000
-0.000000
-0.000000
0.000000
0.000000
0.000000
-0.000000
0.000000
0.000000
-0.000000
-0.000000
0.000000
0.000000
-0.000000
-0.000000
0.000000
-0.000000
0.000000
0.000000
0.000000
0.000000
0.000000
0.000000
-0.000000
-0.000000
-0.000000
-0.000000
0.000000
0.000000
0.000000
0.000000
-0.000000
0.000000
0.000000
0.000000
-0.000000
-0.000000
-0.000000
0.000000
0.000000
-0.000000
0.000000
0.000000
-0.000000
0.000000
-0.000000
-0.000000
-0.000000
0.000000
-0.000000
0.000000
0.000000
0.000000
0.000000
0.000000
-0.000000
-0.000000
-0.000000
0.000000
0.000000
0.000000
-0.000000
-0.000000
-0.000000
0.000000
-0.000000
0.000000
-0.000000
0.000000
0.000000
-0.000000
0.000000
0.000000
-0.000000
-0.000000
0.000000
-0.000000
-0.000000
-0.000000
-0.000000
0.000000
-0.000000
0.000000

SCALARS sigma_yz FLOAT 1
LOOKUP_TABLE default
0.000000
0.000000
0.000000
0.000000
-0.000000
-0.000000
-0.000000
0.000000
0.000000
0.000000
-0.000000
0.000000
0.000000
0.000000
-0.000000
0.000000
0.000000
0.000000
0.000000
0.000000
0.000000
0.000000
0.000000
0.000000
0.000000
-0.000000
0.000000
-0.000000
0.000000
0.000000
0.000000
0.000000
-0.000000
0.000000
0.000000
0.000000
0.000000
-0.000000
0.000000
0.000000
-0.000000
0.000000
0.000000
0.000000
0.000000
0.000000
0.000000
-0.000000
-0.000000
0.000000
0.000000
0.000000
0.000000
0.000000
0.000000
0.000000
0.000000
-0.000000
0.000000
0.000000
0.000000
0.000000
0.000000
0.000000
0.000000
-0.000000
0.000000
-0.000000
0.000000
-0.000000
0.000000
0.000000
-0.000000
-0.000000
0.000000
0.000000
-0.000000
-0.000000
0.000000
0.000000
-0.000000
0.000000
-0.000000
0.000000
0.000000
0.000000
0.000000
0.000000
0.000000
-0.000000
0.000000
-0.000000
-0.000000
-0.000000
0.000000
0.000000
0.000000
-0.000000
0.000000
-0.000000
-0.000000
-0.000000
-0.000000
0.000000
0.000000
0.000000
0.000000
-0.000000
-0.000000
-0.000000
0.000000
0.000000
-0.000000
-0.000000
0.000000
0.000000
-0.000000
-0.000000
0.000000
0.000000
0.000000
-0.000000
0.000000
0.000000
-0.000000
-0.000000
0.000000
0.000000

SCALARS sigma_zx FLOAT 1
LOOKUP_TABLE default
0.000000
0.000000
-0.000000
0.000000
0.000000
0.000000
-0.000000
0.000000
-0.000000
-0.000000
-0.000000
0.000000
0.000000
0.000000
-0.000000
-0.000000
0.000000
0.000000
0.000000
0.000000
0.000000
0.000000
0.000000
0.000000
0.000000
0.000000
0.000000
-0.000000
0.000000
0.000000
0.000000
0.000000
0.000000
0.000000
0.000000
0.000000
0.000000
0.000000
0.000000
0.000000
-0.000000
0.000000
0.000000
0.000000
0.000000
0.000000
0.000000
0.000000
-0.000000
0.000000
-0.000000
0.000000
0.000000
-0.000000
0.000000
0.000000
-0.000000
0.000000
-0.000000
-0.000000
-0.000000
0.000000
0.000000
0.000000
0.000000
-0.000000
0.000000
-0.000000
0.000000
0.000000
0.000000
0.000000
-0.000000
-0.000000
-0.000000
0.000000
0.000000
-0.000000
-0.000000
0.000000
-0.000000
0.000000
-0.000000
0.000000
0.000000
0.000000
-0.000000
0.000000
0.000000
-0.000000
-0.000000
-0.000000
-0.000000
0.000000
0.000000
-0.000000
0.000000
-0.000000
0.000000
-0.000000
0.000000
0.000000
-0.000000
0.000000
-0.000000
-0.000000
0.000000
-0.000000
0.000000
-0.000000
0.000000
0.000000
-0.000000
0.000000
-0.000000
-0.000000
0.000000
-0.000000
0.000000
0.000000
0.000000
-0.000000
-0.000000
0.000000
0.000000
-0.000000
0.000000
0.000000

SCALARS u_x FLOAT 1
LOOKUP_TABLE default
0.000000
0.000000
0.000000
0.000000
0.000000
0.000000
0.000000
0.000000
0.000000
0.000000
0.000000
0.000000
0.000000
0.000000
0.000000
0.000000
0.000000
0.000000
0.000000
0.000000
0.000000
0.000000
0.000000
0.000000
0.000000
0.000000
0.000000
0.000000
0.000000
0.000000
0.000000
0.000000
0.000000
0.000000
0.000000
0.000000
0.000000
0.000000
0.000000
0.000000
0.000000
0.000000
0.000000
0.000000
0.000000
0.000000
0.000000
0.000000
0.000000
0.000000
0.000000
0.000000
0.000000
0.000000
0.000000
0.000000
0.000000
0.000000
0.000000
0.000000
0.000000
0.000000
0.000000
0.000000
0.000000
0.000000
0.000000
0.000000
0.000000
0.000000
0.000000
0.000000
0.000000
0.000000
0.000000
0.000000
0.000000
0.000000
0.000000
0.000000
0.000000
0.000000
0.000000
0.000000
0.000000
0.000000
0.000000
0.000000
0.000000
0.000000
0.000000
0.000000
0.000000
0.000000
0.000000
0.000000
0.000000
0.000000
0.000000
0.000000
0.000000
0.000000
0.000000
0.000000
0.000000
0.000000
0.000000
0.000000
0.000000
0.000000
0.000000
0.000000
0.000000
0.000000
0.000000
0.000000
0.000000
0.000000
0.000000
0.000000
0.000000
0.000000
0.000000
0.000000
0.000000
0.000000
0.000000
0.000000

SCALARS u_y FLOAT 1
LOOKUP_TABLE default
0.000000
0.000000
0.000000
0.000000
0.000000
0.000000
0.000000
0.000000
0.000000
0.000000
0.000000
0.000000
0.000000
0.000000
0.000000
0.000000
0.000000
0.000000
0.000000
0.000000
0.000000
0.000000
0.000000
0.000000
0.000000
0.000000
0.000000
0.000000
0.000000
0.000000
0.000000
0.000000
0.000000
0.000000
0.000000
0.000000
0.000000
0.000000
0.000000
0.000000
0.000000
0.000000
0.000000
0.000000
0.000000
0.000000
0.000000
0.000000
0.000000
0.000000
0.000000
0.000000
0.000000
0.000000
0.000000
0.000000
0.000000
0.000000
0.000000
0.000000
0.000000
0.000000
0.000000
0.000000
0.000000
0.000000
0.000000
0.000000
0.000000
0.000000
0.000000
0.000000
0.000000
0.000000
0.000000
0.000000
0.000000
0.000000
0.000000
0.000000
0.000000
0.000000
0.000000
0.000000
0.000000
0.000000
0.000000
0.000000
0.000000
0.000000
0.000000
0.000000
0.000000
0.000000
0.000000
0.000000
0.000000
0.000000
0.000000
0.000000
0.000000
0.000000
0.000000
0.000000
0.000000
0.000000
0.000000
0.000000
0.000000
0.000000
0.000000
0.000000
0.000000
0.000000
0.000000
0.000000
0.000000
0.000000
0.000000
0.000000
0.000000
0.000000
0.000000
0.000000
0.000000
0.000000
0.000000
0.000000

SCALARS u_z FLOAT 1
LOOKUP_TABLE default
-0.197144
-0.591433
-0.197144
-0.591433
-0.197144
-0.591433
-0.197144
-0.591433
-0.979252
-1.353095
-0.979252
-1.353095
-0.979252
-1.353095
-0.979252
-1.353095
-1.721297
-2.077693
-1.721297
-2.077693
-1.721297
-2.077693
-1.721297
-2.077693
-2.427645
-2.767318
-2.427645
-2.767318
-2.427645
-2.767318
-2.427645
-2.767318
-3.096098
-3.415265
-3.096098
-3.415265
-3.096098
-3.415265
-3.096098
-3.415265
-3.723825
-4.022999
-3.723825
-4.022999
-3.723825
-4.022999
-3.723825
-4.022999
-4.311300
-4.589145
-4.311300
-4.589145
-4.311300
-4.589145
-4.311300
-4.589145
-4.855766
-5.109474
-4.855766
-5.109474
-4.855766
-5.109474
-4.855766
-5.109474
-5.352587
-5.582912
-5.352587
-5.582912
-5.352587
-5.582912
-5.352587
-5.582912
-5.800907
-6.006891
-5.800907
-6.006891
-5.800907
-6.006891
-5.800907
-6.006891
-6.199739
-6.379902
-6.199739
-6.379902
-6.199739
-6.379902
-6.199739
-6.379902
-6.544605
-6.696555
-6.544605
-6.696555
-6.544605
-6.696555
-6.544605
-6.696555
-6.831913
-6.953893
-6.831913
-6.953893
-6.831913
-6.953893
-6.831913
-6.953893
-7.058065
-7.148378
-7.058065
-7.148378
-7.058065
-7.148378
-7.058065
-7.148378
-7.219731
-7.275173
-7.219731
-7.275173
-7.219731
-7.275173
-7.219731
-7.275173
-7.315960
-7.341182
-7.315960
-7.341182
-7.315960
-7.341182
-7.315960
-7.341182

