# vtk DataFile Version 2.0
MATLAB generated vtk file, WMC
ASCII
DATASET UNSTRUCTURED_GRID
POINTS 128 double
0.781250 0.781250 0.270072 
0.781250 0.781250 0.810216 
0.781250 2.343750 0.270072 
0.781250 2.343750 0.810216 
2.343750 0.781250 0.270072 
2.343750 0.781250 0.810216 
2.343750 2.343750 0.270072 
2.343750 2.343750 0.810216 
0.781250 0.781250 1.353452 
0.781250 0.781250 1.907150 
0.781250 2.343750 1.353452 
0.781250 2.343750 1.907150 
2.343750 0.781250 1.353452 
2.343750 0.781250 1.907150 
2.343750 2.343750 1.353452 
2.343750 2.343750 1.907150 
0.781250 0.781250 2.471423 
0.781250 0.781250 3.048819 
0.781250 2.343750 2.471423 
0.781250 2.343750 3.048819 
2.343750 0.781250 2.471423 
2.343750 0.781250 3.048819 
2.343750 2.343750 2.471423 
2.343750 2.343750 3.048819 
0.781250 0.781250 3.637486 
0.781250 0.781250 4.236494 
0.781250 2.343750 3.637486 
0.781250 2.343750 4.236494 
2.343750 0.781250 3.637486 
2.343750 0.781250 4.236494 
2.343750 2.343750 3.637486 
2.343750 2.343750 4.236494 
0.781250 0.781250 4.846746 
0.781250 0.781250 5.470185 
0.781250 2.343750 4.846746 
0.781250 2.343750 5.470185 
2.343750 0.781250 4.846746 
2.343750 0.781250 5.470185 
2.343750 2.343750 4.846746 
2.343750 2.343750 5.470185 
0.781250 0.781250 6.107582 
0.781250 0.781250 6.760037 
0.781250 2.343750 6.107582 
0.781250 2.343750 6.760037 
2.343750 0.781250 6.107582 
2.343750 0.781250 6.760037 
2.343750 2.343750 6.107582 
2.343750 2.343750 6.760037 
0.781250 0.781250 7.426198 
0.781250 0.781250 8.107508 
0.781250 2.343750 7.426198 
0.781250 2.343750 8.107508 
2.343750 0.781250 7.426198 
2.343750 0.781250 8.107508 
2.343750 2.343750 7.426198 
2.343750 2.343750 8.107508 
0.781250 0.781250 8.806061 
0.781250 0.781250 9.524204 
0.781250 2.343750 8.806061 
0.781250 2.343750 9.524204 
2.343750 0.781250 8.806061 
2.343750 0.781250 9.524204 
2.343750 2.343750 8.806061 
2.343750 2.343750 9.524204 
0.781250 0.781250 10.259681 
0.781250 0.781250 11.015049 
0.781250 2.343750 10.259681 
0.781250 2.343750 11.015049 
2.343750 0.781250 10.259681 
2.343750 0.781250 11.015049 
2.343750 2.343750 10.259681 
2.343750 2.343750 11.015049 
0.781250 0.781250 11.792979 
0.781250 0.781250 12.595521 
0.781250 2.343750 11.792979 
0.781250 2.343750 12.595521 
2.343750 0.781250 11.792979 
2.343750 0.781250 12.595521 
2.343750 2.343750 11.792979 
2.343750 2.343750 12.595521 
0.781250 0.781250 13.423108 
0.781250 0.781250 14.278396 
0.781250 2.343750 13.423108 
0.781250 2.343750 14.278396 
2.343750 0.781250 13.423108 
2.343750 0.781250 14.278396 
2.343750 2.343750 13.423108 
2.343750 2.343750 14.278396 
0.781250 0.781250 15.164160 
0.781250 0.781250 16.083756 
0.781250 2.343750 15.164160 
0.781250 2.343750 16.083756 
2.343750 0.781250 15.164160 
2.343750 0.781250 16.083756 
2.343750 2.343750 15.164160 
2.343750 2.343750 16.083756 
0.781250 0.781250 17.039576 
0.781250 0.781250 18.040912 
0.781250 2.343750 17.039576 
0.781250 2.343750 18.040912 
2.343750 0.781250 17.039576 
2.343750 0.781250 18.040912 
2.343750 2.343750 17.039576 
2.343750 2.343750 18.040912 
0.781250 0.781250 19.092247 
0.781250 0.781250 20.187204 
0.781250 2.343750 19.092247 
0.781250 2.343750 20.187204 
2.343750 0.781250 19.092247 
2.343750 0.781250 20.187204 
2.343750 2.343750 19.092247 
2.343750 2.343750 20.187204 
0.781250 0.781250 21.338956 
0.781250 0.781250 22.600061 
0.781250 2.343750 21.338956 
0.781250 2.343750 22.600061 
2.343750 0.781250 21.338956 
2.343750 0.781250 22.600061 
2.343750 2.343750 21.338956 
2.343750 2.343750 22.600061 
0.781250 0.781250 23.926326 
0.781250 0.781250 25.279812 
0.781250 2.343750 23.926326 
0.781250 2.343750 25.279812 
2.343750 0.781250 23.926326 
2.343750 0.781250 25.279812 
2.343750 2.343750 23.926326 
2.343750 2.343750 25.279812 

POINT_DATA 128
SCALARS sigma_xx FLOAT 1
LOOKUP_TABLE default
-0.000000
-0.000000
0.000000
-0.000000
0.000000
0.000000
-0.000000
-0.000000
-0.000000
-0.000000
0.000000
-0.000000
-0.000000
-0.000000
0.000000
-0.000000
-0.000000
0.000000
-0.000000
-0.000000
0.000000
-0.000000
-0.000000
0.000000
-0.000000
-0.000000
0.000000
0.000000
-0.000000
-0.000000
0.000000
0.000000
0.000000
-0.000000
0.000000
-0.000000
-0.000000
-0.000000
-0.000000
-0.000000
0.000000
-0.000000
-0.000000
-0.000000
-0.000000
0.000000
-0.000000
0.000000
0.000000
-0.000000
-0.000000
-0.000000
0.000000
-0.000000
-0.000000
0.000000
-0.000000
-0.000000
0.000000
-0.000000
-0.000000
-0.000000
0.000000
0.000000
0.000000
0.000000
-0.000000
-0.000000
-0.000000
-0.000000
0.000000
-0.000000
-0.000000
-0.000000
-0.000000
-0.000000
-0.000000
0.000000
0.000000
0.000000
-0.000000
-0.000000
-0.000000
0.000000
-0.000000
-0.000000
0.000000
0.000000
0.000000
0.000000
0.000000
-0.000000
0.000000
0.000000
0.000000
-0.000000
-0.000000
0.000000
-0.000000
-0.000000
0.000000
0.000000
0.000000
0.000000
-0.000000
-0.000000
0.000000
-0.000000
-0.000000
0.000000
0.000000
-0.000000
0.000000
-0.000000
-0.000000
0.000000
-0.000000
0.000000
0.000000
0.000000
-0.000000
-0.000000
-0.000000
-0.000000
0.000000
0.000000
-0.000000
0.000000

SCALARS sigma_yy FLOAT 1
LOOKUP_TABLE default
0.000000
-0.000000
-0.000000
0.000000
-0.000000
0.000000
-0.000000
0.000000
-0.000000
-0.000000
0.000000
-0.000000
-0.000000
0.000000
0.000000
0.000000
-0.000000
-0.000000
-0.000000
0.000000
0.000000
-0.000000
-0.000000
0.000000
-0.000000
-0.000000
-0.000000
-0.000000
-0.000000
0.000000
-0.000000
-0.000000
-0.000000
0.000000
0.000000
-0.000000
-0.000000
-0.000000
-0.000000
-0.000000
-0.000000
-0.000000
0.000000
0.000000
-0.000000
-0.000000
0.000000
0.000000
0.000000
0.000000
0.000000
-0.000000
0.000000
0.000000
-0.000000
0.000000
0.000000
-0.000000
-0.000000
-0.000000
-0.000000
-0.000000
-0.000000
-0.000000
-0.000000
-0.000000
0.000000
-0.000000
-0.000000
-0.000000
0.000000
0.000000
-0.000000
0.000000
0.000000
-0.000000
-0.000000
-0.000000
0.000000
-0.000000
0.000000
-0.000000
-0.000000
-0.000000
-0.000000
-0.000000
0.000000
-0.000000
-0.000000
0.000000
-0.000000
-0.000000
-0.000000
-0.000000
-0.000000
-0.000000
-0.000000
-0.000000
-0.000000
-0.000000
-0.000000
-0.000000
0.000000
0.000000
-0.000000
-0.000000
0.000000
0.000000
0.000000
0.000000
0.000000
0.000000
-0.000000
-0.000000
0.000000
0.000000
-0.000000
-0.000000
0.000000
-0.000000
-0.000000
0.000000
0.000000
-0.000000
0.000000
-0.000000
0.000000
0.000000

SCALARS sigma_zz FLOAT 1
LOOKUP_TABLE default
-30726.962569
-30726.962569
-30726.962569
-30726.962569
-30726.962569
-30726.962569
-30726.962569
-30726.962569
-29835.935467
-28797.679821
-29835.935467
-28797.679821
-29835.935467
-28797.679821
-29835.935467
-28797.679821
-27538.154984
-26409.766835
-27538.154984
-26409.766835
-27538.154984
-26409.766835
-27538.154984
-26409.766835
-25432.060204
-24585.394813
-25432.060204
-24585.394813
-25432.060204
-24585.394813
-25432.060204
-24585.394813
-23533.746468
-22544.953658
-23533.746468
-22544.953658
-23533.746468
-22544.953658
-23533.746468
-22544.953658
-21390.254182
-20484.716611
-21390.254182
-20484.716611
-21390.254182
-20484.716611
-21390.254182
-20484.716611
-19517.505892
-18556.197102
-19517.505892
-18556.197102
-19517.505892
-18556.197102
-19517.505892
-18556.197102
-17427.544231
-16472.327780
-17427.544231
-16472.327780
-17427.544231
-16472.327780
-17427.544231
-16472.327780
-15506.625116
-14568.389355
-15506.625116
-14568.389355
-15506.625116
-14568.389355
-15506.625116
-14568.389355
-13465.510740
-12490.203923
-13465.510740
-12490.203923
-13465.510740
-12490.203923
-13465.510740
-12490.203923
-11505.142653
-10509.729708
-11505.142653
-10509.729708
-11505.142653
-10509.729708
-11505.142653
-10509.729708
-9510.387763
-8543.875147
-9510.387763
-8543.875147
-9510.387763
-8543.875147
-9510.387763
-8543.875147
-7492.365112
-6392.586576
-7492.365112
-6392.586576
-7492.365112
-6392.586576
-7492.365112
-6392.586576
-5444.701521
-4708.968099
-5444.701521
-4708.968099
-5444.701521
-4708.968099
-5444.701521
-4708.968099
-3386.521767
-2210.837211
-3386.521767
-2210.837211
-3386.521767
-2210.837211
-3386.521767
-2210.837211
-1762.083073
-438.221056
-1762.083073
-438.221056
-1762.083073
-438.221056
-1762.083073
-438.221056

SCALARS sigma_xy FLOAT 1
LOOKUP_TABLE default
0.000000
-0.000000
-0.000000
-0.000000
-0.000000
-0.000000
-0.000000
-0.000000
-0.000000
0.000000
0.000000
0.000000
0.000000
-0.000000
-0.000000
0.000000
0.000000
0.000000
-0.000000
-0.000000
-0.000000
0.000000
-0.000000
-0.000000
-0.000000
0.000000
0.000000
-0.000000
0.000000
0.000000
0.000000
-0.000000
-0.000000
-0.000000
-0.000000
0.000000
0.000000
0.000000
0.000000
0.000000
0.000000
-0.000000
0.000000
-0.000000
0.000000
-0.000000
0.000000
-0.000000
0.000000
-0.000000
0.000000
0.000000
-0.000000
-0.000000
-0.000000
0.000000
-0.000000
0.000000
-0.000000
0.000000
0.000000
0.000000
0.000000
0.000000
-0.000000
-0.000000
0.000000
0.000000
-0.000000
0.000000
0.000000
0.000000
0.000000
0.000000
-0.000000
-0.000000
0.000000
-0.000000
-0.000000
0.000000
0.000000
-0.000000
-0.000000
0.000000
-0.000000
0.000000
0.000000
-0.000000
0.000000
-0.000000
0.000000
-0.000000
0.000000
-0.000000
0.000000
-0.000000
-0.000000
-0.000000
0.000000
0.000000
0.000000
-0.000000
-0.000000
0.000000
-0.000000
0.000000
0.000000
-0.000000
-0.000000
0.000000
-0.000000
0.000000
0.000000
0.000000
-0.000000
0.000000
-0.000000
0.000000
0.000000
-0.000000
0.000000
0.000000
-0.000000
-0.000000
-0.000000
-0.000000
0.000000
0.000000

SCALARS sigma_yz FLOAT 1
LOOKUP_TABLE default
0.000000
0.000000
-0.000000
-0.000000
0.000000
-0.000000
0.000000
-0.000000
-0.000000
0.000000
-0.000000
-0.000000
-0.000000
-0.000000
-0.000000
-0.000000
-0.000000
-0.000000
-0.000000
0.000000
-0.000000
-0.000000
-0.000000
0.000000
-0.000000
-0.000000
0.000000
-0.000000
-0.000000
-0.000000
0.000000
0.000000
-0.000000
-0.000000
-0.000000
-0.000000
-0.000000
0.000000
-0.000000
0.000000
-0.000000
0.000000
0.000000
0.000000
0.000000
-0.000000
0.000000
0.000000
-0.000000
0.000000
0.000000
0.000000
-0.000000
0.000000
0.000000
-0.000000
0.000000
0.000000
0.000000
0.000000
-0.000000
0.000000
-0.000000
0.000000
0.000000
0.000000
0.000000
0.000000
0.000000
-0.000000
0.000000
0.000000
-0.000000
-0.000000
0.000000
0.000000
-0.000000
-0.000000
0.000000
0.000000
-0.000000
-0.000000
-0.000000
0.000000
-0.000000
0.000000
0.000000
0.000000
0.000000
-0.000000
0.000000
0.000000
-0.000000
0.000000
0.000000
0.000000
-0.000000
-0.000000
0.000000
0.000000
-0.000000
-0.000000
0.000000
0.000000
-0.000000
-0.000000
0.000000
0.000000
-0.000000
-0.000000
0.000000
0.000000
-0.000000
-0.000000
0.000000
0.000000
-0.000000
-0.000000
0.000000
0.000000
-0.000000
-0.000000
-0.000000
0.000000
-0.000000
-0.000000
0.000000
-0.000000

SCALARS sigma_zx FLOAT 1
LOOKUP_TABLE default
0.000000
-0.000000
-0.000000
-0.000000
0.000000
-0.000000
0.000000
0.000000
-0.000000
-0.000000
-0.000000
-0.000000
-0.000000
-0.000000
-0.000000
0.000000
-0.000000
-0.000000
-0.000000
-0.000000
-0.000000
-0.000000
-0.000000
-0.000000
-0.000000
-0.000000
-0.000000
0.000000
-0.000000
-0.000000
0.000000
0.000000
-0.000000
0.000000
0.000000
0.000000
-0.000000
0.000000
0.000000
0.000000
-0.000000
-0.000000
0.000000
-0.000000
0.000000
-0.000000
0.000000
0.000000
-0.000000
-0.000000
-0.000000
-0.000000
-0.000000
-0.000000
-0.000000
-0.000000
-0.000000
0.000000
-0.000000
-0.000000
0.000000
0.000000
-0.000000
-0.000000
0.000000
0.000000
-0.000000
-0.000000
0.000000
0.000000
-0.000000
0.000000
-0.000000
-0.000000
0.000000
0.000000
0.000000
-0.000000
0.000000
0.000000
-0.000000
-0.000000
-0.000000
-0.000000
-0.000000
0.000000
0.000000
0.000000
0.000000
-0.000000
-0.000000
-0.000000
0.000000
0.000000
0.000000
0.000000
-0.000000
-0.000000
0.000000
-0.000000
-0.000000
-0.000000
0.000000
0.000000
-0.000000
0.000000
-0.000000
-0.000000
0.000000
0.000000
0.000000
0.000000
0.000000
0.000000
-0.000000
-0.000000
0.000000
0.000000
0.000000
0.000000
-0.000000
-0.000000
-0.000000
-0.000000
0.000000
0.000000
0.000000
0.000000

SCALARS u_x FLOAT 1
LOOKUP_TABLE default
0.000000
0.000000
0.000000
0.000000
0.000000
0.000000
0.000000
0.000000
0.000000
0.000000
0.000000
0.000000
0.000000
0.000000
0.000000
0.000000
0.000000
0.000000
0.000000
0.000000
0.000000
0.000000
0.000000
0.000000
0.000000
0.000000
0.000000
0.000000
0.000000
0.000000
0.000000
0.000000
0.000000
0.000000
0.000000
0.000000
0.000000
0.000000
0.000000
0.000000
0.000000
0.000000
0.000000
0.000000
0.000000
0.000000
0.000000
0.000000
0.000000
0.000000
0.000000
0.000000
0.000000
0.000000
0.000000
0.000000
0.000000
0.000000
0.000000
0.000000
0.000000
0.000000
0.000000
0.000000
0.000000
0.000000
0.000000
0.000000
0.000000
0.000000
0.000000
0.000000
0.000000
0.000000
0.000000
0.000000
0.000000
0.000000
0.000000
0.000000
0.000000
0.000000
0.000000
0.000000
0.000000
0.000000
0.000000
0.000000
0.000000
0.000000
0.000000
0.000000
0.000000
0.000000
0.000000
0.000000
0.000000
0.000000
0.000000
0.000000
0.000000
0.000000
0.000000
0.000000
0.000000
0.000000
0.000000
0.000000
0.000000
0.000000
0.000000
0.000000
0.000000
0.000000
0.000000
0.000000
0.000000
0.000000
0.000000
0.000000
0.000000
0.000000
0.000000
0.000000
0.000000
0.000000
0.000000
0.000000

SCALARS u_y FLOAT 1
LOOKUP_TABLE default
0.000000
0.000000
0.000000
0.000000
0.000000
0.000000
0.000000
0.000000
0.000000
0.000000
0.000000
0.000000
0.000000
0.000000
0.000000
0.000000
0.000000
0.000000
0.000000
0.000000
0.000000
0.000000
0.000000
0.000000
0.000000
0.000000
0.000000
0.000000
0.000000
0.000000
0.000000
0.000000
0.000000
0.000000
0.000000
0.000000
0.000000
0.000000
0.000000
0.000000
0.000000
0.000000
0.000000
0.000000
0.000000
0.000000
0.000000
0.000000
0.000000
0.000000
0.000000
0.000000
0.000000
0.000000
0.000000
0.000000
0.000000
0.000000
0.000000
0.000000
0.000000
0.000000
0.000000
0.000000
0.000000
0.000000
0.000000
0.000000
0.000000
0.000000
0.000000
0.000000
0.000000
0.000000
0.000000
0.000000
0.000000
0.000000
0.000000
0.000000
0.000000
0.000000
0.000000
0.000000
0.000000
0.000000
0.000000
0.000000
0.000000
0.000000
0.000000
0.000000
0.000000
0.000000
0.000000
0.000000
0.000000
0.000000
0.000000
0.000000
0.000000
0.000000
0.000000
0.000000
0.000000
0.000000
0.000000
0.000000
0.000000
0.000000
0.000000
0.000000
0.000000
0.000000
0.000000
0.000000
0.000000
0.000000
0.000000
0.000000
0.000000
0.000000
0.000000
0.000000
0.000000
0.000000
0.000000
0.000000

SCALARS u_z FLOAT 1
LOOKUP_TABLE default
-0.511178
-1.533534
-0.511178
-1.533534
-0.511178
-1.533534
-0.511178
-1.533534
-2.552798
-3.561600
-2.552798
-3.561600
-2.552798
-3.561600
-2.552798
-3.561600
-4.559827
-5.544931
-4.559827
-5.544931
-4.559827
-5.544931
-4.559827
-5.544931
-6.518764
-7.482256
-6.518764
-7.482256
-6.518764
-7.482256
-6.518764
-7.482256
-8.434504
-9.373565
-8.434504
-9.373565
-8.434504
-9.373565
-8.434504
-9.373565
-10.298668
-11.208713
-10.298668
-11.208713
-10.298668
-11.208713
-10.298668
-11.208713
-12.105052
-12.986242
-12.105052
-12.986242
-12.105052
-12.986242
-12.105052
-12.986242
-13.850189
-14.694546
-13.850189
-14.694546
-13.850189
-14.694546
-13.850189
-14.694546
-15.521569
-16.328701
-15.521569
-16.328701
-15.521569
-16.328701
-15.521569
-16.328701
-17.113271
-17.873229
-17.113271
-17.873229
-17.113271
-17.873229
-17.113271
-17.873229
-18.608142
-19.315354
-18.608142
-19.315354
-18.608142
-19.315354
-18.608142
-19.315354
-19.992090
-20.634994
-19.992090
-20.634994
-19.992090
-20.634994
-19.992090
-20.634994
-21.241674
-21.802838
-21.241674
-21.802838
-21.241674
-21.802838
-21.241674
-21.802838
-22.314003
-22.781546
-22.314003
-22.781546
-22.314003
-22.781546
-22.314003
-22.781546
-23.192294
-23.493689
-23.192294
-23.493689
-23.192294
-23.493689
-23.192294
-23.493689
-23.729924
-23.938938
-23.729924
-23.938938
-23.729924
-23.938938
-23.729924
-23.938938

