# vtk DataFile Version 2.0
MATLAB generated vtk file, WMC
ASCII
DATASET UNSTRUCTURED_GRID
POINTS 128 double
0.781250 0.781250 0.324236 
0.781250 0.781250 0.972707 
0.781250 2.343750 0.324236 
0.781250 2.343750 0.972707 
2.343750 0.781250 0.324236 
2.343750 0.781250 0.972707 
2.343750 2.343750 0.324236 
2.343750 2.343750 0.972707 
0.781250 0.781250 1.624892 
0.781250 0.781250 2.289636 
0.781250 2.343750 1.624892 
0.781250 2.343750 2.289636 
2.343750 0.781250 1.624892 
2.343750 0.781250 2.289636 
2.343750 2.343750 1.624892 
2.343750 2.343750 2.289636 
0.781250 0.781250 2.967048 
0.781250 0.781250 3.657845 
0.781250 2.343750 2.967048 
0.781250 2.343750 3.657845 
2.343750 0.781250 2.967048 
2.343750 0.781250 3.657845 
2.343750 2.343750 2.967048 
2.343750 2.343750 3.657845 
0.781250 0.781250 4.358379 
0.781250 0.781250 5.070991 
0.781250 2.343750 4.358379 
0.781250 2.343750 5.070991 
2.343750 0.781250 4.358379 
2.343750 0.781250 5.070991 
2.343750 2.343750 4.358379 
2.343750 2.343750 5.070991 
0.781250 0.781250 5.796979 
0.781250 0.781250 6.537745 
0.781250 2.343750 5.796979 
0.781250 2.343750 6.537745 
2.343750 0.781250 5.796979 
2.343750 0.781250 6.537745 
2.343750 2.343750 5.796979 
2.343750 2.343750 6.537745 
0.781250 0.781250 7.290991 
0.781250 0.781250 8.058885 
0.781250 2.343750 7.290991 
0.781250 2.343750 8.058885 
2.343750 0.781250 7.290991 
2.343750 0.781250 8.058885 
2.343750 2.343750 7.290991 
2.343750 2.343750 8.058885 
0.781250 0.781250 8.842638 
0.781250 0.781250 9.643353 
0.781250 2.343750 8.842638 
0.781250 2.343750 9.643353 
2.343750 0.781250 8.842638 
2.343750 0.781250 9.643353 
2.343750 2.343750 8.842638 
2.343750 2.343750 9.643353 
0.781250 0.781250 10.460342 
0.781250 0.781250 11.295945 
0.781250 2.343750 10.460342 
0.781250 2.343750 11.295945 
2.343750 0.781250 10.460342 
2.343750 0.781250 11.295945 
2.343750 2.343750 10.460342 
2.343750 2.343750 11.295945 
0.781250 0.781250 12.150615 
0.781250 0.781250 13.027958 
0.781250 2.343750 12.150615 
0.781250 2.343750 13.027958 
2.343750 0.781250 12.150615 
2.343750 0.781250 13.027958 
2.343750 2.343750 12.150615 
2.343750 2.343750 13.027958 
0.781250 0.781250 13.927381 
0.781250 0.781250 14.850159 
0.781250 2.343750 13.927381 
0.781250 2.343750 14.850159 
2.343750 0.781250 13.927381 
2.343750 0.781250 14.850159 
2.343750 2.343750 13.927381 
2.343750 2.343750 14.850159 
0.781250 0.781250 15.798732 
0.781250 0.781250 16.773147 
0.781250 2.343750 15.798732 
0.781250 2.343750 16.773147 
2.343750 0.781250 15.798732 
2.343750 0.781250 16.773147 
2.343750 2.343750 15.798732 
2.343750 2.343750 16.773147 
0.781250 0.781250 17.776400 
0.781250 0.781250 18.812724 
0.781250 2.343750 17.776400 
0.781250 2.343750 18.812724 
2.343750 0.781250 17.776400 
2.343750 0.781250 18.812724 
2.343750 2.343750 17.776400 
2.343750 2.343750 18.812724 
0.781250 0.781250 19.884740 
0.781250 0.781250 20.995046 
0.781250 2.343750 19.884740 
0.781250 2.343750 20.995046 
2.343750 0.781250 19.884740 
2.343750 0.781250 20.995046 
2.343750 2.343750 19.884740 
2.343750 2.343750 20.995046 
0.781250 0.781250 22.148714 
0.781250 0.781250 23.343850 
0.781250 2.343750 22.148714 
0.781250 2.343750 23.343850 
2.343750 0.781250 22.148714 
2.343750 0.781250 23.343850 
2.343750 2.343750 22.148714 
2.343750 2.343750 23.343850 
0.781250 0.781250 24.593435 
0.781250 0.781250 25.927647 
0.781250 2.343750 24.593435 
0.781250 2.343750 25.927647 
2.343750 0.781250 24.593435 
2.343750 0.781250 25.927647 
2.343750 2.343750 24.593435 
2.343750 2.343750 25.927647 
0.781250 0.781250 27.309582 
0.781250 0.781250 28.724127 
0.781250 2.343750 27.309582 
0.781250 2.343750 28.724127 
2.343750 0.781250 27.309582 
2.343750 0.781250 28.724127 
2.343750 2.343750 27.309582 
2.343750 2.343750 28.724127 

POINT_DATA 128
SCALARS sigma_xx FLOAT 1
LOOKUP_TABLE default
-0.000000
-0.000000
0.000000
-0.000000
0.000000
0.000000
0.000000
-0.000000
-0.000000
-0.000000
0.000000
-0.000000
-0.000000
0.000000
0.000000
-0.000000
-0.000000
0.000000
-0.000000
-0.000000
0.000000
-0.000000
-0.000000
0.000000
-0.000000
-0.000000
0.000000
0.000000
-0.000000
0.000000
0.000000
0.000000
0.000000
-0.000000
0.000000
0.000000
-0.000000
-0.000000
-0.000000
0.000000
-0.000000
-0.000000
-0.000000
-0.000000
-0.000000
-0.000000
-0.000000
-0.000000
0.000000
-0.000000
-0.000000
-0.000000
0.000000
-0.000000
-0.000000
-0.000000
-0.000000
-0.000000
0.000000
-0.000000
-0.000000
-0.000000
-0.000000
0.000000
0.000000
0.000000
-0.000000
-0.000000
-0.000000
-0.000000
-0.000000
-0.000000
-0.000000
0.000000
-0.000000
-0.000000
-0.000000
0.000000
0.000000
0.000000
-0.000000
-0.000000
-0.000000
0.000000
0.000000
-0.000000
0.000000
0.000000
0.000000
-0.000000
0.000000
-0.000000
0.000000
0.000000
0.000000
-0.000000
-0.000000
0.000000
-0.000000
0.000000
0.000000
-0.000000
0.000000
0.000000
-0.000000
-0.000000
0.000000
-0.000000
-0.000000
0.000000
0.000000
-0.000000
0.000000
-0.000000
-0.000000
0.000000
-0.000000
0.000000
0.000000
0.000000
0.000000
-0.000000
-0.000000
-0.000000
0.000000
0.000000
-0.000000
0.000000

SCALARS sigma_yy FLOAT 1
LOOKUP_TABLE default
0.000000
-0.000000
0.000000
-0.000000
-0.000000
0.000000
-0.000000
0.000000
0.000000
-0.000000
0.000000
0.000000
-0.000000
0.000000
0.000000
0.000000
-0.000000
0.000000
-0.000000
0.000000
0.000000
-0.000000
-0.000000
0.000000
0.000000
-0.000000
0.000000
-0.000000
-0.000000
-0.000000
0.000000
-0.000000
0.000000
-0.000000
0.000000
-0.000000
-0.000000
-0.000000
-0.000000
-0.000000
-0.000000
-0.000000
-0.000000
0.000000
-0.000000
-0.000000
-0.000000
0.000000
0.000000
-0.000000
0.000000
-0.000000
0.000000
0.000000
-0.000000
0.000000
0.000000
0.000000
-0.000000
-0.000000
0.000000
-0.000000
-0.000000
0.000000
0.000000
-0.000000
-0.000000
-0.000000
-0.000000
-0.000000
0.000000
-0.000000
-0.000000
0.000000
0.000000
-0.000000
-0.000000
0.000000
0.000000
0.000000
0.000000
-0.000000
-0.000000
-0.000000
0.000000
-0.000000
0.000000
0.000000
-0.000000
0.000000
-0.000000
-0.000000
-0.000000
-0.000000
-0.000000
-0.000000
-0.000000
-0.000000
-0.000000
0.000000
0.000000
-0.000000
0.000000
-0.000000
-0.000000
0.000000
0.000000
0.000000
0.000000
0.000000
0.000000
0.000000
0.000000
-0.000000
0.000000
0.000000
-0.000000
-0.000000
0.000000
-0.000000
-0.000000
0.000000
0.000000
-0.000000
0.000000
-0.000000
-0.000000
0.000000

SCALARS sigma_zz FLOAT 1
LOOKUP_TABLE default
-21189.825612
-21189.825612
-21189.825612
-21189.825612
-21189.825612
-21189.825612
-21189.825612
-21189.825612
-20513.669352
-19726.413915
-20513.669352
-19726.413915
-20513.669352
-19726.413915
-20513.669352
-19726.413915
-18787.910165
-18215.734256
-18787.910165
-18215.734256
-18787.910165
-18215.734256
-18787.910165
-18215.734256
-17538.505703
-16889.913233
-17538.505703
-16889.913233
-17538.505703
-16889.913233
-17538.505703
-16889.913233
-16085.054546
-15462.073559
-16085.054546
-15462.073559
-16085.054546
-15462.073559
-16085.054546
-15462.073559
-14776.684472
-14134.030654
-14776.684472
-14134.030654
-14776.684472
-14134.030654
-14776.684472
-14134.030654
-13384.075651
-12736.435336
-13384.075651
-12736.435336
-13384.075651
-12736.435336
-13384.075651
-12736.435336
-12041.106383
-11392.428845
-12041.106383
-11392.428845
-12041.106383
-11392.428845
-12041.106383
-11392.428845
-10633.022844
-9961.740532
-10633.022844
-9961.740532
-10633.022844
-9961.740532
-10633.022844
-9961.740532
-9239.945645
-8577.412302
-9239.945645
-8577.412302
-9239.945645
-8577.412302
-9239.945645
-8577.412302
-7888.296407
-7246.526268
-7888.296407
-7246.526268
-7888.296407
-7246.526268
-7888.296407
-7246.526268
-6547.190159
-5843.599507
-6547.190159
-5843.599507
-6547.190159
-5843.599507
-6547.190159
-5843.599507
-5135.218076
-4463.786686
-5135.218076
-4463.786686
-5135.218076
-4463.786686
-5135.218076
-4463.786686
-3793.156815
-3210.831489
-3793.156815
-3210.831489
-3793.156815
-3210.831489
-3793.156815
-3210.831489
-2295.679479
-1570.819354
-2295.679479
-1570.819354
-2295.679479
-1570.819354
-2295.679479
-1570.819354
-1257.748225
-229.344567
-1257.748225
-229.344567
-1257.748225
-229.344567
-1257.748225
-229.344567

SCALARS sigma_xy FLOAT 1
LOOKUP_TABLE default
0.000000
-0.000000
0.000000
-0.000000
0.000000
0.000000
0.000000
0.000000
0.000000
-0.000000
0.000000
0.000000
-0.000000
-0.000000
0.000000
0.000000
0.000000
-0.000000
0.000000
-0.000000
-0.000000
-0.000000
-0.000000
0.000000
0.000000
0.000000
-0.000000
-0.000000
0.000000
-0.000000
-0.000000
0.000000
-0.000000
0.000000
-0.000000
-0.000000
0.000000
0.000000
0.000000
0.000000
0.000000
0.000000
0.000000
-0.000000
0.000000
-0.000000
-0.000000
-0.000000
0.000000
0.000000
0.000000
0.000000
-0.000000
-0.000000
-0.000000
-0.000000
0.000000
-0.000000
-0.000000
0.000000
0.000000
0.000000
0.000000
-0.000000
-0.000000
-0.000000
0.000000
-0.000000
-0.000000
0.000000
0.000000
0.000000
0.000000
0.000000
-0.000000
-0.000000
-0.000000
0.000000
-0.000000
0.000000
0.000000
-0.000000
-0.000000
0.000000
-0.000000
0.000000
-0.000000
-0.000000
0.000000
-0.000000
0.000000
-0.000000
0.000000
-0.000000
-0.000000
-0.000000
0.000000
-0.000000
0.000000
0.000000
-0.000000
-0.000000
-0.000000
-0.000000
0.000000
0.000000
0.000000
-0.000000
0.000000
0.000000
-0.000000
-0.000000
-0.000000
0.000000
-0.000000
0.000000
-0.000000
0.000000
0.000000
-0.000000
0.000000
0.000000
-0.000000
0.000000
0.000000
0.000000
-0.000000
-0.000000

SCALARS sigma_yz FLOAT 1
LOOKUP_TABLE default
0.000000
-0.000000
0.000000
0.000000
0.000000
-0.000000
-0.000000
0.000000
-0.000000
0.000000
-0.000000
-0.000000
0.000000
-0.000000
-0.000000
-0.000000
-0.000000
0.000000
0.000000
0.000000
-0.000000
-0.000000
-0.000000
0.000000
-0.000000
0.000000
0.000000
0.000000
-0.000000
0.000000
0.000000
0.000000
0.000000
0.000000
0.000000
0.000000
0.000000
0.000000
-0.000000
0.000000
-0.000000
-0.000000
0.000000
0.000000
-0.000000
-0.000000
0.000000
0.000000
-0.000000
-0.000000
-0.000000
0.000000
-0.000000
-0.000000
0.000000
0.000000
-0.000000
-0.000000
0.000000
0.000000
0.000000
0.000000
-0.000000
0.000000
0.000000
-0.000000
0.000000
0.000000
-0.000000
-0.000000
-0.000000
0.000000
-0.000000
-0.000000
0.000000
0.000000
-0.000000
-0.000000
0.000000
0.000000
-0.000000
-0.000000
0.000000
0.000000
0.000000
0.000000
0.000000
0.000000
0.000000
-0.000000
0.000000
0.000000
-0.000000
-0.000000
-0.000000
0.000000
-0.000000
-0.000000
0.000000
0.000000
-0.000000
-0.000000
0.000000
0.000000
-0.000000
0.000000
0.000000
0.000000
-0.000000
-0.000000
0.000000
0.000000
-0.000000
-0.000000
0.000000
0.000000
-0.000000
-0.000000
0.000000
0.000000
-0.000000
-0.000000
-0.000000
0.000000
-0.000000
-0.000000
0.000000
0.000000

SCALARS sigma_zx FLOAT 1
LOOKUP_TABLE default
0.000000
0.000000
0.000000
0.000000
0.000000
0.000000
-0.000000
0.000000
0.000000
0.000000
0.000000
0.000000
0.000000
0.000000
0.000000
0.000000
0.000000
0.000000
0.000000
-0.000000
0.000000
0.000000
0.000000
0.000000
-0.000000
-0.000000
-0.000000
-0.000000
0.000000
-0.000000
-0.000000
-0.000000
-0.000000
0.000000
-0.000000
0.000000
-0.000000
0.000000
0.000000
0.000000
-0.000000
-0.000000
0.000000
-0.000000
0.000000
0.000000
0.000000
0.000000
-0.000000
-0.000000
-0.000000
0.000000
0.000000
-0.000000
0.000000
0.000000
-0.000000
-0.000000
0.000000
-0.000000
0.000000
0.000000
0.000000
0.000000
-0.000000
-0.000000
-0.000000
0.000000
0.000000
-0.000000
-0.000000
0.000000
-0.000000
-0.000000
0.000000
0.000000
0.000000
-0.000000
0.000000
0.000000
-0.000000
-0.000000
0.000000
-0.000000
-0.000000
0.000000
0.000000
-0.000000
0.000000
-0.000000
-0.000000
-0.000000
0.000000
0.000000
-0.000000
-0.000000
0.000000
-0.000000
-0.000000
-0.000000
0.000000
0.000000
-0.000000
0.000000
-0.000000
-0.000000
0.000000
-0.000000
0.000000
0.000000
0.000000
0.000000
-0.000000
0.000000
-0.000000
-0.000000
0.000000
0.000000
0.000000
-0.000000
-0.000000
-0.000000
-0.000000
-0.000000
0.000000
0.000000
0.000000
0.000000

SCALARS u_x FLOAT 1
LOOKUP_TABLE default
0.000000
0.000000
0.000000
0.000000
0.000000
0.000000
0.000000
0.000000
0.000000
0.000000
0.000000
0.000000
0.000000
0.000000
0.000000
0.000000
0.000000
0.000000
0.000000
0.000000
0.000000
0.000000
0.000000
0.000000
0.000000
0.000000
0.000000
0.000000
0.000000
0.000000
0.000000
0.000000
0.000000
0.000000
0.000000
0.000000
0.000000
0.000000
0.000000
0.000000
0.000000
0.000000
0.000000
0.000000
0.000000
0.000000
0.000000
0.000000
0.000000
0.000000
0.000000
0.000000
0.000000
0.000000
0.000000
0.000000
0.000000
0.000000
0.000000
0.000000
0.000000
0.000000
0.000000
0.000000
0.000000
0.000000
0.000000
0.000000
0.000000
0.000000
0.000000
0.000000
0.000000
0.000000
0.000000
0.000000
0.000000
0.000000
0.000000
0.000000
0.000000
0.000000
0.000000
0.000000
0.000000
0.000000
0.000000
0.000000
0.000000
0.000000
0.000000
0.000000
0.000000
0.000000
0.000000
0.000000
0.000000
0.000000
0.000000
0.000000
0.000000
0.000000
0.000000
0.000000
0.000000
0.000000
0.000000
0.000000
0.000000
0.000000
0.000000
0.000000
0.000000
0.000000
0.000000
0.000000
0.000000
0.000000
0.000000
0.000000
0.000000
0.000000
0.000000
0.000000
0.000000
0.000000
0.000000
0.000000

SCALARS u_y FLOAT 1
LOOKUP_TABLE default
0.000000
0.000000
0.000000
0.000000
0.000000
0.000000
0.000000
0.000000
0.000000
0.000000
0.000000
0.000000
0.000000
0.000000
0.000000
0.000000
0.000000
0.000000
0.000000
0.000000
0.000000
0.000000
0.000000
0.000000
0.000000
0.000000
0.000000
0.000000
0.000000
0.000000
0.000000
0.000000
0.000000
0.000000
0.000000
0.000000
0.000000
0.000000
0.000000
0.000000
0.000000
0.000000
0.000000
0.000000
0.000000
0.000000
0.000000
0.000000
0.000000
0.000000
0.000000
0.000000
0.000000
0.000000
0.000000
0.000000
0.000000
0.000000
0.000000
0.000000
0.000000
0.000000
0.000000
0.000000
0.000000
0.000000
0.000000
0.000000
0.000000
0.000000
0.000000
0.000000
0.000000
0.000000
0.000000
0.000000
0.000000
0.000000
0.000000
0.000000
0.000000
0.000000
0.000000
0.000000
0.000000
0.000000
0.000000
0.000000
0.000000
0.000000
0.000000
0.000000
0.000000
0.000000
0.000000
0.000000
0.000000
0.000000
0.000000
0.000000
0.000000
0.000000
0.000000
0.000000
0.000000
0.000000
0.000000
0.000000
0.000000
0.000000
0.000000
0.000000
0.000000
0.000000
0.000000
0.000000
0.000000
0.000000
0.000000
0.000000
0.000000
0.000000
0.000000
0.000000
0.000000
0.000000
0.000000
0.000000

SCALARS u_z FLOAT 1
LOOKUP_TABLE default
-0.457014
-1.371043
-0.457014
-1.371043
-0.457014
-1.371043
-0.457014
-1.371043
-2.281358
-3.179114
-2.281358
-3.179114
-2.281358
-3.179114
-2.281358
-3.179114
-4.064202
-4.935905
-4.064202
-4.935905
-4.064202
-4.935905
-4.064202
-4.935905
-5.797871
-6.647759
-5.797871
-6.647759
-5.797871
-6.647759
-5.797871
-6.647759
-7.484271
-8.306005
-7.484271
-8.306005
-7.484271
-8.306005
-7.484271
-8.306005
-9.115259
-9.909865
-9.115259
-9.909865
-9.115259
-9.909865
-9.115259
-9.909865
-10.688612
-11.450397
-10.688612
-11.450397
-10.688612
-11.450397
-10.688612
-11.450397
-12.195908
-12.922805
-12.195908
-12.922805
-12.195908
-12.922805
-12.195908
-12.922805
-13.630635
-14.315792
-13.630635
-14.315792
-13.630635
-14.315792
-13.630635
-14.315792
-14.978869
-15.618591
-14.978869
-15.618591
-14.978869
-15.618591
-14.978869
-15.618591
-16.232518
-16.820603
-16.232518
-16.820603
-16.232518
-16.820603
-16.232518
-16.820603
-17.379850
-17.906026
-17.379850
-17.906026
-17.379850
-17.906026
-17.379850
-17.906026
-18.396510
-18.848704
-18.396510
-18.848704
-18.396510
-18.848704
-18.396510
-18.848704
-19.257536
-19.624900
-19.257536
-19.624900
-19.257536
-19.624900
-19.257536
-19.624900
-19.937815
-20.166103
-19.937815
-20.166103
-19.937815
-20.166103
-19.937815
-20.166103
-20.346668
-20.494623
-20.346668
-20.494623
-20.346668
-20.494623
-20.346668
-20.494623

