# vtk DataFile Version 2.0
MATLAB generated vtk file, WMC
ASCII
DATASET UNSTRUCTURED_GRID
POINTS 128 double
0.781250 0.781250 0.448283 
0.781250 0.781250 1.344850 
0.781250 2.343750 0.448283 
0.781250 2.343750 1.344850 
2.343750 0.781250 0.448283 
2.343750 0.781250 1.344850 
2.343750 2.343750 0.448283 
2.343750 2.343750 1.344850 
0.781250 0.781250 2.246550 
0.781250 0.781250 3.165090 
0.781250 2.343750 2.246550 
0.781250 2.343750 3.165090 
2.343750 0.781250 2.246550 
2.343750 0.781250 3.165090 
2.343750 2.343750 2.246550 
2.343750 2.343750 3.165090 
0.781250 0.781250 4.094033 
0.781250 0.781250 5.033624 
0.781250 2.343750 4.094033 
0.781250 2.343750 5.033624 
2.343750 0.781250 4.094033 
2.343750 0.781250 5.033624 
2.343750 2.343750 4.094033 
2.343750 2.343750 5.033624 
0.781250 0.781250 5.985732 
0.781250 0.781250 6.951393 
0.781250 2.343750 5.985732 
0.781250 2.343750 6.951393 
2.343750 0.781250 5.985732 
2.343750 0.781250 6.951393 
2.343750 2.343750 5.985732 
2.343750 2.343750 6.951393 
0.781250 0.781250 7.928013 
0.781250 0.781250 8.918802 
0.781250 2.343750 7.928013 
0.781250 2.343750 8.918802 
2.343750 0.781250 7.928013 
2.343750 0.781250 8.918802 
2.343750 2.343750 7.928013 
2.343750 2.343750 8.918802 
0.781250 0.781250 9.923448 
0.781250 0.781250 10.941731 
0.781250 2.343750 9.923448 
0.781250 2.343750 10.941731 
2.343750 0.781250 9.923448 
2.343750 0.781250 10.941731 
2.343750 2.343750 9.923448 
2.343750 2.343750 10.941731 
0.781250 0.781250 11.975089 
0.781250 0.781250 13.024311 
0.781250 2.343750 11.975089 
0.781250 2.343750 13.024311 
2.343750 0.781250 11.975089 
2.343750 0.781250 13.024311 
2.343750 2.343750 11.975089 
2.343750 2.343750 13.024311 
0.781250 0.781250 14.088695 
0.781250 0.781250 15.170809 
0.781250 2.343750 14.088695 
0.781250 2.343750 15.170809 
2.343750 0.781250 14.088695 
2.343750 0.781250 15.170809 
2.343750 2.343750 14.088695 
2.343750 2.343750 15.170809 
0.781250 0.781250 16.270375 
0.781250 0.781250 17.387760 
0.781250 2.343750 16.270375 
0.781250 2.343750 17.387760 
2.343750 0.781250 16.270375 
2.343750 0.781250 17.387760 
2.343750 2.343750 16.270375 
2.343750 2.343750 17.387760 
0.781250 0.781250 18.526241 
0.781250 0.781250 19.682417 
0.781250 2.343750 18.526241 
0.781250 2.343750 19.682417 
2.343750 0.781250 18.526241 
2.343750 0.781250 19.682417 
2.343750 2.343750 18.526241 
2.343750 2.343750 19.682417 
0.781250 0.781250 20.859174 
0.781250 0.781250 22.059330 
0.781250 2.343750 20.859174 
0.781250 2.343750 22.059330 
2.343750 0.781250 20.859174 
2.343750 0.781250 22.059330 
2.343750 2.343750 20.859174 
2.343750 2.343750 22.059330 
0.781250 0.781250 23.282459 
0.781250 0.781250 24.529688 
0.781250 2.343750 23.282459 
0.781250 2.343750 24.529688 
2.343750 0.781250 23.282459 
2.343750 0.781250 24.529688 
2.343750 2.343750 23.282459 
2.343750 2.343750 24.529688 
0.781250 0.781250 25.804824 
0.781250 0.781250 27.106060 
0.781250 2.343750 25.804824 
0.781250 2.343750 27.106060 
2.343750 0.781250 25.804824 
2.343750 0.781250 27.106060 
2.343750 2.343750 25.804824 
2.343750 2.343750 27.106060 
0.781250 0.781250 28.439920 
0.781250 0.781250 29.804801 
0.781250 2.343750 28.439920 
0.781250 2.343750 29.804801 
2.343750 0.781250 28.439920 
2.343750 0.781250 29.804801 
2.343750 2.343750 28.439920 
2.343750 2.343750 29.804801 
0.781250 0.781250 31.202650 
0.781250 0.781250 32.636782 
0.781250 2.343750 31.202650 
0.781250 2.343750 32.636782 
2.343750 0.781250 31.202650 
2.343750 0.781250 32.636782 
2.343750 2.343750 31.202650 
2.343750 2.343750 32.636782 
0.781250 0.781250 34.106512 
0.781250 0.781250 35.609723 
0.781250 2.343750 34.106512 
0.781250 2.343750 35.609723 
2.343750 0.781250 34.106512 
2.343750 0.781250 35.609723 
2.343750 2.343750 34.106512 
2.343750 2.343750 35.609723 

POINT_DATA 128
SCALARS sigma_xx FLOAT 1
LOOKUP_TABLE default
-0.000000
-0.000000
0.000000
-0.000000
-0.000000
-0.000000
0.000000
-0.000000
-0.000000
-0.000000
0.000000
-0.000000
-0.000000
0.000000
-0.000000
-0.000000
-0.000000
0.000000
-0.000000
-0.000000
0.000000
-0.000000
0.000000
0.000000
-0.000000
-0.000000
0.000000
0.000000
-0.000000
0.000000
-0.000000
-0.000000
-0.000000
-0.000000
0.000000
0.000000
0.000000
0.000000
-0.000000
-0.000000
-0.000000
-0.000000
-0.000000
0.000000
0.000000
-0.000000
-0.000000
-0.000000
0.000000
-0.000000
-0.000000
-0.000000
0.000000
0.000000
0.000000
-0.000000
-0.000000
-0.000000
0.000000
-0.000000
0.000000
-0.000000
-0.000000
-0.000000
0.000000
0.000000
-0.000000
0.000000
-0.000000
-0.000000
-0.000000
-0.000000
-0.000000
0.000000
0.000000
-0.000000
-0.000000
-0.000000
0.000000
0.000000
-0.000000
-0.000000
-0.000000
0.000000
-0.000000
-0.000000
0.000000
0.000000
0.000000
-0.000000
0.000000
-0.000000
-0.000000
0.000000
0.000000
-0.000000
0.000000
0.000000
-0.000000
0.000000
0.000000
-0.000000
-0.000000
0.000000
-0.000000
-0.000000
0.000000
0.000000
-0.000000
0.000000
-0.000000
-0.000000
0.000000
-0.000000
-0.000000
-0.000000
-0.000000
0.000000
0.000000
-0.000000
-0.000000
-0.000000
-0.000000
-0.000000
0.000000
-0.000000
-0.000000
0.000000

SCALARS sigma_yy FLOAT 1
LOOKUP_TABLE default
-0.000000
-0.000000
0.000000
-0.000000
-0.000000
0.000000
0.000000
0.000000
-0.000000
0.000000
0.000000
0.000000
0.000000
0.000000
-0.000000
0.000000
-0.000000
-0.000000
-0.000000
0.000000
0.000000
0.000000
-0.000000
-0.000000
0.000000
-0.000000
0.000000
0.000000
-0.000000
-0.000000
-0.000000
-0.000000
-0.000000
-0.000000
0.000000
-0.000000
0.000000
0.000000
-0.000000
-0.000000
0.000000
-0.000000
0.000000
0.000000
-0.000000
-0.000000
0.000000
-0.000000
0.000000
0.000000
0.000000
-0.000000
-0.000000
-0.000000
0.000000
0.000000
-0.000000
0.000000
-0.000000
-0.000000
-0.000000
-0.000000
-0.000000
-0.000000
0.000000
-0.000000
-0.000000
0.000000
-0.000000
-0.000000
0.000000
-0.000000
-0.000000
0.000000
0.000000
-0.000000
-0.000000
0.000000
0.000000
0.000000
0.000000
-0.000000
0.000000
-0.000000
-0.000000
-0.000000
0.000000
-0.000000
0.000000
-0.000000
0.000000
-0.000000
-0.000000
-0.000000
0.000000
0.000000
-0.000000
0.000000
-0.000000
0.000000
0.000000
-0.000000
0.000000
0.000000
-0.000000
0.000000
0.000000
0.000000
-0.000000
0.000000
-0.000000
-0.000000
-0.000000
0.000000
-0.000000
0.000000
0.000000
-0.000000
0.000000
-0.000000
-0.000000
-0.000000
-0.000000
-0.000000
0.000000
-0.000000
-0.000000
0.000000

SCALARS sigma_zz FLOAT 1
LOOKUP_TABLE default
-9680.499540
-9680.499540
-9680.499540
-9680.499540
-9680.499540
-9680.499540
-9680.499540
-9680.499540
-9276.083794
-8873.566901
-9276.083794
-8873.566901
-9276.083794
-8873.566901
-9276.083794
-8873.566901
-8595.386210
-8325.409554
-8595.386210
-8325.409554
-8595.386210
-8325.409554
-8595.386210
-8325.409554
-7923.777396
-7672.981285
-7923.777396
-7672.981285
-7923.777396
-7672.981285
-7923.777396
-7672.981285
-7343.541059
-7034.879388
-7343.541059
-7034.879388
-7343.541059
-7034.879388
-7343.541059
-7034.879388
-6705.628107
-6433.117319
-6705.628107
-6433.117319
-6705.628107
-6433.117319
-6705.628107
-6433.117319
-6073.409925
-5797.366398
-6073.409925
-5797.366398
-6073.409925
-5797.366398
-6073.409925
-5797.366398
-5463.299490
-5160.307770
-5463.299490
-5160.307770
-5463.299490
-5160.307770
-5463.299490
-5160.307770
-4824.667079
-4541.306327
-4824.667079
-4541.306327
-4824.667079
-4541.306327
-4824.667079
-4541.306327
-4179.324561
-3940.305216
-4179.324561
-3940.305216
-4179.324561
-3940.305216
-4179.324561
-3940.305216
-3589.251514
-3282.818871
-3589.251514
-3282.818871
-3589.251514
-3282.818871
-3589.251514
-3282.818871
-2973.347551
-2665.634581
-2973.347551
-2665.634581
-2973.347551
-2665.634581
-2973.347551
-2665.634581
-2326.604387
-2048.213577
-2326.604387
-2048.213577
-2326.604387
-2048.213577
-2326.604387
-2048.213577
-1680.894123
-1410.371405
-1680.894123
-1410.371405
-1680.894123
-1410.371405
-1680.894123
-1410.371405
-1081.182602
-800.691119
-1081.182602
-800.691119
-1081.182602
-800.691119
-1081.182602
-800.691119
-519.698277
-93.911666
-519.698277
-93.911666
-519.698277
-93.911666
-519.698277
-93.911666

SCALARS sigma_xy FLOAT 1
LOOKUP_TABLE default
-0.000000
0.000000
0.000000
0.000000
0.000000
0.000000
0.000000
0.000000
-0.000000
0.000000
0.000000
0.000000
0.000000
-0.000000
0.000000
-0.000000
0.000000
0.000000
0.000000
-0.000000
-0.000000
-0.000000
-0.000000
0.000000
0.000000
0.000000
-0.000000
-0.000000
0.000000
-0.000000
-0.000000
-0.000000
-0.000000
0.000000
-0.000000
-0.000000
0.000000
-0.000000
0.000000
0.000000
0.000000
-0.000000
0.000000
-0.000000
0.000000
-0.000000
0.000000
-0.000000
0.000000
0.000000
0.000000
0.000000
0.000000
0.000000
-0.000000
-0.000000
0.000000
0.000000
-0.000000
-0.000000
0.000000
0.000000
-0.000000
-0.000000
-0.000000
0.000000
-0.000000
0.000000
-0.000000
0.000000
0.000000
-0.000000
-0.000000
0.000000
-0.000000
-0.000000
0.000000
0.000000
0.000000
0.000000
-0.000000
-0.000000
-0.000000
0.000000
-0.000000
-0.000000
0.000000
-0.000000
0.000000
-0.000000
0.000000
-0.000000
0.000000
-0.000000
-0.000000
-0.000000
-0.000000
-0.000000
0.000000
0.000000
-0.000000
0.000000
-0.000000
-0.000000
0.000000
-0.000000
0.000000
-0.000000
-0.000000
0.000000
0.000000
0.000000
-0.000000
0.000000
0.000000
-0.000000
0.000000
0.000000
-0.000000
-0.000000
0.000000
-0.000000
0.000000
-0.000000
-0.000000
-0.000000
-0.000000
-0.000000

SCALARS sigma_yz FLOAT 1
LOOKUP_TABLE default
0.000000
-0.000000
-0.000000
-0.000000
-0.000000
0.000000
0.000000
0.000000
-0.000000
-0.000000
-0.000000
-0.000000
-0.000000
-0.000000
0.000000
-0.000000
-0.000000
-0.000000
-0.000000
0.000000
0.000000
0.000000
0.000000
0.000000
-0.000000
-0.000000
0.000000
0.000000
0.000000
0.000000
0.000000
0.000000
-0.000000
-0.000000
0.000000
0.000000
0.000000
-0.000000
0.000000
0.000000
-0.000000
0.000000
0.000000
0.000000
-0.000000
-0.000000
0.000000
-0.000000
-0.000000
-0.000000
0.000000
0.000000
-0.000000
0.000000
0.000000
0.000000
-0.000000
0.000000
0.000000
0.000000
0.000000
0.000000
0.000000
0.000000
0.000000
-0.000000
0.000000
0.000000
0.000000
-0.000000
0.000000
0.000000
-0.000000
-0.000000
0.000000
0.000000
-0.000000
-0.000000
-0.000000
0.000000
-0.000000
-0.000000
-0.000000
-0.000000
-0.000000
0.000000
0.000000
0.000000
0.000000
-0.000000
0.000000
0.000000
-0.000000
-0.000000
0.000000
0.000000
-0.000000
-0.000000
0.000000
-0.000000
-0.000000
-0.000000
0.000000
0.000000
0.000000
0.000000
0.000000
0.000000
-0.000000
-0.000000
0.000000
0.000000
-0.000000
-0.000000
0.000000
0.000000
-0.000000
-0.000000
0.000000
0.000000
-0.000000
-0.000000
-0.000000
0.000000
-0.000000
-0.000000
0.000000
0.000000

SCALARS sigma_zx FLOAT 1
LOOKUP_TABLE default
0.000000
-0.000000
0.000000
0.000000
-0.000000
-0.000000
0.000000
0.000000
-0.000000
-0.000000
-0.000000
0.000000
-0.000000
-0.000000
0.000000
0.000000
-0.000000
-0.000000
0.000000
0.000000
-0.000000
0.000000
0.000000
0.000000
-0.000000
-0.000000
-0.000000
-0.000000
0.000000
0.000000
0.000000
-0.000000
-0.000000
-0.000000
0.000000
0.000000
-0.000000
-0.000000
0.000000
0.000000
-0.000000
0.000000
0.000000
-0.000000
0.000000
-0.000000
0.000000
-0.000000
-0.000000
-0.000000
-0.000000
-0.000000
0.000000
-0.000000
0.000000
0.000000
-0.000000
-0.000000
0.000000
-0.000000
0.000000
0.000000
0.000000
0.000000
-0.000000
0.000000
0.000000
0.000000
0.000000
0.000000
-0.000000
0.000000
0.000000
-0.000000
0.000000
0.000000
0.000000
-0.000000
0.000000
0.000000
-0.000000
-0.000000
-0.000000
-0.000000
-0.000000
0.000000
0.000000
0.000000
-0.000000
-0.000000
-0.000000
-0.000000
0.000000
0.000000
-0.000000
0.000000
0.000000
0.000000
-0.000000
-0.000000
0.000000
0.000000
-0.000000
0.000000
-0.000000
0.000000
0.000000
-0.000000
0.000000
0.000000
0.000000
0.000000
-0.000000
-0.000000
-0.000000
-0.000000
0.000000
-0.000000
0.000000
0.000000
0.000000
-0.000000
0.000000
0.000000
0.000000
-0.000000
0.000000
0.000000

SCALARS u_x FLOAT 1
LOOKUP_TABLE default
0.000000
0.000000
0.000000
0.000000
0.000000
0.000000
0.000000
0.000000
0.000000
0.000000
0.000000
0.000000
0.000000
0.000000
0.000000
0.000000
0.000000
0.000000
0.000000
0.000000
0.000000
0.000000
0.000000
0.000000
0.000000
0.000000
0.000000
0.000000
0.000000
0.000000
0.000000
0.000000
0.000000
0.000000
0.000000
0.000000
0.000000
0.000000
0.000000
0.000000
0.000000
0.000000
0.000000
0.000000
0.000000
0.000000
0.000000
0.000000
0.000000
0.000000
0.000000
0.000000
0.000000
0.000000
0.000000
0.000000
0.000000
0.000000
0.000000
0.000000
0.000000
0.000000
0.000000
0.000000
0.000000
0.000000
0.000000
0.000000
0.000000
0.000000
0.000000
0.000000
0.000000
0.000000
0.000000
0.000000
0.000000
0.000000
0.000000
0.000000
0.000000
0.000000
0.000000
0.000000
0.000000
0.000000
0.000000
0.000000
0.000000
0.000000
0.000000
0.000000
0.000000
0.000000
0.000000
0.000000
0.000000
0.000000
0.000000
0.000000
0.000000
0.000000
0.000000
0.000000
0.000000
0.000000
0.000000
0.000000
0.000000
0.000000
0.000000
0.000000
0.000000
0.000000
0.000000
0.000000
0.000000
0.000000
0.000000
0.000000
0.000000
0.000000
0.000000
0.000000
0.000000
0.000000
0.000000
0.000000

SCALARS u_y FLOAT 1
LOOKUP_TABLE default
0.000000
0.000000
0.000000
0.000000
0.000000
0.000000
0.000000
0.000000
0.000000
0.000000
0.000000
0.000000
0.000000
0.000000
0.000000
0.000000
0.000000
0.000000
0.000000
0.000000
0.000000
0.000000
0.000000
0.000000
0.000000
0.000000
0.000000
0.000000
0.000000
0.000000
0.000000
0.000000
0.000000
0.000000
0.000000
0.000000
0.000000
0.000000
0.000000
0.000000
0.000000
0.000000
0.000000
0.000000
0.000000
0.000000
0.000000
0.000000
0.000000
0.000000
0.000000
0.000000
0.000000
0.000000
0.000000
0.000000
0.000000
0.000000
0.000000
0.000000
0.000000
0.000000
0.000000
0.000000
0.000000
0.000000
0.000000
0.000000
0.000000
0.000000
0.000000
0.000000
0.000000
0.000000
0.000000
0.000000
0.000000
0.000000
0.000000
0.000000
0.000000
0.000000
0.000000
0.000000
0.000000
0.000000
0.000000
0.000000
0.000000
0.000000
0.000000
0.000000
0.000000
0.000000
0.000000
0.000000
0.000000
0.000000
0.000000
0.000000
0.000000
0.000000
0.000000
0.000000
0.000000
0.000000
0.000000
0.000000
0.000000
0.000000
0.000000
0.000000
0.000000
0.000000
0.000000
0.000000
0.000000
0.000000
0.000000
0.000000
0.000000
0.000000
0.000000
0.000000
0.000000
0.000000
0.000000
0.000000

SCALARS u_z FLOAT 1
LOOKUP_TABLE default
-0.332967
-0.998900
-0.332967
-0.998900
-0.332967
-0.998900
-0.332967
-0.998900
-1.659700
-2.303660
-1.659700
-2.303660
-1.659700
-2.303660
-1.659700
-2.303660
-2.937217
-3.560126
-2.937217
-3.560126
-2.937217
-3.560126
-2.937217
-3.560126
-4.170518
-4.767357
-4.170518
-4.767357
-4.170518
-4.767357
-4.170518
-4.767357
-5.353237
-5.924948
-5.353237
-5.924948
-5.353237
-5.924948
-5.353237
-5.924948
-6.482802
-7.027019
-6.482802
-7.027019
-6.482802
-7.027019
-6.482802
-7.027019
-7.556161
-8.069439
-7.556161
-8.069439
-7.556161
-8.069439
-7.556161
-8.069439
-8.567555
-9.047941
-8.567555
-9.047941
-8.567555
-9.047941
-8.567555
-9.047941
-9.510875
-9.955990
-9.510875
-9.955990
-9.510875
-9.955990
-9.510875
-9.955990
-10.380009
-10.786333
-10.380009
-10.786333
-10.380009
-10.786333
-10.380009
-10.786333
-11.172076
-11.534420
-11.172076
-11.534420
-11.172076
-11.534420
-11.172076
-11.534420
-11.873791
-12.189062
-11.873791
-12.189062
-11.873791
-12.189062
-11.873791
-12.189062
-12.476426
-12.737690
-12.476426
-12.737690
-12.476426
-12.737690
-12.476426
-12.737690
-12.966330
-13.163949
-12.966330
-13.163949
-12.966330
-13.163949
-12.966330
-13.163949
-13.328600
-13.456968
-13.328600
-13.456968
-13.328600
-13.456968
-13.328600
-13.456968
-13.549738
-13.609027
-13.549738
-13.609027
-13.549738
-13.609027
-13.549738
-13.609027

