# vtk DataFile Version 2.0
MATLAB generated vtk file, WMC
ASCII
DATASET UNSTRUCTURED_GRID
POINTS 128 double
0.781250 0.781250 0.288859 
0.781250 0.781250 0.866577 
0.781250 2.343750 0.288859 
0.781250 2.343750 0.866577 
2.343750 0.781250 0.288859 
2.343750 0.781250 0.866577 
2.343750 2.343750 0.288859 
2.343750 2.343750 0.866577 
0.781250 0.781250 1.447602 
0.781250 0.781250 2.039817 
0.781250 2.343750 1.447602 
0.781250 2.343750 2.039817 
2.343750 0.781250 1.447602 
2.343750 0.781250 2.039817 
2.343750 2.343750 1.447602 
2.343750 2.343750 2.039817 
0.781250 0.781250 2.643342 
0.781250 0.781250 3.260532 
0.781250 2.343750 2.643342 
0.781250 2.343750 3.260532 
2.343750 0.781250 2.643342 
2.343750 0.781250 3.260532 
2.343750 2.343750 2.643342 
2.343750 2.343750 3.260532 
0.781250 0.781250 3.888255 
0.781250 0.781250 4.526823 
0.781250 2.343750 3.888255 
0.781250 2.343750 4.526823 
2.343750 0.781250 3.888255 
2.343750 0.781250 4.526823 
2.343750 2.343750 3.888255 
2.343750 2.343750 4.526823 
0.781250 0.781250 5.177377 
0.781250 0.781250 5.841988 
0.781250 2.343750 5.177377 
0.781250 2.343750 5.841988 
2.343750 0.781250 5.177377 
2.343750 0.781250 5.841988 
2.343750 2.343750 5.177377 
2.343750 2.343750 5.841988 
0.781250 0.781250 6.520695 
0.781250 0.781250 7.213015 
0.781250 2.343750 6.520695 
0.781250 2.343750 7.213015 
2.343750 0.781250 6.520695 
2.343750 0.781250 7.213015 
2.343750 2.343750 6.520695 
2.343750 2.343750 7.213015 
0.781250 0.781250 7.919634 
0.781250 0.781250 8.642322 
0.781250 2.343750 7.919634 
0.781250 2.343750 8.642322 
2.343750 0.781250 7.919634 
2.343750 0.781250 8.642322 
2.343750 2.343750 7.919634 
2.343750 2.343750 8.642322 
0.781250 0.781250 9.383170 
0.781250 0.781250 10.143112 
0.781250 2.343750 9.383170 
0.781250 2.343750 10.143112 
2.343750 0.781250 9.383170 
2.343750 0.781250 10.143112 
2.343750 2.343750 9.383170 
2.343750 2.343750 10.143112 
0.781250 0.781250 10.920456 
0.781250 0.781250 11.718819 
0.781250 2.343750 10.920456 
0.781250 2.343750 11.718819 
2.343750 0.781250 10.920456 
2.343750 0.781250 11.718819 
2.343750 2.343750 10.920456 
2.343750 2.343750 11.718819 
0.781250 0.781250 12.540629 
0.781250 0.781250 13.385391 
0.781250 2.343750 12.540629 
0.781250 2.343750 13.385391 
2.343750 0.781250 12.540629 
2.343750 0.781250 13.385391 
2.343750 2.343750 12.540629 
2.343750 2.343750 13.385391 
0.781250 0.781250 14.254777 
0.781250 0.781250 15.153238 
0.781250 2.343750 14.254777 
0.781250 2.343750 15.153238 
2.343750 0.781250 14.254777 
2.343750 0.781250 15.153238 
2.343750 2.343750 14.254777 
2.343750 2.343750 15.153238 
0.781250 0.781250 16.083406 
0.781250 0.781250 17.045203 
0.781250 2.343750 16.083406 
0.781250 2.343750 17.045203 
2.343750 0.781250 16.083406 
2.343750 0.781250 17.045203 
2.343750 2.343750 16.083406 
2.343750 2.343750 17.045203 
0.781250 0.781250 18.044065 
0.781250 0.781250 19.087281 
0.781250 2.343750 18.044065 
0.781250 2.343750 19.087281 
2.343750 0.781250 18.044065 
2.343750 0.781250 19.087281 
2.343750 2.343750 18.044065 
2.343750 2.343750 19.087281 
0.781250 0.781250 20.174771 
0.781250 0.781250 21.306642 
0.781250 2.343750 20.174771 
0.781250 2.343750 21.306642 
2.343750 0.781250 20.174771 
2.343750 0.781250 21.306642 
2.343750 2.343750 20.174771 
2.343750 2.343750 21.306642 
0.781250 0.781250 22.493672 
0.781250 0.781250 23.769238 
0.781250 2.343750 22.493672 
0.781250 2.343750 23.769238 
2.343750 0.781250 22.493672 
2.343750 0.781250 23.769238 
2.343750 2.343750 22.493672 
2.343750 2.343750 23.769238 
0.781250 0.781250 25.105824 
0.781250 0.781250 26.488800 
0.781250 2.343750 25.105824 
0.781250 2.343750 26.488800 
2.343750 0.781250 25.105824 
2.343750 0.781250 26.488800 
2.343750 2.343750 25.105824 
2.343750 2.343750 26.488800 

POINT_DATA 128
SCALARS sigma_xx FLOAT 1
LOOKUP_TABLE default
-0.000000
-0.000000
0.000000
-0.000000
0.000000
0.000000
0.000000
-0.000000
-0.000000
-0.000000
0.000000
-0.000000
-0.000000
-0.000000
0.000000
-0.000000
-0.000000
0.000000
-0.000000
-0.000000
0.000000
-0.000000
-0.000000
0.000000
-0.000000
-0.000000
0.000000
0.000000
-0.000000
-0.000000
0.000000
0.000000
0.000000
-0.000000
0.000000
-0.000000
-0.000000
0.000000
-0.000000
0.000000
-0.000000
-0.000000
-0.000000
-0.000000
-0.000000
0.000000
-0.000000
0.000000
0.000000
-0.000000
-0.000000
-0.000000
0.000000
0.000000
-0.000000
0.000000
-0.000000
-0.000000
-0.000000
-0.000000
-0.000000
-0.000000
-0.000000
0.000000
0.000000
0.000000
-0.000000
0.000000
-0.000000
-0.000000
-0.000000
-0.000000
-0.000000
0.000000
-0.000000
-0.000000
-0.000000
0.000000
0.000000
0.000000
-0.000000
-0.000000
-0.000000
0.000000
-0.000000
-0.000000
0.000000
0.000000
0.000000
0.000000
0.000000
-0.000000
0.000000
0.000000
0.000000
-0.000000
-0.000000
0.000000
-0.000000
-0.000000
0.000000
-0.000000
0.000000
0.000000
-0.000000
-0.000000
0.000000
-0.000000
-0.000000
0.000000
0.000000
-0.000000
0.000000
-0.000000
-0.000000
-0.000000
-0.000000
0.000000
0.000000
0.000000
0.000000
-0.000000
-0.000000
-0.000000
0.000000
0.000000
-0.000000
0.000000

SCALARS sigma_yy FLOAT 1
LOOKUP_TABLE default
0.000000
-0.000000
-0.000000
0.000000
-0.000000
0.000000
-0.000000
0.000000
-0.000000
-0.000000
0.000000
0.000000
-0.000000
0.000000
0.000000
0.000000
-0.000000
-0.000000
-0.000000
0.000000
0.000000
-0.000000
-0.000000
-0.000000
-0.000000
-0.000000
0.000000
-0.000000
-0.000000
0.000000
-0.000000
0.000000
0.000000
0.000000
-0.000000
-0.000000
-0.000000
-0.000000
-0.000000
-0.000000
-0.000000
-0.000000
0.000000
0.000000
-0.000000
-0.000000
0.000000
0.000000
0.000000
-0.000000
0.000000
-0.000000
0.000000
0.000000
0.000000
0.000000
0.000000
0.000000
-0.000000
-0.000000
-0.000000
-0.000000
-0.000000
0.000000
0.000000
-0.000000
0.000000
-0.000000
-0.000000
-0.000000
0.000000
0.000000
-0.000000
0.000000
0.000000
-0.000000
-0.000000
0.000000
0.000000
-0.000000
0.000000
-0.000000
-0.000000
-0.000000
0.000000
-0.000000
0.000000
0.000000
-0.000000
0.000000
-0.000000
-0.000000
0.000000
-0.000000
-0.000000
-0.000000
0.000000
-0.000000
-0.000000
-0.000000
-0.000000
-0.000000
0.000000
0.000000
-0.000000
-0.000000
0.000000
0.000000
-0.000000
0.000000
0.000000
0.000000
0.000000
-0.000000
0.000000
0.000000
-0.000000
-0.000000
0.000000
-0.000000
-0.000000
0.000000
0.000000
-0.000000
0.000000
-0.000000
0.000000
0.000000

SCALARS sigma_zz FLOAT 1
LOOKUP_TABLE default
-26909.685856
-26909.685856
-26909.685856
-26909.685856
-26909.685856
-26909.685856
-26909.685856
-26909.685856
-26103.876463
-25165.177664
-26103.876463
-25165.177664
-26103.876463
-25165.177664
-26103.876463
-25165.177664
-24026.817456
-23101.477629
-24026.817456
-23101.477629
-24026.817456
-23101.477629
-24026.817456
-23101.477629
-22278.784272
-21510.500867
-22278.784272
-21510.500867
-22278.784272
-21510.500867
-22278.784272
-21510.500867
-20556.524447
-19659.898400
-20556.524447
-19659.898400
-20556.524447
-19659.898400
-20556.524447
-19659.898400
-18749.467845
-17993.485175
-18749.467845
-17993.485175
-18749.467845
-17993.485175
-18749.467845
-17993.485175
-17110.672587
-16233.602811
-17110.672587
-16233.602811
-17110.672587
-16233.602811
-17110.672587
-16233.602811
-15234.633888
-14455.221261
-15234.633888
-14455.221261
-15234.633888
-14455.221261
-15234.633888
-14455.221261
-13573.826373
-12714.576839
-13573.826373
-12714.576839
-13573.826373
-12714.576839
-13573.826373
-12714.576839
-11760.668103
-10980.358167
-11760.668103
-10980.358167
-11760.668103
-10980.358167
-11760.668103
-10980.358167
-10081.446117
-9162.985303
-10081.446117
-9162.985303
-10081.446117
-9162.985303
-10081.446117
-9162.985303
-8293.266240
-7472.375761
-8293.266240
-7472.375761
-8293.266240
-7472.375761
-8293.266240
-7472.375761
-6495.910713
-5632.682504
-6495.910713
-5632.682504
-6495.910713
-5632.682504
-6495.910713
-5632.682504
-4800.686550
-4105.892603
-4800.686550
-4105.892603
-4800.686550
-4105.892603
-4800.686550
-4105.892603
-3045.915827
-2097.291663
-3045.915827
-2097.291663
-3045.915827
-2097.291663
-3045.915827
-2097.291663
-1632.671617
-111.442781
-1632.671617
-111.442781
-1632.671617
-111.442781
-1632.671617
-111.442781

SCALARS sigma_xy FLOAT 1
LOOKUP_TABLE default
0.000000
-0.000000
0.000000
-0.000000
-0.000000
-0.000000
0.000000
-0.000000
-0.000000
0.000000
0.000000
0.000000
-0.000000
-0.000000
0.000000
0.000000
0.000000
-0.000000
-0.000000
-0.000000
-0.000000
-0.000000
-0.000000
0.000000
-0.000000
0.000000
0.000000
-0.000000
0.000000
0.000000
-0.000000
-0.000000
-0.000000
0.000000
-0.000000
-0.000000
0.000000
0.000000
0.000000
0.000000
0.000000
-0.000000
0.000000
-0.000000
0.000000
-0.000000
0.000000
-0.000000
0.000000
-0.000000
0.000000
0.000000
-0.000000
-0.000000
0.000000
0.000000
-0.000000
0.000000
-0.000000
0.000000
-0.000000
0.000000
0.000000
-0.000000
0.000000
-0.000000
0.000000
0.000000
-0.000000
0.000000
0.000000
-0.000000
-0.000000
0.000000
-0.000000
-0.000000
-0.000000
-0.000000
-0.000000
0.000000
0.000000
-0.000000
-0.000000
-0.000000
-0.000000
0.000000
-0.000000
-0.000000
0.000000
-0.000000
0.000000
-0.000000
0.000000
-0.000000
0.000000
0.000000
-0.000000
-0.000000
0.000000
0.000000
0.000000
-0.000000
-0.000000
-0.000000
-0.000000
0.000000
0.000000
-0.000000
0.000000
0.000000
-0.000000
-0.000000
0.000000
0.000000
0.000000
0.000000
-0.000000
0.000000
0.000000
-0.000000
0.000000
0.000000
0.000000
0.000000
0.000000
0.000000
0.000000
-0.000000

SCALARS sigma_yz FLOAT 1
LOOKUP_TABLE default
0.000000
0.000000
0.000000
-0.000000
0.000000
-0.000000
0.000000
-0.000000
-0.000000
0.000000
-0.000000
-0.000000
-0.000000
-0.000000
-0.000000
-0.000000
-0.000000
-0.000000
-0.000000
-0.000000
-0.000000
-0.000000
-0.000000
0.000000
-0.000000
-0.000000
0.000000
0.000000
-0.000000
-0.000000
0.000000
0.000000
-0.000000
-0.000000
0.000000
-0.000000
-0.000000
0.000000
-0.000000
0.000000
-0.000000
-0.000000
-0.000000
0.000000
-0.000000
-0.000000
0.000000
0.000000
-0.000000
0.000000
-0.000000
0.000000
-0.000000
0.000000
0.000000
-0.000000
-0.000000
0.000000
0.000000
0.000000
-0.000000
0.000000
-0.000000
0.000000
0.000000
0.000000
0.000000
0.000000
0.000000
-0.000000
0.000000
0.000000
-0.000000
-0.000000
0.000000
0.000000
-0.000000
-0.000000
0.000000
0.000000
-0.000000
-0.000000
-0.000000
-0.000000
-0.000000
-0.000000
-0.000000
-0.000000
-0.000000
-0.000000
0.000000
-0.000000
-0.000000
0.000000
-0.000000
0.000000
-0.000000
-0.000000
0.000000
0.000000
-0.000000
-0.000000
0.000000
0.000000
-0.000000
0.000000
0.000000
0.000000
-0.000000
-0.000000
0.000000
0.000000
-0.000000
-0.000000
0.000000
0.000000
-0.000000
-0.000000
0.000000
0.000000
-0.000000
0.000000
-0.000000
0.000000
-0.000000
-0.000000
0.000000
0.000000

SCALARS sigma_zx FLOAT 1
LOOKUP_TABLE default
0.000000
0.000000
0.000000
0.000000
0.000000
0.000000
0.000000
0.000000
0.000000
0.000000
0.000000
0.000000
0.000000
0.000000
0.000000
0.000000
0.000000
0.000000
0.000000
0.000000
0.000000
0.000000
0.000000
0.000000
0.000000
-0.000000
0.000000
0.000000
0.000000
-0.000000
0.000000
0.000000
-0.000000
-0.000000
0.000000
0.000000
-0.000000
-0.000000
0.000000
0.000000
-0.000000
-0.000000
0.000000
-0.000000
0.000000
-0.000000
0.000000
-0.000000
-0.000000
-0.000000
-0.000000
-0.000000
-0.000000
-0.000000
-0.000000
-0.000000
-0.000000
-0.000000
-0.000000
-0.000000
-0.000000
0.000000
-0.000000
-0.000000
0.000000
0.000000
0.000000
0.000000
0.000000
0.000000
0.000000
0.000000
0.000000
-0.000000
0.000000
0.000000
0.000000
0.000000
0.000000
0.000000
-0.000000
-0.000000
-0.000000
-0.000000
-0.000000
0.000000
-0.000000
-0.000000
-0.000000
-0.000000
-0.000000
-0.000000
0.000000
0.000000
-0.000000
0.000000
-0.000000
-0.000000
0.000000
-0.000000
0.000000
0.000000
0.000000
0.000000
-0.000000
0.000000
0.000000
-0.000000
0.000000
0.000000
0.000000
-0.000000
-0.000000
0.000000
-0.000000
-0.000000
0.000000
0.000000
0.000000
0.000000
-0.000000
-0.000000
-0.000000
-0.000000
0.000000
0.000000
0.000000
0.000000

SCALARS u_x FLOAT 1
LOOKUP_TABLE default
0.000000
0.000000
0.000000
0.000000
0.000000
0.000000
0.000000
0.000000
0.000000
0.000000
0.000000
0.000000
0.000000
0.000000
0.000000
0.000000
0.000000
0.000000
0.000000
0.000000
0.000000
0.000000
0.000000
0.000000
0.000000
0.000000
0.000000
0.000000
0.000000
0.000000
0.000000
0.000000
0.000000
0.000000
0.000000
0.000000
0.000000
0.000000
0.000000
0.000000
0.000000
0.000000
0.000000
0.000000
0.000000
0.000000
0.000000
0.000000
0.000000
0.000000
0.000000
0.000000
0.000000
0.000000
0.000000
0.000000
0.000000
0.000000
0.000000
0.000000
0.000000
0.000000
0.000000
0.000000
0.000000
0.000000
0.000000
0.000000
0.000000
0.000000
0.000000
0.000000
0.000000
0.000000
0.000000
0.000000
0.000000
0.000000
0.000000
0.000000
0.000000
0.000000
0.000000
0.000000
0.000000
0.000000
0.000000
0.000000
0.000000
0.000000
0.000000
0.000000
0.000000
0.000000
0.000000
0.000000
0.000000
0.000000
0.000000
0.000000
0.000000
0.000000
0.000000
0.000000
0.000000
0.000000
0.000000
0.000000
0.000000
0.000000
0.000000
0.000000
0.000000
0.000000
0.000000
0.000000
0.000000
0.000000
0.000000
0.000000
0.000000
0.000000
0.000000
0.000000
0.000000
0.000000
0.000000
0.000000

SCALARS u_y FLOAT 1
LOOKUP_TABLE default
0.000000
0.000000
0.000000
0.000000
0.000000
0.000000
0.000000
0.000000
0.000000
0.000000
0.000000
0.000000
0.000000
0.000000
0.000000
0.000000
0.000000
0.000000
0.000000
0.000000
0.000000
0.000000
0.000000
0.000000
0.000000
0.000000
0.000000
0.000000
0.000000
0.000000
0.000000
0.000000
0.000000
0.000000
0.000000
0.000000
0.000000
0.000000
0.000000
0.000000
0.000000
0.000000
0.000000
0.000000
0.000000
0.000000
0.000000
0.000000
0.000000
0.000000
0.000000
0.000000
0.000000
0.000000
0.000000
0.000000
0.000000
0.000000
0.000000
0.000000
0.000000
0.000000
0.000000
0.000000
0.000000
0.000000
0.000000
0.000000
0.000000
0.000000
0.000000
0.000000
0.000000
0.000000
0.000000
0.000000
0.000000
0.000000
0.000000
0.000000
0.000000
0.000000
0.000000
0.000000
0.000000
0.000000
0.000000
0.000000
0.000000
0.000000
0.000000
0.000000
0.000000
0.000000
0.000000
0.000000
0.000000
0.000000
0.000000
0.000000
0.000000
0.000000
0.000000
0.000000
0.000000
0.000000
0.000000
0.000000
0.000000
0.000000
0.000000
0.000000
0.000000
0.000000
0.000000
0.000000
0.000000
0.000000
0.000000
0.000000
0.000000
0.000000
0.000000
0.000000
0.000000
0.000000
0.000000
0.000000

SCALARS u_z FLOAT 1
LOOKUP_TABLE default
-0.492391
-1.477173
-0.492391
-1.477173
-0.492391
-1.477173
-0.492391
-1.477173
-2.458648
-3.428933
-2.458648
-3.428933
-2.458648
-3.428933
-2.458648
-3.428933
-4.387908
-5.333218
-4.387908
-5.333218
-4.387908
-5.333218
-4.387908
-5.333218
-6.267995
-7.191927
-6.267995
-7.191927
-6.267995
-7.191927
-6.267995
-7.191927
-8.103873
-9.001762
-8.103873
-9.001762
-8.103873
-9.001762
-8.103873
-9.001762
-9.885555
-10.755735
-9.885555
-10.755735
-9.885555
-10.755735
-9.885555
-10.755735
-11.611616
-12.451428
-11.611616
-12.451428
-11.611616
-12.451428
-11.611616
-12.451428
-13.273080
-14.075638
-13.273080
-14.075638
-13.273080
-14.075638
-13.273080
-14.075638
-14.860794
-15.624931
-14.860794
-15.624931
-14.860794
-15.624931
-14.860794
-15.624931
-16.365621
-17.083359
-16.365621
-17.083359
-16.365621
-17.083359
-16.365621
-17.083359
-17.776473
-18.440512
-17.776473
-18.440512
-17.776473
-18.440512
-17.776473
-18.440512
-19.072844
-19.673547
-19.072844
-19.673547
-19.072844
-19.673547
-19.072844
-19.673547
-20.237185
-20.756469
-20.237185
-20.756469
-20.237185
-20.756469
-20.237185
-20.756469
-21.231479
-21.662108
-21.231479
-21.662108
-21.231479
-21.662108
-21.231479
-21.662108
-22.037578
-22.324512
-22.037578
-22.324512
-22.037578
-22.324512
-22.037578
-22.324512
-22.550426
-22.729950
-22.550426
-22.729950
-22.550426
-22.729950
-22.550426
-22.729950

