# vtk DataFile Version 2.0
MATLAB generated vtk file, WMC
ASCII
DATASET UNSTRUCTURED_GRID
POINTS 128 double
0.781250 0.781250 0.504319 
0.781250 0.781250 1.512958 
0.781250 2.343750 0.504319 
0.781250 2.343750 1.512958 
2.343750 0.781250 0.504319 
2.343750 0.781250 1.512958 
2.343750 2.343750 0.504319 
2.343750 2.343750 1.512958 
0.781250 0.781250 2.527372 
0.781250 0.781250 3.558442 
0.781250 2.343750 2.527372 
0.781250 2.343750 3.558442 
2.343750 0.781250 2.527372 
2.343750 0.781250 3.558442 
2.343750 2.343750 2.527372 
2.343750 2.343750 3.558442 
0.781250 0.781250 4.596721 
0.781250 0.781250 5.646733 
0.781250 2.343750 4.596721 
0.781250 2.343750 5.646733 
2.343750 0.781250 4.596721 
2.343750 0.781250 5.646733 
2.343750 2.343750 4.596721 
2.343750 2.343750 5.646733 
0.781250 0.781250 6.708963 
0.781250 0.781250 7.781501 
0.781250 2.343750 6.708963 
0.781250 2.343750 7.781501 
2.343750 0.781250 6.708963 
2.343750 0.781250 7.781501 
2.343750 2.343750 6.708963 
2.343750 2.343750 7.781501 
0.781250 0.781250 8.865720 
0.781250 0.781250 9.963812 
0.781250 2.343750 8.865720 
0.781250 2.343750 9.963812 
2.343750 0.781250 8.865720 
2.343750 0.781250 9.963812 
2.343750 2.343750 8.865720 
2.343750 2.343750 9.963812 
0.781250 0.781250 11.073094 
0.781250 0.781250 12.196916 
0.781250 2.343750 11.073094 
0.781250 2.343750 12.196916 
2.343750 0.781250 11.073094 
2.343750 0.781250 12.196916 
2.343750 2.343750 11.073094 
2.343750 2.343750 12.196916 
0.781250 0.781250 13.334745 
0.781250 0.781250 14.485419 
0.781250 2.343750 13.334745 
0.781250 2.343750 14.485419 
2.343750 0.781250 13.334745 
2.343750 0.781250 14.485419 
2.343750 2.343750 13.334745 
2.343750 2.343750 14.485419 
0.781250 0.781250 15.651264 
0.781250 0.781250 16.830426 
0.781250 2.343750 15.651264 
0.781250 2.343750 16.830426 
2.343750 0.781250 15.651264 
2.343750 0.781250 16.830426 
2.343750 2.343750 15.651264 
2.343750 2.343750 16.830426 
0.781250 0.781250 18.023874 
0.781250 0.781250 19.235763 
0.781250 2.343750 18.023874 
0.781250 2.343750 19.235763 
2.343750 0.781250 18.023874 
2.343750 0.781250 19.235763 
2.343750 2.343750 18.023874 
2.343750 2.343750 19.235763 
0.781250 0.781250 20.465365 
0.781250 0.781250 21.711197 
0.781250 2.343750 20.465365 
0.781250 2.343750 21.711197 
2.343750 0.781250 20.465365 
2.343750 0.781250 21.711197 
2.343750 2.343750 20.465365 
2.343750 2.343750 21.711197 
0.781250 0.781250 22.973309 
0.781250 0.781250 24.255131 
0.781250 2.343750 22.973309 
0.781250 2.343750 24.255131 
2.343750 0.781250 22.973309 
2.343750 0.781250 24.255131 
2.343750 2.343750 22.973309 
2.343750 2.343750 24.255131 
0.781250 0.781250 25.558895 
0.781250 0.781250 26.880466 
0.781250 2.343750 25.558895 
0.781250 2.343750 26.880466 
2.343750 0.781250 25.558895 
2.343750 0.781250 26.880466 
2.343750 2.343750 25.558895 
2.343750 2.343750 26.880466 
0.781250 0.781250 28.226142 
0.781250 0.781250 29.593474 
0.781250 2.343750 28.226142 
0.781250 2.343750 29.593474 
2.343750 0.781250 28.226142 
2.343750 0.781250 29.593474 
2.343750 2.343750 28.226142 
2.343750 2.343750 29.593474 
0.781250 0.781250 30.985618 
0.781250 0.781250 32.399186 
0.781250 2.343750 30.985618 
0.781250 2.343750 32.399186 
2.343750 0.781250 30.985618 
2.343750 0.781250 32.399186 
2.343750 2.343750 30.985618 
2.343750 2.343750 32.399186 
0.781250 0.781250 33.838929 
0.781250 0.781250 35.308886 
0.781250 2.343750 33.838929 
0.781250 2.343750 35.308886 
2.343750 0.781250 33.838929 
2.343750 0.781250 35.308886 
2.343750 2.343750 33.838929 
2.343750 2.343750 35.308886 
0.781250 0.781250 36.805462 
0.781250 0.781250 38.327565 
0.781250 2.343750 36.805462 
0.781250 2.343750 38.327565 
2.343750 0.781250 36.805462 
2.343750 0.781250 38.327565 
2.343750 2.343750 36.805462 
2.343750 2.343750 38.327565 

POINT_DATA 128
SCALARS sigma_xx FLOAT 1
LOOKUP_TABLE default
0.000000
-0.000000
0.000000
-0.000000
-0.000000
-0.000000
0.000000
0.000000
-0.000000
0.000000
-0.000000
-0.000000
0.000000
0.000000
0.000000
-0.000000
-0.000000
0.000000
-0.000000
-0.000000
0.000000
-0.000000
0.000000
-0.000000
-0.000000
-0.000000
-0.000000
-0.000000
0.000000
0.000000
-0.000000
0.000000
0.000000
-0.000000
-0.000000
-0.000000
-0.000000
-0.000000
0.000000
-0.000000
0.000000
-0.000000
-0.000000
0.000000
0.000000
-0.000000
0.000000
-0.000000
-0.000000
-0.000000
-0.000000
-0.000000
0.000000
0.000000
0.000000
-0.000000
-0.000000
0.000000
-0.000000
-0.000000
-0.000000
-0.000000
-0.000000
-0.000000
0.000000
0.000000
-0.000000
0.000000
-0.000000
-0.000000
-0.000000
-0.000000
-0.000000
0.000000
0.000000
-0.000000
-0.000000
0.000000
0.000000
0.000000
-0.000000
-0.000000
-0.000000
0.000000
0.000000
-0.000000
-0.000000
0.000000
0.000000
-0.000000
0.000000
-0.000000
-0.000000
0.000000
-0.000000
-0.000000
0.000000
0.000000
-0.000000
0.000000
-0.000000
-0.000000
0.000000
0.000000
-0.000000
-0.000000
-0.000000
-0.000000
-0.000000
0.000000
-0.000000
-0.000000
0.000000
-0.000000
-0.000000
-0.000000
-0.000000
0.000000
0.000000
-0.000000
-0.000000
0.000000
0.000000
-0.000000
0.000000
-0.000000
-0.000000
0.000000

SCALARS sigma_yy FLOAT 1
LOOKUP_TABLE default
0.000000
-0.000000
0.000000
-0.000000
-0.000000
-0.000000
0.000000
0.000000
-0.000000
0.000000
0.000000
0.000000
0.000000
0.000000
0.000000
-0.000000
-0.000000
-0.000000
-0.000000
-0.000000
0.000000
-0.000000
-0.000000
-0.000000
-0.000000
-0.000000
0.000000
0.000000
-0.000000
-0.000000
-0.000000
0.000000
-0.000000
-0.000000
0.000000
-0.000000
0.000000
0.000000
0.000000
-0.000000
0.000000
-0.000000
-0.000000
0.000000
-0.000000
-0.000000
0.000000
-0.000000
-0.000000
0.000000
0.000000
-0.000000
-0.000000
-0.000000
0.000000
0.000000
-0.000000
0.000000
-0.000000
-0.000000
-0.000000
0.000000
-0.000000
-0.000000
0.000000
-0.000000
-0.000000
0.000000
-0.000000
-0.000000
-0.000000
-0.000000
-0.000000
0.000000
-0.000000
-0.000000
-0.000000
0.000000
0.000000
0.000000
0.000000
-0.000000
0.000000
0.000000
-0.000000
-0.000000
0.000000
0.000000
0.000000
-0.000000
-0.000000
-0.000000
-0.000000
-0.000000
-0.000000
-0.000000
-0.000000
-0.000000
0.000000
0.000000
-0.000000
-0.000000
0.000000
0.000000
-0.000000
-0.000000
0.000000
0.000000
-0.000000
0.000000
-0.000000
-0.000000
0.000000
-0.000000
0.000000
0.000000
0.000000
-0.000000
0.000000
-0.000000
-0.000000
0.000000
0.000000
-0.000000
0.000000
-0.000000
-0.000000
0.000000

SCALARS sigma_zz FLOAT 1
LOOKUP_TABLE default
-6780.262911
-6780.262911
-6780.262911
-6780.262911
-6780.262911
-6780.262911
-6780.262911
-6780.262911
-6448.135913
-6232.157335
-6448.135913
-6232.157335
-6448.135913
-6232.157335
-6448.135913
-6232.157335
-6029.003247
-5805.209896
-6029.003247
-5805.209896
-6029.003247
-5805.209896
-6029.003247
-5805.209896
-5562.950588
-5395.393244
-5562.950588
-5395.393244
-5562.950588
-5395.393244
-5562.950588
-5395.393244
-5120.922532
-4940.456388
-5120.922532
-4940.456388
-5120.922532
-4940.456388
-5120.922532
-4940.456388
-4695.335889
-4473.646324
-4695.335889
-4473.646324
-4695.335889
-4473.646324
-4695.335889
-4473.646324
-4249.505155
-4049.649180
-4249.505155
-4049.649180
-4249.505155
-4049.649180
-4249.505155
-4049.649180
-3814.210855
-3649.505180
-3814.210855
-3649.505180
-3814.210855
-3649.505180
-3814.210855
-3649.505180
-3388.378645
-3172.718141
-3388.378645
-3172.718141
-3388.378645
-3172.718141
-3388.378645
-3172.718141
-2926.377108
-2754.711165
-2926.377108
-2754.711165
-2926.377108
-2754.711165
-2926.377108
-2754.711165
-2520.306517
-2297.268597
-2520.306517
-2297.268597
-2520.306517
-2297.268597
-2520.306517
-2297.268597
-2062.089007
-1875.296961
-2062.089007
-1875.296961
-2062.089007
-1875.296961
-2062.089007
-1875.296961
-1611.203194
-1426.955226
-1611.203194
-1426.955226
-1611.203194
-1426.955226
-1611.203194
-1426.955226
-1180.858735
-1021.030553
-1180.858735
-1021.030553
-1180.858735
-1021.030553
-1180.858735
-1021.030553
-751.783608
-559.168870
-751.783608
-559.168870
-751.783608
-559.168870
-751.783608
-559.168870
-353.853006
-69.040187
-353.853006
-69.040187
-353.853006
-69.040187
-353.853006
-69.040187

SCALARS sigma_xy FLOAT 1
LOOKUP_TABLE default
0.000000
0.000000
-0.000000
0.000000
0.000000
0.000000
-0.000000
0.000000
-0.000000
0.000000
0.000000
-0.000000
0.000000
0.000000
-0.000000
-0.000000
0.000000
0.000000
0.000000
-0.000000
-0.000000
0.000000
-0.000000
0.000000
-0.000000
0.000000
-0.000000
-0.000000
0.000000
-0.000000
-0.000000
-0.000000
-0.000000
0.000000
-0.000000
0.000000
0.000000
0.000000
-0.000000
0.000000
0.000000
-0.000000
-0.000000
-0.000000
0.000000
-0.000000
0.000000
-0.000000
-0.000000
0.000000
0.000000
0.000000
0.000000
0.000000
-0.000000
-0.000000
0.000000
0.000000
-0.000000
-0.000000
0.000000
-0.000000
0.000000
-0.000000
-0.000000
0.000000
0.000000
-0.000000
-0.000000
0.000000
0.000000
0.000000
0.000000
0.000000
-0.000000
-0.000000
-0.000000
0.000000
0.000000
0.000000
0.000000
-0.000000
-0.000000
-0.000000
0.000000
-0.000000
0.000000
0.000000
0.000000
-0.000000
0.000000
-0.000000
0.000000
0.000000
-0.000000
-0.000000
0.000000
0.000000
0.000000
0.000000
0.000000
-0.000000
-0.000000
-0.000000
0.000000
0.000000
-0.000000
-0.000000
-0.000000
0.000000
-0.000000
-0.000000
-0.000000
-0.000000
0.000000
-0.000000
-0.000000
0.000000
0.000000
-0.000000
0.000000
-0.000000
-0.000000
-0.000000
-0.000000
0.000000
0.000000
-0.000000

SCALARS sigma_yz FLOAT 1
LOOKUP_TABLE default
0.000000
0.000000
0.000000
0.000000
-0.000000
-0.000000
-0.000000
0.000000
0.000000
0.000000
-0.000000
0.000000
-0.000000
-0.000000
-0.000000
-0.000000
0.000000
0.000000
0.000000
0.000000
0.000000
-0.000000
-0.000000
0.000000
-0.000000
-0.000000
0.000000
0.000000
0.000000
0.000000
0.000000
0.000000
-0.000000
-0.000000
-0.000000
-0.000000
0.000000
-0.000000
0.000000
0.000000
-0.000000
0.000000
-0.000000
0.000000
0.000000
-0.000000
-0.000000
-0.000000
-0.000000
-0.000000
0.000000
0.000000
-0.000000
0.000000
0.000000
0.000000
-0.000000
-0.000000
0.000000
0.000000
0.000000
-0.000000
0.000000
0.000000
-0.000000
-0.000000
0.000000
0.000000
0.000000
-0.000000
-0.000000
0.000000
-0.000000
-0.000000
0.000000
0.000000
-0.000000
-0.000000
0.000000
0.000000
-0.000000
-0.000000
-0.000000
-0.000000
-0.000000
0.000000
0.000000
0.000000
-0.000000
-0.000000
0.000000
0.000000
-0.000000
-0.000000
0.000000
0.000000
-0.000000
-0.000000
0.000000
-0.000000
-0.000000
-0.000000
0.000000
0.000000
0.000000
0.000000
0.000000
-0.000000
-0.000000
-0.000000
0.000000
0.000000
-0.000000
-0.000000
0.000000
0.000000
0.000000
-0.000000
0.000000
0.000000
-0.000000
-0.000000
-0.000000
0.000000
-0.000000
-0.000000
0.000000
0.000000

SCALARS sigma_zx FLOAT 1
LOOKUP_TABLE default
0.000000
0.000000
0.000000
0.000000
0.000000
0.000000
-0.000000
0.000000
0.000000
0.000000
-0.000000
-0.000000
0.000000
0.000000
-0.000000
0.000000
0.000000
0.000000
0.000000
0.000000
0.000000
0.000000
0.000000
0.000000
0.000000
0.000000
0.000000
-0.000000
0.000000
0.000000
0.000000
-0.000000
-0.000000
-0.000000
-0.000000
0.000000
0.000000
-0.000000
-0.000000
0.000000
-0.000000
-0.000000
-0.000000
-0.000000
-0.000000
-0.000000
-0.000000
-0.000000
-0.000000
-0.000000
-0.000000
-0.000000
0.000000
-0.000000
0.000000
0.000000
-0.000000
-0.000000
0.000000
-0.000000
-0.000000
0.000000
0.000000
0.000000
-0.000000
-0.000000
-0.000000
0.000000
0.000000
0.000000
-0.000000
0.000000
0.000000
-0.000000
0.000000
0.000000
0.000000
-0.000000
0.000000
0.000000
-0.000000
-0.000000
-0.000000
-0.000000
-0.000000
0.000000
0.000000
-0.000000
0.000000
-0.000000
-0.000000
-0.000000
0.000000
0.000000
0.000000
0.000000
0.000000
0.000000
0.000000
-0.000000
0.000000
0.000000
0.000000
-0.000000
-0.000000
0.000000
-0.000000
-0.000000
0.000000
-0.000000
0.000000
0.000000
-0.000000
-0.000000
-0.000000
-0.000000
0.000000
-0.000000
0.000000
0.000000
-0.000000
-0.000000
0.000000
0.000000
0.000000
-0.000000
0.000000
0.000000

SCALARS u_x FLOAT 1
LOOKUP_TABLE default
0.000000
0.000000
0.000000
0.000000
0.000000
0.000000
0.000000
0.000000
0.000000
0.000000
0.000000
0.000000
0.000000
0.000000
0.000000
0.000000
0.000000
0.000000
0.000000
0.000000
0.000000
0.000000
0.000000
0.000000
0.000000
0.000000
0.000000
0.000000
0.000000
0.000000
0.000000
0.000000
0.000000
0.000000
0.000000
0.000000
0.000000
0.000000
0.000000
0.000000
0.000000
0.000000
0.000000
0.000000
0.000000
0.000000
0.000000
0.000000
0.000000
0.000000
0.000000
0.000000
0.000000
0.000000
0.000000
0.000000
0.000000
0.000000
0.000000
0.000000
0.000000
0.000000
0.000000
0.000000
0.000000
0.000000
0.000000
0.000000
0.000000
0.000000
0.000000
0.000000
0.000000
0.000000
0.000000
0.000000
0.000000
0.000000
0.000000
0.000000
0.000000
0.000000
0.000000
0.000000
0.000000
0.000000
0.000000
0.000000
0.000000
0.000000
0.000000
0.000000
0.000000
0.000000
0.000000
0.000000
0.000000
0.000000
0.000000
0.000000
0.000000
0.000000
0.000000
0.000000
0.000000
0.000000
0.000000
0.000000
0.000000
0.000000
0.000000
0.000000
0.000000
0.000000
0.000000
0.000000
0.000000
0.000000
0.000000
0.000000
0.000000
0.000000
0.000000
0.000000
0.000000
0.000000
0.000000
0.000000

SCALARS u_y FLOAT 1
LOOKUP_TABLE default
0.000000
0.000000
0.000000
0.000000
0.000000
0.000000
0.000000
0.000000
0.000000
0.000000
0.000000
0.000000
0.000000
0.000000
0.000000
0.000000
0.000000
0.000000
0.000000
0.000000
0.000000
0.000000
0.000000
0.000000
0.000000
0.000000
0.000000
0.000000
0.000000
0.000000
0.000000
0.000000
0.000000
0.000000
0.000000
0.000000
0.000000
0.000000
0.000000
0.000000
0.000000
0.000000
0.000000
0.000000
0.000000
0.000000
0.000000
0.000000
0.000000
0.000000
0.000000
0.000000
0.000000
0.000000
0.000000
0.000000
0.000000
0.000000
0.000000
0.000000
0.000000
0.000000
0.000000
0.000000
0.000000
0.000000
0.000000
0.000000
0.000000
0.000000
0.000000
0.000000
0.000000
0.000000
0.000000
0.000000
0.000000
0.000000
0.000000
0.000000
0.000000
0.000000
0.000000
0.000000
0.000000
0.000000
0.000000
0.000000
0.000000
0.000000
0.000000
0.000000
0.000000
0.000000
0.000000
0.000000
0.000000
0.000000
0.000000
0.000000
0.000000
0.000000
0.000000
0.000000
0.000000
0.000000
0.000000
0.000000
0.000000
0.000000
0.000000
0.000000
0.000000
0.000000
0.000000
0.000000
0.000000
0.000000
0.000000
0.000000
0.000000
0.000000
0.000000
0.000000
0.000000
0.000000
0.000000
0.000000

SCALARS u_z FLOAT 1
LOOKUP_TABLE default
-0.276931
-0.830792
-0.276931
-0.830792
-0.276931
-0.830792
-0.276931
-0.830792
-1.378878
-1.910308
-1.378878
-1.910308
-1.378878
-1.910308
-1.378878
-1.910308
-2.434529
-2.947017
-2.434529
-2.947017
-2.434529
-2.947017
-2.434529
-2.947017
-3.447287
-3.937249
-3.447287
-3.937249
-3.447287
-3.937249
-3.447287
-3.937249
-4.415530
-4.879938
-4.415530
-4.879938
-4.415530
-4.879938
-4.415530
-4.879938
-5.333156
-5.771834
-5.333156
-5.771834
-5.333156
-5.771834
-5.333156
-5.771834
-6.196505
-6.608331
-6.196505
-6.608331
-6.196505
-6.608331
-6.196505
-6.608331
-7.004986
-7.388324
-7.004986
-7.388324
-7.004986
-7.388324
-7.004986
-7.388324
-7.757376
-8.107987
-7.757376
-8.107987
-7.757376
-8.107987
-7.757376
-8.107987
-8.440885
-8.757553
-8.440885
-8.757553
-8.440885
-8.757553
-8.440885
-8.757553
-9.057941
-9.338619
-9.057941
-9.338619
-9.057941
-9.338619
-9.057941
-9.338619
-9.597355
-9.838284
-9.597355
-9.838284
-9.597355
-9.838284
-9.597355
-9.838284
-10.055108
-10.250276
-10.055108
-10.250276
-10.055108
-10.250276
-10.055108
-10.250276
-10.420632
-10.569564
-10.420632
-10.569564
-10.420632
-10.569564
-10.420632
-10.569564
-10.692321
-10.784864
-10.692321
-10.784864
-10.692321
-10.784864
-10.692321
-10.784864
-10.850788
-10.891185
-10.850788
-10.891185
-10.850788
-10.891185
-10.850788
-10.891185

