# vtk DataFile Version 2.0
MATLAB generated vtk file, WMC
ASCII
DATASET UNSTRUCTURED_GRID
POINTS 256 double
0.195312 0.119957 0.000000 
0.195312 0.359872 0.000000 
0.585938 0.119957 0.000000 
0.585938 0.359872 0.000000 
0.195312 0.600118 0.000000 
0.195312 0.841374 0.000000 
0.585938 0.600118 0.000000 
0.585938 0.841374 0.000000 
0.195312 1.083134 0.000000 
0.195312 1.325520 0.000000 
0.585938 1.083134 0.000000 
0.585938 1.325520 0.000000 
0.195312 1.568598 0.000000 
0.195312 1.812303 0.000000 
0.585938 1.568598 0.000000 
0.585938 1.812303 0.000000 
0.195312 2.056577 0.000000 
0.195312 2.301618 0.000000 
0.585938 2.056577 0.000000 
0.585938 2.301618 0.000000 
0.195312 2.547314 0.000000 
0.195312 2.793617 0.000000 
0.585938 2.547314 0.000000 
0.585938 2.793617 0.000000 
0.195312 3.040578 0.000000 
0.195312 3.288250 0.000000 
0.585938 3.040578 0.000000 
0.585938 3.288250 0.000000 
0.195312 3.536556 0.000000 
0.195312 3.785582 0.000000 
0.585938 3.536556 0.000000 
0.585938 3.785582 0.000000 
0.195312 4.035322 0.000000 
0.195312 4.285684 0.000000 
0.585938 4.035322 0.000000 
0.585938 4.285684 0.000000 
0.195312 4.536775 0.000000 
0.195312 4.788578 0.000000 
0.585938 4.536775 0.000000 
0.585938 4.788578 0.000000 
0.195312 5.041104 0.000000 
0.195312 5.294277 0.000000 
0.585938 5.041104 0.000000 
0.585938 5.294277 0.000000 
0.195312 5.548253 0.000000 
0.195312 5.802866 0.000000 
0.585938 5.548253 0.000000 
0.585938 5.802866 0.000000 
0.195312 6.058330 0.000000 
0.195312 6.314464 0.000000 
0.585938 6.058330 0.000000 
0.585938 6.314464 0.000000 
0.195312 6.571316 0.000000 
0.195312 6.828834 0.000000 
0.585938 6.571316 0.000000 
0.585938 6.828834 0.000000 
0.195312 7.087252 0.000000 
0.195312 7.346458 0.000000 
0.585938 7.087252 0.000000 
0.585938 7.346458 0.000000 
0.195312 7.606346 0.000000 
0.195312 7.867028 0.000000 
0.585938 7.606346 0.000000 
0.585938 7.867028 0.000000 
0.195312 8.128379 0.000000 
0.195312 8.390692 0.000000 
0.585938 8.128379 0.000000 
0.585938 8.390692 0.000000 
0.195312 8.653568 0.000000 
0.195312 8.917443 0.000000 
0.585938 8.653568 0.000000 
0.585938 8.917443 0.000000 
0.195312 9.181980 0.000000 
0.195312 9.447469 0.000000 
0.585938 9.181980 0.000000 
0.585938 9.447469 0.000000 
0.195312 9.713640 0.000000 
0.195312 9.980674 0.000000 
0.585938 9.713640 0.000000 
0.585938 9.980674 0.000000 
0.195312 10.248655 0.000000 
0.195312 10.517224 0.000000 
0.585938 10.248655 0.000000 
0.585938 10.517224 0.000000 
0.195312 10.786942 0.000000 
0.195312 11.057259 0.000000 
0.585938 10.786942 0.000000 
0.585938 11.057259 0.000000 
0.195312 11.328634 0.000000 
0.195312 11.600716 0.000000 
0.585938 11.328634 0.000000 
0.585938 11.600716 0.000000 
0.195312 11.873714 0.000000 
0.195312 12.147690 0.000000 
0.585938 11.873714 0.000000 
0.585938 12.147690 0.000000 
0.195312 12.422420 0.000000 
0.195312 12.698171 0.000000 
0.585938 12.422420 0.000000 
0.585938 12.698171 0.000000 
0.195312 12.974693 0.000000 
0.195312 13.252192 0.000000 
0.585938 12.974693 0.000000 
0.585938 13.252192 0.000000 
0.195312 13.530647 0.000000 
0.195312 13.809867 0.000000 
0.585938 13.530647 0.000000 
0.585938 13.809867 0.000000 
0.195312 14.090353 0.000000 
0.195312 14.371529 0.000000 
0.585938 14.090353 0.000000 
0.585938 14.371529 0.000000 
0.195312 14.653941 0.000000 
0.195312 14.937162 0.000000 
0.585938 14.653941 0.000000 
0.585938 14.937162 0.000000 
0.195312 15.221147 0.000000 
0.195312 15.506322 0.000000 
0.585938 15.221147 0.000000 
0.585938 15.506322 0.000000 
0.195312 15.792309 0.000000 
0.195312 16.079538 0.000000 
0.585938 15.792309 0.000000 
0.585938 16.079538 0.000000 
0.195312 16.367691 0.000000 
0.195312 16.656765 0.000000 
0.585938 16.367691 0.000000 
0.585938 16.656765 0.000000 
0.195312 16.947127 0.000000 
0.195312 17.238365 0.000000 
0.585938 16.947127 0.000000 
0.585938 17.238365 0.000000 
0.195312 17.530720 0.000000 
0.195312 17.824089 0.000000 
0.585938 17.530720 0.000000 
0.585938 17.824089 0.000000 
0.195312 18.118275 0.000000 
0.195312 18.414027 0.000000 
0.585938 18.118275 0.000000 
0.585938 18.414027 0.000000 
0.195312 18.710563 0.000000 
0.195312 19.008398 0.000000 
0.585938 18.710563 0.000000 
0.585938 19.008398 0.000000 
0.195312 19.307084 0.000000 
0.195312 19.607065 0.000000 
0.585938 19.307084 0.000000 
0.585938 19.607065 0.000000 
0.195312 19.908343 0.000000 
0.195312 20.210715 0.000000 
0.585938 19.908343 0.000000 
0.585938 20.210715 0.000000 
0.195312 20.514162 0.000000 
0.195312 20.818799 0.000000 
0.585938 20.514162 0.000000 
0.585938 20.818799 0.000000 
0.195312 21.124408 0.000000 
0.195312 21.431668 0.000000 
0.585938 21.124408 0.000000 
0.585938 21.431668 0.000000 
0.195312 21.739974 0.000000 
0.195312 22.049548 0.000000 
0.585938 21.739974 0.000000 
0.585938 22.049548 0.000000 
0.195312 22.360186 0.000000 
0.195312 22.672070 0.000000 
0.585938 22.360186 0.000000 
0.585938 22.672070 0.000000 
0.195312 22.985567 0.000000 
0.195312 23.300055 0.000000 
0.585938 22.985567 0.000000 
0.585938 23.300055 0.000000 
0.195312 23.616094 0.000000 
0.195312 23.933162 0.000000 
0.585938 23.616094 0.000000 
0.585938 23.933162 0.000000 
0.195312 24.251776 0.000000 
0.195312 24.571571 0.000000 
0.585938 24.251776 0.000000 
0.585938 24.571571 0.000000 
0.195312 24.892975 0.000000 
0.195312 25.215650 0.000000 
0.585938 24.892975 0.000000 
0.585938 25.215650 0.000000 
0.195312 25.539890 0.000000 
0.195312 25.865379 0.000000 
0.585938 25.539890 0.000000 
0.585938 25.865379 0.000000 
0.195312 26.192403 0.000000 
0.195312 26.520636 0.000000 
0.585938 26.192403 0.000000 
0.585938 26.520636 0.000000 
0.195312 26.850729 0.000000 
0.195312 27.182043 0.000000 
0.585938 26.850729 0.000000 
0.585938 27.182043 0.000000 
0.195312 27.515200 0.000000 
0.195312 27.849701 0.000000 
0.585938 27.515200 0.000000 
0.585938 27.849701 0.000000 
0.195312 28.185794 0.000000 
0.195312 28.523244 0.000000 
0.585938 28.185794 0.000000 
0.585938 28.523244 0.000000 
0.195312 28.862384 0.000000 
0.195312 29.203235 0.000000 
0.585938 28.862384 0.000000 
0.585938 29.203235 0.000000 
0.195312 29.545565 0.000000 
0.195312 29.889804 0.000000 
0.585938 29.545565 0.000000 
0.585938 29.889804 0.000000 
0.195312 30.235567 0.000000 
0.195312 30.583267 0.000000 
0.585938 30.235567 0.000000 
0.585938 30.583267 0.000000 
0.195312 30.932530 0.000000 
0.195312 31.283748 0.000000 
0.585938 30.932530 0.000000 
0.585938 31.283748 0.000000 
0.195312 31.636468 0.000000 
0.195312 31.991237 0.000000 
0.585938 31.636468 0.000000 
0.585938 31.991237 0.000000 
0.195312 32.347664 0.000000 
0.195312 32.706156 0.000000 
0.585938 32.347664 0.000000 
0.585938 32.706156 0.000000 
0.195312 33.066417 0.000000 
0.195312 33.428761 0.000000 
0.585938 33.066417 0.000000 
0.585938 33.428761 0.000000 
0.195312 33.792965 0.000000 
0.195312 34.159280 0.000000 
0.585938 33.792965 0.000000 
0.585938 34.159280 0.000000 
0.195312 34.527534 0.000000 
0.195312 34.897942 0.000000 
0.585938 34.527534 0.000000 
0.585938 34.897942 0.000000 
0.195312 35.270392 0.000000 
0.195312 35.645015 0.000000 
0.585938 35.270392 0.000000 
0.585938 35.645015 0.000000 
0.195312 36.021773 0.000000 
0.195312 36.400789 0.000000 
0.585938 36.021773 0.000000 
0.585938 36.400789 0.000000 
0.195312 36.781915 0.000000 
0.195312 37.165458 0.000000 
0.585938 36.781915 0.000000 
0.585938 37.165458 0.000000 
0.195312 37.551480 0.000000 
0.195312 37.939803 0.000000 
0.585938 37.551480 0.000000 
0.585938 37.939803 0.000000 

POINT_DATA 256
SCALARS sigma_xx FLOAT 1
LOOKUP_TABLE default
0.000000
0.000000
0.000000
0.000000
-0.000000
0.000000
-0.000000
0.000000
0.000000
0.000000
0.000000
0.000000
0.000000
0.000000
0.000000
0.000000
0.000000
0.000000
0.000000
0.000000
0.000000
-0.000000
0.000000
-0.000000
-0.000000
0.000000
-0.000000
0.000000
-0.000000
-0.000000
-0.000000
-0.000000
-0.000000
0.000000
-0.000000
0.000000
0.000000
0.000000
-0.000000
0.000000
-0.000000
-0.000000
-0.000000
-0.000000
-0.000000
-0.000000
-0.000000
-0.000000
0.000000
0.000000
0.000000
0.000000
-0.000000
0.000000
-0.000000
0.000000
-0.000000
-0.000000
-0.000000
-0.000000
0.000000
-0.000000
0.000000
-0.000000
-0.000000
0.000000
-0.000000
0.000000
-0.000000
-0.000000
-0.000000
-0.000000
-0.000000
0.000000
-0.000000
0.000000
-0.000000
-0.000000
-0.000000
-0.000000
0.000000
-0.000000
0.000000
0.000000
0.000000
0.000000
0.000000
0.000000
-0.000000
0.000000
-0.000000
0.000000
0.000000
-0.000000
0.000000
-0.000000
-0.000000
0.000000
-0.000000
0.000000
0.000000
0.000000
0.000000
0.000000
-0.000000
-0.000000
-0.000000
-0.000000
-0.000000
0.000000
-0.000000
0.000000
-0.000000
-0.000000
-0.000000
-0.000000
-0.000000
-0.000000
-0.000000
-0.000000
-0.000000
0.000000
-0.000000
0.000000
-0.000000
-0.000000
-0.000000
-0.000000
0.000000
-0.000000
0.000000
-0.000000
0.000000
-0.000000
0.000000
-0.000000
0.000000
0.000000
0.000000
0.000000
-0.000000
0.000000
-0.000000
0.000000
0.000000
-0.000000
0.000000
-0.000000
-0.000000
-0.000000
-0.000000
-0.000000
0.000000
-0.000000
0.000000
-0.000000
0.000000
-0.000000
0.000000
-0.000000
-0.000000
0.000000
-0.000000
0.000000
0.000000
-0.000000
0.000000
-0.000000
0.000000
0.000000
0.000000
0.000000
0.000000
0.000000
0.000000
0.000000
-0.000000
0.000000
-0.000000
0.000000
0.000000
-0.000000
0.000000
-0.000000
-0.000000
0.000000
-0.000000
0.000000
-0.000000
0.000000
-0.000000
0.000000
-0.000000
-0.000000
-0.000000
-0.000000
0.000000
-0.000000
-0.000000
-0.000000
0.000000
-0.000000
-0.000000
-0.000000
-0.000000
-0.000000
-0.000000
-0.000000
0.000000
-0.000000
0.000000
-0.000000
-0.000000
0.000000
-0.000000
0.000000
0.000000
0.000000
0.000000
0.000000
-0.000000
-0.000000
-0.000000
-0.000000
-0.000000
-0.000000
-0.000000
-0.000000
0.000000
-0.000000
0.000000
-0.000000
-0.000000
-0.000000
-0.000000
-0.000000
-0.000000
-0.000000
-0.000000
-0.000000
-0.000000
0.000000
-0.000000
0.000000
0.000000
-0.000000
0.000000
-0.000000
-0.000000
-0.000000
-0.000000
-0.000000
-0.000000
-0.000000
-0.000000
-0.000000

SCALARS sigma_yy FLOAT 1
LOOKUP_TABLE default
-7936.786480
-7936.786480
-7936.786480
-7936.786480
-7849.024755
-7775.735257
-7849.024755
-7775.735257
-7720.058296
-7662.702777
-7720.058296
-7662.702777
-7584.369447
-7540.627690
-7584.369447
-7540.627690
-7468.985184
-7402.652780
-7468.985184
-7402.652780
-7340.951805
-7288.593536
-7340.951805
-7288.593536
-7214.120692
-7162.376938
-7214.120692
-7162.376938
-7091.503426
-7030.221515
-7091.503426
-7030.221515
-6963.590315
-6913.775167
-6963.590315
-6913.775167
-6837.415159
-6787.315179
-6837.415159
-6787.315179
-6715.396901
-6660.740187
-6715.396901
-6660.740187
-6585.933923
-6539.534087
-6585.933923
-6539.534087
-6456.693417
-6415.455751
-6456.693417
-6415.455751
-6338.929507
-6291.729459
-6338.929507
-6291.729459
-6204.097222
-6162.071218
-6204.097222
-6162.071218
-6080.231724
-6043.290088
-6080.231724
-6043.290088
-5965.128820
-5908.489748
-5965.128820
-5908.489748
-5843.892436
-5784.621390
-5843.892436
-5784.621390
-5719.328924
-5653.481206
-5719.328924
-5653.481206
-5599.881278
-5526.274323
-5599.881278
-5526.274323
-5469.639950
-5410.020567
-5469.639950
-5410.020567
-5335.883289
-5291.658245
-5335.883289
-5291.658245
-5207.104961
-5167.668884
-5207.104961
-5167.668884
-5085.064104
-5034.132352
-5085.064104
-5034.132352
-4965.843598
-4909.820389
-4965.843598
-4909.820389
-4846.338319
-4780.229751
-4846.338319
-4780.229751
-4720.907207
-4661.209381
-4720.907207
-4661.209381
-4583.130284
-4539.963312
-4583.130284
-4539.963312
-4443.565381
-4423.463973
-4443.565381
-4423.463973
-4336.481326
-4293.341481
-4336.481326
-4293.341481
-4216.165414
-4154.753107
-4216.165414
-4154.753107
-4091.817056
-4036.946574
-4091.817056
-4036.946574
-3954.508030
-3919.204408
-3954.508030
-3919.204408
-3826.691753
-3800.680638
-3826.691753
-3800.680638
-3709.622574
-3658.455359
-3709.622574
-3658.455359
-3591.060423
-3534.565071
-3591.060423
-3534.565071
-3474.106670
-3404.065344
-3474.106670
-3404.065344
-3335.242762
-3283.997281
-3335.242762
-3283.997281
-3215.409149
-3165.605829
-3215.409149
-3165.605829
-3094.448326
-3022.412759
-3094.448326
-3022.412759
-2969.853966
-2903.694828
-2969.853966
-2903.694828
-2857.073529
-2775.042769
-2857.073529
-2775.042769
-2718.131653
-2654.994424
-2718.131653
-2654.994424
-2593.052296
-2536.901132
-2593.052296
-2536.901132
-2466.494231
-2412.437496
-2466.494231
-2412.437496
-2337.491824
-2284.498198
-2337.491824
-2284.498198
-2211.288813
-2162.277626
-2211.288813
-2162.277626
-2091.201113
-2039.043291
-2091.201113
-2039.043291
-1957.111834
-1914.637459
-1957.111834
-1914.637459
-1826.271790
-1790.056889
-1826.271790
-1790.056889
-1710.124417
-1674.199557
-1710.124417
-1674.199557
-1582.554564
-1545.518110
-1582.554564
-1545.518110
-1460.009760
-1414.918863
-1460.009760
-1414.918863
-1334.930754
-1286.849398
-1334.930754
-1286.849398
-1210.071085
-1162.342032
-1210.071085
-1162.342032
-1090.826889
-1035.893043
-1090.826889
-1035.893043
-966.492923
-909.653445
-966.492923
-909.653445
-841.385350
-783.585454
-841.385350
-783.585454
-716.380831
-657.953630
-716.380831
-657.953630
-591.748856
-532.005931
-591.748856
-532.005931
-466.650043
-407.283396
-466.650043
-407.283396
-340.986043
-283.079153
-340.986043
-283.079153
-218.893470
-154.896496
-218.893470
-154.896496
-85.899127
-35.470512
-85.899127
-35.470512

SCALARS sigma_zz FLOAT 1
LOOKUP_TABLE default
0.000000
0.000000
0.000000
0.000000
0.000000
0.000000
0.000000
0.000000
0.000000
0.000000
0.000000
0.000000
0.000000
0.000000
0.000000
0.000000
0.000000
0.000000
0.000000
0.000000
0.000000
0.000000
0.000000
0.000000
0.000000
0.000000
0.000000
0.000000
0.000000
0.000000
0.000000
0.000000
0.000000
0.000000
0.000000
0.000000
0.000000
0.000000
0.000000
0.000000
0.000000
0.000000
0.000000
0.000000
0.000000
0.000000
0.000000
0.000000
0.000000
0.000000
0.000000
0.000000
0.000000
0.000000
0.000000
0.000000
0.000000
0.000000
0.000000
0.000000
0.000000
0.000000
0.000000
0.000000
0.000000
0.000000
0.000000
0.000000
0.000000
0.000000
0.000000
0.000000
0.000000
0.000000
0.000000
0.000000
0.000000
0.000000
0.000000
0.000000
0.000000
0.000000
0.000000
0.000000
0.000000
0.000000
0.000000
0.000000
0.000000
0.000000
0.000000
0.000000
0.000000
0.000000
0.000000
0.000000
0.000000
0.000000
0.000000
0.000000
0.000000
0.000000
0.000000
0.000000
0.000000
0.000000
0.000000
0.000000
0.000000
0.000000
0.000000
0.000000
0.000000
0.000000
0.000000
0.000000
0.000000
0.000000
0.000000
0.000000
0.000000
0.000000
0.000000
0.000000
0.000000
0.000000
0.000000
0.000000
0.000000
0.000000
0.000000
0.000000
0.000000
0.000000
0.000000
0.000000
0.000000
0.000000
0.000000
0.000000
0.000000
0.000000
0.000000
0.000000
0.000000
0.000000
0.000000
0.000000
0.000000
0.000000
0.000000
0.000000
0.000000
0.000000
0.000000
0.000000
0.000000
0.000000
0.000000
0.000000
0.000000
0.000000
0.000000
0.000000
0.000000
0.000000
0.000000
0.000000
0.000000
0.000000
0.000000
0.000000
0.000000
0.000000
0.000000
0.000000
0.000000
0.000000
0.000000
0.000000
0.000000
0.000000
0.000000
0.000000
0.000000
0.000000
0.000000
0.000000
0.000000
0.000000
0.000000
0.000000
0.000000
0.000000
0.000000
0.000000
0.000000
0.000000
0.000000
0.000000
0.000000
0.000000
0.000000
0.000000
0.000000
0.000000
0.000000
0.000000
0.000000
0.000000
0.000000
0.000000
0.000000
0.000000
0.000000
0.000000
0.000000
0.000000
0.000000
0.000000
0.000000
0.000000
0.000000
0.000000
0.000000
0.000000
0.000000
0.000000
0.000000
0.000000
0.000000
0.000000
0.000000
0.000000
0.000000
0.000000
0.000000
0.000000
0.000000
0.000000
0.000000
0.000000
0.000000
0.000000
0.000000
0.000000
0.000000
0.000000
0.000000
0.000000
0.000000
0.000000
0.000000
0.000000
0.000000
0.000000

SCALARS sigma_xy FLOAT 1
LOOKUP_TABLE default
0.000000
0.000000
0.000000
0.000000
0.000000
0.000000
0.000000
0.000000
0.000000
0.000000
0.000000
0.000000
0.000000
0.000000
0.000000
0.000000
0.000000
0.000000
0.000000
0.000000
0.000000
0.000000
0.000000
0.000000
0.000000
0.000000
0.000000
0.000000
-0.000000
-0.000000
-0.000000
-0.000000
-0.000000
0.000000
-0.000000
0.000000
0.000000
0.000000
0.000000
0.000000
-0.000000
-0.000000
-0.000000
-0.000000
-0.000000
-0.000000
-0.000000
-0.000000
0.000000
0.000000
0.000000
0.000000
-0.000000
0.000000
-0.000000
0.000000
0.000000
0.000000
0.000000
0.000000
0.000000
-0.000000
0.000000
-0.000000
-0.000000
0.000000
-0.000000
0.000000
0.000000
-0.000000
0.000000
-0.000000
-0.000000
0.000000
-0.000000
0.000000
0.000000
0.000000
0.000000
0.000000
0.000000
-0.000000
0.000000
0.000000
0.000000
0.000000
0.000000
0.000000
-0.000000
0.000000
-0.000000
0.000000
0.000000
-0.000000
0.000000
-0.000000
0.000000
0.000000
0.000000
0.000000
0.000000
0.000000
0.000000
0.000000
0.000000
0.000000
0.000000
0.000000
0.000000
0.000000
0.000000
0.000000
-0.000000
-0.000000
-0.000000
-0.000000
-0.000000
-0.000000
-0.000000
-0.000000
0.000000
0.000000
0.000000
0.000000
0.000000
0.000000
0.000000
0.000000
0.000000
-0.000000
0.000000
-0.000000
0.000000
-0.000000
0.000000
-0.000000
0.000000
0.000000
0.000000
0.000000
0.000000
0.000000
0.000000
0.000000
0.000000
-0.000000
0.000000
-0.000000
-0.000000
0.000000
-0.000000
0.000000
0.000000
0.000000
0.000000
0.000000
0.000000
-0.000000
0.000000
-0.000000
-0.000000
0.000000
-0.000000
0.000000
0.000000
-0.000000
0.000000
-0.000000
0.000000
0.000000
0.000000
0.000000
0.000000
0.000000
0.000000
0.000000
0.000000
0.000000
0.000000
0.000000
0.000000
-0.000000
0.000000
-0.000000
-0.000000
0.000000
-0.000000
0.000000
-0.000000
0.000000
-0.000000
0.000000
-0.000000
0.000000
-0.000000
0.000000
0.000000
0.000000
-0.000000
0.000000
0.000000
-0.000000
-0.000000
-0.000000
0.000000
-0.000000
0.000000
-0.000000
0.000000
0.000000
0.000000
0.000000
0.000000
0.000000
0.000000
0.000000
0.000000
0.000000
0.000000
0.000000
-0.000000
0.000000
-0.000000
0.000000
-0.000000
0.000000
-0.000000
0.000000
0.000000
0.000000
0.000000
0.000000
0.000000
0.000000
0.000000
0.000000
-0.000000
-0.000000
-0.000000
-0.000000
-0.000000
0.000000
-0.000000
0.000000
0.000000
0.000000
0.000000
0.000000
0.000000
0.000000
0.000000
0.000000
-0.000000
-0.000000
-0.000000
-0.000000

SCALARS sigma_yz FLOAT 1
LOOKUP_TABLE default
0.000000
0.000000
0.000000
0.000000
0.000000
0.000000
0.000000
0.000000
0.000000
0.000000
0.000000
0.000000
0.000000
0.000000
0.000000
0.000000
0.000000
0.000000
0.000000
0.000000
0.000000
0.000000
0.000000
0.000000
0.000000
0.000000
0.000000
0.000000
0.000000
0.000000
0.000000
0.000000
0.000000
0.000000
0.000000
0.000000
0.000000
0.000000
0.000000
0.000000
0.000000
0.000000
0.000000
0.000000
0.000000
0.000000
0.000000
0.000000
0.000000
0.000000
0.000000
0.000000
0.000000
0.000000
0.000000
0.000000
0.000000
0.000000
0.000000
0.000000
0.000000
0.000000
0.000000
0.000000
0.000000
0.000000
0.000000
0.000000
0.000000
0.000000
0.000000
0.000000
0.000000
0.000000
0.000000
0.000000
0.000000
0.000000
0.000000
0.000000
0.000000
0.000000
0.000000
0.000000
0.000000
0.000000
0.000000
0.000000
0.000000
0.000000
0.000000
0.000000
0.000000
0.000000
0.000000
0.000000
0.000000
0.000000
0.000000
0.000000
0.000000
0.000000
0.000000
0.000000
0.000000
0.000000
0.000000
0.000000
0.000000
0.000000
0.000000
0.000000
0.000000
0.000000
0.000000
0.000000
0.000000
0.000000
0.000000
0.000000
0.000000
0.000000
0.000000
0.000000
0.000000
0.000000
0.000000
0.000000
0.000000
0.000000
0.000000
0.000000
0.000000
0.000000
0.000000
0.000000
0.000000
0.000000
0.000000
0.000000
0.000000
0.000000
0.000000
0.000000
0.000000
0.000000
0.000000
0.000000
0.000000
0.000000
0.000000
0.000000
0.000000
0.000000
0.000000
0.000000
0.000000
0.000000
0.000000
0.000000
0.000000
0.000000
0.000000
0.000000
0.000000
0.000000
0.000000
0.000000
0.000000
0.000000
0.000000
0.000000
0.000000
0.000000
0.000000
0.000000
0.000000
0.000000
0.000000
0.000000
0.000000
0.000000
0.000000
0.000000
0.000000
0.000000
0.000000
0.000000
0.000000
0.000000
0.000000
0.000000
0.000000
0.000000
0.000000
0.000000
0.000000
0.000000
0.000000
0.000000
0.000000
0.000000
0.000000
0.000000
0.000000
0.000000
0.000000
0.000000
0.000000
0.000000
0.000000
0.000000
0.000000
0.000000
0.000000
0.000000
0.000000
0.000000
0.000000
0.000000
0.000000
0.000000
0.000000
0.000000
0.000000
0.000000
0.000000
0.000000
0.000000
0.000000
0.000000
0.000000
0.000000
0.000000
0.000000
0.000000
0.000000
0.000000
0.000000
0.000000
0.000000
0.000000
0.000000
0.000000
0.000000
0.000000
0.000000
0.000000
0.000000
0.000000
0.000000
0.000000
0.000000
0.000000
0.000000
0.000000

SCALARS sigma_zx FLOAT 1
LOOKUP_TABLE default
0.000000
0.000000
0.000000
0.000000
0.000000
0.000000
0.000000
0.000000
0.000000
0.000000
0.000000
0.000000
0.000000
0.000000
0.000000
0.000000
0.000000
0.000000
0.000000
0.000000
0.000000
0.000000
0.000000
0.000000
0.000000
0.000000
0.000000
0.000000
0.000000
0.000000
0.000000
0.000000
0.000000
0.000000
0.000000
0.000000
0.000000
0.000000
0.000000
0.000000
0.000000
0.000000
0.000000
0.000000
0.000000
0.000000
0.000000
0.000000
0.000000
0.000000
0.000000
0.000000
0.000000
0.000000
0.000000
0.000000
0.000000
0.000000
0.000000
0.000000
0.000000
0.000000
0.000000
0.000000
0.000000
0.000000
0.000000
0.000000
0.000000
0.000000
0.000000
0.000000
0.000000
0.000000
0.000000
0.000000
0.000000
0.000000
0.000000
0.000000
0.000000
0.000000
0.000000
0.000000
0.000000
0.000000
0.000000
0.000000
0.000000
0.000000
0.000000
0.000000
0.000000
0.000000
0.000000
0.000000
0.000000
0.000000
0.000000
0.000000
0.000000
0.000000
0.000000
0.000000
0.000000
0.000000
0.000000
0.000000
0.000000
0.000000
0.000000
0.000000
0.000000
0.000000
0.000000
0.000000
0.000000
0.000000
0.000000
0.000000
0.000000
0.000000
0.000000
0.000000
0.000000
0.000000
0.000000
0.000000
0.000000
0.000000
0.000000
0.000000
0.000000
0.000000
0.000000
0.000000
0.000000
0.000000
0.000000
0.000000
0.000000
0.000000
0.000000
0.000000
0.000000
0.000000
0.000000
0.000000
0.000000
0.000000
0.000000
0.000000
0.000000
0.000000
0.000000
0.000000
0.000000
0.000000
0.000000
0.000000
0.000000
0.000000
0.000000
0.000000
0.000000
0.000000
0.000000
0.000000
0.000000
0.000000
0.000000
0.000000
0.000000
0.000000
0.000000
0.000000
0.000000
0.000000
0.000000
0.000000
0.000000
0.000000
0.000000
0.000000
0.000000
0.000000
0.000000
0.000000
0.000000
0.000000
0.000000
0.000000
0.000000
0.000000
0.000000
0.000000
0.000000
0.000000
0.000000
0.000000
0.000000
0.000000
0.000000
0.000000
0.000000
0.000000
0.000000
0.000000
0.000000
0.000000
0.000000
0.000000
0.000000
0.000000
0.000000
0.000000
0.000000
0.000000
0.000000
0.000000
0.000000
0.000000
0.000000
0.000000
0.000000
0.000000
0.000000
0.000000
0.000000
0.000000
0.000000
0.000000
0.000000
0.000000
0.000000
0.000000
0.000000
0.000000
0.000000
0.000000
0.000000
0.000000
0.000000
0.000000
0.000000
0.000000
0.000000
0.000000
0.000000
0.000000
0.000000
0.000000
0.000000
0.000000
0.000000
0.000000

SCALARS u_x FLOAT 1
LOOKUP_TABLE default
0.000000
0.000000
0.000000
0.000000
0.000000
0.000000
0.000000
0.000000
0.000000
0.000000
0.000000
0.000000
0.000000
0.000000
0.000000
0.000000
0.000000
0.000000
0.000000
0.000000
0.000000
0.000000
0.000000
0.000000
0.000000
0.000000
0.000000
0.000000
0.000000
0.000000
0.000000
0.000000
0.000000
0.000000
0.000000
0.000000
0.000000
0.000000
0.000000
0.000000
0.000000
0.000000
0.000000
0.000000
0.000000
0.000000
0.000000
0.000000
0.000000
0.000000
0.000000
0.000000
0.000000
0.000000
0.000000
0.000000
0.000000
0.000000
0.000000
0.000000
0.000000
0.000000
0.000000
0.000000
0.000000
0.000000
0.000000
0.000000
0.000000
0.000000
0.000000
0.000000
0.000000
0.000000
0.000000
0.000000
0.000000
0.000000
0.000000
0.000000
0.000000
0.000000
0.000000
0.000000
0.000000
0.000000
0.000000
0.000000
0.000000
0.000000
0.000000
0.000000
0.000000
0.000000
0.000000
0.000000
0.000000
0.000000
0.000000
0.000000
0.000000
0.000000
0.000000
0.000000
0.000000
0.000000
0.000000
0.000000
0.000000
0.000000
0.000000
0.000000
0.000000
0.000000
0.000000
0.000000
0.000000
0.000000
0.000000
0.000000
0.000000
0.000000
0.000000
0.000000
0.000000
0.000000
0.000000
0.000000
0.000000
0.000000
0.000000
0.000000
0.000000
0.000000
0.000000
0.000000
0.000000
0.000000
0.000000
0.000000
0.000000
0.000000
0.000000
0.000000
0.000000
0.000000
0.000000
0.000000
0.000000
0.000000
0.000000
0.000000
0.000000
0.000000
0.000000
0.000000
0.000000
0.000000
0.000000
0.000000
0.000000
0.000000
0.000000
0.000000
0.000000
0.000000
0.000000
0.000000
0.000000
0.000000
0.000000
0.000000
0.000000
0.000000
0.000000
0.000000
0.000000
0.000000
0.000000
0.000000
0.000000
0.000000
0.000000
0.000000
0.000000
0.000000
0.000000
0.000000
0.000000
0.000000
0.000000
0.000000
0.000000
0.000000
0.000000
0.000000
0.000000
0.000000
0.000000
0.000000
0.000000
0.000000
0.000000
0.000000
0.000000
0.000000
0.000000
0.000000
0.000000
0.000000
0.000000
0.000000
0.000000
0.000000
0.000000
0.000000
0.000000
0.000000
0.000000
0.000000
0.000000
0.000000
0.000000
0.000000
0.000000
0.000000
0.000000
0.000000
0.000000
0.000000
0.000000
0.000000
0.000000
0.000000
0.000000
0.000000
0.000000
0.000000
0.000000
0.000000
0.000000
0.000000
0.000000
0.000000
0.000000
0.000000
0.000000
0.000000
0.000000
0.000000
0.000000
0.000000
0.000000
0.000000
0.000000
0.000000

SCALARS u_y FLOAT 1
LOOKUP_TABLE default
-0.075355
-0.226065
-0.075355
-0.226065
-0.376444
-0.525814
-0.376444
-0.525814
-0.674679
-0.822917
-0.674679
-0.822917
-0.970464
-1.117384
-0.970464
-1.117384
-1.263736
-1.409320
-1.263736
-1.409320
-1.554249
-1.698571
-1.554249
-1.698571
-1.842235
-1.985188
-1.842235
-1.985188
-2.127506
-2.269105
-2.127506
-2.269105
-2.409991
-2.550254
-2.409991
-2.550254
-2.689788
-2.828610
-2.689788
-2.828610
-2.966709
-3.104160
-2.966709
-3.104160
-3.240810
-3.376822
-3.240810
-3.376822
-3.511982
-3.646473
-3.511982
-3.646473
-3.780247
-3.913354
-3.780247
-3.913354
-4.045560
-4.176979
-4.045560
-4.176979
-4.307717
-4.437659
-4.307717
-4.437659
-4.566934
-4.695245
-4.566934
-4.695245
-4.822994
-4.949744
-4.822994
-4.949744
-5.075833
-5.200968
-5.075833
-5.200968
-5.325423
-5.449014
-5.325423
-5.449014
-5.571657
-5.693713
-5.571657
-5.693713
-5.814621
-5.934929
-5.814621
-5.934929
-6.054178
-6.172722
-6.054178
-6.172722
-6.290348
-6.406998
-6.290348
-6.406998
-6.522893
-6.637767
-6.522893
-6.637767
-6.751869
-6.864995
-6.751869
-6.864995
-6.977166
-7.088570
-6.977166
-7.088570
-7.198709
-7.308159
-7.198709
-7.308159
-7.416372
-7.523775
-7.416372
-7.523775
-7.630415
-7.735866
-7.630415
-7.735866
-7.840503
-7.943899
-7.840503
-7.943899
-8.046371
-8.147922
-8.046371
-8.147922
-8.248186
-8.347573
-8.248186
-8.347573
-8.445843
-8.543099
-8.445843
-8.543099
-8.639538
-8.734410
-8.639538
-8.734410
-8.828499
-8.921290
-8.828499
-8.921290
-9.013228
-9.103873
-9.013228
-9.103873
-9.193220
-9.281472
-9.193220
-9.281472
-9.368650
-9.454638
-9.368650
-9.454638
-9.539654
-9.623019
-9.539654
-9.623019
-9.705339
-9.786389
-9.705339
-9.786389
-9.866377
-9.945117
-9.866377
-9.945117
-10.022245
-10.098382
-10.022245
-10.098382
-10.172969
-10.246525
-10.172969
-10.246525
-10.318536
-10.389366
-10.318536
-10.389366
-10.458588
-10.526538
-10.458588
-10.526538
-10.592922
-10.658058
-10.592922
-10.658058
-10.721660
-10.784052
-10.721660
-10.784052
-10.844583
-10.903895
-10.844583
-10.903895
-10.961362
-11.017487
-10.961362
-11.017487
-11.072019
-11.125193
-11.072019
-11.125193
-11.176679
-11.226452
-11.176679
-11.226452
-11.274748
-11.321134
-11.274748
-11.321134
-11.365995
-11.408921
-11.365995
-11.408921
-11.450283
-11.489690
-11.450283
-11.489690
-11.527595
-11.563451
-11.527595
-11.563451
-11.597648
-11.629781
-11.597648
-11.629781
-11.660145
-11.688426
-11.660145
-11.688426
-11.714847
-11.739158
-11.714847
-11.739158
-11.761528
-11.781746
-11.761528
-11.781746
-11.799920
-11.815923
-11.799920
-11.815923
-11.829789
-11.841399
-11.829789
-11.841399
-11.850897
-11.857980
-11.850897
-11.857980
-11.862582
-11.864885
-11.862582
-11.864885

