# vtk DataFile Version 2.0
MATLAB generated vtk file, WMC
ASCII
DATASET UNSTRUCTURED_GRID
POINTS 256 double
0.195312 0.068700 0.000000 
0.195312 0.206100 0.000000 
0.585938 0.068700 0.000000 
0.585938 0.206100 0.000000 
0.195312 0.343689 0.000000 
0.195312 0.481903 0.000000 
0.585938 0.343689 0.000000 
0.585938 0.481903 0.000000 
0.195312 0.620728 0.000000 
0.195312 0.760284 0.000000 
0.585938 0.620728 0.000000 
0.585938 0.760284 0.000000 
0.195312 0.900449 0.000000 
0.195312 1.041133 0.000000 
0.585938 0.900449 0.000000 
0.585938 1.041133 0.000000 
0.195312 1.182353 0.000000 
0.195312 1.324199 0.000000 
0.585938 1.182353 0.000000 
0.585938 1.324199 0.000000 
0.195312 1.466681 0.000000 
0.195312 1.609815 0.000000 
0.585938 1.466681 0.000000 
0.585938 1.609815 0.000000 
0.195312 1.753502 0.000000 
0.195312 1.897799 0.000000 
0.585938 1.753502 0.000000 
0.585938 1.897799 0.000000 
0.195312 2.042695 0.000000 
0.195312 2.188258 0.000000 
0.585938 2.042695 0.000000 
0.585938 2.188258 0.000000 
0.195312 2.334488 0.000000 
0.195312 2.481370 0.000000 
0.585938 2.334488 0.000000 
0.585938 2.481370 0.000000 
0.195312 2.628879 0.000000 
0.195312 2.777040 0.000000 
0.585938 2.628879 0.000000 
0.585938 2.777040 0.000000 
0.195312 2.925910 0.000000 
0.195312 3.075493 0.000000 
0.585938 2.925910 0.000000 
0.585938 3.075493 0.000000 
0.195312 3.225781 0.000000 
0.195312 3.376702 0.000000 
0.585938 3.225781 0.000000 
0.585938 3.376702 0.000000 
0.195312 3.528322 0.000000 
0.195312 3.680652 0.000000 
0.585938 3.528322 0.000000 
0.585938 3.680652 0.000000 
0.195312 3.833743 0.000000 
0.195312 3.987529 0.000000 
0.585938 3.833743 0.000000 
0.585938 3.987529 0.000000 
0.195312 4.142088 0.000000 
0.195312 4.297384 0.000000 
0.585938 4.142088 0.000000 
0.585938 4.297384 0.000000 
0.195312 4.453411 0.000000 
0.195312 4.610233 0.000000 
0.585938 4.453411 0.000000 
0.585938 4.610233 0.000000 
0.195312 4.767850 0.000000 
0.195312 4.926272 0.000000 
0.585938 4.767850 0.000000 
0.585938 4.926272 0.000000 
0.195312 5.085382 0.000000 
0.195312 5.245386 0.000000 
0.585938 5.085382 0.000000 
0.585938 5.245386 0.000000 
0.195312 5.406189 0.000000 
0.195312 5.567868 0.000000 
0.585938 5.406189 0.000000 
0.585938 5.567868 0.000000 
0.195312 5.730325 0.000000 
0.195312 5.893631 0.000000 
0.585938 5.730325 0.000000 
0.585938 5.893631 0.000000 
0.195312 6.057849 0.000000 
0.195312 6.222841 0.000000 
0.585938 6.057849 0.000000 
0.585938 6.222841 0.000000 
0.195312 6.388800 0.000000 
0.195312 6.555539 0.000000 
0.585938 6.388800 0.000000 
0.585938 6.555539 0.000000 
0.195312 6.723309 0.000000 
0.195312 6.891933 0.000000 
0.585938 6.723309 0.000000 
0.585938 6.891933 0.000000 
0.195312 7.061539 0.000000 
0.195312 7.232090 0.000000 
0.585938 7.061539 0.000000 
0.585938 7.232090 0.000000 
0.195312 7.403554 0.000000 
0.195312 7.576084 0.000000 
0.585938 7.403554 0.000000 
0.585938 7.576084 0.000000 
0.195312 7.749558 0.000000 
0.195312 7.924022 0.000000 
0.585938 7.749558 0.000000 
0.585938 7.924022 0.000000 
0.195312 8.099525 0.000000 
0.195312 8.275944 0.000000 
0.585938 8.099525 0.000000 
0.585938 8.275944 0.000000 
0.195312 8.453527 0.000000 
0.195312 8.632125 0.000000 
0.585938 8.453527 0.000000 
0.585938 8.632125 0.000000 
0.195312 8.811873 0.000000 
0.195312 8.992699 0.000000 
0.585938 8.811873 0.000000 
0.585938 8.992699 0.000000 
0.195312 9.174634 0.000000 
0.195312 9.357750 0.000000 
0.585938 9.174634 0.000000 
0.585938 9.357750 0.000000 
0.195312 9.541994 0.000000 
0.195312 9.727419 0.000000 
0.585938 9.541994 0.000000 
0.585938 9.727419 0.000000 
0.195312 9.913960 0.000000 
0.195312 10.101750 0.000000 
0.585938 9.913960 0.000000 
0.585938 10.101750 0.000000 
0.195312 10.290841 0.000000 
0.195312 10.481057 0.000000 
0.585938 10.290841 0.000000 
0.585938 10.481057 0.000000 
0.195312 10.672661 0.000000 
0.195312 10.865497 0.000000 
0.585938 10.672661 0.000000 
0.585938 10.865497 0.000000 
0.195312 11.059623 0.000000 
0.195312 11.255228 0.000000 
0.585938 11.059623 0.000000 
0.585938 11.255228 0.000000 
0.195312 11.452035 0.000000 
0.195312 11.650408 0.000000 
0.585938 11.452035 0.000000 
0.585938 11.650408 0.000000 
0.195312 11.850088 0.000000 
0.195312 12.051197 0.000000 
0.585938 11.850088 0.000000 
0.585938 12.051197 0.000000 
0.195312 12.253725 0.000000 
0.195312 12.457742 0.000000 
0.585938 12.253725 0.000000 
0.585938 12.457742 0.000000 
0.195312 12.663359 0.000000 
0.195312 12.870598 0.000000 
0.585938 12.663359 0.000000 
0.585938 12.870598 0.000000 
0.195312 13.079386 0.000000 
0.195312 13.289987 0.000000 
0.585938 13.079386 0.000000 
0.585938 13.289987 0.000000 
0.195312 13.502069 0.000000 
0.195312 13.715890 0.000000 
0.585938 13.502069 0.000000 
0.585938 13.715890 0.000000 
0.195312 13.931252 0.000000 
0.195312 14.148418 0.000000 
0.585938 13.931252 0.000000 
0.585938 14.148418 0.000000 
0.195312 14.367576 0.000000 
0.195312 14.588401 0.000000 
0.585938 14.367576 0.000000 
0.585938 14.588401 0.000000 
0.195312 14.811461 0.000000 
0.195312 15.036196 0.000000 
0.585938 14.811461 0.000000 
0.585938 15.036196 0.000000 
0.195312 15.262915 0.000000 
0.195312 15.491510 0.000000 
0.585938 15.262915 0.000000 
0.585938 15.491510 0.000000 
0.195312 15.722309 0.000000 
0.195312 15.955157 0.000000 
0.585938 15.722309 0.000000 
0.585938 15.955157 0.000000 
0.195312 16.190188 0.000000 
0.195312 16.427535 0.000000 
0.585938 16.190188 0.000000 
0.585938 16.427535 0.000000 
0.195312 16.667270 0.000000 
0.195312 16.909040 0.000000 
0.585938 16.667270 0.000000 
0.585938 16.909040 0.000000 
0.195312 17.153542 0.000000 
0.195312 17.400260 0.000000 
0.585938 17.153542 0.000000 
0.585938 17.400260 0.000000 
0.195312 17.649682 0.000000 
0.195312 17.901453 0.000000 
0.585938 17.649682 0.000000 
0.585938 17.901453 0.000000 
0.195312 18.156133 0.000000 
0.195312 18.413761 0.000000 
0.585938 18.156133 0.000000 
0.585938 18.413761 0.000000 
0.195312 18.674007 0.000000 
0.195312 18.937290 0.000000 
0.585938 18.674007 0.000000 
0.585938 18.937290 0.000000 
0.195312 19.203396 0.000000 
0.195312 19.472945 0.000000 
0.585938 19.203396 0.000000 
0.585938 19.472945 0.000000 
0.195312 19.745364 0.000000 
0.195312 20.021168 0.000000 
0.585938 19.745364 0.000000 
0.585938 20.021168 0.000000 
0.195312 20.300532 0.000000 
0.195312 20.583357 0.000000 
0.585938 20.300532 0.000000 
0.585938 20.583357 0.000000 
0.195312 20.870311 0.000000 
0.195312 21.160952 0.000000 
0.585938 20.870311 0.000000 
0.585938 21.160952 0.000000 
0.195312 21.455444 0.000000 
0.195312 21.753654 0.000000 
0.585938 21.455444 0.000000 
0.585938 21.753654 0.000000 
0.195312 22.056317 0.000000 
0.195312 22.363828 0.000000 
0.585938 22.056317 0.000000 
0.585938 22.363828 0.000000 
0.195312 22.676255 0.000000 
0.195312 22.993473 0.000000 
0.585938 22.676255 0.000000 
0.585938 22.993473 0.000000 
0.195312 23.315169 0.000000 
0.195312 23.642599 0.000000 
0.585938 23.315169 0.000000 
0.585938 23.642599 0.000000 
0.195312 23.975028 0.000000 
0.195312 24.314018 0.000000 
0.585938 23.975028 0.000000 
0.585938 24.314018 0.000000 
0.195312 24.658787 0.000000 
0.195312 25.010790 0.000000 
0.585938 24.658787 0.000000 
0.585938 25.010790 0.000000 
0.195312 25.368902 0.000000 
0.195312 25.735330 0.000000 
0.585938 25.368902 0.000000 
0.585938 25.735330 0.000000 
0.195312 26.108699 0.000000 
0.195312 26.490709 0.000000 
0.585938 26.108699 0.000000 
0.585938 26.490709 0.000000 

POINT_DATA 256
SCALARS sigma_xx FLOAT 1
LOOKUP_TABLE default
0.000000
-0.000000
0.000000
-0.000000
0.000000
0.000000
0.000000
0.000000
-0.000000
-0.000000
-0.000000
-0.000000
0.000000
-0.000000
0.000000
-0.000000
-0.000000
-0.000000
-0.000000
-0.000000
-0.000000
-0.000000
-0.000000
-0.000000
-0.000000
-0.000000
-0.000000
-0.000000
-0.000000
-0.000000
-0.000000
-0.000000
-0.000000
0.000000
-0.000000
0.000000
0.000000
-0.000000
0.000000
-0.000000
-0.000000
-0.000000
-0.000000
-0.000000
-0.000000
-0.000000
-0.000000
-0.000000
-0.000000
0.000000
-0.000000
0.000000
-0.000000
-0.000000
-0.000000
-0.000000
-0.000000
-0.000000
-0.000000
-0.000000
-0.000000
-0.000000
-0.000000
-0.000000
-0.000000
-0.000000
-0.000000
-0.000000
-0.000000
-0.000000
-0.000000
-0.000000
-0.000000
-0.000000
-0.000000
-0.000000
-0.000000
-0.000000
-0.000000
-0.000000
-0.000000
-0.000000
-0.000000
-0.000000
-0.000000
-0.000000
-0.000000
-0.000000
-0.000000
-0.000000
-0.000000
-0.000000
-0.000000
-0.000000
-0.000000
-0.000000
-0.000000
0.000000
-0.000000
0.000000
-0.000000
-0.000000
-0.000000
-0.000000
0.000000
-0.000000
0.000000
-0.000000
-0.000000
0.000000
0.000000
0.000000
-0.000000
-0.000000
-0.000000
-0.000000
-0.000000
-0.000000
-0.000000
-0.000000
-0.000000
-0.000000
-0.000000
-0.000000
-0.000000
-0.000000
-0.000000
-0.000000
-0.000000
-0.000000
-0.000000
-0.000000
-0.000000
-0.000000
-0.000000
-0.000000
-0.000000
-0.000000
-0.000000
-0.000000
-0.000000
-0.000000
-0.000000
-0.000000
-0.000000
-0.000000
-0.000000
-0.000000
-0.000000
-0.000000
-0.000000
-0.000000
-0.000000
-0.000000
-0.000000
-0.000000
-0.000000
0.000000
-0.000000
-0.000000
0.000000
-0.000000
-0.000000
-0.000000
-0.000000
-0.000000
-0.000000
-0.000000
-0.000000
-0.000000
-0.000000
-0.000000
-0.000000
-0.000000
-0.000000
-0.000000
-0.000000
-0.000000
-0.000000
-0.000000
-0.000000
-0.000000
-0.000000
-0.000000
-0.000000
-0.000000
-0.000000
-0.000000
-0.000000
0.000000
-0.000000
0.000000
0.000000
-0.000000
0.000000
-0.000000
-0.000000
-0.000000
-0.000000
-0.000000
-0.000000
-0.000000
-0.000000
-0.000000
-0.000000
-0.000000
-0.000000
-0.000000
-0.000000
-0.000000
-0.000000
-0.000000
0.000000
-0.000000
0.000000
-0.000000
0.000000
0.000000
0.000000
0.000000
-0.000000
-0.000000
-0.000000
-0.000000
0.000000
0.000000
0.000000
0.000000
-0.000000
-0.000000
-0.000000
-0.000000
-0.000000
-0.000000
0.000000
-0.000000
-0.000000
-0.000000
-0.000000
-0.000000
-0.000000
-0.000000
-0.000000
-0.000000
-0.000000
0.000000
-0.000000
0.000000
-0.000000
-0.000000
0.000000
-0.000000
0.000000
-0.000000
0.000000
-0.000000

SCALARS sigma_yy FLOAT 1
LOOKUP_TABLE default
-29704.869746
-29704.869746
-29704.869746
-29704.869746
-29494.135177
-29250.698603
-29494.135177
-29250.698603
-28950.527024
-28684.150894
-28950.527024
-28684.150894
-28448.102912
-28262.741424
-28448.102912
-28262.741424
-28015.230237
-27781.556808
-28015.230237
-27781.556808
-27513.003984
-27302.183640
-27513.003984
-27302.183640
-27068.720206
-26855.886715
-27068.720206
-26855.886715
-26608.042239
-26375.028396
-26608.042239
-26375.028396
-26113.698503
-25911.541465
-26113.698503
-25911.541465
-25665.733127
-25451.873042
-25665.733127
-25451.873042
-25182.926192
-24950.691259
-25182.926192
-24950.691259
-24704.390760
-24516.348589
-24704.390760
-24516.348589
-24257.931220
-24038.177421
-24257.931220
-24038.177421
-23773.091573
-23565.131794
-23773.091573
-23565.131794
-23307.715959
-23101.617377
-23307.715959
-23101.617377
-22837.643931
-22622.010581
-22837.643931
-22622.010581
-22373.594194
-22145.935566
-22373.594194
-22145.935566
-21920.117739
-21686.004131
-21920.117739
-21686.004131
-21433.430790
-21203.665481
-21433.430790
-21203.665481
-20975.510443
-20748.951693
-20975.510443
-20748.951693
-20491.867352
-20287.233491
-20491.867352
-20287.233491
-20042.639542
-19821.260562
-20042.639542
-19821.260562
-19551.739640
-19351.186518
-19551.739640
-19351.186518
-19087.559921
-18872.919248
-19087.559921
-18872.919248
-18632.636383
-18389.618577
-18632.636383
-18389.618577
-18156.880227
-17934.630164
-18156.880227
-17934.630164
-17694.443166
-17480.219550
-17694.443166
-17480.219550
-17230.095688
-17000.295250
-17230.095688
-17000.295250
-16741.144994
-16531.829610
-16741.144994
-16531.829610
-16273.073536
-16050.249365
-16273.073536
-16050.249365
-15812.245530
-15594.117839
-15812.245530
-15594.117839
-15342.821539
-15130.153460
-15342.821539
-15130.153460
-14865.700385
-14668.230323
-14865.700385
-14668.230323
-14397.948893
-14186.459743
-14397.948893
-14186.459743
-13934.123381
-13721.439366
-13934.123381
-13721.439366
-13471.163901
-13236.582891
-13471.163901
-13236.582891
-13006.813371
-12783.970662
-13006.813371
-12783.970662
-12553.019716
-12324.606323
-12553.019716
-12324.606323
-12059.175664
-11836.581756
-12059.175664
-11836.581756
-11593.355812
-11343.572731
-11593.355812
-11343.572731
-11142.378362
-10898.521391
-11142.378362
-10898.521391
-10685.275010
-10425.577870
-10685.275010
-10425.577870
-10202.353106
-9946.138816
-10202.353106
-9946.138816
-9707.636890
-9493.357431
-9707.636890
-9493.357431
-9260.213080
-9031.171956
-9260.213080
-9031.171956
-8799.637552
-8556.500576
-8799.637552
-8556.500576
-8329.059994
-8073.781935
-8329.059994
-8073.781935
-7851.131375
-7624.693041
-7851.131375
-7624.693041
-7369.317841
-7165.172768
-7369.317841
-7165.172768
-6905.286633
-6701.586136
-6905.286633
-6701.586136
-6422.796985
-6210.523333
-6422.796985
-6210.523333
-5971.025896
-5748.557112
-5971.025896
-5748.557112
-5510.262559
-5266.516955
-5510.262559
-5266.516955
-5045.471588
-4813.081727
-5045.471588
-4813.081727
-4574.840489
-4333.298140
-4574.840489
-4333.298140
-4072.106712
-3869.658481
-4072.106712
-3869.658481
-3634.005318
-3431.475113
-3634.005318
-3431.475113
-3158.608225
-2921.471705
-3158.608225
-2921.471705
-2664.258087
-2472.954549
-2664.258087
-2472.954549
-2225.795136
-2009.682264
-2225.795136
-2009.682264
-1763.923133
-1526.964869
-1763.923133
-1526.964869
-1283.152877
-1054.848943
-1283.152877
-1054.848943
-813.615912
-574.505115
-813.615912
-574.505115
-354.655701
-107.803156
-354.655701
-107.803156

SCALARS sigma_zz FLOAT 1
LOOKUP_TABLE default
0.000000
0.000000
0.000000
0.000000
0.000000
0.000000
0.000000
0.000000
0.000000
0.000000
0.000000
0.000000
0.000000
0.000000
0.000000
0.000000
0.000000
0.000000
0.000000
0.000000
0.000000
0.000000
0.000000
0.000000
0.000000
0.000000
0.000000
0.000000
0.000000
0.000000
0.000000
0.000000
0.000000
0.000000
0.000000
0.000000
0.000000
0.000000
0.000000
0.000000
0.000000
0.000000
0.000000
0.000000
0.000000
0.000000
0.000000
0.000000
0.000000
0.000000
0.000000
0.000000
0.000000
0.000000
0.000000
0.000000
0.000000
0.000000
0.000000
0.000000
0.000000
0.000000
0.000000
0.000000
0.000000
0.000000
0.000000
0.000000
0.000000
0.000000
0.000000
0.000000
0.000000
0.000000
0.000000
0.000000
0.000000
0.000000
0.000000
0.000000
0.000000
0.000000
0.000000
0.000000
0.000000
0.000000
0.000000
0.000000
0.000000
0.000000
0.000000
0.000000
0.000000
0.000000
0.000000
0.000000
0.000000
0.000000
0.000000
0.000000
0.000000
0.000000
0.000000
0.000000
0.000000
0.000000
0.000000
0.000000
0.000000
0.000000
0.000000
0.000000
0.000000
0.000000
0.000000
0.000000
0.000000
0.000000
0.000000
0.000000
0.000000
0.000000
0.000000
0.000000
0.000000
0.000000
0.000000
0.000000
0.000000
0.000000
0.000000
0.000000
0.000000
0.000000
0.000000
0.000000
0.000000
0.000000
0.000000
0.000000
0.000000
0.000000
0.000000
0.000000
0.000000
0.000000
0.000000
0.000000
0.000000
0.000000
0.000000
0.000000
0.000000
0.000000
0.000000
0.000000
0.000000
0.000000
0.000000
0.000000
0.000000
0.000000
0.000000
0.000000
0.000000
0.000000
0.000000
0.000000
0.000000
0.000000
0.000000
0.000000
0.000000
0.000000
0.000000
0.000000
0.000000
0.000000
0.000000
0.000000
0.000000
0.000000
0.000000
0.000000
0.000000
0.000000
0.000000
0.000000
0.000000
0.000000
0.000000
0.000000
0.000000
0.000000
0.000000
0.000000
0.000000
0.000000
0.000000
0.000000
0.000000
0.000000
0.000000
0.000000
0.000000
0.000000
0.000000
0.000000
0.000000
0.000000
0.000000
0.000000
0.000000
0.000000
0.000000
0.000000
0.000000
0.000000
0.000000
0.000000
0.000000
0.000000
0.000000
0.000000
0.000000
0.000000
0.000000
0.000000
0.000000
0.000000
0.000000
0.000000
0.000000
0.000000
0.000000
0.000000
0.000000
0.000000
0.000000
0.000000
0.000000
0.000000
0.000000
0.000000
0.000000
0.000000
0.000000
0.000000
0.000000
0.000000
0.000000
0.000000
0.000000
0.000000
0.000000
0.000000

SCALARS sigma_xy FLOAT 1
LOOKUP_TABLE default
0.000000
0.000000
0.000000
0.000000
0.000000
0.000000
0.000000
0.000000
0.000000
0.000000
0.000000
0.000000
0.000000
0.000000
0.000000
0.000000
0.000000
0.000000
0.000000
0.000000
0.000000
0.000000
0.000000
0.000000
0.000000
-0.000000
0.000000
-0.000000
-0.000000
-0.000000
-0.000000
-0.000000
-0.000000
0.000000
-0.000000
0.000000
0.000000
0.000000
0.000000
0.000000
0.000000
-0.000000
0.000000
-0.000000
-0.000000
-0.000000
-0.000000
-0.000000
-0.000000
0.000000
-0.000000
0.000000
0.000000
0.000000
0.000000
0.000000
0.000000
0.000000
0.000000
0.000000
0.000000
-0.000000
0.000000
-0.000000
-0.000000
-0.000000
-0.000000
-0.000000
-0.000000
-0.000000
-0.000000
-0.000000
-0.000000
0.000000
-0.000000
0.000000
0.000000
0.000000
0.000000
0.000000
0.000000
0.000000
0.000000
0.000000
0.000000
-0.000000
0.000000
-0.000000
-0.000000
-0.000000
-0.000000
-0.000000
-0.000000
-0.000000
-0.000000
-0.000000
0.000000
0.000000
0.000000
0.000000
0.000000
0.000000
0.000000
0.000000
0.000000
0.000000
0.000000
0.000000
-0.000000
0.000000
0.000000
0.000000
-0.000000
-0.000000
-0.000000
-0.000000
-0.000000
-0.000000
-0.000000
-0.000000
-0.000000
0.000000
-0.000000
0.000000
0.000000
0.000000
0.000000
0.000000
-0.000000
-0.000000
-0.000000
-0.000000
0.000000
0.000000
0.000000
0.000000
0.000000
0.000000
0.000000
0.000000
0.000000
-0.000000
0.000000
-0.000000
-0.000000
-0.000000
-0.000000
-0.000000
-0.000000
0.000000
-0.000000
0.000000
-0.000000
0.000000
-0.000000
0.000000
0.000000
0.000000
0.000000
-0.000000
0.000000
-0.000000
0.000000
-0.000000
-0.000000
-0.000000
-0.000000
-0.000000
0.000000
0.000000
0.000000
0.000000
0.000000
-0.000000
0.000000
-0.000000
0.000000
-0.000000
0.000000
-0.000000
-0.000000
-0.000000
-0.000000
-0.000000
0.000000
0.000000
0.000000
0.000000
0.000000
0.000000
0.000000
0.000000
0.000000
-0.000000
0.000000
-0.000000
-0.000000
0.000000
-0.000000
0.000000
0.000000
-0.000000
0.000000
-0.000000
-0.000000
-0.000000
-0.000000
-0.000000
0.000000
0.000000
0.000000
0.000000
0.000000
-0.000000
0.000000
-0.000000
0.000000
0.000000
0.000000
0.000000
-0.000000
0.000000
-0.000000
0.000000
0.000000
0.000000
0.000000
0.000000
0.000000
0.000000
0.000000
0.000000
0.000000
0.000000
0.000000
0.000000
-0.000000
-0.000000
-0.000000
-0.000000
0.000000
0.000000
0.000000
0.000000
-0.000000
0.000000
-0.000000
0.000000
0.000000
0.000000
0.000000
0.000000
0.000000
-0.000000
0.000000
-0.000000

SCALARS sigma_yz FLOAT 1
LOOKUP_TABLE default
0.000000
0.000000
0.000000
0.000000
0.000000
0.000000
0.000000
0.000000
0.000000
0.000000
0.000000
0.000000
0.000000
0.000000
0.000000
0.000000
0.000000
0.000000
0.000000
0.000000
0.000000
0.000000
0.000000
0.000000
0.000000
0.000000
0.000000
0.000000
0.000000
0.000000
0.000000
0.000000
0.000000
0.000000
0.000000
0.000000
0.000000
0.000000
0.000000
0.000000
0.000000
0.000000
0.000000
0.000000
0.000000
0.000000
0.000000
0.000000
0.000000
0.000000
0.000000
0.000000
0.000000
0.000000
0.000000
0.000000
0.000000
0.000000
0.000000
0.000000
0.000000
0.000000
0.000000
0.000000
0.000000
0.000000
0.000000
0.000000
0.000000
0.000000
0.000000
0.000000
0.000000
0.000000
0.000000
0.000000
0.000000
0.000000
0.000000
0.000000
0.000000
0.000000
0.000000
0.000000
0.000000
0.000000
0.000000
0.000000
0.000000
0.000000
0.000000
0.000000
0.000000
0.000000
0.000000
0.000000
0.000000
0.000000
0.000000
0.000000
0.000000
0.000000
0.000000
0.000000
0.000000
0.000000
0.000000
0.000000
0.000000
0.000000
0.000000
0.000000
0.000000
0.000000
0.000000
0.000000
0.000000
0.000000
0.000000
0.000000
0.000000
0.000000
0.000000
0.000000
0.000000
0.000000
0.000000
0.000000
0.000000
0.000000
0.000000
0.000000
0.000000
0.000000
0.000000
0.000000
0.000000
0.000000
0.000000
0.000000
0.000000
0.000000
0.000000
0.000000
0.000000
0.000000
0.000000
0.000000
0.000000
0.000000
0.000000
0.000000
0.000000
0.000000
0.000000
0.000000
0.000000
0.000000
0.000000
0.000000
0.000000
0.000000
0.000000
0.000000
0.000000
0.000000
0.000000
0.000000
0.000000
0.000000
0.000000
0.000000
0.000000
0.000000
0.000000
0.000000
0.000000
0.000000
0.000000
0.000000
0.000000
0.000000
0.000000
0.000000
0.000000
0.000000
0.000000
0.000000
0.000000
0.000000
0.000000
0.000000
0.000000
0.000000
0.000000
0.000000
0.000000
0.000000
0.000000
0.000000
0.000000
0.000000
0.000000
0.000000
0.000000
0.000000
0.000000
0.000000
0.000000
0.000000
0.000000
0.000000
0.000000
0.000000
0.000000
0.000000
0.000000
0.000000
0.000000
0.000000
0.000000
0.000000
0.000000
0.000000
0.000000
0.000000
0.000000
0.000000
0.000000
0.000000
0.000000
0.000000
0.000000
0.000000
0.000000
0.000000
0.000000
0.000000
0.000000
0.000000
0.000000
0.000000
0.000000
0.000000
0.000000
0.000000
0.000000
0.000000
0.000000
0.000000
0.000000
0.000000
0.000000
0.000000
0.000000
0.000000

SCALARS sigma_zx FLOAT 1
LOOKUP_TABLE default
0.000000
0.000000
0.000000
0.000000
0.000000
0.000000
0.000000
0.000000
0.000000
0.000000
0.000000
0.000000
0.000000
0.000000
0.000000
0.000000
0.000000
0.000000
0.000000
0.000000
0.000000
0.000000
0.000000
0.000000
0.000000
0.000000
0.000000
0.000000
0.000000
0.000000
0.000000
0.000000
0.000000
0.000000
0.000000
0.000000
0.000000
0.000000
0.000000
0.000000
0.000000
0.000000
0.000000
0.000000
0.000000
0.000000
0.000000
0.000000
0.000000
0.000000
0.000000
0.000000
0.000000
0.000000
0.000000
0.000000
0.000000
0.000000
0.000000
0.000000
0.000000
0.000000
0.000000
0.000000
0.000000
0.000000
0.000000
0.000000
0.000000
0.000000
0.000000
0.000000
0.000000
0.000000
0.000000
0.000000
0.000000
0.000000
0.000000
0.000000
0.000000
0.000000
0.000000
0.000000
0.000000
0.000000
0.000000
0.000000
0.000000
0.000000
0.000000
0.000000
0.000000
0.000000
0.000000
0.000000
0.000000
0.000000
0.000000
0.000000
0.000000
0.000000
0.000000
0.000000
0.000000
0.000000
0.000000
0.000000
0.000000
0.000000
0.000000
0.000000
0.000000
0.000000
0.000000
0.000000
0.000000
0.000000
0.000000
0.000000
0.000000
0.000000
0.000000
0.000000
0.000000
0.000000
0.000000
0.000000
0.000000
0.000000
0.000000
0.000000
0.000000
0.000000
0.000000
0.000000
0.000000
0.000000
0.000000
0.000000
0.000000
0.000000
0.000000
0.000000
0.000000
0.000000
0.000000
0.000000
0.000000
0.000000
0.000000
0.000000
0.000000
0.000000
0.000000
0.000000
0.000000
0.000000
0.000000
0.000000
0.000000
0.000000
0.000000
0.000000
0.000000
0.000000
0.000000
0.000000
0.000000
0.000000
0.000000
0.000000
0.000000
0.000000
0.000000
0.000000
0.000000
0.000000
0.000000
0.000000
0.000000
0.000000
0.000000
0.000000
0.000000
0.000000
0.000000
0.000000
0.000000
0.000000
0.000000
0.000000
0.000000
0.000000
0.000000
0.000000
0.000000
0.000000
0.000000
0.000000
0.000000
0.000000
0.000000
0.000000
0.000000
0.000000
0.000000
0.000000
0.000000
0.000000
0.000000
0.000000
0.000000
0.000000
0.000000
0.000000
0.000000
0.000000
0.000000
0.000000
0.000000
0.000000
0.000000
0.000000
0.000000
0.000000
0.000000
0.000000
0.000000
0.000000
0.000000
0.000000
0.000000
0.000000
0.000000
0.000000
0.000000
0.000000
0.000000
0.000000
0.000000
0.000000
0.000000
0.000000
0.000000
0.000000
0.000000
0.000000
0.000000
0.000000
0.000000
0.000000
0.000000
0.000000
0.000000
0.000000

SCALARS u_x FLOAT 1
LOOKUP_TABLE default
0.000000
0.000000
0.000000
0.000000
0.000000
0.000000
0.000000
0.000000
0.000000
0.000000
0.000000
0.000000
0.000000
0.000000
0.000000
0.000000
0.000000
0.000000
0.000000
0.000000
0.000000
0.000000
0.000000
0.000000
0.000000
0.000000
0.000000
0.000000
0.000000
0.000000
0.000000
0.000000
0.000000
0.000000
0.000000
0.000000
0.000000
0.000000
0.000000
0.000000
0.000000
0.000000
0.000000
0.000000
0.000000
0.000000
0.000000
0.000000
0.000000
0.000000
0.000000
0.000000
0.000000
0.000000
0.000000
0.000000
0.000000
0.000000
0.000000
0.000000
0.000000
0.000000
0.000000
0.000000
0.000000
0.000000
0.000000
0.000000
0.000000
0.000000
0.000000
0.000000
0.000000
0.000000
0.000000
0.000000
0.000000
0.000000
0.000000
0.000000
0.000000
0.000000
0.000000
0.000000
0.000000
0.000000
0.000000
0.000000
0.000000
0.000000
0.000000
0.000000
0.000000
0.000000
0.000000
0.000000
0.000000
0.000000
0.000000
0.000000
0.000000
0.000000
0.000000
0.000000
0.000000
0.000000
0.000000
0.000000
0.000000
0.000000
0.000000
0.000000
0.000000
0.000000
0.000000
0.000000
0.000000
0.000000
0.000000
0.000000
0.000000
0.000000
0.000000
0.000000
0.000000
0.000000
0.000000
0.000000
0.000000
0.000000
0.000000
0.000000
0.000000
0.000000
0.000000
0.000000
0.000000
0.000000
0.000000
0.000000
0.000000
0.000000
0.000000
0.000000
0.000000
0.000000
0.000000
0.000000
0.000000
0.000000
0.000000
0.000000
0.000000
0.000000
0.000000
0.000000
0.000000
0.000000
0.000000
0.000000
0.000000
0.000000
0.000000
0.000000
0.000000
0.000000
0.000000
0.000000
0.000000
0.000000
0.000000
0.000000
0.000000
0.000000
0.000000
0.000000
0.000000
0.000000
0.000000
0.000000
0.000000
0.000000
0.000000
0.000000
0.000000
0.000000
0.000000
0.000000
0.000000
0.000000
0.000000
0.000000
0.000000
0.000000
0.000000
0.000000
0.000000
0.000000
0.000000
0.000000
0.000000
0.000000
0.000000
0.000000
0.000000
0.000000
0.000000
0.000000
0.000000
0.000000
0.000000
0.000000
0.000000
0.000000
0.000000
0.000000
0.000000
0.000000
0.000000
0.000000
0.000000
0.000000
0.000000
0.000000
0.000000
0.000000
0.000000
0.000000
0.000000
0.000000
0.000000
0.000000
0.000000
0.000000
0.000000
0.000000
0.000000
0.000000
0.000000
0.000000
0.000000
0.000000
0.000000
0.000000
0.000000
0.000000
0.000000
0.000000
0.000000
0.000000
0.000000
0.000000
0.000000
0.000000
0.000000
0.000000

SCALARS u_y FLOAT 1
LOOKUP_TABLE default
-0.126612
-0.379837
-0.126612
-0.379837
-0.632873
-0.885284
-0.632873
-0.885284
-1.137084
-1.388153
-1.137084
-1.388153
-1.638614
-1.888555
-1.638614
-1.888555
-2.137960
-2.386739
-2.137960
-2.386739
-2.634882
-2.882372
-2.634882
-2.882372
-3.129310
-3.375639
-3.129310
-3.375639
-3.621367
-3.866429
-3.621367
-3.866429
-4.110825
-4.354567
-4.110825
-4.354567
-4.597684
-4.840148
-4.597684
-4.840148
-5.081902
-5.322945
-5.081902
-5.322945
-5.563281
-5.802985
-5.563281
-5.802985
-6.041990
-6.280285
-6.041990
-6.280285
-6.517819
-6.754659
-6.517819
-6.754659
-6.990724
-7.226054
-6.990724
-7.226054
-7.460651
-7.694454
-7.460651
-7.694454
-7.927463
-8.159665
-7.927463
-8.159665
-8.391180
-8.621802
-8.391180
-8.621802
-8.851624
-9.080570
-8.851624
-9.080570
-9.308737
-9.536057
-9.308737
-9.536057
-9.762464
-9.988097
-9.762464
-9.988097
-10.212762
-10.436648
-10.212762
-10.436648
-10.659503
-10.881504
-10.659503
-10.881504
-11.102524
-11.322597
-11.102524
-11.322597
-11.541758
-11.759854
-11.541758
-11.759854
-11.977005
-12.193165
-11.977005
-12.193165
-12.408288
-12.622494
-12.408288
-12.622494
-12.835535
-13.047563
-12.835535
-13.047563
-13.258439
-13.468238
-13.258439
-13.468238
-13.676929
-13.884437
-13.676929
-13.884437
-14.090818
-14.296018
-14.090818
-14.296018
-14.500102
-14.702937
-14.500102
-14.702937
-14.904472
-15.104880
-14.904472
-15.104880
-15.303901
-15.501691
-15.303901
-15.501691
-15.698190
-15.893210
-15.698190
-15.893210
-16.087028
-16.279280
-16.087028
-16.279280
-16.470224
-16.659740
-16.470224
-16.659740
-16.847837
-17.034446
-16.847837
-17.034446
-17.219453
-17.402840
-17.219453
-17.402840
-17.584677
-17.764701
-17.584677
-17.764701
-17.943244
-18.120048
-17.943244
-18.120048
-18.295310
-18.468769
-18.295310
-18.468769
-18.640236
-18.810037
-18.640236
-18.810037
-18.977602
-19.143492
-18.977602
-19.143492
-19.307398
-19.469427
-19.307398
-19.469427
-19.629254
-19.787031
-19.629254
-19.787031
-19.942624
-20.095903
-19.942624
-20.095903
-20.246793
-20.395648
-20.246793
-20.395648
-20.541770
-20.685677
-20.541770
-20.685677
-20.826880
-20.965735
-20.826880
-20.965735
-21.101679
-21.234676
-21.101679
-21.234676
-21.365055
-21.492398
-21.365055
-21.492398
-21.616917
-21.737993
-21.616917
-21.737993
-21.856199
-21.971020
-21.856199
-21.971020
-22.082281
-22.190080
-22.082281
-22.190080
-22.293751
-22.393736
-22.293751
-22.393736
-22.489868
-22.582283
-22.489868
-22.582283
-22.670246
-22.753360
-22.670246
-22.753360
-22.831558
-22.904965
-22.831558
-22.904965
-22.973894
-23.037089
-22.973894
-23.037089
-23.095284
-23.146920
-23.095284
-23.146920
-23.192776
-23.231398
-23.192776
-23.231398
-23.263910
-23.288107
-23.263910
-23.288107
-23.305363
-23.313978
-23.305363
-23.313978

