# vtk DataFile Version 2.0
MATLAB generated vtk file, WMC
ASCII
DATASET UNSTRUCTURED_GRID
POINTS 256 double
0.195312 0.072444 0.000000 
0.195312 0.217333 0.000000 
0.585938 0.072444 0.000000 
0.585938 0.217333 0.000000 
0.195312 0.362421 0.000000 
0.195312 0.508167 0.000000 
0.585938 0.362421 0.000000 
0.585938 0.508167 0.000000 
0.195312 0.654558 0.000000 
0.195312 0.801704 0.000000 
0.585938 0.654558 0.000000 
0.585938 0.801704 0.000000 
0.195312 0.949409 0.000000 
0.195312 1.097650 0.000000 
0.585938 0.949409 0.000000 
0.585938 1.097650 0.000000 
0.195312 1.246455 0.000000 
0.195312 1.395920 0.000000 
0.585938 1.246455 0.000000 
0.585938 1.395920 0.000000 
0.195312 1.546052 0.000000 
0.195312 1.696824 0.000000 
0.585938 1.546052 0.000000 
0.585938 1.696824 0.000000 
0.195312 1.848161 0.000000 
0.195312 2.000141 0.000000 
0.585938 1.848161 0.000000 
0.585938 2.000141 0.000000 
0.195312 2.152752 0.000000 
0.195312 2.306064 0.000000 
0.585938 2.152752 0.000000 
0.585938 2.306064 0.000000 
0.195312 2.460042 0.000000 
0.195312 2.614653 0.000000 
0.585938 2.460042 0.000000 
0.585938 2.614653 0.000000 
0.195312 2.769920 0.000000 
0.195312 2.925873 0.000000 
0.585938 2.769920 0.000000 
0.585938 2.925873 0.000000 
0.195312 3.082572 0.000000 
0.195312 3.239972 0.000000 
0.585938 3.082572 0.000000 
0.585938 3.239972 0.000000 
0.195312 3.398054 0.000000 
0.195312 3.556798 0.000000 
0.585938 3.398054 0.000000 
0.585938 3.556798 0.000000 
0.195312 3.716278 0.000000 
0.195312 3.876503 0.000000 
0.585938 3.716278 0.000000 
0.585938 3.876503 0.000000 
0.195312 4.037506 0.000000 
0.195312 4.199187 0.000000 
0.585938 4.037506 0.000000 
0.585938 4.199187 0.000000 
0.195312 4.361675 0.000000 
0.195312 4.524938 0.000000 
0.585938 4.361675 0.000000 
0.585938 4.524938 0.000000 
0.195312 4.688957 0.000000 
0.195312 4.853719 0.000000 
0.585938 4.688957 0.000000 
0.585938 4.853719 0.000000 
0.195312 5.019256 0.000000 
0.195312 5.185634 0.000000 
0.585938 5.019256 0.000000 
0.585938 5.185634 0.000000 
0.195312 5.352733 0.000000 
0.195312 5.520772 0.000000 
0.585938 5.352733 0.000000 
0.585938 5.520772 0.000000 
0.195312 5.689617 0.000000 
0.195312 5.859333 0.000000 
0.585938 5.689617 0.000000 
0.585938 5.859333 0.000000 
0.195312 6.029863 0.000000 
0.195312 6.201282 0.000000 
0.585938 6.029863 0.000000 
0.585938 6.201282 0.000000 
0.195312 6.373606 0.000000 
0.195312 6.546679 0.000000 
0.585938 6.373606 0.000000 
0.585938 6.546679 0.000000 
0.195312 6.720772 0.000000 
0.195312 6.895684 0.000000 
0.585938 6.720772 0.000000 
0.585938 6.895684 0.000000 
0.195312 7.071668 0.000000 
0.195312 7.248508 0.000000 
0.585938 7.071668 0.000000 
0.585938 7.248508 0.000000 
0.195312 7.426282 0.000000 
0.195312 7.605022 0.000000 
0.585938 7.426282 0.000000 
0.585938 7.605022 0.000000 
0.195312 7.784715 0.000000 
0.195312 7.965456 0.000000 
0.585938 7.784715 0.000000 
0.585938 7.965456 0.000000 
0.195312 8.147129 0.000000 
0.195312 8.329843 0.000000 
0.585938 8.147129 0.000000 
0.585938 8.329843 0.000000 
0.195312 8.513644 0.000000 
0.195312 8.698385 0.000000 
0.585938 8.513644 0.000000 
0.585938 8.698385 0.000000 
0.195312 8.884281 0.000000 
0.195312 9.071179 0.000000 
0.585938 8.884281 0.000000 
0.585938 9.071179 0.000000 
0.195312 9.259273 0.000000 
0.195312 9.448463 0.000000 
0.585938 9.259273 0.000000 
0.585938 9.448463 0.000000 
0.195312 9.638727 0.000000 
0.195312 9.830121 0.000000 
0.585938 9.638727 0.000000 
0.585938 9.830121 0.000000 
0.195312 10.022659 0.000000 
0.195312 10.216428 0.000000 
0.585938 10.022659 0.000000 
0.585938 10.216428 0.000000 
0.195312 10.411350 0.000000 
0.195312 10.607564 0.000000 
0.585938 10.411350 0.000000 
0.585938 10.607564 0.000000 
0.195312 10.805131 0.000000 
0.195312 11.003840 0.000000 
0.585938 10.805131 0.000000 
0.585938 11.003840 0.000000 
0.195312 11.203897 0.000000 
0.195312 11.405147 0.000000 
0.585938 11.203897 0.000000 
0.585938 11.405147 0.000000 
0.195312 11.607707 0.000000 
0.195312 11.811757 0.000000 
0.585938 11.607707 0.000000 
0.585938 11.811757 0.000000 
0.195312 12.016971 0.000000 
0.195312 12.223726 0.000000 
0.585938 12.016971 0.000000 
0.585938 12.223726 0.000000 
0.195312 12.431795 0.000000 
0.195312 12.641372 0.000000 
0.585938 12.431795 0.000000 
0.585938 12.641372 0.000000 
0.195312 12.852426 0.000000 
0.195312 13.065035 0.000000 
0.585938 12.852426 0.000000 
0.585938 13.065035 0.000000 
0.195312 13.279293 0.000000 
0.195312 13.495077 0.000000 
0.585938 13.279293 0.000000 
0.585938 13.495077 0.000000 
0.195312 13.712264 0.000000 
0.195312 13.931184 0.000000 
0.585938 13.712264 0.000000 
0.585938 13.931184 0.000000 
0.195312 14.151608 0.000000 
0.195312 14.373842 0.000000 
0.585938 14.151608 0.000000 
0.585938 14.373842 0.000000 
0.195312 14.597711 0.000000 
0.195312 14.823438 0.000000 
0.585938 14.597711 0.000000 
0.585938 14.823438 0.000000 
0.195312 15.051141 0.000000 
0.195312 15.280374 0.000000 
0.585938 15.051141 0.000000 
0.585938 15.280374 0.000000 
0.195312 15.511764 0.000000 
0.195312 15.744807 0.000000 
0.585938 15.511764 0.000000 
0.585938 15.744807 0.000000 
0.195312 15.979853 0.000000 
0.195312 16.216811 0.000000 
0.585938 15.979853 0.000000 
0.585938 16.216811 0.000000 
0.195312 16.455991 0.000000 
0.195312 16.697193 0.000000 
0.585938 16.455991 0.000000 
0.585938 16.697193 0.000000 
0.195312 16.940539 0.000000 
0.195312 17.186141 0.000000 
0.585938 16.940539 0.000000 
0.585938 17.186141 0.000000 
0.195312 17.434116 0.000000 
0.195312 17.684031 0.000000 
0.585938 17.434116 0.000000 
0.585938 17.684031 0.000000 
0.195312 17.936722 0.000000 
0.195312 18.191494 0.000000 
0.585938 17.936722 0.000000 
0.585938 18.191494 0.000000 
0.195312 18.448995 0.000000 
0.195312 18.708738 0.000000 
0.585938 18.448995 0.000000 
0.585938 18.708738 0.000000 
0.195312 18.971404 0.000000 
0.195312 19.236865 0.000000 
0.585938 18.971404 0.000000 
0.585938 19.236865 0.000000 
0.195312 19.504816 0.000000 
0.195312 19.775855 0.000000 
0.585938 19.504816 0.000000 
0.585938 19.775855 0.000000 
0.195312 20.049857 0.000000 
0.195312 20.327268 0.000000 
0.585938 20.049857 0.000000 
0.585938 20.327268 0.000000 
0.195312 20.607139 0.000000 
0.195312 20.890226 0.000000 
0.585938 20.607139 0.000000 
0.585938 20.890226 0.000000 
0.195312 21.176904 0.000000 
0.195312 21.466953 0.000000 
0.585938 21.176904 0.000000 
0.585938 21.466953 0.000000 
0.195312 21.760664 0.000000 
0.195312 22.057680 0.000000 
0.585938 21.760664 0.000000 
0.585938 22.057680 0.000000 
0.195312 22.358937 0.000000 
0.195312 22.664292 0.000000 
0.585938 22.358937 0.000000 
0.585938 22.664292 0.000000 
0.195312 22.973578 0.000000 
0.195312 23.286920 0.000000 
0.585938 22.973578 0.000000 
0.585938 23.286920 0.000000 
0.195312 23.604605 0.000000 
0.195312 23.927085 0.000000 
0.585938 23.604605 0.000000 
0.585938 23.927085 0.000000 
0.195312 24.254123 0.000000 
0.195312 24.586989 0.000000 
0.585938 24.254123 0.000000 
0.585938 24.586989 0.000000 
0.195312 24.924827 0.000000 
0.195312 25.268448 0.000000 
0.585938 24.924827 0.000000 
0.585938 25.268448 0.000000 
0.195312 25.616968 0.000000 
0.195312 25.972008 0.000000 
0.585938 25.616968 0.000000 
0.585938 25.972008 0.000000 
0.195312 26.332769 0.000000 
0.195312 26.701107 0.000000 
0.585938 26.332769 0.000000 
0.585938 26.701107 0.000000 
0.195312 27.075892 0.000000 
0.195312 27.458964 0.000000 
0.585938 27.075892 0.000000 
0.585938 27.458964 0.000000 

POINT_DATA 256
SCALARS sigma_xx FLOAT 1
LOOKUP_TABLE default
0.000000
0.000000
0.000000
0.000000
0.000000
0.000000
0.000000
0.000000
-0.000000
0.000000
-0.000000
0.000000
0.000000
-0.000000
0.000000
-0.000000
-0.000000
-0.000000
-0.000000
-0.000000
-0.000000
-0.000000
-0.000000
-0.000000
-0.000000
-0.000000
-0.000000
-0.000000
-0.000000
-0.000000
-0.000000
-0.000000
-0.000000
-0.000000
-0.000000
-0.000000
0.000000
-0.000000
0.000000
-0.000000
-0.000000
0.000000
-0.000000
0.000000
-0.000000
-0.000000
-0.000000
-0.000000
-0.000000
0.000000
-0.000000
0.000000
-0.000000
-0.000000
-0.000000
-0.000000
-0.000000
-0.000000
-0.000000
-0.000000
-0.000000
-0.000000
-0.000000
0.000000
-0.000000
-0.000000
-0.000000
-0.000000
-0.000000
-0.000000
-0.000000
-0.000000
-0.000000
-0.000000
-0.000000
-0.000000
-0.000000
-0.000000
-0.000000
-0.000000
-0.000000
-0.000000
-0.000000
-0.000000
-0.000000
-0.000000
-0.000000
-0.000000
-0.000000
-0.000000
-0.000000
-0.000000
-0.000000
-0.000000
-0.000000
-0.000000
-0.000000
-0.000000
-0.000000
-0.000000
-0.000000
-0.000000
-0.000000
-0.000000
-0.000000
-0.000000
-0.000000
-0.000000
0.000000
0.000000
-0.000000
0.000000
-0.000000
0.000000
-0.000000
0.000000
-0.000000
-0.000000
-0.000000
-0.000000
-0.000000
-0.000000
-0.000000
-0.000000
-0.000000
-0.000000
-0.000000
-0.000000
-0.000000
-0.000000
-0.000000
-0.000000
-0.000000
-0.000000
-0.000000
-0.000000
-0.000000
-0.000000
-0.000000
-0.000000
-0.000000
-0.000000
-0.000000
-0.000000
-0.000000
-0.000000
-0.000000
-0.000000
-0.000000
-0.000000
-0.000000
-0.000000
-0.000000
-0.000000
-0.000000
-0.000000
-0.000000
-0.000000
-0.000000
-0.000000
-0.000000
-0.000000
-0.000000
-0.000000
-0.000000
-0.000000
-0.000000
-0.000000
-0.000000
-0.000000
-0.000000
-0.000000
-0.000000
-0.000000
-0.000000
-0.000000
-0.000000
-0.000000
-0.000000
-0.000000
-0.000000
-0.000000
-0.000000
-0.000000
-0.000000
-0.000000
-0.000000
-0.000000
-0.000000
-0.000000
-0.000000
-0.000000
-0.000000
-0.000000
-0.000000
-0.000000
-0.000000
-0.000000
-0.000000
-0.000000
-0.000000
-0.000000
-0.000000
-0.000000
-0.000000
-0.000000
-0.000000
-0.000000
-0.000000
-0.000000
-0.000000
-0.000000
-0.000000
-0.000000
-0.000000
-0.000000
0.000000
-0.000000
0.000000
-0.000000
-0.000000
-0.000000
-0.000000
-0.000000
0.000000
0.000000
0.000000
0.000000
-0.000000
-0.000000
-0.000000
-0.000000
-0.000000
-0.000000
0.000000
-0.000000
-0.000000
-0.000000
-0.000000
-0.000000
-0.000000
-0.000000
-0.000000
-0.000000
-0.000000
0.000000
0.000000
0.000000
-0.000000
-0.000000
-0.000000
-0.000000
0.000000
-0.000000
0.000000
-0.000000

SCALARS sigma_yy FLOAT 1
LOOKUP_TABLE default
-26738.914010
-26738.914010
-26738.914010
-26738.914010
-26544.261764
-26319.414736
-26544.261764
-26319.414736
-26042.182395
-25817.166817
-26042.182395
-25817.166817
-25616.959311
-25445.600465
-25616.959311
-25445.600465
-25216.798515
-25000.800694
-25216.798515
-25000.800694
-24759.589117
-24580.287862
-24759.589117
-24580.287862
-24364.375403
-24167.552810
-24364.375403
-24167.552810
-23938.366147
-23724.752786
-23938.366147
-23724.752786
-23505.632453
-23324.196135
-23505.632453
-23324.196135
-23096.734733
-22898.848811
-23096.734733
-22898.848811
-22652.713731
-22463.874602
-22652.713731
-22463.874602
-22241.137924
-22066.993731
-22241.137924
-22066.993731
-21827.690198
-21624.939314
-21827.690198
-21624.939314
-21394.907063
-21209.152257
-21394.907063
-21209.152257
-20970.654577
-20779.715350
-20970.654577
-20779.715350
-20549.512898
-20373.919094
-20549.512898
-20373.919094
-20150.746942
-19939.554256
-20150.746942
-19939.554256
-19730.083381
-19513.307475
-19730.083381
-19513.307475
-19295.553481
-19086.284869
-19295.553481
-19086.284869
-18874.546243
-18667.535340
-18874.546243
-18667.535340
-18450.423229
-18262.605069
-18450.423229
-18262.605069
-18035.211146
-17829.630460
-18035.211146
-17829.630460
-17584.510178
-17413.914774
-17584.510178
-17413.914774
-17185.487525
-16985.933285
-17185.487525
-16985.933285
-16768.308015
-16560.796474
-16768.308015
-16560.796474
-16347.106291
-16139.961568
-16347.106291
-16139.961568
-15916.906961
-15726.678988
-15916.906961
-15726.678988
-15508.414511
-15300.188939
-15508.414511
-15300.188939
-15058.865390
-14878.012341
-15058.865390
-14878.012341
-14654.194295
-14462.753083
-14654.194295
-14462.753083
-14240.726893
-14038.536498
-14240.726893
-14038.536498
-13806.941959
-13610.505591
-13806.941959
-13610.505591
-13363.830206
-13193.095679
-13363.830206
-13193.095679
-12957.409093
-12772.946819
-12957.409093
-12772.946819
-12537.169487
-12355.037764
-12537.169487
-12355.037764
-12131.891576
-11927.798963
-12131.891576
-11927.798963
-11711.949619
-11500.287277
-11711.949619
-11500.287277
-11285.985686
-11070.801037
-11285.985686
-11070.801037
-10834.653731
-10652.934873
-10834.653731
-10652.934873
-10450.385692
-10226.350593
-10450.385692
-10226.350593
-10042.012710
-9806.229358
-10042.012710
-9806.229358
-9606.764865
-9368.297806
-9606.764865
-9368.297806
-9175.910739
-8958.241421
-9175.910739
-8958.241421
-8745.289800
-8554.478386
-8745.289800
-8554.478386
-8335.803994
-8126.074559
-8335.803994
-8126.074559
-7916.191779
-7697.371384
-7916.191779
-7697.371384
-7496.333393
-7265.689534
-7496.333393
-7265.689534
-7067.506075
-6863.911390
-7067.506075
-6863.911390
-6631.190007
-6453.186201
-6631.190007
-6453.186201
-6212.437791
-6035.186824
-6212.437791
-6035.186824
-5777.303630
-5598.275035
-5777.303630
-5598.275035
-5379.973551
-5165.983362
-5379.973551
-5165.983362
-4937.513183
-4731.937583
-4937.513183
-4731.937583
-4547.011962
-4334.597546
-4547.011962
-4334.597546
-4109.170968
-3904.107881
-4109.170968
-3904.107881
-3688.983390
-3502.181046
-3688.983390
-3502.181046
-3245.573790
-3060.719431
-3245.573790
-3060.719431
-2841.249881
-2656.148264
-2841.249881
-2656.148264
-2416.410585
-2237.563442
-2416.410585
-2237.563442
-1992.873931
-1785.851777
-1992.873931
-1785.851777
-1563.056494
-1371.853889
-1563.056494
-1371.853889
-1164.382329
-959.205868
-1164.382329
-959.205868
-738.165474
-529.604544
-738.165474
-529.604544
-316.612619
-88.383978
-316.612619
-88.383978

SCALARS sigma_zz FLOAT 1
LOOKUP_TABLE default
0.000000
0.000000
0.000000
0.000000
0.000000
0.000000
0.000000
0.000000
0.000000
0.000000
0.000000
0.000000
0.000000
0.000000
0.000000
0.000000
0.000000
0.000000
0.000000
0.000000
0.000000
0.000000
0.000000
0.000000
0.000000
0.000000
0.000000
0.000000
0.000000
0.000000
0.000000
0.000000
0.000000
0.000000
0.000000
0.000000
0.000000
0.000000
0.000000
0.000000
0.000000
0.000000
0.000000
0.000000
0.000000
0.000000
0.000000
0.000000
0.000000
0.000000
0.000000
0.000000
0.000000
0.000000
0.000000
0.000000
0.000000
0.000000
0.000000
0.000000
0.000000
0.000000
0.000000
0.000000
0.000000
0.000000
0.000000
0.000000
0.000000
0.000000
0.000000
0.000000
0.000000
0.000000
0.000000
0.000000
0.000000
0.000000
0.000000
0.000000
0.000000
0.000000
0.000000
0.000000
0.000000
0.000000
0.000000
0.000000
0.000000
0.000000
0.000000
0.000000
0.000000
0.000000
0.000000
0.000000
0.000000
0.000000
0.000000
0.000000
0.000000
0.000000
0.000000
0.000000
0.000000
0.000000
0.000000
0.000000
0.000000
0.000000
0.000000
0.000000
0.000000
0.000000
0.000000
0.000000
0.000000
0.000000
0.000000
0.000000
0.000000
0.000000
0.000000
0.000000
0.000000
0.000000
0.000000
0.000000
0.000000
0.000000
0.000000
0.000000
0.000000
0.000000
0.000000
0.000000
0.000000
0.000000
0.000000
0.000000
0.000000
0.000000
0.000000
0.000000
0.000000
0.000000
0.000000
0.000000
0.000000
0.000000
0.000000
0.000000
0.000000
0.000000
0.000000
0.000000
0.000000
0.000000
0.000000
0.000000
0.000000
0.000000
0.000000
0.000000
0.000000
0.000000
0.000000
0.000000
0.000000
0.000000
0.000000
0.000000
0.000000
0.000000
0.000000
0.000000
0.000000
0.000000
0.000000
0.000000
0.000000
0.000000
0.000000
0.000000
0.000000
0.000000
0.000000
0.000000
0.000000
0.000000
0.000000
0.000000
0.000000
0.000000
0.000000
0.000000
0.000000
0.000000
0.000000
0.000000
0.000000
0.000000
0.000000
0.000000
0.000000
0.000000
0.000000
0.000000
0.000000
0.000000
0.000000
0.000000
0.000000
0.000000
0.000000
0.000000
0.000000
0.000000
0.000000
0.000000
0.000000
0.000000
0.000000
0.000000
0.000000
0.000000
0.000000
0.000000
0.000000
0.000000
0.000000
0.000000
0.000000
0.000000
0.000000
0.000000
0.000000
0.000000
0.000000
0.000000
0.000000
0.000000
0.000000
0.000000
0.000000
0.000000
0.000000
0.000000
0.000000
0.000000
0.000000
0.000000
0.000000
0.000000
0.000000
0.000000

SCALARS sigma_xy FLOAT 1
LOOKUP_TABLE default
0.000000
0.000000
0.000000
0.000000
0.000000
0.000000
0.000000
0.000000
0.000000
0.000000
0.000000
0.000000
0.000000
0.000000
0.000000
0.000000
0.000000
0.000000
0.000000
0.000000
0.000000
0.000000
0.000000
0.000000
0.000000
-0.000000
0.000000
-0.000000
-0.000000
-0.000000
-0.000000
-0.000000
-0.000000
-0.000000
-0.000000
-0.000000
0.000000
0.000000
0.000000
0.000000
0.000000
0.000000
0.000000
0.000000
-0.000000
-0.000000
-0.000000
-0.000000
-0.000000
0.000000
-0.000000
0.000000
0.000000
0.000000
0.000000
0.000000
0.000000
0.000000
0.000000
0.000000
0.000000
-0.000000
0.000000
0.000000
-0.000000
-0.000000
-0.000000
-0.000000
-0.000000
-0.000000
-0.000000
-0.000000
-0.000000
-0.000000
-0.000000
-0.000000
0.000000
0.000000
0.000000
0.000000
0.000000
0.000000
0.000000
0.000000
0.000000
0.000000
0.000000
0.000000
-0.000000
-0.000000
-0.000000
-0.000000
-0.000000
-0.000000
-0.000000
-0.000000
-0.000000
-0.000000
-0.000000
-0.000000
0.000000
0.000000
0.000000
0.000000
0.000000
0.000000
0.000000
0.000000
0.000000
0.000000
0.000000
0.000000
-0.000000
0.000000
-0.000000
0.000000
-0.000000
0.000000
-0.000000
0.000000
0.000000
0.000000
0.000000
0.000000
0.000000
-0.000000
0.000000
-0.000000
-0.000000
-0.000000
-0.000000
-0.000000
-0.000000
0.000000
-0.000000
0.000000
0.000000
0.000000
0.000000
0.000000
0.000000
-0.000000
0.000000
-0.000000
-0.000000
-0.000000
-0.000000
-0.000000
0.000000
0.000000
0.000000
0.000000
0.000000
0.000000
0.000000
0.000000
-0.000000
-0.000000
-0.000000
-0.000000
-0.000000
-0.000000
-0.000000
-0.000000
-0.000000
-0.000000
-0.000000
-0.000000
0.000000
0.000000
0.000000
0.000000
0.000000
0.000000
0.000000
0.000000
0.000000
-0.000000
0.000000
-0.000000
-0.000000
-0.000000
-0.000000
-0.000000
0.000000
0.000000
0.000000
0.000000
0.000000
-0.000000
0.000000
-0.000000
-0.000000
-0.000000
-0.000000
-0.000000
-0.000000
0.000000
-0.000000
0.000000
0.000000
-0.000000
0.000000
-0.000000
-0.000000
-0.000000
-0.000000
-0.000000
0.000000
0.000000
0.000000
0.000000
-0.000000
-0.000000
-0.000000
-0.000000
0.000000
0.000000
0.000000
0.000000
-0.000000
0.000000
-0.000000
0.000000
0.000000
0.000000
0.000000
0.000000
0.000000
0.000000
0.000000
0.000000
0.000000
0.000000
0.000000
0.000000
-0.000000
-0.000000
-0.000000
-0.000000
-0.000000
0.000000
-0.000000
0.000000
0.000000
0.000000
0.000000
0.000000
0.000000
0.000000
0.000000
0.000000
0.000000
-0.000000
0.000000
-0.000000

SCALARS sigma_yz FLOAT 1
LOOKUP_TABLE default
0.000000
0.000000
0.000000
0.000000
0.000000
0.000000
0.000000
0.000000
0.000000
0.000000
0.000000
0.000000
0.000000
0.000000
0.000000
0.000000
0.000000
0.000000
0.000000
0.000000
0.000000
0.000000
0.000000
0.000000
0.000000
0.000000
0.000000
0.000000
0.000000
0.000000
0.000000
0.000000
0.000000
0.000000
0.000000
0.000000
0.000000
0.000000
0.000000
0.000000
0.000000
0.000000
0.000000
0.000000
0.000000
0.000000
0.000000
0.000000
0.000000
0.000000
0.000000
0.000000
0.000000
0.000000
0.000000
0.000000
0.000000
0.000000
0.000000
0.000000
0.000000
0.000000
0.000000
0.000000
0.000000
0.000000
0.000000
0.000000
0.000000
0.000000
0.000000
0.000000
0.000000
0.000000
0.000000
0.000000
0.000000
0.000000
0.000000
0.000000
0.000000
0.000000
0.000000
0.000000
0.000000
0.000000
0.000000
0.000000
0.000000
0.000000
0.000000
0.000000
0.000000
0.000000
0.000000
0.000000
0.000000
0.000000
0.000000
0.000000
0.000000
0.000000
0.000000
0.000000
0.000000
0.000000
0.000000
0.000000
0.000000
0.000000
0.000000
0.000000
0.000000
0.000000
0.000000
0.000000
0.000000
0.000000
0.000000
0.000000
0.000000
0.000000
0.000000
0.000000
0.000000
0.000000
0.000000
0.000000
0.000000
0.000000
0.000000
0.000000
0.000000
0.000000
0.000000
0.000000
0.000000
0.000000
0.000000
0.000000
0.000000
0.000000
0.000000
0.000000
0.000000
0.000000
0.000000
0.000000
0.000000
0.000000
0.000000
0.000000
0.000000
0.000000
0.000000
0.000000
0.000000
0.000000
0.000000
0.000000
0.000000
0.000000
0.000000
0.000000
0.000000
0.000000
0.000000
0.000000
0.000000
0.000000
0.000000
0.000000
0.000000
0.000000
0.000000
0.000000
0.000000
0.000000
0.000000
0.000000
0.000000
0.000000
0.000000
0.000000
0.000000
0.000000
0.000000
0.000000
0.000000
0.000000
0.000000
0.000000
0.000000
0.000000
0.000000
0.000000
0.000000
0.000000
0.000000
0.000000
0.000000
0.000000
0.000000
0.000000
0.000000
0.000000
0.000000
0.000000
0.000000
0.000000
0.000000
0.000000
0.000000
0.000000
0.000000
0.000000
0.000000
0.000000
0.000000
0.000000
0.000000
0.000000
0.000000
0.000000
0.000000
0.000000
0.000000
0.000000
0.000000
0.000000
0.000000
0.000000
0.000000
0.000000
0.000000
0.000000
0.000000
0.000000
0.000000
0.000000
0.000000
0.000000
0.000000
0.000000
0.000000
0.000000
0.000000
0.000000
0.000000
0.000000
0.000000
0.000000
0.000000
0.000000
0.000000
0.000000

SCALARS sigma_zx FLOAT 1
LOOKUP_TABLE default
0.000000
0.000000
0.000000
0.000000
0.000000
0.000000
0.000000
0.000000
0.000000
0.000000
0.000000
0.000000
0.000000
0.000000
0.000000
0.000000
0.000000
0.000000
0.000000
0.000000
0.000000
0.000000
0.000000
0.000000
0.000000
0.000000
0.000000
0.000000
0.000000
0.000000
0.000000
0.000000
0.000000
0.000000
0.000000
0.000000
0.000000
0.000000
0.000000
0.000000
0.000000
0.000000
0.000000
0.000000
0.000000
0.000000
0.000000
0.000000
0.000000
0.000000
0.000000
0.000000
0.000000
0.000000
0.000000
0.000000
0.000000
0.000000
0.000000
0.000000
0.000000
0.000000
0.000000
0.000000
0.000000
0.000000
0.000000
0.000000
0.000000
0.000000
0.000000
0.000000
0.000000
0.000000
0.000000
0.000000
0.000000
0.000000
0.000000
0.000000
0.000000
0.000000
0.000000
0.000000
0.000000
0.000000
0.000000
0.000000
0.000000
0.000000
0.000000
0.000000
0.000000
0.000000
0.000000
0.000000
0.000000
0.000000
0.000000
0.000000
0.000000
0.000000
0.000000
0.000000
0.000000
0.000000
0.000000
0.000000
0.000000
0.000000
0.000000
0.000000
0.000000
0.000000
0.000000
0.000000
0.000000
0.000000
0.000000
0.000000
0.000000
0.000000
0.000000
0.000000
0.000000
0.000000
0.000000
0.000000
0.000000
0.000000
0.000000
0.000000
0.000000
0.000000
0.000000
0.000000
0.000000
0.000000
0.000000
0.000000
0.000000
0.000000
0.000000
0.000000
0.000000
0.000000
0.000000
0.000000
0.000000
0.000000
0.000000
0.000000
0.000000
0.000000
0.000000
0.000000
0.000000
0.000000
0.000000
0.000000
0.000000
0.000000
0.000000
0.000000
0.000000
0.000000
0.000000
0.000000
0.000000
0.000000
0.000000
0.000000
0.000000
0.000000
0.000000
0.000000
0.000000
0.000000
0.000000
0.000000
0.000000
0.000000
0.000000
0.000000
0.000000
0.000000
0.000000
0.000000
0.000000
0.000000
0.000000
0.000000
0.000000
0.000000
0.000000
0.000000
0.000000
0.000000
0.000000
0.000000
0.000000
0.000000
0.000000
0.000000
0.000000
0.000000
0.000000
0.000000
0.000000
0.000000
0.000000
0.000000
0.000000
0.000000
0.000000
0.000000
0.000000
0.000000
0.000000
0.000000
0.000000
0.000000
0.000000
0.000000
0.000000
0.000000
0.000000
0.000000
0.000000
0.000000
0.000000
0.000000
0.000000
0.000000
0.000000
0.000000
0.000000
0.000000
0.000000
0.000000
0.000000
0.000000
0.000000
0.000000
0.000000
0.000000
0.000000
0.000000
0.000000
0.000000
0.000000
0.000000
0.000000
0.000000
0.000000
0.000000

SCALARS u_x FLOAT 1
LOOKUP_TABLE default
0.000000
0.000000
0.000000
0.000000
0.000000
0.000000
0.000000
0.000000
0.000000
0.000000
0.000000
0.000000
0.000000
0.000000
0.000000
0.000000
0.000000
0.000000
0.000000
0.000000
0.000000
0.000000
0.000000
0.000000
0.000000
0.000000
0.000000
0.000000
0.000000
0.000000
0.000000
0.000000
0.000000
0.000000
0.000000
0.000000
0.000000
0.000000
0.000000
0.000000
0.000000
0.000000
0.000000
0.000000
0.000000
0.000000
0.000000
0.000000
0.000000
0.000000
0.000000
0.000000
0.000000
0.000000
0.000000
0.000000
0.000000
0.000000
0.000000
0.000000
0.000000
0.000000
0.000000
0.000000
0.000000
0.000000
0.000000
0.000000
0.000000
0.000000
0.000000
0.000000
0.000000
0.000000
0.000000
0.000000
0.000000
0.000000
0.000000
0.000000
0.000000
0.000000
0.000000
0.000000
0.000000
0.000000
0.000000
0.000000
0.000000
0.000000
0.000000
0.000000
0.000000
0.000000
0.000000
0.000000
0.000000
0.000000
0.000000
0.000000
0.000000
0.000000
0.000000
0.000000
0.000000
0.000000
0.000000
0.000000
0.000000
0.000000
0.000000
0.000000
0.000000
0.000000
0.000000
0.000000
0.000000
0.000000
0.000000
0.000000
0.000000
0.000000
0.000000
0.000000
0.000000
0.000000
0.000000
0.000000
0.000000
0.000000
0.000000
0.000000
0.000000
0.000000
0.000000
0.000000
0.000000
0.000000
0.000000
0.000000
0.000000
0.000000
0.000000
0.000000
0.000000
0.000000
0.000000
0.000000
0.000000
0.000000
0.000000
0.000000
0.000000
0.000000
0.000000
0.000000
0.000000
0.000000
0.000000
0.000000
0.000000
0.000000
0.000000
0.000000
0.000000
0.000000
0.000000
0.000000
0.000000
0.000000
0.000000
0.000000
0.000000
0.000000
0.000000
0.000000
0.000000
0.000000
0.000000
0.000000
0.000000
0.000000
0.000000
0.000000
0.000000
0.000000
0.000000
0.000000
0.000000
0.000000
0.000000
0.000000
0.000000
0.000000
0.000000
0.000000
0.000000
0.000000
0.000000
0.000000
0.000000
0.000000
0.000000
0.000000
0.000000
0.000000
0.000000
0.000000
0.000000
0.000000
0.000000
0.000000
0.000000
0.000000
0.000000
0.000000
0.000000
0.000000
0.000000
0.000000
0.000000
0.000000
0.000000
0.000000
0.000000
0.000000
0.000000
0.000000
0.000000
0.000000
0.000000
0.000000
0.000000
0.000000
0.000000
0.000000
0.000000
0.000000
0.000000
0.000000
0.000000
0.000000
0.000000
0.000000
0.000000
0.000000
0.000000
0.000000
0.000000
0.000000
0.000000
0.000000
0.000000
0.000000
0.000000
0.000000

SCALARS u_y FLOAT 1
LOOKUP_TABLE default
-0.122868
-0.368605
-0.122868
-0.368605
-0.614142
-0.859021
-0.614142
-0.859021
-1.103255
-1.346734
-1.103255
-1.346734
-1.589653
-1.832038
-1.589653
-1.832038
-2.073857
-2.315017
-2.073857
-2.315017
-2.555510
-2.795364
-2.555510
-2.795364
-3.034651
-3.273297
-3.034651
-3.273297
-3.511311
-3.748623
-3.511311
-3.748623
-3.985270
-4.221285
-3.985270
-4.221285
-4.456643
-4.691315
-4.456643
-4.691315
-4.925240
-5.158465
-4.925240
-5.158465
-5.391008
-5.622889
-5.391008
-5.622889
-5.854035
-6.084434
-5.854035
-6.084434
-6.314057
-6.543001
-6.314057
-6.543001
-6.771137
-6.998499
-6.771137
-6.998499
-7.225106
-7.450968
-7.225106
-7.450968
-7.676056
-7.900304
-7.676056
-7.900304
-8.123830
-8.346415
-8.123830
-8.346415
-8.568196
-8.789105
-8.568196
-8.789105
-9.009199
-9.228405
-9.009199
-9.228405
-9.446707
-9.664259
-9.446707
-9.664259
-9.880790
-10.096504
-9.880790
-10.096504
-10.311145
-10.524929
-10.311145
-10.524929
-10.737781
-10.949665
-10.737781
-10.949665
-11.160598
-11.370481
-11.160598
-11.370481
-11.579433
-11.787345
-11.579433
-11.787345
-11.994169
-12.200053
-11.994169
-12.200053
-12.404781
-12.608509
-12.404781
-12.608509
-12.811039
-13.012475
-12.811039
-13.012475
-13.212835
-13.412066
-13.212835
-13.412066
-13.610154
-13.807010
-13.610154
-13.807010
-14.002712
-14.197124
-14.002712
-14.197124
-14.390182
-14.582097
-14.390182
-14.582097
-14.772665
-14.962040
-14.772665
-14.962040
-15.150106
-15.336680
-15.150106
-15.336680
-15.522091
-15.705962
-15.522091
-15.705962
-15.888517
-16.069565
-15.888517
-16.069565
-16.249136
-16.427153
-16.249136
-16.427153
-16.603519
-16.778361
-16.603519
-16.778361
-16.951799
-17.123503
-16.951799
-17.123503
-17.293704
-17.462096
-17.293704
-17.462096
-17.628851
-17.793750
-17.628851
-17.793750
-17.956672
-18.118064
-17.956672
-18.118064
-18.277298
-18.434880
-18.277298
-18.434880
-18.590460
-18.744126
-18.590460
-18.744126
-18.895572
-19.044994
-18.895572
-19.044994
-19.192274
-19.337296
-19.192274
-19.337296
-19.479947
-19.620656
-19.479947
-19.620656
-19.758591
-19.894444
-19.758591
-19.894444
-20.027567
-20.158450
-20.027567
-20.158450
-20.286408
-20.411572
-20.286408
-20.411572
-20.534247
-20.653832
-20.534247
-20.653832
-20.770456
-20.883670
-20.770456
-20.883670
-20.994424
-21.101961
-20.994424
-21.101961
-21.205909
-21.306484
-21.205909
-21.306484
-21.403398
-21.497008
-21.403398
-21.497008
-21.586375
-21.671646
-21.586375
-21.671646
-21.752985
-21.830268
-21.752985
-21.830268
-21.903208
-21.971352
-21.903208
-21.971352
-22.034940
-22.092699
-22.034940
-22.092699
-22.145486
-22.192490
-22.145486
-22.192490
-22.234595
-22.270179
-22.234595
-22.270179
-22.300044
-22.322331
-22.300044
-22.322331
-22.338171
-22.345723
-22.338171
-22.345723

