# vtk DataFile Version 2.0
MATLAB generated vtk file, WMC
ASCII
DATASET UNSTRUCTURED_GRID
POINTS 256 double
0.195312 0.103778 0.000000 
0.195312 0.311334 0.000000 
0.585938 0.103778 0.000000 
0.585938 0.311334 0.000000 
0.195312 0.519176 0.000000 
0.195312 0.727959 0.000000 
0.585938 0.519176 0.000000 
0.585938 0.727959 0.000000 
0.195312 0.937459 0.000000 
0.195312 1.147541 0.000000 
0.585938 0.937459 0.000000 
0.585938 1.147541 0.000000 
0.195312 1.358241 0.000000 
0.195312 1.569685 0.000000 
0.585938 1.358241 0.000000 
0.585938 1.569685 0.000000 
0.195312 1.781751 0.000000 
0.195312 1.994490 0.000000 
0.585938 1.781751 0.000000 
0.585938 1.994490 0.000000 
0.195312 2.207923 0.000000 
0.195312 2.422098 0.000000 
0.585938 2.207923 0.000000 
0.585938 2.422098 0.000000 
0.195312 2.636877 0.000000 
0.195312 2.852369 0.000000 
0.585938 2.636877 0.000000 
0.585938 2.852369 0.000000 
0.195312 3.068576 0.000000 
0.195312 3.285512 0.000000 
0.585938 3.068576 0.000000 
0.585938 3.285512 0.000000 
0.195312 3.503123 0.000000 
0.195312 3.721456 0.000000 
0.585938 3.503123 0.000000 
0.585938 3.721456 0.000000 
0.195312 3.940539 0.000000 
0.195312 4.160321 0.000000 
0.585938 3.940539 0.000000 
0.585938 4.160321 0.000000 
0.195312 4.380872 0.000000 
0.195312 4.602164 0.000000 
0.585938 4.380872 0.000000 
0.585938 4.602164 0.000000 
0.195312 4.824239 0.000000 
0.195312 5.046970 0.000000 
0.585938 4.824239 0.000000 
0.585938 5.046970 0.000000 
0.195312 5.270548 0.000000 
0.195312 5.494936 0.000000 
0.585938 5.270548 0.000000 
0.585938 5.494936 0.000000 
0.195312 5.720145 0.000000 
0.195312 5.946036 0.000000 
0.585938 5.720145 0.000000 
0.585938 5.946036 0.000000 
0.195312 6.172784 0.000000 
0.195312 6.400264 0.000000 
0.585938 6.172784 0.000000 
0.585938 6.400264 0.000000 
0.195312 6.628496 0.000000 
0.195312 6.857571 0.000000 
0.585938 6.628496 0.000000 
0.585938 6.857571 0.000000 
0.195312 7.087532 0.000000 
0.195312 7.318406 0.000000 
0.585938 7.087532 0.000000 
0.585938 7.318406 0.000000 
0.195312 7.549957 0.000000 
0.195312 7.782538 0.000000 
0.585938 7.549957 0.000000 
0.585938 7.782538 0.000000 
0.195312 8.015848 0.000000 
0.195312 8.250100 0.000000 
0.585938 8.015848 0.000000 
0.585938 8.250100 0.000000 
0.195312 8.485165 0.000000 
0.195312 8.721141 0.000000 
0.585938 8.485165 0.000000 
0.585938 8.721141 0.000000 
0.195312 8.958108 0.000000 
0.195312 9.195769 0.000000 
0.585938 8.958108 0.000000 
0.585938 9.195769 0.000000 
0.195312 9.434539 0.000000 
0.195312 9.674017 0.000000 
0.585938 9.434539 0.000000 
0.585938 9.674017 0.000000 
0.195312 9.914637 0.000000 
0.195312 10.156088 0.000000 
0.585938 9.914637 0.000000 
0.585938 10.156088 0.000000 
0.195312 10.398447 0.000000 
0.195312 10.641786 0.000000 
0.585938 10.398447 0.000000 
0.585938 10.641786 0.000000 
0.195312 10.886066 0.000000 
0.195312 11.131495 0.000000 
0.585938 10.886066 0.000000 
0.585938 11.131495 0.000000 
0.195312 11.377784 0.000000 
0.195312 11.625150 0.000000 
0.585938 11.377784 0.000000 
0.585938 11.625150 0.000000 
0.195312 11.873561 0.000000 
0.195312 12.122780 0.000000 
0.585938 11.873561 0.000000 
0.585938 12.122780 0.000000 
0.195312 12.373298 0.000000 
0.195312 12.624613 0.000000 
0.585938 12.373298 0.000000 
0.585938 12.624613 0.000000 
0.195312 12.877181 0.000000 
0.195312 13.130775 0.000000 
0.585938 12.877181 0.000000 
0.585938 13.130775 0.000000 
0.195312 13.385362 0.000000 
0.195312 13.641178 0.000000 
0.585938 13.385362 0.000000 
0.585938 13.641178 0.000000 
0.195312 13.897957 0.000000 
0.195312 14.156021 0.000000 
0.585938 13.897957 0.000000 
0.585938 14.156021 0.000000 
0.195312 14.415118 0.000000 
0.195312 14.675355 0.000000 
0.585938 14.415118 0.000000 
0.585938 14.675355 0.000000 
0.195312 14.936906 0.000000 
0.195312 15.199410 0.000000 
0.585938 14.936906 0.000000 
0.585938 15.199410 0.000000 
0.195312 15.463342 0.000000 
0.195312 15.728379 0.000000 
0.585938 15.463342 0.000000 
0.585938 15.728379 0.000000 
0.195312 15.994489 0.000000 
0.195312 16.262112 0.000000 
0.585938 15.994489 0.000000 
0.585938 16.262112 0.000000 
0.195312 16.530691 0.000000 
0.195312 16.800837 0.000000 
0.585938 16.530691 0.000000 
0.585938 16.800837 0.000000 
0.195312 17.072067 0.000000 
0.195312 17.344669 0.000000 
0.585938 17.072067 0.000000 
0.585938 17.344669 0.000000 
0.195312 17.618610 0.000000 
0.195312 17.893718 0.000000 
0.585938 17.618610 0.000000 
0.585938 17.893718 0.000000 
0.195312 18.170311 0.000000 
0.195312 18.448283 0.000000 
0.585938 18.170311 0.000000 
0.585938 18.448283 0.000000 
0.195312 18.727507 0.000000 
0.195312 19.008423 0.000000 
0.585938 18.727507 0.000000 
0.585938 19.008423 0.000000 
0.195312 19.290534 0.000000 
0.195312 19.574348 0.000000 
0.585938 19.290534 0.000000 
0.585938 19.574348 0.000000 
0.195312 19.859444 0.000000 
0.195312 20.146033 0.000000 
0.585938 19.859444 0.000000 
0.585938 20.146033 0.000000 
0.195312 20.434373 0.000000 
0.195312 20.723735 0.000000 
0.585938 20.434373 0.000000 
0.585938 20.723735 0.000000 
0.195312 21.015166 0.000000 
0.195312 21.307851 0.000000 
0.585938 21.015166 0.000000 
0.585938 21.307851 0.000000 
0.195312 21.602493 0.000000 
0.195312 21.898645 0.000000 
0.585938 21.602493 0.000000 
0.585938 21.898645 0.000000 
0.195312 22.196296 0.000000 
0.195312 22.495676 0.000000 
0.585938 22.196296 0.000000 
0.585938 22.495676 0.000000 
0.195312 22.796759 0.000000 
0.195312 23.099661 0.000000 
0.585938 22.796759 0.000000 
0.585938 23.099661 0.000000 
0.195312 23.404553 0.000000 
0.195312 23.710646 0.000000 
0.585938 23.404553 0.000000 
0.585938 23.710646 0.000000 
0.195312 24.019180 0.000000 
0.195312 24.329081 0.000000 
0.585938 24.019180 0.000000 
0.585938 24.329081 0.000000 
0.195312 24.641474 0.000000 
0.195312 24.955500 0.000000 
0.585938 24.641474 0.000000 
0.585938 24.955500 0.000000 
0.195312 25.271239 0.000000 
0.195312 25.589105 0.000000 
0.585938 25.271239 0.000000 
0.585938 25.589105 0.000000 
0.195312 25.908746 0.000000 
0.195312 26.231052 0.000000 
0.585938 25.908746 0.000000 
0.585938 26.231052 0.000000 
0.195312 26.555065 0.000000 
0.195312 26.881441 0.000000 
0.585938 26.555065 0.000000 
0.585938 26.881441 0.000000 
0.195312 27.209783 0.000000 
0.195312 27.540304 0.000000 
0.585938 27.209783 0.000000 
0.585938 27.540304 0.000000 
0.195312 27.873282 0.000000 
0.195312 28.208380 0.000000 
0.585938 27.873282 0.000000 
0.585938 28.208380 0.000000 
0.195312 28.546185 0.000000 
0.195312 28.886262 0.000000 
0.585938 28.546185 0.000000 
0.585938 28.886262 0.000000 
0.195312 29.228914 0.000000 
0.195312 29.574032 0.000000 
0.585938 29.228914 0.000000 
0.585938 29.574032 0.000000 
0.195312 29.921519 0.000000 
0.195312 30.271704 0.000000 
0.585938 29.921519 0.000000 
0.585938 30.271704 0.000000 
0.195312 30.624262 0.000000 
0.195312 30.980053 0.000000 
0.585938 30.624262 0.000000 
0.585938 30.980053 0.000000 
0.195312 31.338191 0.000000 
0.195312 31.699743 0.000000 
0.585938 31.338191 0.000000 
0.585938 31.699743 0.000000 
0.195312 32.063735 0.000000 
0.195312 32.431261 0.000000 
0.585938 32.063735 0.000000 
0.585938 32.431261 0.000000 
0.195312 32.801365 0.000000 
0.195312 33.175219 0.000000 
0.585938 32.801365 0.000000 
0.585938 33.175219 0.000000 
0.195312 33.551719 0.000000 
0.195312 33.932084 0.000000 
0.585938 33.551719 0.000000 
0.585938 33.932084 0.000000 
0.195312 34.315522 0.000000 
0.195312 34.702890 0.000000 
0.585938 34.315522 0.000000 
0.585938 34.702890 0.000000 

POINT_DATA 256
SCALARS sigma_xx FLOAT 1
LOOKUP_TABLE default
0.000000
0.000000
0.000000
0.000000
-0.000000
-0.000000
-0.000000
-0.000000
-0.000000
-0.000000
-0.000000
-0.000000
0.000000
-0.000000
0.000000
-0.000000
0.000000
0.000000
0.000000
0.000000
-0.000000
0.000000
-0.000000
0.000000
0.000000
0.000000
0.000000
0.000000
0.000000
0.000000
0.000000
0.000000
0.000000
-0.000000
0.000000
-0.000000
-0.000000
-0.000000
0.000000
-0.000000
0.000000
0.000000
0.000000
0.000000
0.000000
0.000000
0.000000
0.000000
-0.000000
0.000000
-0.000000
0.000000
0.000000
0.000000
0.000000
0.000000
-0.000000
-0.000000
-0.000000
-0.000000
-0.000000
-0.000000
-0.000000
-0.000000
0.000000
-0.000000
0.000000
-0.000000
0.000000
-0.000000
-0.000000
-0.000000
-0.000000
-0.000000
-0.000000
-0.000000
-0.000000
-0.000000
-0.000000
-0.000000
0.000000
0.000000
0.000000
-0.000000
-0.000000
-0.000000
-0.000000
-0.000000
-0.000000
-0.000000
-0.000000
-0.000000
-0.000000
-0.000000
-0.000000
-0.000000
-0.000000
-0.000000
-0.000000
-0.000000
-0.000000
-0.000000
-0.000000
-0.000000
0.000000
-0.000000
0.000000
-0.000000
0.000000
-0.000000
-0.000000
-0.000000
-0.000000
-0.000000
-0.000000
-0.000000
0.000000
0.000000
0.000000
0.000000
-0.000000
-0.000000
-0.000000
-0.000000
-0.000000
-0.000000
-0.000000
-0.000000
-0.000000
-0.000000
-0.000000
-0.000000
-0.000000
-0.000000
-0.000000
-0.000000
-0.000000
-0.000000
-0.000000
-0.000000
-0.000000
-0.000000
-0.000000
-0.000000
-0.000000
0.000000
-0.000000
0.000000
0.000000
-0.000000
0.000000
-0.000000
0.000000
-0.000000
0.000000
-0.000000
-0.000000
0.000000
-0.000000
0.000000
-0.000000
-0.000000
0.000000
-0.000000
-0.000000
-0.000000
-0.000000
-0.000000
-0.000000
0.000000
-0.000000
0.000000
-0.000000
-0.000000
-0.000000
-0.000000
-0.000000
-0.000000
-0.000000
-0.000000
-0.000000
-0.000000
-0.000000
-0.000000
-0.000000
-0.000000
-0.000000
-0.000000
-0.000000
0.000000
-0.000000
0.000000
0.000000
-0.000000
0.000000
-0.000000
-0.000000
-0.000000
0.000000
-0.000000
-0.000000
-0.000000
0.000000
-0.000000
-0.000000
-0.000000
-0.000000
-0.000000
0.000000
-0.000000
0.000000
-0.000000
0.000000
0.000000
0.000000
0.000000
0.000000
-0.000000
0.000000
-0.000000
-0.000000
-0.000000
-0.000000
-0.000000
-0.000000
-0.000000
-0.000000
-0.000000
0.000000
-0.000000
0.000000
-0.000000
0.000000
-0.000000
0.000000
-0.000000
-0.000000
-0.000000
-0.000000
-0.000000
0.000000
-0.000000
0.000000
-0.000000
-0.000000
-0.000000
-0.000000
-0.000000
-0.000000
-0.000000
-0.000000
-0.000000
0.000000
-0.000000
0.000000
-0.000000

SCALARS sigma_yy FLOAT 1
LOOKUP_TABLE default
-11900.887671
-11900.887671
-11900.887671
-11900.887671
-11789.550538
-11664.401775
-11789.550538
-11664.401775
-11570.144740
-11497.561775
-11570.144740
-11497.561775
-11385.932041
-11297.424622
-11385.932041
-11297.424622
-11203.180362
-11115.004358
-11203.180362
-11115.004358
-11005.911769
-10924.198194
-11005.911769
-10924.198194
-10827.886792
-10740.313951
-10827.886792
-10740.313951
-10631.874797
-10549.859212
-10631.874797
-10549.859212
-10448.899708
-10364.761909
-10448.899708
-10364.761909
-10261.027422
-10181.072930
-10261.027422
-10181.072930
-10072.434721
-9986.576076
-10072.434721
-9986.576076
-9885.047310
-9811.180833
-9885.047310
-9811.180833
-9693.391115
-9608.628289
-9693.391115
-9608.628289
-9502.005704
-9427.696224
-9502.005704
-9427.696224
-9319.560302
-9251.026218
-9319.560302
-9251.026218
-9138.416122
-9057.869985
-9138.416122
-9057.869985
-8944.942188
-8862.496152
-8944.942188
-8862.496152
-8761.217896
-8672.362985
-8761.217896
-8672.362985
-8580.267498
-8481.354946
-8580.267498
-8481.354946
-8392.467404
-8292.452729
-8392.467404
-8292.452729
-8198.880711
-8112.870086
-8198.880711
-8112.870086
-8016.113231
-7930.971576
-8016.113231
-7930.971576
-7810.951964
-7749.466326
-7810.951964
-7749.466326
-7637.411186
-7555.155415
-7637.411186
-7555.155415
-7452.405184
-7355.696861
-7452.405184
-7355.696861
-7264.701390
-7167.470138
-7264.701390
-7167.470138
-7077.460048
-6991.833180
-7077.460048
-6991.833180
-6886.597957
-6811.313611
-6886.597957
-6811.313611
-6684.664756
-6621.787902
-6684.664756
-6621.787902
-6507.230435
-6428.635647
-6507.230435
-6428.635647
-6326.036418
-6234.469695
-6326.036418
-6234.469695
-6136.829802
-6051.221435
-6136.829802
-6051.221435
-5944.563243
-5872.780351
-5944.563243
-5872.780351
-5743.737966
-5685.865605
-5743.737966
-5685.865605
-5568.069580
-5488.832421
-5568.069580
-5488.832421
-5393.198500
-5289.860716
-5393.198500
-5289.860716
-5204.841634
-5108.610940
-5204.841634
-5108.610940
-5016.834326
-4933.505573
-5016.834326
-4933.505573
-4821.527654
-4741.132021
-4821.527654
-4741.132021
-4640.296294
-4543.076165
-4640.296294
-4543.076165
-4459.458839
-4347.710642
-4459.458839
-4347.710642
-4275.984151
-4158.789885
-4275.984151
-4158.789885
-4085.161876
-3991.571255
-4085.161876
-3991.571255
-3883.767526
-3800.481529
-3883.767526
-3800.481529
-3686.478243
-3614.069834
-3686.478243
-3614.069834
-3520.253548
-3426.912434
-3520.253548
-3426.912434
-3329.903853
-3226.540992
-3329.903853
-3226.540992
-3137.878315
-3060.617451
-3137.878315
-3060.617451
-2938.087327
-2875.640380
-2938.087327
-2875.640380
-2732.623472
-2691.212179
-2732.623472
-2691.212179
-2567.864117
-2507.307354
-2567.864117
-2507.307354
-2380.999012
-2298.009639
-2380.999012
-2298.009639
-2200.624910
-2108.480813
-2200.624910
-2108.480813
-2018.652235
-1925.966144
-2018.652235
-1925.966144
-1824.730785
-1741.348366
-1824.730785
-1741.348366
-1626.654990
-1554.921089
-1626.654990
-1554.921089
-1435.697063
-1371.377619
-1435.697063
-1371.377619
-1255.570400
-1189.961777
-1255.570400
-1189.961777
-1070.461432
-994.770359
-1070.461432
-994.770359
-885.530926
-801.314499
-885.530926
-801.314499
-700.419728
-610.455227
-700.419728
-610.455227
-513.943849
-419.125091
-513.943849
-419.125091
-330.613922
-229.320132
-330.613922
-229.320132
-137.912474
-45.818332
-137.912474
-45.818332

SCALARS sigma_zz FLOAT 1
LOOKUP_TABLE default
0.000000
0.000000
0.000000
0.000000
0.000000
0.000000
0.000000
0.000000
0.000000
0.000000
0.000000
0.000000
0.000000
0.000000
0.000000
0.000000
0.000000
0.000000
0.000000
0.000000
0.000000
0.000000
0.000000
0.000000
0.000000
0.000000
0.000000
0.000000
0.000000
0.000000
0.000000
0.000000
0.000000
0.000000
0.000000
0.000000
0.000000
0.000000
0.000000
0.000000
0.000000
0.000000
0.000000
0.000000
0.000000
0.000000
0.000000
0.000000
0.000000
0.000000
0.000000
0.000000
0.000000
0.000000
0.000000
0.000000
0.000000
0.000000
0.000000
0.000000
0.000000
0.000000
0.000000
0.000000
0.000000
0.000000
0.000000
0.000000
0.000000
0.000000
0.000000
0.000000
0.000000
0.000000
0.000000
0.000000
0.000000
0.000000
0.000000
0.000000
0.000000
0.000000
0.000000
0.000000
0.000000
0.000000
0.000000
0.000000
0.000000
0.000000
0.000000
0.000000
0.000000
0.000000
0.000000
0.000000
0.000000
0.000000
0.000000
0.000000
0.000000
0.000000
0.000000
0.000000
0.000000
0.000000
0.000000
0.000000
0.000000
0.000000
0.000000
0.000000
0.000000
0.000000
0.000000
0.000000
0.000000
0.000000
0.000000
0.000000
0.000000
0.000000
0.000000
0.000000
0.000000
0.000000
0.000000
0.000000
0.000000
0.000000
0.000000
0.000000
0.000000
0.000000
0.000000
0.000000
0.000000
0.000000
0.000000
0.000000
0.000000
0.000000
0.000000
0.000000
0.000000
0.000000
0.000000
0.000000
0.000000
0.000000
0.000000
0.000000
0.000000
0.000000
0.000000
0.000000
0.000000
0.000000
0.000000
0.000000
0.000000
0.000000
0.000000
0.000000
0.000000
0.000000
0.000000
0.000000
0.000000
0.000000
0.000000
0.000000
0.000000
0.000000
0.000000
0.000000
0.000000
0.000000
0.000000
0.000000
0.000000
0.000000
0.000000
0.000000
0.000000
0.000000
0.000000
0.000000
0.000000
0.000000
0.000000
0.000000
0.000000
0.000000
0.000000
0.000000
0.000000
0.000000
0.000000
0.000000
0.000000
0.000000
0.000000
0.000000
0.000000
0.000000
0.000000
0.000000
0.000000
0.000000
0.000000
0.000000
0.000000
0.000000
0.000000
0.000000
0.000000
0.000000
0.000000
0.000000
0.000000
0.000000
0.000000
0.000000
0.000000
0.000000
0.000000
0.000000
0.000000
0.000000
0.000000
0.000000
0.000000
0.000000
0.000000
0.000000
0.000000
0.000000
0.000000
0.000000
0.000000
0.000000
0.000000
0.000000
0.000000
0.000000
0.000000
0.000000
0.000000
0.000000
0.000000
0.000000
0.000000
0.000000
0.000000
0.000000

SCALARS sigma_xy FLOAT 1
LOOKUP_TABLE default
0.000000
0.000000
0.000000
0.000000
0.000000
0.000000
0.000000
0.000000
0.000000
0.000000
0.000000
0.000000
0.000000
0.000000
0.000000
0.000000
0.000000
0.000000
0.000000
0.000000
-0.000000
0.000000
-0.000000
0.000000
0.000000
0.000000
0.000000
0.000000
0.000000
0.000000
0.000000
0.000000
0.000000
-0.000000
0.000000
-0.000000
-0.000000
-0.000000
0.000000
-0.000000
0.000000
0.000000
0.000000
0.000000
0.000000
0.000000
0.000000
0.000000
0.000000
0.000000
0.000000
0.000000
0.000000
0.000000
0.000000
0.000000
0.000000
0.000000
0.000000
0.000000
0.000000
-0.000000
0.000000
-0.000000
0.000000
-0.000000
0.000000
-0.000000
0.000000
-0.000000
-0.000000
-0.000000
-0.000000
0.000000
-0.000000
0.000000
0.000000
0.000000
0.000000
0.000000
0.000000
0.000000
0.000000
0.000000
0.000000
0.000000
0.000000
0.000000
-0.000000
-0.000000
-0.000000
-0.000000
-0.000000
-0.000000
-0.000000
-0.000000
0.000000
-0.000000
0.000000
-0.000000
-0.000000
-0.000000
-0.000000
-0.000000
0.000000
0.000000
0.000000
0.000000
0.000000
-0.000000
0.000000
-0.000000
-0.000000
0.000000
-0.000000
0.000000
0.000000
0.000000
0.000000
0.000000
-0.000000
0.000000
-0.000000
0.000000
0.000000
0.000000
0.000000
0.000000
-0.000000
-0.000000
-0.000000
-0.000000
0.000000
0.000000
0.000000
0.000000
-0.000000
-0.000000
-0.000000
-0.000000
-0.000000
0.000000
-0.000000
0.000000
0.000000
0.000000
0.000000
0.000000
0.000000
0.000000
0.000000
0.000000
0.000000
0.000000
0.000000
0.000000
0.000000
0.000000
0.000000
0.000000
-0.000000
-0.000000
0.000000
-0.000000
-0.000000
-0.000000
-0.000000
-0.000000
0.000000
0.000000
0.000000
0.000000
-0.000000
-0.000000
-0.000000
-0.000000
0.000000
0.000000
0.000000
0.000000
0.000000
-0.000000
0.000000
-0.000000
-0.000000
-0.000000
-0.000000
-0.000000
-0.000000
0.000000
-0.000000
0.000000
0.000000
0.000000
0.000000
0.000000
0.000000
0.000000
0.000000
0.000000
0.000000
-0.000000
0.000000
-0.000000
0.000000
-0.000000
0.000000
-0.000000
0.000000
0.000000
0.000000
0.000000
0.000000
0.000000
0.000000
0.000000
0.000000
0.000000
0.000000
0.000000
-0.000000
0.000000
-0.000000
0.000000
-0.000000
0.000000
-0.000000
0.000000
0.000000
0.000000
0.000000
0.000000
0.000000
0.000000
0.000000
0.000000
-0.000000
-0.000000
-0.000000
-0.000000
0.000000
-0.000000
0.000000
-0.000000
-0.000000
0.000000
-0.000000
0.000000
0.000000
0.000000
0.000000
0.000000
0.000000
-0.000000
0.000000
-0.000000

SCALARS sigma_yz FLOAT 1
LOOKUP_TABLE default
0.000000
0.000000
0.000000
0.000000
0.000000
0.000000
0.000000
0.000000
0.000000
0.000000
0.000000
0.000000
0.000000
0.000000
0.000000
0.000000
0.000000
0.000000
0.000000
0.000000
0.000000
0.000000
0.000000
0.000000
0.000000
0.000000
0.000000
0.000000
0.000000
0.000000
0.000000
0.000000
0.000000
0.000000
0.000000
0.000000
0.000000
0.000000
0.000000
0.000000
0.000000
0.000000
0.000000
0.000000
0.000000
0.000000
0.000000
0.000000
0.000000
0.000000
0.000000
0.000000
0.000000
0.000000
0.000000
0.000000
0.000000
0.000000
0.000000
0.000000
0.000000
0.000000
0.000000
0.000000
0.000000
0.000000
0.000000
0.000000
0.000000
0.000000
0.000000
0.000000
0.000000
0.000000
0.000000
0.000000
0.000000
0.000000
0.000000
0.000000
0.000000
0.000000
0.000000
0.000000
0.000000
0.000000
0.000000
0.000000
0.000000
0.000000
0.000000
0.000000
0.000000
0.000000
0.000000
0.000000
0.000000
0.000000
0.000000
0.000000
0.000000
0.000000
0.000000
0.000000
0.000000
0.000000
0.000000
0.000000
0.000000
0.000000
0.000000
0.000000
0.000000
0.000000
0.000000
0.000000
0.000000
0.000000
0.000000
0.000000
0.000000
0.000000
0.000000
0.000000
0.000000
0.000000
0.000000
0.000000
0.000000
0.000000
0.000000
0.000000
0.000000
0.000000
0.000000
0.000000
0.000000
0.000000
0.000000
0.000000
0.000000
0.000000
0.000000
0.000000
0.000000
0.000000
0.000000
0.000000
0.000000
0.000000
0.000000
0.000000
0.000000
0.000000
0.000000
0.000000
0.000000
0.000000
0.000000
0.000000
0.000000
0.000000
0.000000
0.000000
0.000000
0.000000
0.000000
0.000000
0.000000
0.000000
0.000000
0.000000
0.000000
0.000000
0.000000
0.000000
0.000000
0.000000
0.000000
0.000000
0.000000
0.000000
0.000000
0.000000
0.000000
0.000000
0.000000
0.000000
0.000000
0.000000
0.000000
0.000000
0.000000
0.000000
0.000000
0.000000
0.000000
0.000000
0.000000
0.000000
0.000000
0.000000
0.000000
0.000000
0.000000
0.000000
0.000000
0.000000
0.000000
0.000000
0.000000
0.000000
0.000000
0.000000
0.000000
0.000000
0.000000
0.000000
0.000000
0.000000
0.000000
0.000000
0.000000
0.000000
0.000000
0.000000
0.000000
0.000000
0.000000
0.000000
0.000000
0.000000
0.000000
0.000000
0.000000
0.000000
0.000000
0.000000
0.000000
0.000000
0.000000
0.000000
0.000000
0.000000
0.000000
0.000000
0.000000
0.000000
0.000000
0.000000
0.000000
0.000000
0.000000
0.000000
0.000000
0.000000

SCALARS sigma_zx FLOAT 1
LOOKUP_TABLE default
0.000000
0.000000
0.000000
0.000000
0.000000
0.000000
0.000000
0.000000
0.000000
0.000000
0.000000
0.000000
0.000000
0.000000
0.000000
0.000000
0.000000
0.000000
0.000000
0.000000
0.000000
0.000000
0.000000
0.000000
0.000000
0.000000
0.000000
0.000000
0.000000
0.000000
0.000000
0.000000
0.000000
0.000000
0.000000
0.000000
0.000000
0.000000
0.000000
0.000000
0.000000
0.000000
0.000000
0.000000
0.000000
0.000000
0.000000
0.000000
0.000000
0.000000
0.000000
0.000000
0.000000
0.000000
0.000000
0.000000
0.000000
0.000000
0.000000
0.000000
0.000000
0.000000
0.000000
0.000000
0.000000
0.000000
0.000000
0.000000
0.000000
0.000000
0.000000
0.000000
0.000000
0.000000
0.000000
0.000000
0.000000
0.000000
0.000000
0.000000
0.000000
0.000000
0.000000
0.000000
0.000000
0.000000
0.000000
0.000000
0.000000
0.000000
0.000000
0.000000
0.000000
0.000000
0.000000
0.000000
0.000000
0.000000
0.000000
0.000000
0.000000
0.000000
0.000000
0.000000
0.000000
0.000000
0.000000
0.000000
0.000000
0.000000
0.000000
0.000000
0.000000
0.000000
0.000000
0.000000
0.000000
0.000000
0.000000
0.000000
0.000000
0.000000
0.000000
0.000000
0.000000
0.000000
0.000000
0.000000
0.000000
0.000000
0.000000
0.000000
0.000000
0.000000
0.000000
0.000000
0.000000
0.000000
0.000000
0.000000
0.000000
0.000000
0.000000
0.000000
0.000000
0.000000
0.000000
0.000000
0.000000
0.000000
0.000000
0.000000
0.000000
0.000000
0.000000
0.000000
0.000000
0.000000
0.000000
0.000000
0.000000
0.000000
0.000000
0.000000
0.000000
0.000000
0.000000
0.000000
0.000000
0.000000
0.000000
0.000000
0.000000
0.000000
0.000000
0.000000
0.000000
0.000000
0.000000
0.000000
0.000000
0.000000
0.000000
0.000000
0.000000
0.000000
0.000000
0.000000
0.000000
0.000000
0.000000
0.000000
0.000000
0.000000
0.000000
0.000000
0.000000
0.000000
0.000000
0.000000
0.000000
0.000000
0.000000
0.000000
0.000000
0.000000
0.000000
0.000000
0.000000
0.000000
0.000000
0.000000
0.000000
0.000000
0.000000
0.000000
0.000000
0.000000
0.000000
0.000000
0.000000
0.000000
0.000000
0.000000
0.000000
0.000000
0.000000
0.000000
0.000000
0.000000
0.000000
0.000000
0.000000
0.000000
0.000000
0.000000
0.000000
0.000000
0.000000
0.000000
0.000000
0.000000
0.000000
0.000000
0.000000
0.000000
0.000000
0.000000
0.000000
0.000000
0.000000
0.000000
0.000000
0.000000
0.000000
0.000000

SCALARS u_x FLOAT 1
LOOKUP_TABLE default
0.000000
0.000000
0.000000
0.000000
0.000000
0.000000
0.000000
0.000000
0.000000
0.000000
0.000000
0.000000
0.000000
0.000000
0.000000
0.000000
0.000000
0.000000
0.000000
0.000000
0.000000
0.000000
0.000000
0.000000
0.000000
0.000000
0.000000
0.000000
0.000000
0.000000
0.000000
0.000000
0.000000
0.000000
0.000000
0.000000
0.000000
0.000000
0.000000
0.000000
0.000000
0.000000
0.000000
0.000000
0.000000
0.000000
0.000000
0.000000
0.000000
0.000000
0.000000
0.000000
0.000000
0.000000
0.000000
0.000000
0.000000
0.000000
0.000000
0.000000
0.000000
0.000000
0.000000
0.000000
0.000000
0.000000
0.000000
0.000000
0.000000
0.000000
0.000000
0.000000
0.000000
0.000000
0.000000
0.000000
0.000000
0.000000
0.000000
0.000000
0.000000
0.000000
0.000000
0.000000
0.000000
0.000000
0.000000
0.000000
0.000000
0.000000
0.000000
0.000000
0.000000
0.000000
0.000000
0.000000
0.000000
0.000000
0.000000
0.000000
0.000000
0.000000
0.000000
0.000000
0.000000
0.000000
0.000000
0.000000
0.000000
0.000000
0.000000
0.000000
0.000000
0.000000
0.000000
0.000000
0.000000
0.000000
0.000000
0.000000
0.000000
0.000000
0.000000
0.000000
0.000000
0.000000
0.000000
0.000000
0.000000
0.000000
0.000000
0.000000
0.000000
0.000000
0.000000
0.000000
0.000000
0.000000
0.000000
0.000000
0.000000
0.000000
0.000000
0.000000
0.000000
0.000000
0.000000
0.000000
0.000000
0.000000
0.000000
0.000000
0.000000
0.000000
0.000000
0.000000
0.000000
0.000000
0.000000
0.000000
0.000000
0.000000
0.000000
0.000000
0.000000
0.000000
0.000000
0.000000
0.000000
0.000000
0.000000
0.000000
0.000000
0.000000
0.000000
0.000000
0.000000
0.000000
0.000000
0.000000
0.000000
0.000000
0.000000
0.000000
0.000000
0.000000
0.000000
0.000000
0.000000
0.000000
0.000000
0.000000
0.000000
0.000000
0.000000
0.000000
0.000000
0.000000
0.000000
0.000000
0.000000
0.000000
0.000000
0.000000
0.000000
0.000000
0.000000
0.000000
0.000000
0.000000
0.000000
0.000000
0.000000
0.000000
0.000000
0.000000
0.000000
0.000000
0.000000
0.000000
0.000000
0.000000
0.000000
0.000000
0.000000
0.000000
0.000000
0.000000
0.000000
0.000000
0.000000
0.000000
0.000000
0.000000
0.000000
0.000000
0.000000
0.000000
0.000000
0.000000
0.000000
0.000000
0.000000
0.000000
0.000000
0.000000
0.000000
0.000000
0.000000
0.000000
0.000000
0.000000
0.000000
0.000000
0.000000
0.000000

SCALARS u_y FLOAT 1
LOOKUP_TABLE default
-0.091534
-0.274603
-0.091534
-0.274603
-0.457386
-0.639228
-0.457386
-0.639228
-0.820353
-1.000897
-0.820353
-1.000897
-1.180822
-1.360002
-1.180822
-1.360002
-1.538562
-1.716447
-1.538562
-1.716447
-1.893640
-2.070090
-1.893640
-2.070090
-2.245936
-2.421068
-2.245936
-2.421068
-2.595487
-2.769175
-2.595487
-2.769175
-2.942190
-3.114481
-2.942190
-3.114481
-3.286024
-3.456867
-3.286024
-3.456867
-3.626940
-3.796274
-3.626940
-3.796274
-3.964824
-4.132717
-3.964824
-4.132717
-4.299765
-4.466002
-4.299765
-4.466002
-4.631418
-4.796152
-4.631418
-4.796152
-4.960028
-5.123173
-4.960028
-5.123173
-5.285566
-5.447117
-5.285566
-5.447117
-5.607780
-5.767532
-5.607780
-5.767532
-5.926606
-6.084650
-5.926606
-6.084650
-6.241965
-6.398337
-6.241965
-6.398337
-6.553897
-6.708546
-6.553897
-6.708546
-6.862204
-7.015169
-6.862204
-7.015169
-7.167023
-7.318170
-7.167023
-7.318170
-7.468175
-7.617349
-7.468175
-7.617349
-7.765615
-7.912901
-7.765615
-7.912901
-8.059247
-8.204442
-8.059247
-8.204442
-8.348778
-8.492037
-8.348778
-8.492037
-8.634252
-8.775657
-8.634252
-8.775657
-8.915764
-9.055074
-8.915764
-9.055074
-9.193131
-9.330162
-9.193131
-9.330162
-9.466200
-9.601010
-9.466200
-9.601010
-9.734856
-9.867416
-9.734856
-9.867416
-9.998945
-10.129333
-9.998945
-10.129333
-10.258406
-10.386527
-10.258406
-10.386527
-10.513220
-10.638809
-10.513220
-10.638809
-10.763323
-10.886326
-10.763323
-10.886326
-11.008371
-11.128851
-11.008371
-11.128851
-11.248245
-11.366269
-11.248245
-11.366269
-11.482952
-11.598470
-11.482952
-11.598470
-11.712501
-11.825154
-11.712501
-11.825154
-11.936555
-12.046264
-11.936555
-12.046264
-12.154778
-12.261589
-12.154778
-12.261589
-12.367119
-12.471154
-12.367119
-12.471154
-12.573440
-12.674703
-12.573440
-12.674703
-12.773897
-12.871836
-12.773897
-12.871836
-12.967820
-13.062293
-12.967820
-13.062293
-13.155266
-13.246512
-13.155266
-13.246512
-13.336053
-13.423776
-13.336053
-13.423776
-13.509510
-13.594041
-13.509510
-13.594041
-13.676133
-13.756856
-13.676133
-13.756856
-13.835088
-13.911687
-13.835088
-13.911687
-13.986573
-14.059332
-13.986573
-14.059332
-14.130316
-14.198635
-14.130316
-14.198635
-14.265247
-14.329496
-14.265247
-14.329496
-14.391779
-14.451884
-14.391779
-14.451884
-14.509531
-14.565057
-14.509531
-14.565057
-14.617878
-14.668425
-14.617878
-14.668425
-14.716399
-14.761905
-14.716399
-14.761905
-14.805044
-14.845483
-14.805044
-14.845483
-14.883550
-14.918385
-14.883550
-14.918385
-14.950871
-14.979944
-14.950871
-14.979944
-15.006578
-15.029677
-15.006578
-15.029677
-15.050198
-15.066969
-15.050198
-15.066969
-15.081094
-15.091354
-15.081094
-15.091354
-15.098540
-15.101797
-15.098540
-15.101797

