# vtk DataFile Version 2.0
MATLAB generated vtk file, WMC
ASCII
DATASET UNSTRUCTURED_GRID
POINTS 256 double
0.195312 0.107270 0.000000 
0.195312 0.321810 0.000000 
0.585938 0.107270 0.000000 
0.585938 0.321810 0.000000 
0.195312 0.536645 0.000000 
0.195312 0.752449 0.000000 
0.585938 0.536645 0.000000 
0.585938 0.752449 0.000000 
0.195312 0.968946 0.000000 
0.195312 1.186031 0.000000 
0.585938 0.968946 0.000000 
0.585938 1.186031 0.000000 
0.195312 1.403755 0.000000 
0.195312 1.622211 0.000000 
0.585938 1.403755 0.000000 
0.585938 1.622211 0.000000 
0.195312 1.841226 0.000000 
0.195312 2.060935 0.000000 
0.585938 1.841226 0.000000 
0.585938 2.060935 0.000000 
0.195312 2.281357 0.000000 
0.195312 2.502517 0.000000 
0.585938 2.281357 0.000000 
0.585938 2.502517 0.000000 
0.195312 2.724285 0.000000 
0.195312 2.946790 0.000000 
0.585938 2.724285 0.000000 
0.585938 2.946790 0.000000 
0.195312 3.170002 0.000000 
0.195312 3.393877 0.000000 
0.585938 3.170002 0.000000 
0.585938 3.393877 0.000000 
0.195312 3.618442 0.000000 
0.195312 3.843751 0.000000 
0.585938 3.618442 0.000000 
0.585938 3.843751 0.000000 
0.195312 4.069789 0.000000 
0.195312 4.296529 0.000000 
0.585938 4.069789 0.000000 
0.585938 4.296529 0.000000 
0.195312 4.524062 0.000000 
0.195312 4.752342 0.000000 
0.585938 4.524062 0.000000 
0.585938 4.752342 0.000000 
0.195312 4.981393 0.000000 
0.195312 5.211118 0.000000 
0.585938 4.981393 0.000000 
0.585938 5.211118 0.000000 
0.195312 5.441701 0.000000 
0.195312 5.672960 0.000000 
0.585938 5.441701 0.000000 
0.585938 5.672960 0.000000 
0.195312 5.905023 0.000000 
0.195312 6.137790 0.000000 
0.585938 5.905023 0.000000 
0.585938 6.137790 0.000000 
0.195312 6.371455 0.000000 
0.195312 6.605889 0.000000 
0.585938 6.371455 0.000000 
0.585938 6.605889 0.000000 
0.195312 6.841099 0.000000 
0.195312 7.077132 0.000000 
0.585938 6.841099 0.000000 
0.585938 7.077132 0.000000 
0.195312 7.313949 0.000000 
0.195312 7.551696 0.000000 
0.585938 7.313949 0.000000 
0.585938 7.551696 0.000000 
0.195312 7.790136 0.000000 
0.195312 8.029596 0.000000 
0.585938 7.790136 0.000000 
0.585938 8.029596 0.000000 
0.195312 8.269797 0.000000 
0.195312 8.510967 0.000000 
0.585938 8.269797 0.000000 
0.585938 8.510967 0.000000 
0.195312 8.752871 0.000000 
0.195312 8.995657 0.000000 
0.585938 8.752871 0.000000 
0.585938 8.995657 0.000000 
0.195312 9.239461 0.000000 
0.195312 9.483945 0.000000 
0.585938 9.239461 0.000000 
0.585938 9.483945 0.000000 
0.195312 9.729528 0.000000 
0.195312 9.975837 0.000000 
0.585938 9.729528 0.000000 
0.585938 9.975837 0.000000 
0.195312 10.223297 0.000000 
0.195312 10.471556 0.000000 
0.585938 10.223297 0.000000 
0.585938 10.471556 0.000000 
0.195312 10.720746 0.000000 
0.195312 10.970903 0.000000 
0.585938 10.720746 0.000000 
0.585938 10.970903 0.000000 
0.195312 11.221882 0.000000 
0.195312 11.474029 0.000000 
0.585938 11.221882 0.000000 
0.585938 11.474029 0.000000 
0.195312 11.727036 0.000000 
0.195312 11.981035 0.000000 
0.585938 11.727036 0.000000 
0.585938 11.981035 0.000000 
0.195312 12.236090 0.000000 
0.195312 12.491971 0.000000 
0.585938 12.236090 0.000000 
0.585938 12.491971 0.000000 
0.195312 12.749158 0.000000 
0.195312 13.007157 0.000000 
0.585938 12.749158 0.000000 
0.585938 13.007157 0.000000 
0.195312 13.266423 0.000000 
0.195312 13.526584 0.000000 
0.585938 13.266423 0.000000 
0.585938 13.526584 0.000000 
0.195312 13.787731 0.000000 
0.195312 14.050123 0.000000 
0.585938 13.787731 0.000000 
0.585938 14.050123 0.000000 
0.195312 14.313392 0.000000 
0.195312 14.577956 0.000000 
0.585938 14.313392 0.000000 
0.585938 14.577956 0.000000 
0.195312 14.843561 0.000000 
0.195312 15.110230 0.000000 
0.585938 14.843561 0.000000 
0.585938 15.110230 0.000000 
0.195312 15.378228 0.000000 
0.195312 15.647164 0.000000 
0.585938 15.378228 0.000000 
0.585938 15.647164 0.000000 
0.195312 15.917400 0.000000 
0.195312 16.188748 0.000000 
0.585938 15.917400 0.000000 
0.585938 16.188748 0.000000 
0.195312 16.461192 0.000000 
0.195312 16.735175 0.000000 
0.585938 16.461192 0.000000 
0.585938 16.735175 0.000000 
0.195312 17.010138 0.000000 
0.195312 17.286596 0.000000 
0.585938 17.010138 0.000000 
0.585938 17.286596 0.000000 
0.195312 17.563982 0.000000 
0.195312 17.842768 0.000000 
0.585938 17.563982 0.000000 
0.585938 17.842768 0.000000 
0.195312 18.122854 0.000000 
0.195312 18.404075 0.000000 
0.585938 18.122854 0.000000 
0.585938 18.404075 0.000000 
0.195312 18.686810 0.000000 
0.195312 18.970855 0.000000 
0.585938 18.686810 0.000000 
0.585938 18.970855 0.000000 
0.195312 19.256142 0.000000 
0.195312 19.543123 0.000000 
0.585938 19.256142 0.000000 
0.585938 19.543123 0.000000 
0.195312 19.831149 0.000000 
0.195312 20.120889 0.000000 
0.585938 19.831149 0.000000 
0.585938 20.120889 0.000000 
0.195312 20.411837 0.000000 
0.195312 20.704128 0.000000 
0.585938 20.411837 0.000000 
0.585938 20.704128 0.000000 
0.195312 20.998201 0.000000 
0.195312 21.293314 0.000000 
0.585938 20.998201 0.000000 
0.585938 21.293314 0.000000 
0.195312 21.590535 0.000000 
0.195312 21.888947 0.000000 
0.585938 21.590535 0.000000 
0.585938 21.888947 0.000000 
0.195312 22.188912 0.000000 
0.195312 22.490354 0.000000 
0.585938 22.188912 0.000000 
0.585938 22.490354 0.000000 
0.195312 22.793418 0.000000 
0.195312 23.098355 0.000000 
0.585938 22.793418 0.000000 
0.585938 23.098355 0.000000 
0.195312 23.404978 0.000000 
0.195312 23.712985 0.000000 
0.585938 23.404978 0.000000 
0.585938 23.712985 0.000000 
0.195312 24.022898 0.000000 
0.195312 24.334073 0.000000 
0.585938 24.022898 0.000000 
0.585938 24.334073 0.000000 
0.195312 24.647797 0.000000 
0.195312 24.962858 0.000000 
0.585938 24.647797 0.000000 
0.585938 24.962858 0.000000 
0.195312 25.279916 0.000000 
0.195312 25.598492 0.000000 
0.585938 25.279916 0.000000 
0.585938 25.598492 0.000000 
0.195312 25.918852 0.000000 
0.195312 26.241433 0.000000 
0.585938 25.918852 0.000000 
0.585938 26.241433 0.000000 
0.195312 26.565757 0.000000 
0.195312 26.892455 0.000000 
0.585938 26.565757 0.000000 
0.585938 26.892455 0.000000 
0.195312 27.220827 0.000000 
0.195312 27.551381 0.000000 
0.585938 27.220827 0.000000 
0.585938 27.551381 0.000000 
0.195312 27.883795 0.000000 
0.195312 28.218344 0.000000 
0.585938 27.883795 0.000000 
0.585938 28.218344 0.000000 
0.195312 28.555226 0.000000 
0.195312 28.894204 0.000000 
0.585938 28.555226 0.000000 
0.585938 28.894204 0.000000 
0.195312 29.235615 0.000000 
0.195312 29.579256 0.000000 
0.585938 29.235615 0.000000 
0.585938 29.579256 0.000000 
0.195312 29.925163 0.000000 
0.195312 30.273390 0.000000 
0.585938 29.925163 0.000000 
0.585938 30.273390 0.000000 
0.195312 30.623911 0.000000 
0.195312 30.977034 0.000000 
0.585938 30.623911 0.000000 
0.585938 30.977034 0.000000 
0.195312 31.332428 0.000000 
0.195312 31.690761 0.000000 
0.585938 31.332428 0.000000 
0.585938 31.690761 0.000000 
0.195312 32.051370 0.000000 
0.195312 32.415067 0.000000 
0.585938 32.051370 0.000000 
0.585938 32.415067 0.000000 
0.195312 32.781129 0.000000 
0.195312 33.150380 0.000000 
0.585938 32.781129 0.000000 
0.585938 33.150380 0.000000 
0.195312 33.522112 0.000000 
0.195312 33.897244 0.000000 
0.585938 33.522112 0.000000 
0.585938 33.897244 0.000000 
0.195312 34.274893 0.000000 
0.195312 34.656045 0.000000 
0.585938 34.274893 0.000000 
0.585938 34.656045 0.000000 
0.195312 35.040106 0.000000 
0.195312 35.427740 0.000000 
0.585938 35.040106 0.000000 
0.585938 35.427740 0.000000 

POINT_DATA 256
SCALARS sigma_xx FLOAT 1
LOOKUP_TABLE default
0.000000
0.000000
0.000000
0.000000
-0.000000
0.000000
-0.000000
0.000000
0.000000
0.000000
0.000000
0.000000
0.000000
-0.000000
0.000000
-0.000000
0.000000
-0.000000
0.000000
-0.000000
0.000000
-0.000000
0.000000
-0.000000
0.000000
-0.000000
0.000000
-0.000000
-0.000000
-0.000000
-0.000000
-0.000000
-0.000000
0.000000
-0.000000
0.000000
0.000000
0.000000
-0.000000
0.000000
0.000000
0.000000
0.000000
0.000000
0.000000
-0.000000
0.000000
-0.000000
-0.000000
-0.000000
-0.000000
-0.000000
-0.000000
0.000000
-0.000000
0.000000
-0.000000
-0.000000
-0.000000
-0.000000
0.000000
-0.000000
0.000000
-0.000000
0.000000
-0.000000
0.000000
-0.000000
-0.000000
-0.000000
-0.000000
-0.000000
0.000000
-0.000000
0.000000
-0.000000
-0.000000
0.000000
-0.000000
0.000000
-0.000000
-0.000000
-0.000000
0.000000
-0.000000
-0.000000
-0.000000
-0.000000
-0.000000
-0.000000
-0.000000
-0.000000
-0.000000
-0.000000
-0.000000
-0.000000
-0.000000
0.000000
-0.000000
0.000000
0.000000
-0.000000
0.000000
-0.000000
0.000000
0.000000
0.000000
0.000000
-0.000000
-0.000000
-0.000000
-0.000000
0.000000
-0.000000
0.000000
-0.000000
-0.000000
-0.000000
-0.000000
-0.000000
-0.000000
-0.000000
-0.000000
-0.000000
-0.000000
-0.000000
-0.000000
-0.000000
-0.000000
-0.000000
-0.000000
-0.000000
0.000000
-0.000000
0.000000
-0.000000
-0.000000
-0.000000
-0.000000
-0.000000
-0.000000
0.000000
-0.000000
0.000000
-0.000000
0.000000
-0.000000
0.000000
0.000000
-0.000000
0.000000
-0.000000
0.000000
-0.000000
0.000000
-0.000000
-0.000000
0.000000
-0.000000
0.000000
-0.000000
-0.000000
0.000000
-0.000000
-0.000000
-0.000000
-0.000000
-0.000000
0.000000
-0.000000
0.000000
-0.000000
0.000000
-0.000000
0.000000
-0.000000
-0.000000
-0.000000
-0.000000
-0.000000
0.000000
-0.000000
0.000000
-0.000000
-0.000000
-0.000000
-0.000000
-0.000000
0.000000
0.000000
0.000000
-0.000000
-0.000000
-0.000000
-0.000000
-0.000000
0.000000
-0.000000
-0.000000
-0.000000
0.000000
-0.000000
-0.000000
-0.000000
-0.000000
-0.000000
-0.000000
-0.000000
0.000000
-0.000000
0.000000
-0.000000
0.000000
0.000000
0.000000
0.000000
0.000000
-0.000000
0.000000
-0.000000
-0.000000
-0.000000
-0.000000
-0.000000
-0.000000
-0.000000
-0.000000
-0.000000
0.000000
-0.000000
0.000000
-0.000000
0.000000
-0.000000
0.000000
-0.000000
-0.000000
-0.000000
-0.000000
-0.000000
0.000000
-0.000000
0.000000
-0.000000
-0.000000
-0.000000
-0.000000
-0.000000
-0.000000
-0.000000
-0.000000
-0.000000
-0.000000
-0.000000
-0.000000
-0.000000

SCALARS sigma_yy FLOAT 1
LOOKUP_TABLE default
-10910.927615
-10910.927615
-10910.927615
-10910.927615
-10805.400942
-10689.969832
-10805.400942
-10689.969832
-10606.088144
-10537.268337
-10606.088144
-10537.268337
-10431.430334
-10359.738105
-10431.430334
-10359.738105
-10273.897710
-10190.230197
-10273.897710
-10190.230197
-10087.973175
-10014.927419
-10087.973175
-10014.927419
-9923.520716
-9840.410940
-9923.520716
-9840.410940
-9748.305900
-9675.007200
-9748.305900
-9675.007200
-9579.116106
-9500.954132
-9579.116106
-9500.954132
-9408.480897
-9332.513349
-9408.480897
-9332.513349
-9229.296880
-9152.756855
-9229.296880
-9152.756855
-9057.653669
-8987.454383
-9057.653669
-8987.454383
-8884.803647
-8819.101511
-8884.803647
-8819.101511
-8717.628551
-8646.848360
-8717.628551
-8646.848360
-8540.676956
-8475.475660
-8540.676956
-8475.475660
-8368.346523
-8305.092638
-8368.346523
-8305.092638
-8203.424719
-8124.901399
-8203.424719
-8124.901399
-8030.713797
-7949.373993
-8030.713797
-7949.373993
-7861.639044
-7769.906986
-7861.639044
-7769.906986
-7698.495570
-7603.124586
-7698.495570
-7603.124586
-7513.901598
-7438.912257
-7513.901598
-7438.912257
-7347.022886
-7265.806662
-7347.022886
-7265.806662
-7157.215112
-7100.292715
-7157.215112
-7100.292715
-6993.359789
-6926.204523
-6993.359789
-6926.204523
-6834.594191
-6742.196905
-6834.594191
-6742.196905
-6662.372094
-6575.627955
-6662.372094
-6575.627955
-6489.555353
-6409.141174
-6489.555353
-6409.141174
-6310.153558
-6238.155979
-6310.153558
-6238.155979
-6124.634093
-6073.974535
-6124.634093
-6073.974535
-5964.284579
-5894.356830
-5964.284579
-5894.356830
-5802.464168
-5714.717444
-5802.464168
-5714.717444
-5626.495672
-5549.749038
-5626.495672
-5549.749038
-5447.464849
-5388.062896
-5447.464849
-5388.062896
-5270.921776
-5215.353986
-5270.921776
-5215.353986
-5102.876374
-5027.062352
-5102.876374
-5027.062352
-4935.245037
-4853.194554
-4935.245037
-4853.194554
-4774.272009
-4682.143504
-4774.272009
-4682.143504
-4601.852362
-4521.661890
-4601.852362
-4521.661890
-4416.416953
-4345.537476
-4416.416953
-4345.537476
-4248.432381
-4162.665153
-4248.432381
-4162.665153
-4088.689543
-3980.940734
-4088.689543
-3980.940734
-3925.993401
-3815.501948
-3925.993401
-3815.501948
-3744.447747
-3654.296977
-3744.447747
-3654.296977
-3550.200824
-3487.562178
-3550.200824
-3487.562178
-3391.862270
-3321.711197
-3391.862270
-3321.711197
-3220.310708
-3129.462487
-3220.310708
-3129.462487
-3048.401963
-2967.711808
-3048.401963
-2967.711808
-2881.627062
-2801.964347
-2881.627062
-2801.964347
-2682.388063
-2634.999495
-2682.388063
-2634.999495
-2517.013313
-2476.675512
-2517.013313
-2476.675512
-2351.985712
-2292.687351
-2351.985712
-2292.687351
-2179.514513
-2107.930491
-2179.514513
-2107.930491
-2014.768748
-1937.402032
-2014.768748
-1937.402032
-1849.605490
-1766.151887
-1849.605490
-1766.151887
-1669.126115
-1594.773064
-1669.126115
-1594.773064
-1490.647177
-1423.829692
-1490.647177
-1423.829692
-1322.036269
-1258.799456
-1322.036269
-1258.799456
-1152.000534
-1087.872478
-1152.000534
-1087.872478
-981.391421
-910.820781
-981.391421
-910.820781
-811.349974
-734.707135
-811.349974
-734.707135
-641.156251
-560.750915
-641.156251
-560.750915
-469.685559
-385.794843
-469.685559
-385.794843
-301.417200
-212.100757
-301.417200
-212.100757
-123.872485
-43.425038
-123.872485
-43.425038

SCALARS sigma_zz FLOAT 1
LOOKUP_TABLE default
0.000000
0.000000
0.000000
0.000000
0.000000
0.000000
0.000000
0.000000
0.000000
0.000000
0.000000
0.000000
0.000000
0.000000
0.000000
0.000000
0.000000
0.000000
0.000000
0.000000
0.000000
0.000000
0.000000
0.000000
0.000000
0.000000
0.000000
0.000000
0.000000
0.000000
0.000000
0.000000
0.000000
0.000000
0.000000
0.000000
0.000000
0.000000
0.000000
0.000000
0.000000
0.000000
0.000000
0.000000
0.000000
0.000000
0.000000
0.000000
0.000000
0.000000
0.000000
0.000000
0.000000
0.000000
0.000000
0.000000
0.000000
0.000000
0.000000
0.000000
0.000000
0.000000
0.000000
0.000000
0.000000
0.000000
0.000000
0.000000
0.000000
0.000000
0.000000
0.000000
0.000000
0.000000
0.000000
0.000000
0.000000
0.000000
0.000000
0.000000
0.000000
0.000000
0.000000
0.000000
0.000000
0.000000
0.000000
0.000000
0.000000
0.000000
0.000000
0.000000
0.000000
0.000000
0.000000
0.000000
0.000000
0.000000
0.000000
0.000000
0.000000
0.000000
0.000000
0.000000
0.000000
0.000000
0.000000
0.000000
0.000000
0.000000
0.000000
0.000000
0.000000
0.000000
0.000000
0.000000
0.000000
0.000000
0.000000
0.000000
0.000000
0.000000
0.000000
0.000000
0.000000
0.000000
0.000000
0.000000
0.000000
0.000000
0.000000
0.000000
0.000000
0.000000
0.000000
0.000000
0.000000
0.000000
0.000000
0.000000
0.000000
0.000000
0.000000
0.000000
0.000000
0.000000
0.000000
0.000000
0.000000
0.000000
0.000000
0.000000
0.000000
0.000000
0.000000
0.000000
0.000000
0.000000
0.000000
0.000000
0.000000
0.000000
0.000000
0.000000
0.000000
0.000000
0.000000
0.000000
0.000000
0.000000
0.000000
0.000000
0.000000
0.000000
0.000000
0.000000
0.000000
0.000000
0.000000
0.000000
0.000000
0.000000
0.000000
0.000000
0.000000
0.000000
0.000000
0.000000
0.000000
0.000000
0.000000
0.000000
0.000000
0.000000
0.000000
0.000000
0.000000
0.000000
0.000000
0.000000
0.000000
0.000000
0.000000
0.000000
0.000000
0.000000
0.000000
0.000000
0.000000
0.000000
0.000000
0.000000
0.000000
0.000000
0.000000
0.000000
0.000000
0.000000
0.000000
0.000000
0.000000
0.000000
0.000000
0.000000
0.000000
0.000000
0.000000
0.000000
0.000000
0.000000
0.000000
0.000000
0.000000
0.000000
0.000000
0.000000
0.000000
0.000000
0.000000
0.000000
0.000000
0.000000
0.000000
0.000000
0.000000
0.000000
0.000000
0.000000
0.000000
0.000000
0.000000
0.000000
0.000000
0.000000
0.000000
0.000000

SCALARS sigma_xy FLOAT 1
LOOKUP_TABLE default
0.000000
0.000000
0.000000
0.000000
0.000000
0.000000
0.000000
0.000000
0.000000
0.000000
0.000000
0.000000
0.000000
0.000000
0.000000
0.000000
0.000000
0.000000
0.000000
0.000000
0.000000
0.000000
0.000000
0.000000
0.000000
-0.000000
0.000000
-0.000000
-0.000000
-0.000000
-0.000000
-0.000000
0.000000
0.000000
0.000000
0.000000
0.000000
0.000000
0.000000
0.000000
0.000000
0.000000
0.000000
0.000000
0.000000
-0.000000
0.000000
-0.000000
-0.000000
-0.000000
-0.000000
-0.000000
-0.000000
0.000000
-0.000000
0.000000
0.000000
0.000000
0.000000
0.000000
0.000000
-0.000000
0.000000
-0.000000
0.000000
-0.000000
0.000000
-0.000000
0.000000
-0.000000
0.000000
-0.000000
0.000000
0.000000
0.000000
0.000000
0.000000
0.000000
0.000000
0.000000
-0.000000
-0.000000
-0.000000
0.000000
0.000000
0.000000
0.000000
0.000000
-0.000000
-0.000000
-0.000000
-0.000000
-0.000000
-0.000000
-0.000000
-0.000000
0.000000
0.000000
0.000000
0.000000
0.000000
-0.000000
0.000000
-0.000000
0.000000
0.000000
0.000000
0.000000
0.000000
0.000000
0.000000
0.000000
0.000000
0.000000
0.000000
0.000000
-0.000000
-0.000000
-0.000000
-0.000000
-0.000000
0.000000
-0.000000
0.000000
0.000000
0.000000
0.000000
0.000000
-0.000000
-0.000000
-0.000000
-0.000000
0.000000
0.000000
0.000000
0.000000
0.000000
-0.000000
0.000000
-0.000000
-0.000000
0.000000
-0.000000
0.000000
0.000000
0.000000
0.000000
0.000000
0.000000
0.000000
0.000000
0.000000
0.000000
0.000000
0.000000
0.000000
0.000000
0.000000
0.000000
0.000000
-0.000000
-0.000000
0.000000
-0.000000
-0.000000
-0.000000
-0.000000
-0.000000
0.000000
-0.000000
0.000000
-0.000000
0.000000
0.000000
0.000000
0.000000
0.000000
0.000000
0.000000
0.000000
0.000000
-0.000000
0.000000
-0.000000
-0.000000
-0.000000
-0.000000
-0.000000
0.000000
0.000000
0.000000
0.000000
-0.000000
0.000000
-0.000000
0.000000
0.000000
0.000000
-0.000000
0.000000
0.000000
-0.000000
-0.000000
-0.000000
0.000000
-0.000000
0.000000
-0.000000
0.000000
0.000000
0.000000
0.000000
0.000000
0.000000
0.000000
0.000000
0.000000
0.000000
0.000000
0.000000
-0.000000
0.000000
-0.000000
0.000000
-0.000000
0.000000
-0.000000
0.000000
0.000000
0.000000
0.000000
0.000000
0.000000
0.000000
0.000000
0.000000
-0.000000
-0.000000
-0.000000
-0.000000
0.000000
-0.000000
0.000000
-0.000000
-0.000000
0.000000
-0.000000
0.000000
0.000000
0.000000
0.000000
0.000000
-0.000000
-0.000000
-0.000000
-0.000000

SCALARS sigma_yz FLOAT 1
LOOKUP_TABLE default
0.000000
0.000000
0.000000
0.000000
0.000000
0.000000
0.000000
0.000000
0.000000
0.000000
0.000000
0.000000
0.000000
0.000000
0.000000
0.000000
0.000000
0.000000
0.000000
0.000000
0.000000
0.000000
0.000000
0.000000
0.000000
0.000000
0.000000
0.000000
0.000000
0.000000
0.000000
0.000000
0.000000
0.000000
0.000000
0.000000
0.000000
0.000000
0.000000
0.000000
0.000000
0.000000
0.000000
0.000000
0.000000
0.000000
0.000000
0.000000
0.000000
0.000000
0.000000
0.000000
0.000000
0.000000
0.000000
0.000000
0.000000
0.000000
0.000000
0.000000
0.000000
0.000000
0.000000
0.000000
0.000000
0.000000
0.000000
0.000000
0.000000
0.000000
0.000000
0.000000
0.000000
0.000000
0.000000
0.000000
0.000000
0.000000
0.000000
0.000000
0.000000
0.000000
0.000000
0.000000
0.000000
0.000000
0.000000
0.000000
0.000000
0.000000
0.000000
0.000000
0.000000
0.000000
0.000000
0.000000
0.000000
0.000000
0.000000
0.000000
0.000000
0.000000
0.000000
0.000000
0.000000
0.000000
0.000000
0.000000
0.000000
0.000000
0.000000
0.000000
0.000000
0.000000
0.000000
0.000000
0.000000
0.000000
0.000000
0.000000
0.000000
0.000000
0.000000
0.000000
0.000000
0.000000
0.000000
0.000000
0.000000
0.000000
0.000000
0.000000
0.000000
0.000000
0.000000
0.000000
0.000000
0.000000
0.000000
0.000000
0.000000
0.000000
0.000000
0.000000
0.000000
0.000000
0.000000
0.000000
0.000000
0.000000
0.000000
0.000000
0.000000
0.000000
0.000000
0.000000
0.000000
0.000000
0.000000
0.000000
0.000000
0.000000
0.000000
0.000000
0.000000
0.000000
0.000000
0.000000
0.000000
0.000000
0.000000
0.000000
0.000000
0.000000
0.000000
0.000000
0.000000
0.000000
0.000000
0.000000
0.000000
0.000000
0.000000
0.000000
0.000000
0.000000
0.000000
0.000000
0.000000
0.000000
0.000000
0.000000
0.000000
0.000000
0.000000
0.000000
0.000000
0.000000
0.000000
0.000000
0.000000
0.000000
0.000000
0.000000
0.000000
0.000000
0.000000
0.000000
0.000000
0.000000
0.000000
0.000000
0.000000
0.000000
0.000000
0.000000
0.000000
0.000000
0.000000
0.000000
0.000000
0.000000
0.000000
0.000000
0.000000
0.000000
0.000000
0.000000
0.000000
0.000000
0.000000
0.000000
0.000000
0.000000
0.000000
0.000000
0.000000
0.000000
0.000000
0.000000
0.000000
0.000000
0.000000
0.000000
0.000000
0.000000
0.000000
0.000000
0.000000
0.000000
0.000000
0.000000
0.000000
0.000000
0.000000
0.000000

SCALARS sigma_zx FLOAT 1
LOOKUP_TABLE default
0.000000
0.000000
0.000000
0.000000
0.000000
0.000000
0.000000
0.000000
0.000000
0.000000
0.000000
0.000000
0.000000
0.000000
0.000000
0.000000
0.000000
0.000000
0.000000
0.000000
0.000000
0.000000
0.000000
0.000000
0.000000
0.000000
0.000000
0.000000
0.000000
0.000000
0.000000
0.000000
0.000000
0.000000
0.000000
0.000000
0.000000
0.000000
0.000000
0.000000
0.000000
0.000000
0.000000
0.000000
0.000000
0.000000
0.000000
0.000000
0.000000
0.000000
0.000000
0.000000
0.000000
0.000000
0.000000
0.000000
0.000000
0.000000
0.000000
0.000000
0.000000
0.000000
0.000000
0.000000
0.000000
0.000000
0.000000
0.000000
0.000000
0.000000
0.000000
0.000000
0.000000
0.000000
0.000000
0.000000
0.000000
0.000000
0.000000
0.000000
0.000000
0.000000
0.000000
0.000000
0.000000
0.000000
0.000000
0.000000
0.000000
0.000000
0.000000
0.000000
0.000000
0.000000
0.000000
0.000000
0.000000
0.000000
0.000000
0.000000
0.000000
0.000000
0.000000
0.000000
0.000000
0.000000
0.000000
0.000000
0.000000
0.000000
0.000000
0.000000
0.000000
0.000000
0.000000
0.000000
0.000000
0.000000
0.000000
0.000000
0.000000
0.000000
0.000000
0.000000
0.000000
0.000000
0.000000
0.000000
0.000000
0.000000
0.000000
0.000000
0.000000
0.000000
0.000000
0.000000
0.000000
0.000000
0.000000
0.000000
0.000000
0.000000
0.000000
0.000000
0.000000
0.000000
0.000000
0.000000
0.000000
0.000000
0.000000
0.000000
0.000000
0.000000
0.000000
0.000000
0.000000
0.000000
0.000000
0.000000
0.000000
0.000000
0.000000
0.000000
0.000000
0.000000
0.000000
0.000000
0.000000
0.000000
0.000000
0.000000
0.000000
0.000000
0.000000
0.000000
0.000000
0.000000
0.000000
0.000000
0.000000
0.000000
0.000000
0.000000
0.000000
0.000000
0.000000
0.000000
0.000000
0.000000
0.000000
0.000000
0.000000
0.000000
0.000000
0.000000
0.000000
0.000000
0.000000
0.000000
0.000000
0.000000
0.000000
0.000000
0.000000
0.000000
0.000000
0.000000
0.000000
0.000000
0.000000
0.000000
0.000000
0.000000
0.000000
0.000000
0.000000
0.000000
0.000000
0.000000
0.000000
0.000000
0.000000
0.000000
0.000000
0.000000
0.000000
0.000000
0.000000
0.000000
0.000000
0.000000
0.000000
0.000000
0.000000
0.000000
0.000000
0.000000
0.000000
0.000000
0.000000
0.000000
0.000000
0.000000
0.000000
0.000000
0.000000
0.000000
0.000000
0.000000
0.000000
0.000000
0.000000
0.000000
0.000000
0.000000

SCALARS u_x FLOAT 1
LOOKUP_TABLE default
0.000000
0.000000
0.000000
0.000000
0.000000
0.000000
0.000000
0.000000
0.000000
0.000000
0.000000
0.000000
0.000000
0.000000
0.000000
0.000000
0.000000
0.000000
0.000000
0.000000
0.000000
0.000000
0.000000
0.000000
0.000000
0.000000
0.000000
0.000000
0.000000
0.000000
0.000000
0.000000
0.000000
0.000000
0.000000
0.000000
0.000000
0.000000
0.000000
0.000000
0.000000
0.000000
0.000000
0.000000
0.000000
0.000000
0.000000
0.000000
0.000000
0.000000
0.000000
0.000000
0.000000
0.000000
0.000000
0.000000
0.000000
0.000000
0.000000
0.000000
0.000000
0.000000
0.000000
0.000000
0.000000
0.000000
0.000000
0.000000
0.000000
0.000000
0.000000
0.000000
0.000000
0.000000
0.000000
0.000000
0.000000
0.000000
0.000000
0.000000
0.000000
0.000000
0.000000
0.000000
0.000000
0.000000
0.000000
0.000000
0.000000
0.000000
0.000000
0.000000
0.000000
0.000000
0.000000
0.000000
0.000000
0.000000
0.000000
0.000000
0.000000
0.000000
0.000000
0.000000
0.000000
0.000000
0.000000
0.000000
0.000000
0.000000
0.000000
0.000000
0.000000
0.000000
0.000000
0.000000
0.000000
0.000000
0.000000
0.000000
0.000000
0.000000
0.000000
0.000000
0.000000
0.000000
0.000000
0.000000
0.000000
0.000000
0.000000
0.000000
0.000000
0.000000
0.000000
0.000000
0.000000
0.000000
0.000000
0.000000
0.000000
0.000000
0.000000
0.000000
0.000000
0.000000
0.000000
0.000000
0.000000
0.000000
0.000000
0.000000
0.000000
0.000000
0.000000
0.000000
0.000000
0.000000
0.000000
0.000000
0.000000
0.000000
0.000000
0.000000
0.000000
0.000000
0.000000
0.000000
0.000000
0.000000
0.000000
0.000000
0.000000
0.000000
0.000000
0.000000
0.000000
0.000000
0.000000
0.000000
0.000000
0.000000
0.000000
0.000000
0.000000
0.000000
0.000000
0.000000
0.000000
0.000000
0.000000
0.000000
0.000000
0.000000
0.000000
0.000000
0.000000
0.000000
0.000000
0.000000
0.000000
0.000000
0.000000
0.000000
0.000000
0.000000
0.000000
0.000000
0.000000
0.000000
0.000000
0.000000
0.000000
0.000000
0.000000
0.000000
0.000000
0.000000
0.000000
0.000000
0.000000
0.000000
0.000000
0.000000
0.000000
0.000000
0.000000
0.000000
0.000000
0.000000
0.000000
0.000000
0.000000
0.000000
0.000000
0.000000
0.000000
0.000000
0.000000
0.000000
0.000000
0.000000
0.000000
0.000000
0.000000
0.000000
0.000000
0.000000
0.000000
0.000000
0.000000
0.000000
0.000000
0.000000
0.000000
0.000000

SCALARS u_y FLOAT 1
LOOKUP_TABLE default
-0.088043
-0.264128
-0.088043
-0.264128
-0.439917
-0.614739
-0.439917
-0.614739
-0.788867
-0.962407
-0.788867
-0.962407
-1.135308
-1.307476
-1.135308
-1.307476
-1.479086
-1.650003
-1.479086
-1.650003
-1.820205
-1.989671
-1.820205
-1.989671
-2.158528
-2.326647
-2.158528
-2.326647
-2.494061
-2.660811
-2.494061
-2.660811
-2.826871
-2.992187
-2.826871
-2.992187
-3.156774
-3.320659
-3.156774
-3.320659
-3.483750
-3.646096
-3.483750
-3.646096
-3.807670
-3.968569
-3.807670
-3.968569
-4.128611
-4.287977
-4.128611
-4.287977
-4.446539
-4.604398
-4.446539
-4.604398
-4.761357
-4.917548
-4.761357
-4.917548
-5.072964
-5.227555
-5.072964
-5.227555
-5.381364
-5.534242
-5.381364
-5.534242
-5.686426
-5.837591
-5.686426
-5.837591
-5.988015
-6.137470
-5.988015
-6.137470
-6.286191
-6.434031
-6.286191
-6.434031
-6.580851
-6.726992
-6.580851
-6.726992
-6.872035
-7.016350
-6.872035
-7.016350
-7.159515
-7.301882
-7.159515
-7.301882
-7.443317
-7.583784
-7.443317
-7.583784
-7.723431
-7.861909
-7.723431
-7.861909
-7.999526
-8.136152
-7.999526
-8.136152
-8.271723
-8.406467
-8.271723
-8.406467
-8.539905
-8.672530
-8.539905
-8.672530
-8.803890
-8.934353
-8.803890
-8.934353
-9.063831
-9.192064
-9.063831
-9.192064
-9.319421
-9.445482
-9.319421
-9.445482
-9.570501
-9.694458
-9.570501
-9.694458
-9.817085
-9.938773
-9.817085
-9.938773
-10.059162
-10.178440
-10.059162
-10.178440
-10.296621
-10.413262
-10.296621
-10.413262
-10.528925
-10.643092
-10.528925
-10.643092
-10.756330
-10.868170
-10.756330
-10.868170
-10.978709
-11.088112
-10.978709
-11.088112
-11.196003
-11.302583
-11.196003
-11.302583
-11.407921
-11.511564
-11.407921
-11.511564
-11.614163
-11.715048
-11.614163
-11.715048
-11.814726
-11.913059
-11.814726
-11.913059
-12.009612
-12.105124
-12.009612
-12.105124
-12.198528
-12.290741
-12.198528
-12.290741
-12.381400
-12.470583
-12.381400
-12.470583
-12.558145
-12.643833
-12.558145
-12.643833
-12.727834
-12.810452
-12.727834
-12.810452
-12.891165
-12.970614
-12.891165
-12.970614
-13.047516
-13.123079
-13.047516
-13.123079
-13.196646
-13.268696
-13.196646
-13.268696
-13.338960
-13.407005
-13.338960
-13.407005
-13.473306
-13.537233
-13.473306
-13.537233
-13.599486
-13.659556
-13.599486
-13.659556
-13.717768
-13.773843
-13.717768
-13.773843
-13.827587
-13.879233
-13.827587
-13.879233
-13.928448
-13.975431
-13.928448
-13.975431
-14.020150
-14.062547
-14.020150
-14.062547
-14.102652
-14.140154
-14.102652
-14.140154
-14.175385
-14.207677
-14.175385
-14.207677
-14.237692
-14.264621
-14.237692
-14.264621
-14.289184
-14.310558
-14.289184
-14.310558
-14.329450
-14.344943
-14.329450
-14.344943
-14.357919
-14.367392
-14.357919
-14.367392
-14.373957
-14.376947
-14.373957
-14.376947

