# vtk DataFile Version 2.0
MATLAB generated vtk file, WMC
ASCII
DATASET UNSTRUCTURED_GRID
POINTS 128 double
0.781250 0.781250 0.305323 
0.781250 0.781250 0.915969 
0.781250 2.343750 0.305323 
0.781250 2.343750 0.915969 
2.343750 0.781250 0.305323 
2.343750 0.781250 0.915969 
2.343750 2.343750 0.305323 
2.343750 2.343750 0.915969 
0.781250 0.781250 1.530111 
0.781250 0.781250 2.156080 
0.781250 2.343750 1.530111 
0.781250 2.343750 2.156080 
2.343750 0.781250 1.530111 
2.343750 0.781250 2.156080 
2.343750 2.343750 1.530111 
2.343750 2.343750 2.156080 
0.781250 0.781250 2.794004 
0.781250 0.781250 3.445393 
0.781250 2.343750 2.794004 
0.781250 2.343750 3.445393 
2.343750 0.781250 2.794004 
2.343750 0.781250 3.445393 
2.343750 2.343750 2.794004 
2.343750 2.343750 3.445393 
0.781250 0.781250 4.106414 
0.781250 0.781250 4.778831 
0.781250 2.343750 4.106414 
0.781250 2.343750 4.778831 
2.343750 0.781250 4.106414 
2.343750 0.781250 4.778831 
2.343750 2.343750 4.106414 
2.343750 2.343750 4.778831 
0.781250 0.781250 5.463871 
0.781250 0.781250 6.163633 
0.781250 2.343750 5.463871 
0.781250 2.343750 6.163633 
2.343750 0.781250 5.463871 
2.343750 0.781250 6.163633 
2.343750 2.343750 5.463871 
2.343750 2.343750 6.163633 
0.781250 0.781250 6.877262 
0.781250 0.781250 7.604929 
0.781250 2.343750 6.877262 
0.781250 2.343750 7.604929 
2.343750 0.781250 6.877262 
2.343750 0.781250 7.604929 
2.343750 2.343750 6.877262 
2.343750 2.343750 7.604929 
0.781250 0.781250 8.347625 
0.781250 0.781250 9.107203 
0.781250 2.343750 8.347625 
0.781250 2.343750 9.107203 
2.343750 0.781250 8.347625 
2.343750 0.781250 9.107203 
2.343750 2.343750 8.347625 
2.343750 2.343750 9.107203 
0.781250 0.781250 9.884482 
0.781250 0.781250 10.679684 
0.781250 2.343750 9.884482 
0.781250 2.343750 10.679684 
2.343750 0.781250 9.884482 
2.343750 0.781250 10.679684 
2.343750 2.343750 9.884482 
2.343750 2.343750 10.679684 
0.781250 0.781250 11.493029 
0.781250 0.781250 12.328330 
0.781250 2.343750 11.493029 
0.781250 2.343750 12.328330 
2.343750 0.781250 11.493029 
2.343750 0.781250 12.328330 
2.343750 2.343750 11.493029 
2.343750 2.343750 12.328330 
0.781250 0.781250 13.187130 
0.781250 0.781250 14.068510 
0.781250 2.343750 13.187130 
0.781250 2.343750 14.068510 
2.343750 0.781250 13.187130 
2.343750 0.781250 14.068510 
2.343750 2.343750 13.187130 
2.343750 2.343750 14.068510 
0.781250 0.781250 14.975537 
0.781250 0.781250 15.911873 
0.781250 2.343750 14.975537 
0.781250 2.343750 15.911873 
2.343750 0.781250 14.975537 
2.343750 0.781250 15.911873 
2.343750 2.343750 14.975537 
2.343750 2.343750 15.911873 
0.781250 0.781250 16.876774 
0.781250 0.781250 17.873729 
0.781250 2.343750 16.876774 
0.781250 2.343750 17.873729 
2.343750 0.781250 16.876774 
2.343750 0.781250 17.873729 
2.343750 2.343750 16.876774 
2.343750 2.343750 17.873729 
0.781250 0.781250 18.907825 
0.781250 0.781250 19.980792 
0.781250 2.343750 18.907825 
0.781250 2.343750 19.980792 
2.343750 0.781250 18.907825 
2.343750 0.781250 19.980792 
2.343750 2.343750 18.907825 
2.343750 2.343750 19.980792 
0.781250 0.781250 21.097402 
0.781250 0.781250 22.259036 
0.781250 2.343750 21.097402 
0.781250 2.343750 22.259036 
2.343750 0.781250 21.097402 
2.343750 0.781250 22.259036 
2.343750 2.343750 21.097402 
2.343750 2.343750 22.259036 
0.781250 0.781250 23.473374 
0.781250 0.781250 24.777532 
0.781250 2.343750 23.473374 
0.781250 2.343750 24.777532 
2.343750 0.781250 23.473374 
2.343750 0.781250 24.777532 
2.343750 2.343750 23.473374 
2.343750 2.343750 24.777532 
0.781250 0.781250 26.140513 
0.781250 0.781250 27.542961 
0.781250 2.343750 26.140513 
0.781250 2.343750 27.542961 
2.343750 0.781250 26.140513 
2.343750 0.781250 27.542961 
2.343750 2.343750 26.140513 
2.343750 2.343750 27.542961 

POINT_DATA 128
SCALARS sigma_xx FLOAT 1
LOOKUP_TABLE default
0.000000
-0.000000
0.000000
-0.000000
0.000000
0.000000
0.000000
-0.000000
-0.000000
-0.000000
0.000000
-0.000000
-0.000000
-0.000000
0.000000
-0.000000
-0.000000
0.000000
-0.000000
-0.000000
0.000000
-0.000000
0.000000
0.000000
-0.000000
-0.000000
0.000000
0.000000
-0.000000
0.000000
0.000000
0.000000
0.000000
-0.000000
0.000000
-0.000000
-0.000000
0.000000
-0.000000
0.000000
-0.000000
-0.000000
-0.000000
-0.000000
-0.000000
0.000000
-0.000000
-0.000000
0.000000
-0.000000
-0.000000
-0.000000
0.000000
0.000000
-0.000000
0.000000
-0.000000
-0.000000
-0.000000
-0.000000
-0.000000
-0.000000
-0.000000
-0.000000
0.000000
0.000000
-0.000000
-0.000000
-0.000000
-0.000000
-0.000000
-0.000000
-0.000000
0.000000
-0.000000
-0.000000
-0.000000
0.000000
0.000000
0.000000
0.000000
-0.000000
-0.000000
0.000000
-0.000000
-0.000000
0.000000
0.000000
0.000000
-0.000000
0.000000
-0.000000
0.000000
0.000000
0.000000
-0.000000
-0.000000
0.000000
-0.000000
-0.000000
0.000000
-0.000000
0.000000
0.000000
-0.000000
-0.000000
0.000000
-0.000000
-0.000000
0.000000
0.000000
-0.000000
0.000000
-0.000000
-0.000000
-0.000000
-0.000000
0.000000
0.000000
0.000000
0.000000
-0.000000
-0.000000
-0.000000
0.000000
0.000000
-0.000000
0.000000

SCALARS sigma_yy FLOAT 1
LOOKUP_TABLE default
0.000000
-0.000000
-0.000000
-0.000000
-0.000000
0.000000
-0.000000
0.000000
0.000000
-0.000000
0.000000
0.000000
-0.000000
0.000000
0.000000
0.000000
-0.000000
0.000000
-0.000000
0.000000
0.000000
0.000000
-0.000000
0.000000
0.000000
-0.000000
0.000000
-0.000000
-0.000000
-0.000000
0.000000
-0.000000
0.000000
0.000000
0.000000
-0.000000
-0.000000
-0.000000
-0.000000
-0.000000
-0.000000
-0.000000
0.000000
0.000000
-0.000000
-0.000000
-0.000000
0.000000
0.000000
-0.000000
0.000000
-0.000000
0.000000
0.000000
-0.000000
0.000000
0.000000
0.000000
-0.000000
-0.000000
-0.000000
-0.000000
-0.000000
0.000000
0.000000
-0.000000
0.000000
-0.000000
-0.000000
-0.000000
0.000000
-0.000000
-0.000000
0.000000
0.000000
-0.000000
-0.000000
0.000000
0.000000
-0.000000
0.000000
-0.000000
-0.000000
-0.000000
0.000000
-0.000000
0.000000
0.000000
-0.000000
0.000000
-0.000000
-0.000000
0.000000
-0.000000
-0.000000
-0.000000
0.000000
0.000000
-0.000000
-0.000000
-0.000000
-0.000000
0.000000
0.000000
-0.000000
0.000000
0.000000
0.000000
-0.000000
0.000000
0.000000
0.000000
0.000000
-0.000000
0.000000
0.000000
-0.000000
-0.000000
0.000000
-0.000000
-0.000000
0.000000
-0.000000
-0.000000
0.000000
-0.000000
-0.000000
0.000000

SCALARS sigma_zz FLOAT 1
LOOKUP_TABLE default
-24040.253964
-24040.253964
-24040.253964
-24040.253964
-24040.253964
-24040.253964
-24040.253964
-24040.253964
-23299.159691
-22436.056634
-23299.159691
-22436.056634
-23299.159691
-22436.056634
-23299.159691
-22436.056634
-21389.686381
-20687.947263
-21389.686381
-20687.947263
-21389.686381
-20687.947263
-21389.686381
-20687.947263
-19947.110548
-19237.392129
-19947.110548
-19237.392129
-19947.110548
-19237.392129
-19947.110548
-19237.392129
-18356.384081
-17554.740345
-18356.384081
-17554.740345
-18356.384081
-17554.740345
-18356.384081
-17554.740345
-16759.606437
-16060.090467
-16759.606437
-16060.090467
-16759.606437
-16060.090467
-16759.606437
-16060.090467
-15243.479489
-14436.613961
-15243.479489
-14436.613961
-15243.479489
-14436.613961
-15243.479489
-14436.613961
-13637.389379
-12934.984044
-13637.389379
-12934.984044
-13637.389379
-12934.984044
-13637.389379
-12934.984044
-12115.067318
-11324.055159
-12115.067318
-11324.055159
-12115.067318
-11324.055159
-12115.067318
-11324.055159
-10497.722889
-9783.211021
-10497.722889
-9783.211021
-10497.722889
-9783.211021
-10497.722889
-9783.211021
-8944.630360
-8175.392605
-8944.630360
-8175.392605
-8944.630360
-8175.392605
-8944.630360
-8175.392605
-7428.616885
-6655.819933
-7428.616885
-6655.819933
-7428.616885
-6655.819933
-7428.616885
-6655.819933
-5823.994528
-5108.038485
-5823.994528
-5108.038485
-5823.994528
-5108.038485
-5823.994528
-5108.038485
-4313.453756
-3683.800133
-4313.453756
-3683.800133
-4313.453756
-3683.800133
-4313.453756
-3683.800133
-2703.956304
-1792.487429
-2703.956304
-1792.487429
-2703.956304
-1792.487429
-2703.956304
-1792.487429
-1423.344910
-144.633874
-1423.344910
-144.633874
-1423.344910
-144.633874
-1423.344910
-144.633874

SCALARS sigma_xy FLOAT 1
LOOKUP_TABLE default
0.000000
-0.000000
0.000000
-0.000000
-0.000000
-0.000000
0.000000
0.000000
0.000000
-0.000000
0.000000
0.000000
0.000000
-0.000000
0.000000
0.000000
0.000000
-0.000000
-0.000000
-0.000000
-0.000000
-0.000000
-0.000000
-0.000000
0.000000
0.000000
0.000000
-0.000000
0.000000
0.000000
-0.000000
0.000000
-0.000000
0.000000
-0.000000
0.000000
-0.000000
0.000000
0.000000
0.000000
0.000000
-0.000000
0.000000
-0.000000
0.000000
-0.000000
0.000000
-0.000000
0.000000
-0.000000
0.000000
-0.000000
-0.000000
-0.000000
-0.000000
0.000000
0.000000
-0.000000
-0.000000
0.000000
0.000000
0.000000
0.000000
-0.000000
-0.000000
-0.000000
0.000000
0.000000
-0.000000
0.000000
0.000000
0.000000
-0.000000
0.000000
-0.000000
-0.000000
0.000000
0.000000
-0.000000
0.000000
0.000000
-0.000000
-0.000000
-0.000000
-0.000000
0.000000
-0.000000
-0.000000
0.000000
-0.000000
0.000000
-0.000000
0.000000
-0.000000
0.000000
0.000000
0.000000
-0.000000
0.000000
0.000000
0.000000
-0.000000
-0.000000
-0.000000
0.000000
0.000000
0.000000
-0.000000
0.000000
0.000000
-0.000000
-0.000000
0.000000
0.000000
0.000000
0.000000
-0.000000
0.000000
0.000000
-0.000000
0.000000
0.000000
-0.000000
0.000000
0.000000
0.000000
0.000000
-0.000000

SCALARS sigma_yz FLOAT 1
LOOKUP_TABLE default
0.000000
0.000000
0.000000
0.000000
0.000000
-0.000000
-0.000000
0.000000
-0.000000
0.000000
-0.000000
-0.000000
0.000000
-0.000000
-0.000000
-0.000000
0.000000
0.000000
0.000000
0.000000
-0.000000
-0.000000
0.000000
0.000000
0.000000
-0.000000
0.000000
0.000000
-0.000000
-0.000000
0.000000
0.000000
-0.000000
-0.000000
0.000000
-0.000000
-0.000000
0.000000
0.000000
0.000000
-0.000000
-0.000000
-0.000000
0.000000
0.000000
-0.000000
0.000000
0.000000
-0.000000
-0.000000
-0.000000
0.000000
-0.000000
-0.000000
0.000000
0.000000
-0.000000
-0.000000
0.000000
0.000000
0.000000
0.000000
-0.000000
0.000000
0.000000
-0.000000
0.000000
0.000000
0.000000
-0.000000
0.000000
0.000000
-0.000000
-0.000000
0.000000
0.000000
-0.000000
-0.000000
0.000000
0.000000
-0.000000
-0.000000
0.000000
0.000000
0.000000
0.000000
0.000000
0.000000
0.000000
-0.000000
0.000000
0.000000
-0.000000
-0.000000
0.000000
0.000000
-0.000000
-0.000000
0.000000
0.000000
-0.000000
-0.000000
0.000000
0.000000
-0.000000
0.000000
0.000000
0.000000
-0.000000
0.000000
0.000000
0.000000
-0.000000
-0.000000
0.000000
0.000000
0.000000
-0.000000
0.000000
0.000000
-0.000000
0.000000
-0.000000
0.000000
-0.000000
-0.000000
0.000000
0.000000

SCALARS sigma_zx FLOAT 1
LOOKUP_TABLE default
0.000000
0.000000
0.000000
-0.000000
0.000000
0.000000
-0.000000
0.000000
0.000000
0.000000
0.000000
0.000000
0.000000
0.000000
0.000000
0.000000
0.000000
0.000000
0.000000
-0.000000
0.000000
0.000000
0.000000
0.000000
-0.000000
-0.000000
-0.000000
-0.000000
-0.000000
-0.000000
0.000000
0.000000
-0.000000
-0.000000
0.000000
0.000000
-0.000000
-0.000000
0.000000
0.000000
-0.000000
-0.000000
0.000000
-0.000000
0.000000
-0.000000
0.000000
0.000000
-0.000000
-0.000000
-0.000000
-0.000000
-0.000000
-0.000000
0.000000
-0.000000
-0.000000
-0.000000
-0.000000
-0.000000
-0.000000
0.000000
0.000000
0.000000
0.000000
0.000000
0.000000
0.000000
0.000000
0.000000
0.000000
0.000000
-0.000000
-0.000000
0.000000
0.000000
0.000000
-0.000000
0.000000
0.000000
-0.000000
-0.000000
0.000000
-0.000000
-0.000000
0.000000
0.000000
-0.000000
-0.000000
-0.000000
-0.000000
-0.000000
0.000000
0.000000
-0.000000
-0.000000
-0.000000
-0.000000
-0.000000
-0.000000
0.000000
0.000000
0.000000
0.000000
-0.000000
-0.000000
0.000000
-0.000000
0.000000
0.000000
0.000000
0.000000
-0.000000
0.000000
-0.000000
-0.000000
0.000000
0.000000
0.000000
0.000000
-0.000000
-0.000000
-0.000000
-0.000000
0.000000
0.000000
0.000000
0.000000

SCALARS u_x FLOAT 1
LOOKUP_TABLE default
0.000000
0.000000
0.000000
0.000000
0.000000
0.000000
0.000000
0.000000
0.000000
0.000000
0.000000
0.000000
0.000000
0.000000
0.000000
0.000000
0.000000
0.000000
0.000000
0.000000
0.000000
0.000000
0.000000
0.000000
0.000000
0.000000
0.000000
0.000000
0.000000
0.000000
0.000000
0.000000
0.000000
0.000000
0.000000
0.000000
0.000000
0.000000
0.000000
0.000000
0.000000
0.000000
0.000000
0.000000
0.000000
0.000000
0.000000
0.000000
0.000000
0.000000
0.000000
0.000000
0.000000
0.000000
0.000000
0.000000
0.000000
0.000000
0.000000
0.000000
0.000000
0.000000
0.000000
0.000000
0.000000
0.000000
0.000000
0.000000
0.000000
0.000000
0.000000
0.000000
0.000000
0.000000
0.000000
0.000000
0.000000
0.000000
0.000000
0.000000
0.000000
0.000000
0.000000
0.000000
0.000000
0.000000
0.000000
0.000000
0.000000
0.000000
0.000000
0.000000
0.000000
0.000000
0.000000
0.000000
0.000000
0.000000
0.000000
0.000000
0.000000
0.000000
0.000000
0.000000
0.000000
0.000000
0.000000
0.000000
0.000000
0.000000
0.000000
0.000000
0.000000
0.000000
0.000000
0.000000
0.000000
0.000000
0.000000
0.000000
0.000000
0.000000
0.000000
0.000000
0.000000
0.000000
0.000000
0.000000

SCALARS u_y FLOAT 1
LOOKUP_TABLE default
0.000000
0.000000
0.000000
0.000000
0.000000
0.000000
0.000000
0.000000
0.000000
0.000000
0.000000
0.000000
0.000000
0.000000
0.000000
0.000000
0.000000
0.000000
0.000000
0.000000
0.000000
0.000000
0.000000
0.000000
0.000000
0.000000
0.000000
0.000000
0.000000
0.000000
0.000000
0.000000
0.000000
0.000000
0.000000
0.000000
0.000000
0.000000
0.000000
0.000000
0.000000
0.000000
0.000000
0.000000
0.000000
0.000000
0.000000
0.000000
0.000000
0.000000
0.000000
0.000000
0.000000
0.000000
0.000000
0.000000
0.000000
0.000000
0.000000
0.000000
0.000000
0.000000
0.000000
0.000000
0.000000
0.000000
0.000000
0.000000
0.000000
0.000000
0.000000
0.000000
0.000000
0.000000
0.000000
0.000000
0.000000
0.000000
0.000000
0.000000
0.000000
0.000000
0.000000
0.000000
0.000000
0.000000
0.000000
0.000000
0.000000
0.000000
0.000000
0.000000
0.000000
0.000000
0.000000
0.000000
0.000000
0.000000
0.000000
0.000000
0.000000
0.000000
0.000000
0.000000
0.000000
0.000000
0.000000
0.000000
0.000000
0.000000
0.000000
0.000000
0.000000
0.000000
0.000000
0.000000
0.000000
0.000000
0.000000
0.000000
0.000000
0.000000
0.000000
0.000000
0.000000
0.000000
0.000000
0.000000

SCALARS u_z FLOAT 1
LOOKUP_TABLE default
-0.475927
-1.427781
-0.475927
-1.427781
-0.475927
-1.427781
-0.475927
-1.427781
-2.376139
-3.312670
-2.376139
-3.312670
-2.376139
-3.312670
-2.376139
-3.312670
-4.237246
-5.148357
-4.237246
-5.148357
-4.237246
-5.148357
-4.237246
-5.148357
-6.049836
-6.939919
-6.049836
-6.939919
-6.049836
-6.939919
-6.049836
-6.939919
-7.817379
-8.680117
-7.817379
-8.680117
-7.817379
-8.680117
-7.817379
-8.680117
-9.528988
-10.363821
-9.528988
-10.363821
-9.528988
-10.363821
-9.528988
-10.363821
-11.183625
-11.986547
-11.183625
-11.986547
-11.183625
-11.986547
-11.183625
-11.986547
-12.771768
-13.539066
-12.771768
-13.539066
-12.771768
-13.539066
-12.771768
-13.539066
-14.288221
-15.015420
-14.288221
-15.015420
-14.288221
-15.015420
-14.288221
-15.015420
-15.719120
-16.400240
-15.719120
-16.400240
-15.719120
-16.400240
-15.719120
-16.400240
-17.055713
-17.681877
-17.055713
-17.681877
-17.055713
-17.681877
-17.055713
-17.681877
-18.279476
-18.845021
-18.279476
-18.845021
-18.279476
-18.845021
-18.279476
-18.845021
-19.373425
-19.862958
-19.373425
-19.862958
-19.373425
-19.862958
-19.373425
-19.862958
-20.308848
-20.709714
-20.308848
-20.709714
-20.308848
-20.709714
-20.308848
-20.709714
-21.057876
-21.316218
-21.057876
-21.316218
-21.057876
-21.316218
-21.057876
-21.316218
-21.515737
-21.675789
-21.515737
-21.675789
-21.515737
-21.675789
-21.515737
-21.675789

