# vtk DataFile Version 2.0
MATLAB generated vtk file, WMC
ASCII
DATASET UNSTRUCTURED_GRID
POINTS 128 double
0.781250 0.781250 0.240357 
0.781250 0.781250 0.721072 
0.781250 2.343750 0.240357 
0.781250 2.343750 0.721072 
2.343750 0.781250 0.240357 
2.343750 0.781250 0.721072 
2.343750 2.343750 0.240357 
2.343750 2.343750 0.721072 
0.781250 0.781250 1.204539 
0.781250 0.781250 1.697317 
0.781250 2.343750 1.204539 
0.781250 2.343750 1.697317 
2.343750 0.781250 1.204539 
2.343750 0.781250 1.697317 
2.343750 2.343750 1.204539 
2.343750 2.343750 1.697317 
0.781250 0.781250 2.199506 
0.781250 0.781250 2.713432 
0.781250 2.343750 2.199506 
0.781250 2.343750 2.713432 
2.343750 0.781250 2.199506 
2.343750 0.781250 2.713432 
2.343750 2.343750 2.199506 
2.343750 2.343750 2.713432 
0.781250 0.781250 3.239046 
0.781250 0.781250 3.775273 
0.781250 2.343750 3.239046 
0.781250 2.343750 3.775273 
2.343750 0.781250 3.239046 
2.343750 0.781250 3.775273 
2.343750 2.343750 3.239046 
2.343750 2.343750 3.775273 
0.781250 0.781250 4.321582 
0.781250 0.781250 4.879695 
0.781250 2.343750 4.321582 
0.781250 2.343750 4.879695 
2.343750 0.781250 4.321582 
2.343750 0.781250 4.879695 
2.343750 2.343750 4.321582 
2.343750 2.343750 4.879695 
0.781250 0.781250 5.450317 
0.781250 0.781250 6.035677 
0.781250 2.343750 5.450317 
0.781250 2.343750 6.035677 
2.343750 0.781250 5.450317 
2.343750 0.781250 6.035677 
2.343750 2.343750 5.450317 
2.343750 2.343750 6.035677 
0.781250 0.781250 6.635793 
0.781250 0.781250 7.249772 
0.781250 2.343750 6.635793 
0.781250 2.343750 7.249772 
2.343750 0.781250 6.635793 
2.343750 0.781250 7.249772 
2.343750 2.343750 6.635793 
2.343750 2.343750 7.249772 
0.781250 0.781250 7.879289 
0.781250 0.781250 8.526896 
0.781250 2.343750 7.879289 
0.781250 2.343750 8.526896 
2.343750 0.781250 7.879289 
2.343750 0.781250 8.526896 
2.343750 2.343750 7.879289 
2.343750 2.343750 8.526896 
0.781250 0.781250 9.192960 
0.781250 0.781250 9.879658 
0.781250 2.343750 9.192960 
0.781250 2.343750 9.879658 
2.343750 0.781250 9.192960 
2.343750 0.781250 9.879658 
2.343750 2.343750 9.192960 
2.343750 2.343750 9.879658 
0.781250 0.781250 10.587181 
0.781250 0.781250 11.317532 
0.781250 2.343750 10.587181 
0.781250 2.343750 11.317532 
2.343750 0.781250 10.587181 
2.343750 0.781250 11.317532 
2.343750 2.343750 10.587181 
2.343750 2.343750 11.317532 
0.781250 0.781250 12.074344 
0.781250 0.781250 12.860904 
0.781250 2.343750 12.074344 
0.781250 2.343750 12.860904 
2.343750 0.781250 12.074344 
2.343750 0.781250 12.860904 
2.343750 2.343750 12.074344 
2.343750 2.343750 12.860904 
0.781250 0.781250 13.675841 
0.781250 0.781250 14.521921 
0.781250 2.343750 13.675841 
0.781250 2.343750 14.521921 
2.343750 0.781250 13.675841 
2.343750 0.781250 14.521921 
2.343750 2.343750 13.675841 
2.343750 2.343750 14.521921 
0.781250 0.781250 15.405389 
0.781250 0.781250 16.336741 
0.781250 2.343750 15.405389 
0.781250 2.343750 16.336741 
2.343750 0.781250 15.405389 
2.343750 0.781250 16.336741 
2.343750 2.343750 15.405389 
2.343750 2.343750 16.336741 
0.781250 0.781250 17.318154 
0.781250 0.781250 18.348806 
0.781250 2.343750 17.318154 
0.781250 2.343750 18.348806 
2.343750 0.781250 17.318154 
2.343750 0.781250 18.348806 
2.343750 2.343750 17.318154 
2.343750 2.343750 18.348806 
0.781250 0.781250 19.438846 
0.781250 0.781250 20.631862 
0.781250 2.343750 19.438846 
0.781250 2.343750 20.631862 
2.343750 0.781250 19.438846 
2.343750 0.781250 20.631862 
2.343750 2.343750 19.438846 
2.343750 2.343750 20.631862 
0.781250 0.781250 21.899333 
0.781250 0.781250 23.221623 
0.781250 2.343750 21.899333 
0.781250 2.343750 23.221623 
2.343750 0.781250 21.899333 
2.343750 0.781250 23.221623 
2.343750 2.343750 21.899333 
2.343750 2.343750 23.221623 

POINT_DATA 128
SCALARS sigma_xx FLOAT 1
LOOKUP_TABLE default
-0.000000
-0.000000
0.000000
-0.000000
-0.000000
0.000000
-0.000000
-0.000000
0.000000
-0.000000
0.000000
-0.000000
-0.000000
-0.000000
0.000000
-0.000000
-0.000000
0.000000
-0.000000
-0.000000
0.000000
-0.000000
-0.000000
0.000000
-0.000000
-0.000000
0.000000
0.000000
-0.000000
-0.000000
0.000000
0.000000
0.000000
-0.000000
0.000000
-0.000000
-0.000000
-0.000000
-0.000000
0.000000
0.000000
-0.000000
-0.000000
-0.000000
-0.000000
0.000000
0.000000
0.000000
0.000000
-0.000000
-0.000000
-0.000000
0.000000
-0.000000
-0.000000
0.000000
-0.000000
-0.000000
0.000000
-0.000000
-0.000000
-0.000000
0.000000
0.000000
0.000000
0.000000
-0.000000
0.000000
-0.000000
-0.000000
0.000000
-0.000000
-0.000000
0.000000
-0.000000
-0.000000
-0.000000
0.000000
0.000000
0.000000
0.000000
-0.000000
-0.000000
0.000000
0.000000
-0.000000
0.000000
0.000000
-0.000000
-0.000000
0.000000
0.000000
0.000000
0.000000
0.000000
-0.000000
0.000000
0.000000
0.000000
-0.000000
0.000000
0.000000
0.000000
0.000000
-0.000000
-0.000000
0.000000
-0.000000
-0.000000
0.000000
0.000000
-0.000000
0.000000
-0.000000
-0.000000
-0.000000
-0.000000
0.000000
0.000000
0.000000
0.000000
0.000000
-0.000000
-0.000000
0.000000
0.000000
-0.000000
0.000000

SCALARS sigma_yy FLOAT 1
LOOKUP_TABLE default
0.000000
-0.000000
-0.000000
0.000000
-0.000000
0.000000
-0.000000
0.000000
0.000000
0.000000
0.000000
-0.000000
-0.000000
-0.000000
0.000000
-0.000000
-0.000000
-0.000000
-0.000000
0.000000
-0.000000
-0.000000
-0.000000
0.000000
-0.000000
-0.000000
0.000000
-0.000000
-0.000000
0.000000
-0.000000
-0.000000
0.000000
0.000000
0.000000
0.000000
-0.000000
-0.000000
-0.000000
-0.000000
-0.000000
0.000000
0.000000
0.000000
-0.000000
-0.000000
0.000000
0.000000
0.000000
0.000000
0.000000
-0.000000
0.000000
0.000000
0.000000
0.000000
0.000000
-0.000000
-0.000000
-0.000000
-0.000000
-0.000000
-0.000000
-0.000000
0.000000
-0.000000
0.000000
-0.000000
-0.000000
-0.000000
0.000000
-0.000000
-0.000000
0.000000
0.000000
-0.000000
-0.000000
-0.000000
0.000000
-0.000000
0.000000
-0.000000
-0.000000
-0.000000
-0.000000
-0.000000
0.000000
-0.000000
-0.000000
0.000000
-0.000000
-0.000000
0.000000
0.000000
0.000000
-0.000000
-0.000000
-0.000000
-0.000000
-0.000000
0.000000
-0.000000
0.000000
0.000000
-0.000000
0.000000
0.000000
0.000000
-0.000000
0.000000
0.000000
0.000000
-0.000000
-0.000000
0.000000
0.000000
-0.000000
0.000000
0.000000
-0.000000
-0.000000
0.000000
0.000000
0.000000
0.000000
-0.000000
-0.000000
0.000000

SCALARS sigma_zz FLOAT 1
LOOKUP_TABLE default
-38314.306517
-38314.306517
-38314.306517
-38314.306517
-38314.306517
-38314.306517
-38314.306517
-38314.306517
-37256.327868
-36022.996616
-37256.327868
-36022.996616
-37256.327868
-36022.996616
-37256.327868
-36022.996616
-34526.008771
-33135.470026
-34526.008771
-33135.470026
-34526.008771
-33135.470026
-34526.008771
-33135.470026
-31683.576694
-30661.428623
-31683.576694
-30661.428623
-31683.576694
-30661.428623
-31683.576694
-30661.428623
-29419.658603
-28251.422011
-29419.658603
-28251.422011
-29419.658603
-28251.422011
-29419.658603
-28251.422011
-26876.742827
-25556.615320
-26876.742827
-25556.615320
-26876.742827
-25556.615320
-26876.742827
-25556.615320
-24336.336801
-23208.949952
-24336.336801
-23208.949952
-24336.336801
-23208.949952
-24336.336801
-23208.949952
-21884.305097
-20654.633898
-21884.305097
-20654.633898
-21884.305097
-20654.633898
-21884.305097
-20654.633898
-19315.847216
-18147.463451
-19315.847216
-18147.463451
-19315.847216
-18147.463451
-19315.847216
-18147.463451
-16867.068006
-15658.224336
-16867.068006
-15658.224336
-16867.068006
-15658.224336
-16867.068006
-15658.224336
-14264.640612
-13049.609159
-14264.640612
-13049.609159
-14264.640612
-13049.609159
-14264.640612
-13049.609159
-11905.657859
-10757.448138
-11905.657859
-10757.448138
-11905.657859
-10757.448138
-11905.657859
-10757.448138
-9370.175681
-8040.321036
-9370.175681
-8040.321036
-9370.175681
-8040.321036
-9370.175681
-8040.321036
-6811.030791
-5822.136591
-6811.030791
-5822.136591
-6811.030791
-5822.136591
-6811.030791
-5822.136591
-4334.858015
-2999.042114
-4334.858015
-2999.042114
-4334.858015
-2999.042114
-4334.858015
-2999.042114
-2308.998040
-185.351553
-2308.998040
-185.351553
-2308.998040
-185.351553
-2308.998040
-185.351553

SCALARS sigma_xy FLOAT 1
LOOKUP_TABLE default
0.000000
-0.000000
-0.000000
-0.000000
-0.000000
-0.000000
0.000000
0.000000
0.000000
0.000000
0.000000
0.000000
0.000000
-0.000000
-0.000000
0.000000
0.000000
-0.000000
0.000000
-0.000000
-0.000000
0.000000
-0.000000
-0.000000
-0.000000
0.000000
0.000000
0.000000
0.000000
0.000000
0.000000
-0.000000
0.000000
-0.000000
-0.000000
-0.000000
-0.000000
0.000000
0.000000
0.000000
0.000000
-0.000000
0.000000
-0.000000
0.000000
-0.000000
0.000000
-0.000000
-0.000000
-0.000000
0.000000
-0.000000
-0.000000
-0.000000
0.000000
0.000000
0.000000
0.000000
-0.000000
0.000000
-0.000000
0.000000
0.000000
-0.000000
0.000000
-0.000000
0.000000
0.000000
-0.000000
0.000000
0.000000
-0.000000
-0.000000
0.000000
0.000000
-0.000000
0.000000
0.000000
-0.000000
0.000000
0.000000
-0.000000
-0.000000
-0.000000
0.000000
-0.000000
-0.000000
-0.000000
0.000000
-0.000000
0.000000
-0.000000
0.000000
-0.000000
0.000000
-0.000000
0.000000
-0.000000
0.000000
0.000000
-0.000000
-0.000000
-0.000000
-0.000000
-0.000000
0.000000
0.000000
-0.000000
-0.000000
0.000000
-0.000000
0.000000
0.000000
0.000000
-0.000000
0.000000
-0.000000
0.000000
0.000000
-0.000000
0.000000
0.000000
0.000000
-0.000000
-0.000000
-0.000000
-0.000000
0.000000

SCALARS sigma_yz FLOAT 1
LOOKUP_TABLE default
0.000000
-0.000000
-0.000000
-0.000000
0.000000
0.000000
0.000000
-0.000000
-0.000000
0.000000
-0.000000
0.000000
0.000000
-0.000000
-0.000000
-0.000000
-0.000000
0.000000
-0.000000
0.000000
-0.000000
-0.000000
-0.000000
0.000000
-0.000000
-0.000000
0.000000
0.000000
-0.000000
-0.000000
0.000000
0.000000
0.000000
-0.000000
-0.000000
0.000000
-0.000000
0.000000
0.000000
0.000000
-0.000000
0.000000
0.000000
0.000000
0.000000
-0.000000
0.000000
0.000000
-0.000000
0.000000
0.000000
0.000000
-0.000000
0.000000
0.000000
-0.000000
-0.000000
0.000000
0.000000
-0.000000
-0.000000
0.000000
-0.000000
-0.000000
-0.000000
-0.000000
0.000000
0.000000
-0.000000
-0.000000
0.000000
0.000000
-0.000000
-0.000000
0.000000
0.000000
-0.000000
-0.000000
0.000000
0.000000
-0.000000
-0.000000
-0.000000
0.000000
0.000000
0.000000
0.000000
0.000000
-0.000000
-0.000000
0.000000
0.000000
-0.000000
-0.000000
0.000000
0.000000
-0.000000
-0.000000
0.000000
0.000000
-0.000000
-0.000000
0.000000
0.000000
-0.000000
-0.000000
0.000000
0.000000
-0.000000
-0.000000
0.000000
0.000000
-0.000000
-0.000000
0.000000
0.000000
-0.000000
-0.000000
0.000000
0.000000
-0.000000
-0.000000
0.000000
0.000000
-0.000000
-0.000000
0.000000
-0.000000

SCALARS sigma_zx FLOAT 1
LOOKUP_TABLE default
0.000000
-0.000000
-0.000000
-0.000000
-0.000000
0.000000
-0.000000
0.000000
-0.000000
0.000000
-0.000000
0.000000
-0.000000
-0.000000
0.000000
0.000000
-0.000000
-0.000000
0.000000
-0.000000
-0.000000
-0.000000
0.000000
0.000000
-0.000000
-0.000000
0.000000
0.000000
-0.000000
-0.000000
0.000000
0.000000
-0.000000
0.000000
0.000000
0.000000
-0.000000
0.000000
0.000000
0.000000
0.000000
-0.000000
0.000000
-0.000000
0.000000
0.000000
0.000000
0.000000
-0.000000
-0.000000
-0.000000
-0.000000
-0.000000
-0.000000
-0.000000
-0.000000
-0.000000
-0.000000
-0.000000
-0.000000
-0.000000
0.000000
-0.000000
-0.000000
-0.000000
-0.000000
-0.000000
-0.000000
0.000000
0.000000
-0.000000
0.000000
-0.000000
-0.000000
0.000000
0.000000
0.000000
-0.000000
0.000000
0.000000
-0.000000
-0.000000
0.000000
0.000000
-0.000000
0.000000
0.000000
0.000000
0.000000
-0.000000
-0.000000
-0.000000
0.000000
0.000000
0.000000
0.000000
-0.000000
-0.000000
-0.000000
-0.000000
0.000000
-0.000000
0.000000
-0.000000
-0.000000
-0.000000
-0.000000
-0.000000
-0.000000
-0.000000
0.000000
-0.000000
-0.000000
-0.000000
-0.000000
-0.000000
0.000000
0.000000
0.000000
0.000000
0.000000
-0.000000
-0.000000
-0.000000
0.000000
0.000000
0.000000
0.000000

SCALARS u_x FLOAT 1
LOOKUP_TABLE default
0.000000
0.000000
0.000000
0.000000
0.000000
0.000000
0.000000
0.000000
0.000000
0.000000
0.000000
0.000000
0.000000
0.000000
0.000000
0.000000
0.000000
0.000000
0.000000
0.000000
0.000000
0.000000
0.000000
0.000000
0.000000
0.000000
0.000000
0.000000
0.000000
0.000000
0.000000
0.000000
0.000000
0.000000
0.000000
0.000000
0.000000
0.000000
0.000000
0.000000
0.000000
0.000000
0.000000
0.000000
0.000000
0.000000
0.000000
0.000000
0.000000
0.000000
0.000000
0.000000
0.000000
0.000000
0.000000
0.000000
0.000000
0.000000
0.000000
0.000000
0.000000
0.000000
0.000000
0.000000
0.000000
0.000000
0.000000
0.000000
0.000000
0.000000
0.000000
0.000000
0.000000
0.000000
0.000000
0.000000
0.000000
0.000000
0.000000
0.000000
0.000000
0.000000
0.000000
0.000000
0.000000
0.000000
0.000000
0.000000
0.000000
0.000000
0.000000
0.000000
0.000000
0.000000
0.000000
0.000000
0.000000
0.000000
0.000000
0.000000
0.000000
0.000000
0.000000
0.000000
0.000000
0.000000
0.000000
0.000000
0.000000
0.000000
0.000000
0.000000
0.000000
0.000000
0.000000
0.000000
0.000000
0.000000
0.000000
0.000000
0.000000
0.000000
0.000000
0.000000
0.000000
0.000000
0.000000
0.000000

SCALARS u_y FLOAT 1
LOOKUP_TABLE default
0.000000
0.000000
0.000000
0.000000
0.000000
0.000000
0.000000
0.000000
0.000000
0.000000
0.000000
0.000000
0.000000
0.000000
0.000000
0.000000
0.000000
0.000000
0.000000
0.000000
0.000000
0.000000
0.000000
0.000000
0.000000
0.000000
0.000000
0.000000
0.000000
0.000000
0.000000
0.000000
0.000000
0.000000
0.000000
0.000000
0.000000
0.000000
0.000000
0.000000
0.000000
0.000000
0.000000
0.000000
0.000000
0.000000
0.000000
0.000000
0.000000
0.000000
0.000000
0.000000
0.000000
0.000000
0.000000
0.000000
0.000000
0.000000
0.000000
0.000000
0.000000
0.000000
0.000000
0.000000
0.000000
0.000000
0.000000
0.000000
0.000000
0.000000
0.000000
0.000000
0.000000
0.000000
0.000000
0.000000
0.000000
0.000000
0.000000
0.000000
0.000000
0.000000
0.000000
0.000000
0.000000
0.000000
0.000000
0.000000
0.000000
0.000000
0.000000
0.000000
0.000000
0.000000
0.000000
0.000000
0.000000
0.000000
0.000000
0.000000
0.000000
0.000000
0.000000
0.000000
0.000000
0.000000
0.000000
0.000000
0.000000
0.000000
0.000000
0.000000
0.000000
0.000000
0.000000
0.000000
0.000000
0.000000
0.000000
0.000000
0.000000
0.000000
0.000000
0.000000
0.000000
0.000000
0.000000
0.000000

SCALARS u_z FLOAT 1
LOOKUP_TABLE default
-0.540893
-1.622678
-0.540893
-1.622678
-0.540893
-1.622678
-0.540893
-1.622678
-2.701711
-3.771433
-2.701711
-3.771433
-2.701711
-3.771433
-2.701711
-3.771433
-4.831744
-5.880318
-4.831744
-5.880318
-4.831744
-5.880318
-4.831744
-5.880318
-6.917204
-7.943477
-6.917204
-7.943477
-6.917204
-7.943477
-6.917204
-7.943477
-8.959668
-9.964055
-8.959668
-9.964055
-8.959668
-9.964055
-8.959668
-9.964055
-10.955933
-11.933073
-10.955933
-11.933073
-10.955933
-11.933073
-10.955933
-11.933073
-12.895457
-13.843978
-12.895457
-13.843978
-12.895457
-13.843978
-12.895457
-13.843978
-14.776961
-15.691854
-14.776961
-15.691854
-14.776961
-15.691854
-14.776961
-15.691854
-16.588290
-17.464092
-16.588290
-17.464092
-16.588290
-17.464092
-16.588290
-17.464092
-18.319069
-19.151218
-18.319069
-19.151218
-18.319069
-19.151218
-18.319069
-19.151218
-19.956906
-20.732846
-19.956906
-20.732846
-19.956906
-20.732846
-19.956906
-20.732846
-21.480409
-22.196829
-21.480409
-22.196829
-21.480409
-22.196829
-21.480409
-22.196829
-22.875861
-23.507009
-22.875861
-23.507009
-22.875861
-23.507009
-22.875861
-23.507009
-24.088096
-24.619944
-24.088096
-24.619944
-24.088096
-24.619944
-24.088096
-24.619944
-25.092404
-25.461888
-25.092404
-25.461888
-25.092404
-25.461888
-25.092404
-25.461888
-25.756917
-25.997127
-25.756917
-25.997127
-25.756917
-25.997127
-25.756917
-25.997127

