# vtk DataFile Version 2.0
MATLAB generated vtk file, WMC
ASCII
DATASET UNSTRUCTURED_GRID
POINTS 128 double
0.781250 0.781250 0.346635 
0.781250 0.781250 1.039906 
0.781250 2.343750 0.346635 
0.781250 2.343750 1.039906 
2.343750 0.781250 0.346635 
2.343750 0.781250 1.039906 
2.343750 2.343750 0.346635 
2.343750 2.343750 1.039906 
0.781250 0.781250 1.737146 
0.781250 0.781250 2.447814 
0.781250 2.343750 1.737146 
0.781250 2.343750 2.447814 
2.343750 0.781250 1.737146 
2.343750 0.781250 2.447814 
2.343750 2.343750 1.737146 
2.343750 2.343750 2.447814 
0.781250 0.781250 3.171699 
0.781250 0.781250 3.907685 
0.781250 2.343750 3.171699 
0.781250 2.343750 3.907685 
2.343750 0.781250 3.171699 
2.343750 0.781250 3.907685 
2.343750 2.343750 3.171699 
2.343750 2.343750 3.907685 
0.781250 0.781250 4.653605 
0.781250 0.781250 5.412385 
0.781250 2.343750 4.653605 
0.781250 2.343750 5.412385 
2.343750 0.781250 4.653605 
2.343750 0.781250 5.412385 
2.343750 2.343750 4.653605 
2.343750 2.343750 5.412385 
0.781250 0.781250 6.185319 
0.781250 0.781250 6.972411 
0.781250 2.343750 6.185319 
0.781250 2.343750 6.972411 
2.343750 0.781250 6.185319 
2.343750 0.781250 6.972411 
2.343750 2.343750 6.185319 
2.343750 2.343750 6.972411 
0.781250 0.781250 7.772028 
0.781250 0.781250 8.587195 
0.781250 2.343750 7.772028 
0.781250 2.343750 8.587195 
2.343750 0.781250 7.772028 
2.343750 0.781250 8.587195 
2.343750 2.343750 7.772028 
2.343750 2.343750 8.587195 
0.781250 0.781250 9.418836 
0.781250 0.781250 10.266156 
0.781250 2.343750 9.418836 
0.781250 2.343750 10.266156 
2.343750 0.781250 9.418836 
2.343750 0.781250 10.266156 
2.343750 2.343750 9.418836 
2.343750 2.343750 10.266156 
0.781250 0.781250 11.130125 
0.781250 0.781250 12.013778 
0.781250 2.343750 11.130125 
0.781250 2.343750 12.013778 
2.343750 0.781250 11.130125 
2.343750 0.781250 12.013778 
2.343750 2.343750 11.130125 
2.343750 2.343750 12.013778 
0.781250 0.781250 12.917023 
0.781250 0.781250 13.840164 
0.781250 2.343750 12.917023 
0.781250 2.343750 13.840164 
2.343750 0.781250 12.917023 
2.343750 0.781250 13.840164 
2.343750 2.343750 12.917023 
2.343750 2.343750 13.840164 
0.781250 0.781250 14.785777 
0.781250 0.781250 15.755213 
0.781250 2.343750 14.785777 
0.781250 2.343750 15.755213 
2.343750 0.781250 14.785777 
2.343750 0.781250 15.755213 
2.343750 2.343750 14.785777 
2.343750 2.343750 15.755213 
0.781250 0.781250 16.748384 
0.781250 0.781250 17.768021 
0.781250 2.343750 16.748384 
0.781250 2.343750 17.768021 
2.343750 0.781250 16.748384 
2.343750 0.781250 17.768021 
2.343750 2.343750 16.748384 
2.343750 2.343750 17.768021 
0.781250 0.781250 18.817354 
0.781250 0.781250 19.896582 
0.781250 2.343750 18.817354 
0.781250 2.343750 19.896582 
2.343750 0.781250 18.817354 
2.343750 0.781250 19.896582 
2.343750 2.343750 18.817354 
2.343750 2.343750 19.896582 
0.781250 0.781250 21.009654 
0.781250 0.781250 22.160566 
0.781250 2.343750 21.009654 
0.781250 2.343750 22.160566 
2.343750 0.781250 21.009654 
2.343750 0.781250 22.160566 
2.343750 2.343750 21.009654 
2.343750 2.343750 22.160566 
0.781250 0.781250 23.350732 
0.781250 0.781250 24.584082 
0.781250 2.343750 23.350732 
0.781250 2.343750 24.584082 
2.343750 0.781250 23.350732 
2.343750 0.781250 24.584082 
2.343750 2.343750 23.350732 
2.343750 2.343750 24.584082 
0.781250 0.781250 25.867654 
0.781250 0.781250 27.215948 
0.781250 2.343750 25.867654 
0.781250 2.343750 27.215948 
2.343750 0.781250 25.867654 
2.343750 0.781250 27.215948 
2.343750 2.343750 25.867654 
2.343750 2.343750 27.215948 
0.781250 0.781250 28.608486 
0.781250 0.781250 30.046162 
0.781250 2.343750 28.608486 
0.781250 2.343750 30.046162 
2.343750 0.781250 28.608486 
2.343750 0.781250 30.046162 
2.343750 2.343750 28.608486 
2.343750 2.343750 30.046162 

POINT_DATA 128
SCALARS sigma_xx FLOAT 1
LOOKUP_TABLE default
-0.000000
-0.000000
0.000000
-0.000000
0.000000
0.000000
0.000000
-0.000000
-0.000000
-0.000000
0.000000
-0.000000
-0.000000
0.000000
0.000000
-0.000000
-0.000000
0.000000
-0.000000
0.000000
0.000000
-0.000000
0.000000
0.000000
-0.000000
-0.000000
0.000000
0.000000
-0.000000
0.000000
0.000000
0.000000
0.000000
-0.000000
0.000000
0.000000
-0.000000
-0.000000
-0.000000
0.000000
-0.000000
-0.000000
-0.000000
-0.000000
-0.000000
-0.000000
-0.000000
-0.000000
0.000000
-0.000000
-0.000000
-0.000000
0.000000
-0.000000
-0.000000
-0.000000
-0.000000
-0.000000
0.000000
-0.000000
-0.000000
-0.000000
-0.000000
-0.000000
0.000000
0.000000
-0.000000
-0.000000
-0.000000
-0.000000
-0.000000
-0.000000
-0.000000
-0.000000
-0.000000
-0.000000
-0.000000
0.000000
0.000000
0.000000
-0.000000
-0.000000
-0.000000
0.000000
-0.000000
-0.000000
0.000000
0.000000
0.000000
0.000000
0.000000
0.000000
0.000000
0.000000
0.000000
-0.000000
-0.000000
-0.000000
-0.000000
0.000000
0.000000
-0.000000
0.000000
0.000000
-0.000000
-0.000000
0.000000
-0.000000
-0.000000
0.000000
0.000000
-0.000000
0.000000
-0.000000
-0.000000
0.000000
-0.000000
0.000000
0.000000
-0.000000
-0.000000
-0.000000
-0.000000
-0.000000
0.000000
0.000000
-0.000000
0.000000

SCALARS sigma_yy FLOAT 1
LOOKUP_TABLE default
0.000000
-0.000000
0.000000
-0.000000
-0.000000
0.000000
-0.000000
0.000000
0.000000
0.000000
0.000000
-0.000000
-0.000000
0.000000
0.000000
-0.000000
-0.000000
0.000000
-0.000000
0.000000
0.000000
-0.000000
-0.000000
-0.000000
0.000000
-0.000000
0.000000
-0.000000
-0.000000
0.000000
0.000000
0.000000
0.000000
-0.000000
0.000000
-0.000000
-0.000000
-0.000000
-0.000000
-0.000000
-0.000000
-0.000000
-0.000000
0.000000
-0.000000
-0.000000
-0.000000
-0.000000
0.000000
-0.000000
0.000000
-0.000000
0.000000
0.000000
0.000000
0.000000
0.000000
0.000000
-0.000000
-0.000000
-0.000000
-0.000000
0.000000
0.000000
0.000000
-0.000000
0.000000
-0.000000
-0.000000
-0.000000
0.000000
-0.000000
-0.000000
0.000000
-0.000000
-0.000000
-0.000000
0.000000
0.000000
0.000000
0.000000
-0.000000
-0.000000
-0.000000
-0.000000
-0.000000
0.000000
0.000000
-0.000000
0.000000
-0.000000
-0.000000
0.000000
-0.000000
-0.000000
-0.000000
-0.000000
-0.000000
-0.000000
0.000000
0.000000
-0.000000
0.000000
0.000000
-0.000000
0.000000
0.000000
0.000000
0.000000
0.000000
0.000000
0.000000
0.000000
-0.000000
-0.000000
0.000000
-0.000000
0.000000
0.000000
-0.000000
-0.000000
0.000000
0.000000
-0.000000
0.000000
-0.000000
0.000000
0.000000

SCALARS sigma_zz FLOAT 1
LOOKUP_TABLE default
-18314.938583
-18314.938583
-18314.938583
-18314.938583
-18314.938583
-18314.938583
-18314.938583
-18314.938583
-17705.046373
-16995.177447
-17705.046373
-16995.177447
-17705.046373
-16995.177447
-17705.046373
-16995.177447
-16219.236541
-15781.876726
-16219.236541
-15781.876726
-16219.236541
-15781.876726
-16219.236541
-15781.876726
-15168.013708
-14580.306147
-15168.013708
-14580.306147
-15168.013708
-14580.306147
-15168.013708
-14580.306147
-13875.128144
-13387.420853
-13875.128144
-13387.420853
-13875.128144
-13387.420853
-13875.128144
-13387.420853
-12764.085297
-12179.845688
-12764.085297
-12179.845688
-12764.085297
-12179.845688
-12764.085297
-12179.845688
-11548.852164
-11021.982776
-11548.852164
-11021.982776
-11548.852164
-11021.982776
-11548.852164
-11021.982776
-10386.771500
-9794.455886
-10386.771500
-9794.455886
-10386.771500
-9794.455886
-10386.771500
-9794.455886
-9172.933834
-8636.413040
-9172.933834
-8636.413040
-9172.933834
-8636.413040
-9172.933834
-8636.413040
-7972.022588
-7421.226301
-7972.022588
-7421.226301
-7972.022588
-7421.226301
-7972.022588
-7421.226301
-6833.939999
-6239.601366
-6833.939999
-6239.601366
-6833.939999
-6239.601366
-6833.939999
-6239.601366
-5627.883763
-5082.660784
-5627.883763
-5082.660784
-5627.883763
-5082.660784
-5627.883763
-5082.660784
-4428.146647
-3885.385470
-4428.146647
-3885.385470
-4428.146647
-3885.385470
-4428.146647
-3885.385470
-3269.772690
-2721.808098
-3269.772690
-2721.808098
-3269.772690
-2721.808098
-3269.772690
-2721.808098
-2045.294818
-1462.107084
-2045.294818
-1462.107084
-2045.294818
-1462.107084
-2045.294818
-1462.107084
-1145.129121
-15.145240
-1145.129121
-15.145240
-1145.129121
-15.145240
-1145.129121
-15.145240

SCALARS sigma_xy FLOAT 1
LOOKUP_TABLE default
0.000000
-0.000000
0.000000
-0.000000
0.000000
0.000000
0.000000
0.000000
0.000000
0.000000
0.000000
0.000000
-0.000000
-0.000000
-0.000000
0.000000
0.000000
0.000000
0.000000
-0.000000
-0.000000
-0.000000
-0.000000
-0.000000
0.000000
0.000000
-0.000000
-0.000000
0.000000
-0.000000
-0.000000
0.000000
-0.000000
0.000000
-0.000000
-0.000000
-0.000000
0.000000
0.000000
0.000000
0.000000
0.000000
0.000000
-0.000000
0.000000
-0.000000
0.000000
-0.000000
0.000000
0.000000
0.000000
0.000000
0.000000
-0.000000
0.000000
-0.000000
0.000000
-0.000000
-0.000000
0.000000
0.000000
0.000000
0.000000
-0.000000
-0.000000
0.000000
0.000000
-0.000000
-0.000000
0.000000
0.000000
-0.000000
0.000000
0.000000
-0.000000
-0.000000
0.000000
0.000000
-0.000000
0.000000
0.000000
-0.000000
-0.000000
0.000000
-0.000000
-0.000000
-0.000000
-0.000000
0.000000
-0.000000
0.000000
-0.000000
0.000000
-0.000000
-0.000000
-0.000000
0.000000
-0.000000
0.000000
0.000000
-0.000000
0.000000
-0.000000
0.000000
0.000000
0.000000
0.000000
-0.000000
-0.000000
0.000000
-0.000000
-0.000000
0.000000
0.000000
-0.000000
0.000000
-0.000000
0.000000
0.000000
-0.000000
0.000000
0.000000
-0.000000
0.000000
-0.000000
0.000000
0.000000
-0.000000

SCALARS sigma_yz FLOAT 1
LOOKUP_TABLE default
0.000000
0.000000
0.000000
-0.000000
0.000000
0.000000
-0.000000
0.000000
-0.000000
0.000000
-0.000000
-0.000000
0.000000
-0.000000
-0.000000
-0.000000
-0.000000
0.000000
-0.000000
0.000000
-0.000000
-0.000000
0.000000
0.000000
-0.000000
-0.000000
0.000000
0.000000
-0.000000
0.000000
0.000000
0.000000
-0.000000
0.000000
0.000000
-0.000000
0.000000
-0.000000
-0.000000
0.000000
-0.000000
-0.000000
-0.000000
0.000000
-0.000000
-0.000000
-0.000000
0.000000
-0.000000
0.000000
-0.000000
0.000000
-0.000000
-0.000000
0.000000
0.000000
-0.000000
-0.000000
0.000000
0.000000
0.000000
0.000000
-0.000000
0.000000
0.000000
0.000000
0.000000
0.000000
0.000000
-0.000000
0.000000
0.000000
-0.000000
-0.000000
0.000000
0.000000
-0.000000
-0.000000
0.000000
0.000000
-0.000000
-0.000000
0.000000
0.000000
-0.000000
-0.000000
0.000000
0.000000
-0.000000
-0.000000
0.000000
-0.000000
-0.000000
0.000000
0.000000
0.000000
-0.000000
-0.000000
0.000000
0.000000
-0.000000
-0.000000
0.000000
0.000000
-0.000000
0.000000
0.000000
0.000000
-0.000000
-0.000000
0.000000
0.000000
-0.000000
-0.000000
0.000000
0.000000
-0.000000
-0.000000
0.000000
0.000000
-0.000000
-0.000000
-0.000000
0.000000
-0.000000
-0.000000
0.000000
0.000000

SCALARS sigma_zx FLOAT 1
LOOKUP_TABLE default
0.000000
0.000000
0.000000
0.000000
0.000000
0.000000
0.000000
0.000000
-0.000000
0.000000
0.000000
0.000000
-0.000000
-0.000000
0.000000
0.000000
-0.000000
-0.000000
0.000000
0.000000
-0.000000
-0.000000
0.000000
0.000000
-0.000000
-0.000000
-0.000000
-0.000000
-0.000000
-0.000000
0.000000
0.000000
-0.000000
0.000000
0.000000
0.000000
-0.000000
-0.000000
0.000000
0.000000
-0.000000
-0.000000
0.000000
-0.000000
0.000000
0.000000
0.000000
0.000000
-0.000000
-0.000000
0.000000
-0.000000
0.000000
-0.000000
0.000000
0.000000
-0.000000
-0.000000
0.000000
-0.000000
-0.000000
0.000000
0.000000
-0.000000
-0.000000
0.000000
-0.000000
-0.000000
0.000000
-0.000000
-0.000000
0.000000
-0.000000
-0.000000
0.000000
0.000000
0.000000
-0.000000
0.000000
0.000000
-0.000000
0.000000
-0.000000
-0.000000
-0.000000
0.000000
-0.000000
0.000000
-0.000000
-0.000000
-0.000000
-0.000000
0.000000
0.000000
-0.000000
0.000000
-0.000000
-0.000000
-0.000000
-0.000000
-0.000000
-0.000000
0.000000
0.000000
-0.000000
0.000000
0.000000
-0.000000
0.000000
0.000000
0.000000
0.000000
-0.000000
0.000000
-0.000000
-0.000000
0.000000
0.000000
0.000000
-0.000000
-0.000000
-0.000000
-0.000000
0.000000
0.000000
0.000000
0.000000
0.000000

SCALARS u_x FLOAT 1
LOOKUP_TABLE default
0.000000
0.000000
0.000000
0.000000
0.000000
0.000000
0.000000
0.000000
0.000000
0.000000
0.000000
0.000000
0.000000
0.000000
0.000000
0.000000
0.000000
0.000000
0.000000
0.000000
0.000000
0.000000
0.000000
0.000000
0.000000
0.000000
0.000000
0.000000
0.000000
0.000000
0.000000
0.000000
0.000000
0.000000
0.000000
0.000000
0.000000
0.000000
0.000000
0.000000
0.000000
0.000000
0.000000
0.000000
0.000000
0.000000
0.000000
0.000000
0.000000
0.000000
0.000000
0.000000
0.000000
0.000000
0.000000
0.000000
0.000000
0.000000
0.000000
0.000000
0.000000
0.000000
0.000000
0.000000
0.000000
0.000000
0.000000
0.000000
0.000000
0.000000
0.000000
0.000000
0.000000
0.000000
0.000000
0.000000
0.000000
0.000000
0.000000
0.000000
0.000000
0.000000
0.000000
0.000000
0.000000
0.000000
0.000000
0.000000
0.000000
0.000000
0.000000
0.000000
0.000000
0.000000
0.000000
0.000000
0.000000
0.000000
0.000000
0.000000
0.000000
0.000000
0.000000
0.000000
0.000000
0.000000
0.000000
0.000000
0.000000
0.000000
0.000000
0.000000
0.000000
0.000000
0.000000
0.000000
0.000000
0.000000
0.000000
0.000000
0.000000
0.000000
0.000000
0.000000
0.000000
0.000000
0.000000
0.000000

SCALARS u_y FLOAT 1
LOOKUP_TABLE default
0.000000
0.000000
0.000000
0.000000
0.000000
0.000000
0.000000
0.000000
0.000000
0.000000
0.000000
0.000000
0.000000
0.000000
0.000000
0.000000
0.000000
0.000000
0.000000
0.000000
0.000000
0.000000
0.000000
0.000000
0.000000
0.000000
0.000000
0.000000
0.000000
0.000000
0.000000
0.000000
0.000000
0.000000
0.000000
0.000000
0.000000
0.000000
0.000000
0.000000
0.000000
0.000000
0.000000
0.000000
0.000000
0.000000
0.000000
0.000000
0.000000
0.000000
0.000000
0.000000
0.000000
0.000000
0.000000
0.000000
0.000000
0.000000
0.000000
0.000000
0.000000
0.000000
0.000000
0.000000
0.000000
0.000000
0.000000
0.000000
0.000000
0.000000
0.000000
0.000000
0.000000
0.000000
0.000000
0.000000
0.000000
0.000000
0.000000
0.000000
0.000000
0.000000
0.000000
0.000000
0.000000
0.000000
0.000000
0.000000
0.000000
0.000000
0.000000
0.000000
0.000000
0.000000
0.000000
0.000000
0.000000
0.000000
0.000000
0.000000
0.000000
0.000000
0.000000
0.000000
0.000000
0.000000
0.000000
0.000000
0.000000
0.000000
0.000000
0.000000
0.000000
0.000000
0.000000
0.000000
0.000000
0.000000
0.000000
0.000000
0.000000
0.000000
0.000000
0.000000
0.000000
0.000000
0.000000
0.000000

SCALARS u_z FLOAT 1
LOOKUP_TABLE default
-0.434615
-1.303844
-0.434615
-1.303844
-0.434615
-1.303844
-0.434615
-1.303844
-2.169104
-3.020936
-2.169104
-3.020936
-2.169104
-3.020936
-2.169104
-3.020936
-3.859551
-4.686065
-3.859551
-4.686065
-3.859551
-4.686065
-3.859551
-4.686065
-5.502645
-6.306365
-5.502645
-6.306365
-5.502645
-6.306365
-5.502645
-6.306365
-7.095931
-7.871339
-7.095931
-7.871339
-7.095931
-7.871339
-7.095931
-7.871339
-8.634222
-9.381555
-8.634222
-9.381555
-8.634222
-9.381555
-8.634222
-9.381555
-10.112414
-10.827594
-10.112414
-10.827594
-10.112414
-10.827594
-10.112414
-10.827594
-11.526125
-12.204972
-11.526125
-12.204972
-11.526125
-12.204972
-11.526125
-12.204972
-12.864227
-13.503586
-12.864227
-13.503586
-12.864227
-13.503586
-12.864227
-13.503586
-14.120473
-14.713537
-14.120473
-14.713537
-14.120473
-14.713537
-14.120473
-14.713537
-15.282866
-15.825729
-15.282866
-15.825729
-15.282866
-15.825729
-15.282866
-15.825729
-16.338896
-16.822168
-16.338896
-16.822168
-16.338896
-16.822168
-16.338896
-16.822168
-17.271596
-17.683184
-17.271596
-17.683184
-17.271596
-17.683184
-17.271596
-17.683184
-18.055518
-18.384668
-18.055518
-18.384668
-18.055518
-18.384668
-18.055518
-18.384668
-18.663596
-18.877802
-18.663596
-18.877802
-18.663596
-18.877802
-18.663596
-18.877802
-19.047764
-19.172588
-19.047764
-19.172588
-19.047764
-19.172588
-19.047764
-19.172588

