# vtk DataFile Version 2.0
MATLAB generated vtk file, WMC
ASCII
DATASET UNSTRUCTURED_GRID
POINTS 128 double
0.781250 0.781250 0.257919 
0.781250 0.781250 0.773756 
0.781250 2.343750 0.257919 
0.781250 2.343750 0.773756 
2.343750 0.781250 0.257919 
2.343750 0.781250 0.773756 
2.343750 2.343750 0.257919 
2.343750 2.343750 0.773756 
0.781250 0.781250 1.292547 
0.781250 0.781250 1.821328 
0.781250 2.343750 1.292547 
0.781250 2.343750 1.821328 
2.343750 0.781250 1.292547 
2.343750 0.781250 1.821328 
2.343750 2.343750 1.292547 
2.343750 2.343750 1.821328 
0.781250 0.781250 2.360208 
0.781250 0.781250 2.911683 
0.781250 2.343750 2.360208 
0.781250 2.343750 2.911683 
2.343750 0.781250 2.360208 
2.343750 0.781250 2.911683 
2.343750 2.343750 2.360208 
2.343750 2.343750 2.911683 
0.781250 0.781250 3.474923 
0.781250 0.781250 4.048426 
0.781250 2.343750 3.474923 
0.781250 2.343750 4.048426 
2.343750 0.781250 3.474923 
2.343750 0.781250 4.048426 
2.343750 2.343750 3.474923 
2.343750 2.343750 4.048426 
0.781250 0.781250 4.632694 
0.781250 0.781250 5.229588 
0.781250 2.343750 4.632694 
0.781250 2.343750 5.229588 
2.343750 0.781250 4.632694 
2.343750 0.781250 5.229588 
2.343750 2.343750 4.632694 
2.343750 2.343750 5.229588 
0.781250 0.781250 5.839858 
0.781250 0.781250 6.465115 
0.781250 2.343750 5.839858 
0.781250 2.343750 6.465115 
2.343750 0.781250 5.839858 
2.343750 0.781250 6.465115 
2.343750 2.343750 5.839858 
2.343750 2.343750 6.465115 
0.781250 0.781250 7.103911 
0.781250 0.781250 7.757233 
0.781250 2.343750 7.103911 
0.781250 2.343750 7.757233 
2.343750 0.781250 7.103911 
2.343750 0.781250 7.757233 
2.343750 2.343750 7.103911 
2.343750 2.343750 7.757233 
0.781250 0.781250 8.427090 
0.781250 0.781250 9.116193 
0.781250 2.343750 8.427090 
0.781250 2.343750 9.116193 
2.343750 0.781250 8.427090 
2.343750 0.781250 9.116193 
2.343750 2.343750 8.427090 
2.343750 2.343750 9.116193 
0.781250 0.781250 9.824290 
0.781250 0.781250 10.551969 
0.781250 2.343750 9.824290 
0.781250 2.343750 10.551969 
2.343750 0.781250 9.824290 
2.343750 0.781250 10.551969 
2.343750 2.343750 9.824290 
2.343750 2.343750 10.551969 
0.781250 0.781250 11.301383 
0.781250 0.781250 12.074976 
0.781250 2.343750 11.301383 
0.781250 2.343750 12.074976 
2.343750 0.781250 11.301383 
2.343750 0.781250 12.074976 
2.343750 2.343750 11.301383 
2.343750 2.343750 12.074976 
0.781250 0.781250 12.874900 
0.781250 0.781250 13.701952 
0.781250 2.343750 12.874900 
0.781250 2.343750 13.701952 
2.343750 0.781250 12.874900 
2.343750 0.781250 13.701952 
2.343750 2.343750 12.874900 
2.343750 2.343750 13.701952 
0.781250 0.781250 14.558473 
0.781250 0.781250 15.447646 
0.781250 2.343750 14.558473 
0.781250 2.343750 15.447646 
2.343750 0.781250 14.558473 
2.343750 0.781250 15.447646 
2.343750 2.343750 14.558473 
2.343750 2.343750 15.447646 
0.781250 0.781250 16.374012 
0.781250 0.781250 17.344822 
0.781250 2.343750 16.374012 
0.781250 2.343750 17.344822 
2.343750 0.781250 16.374012 
2.343750 0.781250 17.344822 
2.343750 2.343750 16.374012 
2.343750 2.343750 17.344822 
0.781250 0.781250 18.367050 
0.781250 0.781250 19.437883 
0.781250 2.343750 18.367050 
0.781250 2.343750 19.437883 
2.343750 0.781250 18.367050 
2.343750 0.781250 19.437883 
2.343750 2.343750 18.367050 
2.343750 2.343750 19.437883 
0.781250 0.781250 20.564461 
0.781250 0.781250 21.796837 
0.781250 2.343750 20.564461 
0.781250 2.343750 21.796837 
2.343750 0.781250 20.564461 
2.343750 0.781250 21.796837 
2.343750 2.343750 20.564461 
2.343750 2.343750 21.796837 
0.781250 0.781250 23.097051 
0.781250 0.781250 24.441757 
0.781250 2.343750 23.097051 
0.781250 2.343750 24.441757 
2.343750 0.781250 23.097051 
2.343750 0.781250 24.441757 
2.343750 2.343750 23.097051 
2.343750 2.343750 24.441757 

POINT_DATA 128
SCALARS sigma_xx FLOAT 1
LOOKUP_TABLE default
-0.000000
-0.000000
0.000000
-0.000000
-0.000000
0.000000
-0.000000
-0.000000
-0.000000
-0.000000
0.000000
-0.000000
-0.000000
-0.000000
0.000000
-0.000000
-0.000000
0.000000
-0.000000
-0.000000
0.000000
-0.000000
-0.000000
0.000000
-0.000000
-0.000000
0.000000
0.000000
-0.000000
-0.000000
0.000000
0.000000
0.000000
-0.000000
0.000000
-0.000000
-0.000000
-0.000000
-0.000000
-0.000000
0.000000
-0.000000
-0.000000
0.000000
-0.000000
0.000000
-0.000000
0.000000
0.000000
-0.000000
-0.000000
-0.000000
0.000000
-0.000000
-0.000000
0.000000
-0.000000
-0.000000
0.000000
-0.000000
-0.000000
-0.000000
0.000000
0.000000
0.000000
0.000000
-0.000000
0.000000
-0.000000
-0.000000
-0.000000
-0.000000
-0.000000
0.000000
-0.000000
-0.000000
-0.000000
0.000000
0.000000
0.000000
0.000000
-0.000000
-0.000000
0.000000
0.000000
-0.000000
0.000000
0.000000
0.000000
-0.000000
0.000000
-0.000000
0.000000
0.000000
0.000000
-0.000000
-0.000000
0.000000
-0.000000
-0.000000
0.000000
0.000000
0.000000
0.000000
-0.000000
-0.000000
0.000000
-0.000000
-0.000000
0.000000
0.000000
0.000000
0.000000
-0.000000
-0.000000
-0.000000
-0.000000
0.000000
0.000000
0.000000
0.000000
-0.000000
-0.000000
-0.000000
0.000000
0.000000
-0.000000
0.000000

SCALARS sigma_yy FLOAT 1
LOOKUP_TABLE default
0.000000
-0.000000
-0.000000
0.000000
-0.000000
0.000000
-0.000000
0.000000
0.000000
0.000000
0.000000
-0.000000
-0.000000
0.000000
0.000000
0.000000
-0.000000
-0.000000
-0.000000
0.000000
0.000000
-0.000000
-0.000000
0.000000
-0.000000
-0.000000
-0.000000
-0.000000
0.000000
0.000000
-0.000000
-0.000000
0.000000
0.000000
0.000000
-0.000000
-0.000000
-0.000000
-0.000000
-0.000000
-0.000000
-0.000000
0.000000
0.000000
-0.000000
-0.000000
0.000000
0.000000
0.000000
0.000000
0.000000
-0.000000
0.000000
0.000000
-0.000000
0.000000
0.000000
-0.000000
-0.000000
-0.000000
-0.000000
-0.000000
-0.000000
-0.000000
0.000000
-0.000000
0.000000
-0.000000
-0.000000
-0.000000
0.000000
-0.000000
-0.000000
0.000000
0.000000
-0.000000
-0.000000
-0.000000
0.000000
-0.000000
0.000000
-0.000000
-0.000000
-0.000000
-0.000000
-0.000000
0.000000
-0.000000
-0.000000
-0.000000
-0.000000
-0.000000
-0.000000
-0.000000
0.000000
-0.000000
-0.000000
-0.000000
-0.000000
-0.000000
0.000000
-0.000000
0.000000
0.000000
-0.000000
-0.000000
0.000000
0.000000
-0.000000
0.000000
0.000000
0.000000
-0.000000
-0.000000
0.000000
0.000000
-0.000000
0.000000
0.000000
-0.000000
-0.000000
0.000000
0.000000
-0.000000
0.000000
-0.000000
-0.000000
0.000000

SCALARS sigma_zz FLOAT 1
LOOKUP_TABLE default
-33569.542705
-33569.542705
-33569.542705
-33569.542705
-33569.542705
-33569.542705
-33569.542705
-33569.542705
-32615.621442
-31503.881335
-32615.621442
-31503.881335
-32615.621442
-31503.881335
-32615.621442
-31503.881335
-30154.911791
-28904.680809
-30154.911791
-28904.680809
-30154.911791
-28904.680809
-30154.911791
-28904.680809
-27758.349036
-26854.385831
-27758.349036
-26854.385831
-27758.349036
-26854.385831
-27758.349036
-26854.385831
-25731.330267
-24675.146213
-25731.330267
-24675.146213
-25731.330267
-24675.146213
-25731.330267
-24675.146213
-23432.803451
-22400.341872
-23432.803451
-22400.341872
-23432.803451
-22400.341872
-23432.803451
-22400.341872
-21368.316646
-20342.847212
-21368.316646
-20342.847212
-21368.316646
-20342.847212
-21368.316646
-20342.847212
-19138.484617
-18023.277704
-19138.484617
-18023.277704
-19138.484617
-18023.277704
-19138.484617
-18023.277704
-16909.106318
-15914.107030
-16909.106318
-15914.107030
-16909.106318
-15914.107030
-16909.106318
-15914.107030
-14744.076973
-13640.101793
-14744.076973
-13640.101793
-14744.076973
-13640.101793
-14744.076973
-13640.101793
-12542.891942
-11491.927582
-12542.891942
-11491.927582
-12542.891942
-11491.927582
-12542.891942
-11491.927582
-10436.330481
-9391.183984
-10436.330481
-9391.183984
-10436.330481
-9391.183984
-10436.330481
-9391.183984
-8238.304008
-7079.632002
-8238.304008
-7079.632002
-8238.304008
-7079.632002
-8238.304008
-7079.632002
-5932.284417
-5130.312836
-5932.284417
-5130.312836
-5932.284417
-5130.312836
-5932.284417
-5130.312836
-3760.622304
-2526.569557
-3760.622304
-2526.569557
-3760.622304
-2526.569557
-3760.622304
-2526.569557
-2028.071189
-170.661013
-2028.071189
-170.661013
-2028.071189
-170.661013
-2028.071189
-170.661013

SCALARS sigma_xy FLOAT 1
LOOKUP_TABLE default
-0.000000
-0.000000
-0.000000
-0.000000
-0.000000
-0.000000
0.000000
0.000000
0.000000
-0.000000
0.000000
0.000000
-0.000000
-0.000000
0.000000
0.000000
-0.000000
-0.000000
0.000000
-0.000000
-0.000000
0.000000
-0.000000
-0.000000
-0.000000
0.000000
0.000000
0.000000
0.000000
0.000000
0.000000
0.000000
-0.000000
-0.000000
-0.000000
-0.000000
0.000000
0.000000
0.000000
0.000000
0.000000
-0.000000
0.000000
-0.000000
0.000000
-0.000000
0.000000
-0.000000
-0.000000
-0.000000
0.000000
0.000000
-0.000000
-0.000000
-0.000000
0.000000
0.000000
0.000000
-0.000000
0.000000
0.000000
0.000000
0.000000
-0.000000
0.000000
-0.000000
0.000000
0.000000
-0.000000
0.000000
0.000000
-0.000000
-0.000000
0.000000
-0.000000
-0.000000
-0.000000
-0.000000
-0.000000
0.000000
0.000000
-0.000000
-0.000000
-0.000000
0.000000
0.000000
0.000000
-0.000000
0.000000
-0.000000
-0.000000
-0.000000
0.000000
-0.000000
0.000000
-0.000000
0.000000
-0.000000
0.000000
0.000000
-0.000000
-0.000000
-0.000000
-0.000000
-0.000000
-0.000000
0.000000
-0.000000
-0.000000
0.000000
-0.000000
-0.000000
0.000000
0.000000
0.000000
0.000000
-0.000000
0.000000
0.000000
-0.000000
0.000000
0.000000
0.000000
0.000000
-0.000000
-0.000000
0.000000
0.000000

SCALARS sigma_yz FLOAT 1
LOOKUP_TABLE default
-0.000000
0.000000
-0.000000
-0.000000
0.000000
-0.000000
0.000000
-0.000000
-0.000000
0.000000
-0.000000
-0.000000
0.000000
-0.000000
-0.000000
-0.000000
-0.000000
0.000000
-0.000000
0.000000
-0.000000
-0.000000
-0.000000
0.000000
-0.000000
-0.000000
0.000000
0.000000
-0.000000
-0.000000
0.000000
0.000000
-0.000000
-0.000000
-0.000000
-0.000000
-0.000000
0.000000
-0.000000
0.000000
-0.000000
0.000000
0.000000
0.000000
-0.000000
-0.000000
0.000000
0.000000
-0.000000
0.000000
0.000000
0.000000
-0.000000
0.000000
0.000000
-0.000000
-0.000000
0.000000
0.000000
0.000000
-0.000000
0.000000
-0.000000
0.000000
0.000000
0.000000
0.000000
0.000000
0.000000
-0.000000
0.000000
0.000000
-0.000000
-0.000000
0.000000
0.000000
-0.000000
-0.000000
0.000000
0.000000
-0.000000
-0.000000
-0.000000
0.000000
-0.000000
0.000000
-0.000000
0.000000
-0.000000
-0.000000
0.000000
0.000000
-0.000000
0.000000
-0.000000
0.000000
-0.000000
-0.000000
0.000000
0.000000
-0.000000
-0.000000
0.000000
0.000000
-0.000000
0.000000
0.000000
0.000000
-0.000000
-0.000000
0.000000
0.000000
-0.000000
-0.000000
-0.000000
0.000000
-0.000000
-0.000000
0.000000
0.000000
-0.000000
-0.000000
0.000000
0.000000
-0.000000
-0.000000
0.000000
-0.000000

SCALARS sigma_zx FLOAT 1
LOOKUP_TABLE default
0.000000
0.000000
-0.000000
-0.000000
0.000000
0.000000
0.000000
0.000000
-0.000000
0.000000
-0.000000
0.000000
0.000000
0.000000
0.000000
0.000000
0.000000
-0.000000
0.000000
-0.000000
0.000000
0.000000
0.000000
0.000000
-0.000000
-0.000000
0.000000
0.000000
0.000000
-0.000000
0.000000
0.000000
-0.000000
0.000000
0.000000
0.000000
0.000000
0.000000
0.000000
0.000000
-0.000000
-0.000000
0.000000
-0.000000
0.000000
-0.000000
0.000000
-0.000000
-0.000000
-0.000000
-0.000000
-0.000000
-0.000000
-0.000000
-0.000000
-0.000000
-0.000000
0.000000
-0.000000
-0.000000
0.000000
0.000000
-0.000000
0.000000
0.000000
0.000000
0.000000
0.000000
0.000000
0.000000
0.000000
0.000000
-0.000000
-0.000000
0.000000
0.000000
0.000000
-0.000000
0.000000
0.000000
-0.000000
-0.000000
-0.000000
-0.000000
-0.000000
0.000000
-0.000000
0.000000
0.000000
-0.000000
-0.000000
-0.000000
0.000000
0.000000
-0.000000
0.000000
-0.000000
-0.000000
-0.000000
-0.000000
-0.000000
-0.000000
0.000000
0.000000
-0.000000
0.000000
0.000000
-0.000000
0.000000
0.000000
0.000000
0.000000
0.000000
0.000000
-0.000000
-0.000000
0.000000
0.000000
0.000000
0.000000
-0.000000
-0.000000
-0.000000
0.000000
0.000000
0.000000
0.000000
0.000000

SCALARS u_x FLOAT 1
LOOKUP_TABLE default
0.000000
0.000000
0.000000
0.000000
0.000000
0.000000
0.000000
0.000000
0.000000
0.000000
0.000000
0.000000
0.000000
0.000000
0.000000
0.000000
0.000000
0.000000
0.000000
0.000000
0.000000
0.000000
0.000000
0.000000
0.000000
0.000000
0.000000
0.000000
0.000000
0.000000
0.000000
0.000000
0.000000
0.000000
0.000000
0.000000
0.000000
0.000000
0.000000
0.000000
0.000000
0.000000
0.000000
0.000000
0.000000
0.000000
0.000000
0.000000
0.000000
0.000000
0.000000
0.000000
0.000000
0.000000
0.000000
0.000000
0.000000
0.000000
0.000000
0.000000
0.000000
0.000000
0.000000
0.000000
0.000000
0.000000
0.000000
0.000000
0.000000
0.000000
0.000000
0.000000
0.000000
0.000000
0.000000
0.000000
0.000000
0.000000
0.000000
0.000000
0.000000
0.000000
0.000000
0.000000
0.000000
0.000000
0.000000
0.000000
0.000000
0.000000
0.000000
0.000000
0.000000
0.000000
0.000000
0.000000
0.000000
0.000000
0.000000
0.000000
0.000000
0.000000
0.000000
0.000000
0.000000
0.000000
0.000000
0.000000
0.000000
0.000000
0.000000
0.000000
0.000000
0.000000
0.000000
0.000000
0.000000
0.000000
0.000000
0.000000
0.000000
0.000000
0.000000
0.000000
0.000000
0.000000
0.000000
0.000000

SCALARS u_y FLOAT 1
LOOKUP_TABLE default
0.000000
0.000000
0.000000
0.000000
0.000000
0.000000
0.000000
0.000000
0.000000
0.000000
0.000000
0.000000
0.000000
0.000000
0.000000
0.000000
0.000000
0.000000
0.000000
0.000000
0.000000
0.000000
0.000000
0.000000
0.000000
0.000000
0.000000
0.000000
0.000000
0.000000
0.000000
0.000000
0.000000
0.000000
0.000000
0.000000
0.000000
0.000000
0.000000
0.000000
0.000000
0.000000
0.000000
0.000000
0.000000
0.000000
0.000000
0.000000
0.000000
0.000000
0.000000
0.000000
0.000000
0.000000
0.000000
0.000000
0.000000
0.000000
0.000000
0.000000
0.000000
0.000000
0.000000
0.000000
0.000000
0.000000
0.000000
0.000000
0.000000
0.000000
0.000000
0.000000
0.000000
0.000000
0.000000
0.000000
0.000000
0.000000
0.000000
0.000000
0.000000
0.000000
0.000000
0.000000
0.000000
0.000000
0.000000
0.000000
0.000000
0.000000
0.000000
0.000000
0.000000
0.000000
0.000000
0.000000
0.000000
0.000000
0.000000
0.000000
0.000000
0.000000
0.000000
0.000000
0.000000
0.000000
0.000000
0.000000
0.000000
0.000000
0.000000
0.000000
0.000000
0.000000
0.000000
0.000000
0.000000
0.000000
0.000000
0.000000
0.000000
0.000000
0.000000
0.000000
0.000000
0.000000
0.000000
0.000000

SCALARS u_z FLOAT 1
LOOKUP_TABLE default
-0.523331
-1.569994
-0.523331
-1.569994
-0.523331
-1.569994
-0.523331
-1.569994
-2.613703
-3.647422
-2.613703
-3.647422
-2.613703
-3.647422
-2.613703
-3.647422
-4.671042
-5.682067
-4.671042
-5.682067
-4.671042
-5.682067
-4.671042
-5.682067
-6.681327
-7.670324
-6.681327
-7.670324
-6.681327
-7.670324
-6.681327
-7.670324
-8.648556
-9.614162
-8.648556
-9.614162
-8.648556
-9.614162
-8.648556
-9.614162
-10.566392
-11.503635
-10.566392
-11.503635
-10.566392
-11.503635
-10.566392
-11.503635
-12.427339
-13.336517
-12.427339
-13.336517
-12.427339
-13.336517
-12.427339
-13.336517
-14.229160
-15.102557
-14.229160
-15.102557
-14.229160
-15.102557
-14.229160
-15.102557
-15.956960
-16.791781
-15.956960
-16.791781
-15.956960
-16.791781
-15.956960
-16.791781
-17.604867
-18.393774
-17.604867
-18.393774
-17.604867
-18.393774
-17.604867
-18.393774
-19.156350
-19.891798
-19.156350
-19.891798
-19.156350
-19.891798
-19.156350
-19.891798
-20.597777
-21.271104
-20.597777
-21.271104
-20.597777
-21.271104
-20.597777
-21.271104
-21.907238
-22.498928
-21.907238
-22.498928
-21.907238
-22.498928
-21.907238
-22.498928
-23.039200
-23.530867
-23.039200
-23.530867
-23.039200
-23.530867
-23.039200
-23.530867
-23.966789
-24.296913
-23.966789
-24.296913
-23.966789
-24.296913
-23.966789
-24.296913
-24.559199
-24.776993
-24.559199
-24.776993
-24.559199
-24.776993
-24.559199
-24.776993

