# vtk DataFile Version 2.0
MATLAB generated vtk file, WMC
ASCII
DATASET UNSTRUCTURED_GRID
POINTS 256 double
0.195312 0.130999 0.000000 
0.195312 0.392998 0.000000 
0.585938 0.130999 0.000000 
0.585938 0.392998 0.000000 
0.195312 0.655358 0.000000 
0.195312 0.918688 0.000000 
0.585938 0.655358 0.000000 
0.585938 0.918688 0.000000 
0.195312 1.182408 0.000000 
0.195312 1.446810 0.000000 
0.585938 1.182408 0.000000 
0.585938 1.446810 0.000000 
0.195312 1.711858 0.000000 
0.195312 1.977449 0.000000 
0.585938 1.711858 0.000000 
0.585938 1.977449 0.000000 
0.195312 2.243656 0.000000 
0.195312 2.510559 0.000000 
0.585938 2.243656 0.000000 
0.585938 2.510559 0.000000 
0.195312 2.778009 0.000000 
0.195312 3.046111 0.000000 
0.585938 2.778009 0.000000 
0.585938 3.046111 0.000000 
0.195312 3.314851 0.000000 
0.195312 3.584250 0.000000 
0.585938 3.314851 0.000000 
0.585938 3.584250 0.000000 
0.195312 3.854318 0.000000 
0.195312 4.124913 0.000000 
0.585938 3.854318 0.000000 
0.585938 4.124913 0.000000 
0.195312 4.396097 0.000000 
0.195312 4.667947 0.000000 
0.585938 4.396097 0.000000 
0.585938 4.667947 0.000000 
0.195312 4.940540 0.000000 
0.195312 5.213807 0.000000 
0.585938 4.940540 0.000000 
0.585938 5.213807 0.000000 
0.195312 5.487817 0.000000 
0.195312 5.762340 0.000000 
0.585938 5.487817 0.000000 
0.585938 5.762340 0.000000 
0.195312 6.037601 0.000000 
0.195312 6.313484 0.000000 
0.585938 6.037601 0.000000 
0.585938 6.313484 0.000000 
0.195312 6.590097 0.000000 
0.195312 6.867346 0.000000 
0.585938 6.590097 0.000000 
0.585938 6.867346 0.000000 
0.195312 7.145352 0.000000 
0.195312 7.423969 0.000000 
0.585938 7.145352 0.000000 
0.585938 7.423969 0.000000 
0.195312 7.703375 0.000000 
0.195312 7.983481 0.000000 
0.585938 7.703375 0.000000 
0.585938 7.983481 0.000000 
0.195312 8.264201 0.000000 
0.195312 8.545734 0.000000 
0.585938 8.264201 0.000000 
0.585938 8.545734 0.000000 
0.195312 8.827866 0.000000 
0.195312 9.110911 0.000000 
0.585938 8.827866 0.000000 
0.585938 9.110911 0.000000 
0.195312 9.394441 0.000000 
0.195312 9.678880 0.000000 
0.585938 9.394441 0.000000 
0.585938 9.678880 0.000000 
0.195312 9.963926 0.000000 
0.195312 10.249906 0.000000 
0.585938 9.963926 0.000000 
0.585938 10.249906 0.000000 
0.195312 10.536532 0.000000 
0.195312 10.823911 0.000000 
0.585938 10.536532 0.000000 
0.585938 10.823911 0.000000 
0.195312 11.112121 0.000000 
0.195312 11.400854 0.000000 
0.585938 11.112121 0.000000 
0.585938 11.400854 0.000000 
0.195312 11.690670 0.000000 
0.195312 11.981034 0.000000 
0.585938 11.690670 0.000000 
0.585938 11.981034 0.000000 
0.195312 12.272504 0.000000 
0.195312 12.564574 0.000000 
0.585938 12.272504 0.000000 
0.585938 12.564574 0.000000 
0.195312 12.857313 0.000000 
0.195312 13.150943 0.000000 
0.585938 12.857313 0.000000 
0.585938 13.150943 0.000000 
0.195312 13.445219 0.000000 
0.195312 13.740601 0.000000 
0.585938 13.445219 0.000000 
0.585938 13.740601 0.000000 
0.195312 14.036712 0.000000 
0.195312 14.333569 0.000000 
0.585938 14.036712 0.000000 
0.585938 14.333569 0.000000 
0.195312 14.631364 0.000000 
0.195312 14.929781 0.000000 
0.585938 14.631364 0.000000 
0.585938 14.929781 0.000000 
0.195312 15.229419 0.000000 
0.195312 15.529680 0.000000 
0.585938 15.229419 0.000000 
0.585938 15.529680 0.000000 
0.195312 15.830848 0.000000 
0.195312 16.132785 0.000000 
0.585938 15.830848 0.000000 
0.585938 16.132785 0.000000 
0.195312 16.435504 0.000000 
0.195312 16.739329 0.000000 
0.585938 16.435504 0.000000 
0.585938 16.739329 0.000000 
0.195312 17.043966 0.000000 
0.195312 17.349544 0.000000 
0.585938 17.043966 0.000000 
0.585938 17.349544 0.000000 
0.195312 17.655956 0.000000 
0.195312 17.963277 0.000000 
0.585938 17.655956 0.000000 
0.585938 17.963277 0.000000 
0.195312 18.271677 0.000000 
0.195312 18.580961 0.000000 
0.585938 18.271677 0.000000 
0.585938 18.580961 0.000000 
0.195312 18.891123 0.000000 
0.195312 19.202137 0.000000 
0.585938 18.891123 0.000000 
0.585938 19.202137 0.000000 
0.195312 19.513949 0.000000 
0.195312 19.827042 0.000000 
0.585938 19.513949 0.000000 
0.585938 19.827042 0.000000 
0.195312 20.140901 0.000000 
0.195312 20.455951 0.000000 
0.585938 20.140901 0.000000 
0.585938 20.455951 0.000000 
0.195312 20.771718 0.000000 
0.195312 21.088762 0.000000 
0.585938 20.771718 0.000000 
0.585938 21.088762 0.000000 
0.195312 21.406618 0.000000 
0.195312 21.725529 0.000000 
0.585938 21.406618 0.000000 
0.585938 21.725529 0.000000 
0.195312 22.045468 0.000000 
0.195312 22.366547 0.000000 
0.585938 22.045468 0.000000 
0.585938 22.366547 0.000000 
0.195312 22.688509 0.000000 
0.195312 23.011524 0.000000 
0.585938 22.688509 0.000000 
0.585938 23.011524 0.000000 
0.195312 23.335541 0.000000 
0.195312 23.660756 0.000000 
0.585938 23.335541 0.000000 
0.585938 23.660756 0.000000 
0.195312 23.987000 0.000000 
0.195312 24.314401 0.000000 
0.585938 23.987000 0.000000 
0.585938 24.314401 0.000000 
0.195312 24.642943 0.000000 
0.195312 24.972414 0.000000 
0.585938 24.642943 0.000000 
0.585938 24.972414 0.000000 
0.195312 25.303062 0.000000 
0.195312 25.634675 0.000000 
0.585938 25.303062 0.000000 
0.585938 25.634675 0.000000 
0.195312 25.967739 0.000000 
0.195312 26.301662 0.000000 
0.585938 25.967739 0.000000 
0.585938 26.301662 0.000000 
0.195312 26.637148 0.000000 
0.195312 26.973486 0.000000 
0.585938 26.637148 0.000000 
0.585938 26.973486 0.000000 
0.195312 27.311315 0.000000 
0.195312 27.649989 0.000000 
0.585938 27.311315 0.000000 
0.585938 27.649989 0.000000 
0.195312 27.990089 0.000000 
0.195312 28.331168 0.000000 
0.585938 27.990089 0.000000 
0.585938 28.331168 0.000000 
0.195312 28.673686 0.000000 
0.195312 29.017307 0.000000 
0.585938 28.673686 0.000000 
0.585938 29.017307 0.000000 
0.195312 29.362334 0.000000 
0.195312 29.708579 0.000000 
0.585938 29.362334 0.000000 
0.585938 29.708579 0.000000 
0.195312 30.056164 0.000000 
0.195312 30.405077 0.000000 
0.585938 30.056164 0.000000 
0.585938 30.405077 0.000000 
0.195312 30.755299 0.000000 
0.195312 31.106867 0.000000 
0.585938 30.755299 0.000000 
0.585938 31.106867 0.000000 
0.195312 31.459679 0.000000 
0.195312 31.813907 0.000000 
0.585938 31.459679 0.000000 
0.585938 31.813907 0.000000 
0.195312 32.169487 0.000000 
0.195312 32.526520 0.000000 
0.585938 32.169487 0.000000 
0.585938 32.526520 0.000000 
0.195312 32.884898 0.000000 
0.195312 33.244824 0.000000 
0.585938 32.884898 0.000000 
0.585938 33.244824 0.000000 
0.195312 33.606078 0.000000 
0.195312 33.968927 0.000000 
0.585938 33.606078 0.000000 
0.585938 33.968927 0.000000 
0.195312 34.333124 0.000000 
0.195312 34.698966 0.000000 
0.585938 34.333124 0.000000 
0.585938 34.698966 0.000000 
0.195312 35.066176 0.000000 
0.195312 35.435079 0.000000 
0.585938 35.066176 0.000000 
0.585938 35.435079 0.000000 
0.195312 35.805374 0.000000 
0.195312 36.177408 0.000000 
0.585938 35.805374 0.000000 
0.585938 36.177408 0.000000 
0.195312 36.550865 0.000000 
0.195312 36.926107 0.000000 
0.585938 36.550865 0.000000 
0.585938 36.926107 0.000000 
0.195312 37.302773 0.000000 
0.195312 37.681237 0.000000 
0.585938 37.302773 0.000000 
0.585938 37.681237 0.000000 
0.195312 38.061205 0.000000 
0.195312 38.443053 0.000000 
0.585938 38.061205 0.000000 
0.585938 38.443053 0.000000 
0.195312 38.826455 0.000000 
0.195312 39.211886 0.000000 
0.585938 38.826455 0.000000 
0.585938 39.211886 0.000000 
0.195312 39.598956 0.000000 
0.195312 39.987813 0.000000 
0.585938 39.598956 0.000000 
0.585938 39.987813 0.000000 

POINT_DATA 256
SCALARS sigma_xx FLOAT 1
LOOKUP_TABLE default
0.000000
0.000000
0.000000
0.000000
-0.000000
0.000000
-0.000000
0.000000
0.000000
0.000000
0.000000
0.000000
0.000000
-0.000000
0.000000
-0.000000
0.000000
0.000000
0.000000
0.000000
0.000000
0.000000
0.000000
0.000000
0.000000
0.000000
0.000000
0.000000
0.000000
0.000000
0.000000
0.000000
0.000000
0.000000
0.000000
0.000000
0.000000
0.000000
0.000000
0.000000
-0.000000
0.000000
-0.000000
0.000000
0.000000
0.000000
0.000000
0.000000
0.000000
0.000000
0.000000
0.000000
-0.000000
0.000000
-0.000000
0.000000
-0.000000
-0.000000
-0.000000
-0.000000
0.000000
-0.000000
0.000000
-0.000000
0.000000
-0.000000
0.000000
-0.000000
-0.000000
-0.000000
-0.000000
-0.000000
0.000000
0.000000
0.000000
0.000000
0.000000
0.000000
0.000000
0.000000
0.000000
-0.000000
0.000000
0.000000
-0.000000
0.000000
-0.000000
0.000000
-0.000000
0.000000
-0.000000
0.000000
-0.000000
-0.000000
-0.000000
-0.000000
-0.000000
0.000000
-0.000000
0.000000
-0.000000
-0.000000
-0.000000
-0.000000
0.000000
-0.000000
0.000000
-0.000000
-0.000000
-0.000000
-0.000000
-0.000000
0.000000
0.000000
0.000000
0.000000
-0.000000
-0.000000
-0.000000
-0.000000
-0.000000
-0.000000
-0.000000
-0.000000
-0.000000
-0.000000
-0.000000
-0.000000
0.000000
-0.000000
0.000000
-0.000000
-0.000000
-0.000000
-0.000000
-0.000000
0.000000
-0.000000
0.000000
-0.000000
-0.000000
0.000000
-0.000000
0.000000
-0.000000
0.000000
-0.000000
0.000000
-0.000000
0.000000
-0.000000
0.000000
-0.000000
0.000000
-0.000000
0.000000
-0.000000
-0.000000
-0.000000
-0.000000
-0.000000
0.000000
-0.000000
0.000000
0.000000
-0.000000
0.000000
-0.000000
0.000000
-0.000000
0.000000
-0.000000
-0.000000
-0.000000
-0.000000
-0.000000
-0.000000
-0.000000
-0.000000
-0.000000
0.000000
0.000000
0.000000
0.000000
-0.000000
-0.000000
-0.000000
-0.000000
-0.000000
-0.000000
-0.000000
-0.000000
-0.000000
-0.000000
-0.000000
-0.000000
-0.000000
-0.000000
0.000000
-0.000000
-0.000000
-0.000000
-0.000000
-0.000000
-0.000000
-0.000000
-0.000000
-0.000000
0.000000
-0.000000
0.000000
-0.000000
-0.000000
0.000000
-0.000000
0.000000
-0.000000
-0.000000
-0.000000
-0.000000
-0.000000
0.000000
-0.000000
0.000000
-0.000000
0.000000
-0.000000
0.000000
-0.000000
-0.000000
-0.000000
-0.000000
-0.000000
-0.000000
-0.000000
-0.000000
-0.000000
0.000000
-0.000000
0.000000
0.000000
0.000000
0.000000
0.000000
-0.000000
-0.000000
-0.000000
-0.000000
-0.000000
-0.000000
-0.000000
-0.000000
0.000000
-0.000000
0.000000
-0.000000

SCALARS sigma_yy FLOAT 1
LOOKUP_TABLE default
-5954.931634
-5954.931634
-5954.931634
-5954.931634
-5879.558864
-5837.848067
-5879.558864
-5837.848067
-5791.252193
-5742.361500
-5791.252193
-5742.361500
-5691.421940
-5655.714116
-5691.421940
-5655.714116
-5595.401649
-5557.159552
-5595.401649
-5557.159552
-5506.876225
-5462.726857
-5506.876225
-5462.726857
-5409.011195
-5367.231868
-5409.011195
-5367.231868
-5312.857028
-5282.675432
-5312.857028
-5282.675432
-5228.681767
-5186.172655
-5228.681767
-5186.172655
-5126.994847
-5086.738068
-5126.994847
-5086.738068
-5032.528580
-4998.501721
-5032.528580
-4998.501721
-4936.855341
-4908.241609
-4936.855341
-4908.241609
-4845.952955
-4812.121603
-4845.952955
-4812.121603
-4747.757727
-4721.526655
-4747.757727
-4721.526655
-4650.591445
-4628.305707
-4650.591445
-4628.305707
-4560.255446
-4532.031511
-4560.255446
-4532.031511
-4471.010116
-4432.602287
-4471.010116
-4432.602287
-4384.019242
-4339.358405
-4384.019242
-4339.358405
-4289.570020
-4237.883291
-4289.570020
-4237.883291
-4196.687776
-4143.850110
-4196.687776
-4143.850110
-4105.869405
-4059.030378
-4105.869405
-4059.030378
-4001.860285
-3966.243591
-4001.860285
-3966.243591
-3894.114809
-3879.338483
-3894.114809
-3879.338483
-3813.598069
-3785.717800
-3813.598069
-3785.717800
-3724.717697
-3676.168607
-3724.717697
-3676.168607
-3633.033119
-3586.195514
-3633.033119
-3586.195514
-3538.757187
-3498.349308
-3538.757187
-3498.349308
-3430.651800
-3409.965258
-3430.651800
-3409.965258
-3339.869445
-3321.863911
-3339.869445
-3321.863911
-3250.726756
-3217.040753
-3250.726756
-3217.040753
-3156.914854
-3122.607380
-3156.914854
-3122.607380
-3066.209742
-3028.719499
-3066.209742
-3028.719499
-2963.454849
-2934.757866
-2963.454849
-2934.757866
-2874.938443
-2852.016042
-2874.938443
-2852.016042
-2782.666377
-2748.706617
-2782.666377
-2748.706617
-2688.194311
-2654.082202
-2688.194311
-2654.082202
-2599.774590
-2553.481605
-2599.774590
-2553.481605
-2508.902640
-2462.406797
-2508.902640
-2462.406797
-2409.897993
-2364.876678
-2409.897993
-2364.876678
-2322.853387
-2275.635277
-2322.853387
-2275.635277
-2228.800765
-2177.019355
-2228.800765
-2177.019355
-2134.398693
-2079.606156
-2134.398693
-2079.606156
-2039.693574
-1991.894684
-2039.693574
-1991.894684
-1950.154435
-1898.662145
-1950.154435
-1898.662145
-1850.812883
-1806.544410
-1850.812883
-1806.544410
-1750.658470
-1714.826124
-1750.658470
-1714.826124
-1655.388712
-1627.252526
-1655.388712
-1627.252526
-1562.646073
-1536.407848
-1562.646073
-1536.407848
-1467.160267
-1441.947820
-1467.160267
-1441.947820
-1372.288444
-1346.412290
-1372.288444
-1346.412290
-1278.700949
-1249.987399
-1278.700949
-1249.987399
-1185.994713
-1156.562975
-1185.994713
-1156.562975
-1095.483580
-1062.665679
-1095.483580
-1062.665679
-1000.403589
-968.829402
-1000.403589
-968.829402
-906.361265
-873.533788
-906.361265
-873.533788
-813.356225
-778.869133
-813.356225
-778.869133
-720.132023
-684.280259
-720.132023
-684.280259
-626.921483
-589.886004
-626.921483
-589.886004
-533.684523
-495.648273
-533.684523
-495.648273
-440.425152
-401.557865
-440.425152
-401.557865
-348.907850
-308.559319
-348.907850
-308.559319
-255.783496
-213.903856
-255.783496
-213.903856
-161.081459
-115.316048
-161.081459
-115.316048
-65.871164
-30.498691
-65.871164
-30.498691

SCALARS sigma_zz FLOAT 1
LOOKUP_TABLE default
0.000000
0.000000
0.000000
0.000000
0.000000
0.000000
0.000000
0.000000
0.000000
0.000000
0.000000
0.000000
0.000000
0.000000
0.000000
0.000000
0.000000
0.000000
0.000000
0.000000
0.000000
0.000000
0.000000
0.000000
0.000000
0.000000
0.000000
0.000000
0.000000
0.000000
0.000000
0.000000
0.000000
0.000000
0.000000
0.000000
0.000000
0.000000
0.000000
0.000000
0.000000
0.000000
0.000000
0.000000
0.000000
0.000000
0.000000
0.000000
0.000000
0.000000
0.000000
0.000000
0.000000
0.000000
0.000000
0.000000
0.000000
0.000000
0.000000
0.000000
0.000000
0.000000
0.000000
0.000000
0.000000
0.000000
0.000000
0.000000
0.000000
0.000000
0.000000
0.000000
0.000000
0.000000
0.000000
0.000000
0.000000
0.000000
0.000000
0.000000
0.000000
0.000000
0.000000
0.000000
0.000000
0.000000
0.000000
0.000000
0.000000
0.000000
0.000000
0.000000
0.000000
0.000000
0.000000
0.000000
0.000000
0.000000
0.000000
0.000000
0.000000
0.000000
0.000000
0.000000
0.000000
0.000000
0.000000
0.000000
0.000000
0.000000
0.000000
0.000000
0.000000
0.000000
0.000000
0.000000
0.000000
0.000000
0.000000
0.000000
0.000000
0.000000
0.000000
0.000000
0.000000
0.000000
0.000000
0.000000
0.000000
0.000000
0.000000
0.000000
0.000000
0.000000
0.000000
0.000000
0.000000
0.000000
0.000000
0.000000
0.000000
0.000000
0.000000
0.000000
0.000000
0.000000
0.000000
0.000000
0.000000
0.000000
0.000000
0.000000
0.000000
0.000000
0.000000
0.000000
0.000000
0.000000
0.000000
0.000000
0.000000
0.000000
0.000000
0.000000
0.000000
0.000000
0.000000
0.000000
0.000000
0.000000
0.000000
0.000000
0.000000
0.000000
0.000000
0.000000
0.000000
0.000000
0.000000
0.000000
0.000000
0.000000
0.000000
0.000000
0.000000
0.000000
0.000000
0.000000
0.000000
0.000000
0.000000
0.000000
0.000000
0.000000
0.000000
0.000000
0.000000
0.000000
0.000000
0.000000
0.000000
0.000000
0.000000
0.000000
0.000000
0.000000
0.000000
0.000000
0.000000
0.000000
0.000000
0.000000
0.000000
0.000000
0.000000
0.000000
0.000000
0.000000
0.000000
0.000000
0.000000
0.000000
0.000000
0.000000
0.000000
0.000000
0.000000
0.000000
0.000000
0.000000
0.000000
0.000000
0.000000
0.000000
0.000000
0.000000
0.000000
0.000000
0.000000
0.000000
0.000000
0.000000
0.000000
0.000000
0.000000
0.000000
0.000000
0.000000
0.000000
0.000000
0.000000
0.000000
0.000000
0.000000
0.000000
0.000000

SCALARS sigma_xy FLOAT 1
LOOKUP_TABLE default
0.000000
0.000000
0.000000
0.000000
0.000000
0.000000
0.000000
0.000000
0.000000
0.000000
0.000000
0.000000
0.000000
0.000000
0.000000
0.000000
0.000000
0.000000
0.000000
0.000000
0.000000
0.000000
0.000000
0.000000
0.000000
0.000000
0.000000
0.000000
0.000000
0.000000
0.000000
0.000000
0.000000
0.000000
0.000000
0.000000
0.000000
0.000000
0.000000
0.000000
-0.000000
0.000000
-0.000000
0.000000
0.000000
0.000000
0.000000
0.000000
0.000000
0.000000
0.000000
0.000000
-0.000000
0.000000
-0.000000
0.000000
0.000000
0.000000
0.000000
0.000000
0.000000
-0.000000
0.000000
-0.000000
0.000000
0.000000
0.000000
0.000000
0.000000
-0.000000
0.000000
-0.000000
0.000000
0.000000
0.000000
0.000000
0.000000
0.000000
0.000000
0.000000
0.000000
-0.000000
0.000000
0.000000
0.000000
0.000000
0.000000
0.000000
-0.000000
0.000000
-0.000000
0.000000
0.000000
0.000000
0.000000
0.000000
0.000000
0.000000
0.000000
0.000000
-0.000000
-0.000000
-0.000000
-0.000000
0.000000
0.000000
0.000000
0.000000
0.000000
0.000000
0.000000
0.000000
0.000000
0.000000
0.000000
0.000000
-0.000000
-0.000000
-0.000000
-0.000000
0.000000
0.000000
0.000000
0.000000
0.000000
0.000000
0.000000
0.000000
0.000000
-0.000000
0.000000
-0.000000
-0.000000
-0.000000
-0.000000
-0.000000
0.000000
-0.000000
0.000000
-0.000000
0.000000
0.000000
0.000000
0.000000
0.000000
0.000000
0.000000
0.000000
-0.000000
0.000000
-0.000000
0.000000
-0.000000
0.000000
-0.000000
0.000000
-0.000000
-0.000000
-0.000000
-0.000000
-0.000000
0.000000
-0.000000
0.000000
0.000000
-0.000000
0.000000
-0.000000
0.000000
0.000000
0.000000
0.000000
0.000000
-0.000000
0.000000
-0.000000
-0.000000
-0.000000
-0.000000
-0.000000
0.000000
0.000000
0.000000
0.000000
0.000000
0.000000
0.000000
0.000000
0.000000
0.000000
0.000000
0.000000
0.000000
0.000000
0.000000
0.000000
0.000000
0.000000
0.000000
0.000000
-0.000000
-0.000000
-0.000000
-0.000000
0.000000
-0.000000
0.000000
-0.000000
0.000000
0.000000
0.000000
0.000000
0.000000
0.000000
0.000000
0.000000
0.000000
0.000000
0.000000
0.000000
-0.000000
0.000000
-0.000000
0.000000
-0.000000
0.000000
-0.000000
0.000000
0.000000
0.000000
0.000000
0.000000
0.000000
-0.000000
0.000000
-0.000000
-0.000000
0.000000
-0.000000
0.000000
0.000000
0.000000
0.000000
0.000000
-0.000000
0.000000
-0.000000
0.000000
0.000000
0.000000
0.000000
0.000000
0.000000
-0.000000
0.000000
-0.000000

SCALARS sigma_yz FLOAT 1
LOOKUP_TABLE default
0.000000
0.000000
0.000000
0.000000
0.000000
0.000000
0.000000
0.000000
0.000000
0.000000
0.000000
0.000000
0.000000
0.000000
0.000000
0.000000
0.000000
0.000000
0.000000
0.000000
0.000000
0.000000
0.000000
0.000000
0.000000
0.000000
0.000000
0.000000
0.000000
0.000000
0.000000
0.000000
0.000000
0.000000
0.000000
0.000000
0.000000
0.000000
0.000000
0.000000
0.000000
0.000000
0.000000
0.000000
0.000000
0.000000
0.000000
0.000000
0.000000
0.000000
0.000000
0.000000
0.000000
0.000000
0.000000
0.000000
0.000000
0.000000
0.000000
0.000000
0.000000
0.000000
0.000000
0.000000
0.000000
0.000000
0.000000
0.000000
0.000000
0.000000
0.000000
0.000000
0.000000
0.000000
0.000000
0.000000
0.000000
0.000000
0.000000
0.000000
0.000000
0.000000
0.000000
0.000000
0.000000
0.000000
0.000000
0.000000
0.000000
0.000000
0.000000
0.000000
0.000000
0.000000
0.000000
0.000000
0.000000
0.000000
0.000000
0.000000
0.000000
0.000000
0.000000
0.000000
0.000000
0.000000
0.000000
0.000000
0.000000
0.000000
0.000000
0.000000
0.000000
0.000000
0.000000
0.000000
0.000000
0.000000
0.000000
0.000000
0.000000
0.000000
0.000000
0.000000
0.000000
0.000000
0.000000
0.000000
0.000000
0.000000
0.000000
0.000000
0.000000
0.000000
0.000000
0.000000
0.000000
0.000000
0.000000
0.000000
0.000000
0.000000
0.000000
0.000000
0.000000
0.000000
0.000000
0.000000
0.000000
0.000000
0.000000
0.000000
0.000000
0.000000
0.000000
0.000000
0.000000
0.000000
0.000000
0.000000
0.000000
0.000000
0.000000
0.000000
0.000000
0.000000
0.000000
0.000000
0.000000
0.000000
0.000000
0.000000
0.000000
0.000000
0.000000
0.000000
0.000000
0.000000
0.000000
0.000000
0.000000
0.000000
0.000000
0.000000
0.000000
0.000000
0.000000
0.000000
0.000000
0.000000
0.000000
0.000000
0.000000
0.000000
0.000000
0.000000
0.000000
0.000000
0.000000
0.000000
0.000000
0.000000
0.000000
0.000000
0.000000
0.000000
0.000000
0.000000
0.000000
0.000000
0.000000
0.000000
0.000000
0.000000
0.000000
0.000000
0.000000
0.000000
0.000000
0.000000
0.000000
0.000000
0.000000
0.000000
0.000000
0.000000
0.000000
0.000000
0.000000
0.000000
0.000000
0.000000
0.000000
0.000000
0.000000
0.000000
0.000000
0.000000
0.000000
0.000000
0.000000
0.000000
0.000000
0.000000
0.000000
0.000000
0.000000
0.000000
0.000000
0.000000
0.000000
0.000000
0.000000
0.000000
0.000000
0.000000

SCALARS sigma_zx FLOAT 1
LOOKUP_TABLE default
0.000000
0.000000
0.000000
0.000000
0.000000
0.000000
0.000000
0.000000
0.000000
0.000000
0.000000
0.000000
0.000000
0.000000
0.000000
0.000000
0.000000
0.000000
0.000000
0.000000
0.000000
0.000000
0.000000
0.000000
0.000000
0.000000
0.000000
0.000000
0.000000
0.000000
0.000000
0.000000
0.000000
0.000000
0.000000
0.000000
0.000000
0.000000
0.000000
0.000000
0.000000
0.000000
0.000000
0.000000
0.000000
0.000000
0.000000
0.000000
0.000000
0.000000
0.000000
0.000000
0.000000
0.000000
0.000000
0.000000
0.000000
0.000000
0.000000
0.000000
0.000000
0.000000
0.000000
0.000000
0.000000
0.000000
0.000000
0.000000
0.000000
0.000000
0.000000
0.000000
0.000000
0.000000
0.000000
0.000000
0.000000
0.000000
0.000000
0.000000
0.000000
0.000000
0.000000
0.000000
0.000000
0.000000
0.000000
0.000000
0.000000
0.000000
0.000000
0.000000
0.000000
0.000000
0.000000
0.000000
0.000000
0.000000
0.000000
0.000000
0.000000
0.000000
0.000000
0.000000
0.000000
0.000000
0.000000
0.000000
0.000000
0.000000
0.000000
0.000000
0.000000
0.000000
0.000000
0.000000
0.000000
0.000000
0.000000
0.000000
0.000000
0.000000
0.000000
0.000000
0.000000
0.000000
0.000000
0.000000
0.000000
0.000000
0.000000
0.000000
0.000000
0.000000
0.000000
0.000000
0.000000
0.000000
0.000000
0.000000
0.000000
0.000000
0.000000
0.000000
0.000000
0.000000
0.000000
0.000000
0.000000
0.000000
0.000000
0.000000
0.000000
0.000000
0.000000
0.000000
0.000000
0.000000
0.000000
0.000000
0.000000
0.000000
0.000000
0.000000
0.000000
0.000000
0.000000
0.000000
0.000000
0.000000
0.000000
0.000000
0.000000
0.000000
0.000000
0.000000
0.000000
0.000000
0.000000
0.000000
0.000000
0.000000
0.000000
0.000000
0.000000
0.000000
0.000000
0.000000
0.000000
0.000000
0.000000
0.000000
0.000000
0.000000
0.000000
0.000000
0.000000
0.000000
0.000000
0.000000
0.000000
0.000000
0.000000
0.000000
0.000000
0.000000
0.000000
0.000000
0.000000
0.000000
0.000000
0.000000
0.000000
0.000000
0.000000
0.000000
0.000000
0.000000
0.000000
0.000000
0.000000
0.000000
0.000000
0.000000
0.000000
0.000000
0.000000
0.000000
0.000000
0.000000
0.000000
0.000000
0.000000
0.000000
0.000000
0.000000
0.000000
0.000000
0.000000
0.000000
0.000000
0.000000
0.000000
0.000000
0.000000
0.000000
0.000000
0.000000
0.000000
0.000000
0.000000
0.000000
0.000000
0.000000
0.000000
0.000000

SCALARS u_x FLOAT 1
LOOKUP_TABLE default
0.000000
0.000000
0.000000
0.000000
0.000000
0.000000
0.000000
0.000000
0.000000
0.000000
0.000000
0.000000
0.000000
0.000000
0.000000
0.000000
0.000000
0.000000
0.000000
0.000000
0.000000
0.000000
0.000000
0.000000
0.000000
0.000000
0.000000
0.000000
0.000000
0.000000
0.000000
0.000000
0.000000
0.000000
0.000000
0.000000
0.000000
0.000000
0.000000
0.000000
0.000000
0.000000
0.000000
0.000000
0.000000
0.000000
0.000000
0.000000
0.000000
0.000000
0.000000
0.000000
0.000000
0.000000
0.000000
0.000000
0.000000
0.000000
0.000000
0.000000
0.000000
0.000000
0.000000
0.000000
0.000000
0.000000
0.000000
0.000000
0.000000
0.000000
0.000000
0.000000
0.000000
0.000000
0.000000
0.000000
0.000000
0.000000
0.000000
0.000000
0.000000
0.000000
0.000000
0.000000
0.000000
0.000000
0.000000
0.000000
0.000000
0.000000
0.000000
0.000000
0.000000
0.000000
0.000000
0.000000
0.000000
0.000000
0.000000
0.000000
0.000000
0.000000
0.000000
0.000000
0.000000
0.000000
0.000000
0.000000
0.000000
0.000000
0.000000
0.000000
0.000000
0.000000
0.000000
0.000000
0.000000
0.000000
0.000000
0.000000
0.000000
0.000000
0.000000
0.000000
0.000000
0.000000
0.000000
0.000000
0.000000
0.000000
0.000000
0.000000
0.000000
0.000000
0.000000
0.000000
0.000000
0.000000
0.000000
0.000000
0.000000
0.000000
0.000000
0.000000
0.000000
0.000000
0.000000
0.000000
0.000000
0.000000
0.000000
0.000000
0.000000
0.000000
0.000000
0.000000
0.000000
0.000000
0.000000
0.000000
0.000000
0.000000
0.000000
0.000000
0.000000
0.000000
0.000000
0.000000
0.000000
0.000000
0.000000
0.000000
0.000000
0.000000
0.000000
0.000000
0.000000
0.000000
0.000000
0.000000
0.000000
0.000000
0.000000
0.000000
0.000000
0.000000
0.000000
0.000000
0.000000
0.000000
0.000000
0.000000
0.000000
0.000000
0.000000
0.000000
0.000000
0.000000
0.000000
0.000000
0.000000
0.000000
0.000000
0.000000
0.000000
0.000000
0.000000
0.000000
0.000000
0.000000
0.000000
0.000000
0.000000
0.000000
0.000000
0.000000
0.000000
0.000000
0.000000
0.000000
0.000000
0.000000
0.000000
0.000000
0.000000
0.000000
0.000000
0.000000
0.000000
0.000000
0.000000
0.000000
0.000000
0.000000
0.000000
0.000000
0.000000
0.000000
0.000000
0.000000
0.000000
0.000000
0.000000
0.000000
0.000000
0.000000
0.000000
0.000000
0.000000
0.000000
0.000000
0.000000
0.000000
0.000000
0.000000
0.000000

SCALARS u_y FLOAT 1
LOOKUP_TABLE default
-0.064313
-0.192939
-0.064313
-0.192939
-0.321204
-0.448499
-0.321204
-0.448499
-0.575404
-0.701627
-0.575404
-0.701627
-0.827205
-0.952238
-0.827205
-0.952238
-1.076656
-1.200378
-1.076656
-1.200378
-1.323554
-1.446076
-1.323554
-1.446076
-1.567962
-1.689187
-1.567962
-1.689187
-1.809745
-1.929775
-1.809745
-1.929775
-2.049215
-2.167991
-2.049215
-2.167991
-2.286022
-2.403380
-2.286022
-2.403380
-2.519996
-2.636098
-2.519996
-2.636098
-2.751461
-2.866203
-2.751461
-2.866203
-2.980216
-3.093591
-2.980216
-3.093591
-3.206211
-3.318218
-3.206211
-3.318218
-3.429437
-3.539957
-3.429437
-3.539957
-3.649862
-3.758954
-3.649862
-3.758954
-3.867447
-3.975027
-3.867447
-3.975027
-4.082122
-4.188307
-4.082122
-4.188307
-4.293886
-4.398531
-4.293886
-4.398531
-4.502530
-4.605776
-4.502530
-4.605776
-4.708191
-4.810084
-4.708191
-4.810084
-4.910893
-5.011153
-4.910893
-5.011153
-5.110308
-5.208863
-5.110308
-5.208863
-5.306750
-5.403744
-5.306750
-5.403744
-5.500093
-5.595337
-5.500093
-5.595337
-5.689851
-5.783619
-5.689851
-5.783619
-5.876448
-5.968657
-5.876448
-5.968657
-6.059644
-6.150007
-6.059644
-6.150007
-6.239464
-6.328152
-6.239464
-6.328152
-6.416058
-6.502859
-6.416058
-6.502859
-6.588846
-6.673894
-6.588846
-6.673894
-6.758107
-6.841410
-6.758107
-6.841410
-6.923636
-7.004976
-6.923636
-7.004976
-7.085439
-7.165051
-7.085439
-7.165051
-7.243864
-7.321395
-7.243864
-7.321395
-7.398161
-7.473736
-7.398161
-7.473736
-7.548595
-7.622175
-7.548595
-7.622175
-7.694945
-7.766658
-7.694945
-7.766658
-7.837345
-7.906891
-7.837345
-7.906891
-7.975553
-8.043163
-7.975553
-8.043163
-8.109772
-8.175181
-8.109772
-8.175181
-8.239562
-8.302786
-8.239562
-8.302786
-8.364869
-8.426024
-8.364869
-8.426024
-8.486001
-8.545012
-8.486001
-8.545012
-8.602574
-8.659275
-8.602574
-8.659275
-8.714415
-8.768702
-8.714415
-8.768702
-8.821497
-8.873449
-8.821497
-8.873449
-8.923973
-8.973520
-8.923973
-8.973520
-9.021626
-9.068630
-9.021626
-9.068630
-9.114229
-9.158608
-9.114229
-9.158608
-9.201649
-9.243360
-9.201649
-9.243360
-9.283764
-9.322820
-9.283764
-9.322820
-9.360634
-9.397031
-9.360634
-9.397031
-9.432075
-9.465667
-9.432075
-9.465667
-9.497914
-9.528613
-9.497914
-9.528613
-9.557985
-9.585761
-9.557985
-9.585761
-9.612189
-9.636971
-9.612189
-9.636971
-9.660386
-9.682109
-9.660386
-9.682109
-9.702438
-9.721029
-9.702438
-9.721029
-9.738197
-9.753581
-9.738197
-9.753581
-9.767540
-9.779700
-9.767540
-9.779700
-9.790357
-9.799134
-9.790357
-9.799134
-9.806358
-9.811551
-9.806358
-9.811551
-9.815106
-9.816874
-9.815106
-9.816874

