# vtk DataFile Version 2.0
MATLAB generated vtk file, WMC
ASCII
DATASET UNSTRUCTURED_GRID
POINTS 256 double
0.195312 0.061574 0.000000 
0.195312 0.184723 0.000000 
0.585938 0.061574 0.000000 
0.585938 0.184723 0.000000 
0.195312 0.308042 0.000000 
0.195312 0.431920 0.000000 
0.585938 0.308042 0.000000 
0.585938 0.431920 0.000000 
0.195312 0.556346 0.000000 
0.195312 0.681429 0.000000 
0.585938 0.556346 0.000000 
0.585938 0.681429 0.000000 
0.195312 0.807131 0.000000 
0.195312 0.933365 0.000000 
0.585938 0.807131 0.000000 
0.585938 0.933365 0.000000 
0.195312 1.060082 0.000000 
0.195312 1.187360 0.000000 
0.585938 1.060082 0.000000 
0.585938 1.187360 0.000000 
0.195312 1.315209 0.000000 
0.195312 1.443669 0.000000 
0.585938 1.315209 0.000000 
0.585938 1.443669 0.000000 
0.195312 1.572739 0.000000 
0.195312 1.702409 0.000000 
0.585938 1.572739 0.000000 
0.585938 1.702409 0.000000 
0.195312 1.832619 0.000000 
0.195312 1.963428 0.000000 
0.585938 1.832619 0.000000 
0.585938 1.963428 0.000000 
0.195312 2.094839 0.000000 
0.195312 2.226880 0.000000 
0.585938 2.094839 0.000000 
0.585938 2.226880 0.000000 
0.195312 2.359559 0.000000 
0.195312 2.492850 0.000000 
0.585938 2.359559 0.000000 
0.585938 2.492850 0.000000 
0.195312 2.626780 0.000000 
0.195312 2.761351 0.000000 
0.585938 2.626780 0.000000 
0.585938 2.761351 0.000000 
0.195312 2.896589 0.000000 
0.195312 3.032485 0.000000 
0.585938 2.896589 0.000000 
0.585938 3.032485 0.000000 
0.195312 3.169071 0.000000 
0.195312 3.306300 0.000000 
0.585938 3.169071 0.000000 
0.585938 3.306300 0.000000 
0.195312 3.444215 0.000000 
0.195312 3.582777 0.000000 
0.585938 3.444215 0.000000 
0.585938 3.582777 0.000000 
0.195312 3.722088 0.000000 
0.195312 3.862132 0.000000 
0.585938 3.722088 0.000000 
0.585938 3.862132 0.000000 
0.195312 4.002900 0.000000 
0.195312 4.144392 0.000000 
0.585938 4.002900 0.000000 
0.585938 4.144392 0.000000 
0.195312 4.286612 0.000000 
0.195312 4.429622 0.000000 
0.585938 4.286612 0.000000 
0.585938 4.429622 0.000000 
0.195312 4.573319 0.000000 
0.195312 4.717865 0.000000 
0.585938 4.573319 0.000000 
0.585938 4.717865 0.000000 
0.195312 4.863138 0.000000 
0.195312 5.009229 0.000000 
0.585938 4.863138 0.000000 
0.585938 5.009229 0.000000 
0.195312 5.156083 0.000000 
0.195312 5.303766 0.000000 
0.585938 5.156083 0.000000 
0.585938 5.303766 0.000000 
0.195312 5.452327 0.000000 
0.195312 5.601610 0.000000 
0.585938 5.452327 0.000000 
0.585938 5.601610 0.000000 
0.195312 5.751825 0.000000 
0.195312 5.902800 0.000000 
0.585938 5.751825 0.000000 
0.585938 5.902800 0.000000 
0.195312 6.054761 0.000000 
0.195312 6.207570 0.000000 
0.585938 6.054761 0.000000 
0.585938 6.207570 0.000000 
0.195312 6.361317 0.000000 
0.195312 6.515939 0.000000 
0.585938 6.361317 0.000000 
0.585938 6.515939 0.000000 
0.195312 6.671448 0.000000 
0.195312 6.827964 0.000000 
0.585938 6.671448 0.000000 
0.585938 6.827964 0.000000 
0.195312 6.985385 0.000000 
0.195312 7.143781 0.000000 
0.585938 6.985385 0.000000 
0.585938 7.143781 0.000000 
0.195312 7.303233 0.000000 
0.195312 7.463559 0.000000 
0.585938 7.303233 0.000000 
0.585938 7.463559 0.000000 
0.195312 7.625037 0.000000 
0.195312 7.787484 0.000000 
0.585938 7.625037 0.000000 
0.585938 7.787484 0.000000 
0.195312 7.950963 0.000000 
0.195312 8.115472 0.000000 
0.585938 7.950963 0.000000 
0.585938 8.115472 0.000000 
0.195312 8.281073 0.000000 
0.195312 8.447763 0.000000 
0.585938 8.281073 0.000000 
0.585938 8.447763 0.000000 
0.195312 8.615648 0.000000 
0.195312 8.784702 0.000000 
0.585938 8.615648 0.000000 
0.585938 8.784702 0.000000 
0.195312 8.954796 0.000000 
0.195312 9.126123 0.000000 
0.585938 8.954796 0.000000 
0.585938 9.126123 0.000000 
0.195312 9.298728 0.000000 
0.195312 9.472429 0.000000 
0.585938 9.298728 0.000000 
0.585938 9.472429 0.000000 
0.195312 9.647466 0.000000 
0.195312 9.823692 0.000000 
0.585938 9.647466 0.000000 
0.585938 9.823692 0.000000 
0.195312 10.001201 0.000000 
0.195312 10.180217 0.000000 
0.585938 10.001201 0.000000 
0.585938 10.180217 0.000000 
0.195312 10.360408 0.000000 
0.195312 10.542066 0.000000 
0.585938 10.360408 0.000000 
0.585938 10.542066 0.000000 
0.195312 10.725031 0.000000 
0.195312 10.909440 0.000000 
0.585938 10.725031 0.000000 
0.585938 10.909440 0.000000 
0.195312 11.095285 0.000000 
0.195312 11.282641 0.000000 
0.585938 11.095285 0.000000 
0.585938 11.282641 0.000000 
0.195312 11.471554 0.000000 
0.195312 11.662069 0.000000 
0.585938 11.471554 0.000000 
0.585938 11.662069 0.000000 
0.195312 11.854042 0.000000 
0.195312 12.047677 0.000000 
0.585938 11.854042 0.000000 
0.585938 12.047677 0.000000 
0.195312 12.242875 0.000000 
0.195312 12.439815 0.000000 
0.585938 12.242875 0.000000 
0.585938 12.439815 0.000000 
0.195312 12.638362 0.000000 
0.195312 12.838715 0.000000 
0.585938 12.638362 0.000000 
0.585938 12.838715 0.000000 
0.195312 13.040992 0.000000 
0.195312 13.244969 0.000000 
0.585938 13.040992 0.000000 
0.585938 13.244969 0.000000 
0.195312 13.451015 0.000000 
0.195312 13.658805 0.000000 
0.585938 13.451015 0.000000 
0.585938 13.658805 0.000000 
0.195312 13.868634 0.000000 
0.195312 14.080467 0.000000 
0.585938 13.868634 0.000000 
0.585938 14.080467 0.000000 
0.195312 14.294585 0.000000 
0.195312 14.510780 0.000000 
0.585938 14.294585 0.000000 
0.585938 14.510780 0.000000 
0.195312 14.729137 0.000000 
0.195312 14.949727 0.000000 
0.585938 14.729137 0.000000 
0.585938 14.949727 0.000000 
0.195312 15.172697 0.000000 
0.195312 15.397878 0.000000 
0.585938 15.172697 0.000000 
0.585938 15.397878 0.000000 
0.195312 15.625820 0.000000 
0.195312 15.856172 0.000000 
0.585938 15.625820 0.000000 
0.585938 15.856172 0.000000 
0.195312 16.089199 0.000000 
0.195312 16.324665 0.000000 
0.585938 16.089199 0.000000 
0.585938 16.324665 0.000000 
0.195312 16.562967 0.000000 
0.195312 16.804266 0.000000 
0.585938 16.562967 0.000000 
0.585938 16.804266 0.000000 
0.195312 17.048356 0.000000 
0.195312 17.295651 0.000000 
0.585938 17.048356 0.000000 
0.585938 17.295651 0.000000 
0.195312 17.545933 0.000000 
0.195312 17.799686 0.000000 
0.585938 17.545933 0.000000 
0.585938 17.799686 0.000000 
0.195312 18.056623 0.000000 
0.195312 18.317150 0.000000 
0.585938 18.056623 0.000000 
0.585938 18.317150 0.000000 
0.195312 18.581506 0.000000 
0.195312 18.849482 0.000000 
0.585938 18.581506 0.000000 
0.585938 18.849482 0.000000 
0.195312 19.121545 0.000000 
0.195312 19.397459 0.000000 
0.585938 19.121545 0.000000 
0.585938 19.397459 0.000000 
0.195312 19.677905 0.000000 
0.195312 19.962749 0.000000 
0.585938 19.677905 0.000000 
0.585938 19.962749 0.000000 
0.195312 20.252310 0.000000 
0.195312 20.546430 0.000000 
0.585938 20.252310 0.000000 
0.585938 20.546430 0.000000 
0.195312 20.845414 0.000000 
0.195312 21.150442 0.000000 
0.585938 20.845414 0.000000 
0.585938 21.150442 0.000000 
0.195312 21.461077 0.000000 
0.195312 21.777803 0.000000 
0.585938 21.461077 0.000000 
0.585938 21.777803 0.000000 
0.195312 22.099727 0.000000 
0.195312 22.429430 0.000000 
0.585938 22.099727 0.000000 
0.585938 22.429430 0.000000 
0.195312 22.766024 0.000000 
0.195312 23.110123 0.000000 
0.585938 22.766024 0.000000 
0.585938 23.110123 0.000000 
0.195312 23.461708 0.000000 
0.195312 23.822982 0.000000 
0.585938 23.461708 0.000000 
0.585938 23.822982 0.000000 
0.195312 24.192579 0.000000 
0.195312 24.572553 0.000000 
0.585938 24.192579 0.000000 
0.585938 24.572553 0.000000 

POINT_DATA 256
SCALARS sigma_xx FLOAT 1
LOOKUP_TABLE default
0.000000
0.000000
0.000000
0.000000
0.000000
-0.000000
-0.000000
-0.000000
0.000000
-0.000000
0.000000
-0.000000
-0.000000
-0.000000
-0.000000
-0.000000
0.000000
0.000000
0.000000
0.000000
-0.000000
-0.000000
-0.000000
-0.000000
-0.000000
0.000000
-0.000000
0.000000
-0.000000
-0.000000
-0.000000
-0.000000
-0.000000
-0.000000
-0.000000
-0.000000
-0.000000
-0.000000
-0.000000
-0.000000
-0.000000
-0.000000
-0.000000
-0.000000
-0.000000
-0.000000
-0.000000
-0.000000
0.000000
0.000000
0.000000
0.000000
-0.000000
-0.000000
-0.000000
-0.000000
-0.000000
-0.000000
-0.000000
-0.000000
-0.000000
-0.000000
-0.000000
0.000000
-0.000000
-0.000000
-0.000000
-0.000000
-0.000000
-0.000000
-0.000000
-0.000000
-0.000000
-0.000000
-0.000000
-0.000000
-0.000000
-0.000000
-0.000000
-0.000000
-0.000000
0.000000
-0.000000
-0.000000
-0.000000
-0.000000
-0.000000
-0.000000
-0.000000
-0.000000
-0.000000
-0.000000
-0.000000
-0.000000
-0.000000
0.000000
-0.000000
-0.000000
-0.000000
-0.000000
-0.000000
-0.000000
-0.000000
-0.000000
-0.000000
-0.000000
-0.000000
-0.000000
-0.000000
-0.000000
-0.000000
-0.000000
-0.000000
-0.000000
-0.000000
-0.000000
-0.000000
-0.000000
-0.000000
-0.000000
-0.000000
-0.000000
-0.000000
-0.000000
-0.000000
-0.000000
-0.000000
-0.000000
-0.000000
-0.000000
-0.000000
-0.000000
-0.000000
-0.000000
-0.000000
-0.000000
-0.000000
-0.000000
-0.000000
-0.000000
-0.000000
-0.000000
-0.000000
0.000000
-0.000000
-0.000000
-0.000000
-0.000000
-0.000000
-0.000000
-0.000000
-0.000000
-0.000000
-0.000000
-0.000000
-0.000000
-0.000000
-0.000000
-0.000000
-0.000000
-0.000000
-0.000000
-0.000000
-0.000000
0.000000
-0.000000
0.000000
-0.000000
-0.000000
-0.000000
-0.000000
-0.000000
-0.000000
-0.000000
-0.000000
-0.000000
-0.000000
-0.000000
-0.000000
-0.000000
-0.000000
-0.000000
-0.000000
-0.000000
0.000000
-0.000000
0.000000
-0.000000
-0.000000
-0.000000
-0.000000
-0.000000
-0.000000
-0.000000
-0.000000
-0.000000
-0.000000
-0.000000
-0.000000
-0.000000
-0.000000
-0.000000
-0.000000
-0.000000
-0.000000
-0.000000
-0.000000
-0.000000
-0.000000
-0.000000
-0.000000
-0.000000
-0.000000
-0.000000
-0.000000
-0.000000
-0.000000
0.000000
-0.000000
0.000000
-0.000000
-0.000000
-0.000000
-0.000000
-0.000000
0.000000
-0.000000
0.000000
0.000000
-0.000000
0.000000
-0.000000
-0.000000
-0.000000
0.000000
-0.000000
-0.000000
-0.000000
-0.000000
-0.000000
0.000000
-0.000000
0.000000
-0.000000
-0.000000
-0.000000
-0.000000
-0.000000
-0.000000
-0.000000
0.000000
-0.000000
0.000000
-0.000000
0.000000
-0.000000

SCALARS sigma_yy FLOAT 1
LOOKUP_TABLE default
-36615.802715
-36615.802715
-36615.802715
-36615.802715
-36368.079258
-36081.885774
-36368.079258
-36081.885774
-35728.950571
-35408.831465
-35728.950571
-35408.831465
-35067.486204
-34845.336906
-35067.486204
-34845.336906
-34554.679232
-34280.241473
-34554.679232
-34280.241473
-33964.803145
-33678.620563
-33964.803145
-33678.620563
-33352.565518
-33098.235714
-33352.565518
-33098.235714
-32807.637418
-32534.396620
-32807.637418
-32534.396620
-32220.908380
-31950.827132
-32220.908380
-31950.827132
-31636.207604
-31384.209332
-31636.207604
-31384.209332
-31069.167676
-30795.314232
-31069.167676
-30795.314232
-30474.583613
-30217.971539
-30474.583613
-30217.971539
-29905.490008
-29648.438990
-29905.490008
-29648.438990
-29337.971189
-29074.873981
-29337.971189
-29074.873981
-28750.548062
-28479.253956
-28750.548062
-28479.253956
-28158.233849
-27906.353455
-28158.233849
-27906.353455
-27602.604713
-27307.864177
-27602.604713
-27307.864177
-27022.978292
-26742.750504
-27022.978292
-26742.750504
-26446.810268
-26159.771243
-26446.810268
-26159.771243
-25872.519782
-25586.092793
-25872.519782
-25586.092793
-25273.365630
-25026.816842
-25273.365630
-25026.816842
-24718.843267
-24445.430251
-24718.843267
-24445.430251
-24111.107757
-23853.732137
-24111.107757
-23853.732137
-23539.826089
-23281.619251
-23539.826089
-23281.619251
-22982.404946
-22689.425489
-22982.404946
-22689.425489
-22401.987010
-22111.599634
-22401.987010
-22111.599634
-21812.227931
-21546.551675
-21812.227931
-21546.551675
-21231.292852
-20962.933134
-21231.292852
-20962.933134
-20666.851751
-20395.464620
-20666.851751
-20395.464620
-20089.076809
-19810.928517
-20089.076809
-19810.928517
-19492.049857
-19231.059419
-19492.049857
-19231.059419
-18930.632382
-18655.737750
-18930.632382
-18655.737750
-18335.927214
-18091.379535
-18335.927214
-18091.379535
-17762.719524
-17507.190650
-17762.719524
-17507.190650
-17180.495974
-16911.204137
-17180.495974
-16911.204137
-16614.540724
-16333.087013
-16614.540724
-16333.087013
-16041.327082
-15757.268508
-16041.327082
-15757.268508
-15465.964444
-15181.453978
-15465.964444
-15181.453978
-14861.635078
-14585.819632
-14861.635078
-14585.819632
-14314.307234
-14009.705167
-14314.307234
-14009.705167
-13745.141690
-13446.600618
-13745.141690
-13446.600618
-13166.044807
-12863.183218
-13166.044807
-12863.183218
-12578.604139
-12278.052336
-12578.604139
-12278.052336
-11998.542590
-11718.902639
-11998.542590
-11718.902639
-11423.073086
-11125.432309
-11423.073086
-11125.432309
-10835.081149
-10541.313658
-10835.081149
-10541.313658
-10268.458232
-9971.463153
-10268.458232
-9971.463153
-9686.538962
-9400.114846
-9686.538962
-9400.114846
-9081.713643
-8820.560007
-9081.713643
-8820.560007
-8516.876171
-8258.754198
-8516.876171
-8258.754198
-7941.069654
-7666.655887
-7941.069654
-7666.655887
-7371.945672
-7086.829829
-7371.945672
-7086.829829
-6800.207568
-6499.843709
-6800.207568
-6499.843709
-6216.839244
-5926.678146
-6216.839244
-5926.678146
-5629.548976
-5347.323733
-5629.548976
-5347.323733
-5049.281100
-4778.484777
-5049.281100
-4778.484777
-4468.269675
-4190.035196
-4468.269675
-4190.035196
-3897.622158
-3642.029191
-3897.622158
-3642.029191
-3321.986063
-3031.811034
-3321.986063
-3031.811034
-2724.095118
-2478.295598
-2724.095118
-2478.295598
-2184.342366
-1863.891220
-2184.342366
-1863.891220
-1579.484176
-1317.441367
-1579.484176
-1317.441367
-1001.018874
-712.496112
-1001.018874
-712.496112
-441.914173
-124.825699
-441.914173
-124.825699

SCALARS sigma_zz FLOAT 1
LOOKUP_TABLE default
0.000000
0.000000
0.000000
0.000000
0.000000
0.000000
0.000000
0.000000
0.000000
0.000000
0.000000
0.000000
0.000000
0.000000
0.000000
0.000000
0.000000
0.000000
0.000000
0.000000
0.000000
0.000000
0.000000
0.000000
0.000000
0.000000
0.000000
0.000000
0.000000
0.000000
0.000000
0.000000
0.000000
0.000000
0.000000
0.000000
0.000000
0.000000
0.000000
0.000000
0.000000
0.000000
0.000000
0.000000
0.000000
0.000000
0.000000
0.000000
0.000000
0.000000
0.000000
0.000000
0.000000
0.000000
0.000000
0.000000
0.000000
0.000000
0.000000
0.000000
0.000000
0.000000
0.000000
0.000000
0.000000
0.000000
0.000000
0.000000
0.000000
0.000000
0.000000
0.000000
0.000000
0.000000
0.000000
0.000000
0.000000
0.000000
0.000000
0.000000
0.000000
0.000000
0.000000
0.000000
0.000000
0.000000
0.000000
0.000000
0.000000
0.000000
0.000000
0.000000
0.000000
0.000000
0.000000
0.000000
0.000000
0.000000
0.000000
0.000000
0.000000
0.000000
0.000000
0.000000
0.000000
0.000000
0.000000
0.000000
0.000000
0.000000
0.000000
0.000000
0.000000
0.000000
0.000000
0.000000
0.000000
0.000000
0.000000
0.000000
0.000000
0.000000
0.000000
0.000000
0.000000
0.000000
0.000000
0.000000
0.000000
0.000000
0.000000
0.000000
0.000000
0.000000
0.000000
0.000000
0.000000
0.000000
0.000000
0.000000
0.000000
0.000000
0.000000
0.000000
0.000000
0.000000
0.000000
0.000000
0.000000
0.000000
0.000000
0.000000
0.000000
0.000000
0.000000
0.000000
0.000000
0.000000
0.000000
0.000000
0.000000
0.000000
0.000000
0.000000
0.000000
0.000000
0.000000
0.000000
0.000000
0.000000
0.000000
0.000000
0.000000
0.000000
0.000000
0.000000
0.000000
0.000000
0.000000
0.000000
0.000000
0.000000
0.000000
0.000000
0.000000
0.000000
0.000000
0.000000
0.000000
0.000000
0.000000
0.000000
0.000000
0.000000
0.000000
0.000000
0.000000
0.000000
0.000000
0.000000
0.000000
0.000000
0.000000
0.000000
0.000000
0.000000
0.000000
0.000000
0.000000
0.000000
0.000000
0.000000
0.000000
0.000000
0.000000
0.000000
0.000000
0.000000
0.000000
0.000000
0.000000
0.000000
0.000000
0.000000
0.000000
0.000000
0.000000
0.000000
0.000000
0.000000
0.000000
0.000000
0.000000
0.000000
0.000000
0.000000
0.000000
0.000000
0.000000
0.000000
0.000000
0.000000
0.000000
0.000000
0.000000
0.000000
0.000000
0.000000
0.000000
0.000000
0.000000
0.000000
0.000000
0.000000
0.000000
0.000000

SCALARS sigma_xy FLOAT 1
LOOKUP_TABLE default
0.000000
0.000000
0.000000
0.000000
0.000000
-0.000000
-0.000000
-0.000000
0.000000
-0.000000
0.000000
-0.000000
-0.000000
-0.000000
-0.000000
-0.000000
0.000000
0.000000
0.000000
0.000000
0.000000
0.000000
0.000000
0.000000
0.000000
0.000000
0.000000
0.000000
-0.000000
-0.000000
-0.000000
-0.000000
-0.000000
-0.000000
-0.000000
-0.000000
-0.000000
0.000000
-0.000000
0.000000
0.000000
0.000000
0.000000
0.000000
0.000000
0.000000
0.000000
0.000000
0.000000
0.000000
0.000000
0.000000
-0.000000
0.000000
-0.000000
0.000000
0.000000
0.000000
0.000000
0.000000
0.000000
-0.000000
0.000000
0.000000
-0.000000
-0.000000
-0.000000
-0.000000
-0.000000
-0.000000
-0.000000
-0.000000
-0.000000
0.000000
-0.000000
0.000000
0.000000
0.000000
0.000000
0.000000
0.000000
0.000000
0.000000
0.000000
-0.000000
-0.000000
-0.000000
-0.000000
-0.000000
-0.000000
-0.000000
-0.000000
-0.000000
0.000000
-0.000000
0.000000
0.000000
0.000000
0.000000
0.000000
0.000000
0.000000
0.000000
0.000000
-0.000000
0.000000
-0.000000
0.000000
-0.000000
-0.000000
-0.000000
-0.000000
-0.000000
-0.000000
-0.000000
-0.000000
-0.000000
-0.000000
-0.000000
-0.000000
0.000000
0.000000
0.000000
0.000000
0.000000
0.000000
0.000000
0.000000
-0.000000
-0.000000
-0.000000
-0.000000
-0.000000
-0.000000
-0.000000
-0.000000
0.000000
0.000000
0.000000
0.000000
0.000000
-0.000000
0.000000
0.000000
-0.000000
-0.000000
-0.000000
-0.000000
-0.000000
0.000000
-0.000000
0.000000
0.000000
0.000000
0.000000
0.000000
-0.000000
-0.000000
-0.000000
-0.000000
0.000000
0.000000
0.000000
0.000000
0.000000
-0.000000
0.000000
-0.000000
-0.000000
0.000000
-0.000000
0.000000
-0.000000
0.000000
-0.000000
0.000000
0.000000
0.000000
0.000000
0.000000
0.000000
-0.000000
0.000000
-0.000000
0.000000
-0.000000
0.000000
-0.000000
0.000000
-0.000000
0.000000
-0.000000
-0.000000
-0.000000
-0.000000
-0.000000
0.000000
0.000000
0.000000
0.000000
0.000000
-0.000000
0.000000
-0.000000
0.000000
-0.000000
0.000000
-0.000000
0.000000
-0.000000
0.000000
-0.000000
-0.000000
-0.000000
-0.000000
-0.000000
0.000000
0.000000
0.000000
0.000000
0.000000
0.000000
0.000000
0.000000
0.000000
0.000000
0.000000
0.000000
0.000000
0.000000
0.000000
0.000000
0.000000
0.000000
0.000000
0.000000
-0.000000
-0.000000
-0.000000
-0.000000
0.000000
0.000000
0.000000
0.000000
0.000000
0.000000
-0.000000
0.000000
0.000000
0.000000
0.000000
0.000000
0.000000
0.000000
0.000000
-0.000000

SCALARS sigma_yz FLOAT 1
LOOKUP_TABLE default
0.000000
0.000000
0.000000
0.000000
0.000000
0.000000
0.000000
0.000000
0.000000
0.000000
0.000000
0.000000
0.000000
0.000000
0.000000
0.000000
0.000000
0.000000
0.000000
0.000000
0.000000
0.000000
0.000000
0.000000
0.000000
0.000000
0.000000
0.000000
0.000000
0.000000
0.000000
0.000000
0.000000
0.000000
0.000000
0.000000
0.000000
0.000000
0.000000
0.000000
0.000000
0.000000
0.000000
0.000000
0.000000
0.000000
0.000000
0.000000
0.000000
0.000000
0.000000
0.000000
0.000000
0.000000
0.000000
0.000000
0.000000
0.000000
0.000000
0.000000
0.000000
0.000000
0.000000
0.000000
0.000000
0.000000
0.000000
0.000000
0.000000
0.000000
0.000000
0.000000
0.000000
0.000000
0.000000
0.000000
0.000000
0.000000
0.000000
0.000000
0.000000
0.000000
0.000000
0.000000
0.000000
0.000000
0.000000
0.000000
0.000000
0.000000
0.000000
0.000000
0.000000
0.000000
0.000000
0.000000
0.000000
0.000000
0.000000
0.000000
0.000000
0.000000
0.000000
0.000000
0.000000
0.000000
0.000000
0.000000
0.000000
0.000000
0.000000
0.000000
0.000000
0.000000
0.000000
0.000000
0.000000
0.000000
0.000000
0.000000
0.000000
0.000000
0.000000
0.000000
0.000000
0.000000
0.000000
0.000000
0.000000
0.000000
0.000000
0.000000
0.000000
0.000000
0.000000
0.000000
0.000000
0.000000
0.000000
0.000000
0.000000
0.000000
0.000000
0.000000
0.000000
0.000000
0.000000
0.000000
0.000000
0.000000
0.000000
0.000000
0.000000
0.000000
0.000000
0.000000
0.000000
0.000000
0.000000
0.000000
0.000000
0.000000
0.000000
0.000000
0.000000
0.000000
0.000000
0.000000
0.000000
0.000000
0.000000
0.000000
0.000000
0.000000
0.000000
0.000000
0.000000
0.000000
0.000000
0.000000
0.000000
0.000000
0.000000
0.000000
0.000000
0.000000
0.000000
0.000000
0.000000
0.000000
0.000000
0.000000
0.000000
0.000000
0.000000
0.000000
0.000000
0.000000
0.000000
0.000000
0.000000
0.000000
0.000000
0.000000
0.000000
0.000000
0.000000
0.000000
0.000000
0.000000
0.000000
0.000000
0.000000
0.000000
0.000000
0.000000
0.000000
0.000000
0.000000
0.000000
0.000000
0.000000
0.000000
0.000000
0.000000
0.000000
0.000000
0.000000
0.000000
0.000000
0.000000
0.000000
0.000000
0.000000
0.000000
0.000000
0.000000
0.000000
0.000000
0.000000
0.000000
0.000000
0.000000
0.000000
0.000000
0.000000
0.000000
0.000000
0.000000
0.000000
0.000000
0.000000
0.000000
0.000000
0.000000
0.000000

SCALARS sigma_zx FLOAT 1
LOOKUP_TABLE default
0.000000
0.000000
0.000000
0.000000
0.000000
0.000000
0.000000
0.000000
0.000000
0.000000
0.000000
0.000000
0.000000
0.000000
0.000000
0.000000
0.000000
0.000000
0.000000
0.000000
0.000000
0.000000
0.000000
0.000000
0.000000
0.000000
0.000000
0.000000
0.000000
0.000000
0.000000
0.000000
0.000000
0.000000
0.000000
0.000000
0.000000
0.000000
0.000000
0.000000
0.000000
0.000000
0.000000
0.000000
0.000000
0.000000
0.000000
0.000000
0.000000
0.000000
0.000000
0.000000
0.000000
0.000000
0.000000
0.000000
0.000000
0.000000
0.000000
0.000000
0.000000
0.000000
0.000000
0.000000
0.000000
0.000000
0.000000
0.000000
0.000000
0.000000
0.000000
0.000000
0.000000
0.000000
0.000000
0.000000
0.000000
0.000000
0.000000
0.000000
0.000000
0.000000
0.000000
0.000000
0.000000
0.000000
0.000000
0.000000
0.000000
0.000000
0.000000
0.000000
0.000000
0.000000
0.000000
0.000000
0.000000
0.000000
0.000000
0.000000
0.000000
0.000000
0.000000
0.000000
0.000000
0.000000
0.000000
0.000000
0.000000
0.000000
0.000000
0.000000
0.000000
0.000000
0.000000
0.000000
0.000000
0.000000
0.000000
0.000000
0.000000
0.000000
0.000000
0.000000
0.000000
0.000000
0.000000
0.000000
0.000000
0.000000
0.000000
0.000000
0.000000
0.000000
0.000000
0.000000
0.000000
0.000000
0.000000
0.000000
0.000000
0.000000
0.000000
0.000000
0.000000
0.000000
0.000000
0.000000
0.000000
0.000000
0.000000
0.000000
0.000000
0.000000
0.000000
0.000000
0.000000
0.000000
0.000000
0.000000
0.000000
0.000000
0.000000
0.000000
0.000000
0.000000
0.000000
0.000000
0.000000
0.000000
0.000000
0.000000
0.000000
0.000000
0.000000
0.000000
0.000000
0.000000
0.000000
0.000000
0.000000
0.000000
0.000000
0.000000
0.000000
0.000000
0.000000
0.000000
0.000000
0.000000
0.000000
0.000000
0.000000
0.000000
0.000000
0.000000
0.000000
0.000000
0.000000
0.000000
0.000000
0.000000
0.000000
0.000000
0.000000
0.000000
0.000000
0.000000
0.000000
0.000000
0.000000
0.000000
0.000000
0.000000
0.000000
0.000000
0.000000
0.000000
0.000000
0.000000
0.000000
0.000000
0.000000
0.000000
0.000000
0.000000
0.000000
0.000000
0.000000
0.000000
0.000000
0.000000
0.000000
0.000000
0.000000
0.000000
0.000000
0.000000
0.000000
0.000000
0.000000
0.000000
0.000000
0.000000
0.000000
0.000000
0.000000
0.000000
0.000000
0.000000
0.000000
0.000000
0.000000
0.000000
0.000000
0.000000

SCALARS u_x FLOAT 1
LOOKUP_TABLE default
0.000000
0.000000
0.000000
0.000000
0.000000
0.000000
0.000000
0.000000
0.000000
0.000000
0.000000
0.000000
0.000000
0.000000
0.000000
0.000000
0.000000
0.000000
0.000000
0.000000
0.000000
0.000000
0.000000
0.000000
0.000000
0.000000
0.000000
0.000000
0.000000
0.000000
0.000000
0.000000
0.000000
0.000000
0.000000
0.000000
0.000000
0.000000
0.000000
0.000000
0.000000
0.000000
0.000000
0.000000
0.000000
0.000000
0.000000
0.000000
0.000000
0.000000
0.000000
0.000000
0.000000
0.000000
0.000000
0.000000
0.000000
0.000000
0.000000
0.000000
0.000000
0.000000
0.000000
0.000000
0.000000
0.000000
0.000000
0.000000
0.000000
0.000000
0.000000
0.000000
0.000000
0.000000
0.000000
0.000000
0.000000
0.000000
0.000000
0.000000
0.000000
0.000000
0.000000
0.000000
0.000000
0.000000
0.000000
0.000000
0.000000
0.000000
0.000000
0.000000
0.000000
0.000000
0.000000
0.000000
0.000000
0.000000
0.000000
0.000000
0.000000
0.000000
0.000000
0.000000
0.000000
0.000000
0.000000
0.000000
0.000000
0.000000
0.000000
0.000000
0.000000
0.000000
0.000000
0.000000
0.000000
0.000000
0.000000
0.000000
0.000000
0.000000
0.000000
0.000000
0.000000
0.000000
0.000000
0.000000
0.000000
0.000000
0.000000
0.000000
0.000000
0.000000
0.000000
0.000000
0.000000
0.000000
0.000000
0.000000
0.000000
0.000000
0.000000
0.000000
0.000000
0.000000
0.000000
0.000000
0.000000
0.000000
0.000000
0.000000
0.000000
0.000000
0.000000
0.000000
0.000000
0.000000
0.000000
0.000000
0.000000
0.000000
0.000000
0.000000
0.000000
0.000000
0.000000
0.000000
0.000000
0.000000
0.000000
0.000000
0.000000
0.000000
0.000000
0.000000
0.000000
0.000000
0.000000
0.000000
0.000000
0.000000
0.000000
0.000000
0.000000
0.000000
0.000000
0.000000
0.000000
0.000000
0.000000
0.000000
0.000000
0.000000
0.000000
0.000000
0.000000
0.000000
0.000000
0.000000
0.000000
0.000000
0.000000
0.000000
0.000000
0.000000
0.000000
0.000000
0.000000
0.000000
0.000000
0.000000
0.000000
0.000000
0.000000
0.000000
0.000000
0.000000
0.000000
0.000000
0.000000
0.000000
0.000000
0.000000
0.000000
0.000000
0.000000
0.000000
0.000000
0.000000
0.000000
0.000000
0.000000
0.000000
0.000000
0.000000
0.000000
0.000000
0.000000
0.000000
0.000000
0.000000
0.000000
0.000000
0.000000
0.000000
0.000000
0.000000
0.000000
0.000000
0.000000
0.000000
0.000000
0.000000
0.000000
0.000000

SCALARS u_y FLOAT 1
LOOKUP_TABLE default
-0.133738
-0.401214
-0.133738
-0.401214
-0.668521
-0.935267
-0.668521
-0.935267
-1.201467
-1.467009
-1.201467
-1.467009
-1.731932
-1.996322
-1.731932
-1.996322
-2.260231
-2.523577
-2.260231
-2.523577
-2.786353
-3.048518
-2.786353
-3.048518
-3.310074
-3.571029
-3.310074
-3.571029
-3.831444
-4.091260
-3.831444
-4.091260
-4.350474
-4.609058
-4.350474
-4.609058
-4.867003
-5.124337
-4.867003
-5.124337
-5.381032
-5.637086
-5.381032
-5.637086
-5.892474
-6.147202
-5.892474
-6.147202
-6.401241
-6.654637
-6.401241
-6.654637
-6.907348
-7.159411
-6.907348
-7.159411
-7.410725
-7.661305
-7.410725
-7.661305
-7.911162
-8.160295
-7.911162
-8.160295
-8.408700
-8.656316
-8.408700
-8.656316
-8.903243
-9.149322
-8.903243
-9.149322
-9.394674
-9.639209
-9.394674
-9.639209
-9.882980
-10.125922
-9.882980
-10.125922
-10.367985
-10.609327
-10.367985
-10.609327
-10.849738
-11.089388
-10.849738
-11.089388
-11.328052
-11.565867
-11.328052
-11.565867
-11.802745
-12.038748
-11.802745
-12.038748
-12.273865
-12.507974
-12.273865
-12.507974
-12.741177
-12.973406
-12.741177
-12.973406
-13.204580
-13.434878
-13.204580
-13.434878
-13.664026
-13.892203
-13.664026
-13.892203
-14.119349
-14.345465
-14.119349
-14.345465
-14.570490
-14.794424
-14.570490
-14.794424
-15.017164
-15.238735
-15.017164
-15.238735
-15.459267
-15.678565
-15.459267
-15.678565
-15.896584
-16.113509
-15.896584
-16.113509
-16.329096
-16.543495
-16.329096
-16.543495
-16.756612
-16.968220
-16.756612
-16.968220
-17.178655
-17.387622
-17.178655
-17.387622
-17.595282
-17.801497
-17.595282
-17.801497
-18.006277
-18.209547
-18.006277
-18.209547
-18.411259
-18.611368
-18.411259
-18.611368
-18.810020
-19.007010
-18.810020
-19.007010
-19.202437
-19.396122
-19.202437
-19.396122
-19.588201
-19.778473
-19.588201
-19.778473
-19.966820
-20.153468
-19.966820
-20.153468
-20.338048
-20.520883
-20.338048
-20.520883
-20.701679
-20.880470
-20.701679
-20.880470
-21.056978
-21.231408
-21.056978
-21.231408
-21.403675
-21.573710
-21.403675
-21.573710
-21.741365
-21.906809
-21.741365
-21.906809
-22.069493
-22.229766
-22.069493
-22.229766
-22.387363
-22.542522
-22.387363
-22.542522
-22.694846
-22.844171
-22.694846
-22.844171
-22.990706
-23.134037
-22.990706
-23.134037
-23.274380
-23.411251
-23.274380
-23.411251
-23.544940
-23.675037
-23.544940
-23.675037
-23.801307
-23.923955
-23.801307
-23.923955
-24.042517
-24.157228
-24.042517
-24.157228
-24.267407
-24.373188
-24.267407
-24.373188
-24.474253
-24.570757
-24.474253
-24.570757
-24.662398
-24.747995
-24.662398
-24.747995
-24.827986
-24.901884
-24.827986
-24.901884
-24.970586
-25.031507
-24.970586
-25.031507
-25.085539
-25.132064
-25.085539
-25.132064
-25.171104
-25.200455
-25.171104
-25.200455
-25.221484
-25.232134
-25.221484
-25.232134

