# vtk DataFile Version 2.0
MATLAB generated vtk file, WMC
ASCII
DATASET UNSTRUCTURED_GRID
POINTS 256 double
0.195312 0.064398 0.000000 
0.195312 0.193193 0.000000 
0.585938 0.064398 0.000000 
0.585938 0.193193 0.000000 
0.195312 0.322166 0.000000 
0.195312 0.451724 0.000000 
0.585938 0.322166 0.000000 
0.585938 0.451724 0.000000 
0.195312 0.581855 0.000000 
0.195312 0.712673 0.000000 
0.585938 0.581855 0.000000 
0.585938 0.712673 0.000000 
0.195312 0.844106 0.000000 
0.195312 0.976047 0.000000 
0.585938 0.844106 0.000000 
0.585938 0.976047 0.000000 
0.195312 1.108491 0.000000 
0.195312 1.241523 0.000000 
0.585938 1.108491 0.000000 
0.585938 1.241523 0.000000 
0.195312 1.375150 0.000000 
0.195312 1.509417 0.000000 
0.585938 1.375150 0.000000 
0.585938 1.509417 0.000000 
0.195312 1.644293 0.000000 
0.195312 1.779752 0.000000 
0.585938 1.644293 0.000000 
0.585938 1.779752 0.000000 
0.195312 1.915775 0.000000 
0.195312 2.052424 0.000000 
0.585938 1.915775 0.000000 
0.585938 2.052424 0.000000 
0.195312 2.189701 0.000000 
0.195312 2.327634 0.000000 
0.585938 2.189701 0.000000 
0.585938 2.327634 0.000000 
0.195312 2.466203 0.000000 
0.195312 2.605388 0.000000 
0.585938 2.466203 0.000000 
0.585938 2.605388 0.000000 
0.195312 2.745240 0.000000 
0.195312 2.885761 0.000000 
0.585938 2.745240 0.000000 
0.585938 2.885761 0.000000 
0.195312 3.026979 0.000000 
0.195312 3.168870 0.000000 
0.585938 3.026979 0.000000 
0.585938 3.168870 0.000000 
0.195312 3.311430 0.000000 
0.195312 3.454657 0.000000 
0.585938 3.311430 0.000000 
0.585938 3.454657 0.000000 
0.195312 3.598600 0.000000 
0.195312 3.743218 0.000000 
0.585938 3.598600 0.000000 
0.585938 3.743218 0.000000 
0.195312 3.888614 0.000000 
0.195312 4.034723 0.000000 
0.585938 3.888614 0.000000 
0.585938 4.034723 0.000000 
0.195312 4.181522 0.000000 
0.195312 4.329068 0.000000 
0.585938 4.181522 0.000000 
0.585938 4.329068 0.000000 
0.195312 4.477373 0.000000 
0.195312 4.626501 0.000000 
0.585938 4.477373 0.000000 
0.585938 4.626501 0.000000 
0.195312 4.776333 0.000000 
0.195312 4.927010 0.000000 
0.585938 4.776333 0.000000 
0.585938 4.927010 0.000000 
0.195312 5.078441 0.000000 
0.195312 5.230724 0.000000 
0.585938 5.078441 0.000000 
0.585938 5.230724 0.000000 
0.195312 5.383802 0.000000 
0.195312 5.537728 0.000000 
0.585938 5.383802 0.000000 
0.585938 5.537728 0.000000 
0.195312 5.692521 0.000000 
0.195312 5.848047 0.000000 
0.585938 5.692521 0.000000 
0.585938 5.848047 0.000000 
0.195312 6.004543 0.000000 
0.195312 6.161831 0.000000 
0.585938 6.004543 0.000000 
0.585938 6.161831 0.000000 
0.195312 6.320129 0.000000 
0.195312 6.479238 0.000000 
0.585938 6.320129 0.000000 
0.585938 6.479238 0.000000 
0.195312 6.639276 0.000000 
0.195312 6.800224 0.000000 
0.585938 6.639276 0.000000 
0.585938 6.800224 0.000000 
0.195312 6.962094 0.000000 
0.195312 7.125003 0.000000 
0.585938 6.962094 0.000000 
0.585938 7.125003 0.000000 
0.195312 7.288805 0.000000 
0.195312 7.453594 0.000000 
0.585938 7.288805 0.000000 
0.585938 7.453594 0.000000 
0.195312 7.619480 0.000000 
0.195312 7.786271 0.000000 
0.585938 7.619480 0.000000 
0.585938 7.786271 0.000000 
0.195312 7.954177 0.000000 
0.195312 8.123041 0.000000 
0.585938 7.954177 0.000000 
0.585938 8.123041 0.000000 
0.195312 8.292978 0.000000 
0.195312 8.463985 0.000000 
0.585938 8.292978 0.000000 
0.585938 8.463985 0.000000 
0.195312 8.636133 0.000000 
0.195312 8.809420 0.000000 
0.585938 8.636133 0.000000 
0.585938 8.809420 0.000000 
0.195312 8.983857 0.000000 
0.195312 9.159480 0.000000 
0.585938 8.983857 0.000000 
0.585938 9.159480 0.000000 
0.195312 9.336178 0.000000 
0.195312 9.514063 0.000000 
0.585938 9.336178 0.000000 
0.585938 9.514063 0.000000 
0.195312 9.693213 0.000000 
0.195312 9.873517 0.000000 
0.585938 9.693213 0.000000 
0.585938 9.873517 0.000000 
0.195312 10.055208 0.000000 
0.195312 10.238126 0.000000 
0.585938 10.055208 0.000000 
0.585938 10.238126 0.000000 
0.195312 10.422291 0.000000 
0.195312 10.607898 0.000000 
0.585938 10.422291 0.000000 
0.585938 10.607898 0.000000 
0.195312 10.794701 0.000000 
0.195312 10.983014 0.000000 
0.585938 10.794701 0.000000 
0.585938 10.983014 0.000000 
0.195312 11.172661 0.000000 
0.195312 11.363791 0.000000 
0.585938 11.172661 0.000000 
0.585938 11.363791 0.000000 
0.195312 11.556394 0.000000 
0.195312 11.750539 0.000000 
0.585938 11.556394 0.000000 
0.585938 11.750539 0.000000 
0.195312 11.946184 0.000000 
0.195312 12.143359 0.000000 
0.585938 11.946184 0.000000 
0.585938 12.143359 0.000000 
0.195312 12.341989 0.000000 
0.195312 12.542337 0.000000 
0.585938 12.341989 0.000000 
0.585938 12.542337 0.000000 
0.195312 12.744298 0.000000 
0.195312 12.948107 0.000000 
0.585938 12.744298 0.000000 
0.585938 12.948107 0.000000 
0.195312 13.153626 0.000000 
0.195312 13.360966 0.000000 
0.585938 13.153626 0.000000 
0.585938 13.360966 0.000000 
0.195312 13.570130 0.000000 
0.195312 13.780796 0.000000 
0.585938 13.570130 0.000000 
0.585938 13.780796 0.000000 
0.195312 13.993502 0.000000 
0.195312 14.208008 0.000000 
0.585938 13.993502 0.000000 
0.585938 14.208008 0.000000 
0.195312 14.424640 0.000000 
0.195312 14.643362 0.000000 
0.585938 14.424640 0.000000 
0.585938 14.643362 0.000000 
0.195312 14.864413 0.000000 
0.195312 15.087441 0.000000 
0.585938 14.864413 0.000000 
0.585938 15.087441 0.000000 
0.195312 15.312547 0.000000 
0.195312 15.539885 0.000000 
0.585938 15.312547 0.000000 
0.585938 15.539885 0.000000 
0.195312 15.769604 0.000000 
0.195312 16.001430 0.000000 
0.585938 15.769604 0.000000 
0.585938 16.001430 0.000000 
0.195312 16.235957 0.000000 
0.195312 16.472919 0.000000 
0.585938 16.235957 0.000000 
0.585938 16.472919 0.000000 
0.195312 16.712599 0.000000 
0.195312 16.954735 0.000000 
0.585938 16.712599 0.000000 
0.585938 16.954735 0.000000 
0.195312 17.199706 0.000000 
0.195312 17.447658 0.000000 
0.585938 17.199706 0.000000 
0.585938 17.447658 0.000000 
0.195312 17.698312 0.000000 
0.195312 17.952214 0.000000 
0.585938 17.698312 0.000000 
0.585938 17.952214 0.000000 
0.195312 18.208986 0.000000 
0.195312 18.469141 0.000000 
0.585938 18.208986 0.000000 
0.585938 18.469141 0.000000 
0.195312 18.732375 0.000000 
0.195312 18.999191 0.000000 
0.585938 18.732375 0.000000 
0.585938 18.999191 0.000000 
0.195312 19.269740 0.000000 
0.195312 19.543810 0.000000 
0.585938 19.269740 0.000000 
0.585938 19.543810 0.000000 
0.195312 19.821866 0.000000 
0.195312 20.103730 0.000000 
0.585938 19.821866 0.000000 
0.585938 20.103730 0.000000 
0.195312 20.390157 0.000000 
0.195312 20.680817 0.000000 
0.585938 20.390157 0.000000 
0.585938 20.680817 0.000000 
0.195312 20.975841 0.000000 
0.195312 21.275251 0.000000 
0.585938 20.975841 0.000000 
0.585938 21.275251 0.000000 
0.195312 21.579554 0.000000 
0.195312 21.889797 0.000000 
0.585938 21.579554 0.000000 
0.585938 21.889797 0.000000 
0.195312 22.205091 0.000000 
0.195312 22.526182 0.000000 
0.585938 22.205091 0.000000 
0.585938 22.526182 0.000000 
0.195312 22.852543 0.000000 
0.195312 23.186214 0.000000 
0.585938 22.852543 0.000000 
0.585938 23.186214 0.000000 
0.195312 23.526199 0.000000 
0.195312 23.873615 0.000000 
0.585938 23.526199 0.000000 
0.585938 23.873615 0.000000 
0.195312 24.228061 0.000000 
0.195312 24.591370 0.000000 
0.585938 24.228061 0.000000 
0.585938 24.591370 0.000000 
0.195312 24.962577 0.000000 
0.195312 25.343436 0.000000 
0.585938 24.962577 0.000000 
0.585938 25.343436 0.000000 

POINT_DATA 256
SCALARS sigma_xx FLOAT 1
LOOKUP_TABLE default
0.000000
-0.000000
0.000000
-0.000000
-0.000000
-0.000000
-0.000000
-0.000000
-0.000000
-0.000000
-0.000000
-0.000000
-0.000000
-0.000000
-0.000000
-0.000000
0.000000
-0.000000
0.000000
-0.000000
-0.000000
-0.000000
-0.000000
-0.000000
-0.000000
-0.000000
-0.000000
-0.000000
-0.000000
0.000000
-0.000000
-0.000000
-0.000000
-0.000000
-0.000000
-0.000000
-0.000000
-0.000000
-0.000000
-0.000000
-0.000000
0.000000
-0.000000
0.000000
-0.000000
-0.000000
-0.000000
-0.000000
-0.000000
-0.000000
-0.000000
-0.000000
-0.000000
-0.000000
-0.000000
-0.000000
-0.000000
-0.000000
-0.000000
-0.000000
-0.000000
0.000000
-0.000000
-0.000000
-0.000000
-0.000000
-0.000000
-0.000000
0.000000
0.000000
0.000000
0.000000
-0.000000
-0.000000
-0.000000
-0.000000
-0.000000
-0.000000
-0.000000
-0.000000
-0.000000
-0.000000
-0.000000
-0.000000
-0.000000
-0.000000
-0.000000
-0.000000
-0.000000
-0.000000
-0.000000
-0.000000
-0.000000
-0.000000
-0.000000
-0.000000
-0.000000
-0.000000
-0.000000
-0.000000
-0.000000
-0.000000
-0.000000
-0.000000
-0.000000
0.000000
-0.000000
0.000000
0.000000
-0.000000
-0.000000
-0.000000
-0.000000
-0.000000
-0.000000
-0.000000
-0.000000
-0.000000
-0.000000
-0.000000
-0.000000
-0.000000
-0.000000
-0.000000
-0.000000
-0.000000
-0.000000
-0.000000
-0.000000
-0.000000
-0.000000
-0.000000
-0.000000
-0.000000
-0.000000
-0.000000
-0.000000
-0.000000
-0.000000
-0.000000
0.000000
-0.000000
0.000000
-0.000000
-0.000000
-0.000000
-0.000000
-0.000000
-0.000000
-0.000000
-0.000000
-0.000000
-0.000000
-0.000000
-0.000000
-0.000000
-0.000000
-0.000000
-0.000000
-0.000000
-0.000000
-0.000000
-0.000000
-0.000000
-0.000000
-0.000000
-0.000000
-0.000000
-0.000000
-0.000000
-0.000000
-0.000000
-0.000000
0.000000
-0.000000
0.000000
-0.000000
-0.000000
-0.000000
-0.000000
-0.000000
-0.000000
-0.000000
-0.000000
-0.000000
0.000000
-0.000000
0.000000
-0.000000
0.000000
-0.000000
-0.000000
-0.000000
-0.000000
-0.000000
-0.000000
-0.000000
-0.000000
-0.000000
-0.000000
-0.000000
-0.000000
-0.000000
-0.000000
-0.000000
-0.000000
-0.000000
-0.000000
-0.000000
-0.000000
-0.000000
-0.000000
-0.000000
-0.000000
-0.000000
-0.000000
-0.000000
-0.000000
-0.000000
-0.000000
0.000000
0.000000
0.000000
0.000000
0.000000
0.000000
0.000000
0.000000
-0.000000
-0.000000
-0.000000
-0.000000
-0.000000
-0.000000
0.000000
-0.000000
-0.000000
-0.000000
-0.000000
-0.000000
0.000000
-0.000000
0.000000
-0.000000
0.000000
-0.000000
-0.000000
-0.000000
-0.000000
-0.000000
0.000000
-0.000000
0.000000
0.000000
0.000000
-0.000000

SCALARS sigma_yy FLOAT 1
LOOKUP_TABLE default
-33650.845578
-33650.845578
-33650.845578
-33650.845578
-33418.915716
-33150.978901
-33418.915716
-33150.978901
-32820.573458
-32520.904301
-32820.573458
-32520.904301
-32235.653021
-32031.735844
-32235.653021
-32031.735844
-31759.431383
-31502.333785
-31759.431383
-31502.333785
-31206.839716
-30939.375619
-31206.839716
-30939.375619
-30660.673798
-30426.777305
-30660.673798
-30426.777305
-30154.387022
-29898.278347
-30154.387022
-29898.278347
-29604.459840
-29355.887836
-29604.459840
-29355.887836
-29078.383469
-28843.507978
-29078.383469
-28843.507978
-28548.110929
-28291.346758
-28548.110929
-28291.346758
-27990.646227
-27767.334634
-27990.646227
-27767.334634
-27483.793546
-27242.656729
-27483.793546
-27242.656729
-26951.425100
-26704.641960
-26951.425100
-26704.641960
-26408.314159
-26180.665653
-26408.314159
-26180.665653
-25891.175617
-25654.651672
-25891.175617
-25654.651672
-25369.436748
-25093.034240
-25369.436748
-25093.034240
-24838.041119
-24581.550129
-24838.041119
-24581.550129
-24303.568825
-24033.964424
-24303.568825
-24033.964424
-23764.176335
-23508.549963
-23764.176335
-23508.549963
-23227.175706
-22996.180001
-23227.175706
-22996.180001
-22706.759383
-22449.833492
-22706.759383
-22449.833492
-22150.306613
-21931.047799
-22150.306613
-21931.047799
-21638.896653
-21396.000900
-21638.896653
-21396.000900
-21114.780344
-20847.555834
-21114.780344
-20847.555834
-20590.788062
-20318.957426
-20590.788062
-20318.957426
-20037.202978
-19796.077154
-20037.202978
-19796.077154
-19523.248856
-19272.938270
-19523.248856
-19272.938270
-18994.004527
-18738.353345
-18994.004527
-18738.353345
-18445.426900
-18193.457589
-18445.426900
-18193.457589
-17912.250988
-17666.234267
-17912.250988
-17666.234267
-17390.761059
-17157.427269
-17390.761059
-17157.427269
-16855.412970
-16623.124730
-16855.412970
-16623.124730
-16313.053425
-16078.202232
-16313.053425
-16078.202232
-15796.705325
-15556.281664
-15796.705325
-15556.281664
-15275.934514
-15015.833877
-15275.934514
-15015.833877
-14739.527015
-14477.138407
-14739.527015
-14477.138407
-14201.816233
-13945.106893
-14201.816233
-13945.106893
-13664.531046
-13424.099906
-13664.531046
-13424.099906
-13166.917260
-12878.890093
-13166.917260
-12878.890093
-12629.061985
-12331.707118
-12629.061985
-12331.707118
-12066.250231
-11796.497006
-12066.250231
-11796.497006
-11559.447086
-11306.432225
-11559.447086
-11306.432225
-11041.035155
-10774.750832
-11041.035155
-10774.750832
-10490.103467
-10206.317187
-10490.103467
-10206.317187
-9943.810698
-9685.904964
-9943.810698
-9685.904964
-9441.313914
-9162.155591
-9441.313914
-9162.155591
-8905.973025
-8653.117439
-8905.973025
-8653.117439
-8357.572625
-8114.006847
-8357.572625
-8114.006847
-7822.830961
-7589.846632
-7822.830961
-7589.846632
-7290.378324
-7044.071503
-7290.378324
-7044.071503
-6769.560417
-6506.091450
-6769.560417
-6506.091450
-6248.396130
-5977.337919
-6248.396130
-5977.337919
-5714.275931
-5446.205446
-5714.275931
-5446.205446
-5176.083764
-4916.464823
-5176.083764
-4916.464823
-4642.158442
-4385.141065
-4642.158442
-4385.141065
-4094.168068
-3849.105621
-4094.168068
-3849.105621
-3590.428194
-3349.738856
-3590.428194
-3349.738856
-3042.289125
-2783.838650
-3042.289125
-2783.838650
-2512.710573
-2281.586775
-2512.710573
-2281.586775
-1998.138654
-1718.358167
-1998.138654
-1718.358167
-1457.741440
-1199.421648
-1457.741440
-1199.421648
-920.490619
-659.405189
-920.490619
-659.405189
-400.998114
-116.162702
-400.998114
-116.162702

SCALARS sigma_zz FLOAT 1
LOOKUP_TABLE default
0.000000
0.000000
0.000000
0.000000
0.000000
0.000000
0.000000
0.000000
0.000000
0.000000
0.000000
0.000000
0.000000
0.000000
0.000000
0.000000
0.000000
0.000000
0.000000
0.000000
0.000000
0.000000
0.000000
0.000000
0.000000
0.000000
0.000000
0.000000
0.000000
0.000000
0.000000
0.000000
0.000000
0.000000
0.000000
0.000000
0.000000
0.000000
0.000000
0.000000
0.000000
0.000000
0.000000
0.000000
0.000000
0.000000
0.000000
0.000000
0.000000
0.000000
0.000000
0.000000
0.000000
0.000000
0.000000
0.000000
0.000000
0.000000
0.000000
0.000000
0.000000
0.000000
0.000000
0.000000
0.000000
0.000000
0.000000
0.000000
0.000000
0.000000
0.000000
0.000000
0.000000
0.000000
0.000000
0.000000
0.000000
0.000000
0.000000
0.000000
0.000000
0.000000
0.000000
0.000000
0.000000
0.000000
0.000000
0.000000
0.000000
0.000000
0.000000
0.000000
0.000000
0.000000
0.000000
0.000000
0.000000
0.000000
0.000000
0.000000
0.000000
0.000000
0.000000
0.000000
0.000000
0.000000
0.000000
0.000000
0.000000
0.000000
0.000000
0.000000
0.000000
0.000000
0.000000
0.000000
0.000000
0.000000
0.000000
0.000000
0.000000
0.000000
0.000000
0.000000
0.000000
0.000000
0.000000
0.000000
0.000000
0.000000
0.000000
0.000000
0.000000
0.000000
0.000000
0.000000
0.000000
0.000000
0.000000
0.000000
0.000000
0.000000
0.000000
0.000000
0.000000
0.000000
0.000000
0.000000
0.000000
0.000000
0.000000
0.000000
0.000000
0.000000
0.000000
0.000000
0.000000
0.000000
0.000000
0.000000
0.000000
0.000000
0.000000
0.000000
0.000000
0.000000
0.000000
0.000000
0.000000
0.000000
0.000000
0.000000
0.000000
0.000000
0.000000
0.000000
0.000000
0.000000
0.000000
0.000000
0.000000
0.000000
0.000000
0.000000
0.000000
0.000000
0.000000
0.000000
0.000000
0.000000
0.000000
0.000000
0.000000
0.000000
0.000000
0.000000
0.000000
0.000000
0.000000
0.000000
0.000000
0.000000
0.000000
0.000000
0.000000
0.000000
0.000000
0.000000
0.000000
0.000000
0.000000
0.000000
0.000000
0.000000
0.000000
0.000000
0.000000
0.000000
0.000000
0.000000
0.000000
0.000000
0.000000
0.000000
0.000000
0.000000
0.000000
0.000000
0.000000
0.000000
0.000000
0.000000
0.000000
0.000000
0.000000
0.000000
0.000000
0.000000
0.000000
0.000000
0.000000
0.000000
0.000000
0.000000
0.000000
0.000000
0.000000
0.000000
0.000000
0.000000
0.000000
0.000000
0.000000
0.000000
0.000000
0.000000

SCALARS sigma_xy FLOAT 1
LOOKUP_TABLE default
0.000000
0.000000
0.000000
0.000000
0.000000
0.000000
0.000000
0.000000
0.000000
0.000000
0.000000
0.000000
0.000000
0.000000
0.000000
0.000000
0.000000
-0.000000
0.000000
-0.000000
-0.000000
-0.000000
-0.000000
-0.000000
-0.000000
-0.000000
-0.000000
-0.000000
-0.000000
0.000000
-0.000000
-0.000000
0.000000
0.000000
0.000000
0.000000
0.000000
0.000000
0.000000
0.000000
0.000000
0.000000
0.000000
0.000000
-0.000000
-0.000000
-0.000000
-0.000000
-0.000000
-0.000000
-0.000000
-0.000000
-0.000000
-0.000000
-0.000000
-0.000000
0.000000
0.000000
0.000000
0.000000
0.000000
0.000000
0.000000
0.000000
0.000000
0.000000
0.000000
0.000000
0.000000
0.000000
0.000000
0.000000
-0.000000
0.000000
-0.000000
0.000000
0.000000
0.000000
0.000000
0.000000
0.000000
-0.000000
0.000000
-0.000000
-0.000000
-0.000000
-0.000000
-0.000000
-0.000000
0.000000
-0.000000
0.000000
0.000000
0.000000
0.000000
0.000000
0.000000
-0.000000
0.000000
-0.000000
-0.000000
-0.000000
-0.000000
-0.000000
-0.000000
0.000000
-0.000000
0.000000
0.000000
0.000000
0.000000
0.000000
0.000000
0.000000
0.000000
0.000000
-0.000000
-0.000000
-0.000000
-0.000000
-0.000000
0.000000
-0.000000
0.000000
0.000000
-0.000000
0.000000
-0.000000
-0.000000
-0.000000
-0.000000
-0.000000
0.000000
0.000000
0.000000
0.000000
0.000000
0.000000
0.000000
0.000000
0.000000
-0.000000
0.000000
-0.000000
-0.000000
-0.000000
-0.000000
-0.000000
0.000000
0.000000
0.000000
0.000000
0.000000
0.000000
0.000000
0.000000
-0.000000
-0.000000
-0.000000
-0.000000
-0.000000
-0.000000
-0.000000
-0.000000
-0.000000
0.000000
-0.000000
0.000000
0.000000
0.000000
0.000000
0.000000
0.000000
0.000000
0.000000
0.000000
0.000000
-0.000000
0.000000
-0.000000
-0.000000
-0.000000
-0.000000
-0.000000
0.000000
0.000000
0.000000
0.000000
0.000000
0.000000
0.000000
-0.000000
0.000000
-0.000000
0.000000
-0.000000
0.000000
-0.000000
0.000000
-0.000000
0.000000
-0.000000
0.000000
-0.000000
0.000000
-0.000000
0.000000
-0.000000
0.000000
-0.000000
0.000000
-0.000000
-0.000000
-0.000000
-0.000000
-0.000000
0.000000
0.000000
0.000000
0.000000
0.000000
0.000000
0.000000
0.000000
0.000000
0.000000
0.000000
0.000000
0.000000
0.000000
0.000000
0.000000
0.000000
0.000000
0.000000
0.000000
-0.000000
-0.000000
-0.000000
-0.000000
0.000000
0.000000
0.000000
0.000000
0.000000
0.000000
-0.000000
0.000000
0.000000
0.000000
0.000000
0.000000
0.000000
0.000000
0.000000
-0.000000

SCALARS sigma_yz FLOAT 1
LOOKUP_TABLE default
0.000000
0.000000
0.000000
0.000000
0.000000
0.000000
0.000000
0.000000
0.000000
0.000000
0.000000
0.000000
0.000000
0.000000
0.000000
0.000000
0.000000
0.000000
0.000000
0.000000
0.000000
0.000000
0.000000
0.000000
0.000000
0.000000
0.000000
0.000000
0.000000
0.000000
0.000000
0.000000
0.000000
0.000000
0.000000
0.000000
0.000000
0.000000
0.000000
0.000000
0.000000
0.000000
0.000000
0.000000
0.000000
0.000000
0.000000
0.000000
0.000000
0.000000
0.000000
0.000000
0.000000
0.000000
0.000000
0.000000
0.000000
0.000000
0.000000
0.000000
0.000000
0.000000
0.000000
0.000000
0.000000
0.000000
0.000000
0.000000
0.000000
0.000000
0.000000
0.000000
0.000000
0.000000
0.000000
0.000000
0.000000
0.000000
0.000000
0.000000
0.000000
0.000000
0.000000
0.000000
0.000000
0.000000
0.000000
0.000000
0.000000
0.000000
0.000000
0.000000
0.000000
0.000000
0.000000
0.000000
0.000000
0.000000
0.000000
0.000000
0.000000
0.000000
0.000000
0.000000
0.000000
0.000000
0.000000
0.000000
0.000000
0.000000
0.000000
0.000000
0.000000
0.000000
0.000000
0.000000
0.000000
0.000000
0.000000
0.000000
0.000000
0.000000
0.000000
0.000000
0.000000
0.000000
0.000000
0.000000
0.000000
0.000000
0.000000
0.000000
0.000000
0.000000
0.000000
0.000000
0.000000
0.000000
0.000000
0.000000
0.000000
0.000000
0.000000
0.000000
0.000000
0.000000
0.000000
0.000000
0.000000
0.000000
0.000000
0.000000
0.000000
0.000000
0.000000
0.000000
0.000000
0.000000
0.000000
0.000000
0.000000
0.000000
0.000000
0.000000
0.000000
0.000000
0.000000
0.000000
0.000000
0.000000
0.000000
0.000000
0.000000
0.000000
0.000000
0.000000
0.000000
0.000000
0.000000
0.000000
0.000000
0.000000
0.000000
0.000000
0.000000
0.000000
0.000000
0.000000
0.000000
0.000000
0.000000
0.000000
0.000000
0.000000
0.000000
0.000000
0.000000
0.000000
0.000000
0.000000
0.000000
0.000000
0.000000
0.000000
0.000000
0.000000
0.000000
0.000000
0.000000
0.000000
0.000000
0.000000
0.000000
0.000000
0.000000
0.000000
0.000000
0.000000
0.000000
0.000000
0.000000
0.000000
0.000000
0.000000
0.000000
0.000000
0.000000
0.000000
0.000000
0.000000
0.000000
0.000000
0.000000
0.000000
0.000000
0.000000
0.000000
0.000000
0.000000
0.000000
0.000000
0.000000
0.000000
0.000000
0.000000
0.000000
0.000000
0.000000
0.000000
0.000000
0.000000
0.000000
0.000000
0.000000
0.000000
0.000000

SCALARS sigma_zx FLOAT 1
LOOKUP_TABLE default
0.000000
0.000000
0.000000
0.000000
0.000000
0.000000
0.000000
0.000000
0.000000
0.000000
0.000000
0.000000
0.000000
0.000000
0.000000
0.000000
0.000000
0.000000
0.000000
0.000000
0.000000
0.000000
0.000000
0.000000
0.000000
0.000000
0.000000
0.000000
0.000000
0.000000
0.000000
0.000000
0.000000
0.000000
0.000000
0.000000
0.000000
0.000000
0.000000
0.000000
0.000000
0.000000
0.000000
0.000000
0.000000
0.000000
0.000000
0.000000
0.000000
0.000000
0.000000
0.000000
0.000000
0.000000
0.000000
0.000000
0.000000
0.000000
0.000000
0.000000
0.000000
0.000000
0.000000
0.000000
0.000000
0.000000
0.000000
0.000000
0.000000
0.000000
0.000000
0.000000
0.000000
0.000000
0.000000
0.000000
0.000000
0.000000
0.000000
0.000000
0.000000
0.000000
0.000000
0.000000
0.000000
0.000000
0.000000
0.000000
0.000000
0.000000
0.000000
0.000000
0.000000
0.000000
0.000000
0.000000
0.000000
0.000000
0.000000
0.000000
0.000000
0.000000
0.000000
0.000000
0.000000
0.000000
0.000000
0.000000
0.000000
0.000000
0.000000
0.000000
0.000000
0.000000
0.000000
0.000000
0.000000
0.000000
0.000000
0.000000
0.000000
0.000000
0.000000
0.000000
0.000000
0.000000
0.000000
0.000000
0.000000
0.000000
0.000000
0.000000
0.000000
0.000000
0.000000
0.000000
0.000000
0.000000
0.000000
0.000000
0.000000
0.000000
0.000000
0.000000
0.000000
0.000000
0.000000
0.000000
0.000000
0.000000
0.000000
0.000000
0.000000
0.000000
0.000000
0.000000
0.000000
0.000000
0.000000
0.000000
0.000000
0.000000
0.000000
0.000000
0.000000
0.000000
0.000000
0.000000
0.000000
0.000000
0.000000
0.000000
0.000000
0.000000
0.000000
0.000000
0.000000
0.000000
0.000000
0.000000
0.000000
0.000000
0.000000
0.000000
0.000000
0.000000
0.000000
0.000000
0.000000
0.000000
0.000000
0.000000
0.000000
0.000000
0.000000
0.000000
0.000000
0.000000
0.000000
0.000000
0.000000
0.000000
0.000000
0.000000
0.000000
0.000000
0.000000
0.000000
0.000000
0.000000
0.000000
0.000000
0.000000
0.000000
0.000000
0.000000
0.000000
0.000000
0.000000
0.000000
0.000000
0.000000
0.000000
0.000000
0.000000
0.000000
0.000000
0.000000
0.000000
0.000000
0.000000
0.000000
0.000000
0.000000
0.000000
0.000000
0.000000
0.000000
0.000000
0.000000
0.000000
0.000000
0.000000
0.000000
0.000000
0.000000
0.000000
0.000000
0.000000
0.000000
0.000000
0.000000
0.000000
0.000000
0.000000
0.000000

SCALARS u_x FLOAT 1
LOOKUP_TABLE default
0.000000
0.000000
0.000000
0.000000
0.000000
0.000000
0.000000
0.000000
0.000000
0.000000
0.000000
0.000000
0.000000
0.000000
0.000000
0.000000
0.000000
0.000000
0.000000
0.000000
0.000000
0.000000
0.000000
0.000000
0.000000
0.000000
0.000000
0.000000
0.000000
0.000000
0.000000
0.000000
0.000000
0.000000
0.000000
0.000000
0.000000
0.000000
0.000000
0.000000
0.000000
0.000000
0.000000
0.000000
0.000000
0.000000
0.000000
0.000000
0.000000
0.000000
0.000000
0.000000
0.000000
0.000000
0.000000
0.000000
0.000000
0.000000
0.000000
0.000000
0.000000
0.000000
0.000000
0.000000
0.000000
0.000000
0.000000
0.000000
0.000000
0.000000
0.000000
0.000000
0.000000
0.000000
0.000000
0.000000
0.000000
0.000000
0.000000
0.000000
0.000000
0.000000
0.000000
0.000000
0.000000
0.000000
0.000000
0.000000
0.000000
0.000000
0.000000
0.000000
0.000000
0.000000
0.000000
0.000000
0.000000
0.000000
0.000000
0.000000
0.000000
0.000000
0.000000
0.000000
0.000000
0.000000
0.000000
0.000000
0.000000
0.000000
0.000000
0.000000
0.000000
0.000000
0.000000
0.000000
0.000000
0.000000
0.000000
0.000000
0.000000
0.000000
0.000000
0.000000
0.000000
0.000000
0.000000
0.000000
0.000000
0.000000
0.000000
0.000000
0.000000
0.000000
0.000000
0.000000
0.000000
0.000000
0.000000
0.000000
0.000000
0.000000
0.000000
0.000000
0.000000
0.000000
0.000000
0.000000
0.000000
0.000000
0.000000
0.000000
0.000000
0.000000
0.000000
0.000000
0.000000
0.000000
0.000000
0.000000
0.000000
0.000000
0.000000
0.000000
0.000000
0.000000
0.000000
0.000000
0.000000
0.000000
0.000000
0.000000
0.000000
0.000000
0.000000
0.000000
0.000000
0.000000
0.000000
0.000000
0.000000
0.000000
0.000000
0.000000
0.000000
0.000000
0.000000
0.000000
0.000000
0.000000
0.000000
0.000000
0.000000
0.000000
0.000000
0.000000
0.000000
0.000000
0.000000
0.000000
0.000000
0.000000
0.000000
0.000000
0.000000
0.000000
0.000000
0.000000
0.000000
0.000000
0.000000
0.000000
0.000000
0.000000
0.000000
0.000000
0.000000
0.000000
0.000000
0.000000
0.000000
0.000000
0.000000
0.000000
0.000000
0.000000
0.000000
0.000000
0.000000
0.000000
0.000000
0.000000
0.000000
0.000000
0.000000
0.000000
0.000000
0.000000
0.000000
0.000000
0.000000
0.000000
0.000000
0.000000
0.000000
0.000000
0.000000
0.000000
0.000000
0.000000
0.000000
0.000000
0.000000
0.000000
0.000000
0.000000

SCALARS u_y FLOAT 1
LOOKUP_TABLE default
-0.130915
-0.392744
-0.130915
-0.392744
-0.654397
-0.915463
-0.654397
-0.915463
-1.175957
-1.435764
-1.175957
-1.435764
-1.694957
-1.953640
-1.694957
-1.953640
-2.211821
-2.469415
-2.211821
-2.469415
-2.726412
-2.982771
-2.726412
-2.982771
-3.238520
-3.493685
-3.238520
-3.493685
-3.748288
-4.002264
-3.748288
-4.002264
-4.255611
-4.508303
-4.255611
-4.508303
-4.760359
-5.011799
-4.760359
-5.011799
-5.262573
-5.512676
-5.262573
-5.512676
-5.762084
-6.010818
-5.762084
-6.010818
-6.258883
-6.506281
-6.258883
-6.506281
-6.752963
-6.998970
-6.752963
-6.998970
-7.244199
-7.488714
-7.244199
-7.488714
-7.732541
-7.975620
-7.732541
-7.975620
-8.217940
-8.459436
-8.217940
-8.459436
-8.700230
-8.940177
-8.700230
-8.940177
-9.179372
-9.417714
-9.179372
-9.417714
-9.655261
-9.891959
-9.655261
-9.891959
-10.127792
-10.362891
-10.127792
-10.362891
-10.597020
-10.830356
-10.597020
-10.830356
-11.062683
-11.294200
-11.062683
-11.294200
-11.524787
-11.754464
-11.524787
-11.754464
-11.983218
-12.210934
-11.983218
-12.210934
-12.437758
-12.663594
-12.437758
-12.663594
-12.888332
-13.112166
-12.888332
-13.112166
-13.334885
-13.556646
-13.334885
-13.556646
-13.777335
-13.996953
-13.777335
-13.996953
-14.215429
-14.432767
-14.215429
-14.432767
-14.648956
-14.863957
-14.648956
-14.863957
-15.077884
-15.290624
-15.077884
-15.290624
-15.502099
-15.712421
-15.502099
-15.712421
-15.921355
-16.129062
-15.921355
-16.129062
-16.335521
-16.540539
-16.335521
-16.540539
-16.744361
-16.946674
-16.744361
-16.946674
-17.147652
-17.347147
-17.147652
-17.347147
-17.545169
-17.741648
-17.545169
-17.741648
-17.936628
-18.130079
-17.936628
-18.130079
-18.322074
-18.512350
-18.322074
-18.512350
-18.701015
-18.887830
-18.701015
-18.887830
-19.072936
-19.256221
-19.072936
-19.256221
-19.437682
-19.617641
-19.437682
-19.617641
-19.795560
-19.971679
-19.795560
-19.971679
-20.145673
-20.317576
-20.145673
-20.317576
-20.487150
-20.654747
-20.487150
-20.654747
-20.820265
-20.983553
-20.820265
-20.983553
-21.144458
-21.303257
-21.144458
-21.303257
-21.459355
-21.613019
-21.459355
-21.613019
-21.763963
-21.912452
-21.763963
-21.912452
-22.058106
-22.200780
-22.058106
-22.200780
-22.340751
-22.477473
-22.340751
-22.477473
-22.611327
-22.741797
-22.611327
-22.741797
-22.869187
-22.992996
-22.869187
-22.992996
-23.113072
-23.229627
-23.113072
-23.229627
-23.342197
-23.450958
-23.342197
-23.450958
-23.555156
-23.655121
-23.555156
-23.655121
-23.750722
-23.841937
-23.750722
-23.841937
-23.928258
-24.008641
-23.928258
-24.008641
-24.083972
-24.153506
-24.083972
-24.153506
-24.217770
-24.274723
-24.217770
-24.274723
-24.325363
-24.368572
-24.325363
-24.368572
-24.404751
-24.432068
-24.404751
-24.432068
-24.451485
-24.461251
-24.451485
-24.461251

