# vtk DataFile Version 2.0
MATLAB generated vtk file, WMC
ASCII
DATASET UNSTRUCTURED_GRID
POINTS 256 double
0.195312 0.062482 0.000000 
0.195312 0.187445 0.000000 
0.585938 0.062482 0.000000 
0.585938 0.187445 0.000000 
0.195312 0.312581 0.000000 
0.195312 0.438285 0.000000 
0.585938 0.312581 0.000000 
0.585938 0.438285 0.000000 
0.195312 0.564544 0.000000 
0.195312 0.691471 0.000000 
0.585938 0.564544 0.000000 
0.585938 0.691471 0.000000 
0.195312 0.819018 0.000000 
0.195312 0.947091 0.000000 
0.585938 0.819018 0.000000 
0.585938 0.947091 0.000000 
0.195312 1.075653 0.000000 
0.195312 1.204785 0.000000 
0.585938 1.075653 0.000000 
0.585938 1.204785 0.000000 
0.195312 1.334496 0.000000 
0.195312 1.464827 0.000000 
0.585938 1.334496 0.000000 
0.585938 1.464827 0.000000 
0.195312 1.595767 0.000000 
0.195312 1.727293 0.000000 
0.585938 1.595767 0.000000 
0.585938 1.727293 0.000000 
0.195312 1.859365 0.000000 
0.195312 1.992046 0.000000 
0.585938 1.859365 0.000000 
0.585938 1.992046 0.000000 
0.195312 2.125337 0.000000 
0.195312 2.259266 0.000000 
0.585938 2.125337 0.000000 
0.585938 2.259266 0.000000 
0.195312 2.393835 0.000000 
0.195312 2.529006 0.000000 
0.585938 2.393835 0.000000 
0.585938 2.529006 0.000000 
0.195312 2.664826 0.000000 
0.195312 2.801296 0.000000 
0.585938 2.664826 0.000000 
0.585938 2.801296 0.000000 
0.195312 2.938442 0.000000 
0.195312 3.076256 0.000000 
0.585938 2.938442 0.000000 
0.585938 3.076256 0.000000 
0.195312 3.214776 0.000000 
0.195312 3.353952 0.000000 
0.585938 3.214776 0.000000 
0.585938 3.353952 0.000000 
0.195312 3.493825 0.000000 
0.195312 3.634353 0.000000 
0.585938 3.493825 0.000000 
0.585938 3.634353 0.000000 
0.195312 3.775641 0.000000 
0.195312 3.917660 0.000000 
0.585938 3.775641 0.000000 
0.585938 3.917660 0.000000 
0.195312 4.060355 0.000000 
0.195312 4.203778 0.000000 
0.585938 4.060355 0.000000 
0.585938 4.203778 0.000000 
0.195312 4.347938 0.000000 
0.195312 4.492898 0.000000 
0.585938 4.347938 0.000000 
0.585938 4.492898 0.000000 
0.195312 4.638556 0.000000 
0.195312 4.785071 0.000000 
0.585938 4.638556 0.000000 
0.585938 4.785071 0.000000 
0.195312 4.932321 0.000000 
0.195312 5.080399 0.000000 
0.585938 4.932321 0.000000 
0.585938 5.080399 0.000000 
0.195312 5.229252 0.000000 
0.195312 5.378944 0.000000 
0.585938 5.229252 0.000000 
0.585938 5.378944 0.000000 
0.195312 5.529518 0.000000 
0.195312 5.680810 0.000000 
0.585938 5.529518 0.000000 
0.585938 5.680810 0.000000 
0.195312 5.833045 0.000000 
0.195312 5.986052 0.000000 
0.585938 5.833045 0.000000 
0.585938 5.986052 0.000000 
0.195312 6.140057 0.000000 
0.195312 6.294907 0.000000 
0.585938 6.140057 0.000000 
0.585938 6.294907 0.000000 
0.195312 6.450674 0.000000 
0.195312 6.607325 0.000000 
0.585938 6.450674 0.000000 
0.585938 6.607325 0.000000 
0.195312 6.764875 0.000000 
0.195312 6.923446 0.000000 
0.585938 6.764875 0.000000 
0.585938 6.923446 0.000000 
0.195312 7.082923 0.000000 
0.195312 7.243369 0.000000 
0.585938 7.082923 0.000000 
0.585938 7.243369 0.000000 
0.195312 7.404883 0.000000 
0.195312 7.567283 0.000000 
0.585938 7.404883 0.000000 
0.585938 7.567283 0.000000 
0.195312 7.730850 0.000000 
0.195312 7.895400 0.000000 
0.585938 7.730850 0.000000 
0.585938 7.895400 0.000000 
0.195312 8.060998 0.000000 
0.195312 8.227638 0.000000 
0.585938 8.060998 0.000000 
0.585938 8.227638 0.000000 
0.195312 8.395385 0.000000 
0.195312 8.564229 0.000000 
0.585938 8.395385 0.000000 
0.585938 8.564229 0.000000 
0.195312 8.734197 0.000000 
0.195312 8.905320 0.000000 
0.585938 8.734197 0.000000 
0.585938 8.905320 0.000000 
0.195312 9.077496 0.000000 
0.195312 9.250921 0.000000 
0.585938 9.077496 0.000000 
0.585938 9.250921 0.000000 
0.195312 9.425650 0.000000 
0.195312 9.601510 0.000000 
0.585938 9.425650 0.000000 
0.585938 9.601510 0.000000 
0.195312 9.778724 0.000000 
0.195312 9.957142 0.000000 
0.585938 9.778724 0.000000 
0.585938 9.957142 0.000000 
0.195312 10.136849 0.000000 
0.195312 10.317998 0.000000 
0.585938 10.136849 0.000000 
0.585938 10.317998 0.000000 
0.195312 10.500315 0.000000 
0.195312 10.684117 0.000000 
0.585938 10.500315 0.000000 
0.585938 10.684117 0.000000 
0.195312 10.869241 0.000000 
0.195312 11.055802 0.000000 
0.585938 10.869241 0.000000 
0.585938 11.055802 0.000000 
0.195312 11.243800 0.000000 
0.195312 11.433327 0.000000 
0.585938 11.243800 0.000000 
0.585938 11.433327 0.000000 
0.195312 11.624430 0.000000 
0.195312 11.817101 0.000000 
0.585938 11.624430 0.000000 
0.585938 11.817101 0.000000 
0.195312 12.011196 0.000000 
0.195312 12.206971 0.000000 
0.585938 12.011196 0.000000 
0.585938 12.206971 0.000000 
0.195312 12.404327 0.000000 
0.195312 12.603493 0.000000 
0.585938 12.404327 0.000000 
0.585938 12.603493 0.000000 
0.195312 12.804330 0.000000 
0.195312 13.006995 0.000000 
0.585938 12.804330 0.000000 
0.585938 13.006995 0.000000 
0.195312 13.211602 0.000000 
0.195312 13.417761 0.000000 
0.585938 13.211602 0.000000 
0.585938 13.417761 0.000000 
0.195312 13.625916 0.000000 
0.195312 13.835834 0.000000 
0.585938 13.625916 0.000000 
0.585938 13.835834 0.000000 
0.195312 14.047813 0.000000 
0.195312 14.261830 0.000000 
0.585938 14.047813 0.000000 
0.585938 14.261830 0.000000 
0.195312 14.478156 0.000000 
0.195312 14.696582 0.000000 
0.585938 14.478156 0.000000 
0.585938 14.696582 0.000000 
0.195312 14.917159 0.000000 
0.195312 15.139929 0.000000 
0.585938 14.917159 0.000000 
0.585938 15.139929 0.000000 
0.195312 15.365100 0.000000 
0.195312 15.592497 0.000000 
0.585938 15.365100 0.000000 
0.585938 15.592497 0.000000 
0.195312 15.822597 0.000000 
0.195312 16.055106 0.000000 
0.585938 15.822597 0.000000 
0.585938 16.055106 0.000000 
0.195312 16.290316 0.000000 
0.195312 16.527916 0.000000 
0.585938 16.290316 0.000000 
0.585938 16.527916 0.000000 
0.195312 16.768309 0.000000 
0.195312 17.011726 0.000000 
0.585938 16.768309 0.000000 
0.585938 17.011726 0.000000 
0.195312 17.257955 0.000000 
0.195312 17.507410 0.000000 
0.585938 17.257955 0.000000 
0.585938 17.507410 0.000000 
0.195312 17.759878 0.000000 
0.195312 18.015796 0.000000 
0.585938 17.759878 0.000000 
0.585938 18.015796 0.000000 
0.195312 18.274761 0.000000 
0.195312 18.537335 0.000000 
0.585938 18.274761 0.000000 
0.585938 18.537335 0.000000 
0.195312 18.803719 0.000000 
0.195312 19.073616 0.000000 
0.585938 18.803719 0.000000 
0.585938 19.073616 0.000000 
0.195312 19.347620 0.000000 
0.195312 19.625497 0.000000 
0.585938 19.347620 0.000000 
0.585938 19.625497 0.000000 
0.195312 19.907927 0.000000 
0.195312 20.194785 0.000000 
0.585938 19.907927 0.000000 
0.585938 20.194785 0.000000 
0.195312 20.486151 0.000000 
0.195312 20.781936 0.000000 
0.585938 20.486151 0.000000 
0.585938 20.781936 0.000000 
0.195312 21.082597 0.000000 
0.195312 21.389222 0.000000 
0.585938 21.082597 0.000000 
0.585938 21.389222 0.000000 
0.195312 21.701460 0.000000 
0.195312 22.019772 0.000000 
0.585938 21.701460 0.000000 
0.585938 22.019772 0.000000 
0.195312 22.343246 0.000000 
0.195312 22.674463 0.000000 
0.585938 22.343246 0.000000 
0.585938 22.674463 0.000000 
0.195312 23.012240 0.000000 
0.195312 23.357470 0.000000 
0.585938 23.012240 0.000000 
0.585938 23.357470 0.000000 
0.195312 23.709612 0.000000 
0.195312 24.071229 0.000000 
0.585938 23.709612 0.000000 
0.585938 24.071229 0.000000 
0.195312 24.441234 0.000000 
0.195312 24.821667 0.000000 
0.585938 24.441234 0.000000 
0.585938 24.821667 0.000000 

POINT_DATA 256
SCALARS sigma_xx FLOAT 1
LOOKUP_TABLE default
0.000000
0.000000
0.000000
0.000000
-0.000000
-0.000000
-0.000000
-0.000000
0.000000
-0.000000
0.000000
-0.000000
-0.000000
-0.000000
-0.000000
-0.000000
0.000000
0.000000
0.000000
0.000000
-0.000000
-0.000000
-0.000000
-0.000000
-0.000000
-0.000000
-0.000000
0.000000
-0.000000
-0.000000
-0.000000
-0.000000
-0.000000
-0.000000
-0.000000
-0.000000
-0.000000
-0.000000
-0.000000
-0.000000
-0.000000
-0.000000
-0.000000
-0.000000
-0.000000
-0.000000
-0.000000
-0.000000
0.000000
0.000000
0.000000
0.000000
-0.000000
-0.000000
-0.000000
-0.000000
-0.000000
-0.000000
-0.000000
-0.000000
-0.000000
-0.000000
-0.000000
-0.000000
0.000000
-0.000000
0.000000
-0.000000
-0.000000
-0.000000
-0.000000
-0.000000
-0.000000
-0.000000
-0.000000
-0.000000
-0.000000
-0.000000
-0.000000
-0.000000
-0.000000
0.000000
-0.000000
-0.000000
-0.000000
-0.000000
-0.000000
-0.000000
-0.000000
0.000000
-0.000000
0.000000
-0.000000
-0.000000
-0.000000
-0.000000
-0.000000
-0.000000
-0.000000
-0.000000
-0.000000
-0.000000
-0.000000
-0.000000
-0.000000
-0.000000
-0.000000
-0.000000
0.000000
-0.000000
-0.000000
-0.000000
-0.000000
0.000000
-0.000000
0.000000
-0.000000
-0.000000
-0.000000
-0.000000
-0.000000
-0.000000
-0.000000
-0.000000
-0.000000
-0.000000
-0.000000
-0.000000
-0.000000
-0.000000
-0.000000
-0.000000
-0.000000
-0.000000
-0.000000
-0.000000
-0.000000
-0.000000
-0.000000
-0.000000
-0.000000
0.000000
-0.000000
-0.000000
-0.000000
-0.000000
-0.000000
-0.000000
-0.000000
-0.000000
-0.000000
-0.000000
-0.000000
-0.000000
-0.000000
-0.000000
-0.000000
-0.000000
-0.000000
-0.000000
-0.000000
0.000000
-0.000000
0.000000
-0.000000
-0.000000
-0.000000
-0.000000
-0.000000
-0.000000
-0.000000
-0.000000
-0.000000
-0.000000
-0.000000
-0.000000
-0.000000
-0.000000
-0.000000
0.000000
-0.000000
-0.000000
-0.000000
-0.000000
-0.000000
-0.000000
-0.000000
-0.000000
-0.000000
-0.000000
-0.000000
-0.000000
-0.000000
-0.000000
-0.000000
-0.000000
-0.000000
-0.000000
-0.000000
-0.000000
-0.000000
-0.000000
-0.000000
-0.000000
-0.000000
-0.000000
-0.000000
-0.000000
-0.000000
-0.000000
-0.000000
0.000000
0.000000
-0.000000
0.000000
-0.000000
-0.000000
-0.000000
-0.000000
-0.000000
-0.000000
-0.000000
-0.000000
-0.000000
-0.000000
0.000000
-0.000000
0.000000
0.000000
-0.000000
0.000000
-0.000000
-0.000000
-0.000000
-0.000000
-0.000000
-0.000000
-0.000000
-0.000000
-0.000000
-0.000000
-0.000000
-0.000000
-0.000000
-0.000000
0.000000
-0.000000
0.000000
0.000000
-0.000000
-0.000000
-0.000000
0.000000
0.000000
0.000000
-0.000000

SCALARS sigma_yy FLOAT 1
LOOKUP_TABLE default
-35626.772363
-35626.772363
-35626.772363
-35626.772363
-35384.305528
-35104.188493
-35384.305528
-35104.188493
-34758.752026
-34445.439470
-34758.752026
-34445.439470
-34120.138849
-33904.923920
-34120.138849
-33904.923920
-33620.386894
-33351.731976
-33620.386894
-33351.731976
-33042.944987
-32762.801114
-33042.944987
-32762.801114
-32455.523864
-32210.366822
-32455.523864
-32210.366822
-31925.806349
-31658.246645
-31925.806349
-31658.246645
-31351.281030
-31086.823349
-31351.281030
-31086.823349
-30788.803308
-30543.472895
-30788.803308
-30543.472895
-30234.916870
-29966.705462
-30234.916870
-29966.705462
-29652.587842
-29400.581643
-29652.587842
-29400.581643
-29090.594114
-28838.885897
-29090.594114
-28838.885897
-28534.876215
-28277.256138
-28534.876215
-28277.256138
-27959.687601
-27711.404043
-27959.687601
-27711.404043
-27409.387407
-27162.567698
-27409.387407
-27162.567698
-26864.926783
-26576.118255
-26864.926783
-26576.118255
-26297.269564
-26024.188163
-26297.269564
-26024.188163
-25734.204952
-25452.949086
-25734.204952
-25452.949086
-25171.490369
-24890.844858
-25171.490369
-24890.844858
-24591.326687
-24350.453351
-24591.326687
-24350.453351
-24048.644685
-23780.710180
-24048.644685
-23780.710180
-23453.093706
-23213.216223
-23453.093706
-23213.216223
-22908.761413
-22655.625340
-22908.761413
-22655.625340
-22362.293108
-22075.079478
-22362.293108
-22075.079478
-21800.510196
-21517.317364
-21800.510196
-21517.317364
-21223.771838
-20963.271744
-21223.771838
-20963.271744
-20654.159822
-20390.022048
-20654.159822
-20390.022048
-20099.739800
-19833.674440
-20099.739800
-19833.674440
-19533.302118
-19270.375658
-19533.302118
-19270.375658
-18977.628035
-18721.501317
-18977.628035
-18721.501317
-18426.680056
-18156.921587
-18426.680056
-18156.921587
-17837.064286
-17595.554985
-17837.064286
-17595.554985
-17273.156890
-17022.503604
-17273.156890
-17022.503604
-16711.499714
-16461.727892
-16711.499714
-16461.727892
-16170.463849
-15894.140569
-16170.463849
-15894.140569
-15608.722150
-15336.396734
-15608.722150
-15336.396734
-15050.333838
-14770.950787
-15050.333838
-14770.950787
-14457.065372
-14204.296281
-14457.065372
-14204.296281
-13937.478279
-13638.152206
-13937.478279
-13638.152206
-13377.907422
-13069.232934
-13377.907422
-13069.232934
-12793.774724
-12496.426970
-12793.774724
-12496.426970
-12223.493182
-11961.488018
-12223.493182
-11961.488018
-11686.530100
-11411.453645
-11686.530100
-11411.453645
-11119.482870
-10825.465219
-11119.482870
-10825.465219
-10539.921120
-10251.029048
-10539.921120
-10251.029048
-9992.784269
-9702.576692
-9992.784269
-9702.576692
-9422.214592
-9145.127895
-9422.214592
-9145.127895
-8840.096165
-8582.943876
-8840.096165
-8582.943876
-8284.069309
-8044.015870
-8284.069309
-8044.015870
-7730.936623
-7460.513985
-7730.936623
-7460.513985
-7170.832438
-6890.072417
-7170.832438
-6890.072417
-6607.642325
-6324.525887
-6607.642325
-6324.525887
-6051.242720
-5764.945257
-6051.242720
-5764.945257
-5481.793089
-5207.295796
-5481.793089
-5207.295796
-4912.909295
-4646.369124
-4912.909295
-4646.369124
-4340.143611
-4067.640041
-4340.143611
-4067.640041
-3800.589975
-3547.552777
-3800.589975
-3547.552777
-3234.400619
-2951.162878
-3234.400619
-2951.162878
-2646.311343
-2407.634207
-2646.311343
-2407.634207
-2116.513793
-1809.642192
-2116.513793
-1809.642192
-1535.654745
-1283.447446
-1535.654745
-1283.447446
-989.690229
-701.409773
-989.690229
-701.409773
-428.806762
-112.908943
-428.806762
-112.908943

SCALARS sigma_zz FLOAT 1
LOOKUP_TABLE default
0.000000
0.000000
0.000000
0.000000
0.000000
0.000000
0.000000
0.000000
0.000000
0.000000
0.000000
0.000000
0.000000
0.000000
0.000000
0.000000
0.000000
0.000000
0.000000
0.000000
0.000000
0.000000
0.000000
0.000000
0.000000
0.000000
0.000000
0.000000
0.000000
0.000000
0.000000
0.000000
0.000000
0.000000
0.000000
0.000000
0.000000
0.000000
0.000000
0.000000
0.000000
0.000000
0.000000
0.000000
0.000000
0.000000
0.000000
0.000000
0.000000
0.000000
0.000000
0.000000
0.000000
0.000000
0.000000
0.000000
0.000000
0.000000
0.000000
0.000000
0.000000
0.000000
0.000000
0.000000
0.000000
0.000000
0.000000
0.000000
0.000000
0.000000
0.000000
0.000000
0.000000
0.000000
0.000000
0.000000
0.000000
0.000000
0.000000
0.000000
0.000000
0.000000
0.000000
0.000000
0.000000
0.000000
0.000000
0.000000
0.000000
0.000000
0.000000
0.000000
0.000000
0.000000
0.000000
0.000000
0.000000
0.000000
0.000000
0.000000
0.000000
0.000000
0.000000
0.000000
0.000000
0.000000
0.000000
0.000000
0.000000
0.000000
0.000000
0.000000
0.000000
0.000000
0.000000
0.000000
0.000000
0.000000
0.000000
0.000000
0.000000
0.000000
0.000000
0.000000
0.000000
0.000000
0.000000
0.000000
0.000000
0.000000
0.000000
0.000000
0.000000
0.000000
0.000000
0.000000
0.000000
0.000000
0.000000
0.000000
0.000000
0.000000
0.000000
0.000000
0.000000
0.000000
0.000000
0.000000
0.000000
0.000000
0.000000
0.000000
0.000000
0.000000
0.000000
0.000000
0.000000
0.000000
0.000000
0.000000
0.000000
0.000000
0.000000
0.000000
0.000000
0.000000
0.000000
0.000000
0.000000
0.000000
0.000000
0.000000
0.000000
0.000000
0.000000
0.000000
0.000000
0.000000
0.000000
0.000000
0.000000
0.000000
0.000000
0.000000
0.000000
0.000000
0.000000
0.000000
0.000000
0.000000
0.000000
0.000000
0.000000
0.000000
0.000000
0.000000
0.000000
0.000000
0.000000
0.000000
0.000000
0.000000
0.000000
0.000000
0.000000
0.000000
0.000000
0.000000
0.000000
0.000000
0.000000
0.000000
0.000000
0.000000
0.000000
0.000000
0.000000
0.000000
0.000000
0.000000
0.000000
0.000000
0.000000
0.000000
0.000000
0.000000
0.000000
0.000000
0.000000
0.000000
0.000000
0.000000
0.000000
0.000000
0.000000
0.000000
0.000000
0.000000
0.000000
0.000000
0.000000
0.000000
0.000000
0.000000
0.000000
0.000000
0.000000
0.000000
0.000000
0.000000
0.000000
0.000000
0.000000
0.000000
0.000000
0.000000

SCALARS sigma_xy FLOAT 1
LOOKUP_TABLE default
0.000000
0.000000
0.000000
0.000000
-0.000000
-0.000000
-0.000000
-0.000000
0.000000
-0.000000
0.000000
-0.000000
-0.000000
-0.000000
-0.000000
-0.000000
0.000000
0.000000
0.000000
0.000000
0.000000
0.000000
0.000000
0.000000
0.000000
0.000000
0.000000
0.000000
-0.000000
-0.000000
-0.000000
-0.000000
-0.000000
-0.000000
-0.000000
-0.000000
-0.000000
0.000000
-0.000000
0.000000
0.000000
0.000000
0.000000
0.000000
0.000000
0.000000
0.000000
0.000000
0.000000
0.000000
0.000000
0.000000
-0.000000
-0.000000
-0.000000
-0.000000
0.000000
0.000000
0.000000
0.000000
0.000000
-0.000000
0.000000
0.000000
0.000000
-0.000000
0.000000
-0.000000
-0.000000
-0.000000
-0.000000
-0.000000
-0.000000
0.000000
-0.000000
0.000000
0.000000
0.000000
0.000000
0.000000
0.000000
0.000000
0.000000
0.000000
0.000000
-0.000000
0.000000
-0.000000
-0.000000
0.000000
-0.000000
0.000000
0.000000
-0.000000
0.000000
-0.000000
0.000000
-0.000000
0.000000
-0.000000
-0.000000
-0.000000
-0.000000
-0.000000
-0.000000
0.000000
-0.000000
0.000000
0.000000
0.000000
0.000000
0.000000
0.000000
0.000000
0.000000
0.000000
-0.000000
-0.000000
-0.000000
-0.000000
0.000000
0.000000
0.000000
0.000000
0.000000
0.000000
0.000000
0.000000
-0.000000
-0.000000
-0.000000
-0.000000
-0.000000
-0.000000
-0.000000
-0.000000
0.000000
0.000000
0.000000
0.000000
0.000000
0.000000
0.000000
0.000000
-0.000000
-0.000000
-0.000000
-0.000000
0.000000
0.000000
0.000000
0.000000
0.000000
0.000000
0.000000
0.000000
-0.000000
-0.000000
-0.000000
-0.000000
-0.000000
0.000000
0.000000
0.000000
0.000000
0.000000
0.000000
0.000000
0.000000
0.000000
0.000000
0.000000
-0.000000
0.000000
-0.000000
0.000000
0.000000
-0.000000
0.000000
0.000000
-0.000000
-0.000000
-0.000000
-0.000000
-0.000000
-0.000000
-0.000000
-0.000000
0.000000
0.000000
0.000000
0.000000
0.000000
-0.000000
0.000000
-0.000000
0.000000
-0.000000
0.000000
-0.000000
0.000000
-0.000000
0.000000
-0.000000
-0.000000
-0.000000
-0.000000
-0.000000
0.000000
-0.000000
0.000000
0.000000
0.000000
-0.000000
0.000000
-0.000000
0.000000
-0.000000
0.000000
-0.000000
-0.000000
0.000000
-0.000000
0.000000
0.000000
0.000000
0.000000
0.000000
0.000000
0.000000
0.000000
0.000000
0.000000
0.000000
0.000000
0.000000
-0.000000
-0.000000
-0.000000
-0.000000
0.000000
0.000000
0.000000
0.000000
0.000000
0.000000
-0.000000
0.000000
0.000000
0.000000
-0.000000
0.000000
0.000000
0.000000
0.000000
-0.000000

SCALARS sigma_yz FLOAT 1
LOOKUP_TABLE default
0.000000
0.000000
0.000000
0.000000
0.000000
0.000000
0.000000
0.000000
0.000000
0.000000
0.000000
0.000000
0.000000
0.000000
0.000000
0.000000
0.000000
0.000000
0.000000
0.000000
0.000000
0.000000
0.000000
0.000000
0.000000
0.000000
0.000000
0.000000
0.000000
0.000000
0.000000
0.000000
0.000000
0.000000
0.000000
0.000000
0.000000
0.000000
0.000000
0.000000
0.000000
0.000000
0.000000
0.000000
0.000000
0.000000
0.000000
0.000000
0.000000
0.000000
0.000000
0.000000
0.000000
0.000000
0.000000
0.000000
0.000000
0.000000
0.000000
0.000000
0.000000
0.000000
0.000000
0.000000
0.000000
0.000000
0.000000
0.000000
0.000000
0.000000
0.000000
0.000000
0.000000
0.000000
0.000000
0.000000
0.000000
0.000000
0.000000
0.000000
0.000000
0.000000
0.000000
0.000000
0.000000
0.000000
0.000000
0.000000
0.000000
0.000000
0.000000
0.000000
0.000000
0.000000
0.000000
0.000000
0.000000
0.000000
0.000000
0.000000
0.000000
0.000000
0.000000
0.000000
0.000000
0.000000
0.000000
0.000000
0.000000
0.000000
0.000000
0.000000
0.000000
0.000000
0.000000
0.000000
0.000000
0.000000
0.000000
0.000000
0.000000
0.000000
0.000000
0.000000
0.000000
0.000000
0.000000
0.000000
0.000000
0.000000
0.000000
0.000000
0.000000
0.000000
0.000000
0.000000
0.000000
0.000000
0.000000
0.000000
0.000000
0.000000
0.000000
0.000000
0.000000
0.000000
0.000000
0.000000
0.000000
0.000000
0.000000
0.000000
0.000000
0.000000
0.000000
0.000000
0.000000
0.000000
0.000000
0.000000
0.000000
0.000000
0.000000
0.000000
0.000000
0.000000
0.000000
0.000000
0.000000
0.000000
0.000000
0.000000
0.000000
0.000000
0.000000
0.000000
0.000000
0.000000
0.000000
0.000000
0.000000
0.000000
0.000000
0.000000
0.000000
0.000000
0.000000
0.000000
0.000000
0.000000
0.000000
0.000000
0.000000
0.000000
0.000000
0.000000
0.000000
0.000000
0.000000
0.000000
0.000000
0.000000
0.000000
0.000000
0.000000
0.000000
0.000000
0.000000
0.000000
0.000000
0.000000
0.000000
0.000000
0.000000
0.000000
0.000000
0.000000
0.000000
0.000000
0.000000
0.000000
0.000000
0.000000
0.000000
0.000000
0.000000
0.000000
0.000000
0.000000
0.000000
0.000000
0.000000
0.000000
0.000000
0.000000
0.000000
0.000000
0.000000
0.000000
0.000000
0.000000
0.000000
0.000000
0.000000
0.000000
0.000000
0.000000
0.000000
0.000000
0.000000
0.000000
0.000000
0.000000
0.000000
0.000000
0.000000

SCALARS sigma_zx FLOAT 1
LOOKUP_TABLE default
0.000000
0.000000
0.000000
0.000000
0.000000
0.000000
0.000000
0.000000
0.000000
0.000000
0.000000
0.000000
0.000000
0.000000
0.000000
0.000000
0.000000
0.000000
0.000000
0.000000
0.000000
0.000000
0.000000
0.000000
0.000000
0.000000
0.000000
0.000000
0.000000
0.000000
0.000000
0.000000
0.000000
0.000000
0.000000
0.000000
0.000000
0.000000
0.000000
0.000000
0.000000
0.000000
0.000000
0.000000
0.000000
0.000000
0.000000
0.000000
0.000000
0.000000
0.000000
0.000000
0.000000
0.000000
0.000000
0.000000
0.000000
0.000000
0.000000
0.000000
0.000000
0.000000
0.000000
0.000000
0.000000
0.000000
0.000000
0.000000
0.000000
0.000000
0.000000
0.000000
0.000000
0.000000
0.000000
0.000000
0.000000
0.000000
0.000000
0.000000
0.000000
0.000000
0.000000
0.000000
0.000000
0.000000
0.000000
0.000000
0.000000
0.000000
0.000000
0.000000
0.000000
0.000000
0.000000
0.000000
0.000000
0.000000
0.000000
0.000000
0.000000
0.000000
0.000000
0.000000
0.000000
0.000000
0.000000
0.000000
0.000000
0.000000
0.000000
0.000000
0.000000
0.000000
0.000000
0.000000
0.000000
0.000000
0.000000
0.000000
0.000000
0.000000
0.000000
0.000000
0.000000
0.000000
0.000000
0.000000
0.000000
0.000000
0.000000
0.000000
0.000000
0.000000
0.000000
0.000000
0.000000
0.000000
0.000000
0.000000
0.000000
0.000000
0.000000
0.000000
0.000000
0.000000
0.000000
0.000000
0.000000
0.000000
0.000000
0.000000
0.000000
0.000000
0.000000
0.000000
0.000000
0.000000
0.000000
0.000000
0.000000
0.000000
0.000000
0.000000
0.000000
0.000000
0.000000
0.000000
0.000000
0.000000
0.000000
0.000000
0.000000
0.000000
0.000000
0.000000
0.000000
0.000000
0.000000
0.000000
0.000000
0.000000
0.000000
0.000000
0.000000
0.000000
0.000000
0.000000
0.000000
0.000000
0.000000
0.000000
0.000000
0.000000
0.000000
0.000000
0.000000
0.000000
0.000000
0.000000
0.000000
0.000000
0.000000
0.000000
0.000000
0.000000
0.000000
0.000000
0.000000
0.000000
0.000000
0.000000
0.000000
0.000000
0.000000
0.000000
0.000000
0.000000
0.000000
0.000000
0.000000
0.000000
0.000000
0.000000
0.000000
0.000000
0.000000
0.000000
0.000000
0.000000
0.000000
0.000000
0.000000
0.000000
0.000000
0.000000
0.000000
0.000000
0.000000
0.000000
0.000000
0.000000
0.000000
0.000000
0.000000
0.000000
0.000000
0.000000
0.000000
0.000000
0.000000
0.000000
0.000000
0.000000
0.000000
0.000000

SCALARS u_x FLOAT 1
LOOKUP_TABLE default
0.000000
0.000000
0.000000
0.000000
0.000000
0.000000
0.000000
0.000000
0.000000
0.000000
0.000000
0.000000
0.000000
0.000000
0.000000
0.000000
0.000000
0.000000
0.000000
0.000000
0.000000
0.000000
0.000000
0.000000
0.000000
0.000000
0.000000
0.000000
0.000000
0.000000
0.000000
0.000000
0.000000
0.000000
0.000000
0.000000
0.000000
0.000000
0.000000
0.000000
0.000000
0.000000
0.000000
0.000000
0.000000
0.000000
0.000000
0.000000
0.000000
0.000000
0.000000
0.000000
0.000000
0.000000
0.000000
0.000000
0.000000
0.000000
0.000000
0.000000
0.000000
0.000000
0.000000
0.000000
0.000000
0.000000
0.000000
0.000000
0.000000
0.000000
0.000000
0.000000
0.000000
0.000000
0.000000
0.000000
0.000000
0.000000
0.000000
0.000000
0.000000
0.000000
0.000000
0.000000
0.000000
0.000000
0.000000
0.000000
0.000000
0.000000
0.000000
0.000000
0.000000
0.000000
0.000000
0.000000
0.000000
0.000000
0.000000
0.000000
0.000000
0.000000
0.000000
0.000000
0.000000
0.000000
0.000000
0.000000
0.000000
0.000000
0.000000
0.000000
0.000000
0.000000
0.000000
0.000000
0.000000
0.000000
0.000000
0.000000
0.000000
0.000000
0.000000
0.000000
0.000000
0.000000
0.000000
0.000000
0.000000
0.000000
0.000000
0.000000
0.000000
0.000000
0.000000
0.000000
0.000000
0.000000
0.000000
0.000000
0.000000
0.000000
0.000000
0.000000
0.000000
0.000000
0.000000
0.000000
0.000000
0.000000
0.000000
0.000000
0.000000
0.000000
0.000000
0.000000
0.000000
0.000000
0.000000
0.000000
0.000000
0.000000
0.000000
0.000000
0.000000
0.000000
0.000000
0.000000
0.000000
0.000000
0.000000
0.000000
0.000000
0.000000
0.000000
0.000000
0.000000
0.000000
0.000000
0.000000
0.000000
0.000000
0.000000
0.000000
0.000000
0.000000
0.000000
0.000000
0.000000
0.000000
0.000000
0.000000
0.000000
0.000000
0.000000
0.000000
0.000000
0.000000
0.000000
0.000000
0.000000
0.000000
0.000000
0.000000
0.000000
0.000000
0.000000
0.000000
0.000000
0.000000
0.000000
0.000000
0.000000
0.000000
0.000000
0.000000
0.000000
0.000000
0.000000
0.000000
0.000000
0.000000
0.000000
0.000000
0.000000
0.000000
0.000000
0.000000
0.000000
0.000000
0.000000
0.000000
0.000000
0.000000
0.000000
0.000000
0.000000
0.000000
0.000000
0.000000
0.000000
0.000000
0.000000
0.000000
0.000000
0.000000
0.000000
0.000000
0.000000
0.000000
0.000000
0.000000
0.000000
0.000000
0.000000
0.000000

SCALARS u_y FLOAT 1
LOOKUP_TABLE default
-0.132831
-0.398492
-0.132831
-0.398492
-0.663981
-0.928903
-0.663981
-0.928903
-1.193268
-1.456967
-1.193268
-1.456967
-1.720044
-1.982596
-1.720044
-1.982596
-2.244659
-2.506152
-2.244659
-2.506152
-2.767067
-3.027361
-2.767067
-3.027361
-3.287046
-3.546145
-3.287046
-3.546145
-3.804697
-4.062642
-3.804697
-4.062642
-4.319976
-4.576671
-4.319976
-4.576671
-4.832728
-5.088181
-4.832728
-5.088181
-5.342987
-5.597142
-5.342987
-5.597142
-5.850621
-6.103432
-5.850621
-6.103432
-6.355537
-6.606985
-6.355537
-6.606985
-6.857738
-7.107834
-6.857738
-7.107834
-7.357171
-7.605777
-7.357171
-7.605777
-7.853707
-8.100910
-7.853707
-8.100910
-8.347375
-8.593039
-8.347375
-8.593039
-8.838006
-9.082117
-8.838006
-9.082117
-9.325492
-9.568038
-9.325492
-9.568038
-9.809811
-10.050743
-9.809811
-10.050743
-10.290794
-10.530128
-10.290794
-10.530128
-10.768517
-11.006136
-10.768517
-11.006136
-11.242755
-11.478530
-11.242755
-11.478530
-11.713389
-11.947362
-11.713389
-11.947362
-12.180437
-12.412491
-12.180437
-12.412491
-12.643639
-12.873819
-12.643639
-12.873819
-13.102930
-13.331154
-13.102930
-13.331154
-13.558213
-13.784287
-13.558213
-13.784287
-14.009315
-14.233299
-14.009315
-14.233299
-14.456177
-14.677958
-14.456177
-14.677958
-14.898616
-15.118117
-14.898616
-15.118117
-15.336566
-15.553766
-15.336566
-15.553766
-15.769662
-15.984427
-15.769662
-15.984427
-16.197839
-16.410046
-16.197839
-16.410046
-16.620964
-16.830439
-16.620964
-16.830439
-17.038747
-17.245571
-17.038747
-17.245571
-17.451072
-17.655136
-17.451072
-17.655136
-17.857762
-18.058860
-17.857762
-18.058860
-18.258383
-18.456337
-18.258383
-18.456337
-18.652867
-18.847716
-18.652867
-18.847716
-19.040986
-19.232445
-19.040986
-19.232445
-19.422232
-19.610193
-19.422232
-19.610193
-19.796210
-19.980676
-19.796210
-19.980676
-20.163146
-20.343853
-20.163146
-20.343853
-20.522500
-20.699108
-20.522500
-20.699108
-20.873406
-21.045605
-20.873406
-21.045605
-21.215654
-21.383509
-21.215654
-21.383509
-21.548963
-21.712190
-21.548963
-21.712190
-21.872715
-22.030831
-21.872715
-22.030831
-22.186246
-22.339271
-22.186246
-22.339271
-22.489504
-22.636712
-22.489504
-22.636712
-22.781107
-22.922278
-22.781107
-22.922278
-23.060434
-23.195142
-23.060434
-23.195142
-23.326801
-23.454853
-23.326801
-23.454853
-23.579093
-23.699822
-23.579093
-23.699822
-23.816443
-23.929191
-23.816443
-23.929191
-24.037386
-24.141153
-24.037386
-24.141153
-24.240411
-24.335251
-24.240411
-24.335251
-24.425216
-24.509216
-24.425216
-24.509216
-24.587602
-24.659915
-24.587602
-24.659915
-24.727066
-24.786474
-24.727066
-24.786474
-24.839322
-24.884718
-24.839322
-24.884718
-24.923200
-24.952208
-24.923200
-24.952208
-24.972829
-24.983021
-24.972829
-24.983021

