# vtk DataFile Version 2.0
MATLAB generated vtk file, WMC
ASCII
DATASET UNSTRUCTURED_GRID
POINTS 256 double
0.195312 0.076749 0.000000 
0.195312 0.230248 0.000000 
0.585938 0.076749 0.000000 
0.585938 0.230248 0.000000 
0.195312 0.383959 0.000000 
0.195312 0.538367 0.000000 
0.585938 0.383959 0.000000 
0.585938 0.538367 0.000000 
0.195312 0.693458 0.000000 
0.195312 0.849304 0.000000 
0.585938 0.693458 0.000000 
0.585938 0.849304 0.000000 
0.195312 1.005669 0.000000 
0.195312 1.162598 0.000000 
0.585938 1.005669 0.000000 
0.585938 1.162598 0.000000 
0.195312 1.320126 0.000000 
0.195312 1.478351 0.000000 
0.585938 1.320126 0.000000 
0.585938 1.478351 0.000000 
0.195312 1.637251 0.000000 
0.195312 1.796754 0.000000 
0.585938 1.637251 0.000000 
0.585938 1.796754 0.000000 
0.195312 1.956852 0.000000 
0.195312 2.117629 0.000000 
0.585938 1.956852 0.000000 
0.585938 2.117629 0.000000 
0.195312 2.279073 0.000000 
0.195312 2.441226 0.000000 
0.585938 2.279073 0.000000 
0.585938 2.441226 0.000000 
0.195312 2.604026 0.000000 
0.195312 2.767491 0.000000 
0.585938 2.604026 0.000000 
0.585938 2.767491 0.000000 
0.195312 2.931650 0.000000 
0.195312 3.096533 0.000000 
0.585938 2.931650 0.000000 
0.585938 3.096533 0.000000 
0.195312 3.262163 0.000000 
0.195312 3.428466 0.000000 
0.585938 3.262163 0.000000 
0.585938 3.428466 0.000000 
0.195312 3.595483 0.000000 
0.195312 3.763199 0.000000 
0.585938 3.595483 0.000000 
0.585938 3.763199 0.000000 
0.195312 3.931675 0.000000 
0.195312 4.100851 0.000000 
0.585938 3.931675 0.000000 
0.585938 4.100851 0.000000 
0.195312 4.270807 0.000000 
0.195312 4.441478 0.000000 
0.585938 4.270807 0.000000 
0.585938 4.441478 0.000000 
0.195312 4.613002 0.000000 
0.195312 4.785329 0.000000 
0.585938 4.613002 0.000000 
0.585938 4.785329 0.000000 
0.195312 4.958386 0.000000 
0.195312 5.132229 0.000000 
0.585938 4.958386 0.000000 
0.585938 5.132229 0.000000 
0.195312 5.306891 0.000000 
0.195312 5.482425 0.000000 
0.585938 5.306891 0.000000 
0.585938 5.482425 0.000000 
0.195312 5.658675 0.000000 
0.195312 5.835835 0.000000 
0.585938 5.658675 0.000000 
0.585938 5.835835 0.000000 
0.195312 6.013819 0.000000 
0.195312 6.192720 0.000000 
0.585938 6.013819 0.000000 
0.585938 6.192720 0.000000 
0.195312 6.372427 0.000000 
0.195312 6.552984 0.000000 
0.585938 6.372427 0.000000 
0.585938 6.552984 0.000000 
0.195312 6.734495 0.000000 
0.195312 6.916796 0.000000 
0.585938 6.734495 0.000000 
0.585938 6.916796 0.000000 
0.195312 7.100161 0.000000 
0.195312 7.284322 0.000000 
0.585938 7.100161 0.000000 
0.585938 7.284322 0.000000 
0.195312 7.469514 0.000000 
0.195312 7.655591 0.000000 
0.585938 7.469514 0.000000 
0.585938 7.655591 0.000000 
0.195312 7.842640 0.000000 
0.195312 8.030671 0.000000 
0.585938 7.842640 0.000000 
0.585938 8.030671 0.000000 
0.195312 8.219673 0.000000 
0.195312 8.409764 0.000000 
0.585938 8.219673 0.000000 
0.585938 8.409764 0.000000 
0.195312 8.600824 0.000000 
0.195312 8.792900 0.000000 
0.585938 8.600824 0.000000 
0.585938 8.792900 0.000000 
0.195312 8.986037 0.000000 
0.195312 9.180133 0.000000 
0.585938 8.986037 0.000000 
0.585938 9.180133 0.000000 
0.195312 9.375434 0.000000 
0.195312 9.571719 0.000000 
0.585938 9.375434 0.000000 
0.585938 9.571719 0.000000 
0.195312 9.769182 0.000000 
0.195312 9.967724 0.000000 
0.585938 9.769182 0.000000 
0.585938 9.967724 0.000000 
0.195312 10.167388 0.000000 
0.195312 10.368217 0.000000 
0.585938 10.167388 0.000000 
0.585938 10.368217 0.000000 
0.195312 10.570226 0.000000 
0.195312 10.773527 0.000000 
0.585938 10.570226 0.000000 
0.585938 10.773527 0.000000 
0.195312 10.977999 0.000000 
0.195312 11.183673 0.000000 
0.585938 10.977999 0.000000 
0.585938 11.183673 0.000000 
0.195312 11.390609 0.000000 
0.195312 11.598621 0.000000 
0.585938 11.390609 0.000000 
0.585938 11.598621 0.000000 
0.195312 11.808061 0.000000 
0.195312 12.018757 0.000000 
0.585938 11.808061 0.000000 
0.585938 12.018757 0.000000 
0.195312 12.230806 0.000000 
0.195312 12.444426 0.000000 
0.585938 12.230806 0.000000 
0.585938 12.444426 0.000000 
0.195312 12.659149 0.000000 
0.195312 12.875405 0.000000 
0.585938 12.659149 0.000000 
0.585938 12.875405 0.000000 
0.195312 13.092947 0.000000 
0.195312 13.312019 0.000000 
0.585938 13.092947 0.000000 
0.585938 13.312019 0.000000 
0.195312 13.532583 0.000000 
0.195312 13.754639 0.000000 
0.585938 13.532583 0.000000 
0.585938 13.754639 0.000000 
0.195312 13.978311 0.000000 
0.195312 14.203482 0.000000 
0.585938 13.978311 0.000000 
0.585938 14.203482 0.000000 
0.195312 14.430064 0.000000 
0.195312 14.658431 0.000000 
0.585938 14.430064 0.000000 
0.585938 14.658431 0.000000 
0.195312 14.888316 0.000000 
0.195312 15.119989 0.000000 
0.585938 14.888316 0.000000 
0.585938 15.119989 0.000000 
0.195312 15.353246 0.000000 
0.195312 15.588317 0.000000 
0.585938 15.353246 0.000000 
0.585938 15.588317 0.000000 
0.195312 15.825363 0.000000 
0.195312 16.063882 0.000000 
0.585938 15.825363 0.000000 
0.585938 16.063882 0.000000 
0.195312 16.304580 0.000000 
0.195312 16.546921 0.000000 
0.585938 16.304580 0.000000 
0.585938 16.546921 0.000000 
0.195312 16.791295 0.000000 
0.195312 17.037589 0.000000 
0.585938 16.791295 0.000000 
0.585938 17.037589 0.000000 
0.195312 17.286022 0.000000 
0.195312 17.536454 0.000000 
0.585938 17.286022 0.000000 
0.585938 17.536454 0.000000 
0.195312 17.788965 0.000000 
0.195312 18.043654 0.000000 
0.585938 17.788965 0.000000 
0.585938 18.043654 0.000000 
0.195312 18.300649 0.000000 
0.195312 18.559519 0.000000 
0.585938 18.300649 0.000000 
0.585938 18.559519 0.000000 
0.195312 18.821191 0.000000 
0.195312 19.084887 0.000000 
0.585938 18.821191 0.000000 
0.585938 19.084887 0.000000 
0.195312 19.351266 0.000000 
0.195312 19.619698 0.000000 
0.585938 19.351266 0.000000 
0.585938 19.619698 0.000000 
0.195312 19.890851 0.000000 
0.195312 20.164800 0.000000 
0.585938 19.890851 0.000000 
0.585938 20.164800 0.000000 
0.195312 20.441184 0.000000 
0.195312 20.720699 0.000000 
0.585938 20.441184 0.000000 
0.585938 20.720699 0.000000 
0.195312 21.002924 0.000000 
0.195312 21.288273 0.000000 
0.585938 21.002924 0.000000 
0.585938 21.288273 0.000000 
0.195312 21.576145 0.000000 
0.195312 21.867412 0.000000 
0.585938 21.576145 0.000000 
0.585938 21.867412 0.000000 
0.195312 22.162138 0.000000 
0.195312 22.459833 0.000000 
0.585938 22.162138 0.000000 
0.585938 22.459833 0.000000 
0.195312 22.760908 0.000000 
0.195312 23.065249 0.000000 
0.585938 22.760908 0.000000 
0.585938 23.065249 0.000000 
0.195312 23.373901 0.000000 
0.195312 23.686191 0.000000 
0.585938 23.373901 0.000000 
0.585938 23.686191 0.000000 
0.195312 24.002044 0.000000 
0.195312 24.321689 0.000000 
0.585938 24.002044 0.000000 
0.585938 24.321689 0.000000 
0.195312 24.645538 0.000000 
0.195312 24.974173 0.000000 
0.585938 24.645538 0.000000 
0.585938 24.974173 0.000000 
0.195312 25.306938 0.000000 
0.195312 25.645089 0.000000 
0.585938 25.306938 0.000000 
0.585938 25.645089 0.000000 
0.195312 25.987474 0.000000 
0.195312 26.335267 0.000000 
0.585938 25.987474 0.000000 
0.585938 26.335267 0.000000 
0.195312 26.687697 0.000000 
0.195312 27.046277 0.000000 
0.585938 26.687697 0.000000 
0.585938 27.046277 0.000000 
0.195312 27.410075 0.000000 
0.195312 27.780720 0.000000 
0.585938 27.410075 0.000000 
0.585938 27.780720 0.000000 
0.195312 28.157294 0.000000 
0.195312 28.541320 0.000000 
0.585938 28.157294 0.000000 
0.585938 28.541320 0.000000 

POINT_DATA 256
SCALARS sigma_xx FLOAT 1
LOOKUP_TABLE default
0.000000
0.000000
0.000000
0.000000
-0.000000
-0.000000
0.000000
-0.000000
0.000000
-0.000000
0.000000
-0.000000
-0.000000
-0.000000
-0.000000
-0.000000
-0.000000
-0.000000
-0.000000
-0.000000
0.000000
-0.000000
0.000000
-0.000000
-0.000000
-0.000000
-0.000000
-0.000000
-0.000000
-0.000000
-0.000000
0.000000
-0.000000
0.000000
-0.000000
0.000000
0.000000
-0.000000
0.000000
-0.000000
-0.000000
-0.000000
-0.000000
-0.000000
-0.000000
0.000000
-0.000000
0.000000
0.000000
-0.000000
0.000000
-0.000000
-0.000000
-0.000000
-0.000000
-0.000000
-0.000000
-0.000000
-0.000000
-0.000000
-0.000000
-0.000000
-0.000000
-0.000000
-0.000000
0.000000
-0.000000
0.000000
0.000000
-0.000000
0.000000
-0.000000
-0.000000
0.000000
-0.000000
0.000000
-0.000000
-0.000000
-0.000000
-0.000000
-0.000000
-0.000000
-0.000000
-0.000000
-0.000000
-0.000000
-0.000000
-0.000000
-0.000000
-0.000000
-0.000000
-0.000000
-0.000000
-0.000000
-0.000000
-0.000000
-0.000000
-0.000000
-0.000000
-0.000000
-0.000000
-0.000000
-0.000000
-0.000000
-0.000000
-0.000000
-0.000000
-0.000000
-0.000000
-0.000000
-0.000000
-0.000000
-0.000000
-0.000000
-0.000000
-0.000000
-0.000000
-0.000000
-0.000000
-0.000000
0.000000
-0.000000
0.000000
-0.000000
-0.000000
-0.000000
-0.000000
-0.000000
-0.000000
-0.000000
-0.000000
-0.000000
-0.000000
-0.000000
-0.000000
-0.000000
-0.000000
-0.000000
-0.000000
-0.000000
-0.000000
-0.000000
-0.000000
-0.000000
-0.000000
-0.000000
-0.000000
-0.000000
-0.000000
-0.000000
-0.000000
-0.000000
-0.000000
-0.000000
-0.000000
-0.000000
-0.000000
-0.000000
-0.000000
-0.000000
-0.000000
-0.000000
-0.000000
-0.000000
-0.000000
-0.000000
-0.000000
-0.000000
-0.000000
-0.000000
-0.000000
-0.000000
0.000000
0.000000
0.000000
0.000000
-0.000000
-0.000000
-0.000000
-0.000000
0.000000
-0.000000
0.000000
-0.000000
-0.000000
-0.000000
-0.000000
-0.000000
-0.000000
0.000000
-0.000000
0.000000
0.000000
-0.000000
0.000000
-0.000000
-0.000000
0.000000
-0.000000
-0.000000
-0.000000
-0.000000
-0.000000
-0.000000
-0.000000
-0.000000
-0.000000
-0.000000
-0.000000
-0.000000
0.000000
-0.000000
0.000000
0.000000
0.000000
0.000000
-0.000000
0.000000
-0.000000
-0.000000
-0.000000
-0.000000
-0.000000
-0.000000
-0.000000
0.000000
-0.000000
0.000000
-0.000000
-0.000000
-0.000000
-0.000000
-0.000000
-0.000000
-0.000000
-0.000000
-0.000000
-0.000000
-0.000000
-0.000000
-0.000000
-0.000000
-0.000000
-0.000000
-0.000000
-0.000000
0.000000
-0.000000
-0.000000
-0.000000
0.000000
-0.000000
0.000000
-0.000000
0.000000
-0.000000

SCALARS sigma_yy FLOAT 1
LOOKUP_TABLE default
-23769.862232
-23769.862232
-23769.862232
-23769.862232
-23591.459296
-23385.394379
-23591.459296
-23385.394379
-23131.338214
-22956.611062
-23131.338214
-22956.611062
-22778.451015
-22621.262769
-22778.451015
-22621.262769
-22411.394014
-22213.282902
-22411.394014
-22213.282902
-22016.221654
-21859.446824
-22016.221654
-21859.446824
-21661.243970
-21480.576570
-21661.243970
-21480.576570
-21270.929887
-21095.203879
-21270.929887
-21095.203879
-20899.122534
-20732.474368
-20899.122534
-20732.474368
-20523.566068
-20344.749220
-20523.566068
-20344.749220
-20138.715143
-19973.190055
-20138.715143
-19973.190055
-19768.455060
-19608.395871
-19768.455060
-19608.395871
-19403.067167
-19236.376361
-19403.067167
-19236.376361
-19027.187818
-18856.277438
-19027.187818
-18856.277438
-18636.758546
-18474.578417
-18636.758546
-18474.578417
-18268.145349
-18106.517011
-18268.145349
-18106.517011
-17901.109213
-17717.213411
-17901.109213
-17717.213411
-17533.158314
-17351.435544
-17533.158314
-17351.435544
-17150.785210
-16960.375117
-17150.785210
-16960.375117
-16786.982387
-16602.188289
-16786.982387
-16602.188289
-16401.304522
-16228.100699
-16401.304522
-16228.100699
-16024.770159
-15855.916841
-16024.770159
-15855.916841
-15640.705088
-15483.183236
-15640.705088
-15483.183236
-15277.753745
-15099.083299
-15277.753745
-15099.083299
-14904.061755
-14712.376347
-14904.061755
-14712.376347
-14522.674671
-14347.818209
-14522.674671
-14347.818209
-14152.455373
-13977.453865
-14152.455373
-13977.453865
-13782.059503
-13601.801201
-13782.059503
-13601.801201
-13394.149572
-13230.764488
-13394.149572
-13230.764488
-13025.337636
-12851.980149
-13025.337636
-12851.980149
-12647.559275
-12460.186426
-12647.559275
-12460.186426
-12262.886383
-12103.656183
-12262.886383
-12103.656183
-11899.889458
-11747.024963
-11899.889458
-11747.024963
-11521.339044
-11355.981825
-11521.339044
-11355.981825
-11134.368110
-10970.358678
-11134.368110
-10970.358678
-10781.169817
-10599.052723
-10781.169817
-10599.052723
-10410.449348
-10216.652612
-10410.449348
-10216.652612
-10029.673948
-9845.168464
-10029.673948
-9845.168464
-9634.212208
-9478.223558
-9634.212208
-9478.223558
-9290.236519
-9085.866244
-9290.236519
-9085.866244
-8922.620738
-8714.664040
-8922.620738
-8714.664040
-8541.631280
-8329.415912
-8541.631280
-8329.415912
-8158.503844
-7967.357949
-8158.503844
-7967.357949
-7771.490854
-7602.765855
-7771.490854
-7602.765855
-7398.417401
-7217.093844
-7398.417401
-7217.093844
-7031.078517
-6837.831527
-7031.078517
-6837.831527
-6660.479632
-6459.578871
-6660.479632
-6459.578871
-6285.092735
-6099.691621
-6285.092735
-6099.691621
-5890.273301
-5732.762061
-5890.273301
-5732.762061
-5515.729740
-5379.610018
-5515.729740
-5379.610018
-5143.463767
-4986.204185
-5143.463767
-4986.204185
-4775.705358
-4594.547744
-4775.705358
-4594.547744
-4397.816457
-4222.752647
-4397.816457
-4222.752647
-4034.226698
-3838.241256
-4034.226698
-3838.241256
-3643.955051
-3475.788551
-3643.955051
-3475.788551
-3286.149408
-3105.952726
-3286.149408
-3105.952726
-2874.907925
-2723.940974
-2874.907925
-2723.940974
-2532.675293
-2370.281481
-2532.675293
-2370.281481
-2140.905065
-1982.567432
-2140.905065
-1982.567432
-1766.277744
-1589.985004
-1766.277744
-1589.985004
-1402.830508
-1225.167864
-1402.830508
-1225.167864
-1037.276360
-849.083767
-1037.276360
-849.083767
-657.293808
-468.069311
-657.293808
-468.069311
-277.690950
-76.143022
-277.690950
-76.143022

SCALARS sigma_zz FLOAT 1
LOOKUP_TABLE default
0.000000
0.000000
0.000000
0.000000
0.000000
0.000000
0.000000
0.000000
0.000000
0.000000
0.000000
0.000000
0.000000
0.000000
0.000000
0.000000
0.000000
0.000000
0.000000
0.000000
0.000000
0.000000
0.000000
0.000000
0.000000
0.000000
0.000000
0.000000
0.000000
0.000000
0.000000
0.000000
0.000000
0.000000
0.000000
0.000000
0.000000
0.000000
0.000000
0.000000
0.000000
0.000000
0.000000
0.000000
0.000000
0.000000
0.000000
0.000000
0.000000
0.000000
0.000000
0.000000
0.000000
0.000000
0.000000
0.000000
0.000000
0.000000
0.000000
0.000000
0.000000
0.000000
0.000000
0.000000
0.000000
0.000000
0.000000
0.000000
0.000000
0.000000
0.000000
0.000000
0.000000
0.000000
0.000000
0.000000
0.000000
0.000000
0.000000
0.000000
0.000000
0.000000
0.000000
0.000000
0.000000
0.000000
0.000000
0.000000
0.000000
0.000000
0.000000
0.000000
0.000000
0.000000
0.000000
0.000000
0.000000
0.000000
0.000000
0.000000
0.000000
0.000000
0.000000
0.000000
0.000000
0.000000
0.000000
0.000000
0.000000
0.000000
0.000000
0.000000
0.000000
0.000000
0.000000
0.000000
0.000000
0.000000
0.000000
0.000000
0.000000
0.000000
0.000000
0.000000
0.000000
0.000000
0.000000
0.000000
0.000000
0.000000
0.000000
0.000000
0.000000
0.000000
0.000000
0.000000
0.000000
0.000000
0.000000
0.000000
0.000000
0.000000
0.000000
0.000000
0.000000
0.000000
0.000000
0.000000
0.000000
0.000000
0.000000
0.000000
0.000000
0.000000
0.000000
0.000000
0.000000
0.000000
0.000000
0.000000
0.000000
0.000000
0.000000
0.000000
0.000000
0.000000
0.000000
0.000000
0.000000
0.000000
0.000000
0.000000
0.000000
0.000000
0.000000
0.000000
0.000000
0.000000
0.000000
0.000000
0.000000
0.000000
0.000000
0.000000
0.000000
0.000000
0.000000
0.000000
0.000000
0.000000
0.000000
0.000000
0.000000
0.000000
0.000000
0.000000
0.000000
0.000000
0.000000
0.000000
0.000000
0.000000
0.000000
0.000000
0.000000
0.000000
0.000000
0.000000
0.000000
0.000000
0.000000
0.000000
0.000000
0.000000
0.000000
0.000000
0.000000
0.000000
0.000000
0.000000
0.000000
0.000000
0.000000
0.000000
0.000000
0.000000
0.000000
0.000000
0.000000
0.000000
0.000000
0.000000
0.000000
0.000000
0.000000
0.000000
0.000000
0.000000
0.000000
0.000000
0.000000
0.000000
0.000000
0.000000
0.000000
0.000000
0.000000
0.000000
0.000000
0.000000
0.000000
0.000000
0.000000
0.000000
0.000000
0.000000

SCALARS sigma_xy FLOAT 1
LOOKUP_TABLE default
0.000000
0.000000
0.000000
0.000000
-0.000000
-0.000000
0.000000
-0.000000
0.000000
-0.000000
0.000000
-0.000000
-0.000000
-0.000000
-0.000000
-0.000000
-0.000000
-0.000000
-0.000000
-0.000000
0.000000
0.000000
0.000000
0.000000
0.000000
0.000000
0.000000
0.000000
0.000000
0.000000
0.000000
0.000000
0.000000
0.000000
0.000000
0.000000
0.000000
-0.000000
0.000000
-0.000000
-0.000000
-0.000000
-0.000000
-0.000000
-0.000000
0.000000
-0.000000
0.000000
0.000000
0.000000
0.000000
0.000000
0.000000
0.000000
0.000000
0.000000
0.000000
0.000000
0.000000
0.000000
0.000000
-0.000000
0.000000
-0.000000
0.000000
0.000000
0.000000
0.000000
0.000000
-0.000000
0.000000
-0.000000
-0.000000
0.000000
-0.000000
0.000000
0.000000
0.000000
0.000000
0.000000
0.000000
-0.000000
0.000000
-0.000000
-0.000000
-0.000000
-0.000000
-0.000000
-0.000000
0.000000
-0.000000
0.000000
0.000000
0.000000
0.000000
0.000000
0.000000
-0.000000
0.000000
-0.000000
-0.000000
-0.000000
-0.000000
-0.000000
-0.000000
0.000000
-0.000000
0.000000
0.000000
0.000000
0.000000
0.000000
0.000000
0.000000
0.000000
0.000000
-0.000000
-0.000000
-0.000000
-0.000000
0.000000
0.000000
0.000000
0.000000
0.000000
-0.000000
0.000000
-0.000000
-0.000000
-0.000000
-0.000000
-0.000000
-0.000000
0.000000
-0.000000
0.000000
0.000000
0.000000
0.000000
0.000000
0.000000
-0.000000
0.000000
-0.000000
-0.000000
-0.000000
-0.000000
-0.000000
0.000000
0.000000
0.000000
0.000000
0.000000
0.000000
0.000000
0.000000
0.000000
-0.000000
0.000000
-0.000000
-0.000000
-0.000000
-0.000000
-0.000000
-0.000000
-0.000000
-0.000000
-0.000000
0.000000
0.000000
0.000000
0.000000
0.000000
0.000000
0.000000
0.000000
0.000000
0.000000
0.000000
0.000000
0.000000
-0.000000
0.000000
-0.000000
-0.000000
0.000000
-0.000000
0.000000
0.000000
0.000000
0.000000
0.000000
0.000000
-0.000000
0.000000
-0.000000
-0.000000
0.000000
-0.000000
-0.000000
0.000000
0.000000
0.000000
0.000000
0.000000
-0.000000
0.000000
-0.000000
-0.000000
-0.000000
0.000000
-0.000000
0.000000
0.000000
0.000000
0.000000
0.000000
0.000000
0.000000
0.000000
-0.000000
0.000000
-0.000000
0.000000
-0.000000
0.000000
-0.000000
0.000000
0.000000
0.000000
0.000000
0.000000
0.000000
0.000000
-0.000000
0.000000
-0.000000
-0.000000
-0.000000
-0.000000
-0.000000
0.000000
-0.000000
0.000000
0.000000
0.000000
0.000000
0.000000
0.000000
0.000000
0.000000
0.000000
0.000000
-0.000000
0.000000
-0.000000

SCALARS sigma_yz FLOAT 1
LOOKUP_TABLE default
0.000000
0.000000
0.000000
0.000000
0.000000
0.000000
0.000000
0.000000
0.000000
0.000000
0.000000
0.000000
0.000000
0.000000
0.000000
0.000000
0.000000
0.000000
0.000000
0.000000
0.000000
0.000000
0.000000
0.000000
0.000000
0.000000
0.000000
0.000000
0.000000
0.000000
0.000000
0.000000
0.000000
0.000000
0.000000
0.000000
0.000000
0.000000
0.000000
0.000000
0.000000
0.000000
0.000000
0.000000
0.000000
0.000000
0.000000
0.000000
0.000000
0.000000
0.000000
0.000000
0.000000
0.000000
0.000000
0.000000
0.000000
0.000000
0.000000
0.000000
0.000000
0.000000
0.000000
0.000000
0.000000
0.000000
0.000000
0.000000
0.000000
0.000000
0.000000
0.000000
0.000000
0.000000
0.000000
0.000000
0.000000
0.000000
0.000000
0.000000
0.000000
0.000000
0.000000
0.000000
0.000000
0.000000
0.000000
0.000000
0.000000
0.000000
0.000000
0.000000
0.000000
0.000000
0.000000
0.000000
0.000000
0.000000
0.000000
0.000000
0.000000
0.000000
0.000000
0.000000
0.000000
0.000000
0.000000
0.000000
0.000000
0.000000
0.000000
0.000000
0.000000
0.000000
0.000000
0.000000
0.000000
0.000000
0.000000
0.000000
0.000000
0.000000
0.000000
0.000000
0.000000
0.000000
0.000000
0.000000
0.000000
0.000000
0.000000
0.000000
0.000000
0.000000
0.000000
0.000000
0.000000
0.000000
0.000000
0.000000
0.000000
0.000000
0.000000
0.000000
0.000000
0.000000
0.000000
0.000000
0.000000
0.000000
0.000000
0.000000
0.000000
0.000000
0.000000
0.000000
0.000000
0.000000
0.000000
0.000000
0.000000
0.000000
0.000000
0.000000
0.000000
0.000000
0.000000
0.000000
0.000000
0.000000
0.000000
0.000000
0.000000
0.000000
0.000000
0.000000
0.000000
0.000000
0.000000
0.000000
0.000000
0.000000
0.000000
0.000000
0.000000
0.000000
0.000000
0.000000
0.000000
0.000000
0.000000
0.000000
0.000000
0.000000
0.000000
0.000000
0.000000
0.000000
0.000000
0.000000
0.000000
0.000000
0.000000
0.000000
0.000000
0.000000
0.000000
0.000000
0.000000
0.000000
0.000000
0.000000
0.000000
0.000000
0.000000
0.000000
0.000000
0.000000
0.000000
0.000000
0.000000
0.000000
0.000000
0.000000
0.000000
0.000000
0.000000
0.000000
0.000000
0.000000
0.000000
0.000000
0.000000
0.000000
0.000000
0.000000
0.000000
0.000000
0.000000
0.000000
0.000000
0.000000
0.000000
0.000000
0.000000
0.000000
0.000000
0.000000
0.000000
0.000000
0.000000
0.000000
0.000000
0.000000
0.000000
0.000000

SCALARS sigma_zx FLOAT 1
LOOKUP_TABLE default
0.000000
0.000000
0.000000
0.000000
0.000000
0.000000
0.000000
0.000000
0.000000
0.000000
0.000000
0.000000
0.000000
0.000000
0.000000
0.000000
0.000000
0.000000
0.000000
0.000000
0.000000
0.000000
0.000000
0.000000
0.000000
0.000000
0.000000
0.000000
0.000000
0.000000
0.000000
0.000000
0.000000
0.000000
0.000000
0.000000
0.000000
0.000000
0.000000
0.000000
0.000000
0.000000
0.000000
0.000000
0.000000
0.000000
0.000000
0.000000
0.000000
0.000000
0.000000
0.000000
0.000000
0.000000
0.000000
0.000000
0.000000
0.000000
0.000000
0.000000
0.000000
0.000000
0.000000
0.000000
0.000000
0.000000
0.000000
0.000000
0.000000
0.000000
0.000000
0.000000
0.000000
0.000000
0.000000
0.000000
0.000000
0.000000
0.000000
0.000000
0.000000
0.000000
0.000000
0.000000
0.000000
0.000000
0.000000
0.000000
0.000000
0.000000
0.000000
0.000000
0.000000
0.000000
0.000000
0.000000
0.000000
0.000000
0.000000
0.000000
0.000000
0.000000
0.000000
0.000000
0.000000
0.000000
0.000000
0.000000
0.000000
0.000000
0.000000
0.000000
0.000000
0.000000
0.000000
0.000000
0.000000
0.000000
0.000000
0.000000
0.000000
0.000000
0.000000
0.000000
0.000000
0.000000
0.000000
0.000000
0.000000
0.000000
0.000000
0.000000
0.000000
0.000000
0.000000
0.000000
0.000000
0.000000
0.000000
0.000000
0.000000
0.000000
0.000000
0.000000
0.000000
0.000000
0.000000
0.000000
0.000000
0.000000
0.000000
0.000000
0.000000
0.000000
0.000000
0.000000
0.000000
0.000000
0.000000
0.000000
0.000000
0.000000
0.000000
0.000000
0.000000
0.000000
0.000000
0.000000
0.000000
0.000000
0.000000
0.000000
0.000000
0.000000
0.000000
0.000000
0.000000
0.000000
0.000000
0.000000
0.000000
0.000000
0.000000
0.000000
0.000000
0.000000
0.000000
0.000000
0.000000
0.000000
0.000000
0.000000
0.000000
0.000000
0.000000
0.000000
0.000000
0.000000
0.000000
0.000000
0.000000
0.000000
0.000000
0.000000
0.000000
0.000000
0.000000
0.000000
0.000000
0.000000
0.000000
0.000000
0.000000
0.000000
0.000000
0.000000
0.000000
0.000000
0.000000
0.000000
0.000000
0.000000
0.000000
0.000000
0.000000
0.000000
0.000000
0.000000
0.000000
0.000000
0.000000
0.000000
0.000000
0.000000
0.000000
0.000000
0.000000
0.000000
0.000000
0.000000
0.000000
0.000000
0.000000
0.000000
0.000000
0.000000
0.000000
0.000000
0.000000
0.000000
0.000000
0.000000
0.000000
0.000000
0.000000
0.000000

SCALARS u_x FLOAT 1
LOOKUP_TABLE default
0.000000
0.000000
0.000000
0.000000
0.000000
0.000000
0.000000
0.000000
0.000000
0.000000
0.000000
0.000000
0.000000
0.000000
0.000000
0.000000
0.000000
0.000000
0.000000
0.000000
0.000000
0.000000
0.000000
0.000000
0.000000
0.000000
0.000000
0.000000
0.000000
0.000000
0.000000
0.000000
0.000000
0.000000
0.000000
0.000000
0.000000
0.000000
0.000000
0.000000
0.000000
0.000000
0.000000
0.000000
0.000000
0.000000
0.000000
0.000000
0.000000
0.000000
0.000000
0.000000
0.000000
0.000000
0.000000
0.000000
0.000000
0.000000
0.000000
0.000000
0.000000
0.000000
0.000000
0.000000
0.000000
0.000000
0.000000
0.000000
0.000000
0.000000
0.000000
0.000000
0.000000
0.000000
0.000000
0.000000
0.000000
0.000000
0.000000
0.000000
0.000000
0.000000
0.000000
0.000000
0.000000
0.000000
0.000000
0.000000
0.000000
0.000000
0.000000
0.000000
0.000000
0.000000
0.000000
0.000000
0.000000
0.000000
0.000000
0.000000
0.000000
0.000000
0.000000
0.000000
0.000000
0.000000
0.000000
0.000000
0.000000
0.000000
0.000000
0.000000
0.000000
0.000000
0.000000
0.000000
0.000000
0.000000
0.000000
0.000000
0.000000
0.000000
0.000000
0.000000
0.000000
0.000000
0.000000
0.000000
0.000000
0.000000
0.000000
0.000000
0.000000
0.000000
0.000000
0.000000
0.000000
0.000000
0.000000
0.000000
0.000000
0.000000
0.000000
0.000000
0.000000
0.000000
0.000000
0.000000
0.000000
0.000000
0.000000
0.000000
0.000000
0.000000
0.000000
0.000000
0.000000
0.000000
0.000000
0.000000
0.000000
0.000000
0.000000
0.000000
0.000000
0.000000
0.000000
0.000000
0.000000
0.000000
0.000000
0.000000
0.000000
0.000000
0.000000
0.000000
0.000000
0.000000
0.000000
0.000000
0.000000
0.000000
0.000000
0.000000
0.000000
0.000000
0.000000
0.000000
0.000000
0.000000
0.000000
0.000000
0.000000
0.000000
0.000000
0.000000
0.000000
0.000000
0.000000
0.000000
0.000000
0.000000
0.000000
0.000000
0.000000
0.000000
0.000000
0.000000
0.000000
0.000000
0.000000
0.000000
0.000000
0.000000
0.000000
0.000000
0.000000
0.000000
0.000000
0.000000
0.000000
0.000000
0.000000
0.000000
0.000000
0.000000
0.000000
0.000000
0.000000
0.000000
0.000000
0.000000
0.000000
0.000000
0.000000
0.000000
0.000000
0.000000
0.000000
0.000000
0.000000
0.000000
0.000000
0.000000
0.000000
0.000000
0.000000
0.000000
0.000000
0.000000
0.000000
0.000000
0.000000
0.000000
0.000000
0.000000

SCALARS u_y FLOAT 1
LOOKUP_TABLE default
-0.118563
-0.355689
-0.118563
-0.355689
-0.592604
-0.828821
-0.592604
-0.828821
-1.064355
-1.299133
-1.064355
-1.299133
-1.533394
-1.767089
-1.533394
-1.767089
-2.000187
-2.232586
-2.000187
-2.232586
-2.464312
-2.695433
-2.464312
-2.695433
-2.925961
-3.155809
-2.925961
-3.155809
-3.384989
-3.613461
-3.384989
-3.613461
-3.841287
-4.068446
-3.841287
-4.068446
-4.294912
-4.520654
-4.294912
-4.520654
-4.745649
-4.969971
-4.745649
-4.969971
-5.193580
-5.416488
-5.193580
-5.416488
-5.638638
-5.860086
-5.638638
-5.860086
-6.080755
-6.300709
-6.080755
-6.300709
-6.519811
-6.738108
-6.519811
-6.738108
-6.955677
-7.172458
-6.955677
-7.172458
-7.388421
-7.603512
-7.388421
-7.603512
-7.817888
-8.031352
-7.817888
-8.031352
-8.243994
-8.455717
-8.243994
-8.455717
-8.666635
-8.876704
-8.666635
-8.876704
-9.085818
-9.294142
-9.085818
-9.294142
-9.501401
-9.707865
-9.501401
-9.707865
-9.913298
-10.117846
-9.913298
-10.117846
-10.321422
-10.524016
-10.321422
-10.524016
-10.725640
-10.926173
-10.725640
-10.926173
-11.125738
-11.324288
-11.125738
-11.324288
-11.521775
-11.718304
-11.521775
-11.718304
-11.913629
-12.107969
-11.913629
-12.107969
-12.301130
-12.493213
-12.301130
-12.493213
-12.684174
-12.873970
-12.684174
-12.873970
-13.062586
-13.249910
-13.062586
-13.249910
-13.436063
-13.621014
-13.436063
-13.621014
-13.804703
-13.987317
-13.804703
-13.987317
-14.168502
-14.348431
-14.168502
-14.348431
-14.527007
-14.704012
-14.527007
-14.704012
-14.879913
-15.054283
-14.879913
-15.054283
-15.227366
-15.398918
-15.227366
-15.398918
-15.568980
-15.737549
-15.568980
-15.737549
-15.904501
-16.069955
-15.904501
-16.069955
-16.233999
-16.396257
-16.233999
-16.396257
-16.556996
-16.715949
-16.556996
-16.715949
-16.873317
-17.028870
-16.873317
-17.028870
-17.182450
-17.334556
-17.182450
-17.334556
-17.484483
-17.632767
-17.484483
-17.632767
-17.779018
-17.923348
-17.779018
-17.923348
-18.065540
-18.205733
-18.065540
-18.205733
-18.343848
-18.479784
-18.343848
-18.479784
-18.613413
-18.745169
-18.613413
-18.745169
-18.874121
-19.001050
-18.874121
-19.001050
-19.125297
-19.247489
-19.125297
-19.247489
-19.366962
-19.483638
-19.366962
-19.483638
-19.597879
-19.708989
-19.597879
-19.708989
-19.817388
-19.922665
-19.817388
-19.922665
-20.025418
-20.124775
-20.025418
-20.124775
-20.220674
-20.313605
-20.220674
-20.313605
-20.403154
-20.489438
-20.403154
-20.489438
-20.571411
-20.649746
-20.571411
-20.649746
-20.724518
-20.795499
-20.724518
-20.795499
-20.862275
-20.924265
-20.862275
-20.924265
-20.982124
-21.034598
-20.982124
-21.034598
-21.082838
-21.125671
-21.082838
-21.125671
-21.163866
-21.195910
-21.163866
-21.195910
-21.222738
-21.242717
-21.222738
-21.242717
-21.256769
-21.263368
-21.256769
-21.263368

