# vtk DataFile Version 2.0
MATLAB generated vtk file, WMC
ASCII
DATASET UNSTRUCTURED_GRID
POINTS 128 double
0.781250 0.781250 0.662610 
0.781250 0.781250 1.987829 
0.781250 2.343750 0.662610 
0.781250 2.343750 1.987829 
2.343750 0.781250 0.662610 
2.343750 0.781250 1.987829 
2.343750 2.343750 0.662610 
2.343750 2.343750 1.987829 
0.781250 0.781250 3.318532 
0.781250 0.781250 4.656606 
0.781250 2.343750 3.318532 
0.781250 2.343750 4.656606 
2.343750 0.781250 3.318532 
2.343750 0.781250 4.656606 
2.343750 2.343750 3.318532 
2.343750 2.343750 4.656606 
0.781250 0.781250 5.999625 
0.781250 0.781250 7.350671 
0.781250 2.343750 5.999625 
0.781250 2.343750 7.350671 
2.343750 0.781250 5.999625 
2.343750 0.781250 7.350671 
2.343750 2.343750 5.999625 
2.343750 2.343750 7.350671 
0.781250 0.781250 8.706493 
0.781250 0.781250 10.070668 
0.781250 2.343750 8.706493 
0.781250 2.343750 10.070668 
2.343750 0.781250 8.706493 
2.343750 0.781250 10.070668 
2.343750 2.343750 8.706493 
2.343750 2.343750 10.070668 
0.781250 0.781250 11.439773 
0.781250 0.781250 12.817273 
0.781250 2.343750 11.439773 
0.781250 2.343750 12.817273 
2.343750 0.781250 11.439773 
2.343750 0.781250 12.817273 
2.343750 2.343750 11.439773 
2.343750 2.343750 12.817273 
0.781250 0.781250 14.200134 
0.781250 0.781250 15.591204 
0.781250 2.343750 14.200134 
0.781250 2.343750 15.591204 
2.343750 0.781250 14.200134 
2.343750 0.781250 15.591204 
2.343750 2.343750 14.200134 
2.343750 2.343750 15.591204 
0.781250 0.781250 16.988299 
0.781250 0.781250 18.393098 
0.781250 2.343750 16.988299 
0.781250 2.343750 18.393098 
2.343750 0.781250 16.988299 
2.343750 0.781250 18.393098 
2.343750 2.343750 16.988299 
2.343750 2.343750 18.393098 
0.781250 0.781250 19.804681 
0.781250 0.781250 21.223337 
0.781250 2.343750 19.804681 
0.781250 2.343750 21.223337 
2.343750 0.781250 19.804681 
2.343750 0.781250 21.223337 
2.343750 2.343750 19.804681 
2.343750 2.343750 21.223337 
0.781250 0.781250 22.649532 
0.781250 0.781250 24.082599 
0.781250 2.343750 22.649532 
0.781250 2.343750 24.082599 
2.343750 0.781250 22.649532 
2.343750 0.781250 24.082599 
2.343750 2.343750 22.649532 
2.343750 2.343750 24.082599 
0.781250 0.781250 25.524315 
0.781250 0.781250 26.972607 
0.781250 2.343750 25.524315 
0.781250 2.343750 26.972607 
2.343750 0.781250 25.524315 
2.343750 0.781250 26.972607 
2.343750 2.343750 25.524315 
2.343750 2.343750 26.972607 
0.781250 0.781250 28.430222 
0.781250 0.781250 29.894274 
0.781250 2.343750 28.430222 
0.781250 2.343750 29.894274 
2.343750 0.781250 28.430222 
2.343750 0.781250 29.894274 
2.343750 2.343750 28.430222 
2.343750 2.343750 29.894274 
0.781250 0.781250 31.368218 
0.781250 0.781250 32.848586 
0.781250 2.343750 31.368218 
0.781250 2.343750 32.848586 
2.343750 0.781250 31.368218 
2.343750 0.781250 32.848586 
2.343750 2.343750 31.368218 
2.343750 2.343750 32.848586 
0.781250 0.781250 34.339343 
0.781250 0.781250 35.836597 
0.781250 2.343750 34.339343 
0.781250 2.343750 35.836597 
2.343750 0.781250 34.339343 
2.343750 0.781250 35.836597 
2.343750 2.343750 34.339343 
2.343750 2.343750 35.836597 
0.781250 0.781250 37.344644 
0.781250 0.781250 38.859393 
0.781250 2.343750 37.344644 
0.781250 2.343750 38.859393 
2.343750 0.781250 37.344644 
2.343750 0.781250 38.859393 
2.343750 2.343750 37.344644 
2.343750 2.343750 38.859393 
0.781250 0.781250 40.385610 
0.781250 0.781250 41.918443 
0.781250 2.343750 40.385610 
0.781250 2.343750 41.918443 
2.343750 0.781250 40.385610 
2.343750 0.781250 41.918443 
2.343750 2.343750 40.385610 
2.343750 2.343750 41.918443 
0.781250 0.781250 43.461583 
0.781250 0.781250 45.013273 
0.781250 2.343750 43.461583 
0.781250 2.343750 45.013273 
2.343750 0.781250 43.461583 
2.343750 0.781250 45.013273 
2.343750 2.343750 43.461583 
2.343750 2.343750 45.013273 

POINT_DATA 128
SCALARS sigma_xx FLOAT 1
LOOKUP_TABLE default
0.000000
-0.000000
0.000000
0.000000
-0.000000
-0.000000
0.000000
0.000000
0.000000
-0.000000
-0.000000
-0.000000
0.000000
0.000000
0.000000
-0.000000
0.000000
-0.000000
-0.000000
0.000000
-0.000000
0.000000
0.000000
0.000000
-0.000000
-0.000000
0.000000
-0.000000
0.000000
0.000000
0.000000
0.000000
0.000000
-0.000000
0.000000
0.000000
-0.000000
-0.000000
0.000000
-0.000000
0.000000
0.000000
0.000000
0.000000
0.000000
0.000000
0.000000
-0.000000
0.000000
-0.000000
0.000000
-0.000000
0.000000
-0.000000
-0.000000
0.000000
-0.000000
0.000000
-0.000000
-0.000000
0.000000
-0.000000
0.000000
0.000000
0.000000
0.000000
-0.000000
-0.000000
0.000000
0.000000
0.000000
-0.000000
-0.000000
-0.000000
-0.000000
-0.000000
-0.000000
-0.000000
0.000000
-0.000000
0.000000
-0.000000
-0.000000
0.000000
-0.000000
-0.000000
-0.000000
0.000000
0.000000
0.000000
0.000000
0.000000
0.000000
0.000000
0.000000
0.000000
0.000000
-0.000000
0.000000
0.000000
-0.000000
-0.000000
-0.000000
-0.000000
-0.000000
0.000000
-0.000000
-0.000000
-0.000000
0.000000
-0.000000
-0.000000
0.000000
-0.000000
-0.000000
-0.000000
0.000000
0.000000
-0.000000
-0.000000
0.000000
0.000000
-0.000000
0.000000
0.000000
-0.000000
-0.000000
0.000000

SCALARS sigma_yy FLOAT 1
LOOKUP_TABLE default
0.000000
-0.000000
0.000000
0.000000
-0.000000
-0.000000
0.000000
0.000000
0.000000
-0.000000
-0.000000
-0.000000
0.000000
0.000000
0.000000
-0.000000
0.000000
-0.000000
-0.000000
0.000000
-0.000000
0.000000
0.000000
0.000000
-0.000000
-0.000000
0.000000
0.000000
0.000000
0.000000
0.000000
0.000000
0.000000
-0.000000
0.000000
0.000000
-0.000000
-0.000000
0.000000
-0.000000
0.000000
0.000000
0.000000
0.000000
0.000000
0.000000
0.000000
0.000000
0.000000
-0.000000
0.000000
-0.000000
0.000000
-0.000000
-0.000000
0.000000
-0.000000
0.000000
-0.000000
-0.000000
0.000000
-0.000000
0.000000
0.000000
0.000000
-0.000000
-0.000000
0.000000
0.000000
0.000000
0.000000
-0.000000
0.000000
-0.000000
-0.000000
-0.000000
-0.000000
-0.000000
0.000000
-0.000000
0.000000
-0.000000
-0.000000
0.000000
-0.000000
-0.000000
-0.000000
0.000000
0.000000
0.000000
0.000000
0.000000
0.000000
0.000000
0.000000
0.000000
0.000000
-0.000000
0.000000
0.000000
-0.000000
-0.000000
-0.000000
-0.000000
-0.000000
0.000000
-0.000000
-0.000000
-0.000000
0.000000
-0.000000
-0.000000
0.000000
-0.000000
-0.000000
-0.000000
-0.000000
0.000000
-0.000000
-0.000000
0.000000
0.000000
-0.000000
0.000000
0.000000
-0.000000
-0.000000
0.000000

SCALARS sigma_zz FLOAT 1
LOOKUP_TABLE default
-1942.004068
-1942.004068
-1942.004068
-1942.004068
-1942.004068
-1942.004068
-1942.004068
-1942.004068
-1820.651435
-1809.597946
-1820.651435
-1809.597946
-1820.651435
-1809.597946
-1820.651435
-1809.597946
-1699.205615
-1677.853924
-1699.205615
-1677.853924
-1699.205615
-1677.853924
-1699.205615
-1677.853924
-1577.659129
-1546.749213
-1577.659129
-1546.749213
-1577.659129
-1546.749213
-1577.659129
-1546.749213
-1456.006947
-1416.273237
-1456.006947
-1416.273237
-1456.006947
-1416.273237
-1456.006947
-1416.273237
-1334.224758
-1286.315146
-1334.224758
-1286.315146
-1334.224758
-1286.315146
-1334.224758
-1286.315146
-1212.410250
-1158.792456
-1212.410250
-1158.792456
-1212.410250
-1158.792456
-1212.410250
-1158.792456
-1090.197300
-1035.763846
-1090.197300
-1035.763846
-1090.197300
-1035.763846
-1090.197300
-1035.763846
-966.116192
-912.925657
-966.116192
-912.925657
-966.116192
-912.925657
-966.116192
-912.925657
-837.917823
-789.800508
-837.917823
-789.800508
-837.917823
-789.800508
-837.917823
-789.800508
-710.320544
-666.459358
-710.320544
-666.459358
-710.320544
-666.459358
-710.320544
-666.459358
-583.236222
-542.832234
-583.236222
-542.832234
-583.236222
-542.832234
-583.236222
-542.832234
-456.585473
-419.152295
-456.585473
-419.152295
-456.585473
-419.152295
-456.585473
-419.152295
-330.785839
-293.931807
-330.785839
-293.931807
-330.785839
-293.931807
-330.785839
-293.931807
-203.091490
-175.359135
-203.091490
-175.359135
-203.091490
-175.359135
-203.091490
-175.359135
-89.853648
-16.971232
-89.853648
-16.971232
-89.853648
-16.971232
-89.853648
-16.971232

SCALARS sigma_xy FLOAT 1
LOOKUP_TABLE default
0.000000
-0.000000
0.000000
0.000000
0.000000
0.000000
0.000000
0.000000
-0.000000
0.000000
0.000000
-0.000000
0.000000
0.000000
0.000000
0.000000
0.000000
0.000000
-0.000000
0.000000
0.000000
0.000000
0.000000
0.000000
0.000000
0.000000
0.000000
-0.000000
0.000000
0.000000
0.000000
0.000000
-0.000000
-0.000000
0.000000
0.000000
0.000000
-0.000000
0.000000
-0.000000
0.000000
0.000000
0.000000
0.000000
0.000000
0.000000
0.000000
-0.000000
0.000000
0.000000
0.000000
-0.000000
0.000000
0.000000
-0.000000
0.000000
0.000000
0.000000
-0.000000
0.000000
0.000000
-0.000000
0.000000
0.000000
0.000000
0.000000
0.000000
0.000000
0.000000
0.000000
0.000000
0.000000
-0.000000
0.000000
0.000000
0.000000
-0.000000
-0.000000
0.000000
-0.000000
0.000000
0.000000
-0.000000
0.000000
0.000000
0.000000
0.000000
0.000000
-0.000000
0.000000
0.000000
0.000000
0.000000
0.000000
0.000000
0.000000
0.000000
0.000000
0.000000
-0.000000
-0.000000
-0.000000
-0.000000
-0.000000
0.000000
0.000000
-0.000000
-0.000000
-0.000000
0.000000
-0.000000
-0.000000
0.000000
0.000000
0.000000
-0.000000
0.000000
-0.000000
0.000000
-0.000000
0.000000
0.000000
0.000000
0.000000
-0.000000
0.000000
-0.000000
-0.000000

SCALARS sigma_yz FLOAT 1
LOOKUP_TABLE default
0.000000
0.000000
0.000000
0.000000
0.000000
0.000000
0.000000
0.000000
0.000000
0.000000
0.000000
0.000000
0.000000
0.000000
0.000000
-0.000000
0.000000
0.000000
0.000000
0.000000
-0.000000
0.000000
0.000000
0.000000
0.000000
0.000000
0.000000
0.000000
0.000000
0.000000
0.000000
0.000000
0.000000
0.000000
0.000000
0.000000
0.000000
-0.000000
0.000000
0.000000
0.000000
0.000000
0.000000
0.000000
0.000000
0.000000
0.000000
0.000000
0.000000
0.000000
0.000000
0.000000
0.000000
0.000000
-0.000000
0.000000
0.000000
0.000000
0.000000
0.000000
0.000000
0.000000
0.000000
0.000000
0.000000
0.000000
0.000000
0.000000
0.000000
0.000000
0.000000
0.000000
0.000000
-0.000000
0.000000
0.000000
0.000000
-0.000000
0.000000
0.000000
0.000000
0.000000
0.000000
0.000000
0.000000
0.000000
0.000000
0.000000
-0.000000
0.000000
0.000000
0.000000
0.000000
0.000000
0.000000
0.000000
0.000000
-0.000000
0.000000
-0.000000
0.000000
0.000000
0.000000
0.000000
0.000000
0.000000
0.000000
0.000000
0.000000
-0.000000
0.000000
0.000000
0.000000
-0.000000
0.000000
0.000000
-0.000000
0.000000
0.000000
0.000000
0.000000
0.000000
0.000000
0.000000
0.000000
-0.000000
0.000000
0.000000

SCALARS sigma_zx FLOAT 1
LOOKUP_TABLE default
0.000000
-0.000000
0.000000
0.000000
0.000000
0.000000
0.000000
0.000000
0.000000
0.000000
0.000000
0.000000
0.000000
0.000000
0.000000
0.000000
0.000000
0.000000
0.000000
0.000000
0.000000
0.000000
0.000000
0.000000
0.000000
0.000000
0.000000
-0.000000
0.000000
0.000000
0.000000
0.000000
0.000000
0.000000
0.000000
0.000000
0.000000
-0.000000
0.000000
0.000000
0.000000
0.000000
0.000000
0.000000
0.000000
0.000000
0.000000
0.000000
0.000000
0.000000
0.000000
0.000000
0.000000
0.000000
0.000000
0.000000
0.000000
0.000000
0.000000
-0.000000
0.000000
0.000000
0.000000
0.000000
0.000000
0.000000
0.000000
0.000000
0.000000
0.000000
0.000000
0.000000
0.000000
0.000000
0.000000
0.000000
0.000000
-0.000000
0.000000
0.000000
0.000000
0.000000
0.000000
0.000000
0.000000
0.000000
0.000000
0.000000
-0.000000
0.000000
-0.000000
0.000000
0.000000
0.000000
0.000000
0.000000
0.000000
0.000000
0.000000
0.000000
0.000000
0.000000
0.000000
0.000000
-0.000000
0.000000
0.000000
0.000000
0.000000
-0.000000
-0.000000
0.000000
0.000000
-0.000000
0.000000
0.000000
0.000000
-0.000000
0.000000
0.000000
0.000000
0.000000
0.000000
0.000000
0.000000
0.000000
0.000000
0.000000

SCALARS u_x FLOAT 1
LOOKUP_TABLE default
0.000000
0.000000
0.000000
0.000000
0.000000
0.000000
0.000000
0.000000
0.000000
0.000000
0.000000
0.000000
0.000000
0.000000
0.000000
0.000000
0.000000
0.000000
0.000000
0.000000
0.000000
0.000000
0.000000
0.000000
0.000000
0.000000
0.000000
0.000000
0.000000
0.000000
0.000000
0.000000
0.000000
0.000000
0.000000
0.000000
0.000000
0.000000
0.000000
0.000000
0.000000
0.000000
0.000000
0.000000
0.000000
0.000000
0.000000
0.000000
0.000000
0.000000
0.000000
0.000000
0.000000
0.000000
0.000000
0.000000
0.000000
0.000000
0.000000
0.000000
0.000000
0.000000
0.000000
0.000000
0.000000
0.000000
0.000000
0.000000
0.000000
0.000000
0.000000
0.000000
0.000000
0.000000
0.000000
0.000000
0.000000
0.000000
0.000000
0.000000
0.000000
0.000000
0.000000
0.000000
0.000000
0.000000
0.000000
0.000000
0.000000
0.000000
0.000000
0.000000
0.000000
0.000000
0.000000
0.000000
0.000000
0.000000
0.000000
0.000000
0.000000
0.000000
0.000000
0.000000
0.000000
0.000000
0.000000
0.000000
0.000000
0.000000
0.000000
0.000000
0.000000
0.000000
0.000000
0.000000
0.000000
0.000000
0.000000
0.000000
0.000000
0.000000
0.000000
0.000000
0.000000
0.000000
0.000000
0.000000

SCALARS u_y FLOAT 1
LOOKUP_TABLE default
0.000000
0.000000
0.000000
0.000000
0.000000
0.000000
0.000000
0.000000
0.000000
0.000000
0.000000
0.000000
0.000000
0.000000
0.000000
0.000000
0.000000
0.000000
0.000000
0.000000
0.000000
0.000000
0.000000
0.000000
0.000000
0.000000
0.000000
0.000000
0.000000
0.000000
0.000000
0.000000
0.000000
0.000000
0.000000
0.000000
0.000000
0.000000
0.000000
0.000000
0.000000
0.000000
0.000000
0.000000
0.000000
0.000000
0.000000
0.000000
0.000000
0.000000
0.000000
0.000000
0.000000
0.000000
0.000000
0.000000
0.000000
0.000000
0.000000
0.000000
0.000000
0.000000
0.000000
0.000000
0.000000
0.000000
0.000000
0.000000
0.000000
0.000000
0.000000
0.000000
0.000000
0.000000
0.000000
0.000000
0.000000
0.000000
0.000000
0.000000
0.000000
0.000000
0.000000
0.000000
0.000000
0.000000
0.000000
0.000000
0.000000
0.000000
0.000000
0.000000
0.000000
0.000000
0.000000
0.000000
0.000000
0.000000
0.000000
0.000000
0.000000
0.000000
0.000000
0.000000
0.000000
0.000000
0.000000
0.000000
0.000000
0.000000
0.000000
0.000000
0.000000
0.000000
0.000000
0.000000
0.000000
0.000000
0.000000
0.000000
0.000000
0.000000
0.000000
0.000000
0.000000
0.000000
0.000000
0.000000

SCALARS u_z FLOAT 1
LOOKUP_TABLE default
-0.118640
-0.355921
-0.118640
-0.355921
-0.118640
-0.355921
-0.118640
-0.355921
-0.587718
-0.812144
-0.587718
-0.812144
-0.587718
-0.812144
-0.587718
-0.812144
-1.031625
-1.243079
-1.031625
-1.243079
-1.031625
-1.243079
-1.031625
-1.243079
-1.449757
-1.648082
-1.449757
-1.648082
-1.449757
-1.648082
-1.449757
-1.648082
-1.841477
-2.026477
-1.841477
-2.026477
-1.841477
-2.026477
-1.841477
-2.026477
-2.206116
-2.377546
-2.206116
-2.377546
-2.206116
-2.377546
-2.206116
-2.377546
-2.542951
-2.700652
-2.542951
-2.700652
-2.542951
-2.700652
-2.542951
-2.700652
-2.851569
-2.995413
-2.851569
-2.995413
-2.851569
-2.995413
-2.851569
-2.995413
-3.131718
-3.261151
-3.131718
-3.261151
-3.131718
-3.261151
-3.131718
-3.261151
-3.381935
-3.496143
-3.381935
-3.496143
-3.381935
-3.496143
-3.381935
-3.496143
-3.601028
-3.699476
-3.601028
-3.699476
-3.601028
-3.699476
-3.601028
-3.699476
-3.788032
-3.870164
-3.788032
-3.870164
-3.788032
-3.870164
-3.788032
-3.870164
-3.941907
-4.007153
-3.941907
-4.007153
-3.941907
-4.007153
-3.941907
-4.007153
-4.061606
-4.109357
-4.061606
-4.109357
-4.061606
-4.109357
-4.061606
-4.109357
-4.145640
-4.175307
-4.145640
-4.175307
-4.145640
-4.175307
-4.145640
-4.175307
-4.194667
-4.205477
-4.194667
-4.205477
-4.194667
-4.205477
-4.194667
-4.205477

