# vtk DataFile Version 2.0
MATLAB generated vtk file, WMC
ASCII
DATASET UNSTRUCTURED_GRID
POINTS 256 double
0.195312 0.089921 0.000000 
0.195312 0.269763 0.000000 
0.585938 0.089921 0.000000 
0.585938 0.269763 0.000000 
0.195312 0.449853 0.000000 
0.195312 0.630760 0.000000 
0.585938 0.449853 0.000000 
0.585938 0.630760 0.000000 
0.195312 0.812432 0.000000 
0.195312 0.994754 0.000000 
0.585938 0.812432 0.000000 
0.585938 0.994754 0.000000 
0.195312 1.177614 0.000000 
0.195312 1.361133 0.000000 
0.585938 1.177614 0.000000 
0.585938 1.361133 0.000000 
0.195312 1.545347 0.000000 
0.195312 1.730267 0.000000 
0.585938 1.545347 0.000000 
0.585938 1.730267 0.000000 
0.195312 1.915794 0.000000 
0.195312 2.102001 0.000000 
0.585938 1.915794 0.000000 
0.585938 2.102001 0.000000 
0.195312 2.288901 0.000000 
0.195312 2.476526 0.000000 
0.585938 2.288901 0.000000 
0.585938 2.476526 0.000000 
0.195312 2.664782 0.000000 
0.195312 2.853745 0.000000 
0.585938 2.664782 0.000000 
0.585938 2.853745 0.000000 
0.195312 3.043447 0.000000 
0.195312 3.233877 0.000000 
0.585938 3.043447 0.000000 
0.585938 3.233877 0.000000 
0.195312 3.424990 0.000000 
0.195312 3.616816 0.000000 
0.585938 3.424990 0.000000 
0.585938 3.616816 0.000000 
0.195312 3.809434 0.000000 
0.195312 4.002796 0.000000 
0.585938 3.809434 0.000000 
0.585938 4.002796 0.000000 
0.195312 4.196890 0.000000 
0.195312 4.391686 0.000000 
0.585938 4.196890 0.000000 
0.585938 4.391686 0.000000 
0.195312 4.587303 0.000000 
0.195312 4.783706 0.000000 
0.585938 4.587303 0.000000 
0.585938 4.783706 0.000000 
0.195312 4.980898 0.000000 
0.195312 5.178788 0.000000 
0.585938 4.980898 0.000000 
0.585938 5.178788 0.000000 
0.195312 5.377550 0.000000 
0.195312 5.577109 0.000000 
0.585938 5.377550 0.000000 
0.585938 5.577109 0.000000 
0.195312 5.777459 0.000000 
0.195312 5.978664 0.000000 
0.585938 5.777459 0.000000 
0.585938 5.978664 0.000000 
0.195312 6.180750 0.000000 
0.195312 6.383702 0.000000 
0.585938 6.180750 0.000000 
0.585938 6.383702 0.000000 
0.195312 6.587310 0.000000 
0.195312 6.791847 0.000000 
0.585938 6.587310 0.000000 
0.585938 6.791847 0.000000 
0.195312 6.997212 0.000000 
0.195312 7.203528 0.000000 
0.585938 6.997212 0.000000 
0.585938 7.203528 0.000000 
0.195312 7.410703 0.000000 
0.195312 7.618820 0.000000 
0.585938 7.410703 0.000000 
0.585938 7.618820 0.000000 
0.195312 7.827969 0.000000 
0.195312 8.037826 0.000000 
0.585938 7.827969 0.000000 
0.585938 8.037826 0.000000 
0.195312 8.248749 0.000000 
0.195312 8.460450 0.000000 
0.585938 8.248749 0.000000 
0.585938 8.460450 0.000000 
0.195312 8.673246 0.000000 
0.195312 8.886913 0.000000 
0.585938 8.673246 0.000000 
0.585938 8.886913 0.000000 
0.195312 9.101583 0.000000 
0.195312 9.317321 0.000000 
0.585938 9.101583 0.000000 
0.585938 9.317321 0.000000 
0.195312 9.533968 0.000000 
0.195312 9.751711 0.000000 
0.585938 9.533968 0.000000 
0.585938 9.751711 0.000000 
0.195312 9.970341 0.000000 
0.195312 10.190056 0.000000 
0.585938 9.970341 0.000000 
0.585938 10.190056 0.000000 
0.195312 10.410910 0.000000 
0.195312 10.632703 0.000000 
0.585938 10.410910 0.000000 
0.585938 10.632703 0.000000 
0.195312 10.855789 0.000000 
0.195312 11.079742 0.000000 
0.585938 10.855789 0.000000 
0.585938 11.079742 0.000000 
0.195312 11.304875 0.000000 
0.195312 11.531072 0.000000 
0.585938 11.304875 0.000000 
0.585938 11.531072 0.000000 
0.195312 11.758380 0.000000 
0.195312 11.986948 0.000000 
0.585938 11.758380 0.000000 
0.585938 11.986948 0.000000 
0.195312 12.216603 0.000000 
0.195312 12.447560 0.000000 
0.585938 12.216603 0.000000 
0.585938 12.447560 0.000000 
0.195312 12.679580 0.000000 
0.195312 12.912849 0.000000 
0.585938 12.679580 0.000000 
0.585938 12.912849 0.000000 
0.195312 13.147491 0.000000 
0.195312 13.383175 0.000000 
0.585938 13.147491 0.000000 
0.585938 13.383175 0.000000 
0.195312 13.620229 0.000000 
0.195312 13.858479 0.000000 
0.585938 13.620229 0.000000 
0.585938 13.858479 0.000000 
0.195312 14.098002 0.000000 
0.195312 14.339072 0.000000 
0.585938 14.098002 0.000000 
0.585938 14.339072 0.000000 
0.195312 14.581174 0.000000 
0.195312 14.824898 0.000000 
0.585938 14.581174 0.000000 
0.585938 14.824898 0.000000 
0.195312 15.069807 0.000000 
0.195312 15.316210 0.000000 
0.585938 15.069807 0.000000 
0.585938 15.316210 0.000000 
0.195312 15.564104 0.000000 
0.195312 15.813292 0.000000 
0.585938 15.564104 0.000000 
0.585938 15.813292 0.000000 
0.195312 16.064066 0.000000 
0.195312 16.316321 0.000000 
0.585938 16.064066 0.000000 
0.585938 16.316321 0.000000 
0.195312 16.569936 0.000000 
0.195312 16.825349 0.000000 
0.585938 16.569936 0.000000 
0.585938 16.825349 0.000000 
0.195312 17.082140 0.000000 
0.195312 17.340714 0.000000 
0.585938 17.082140 0.000000 
0.585938 17.340714 0.000000 
0.195312 17.600727 0.000000 
0.195312 17.862414 0.000000 
0.585938 17.600727 0.000000 
0.585938 17.862414 0.000000 
0.195312 18.126035 0.000000 
0.195312 18.390941 0.000000 
0.585938 18.126035 0.000000 
0.585938 18.390941 0.000000 
0.195312 18.658001 0.000000 
0.195312 18.926491 0.000000 
0.585938 18.658001 0.000000 
0.585938 18.926491 0.000000 
0.195312 19.197003 0.000000 
0.195312 19.469276 0.000000 
0.585938 19.197003 0.000000 
0.585938 19.469276 0.000000 
0.195312 19.743450 0.000000 
0.195312 20.019508 0.000000 
0.585938 19.743450 0.000000 
0.585938 20.019508 0.000000 
0.195312 20.297450 0.000000 
0.195312 20.577222 0.000000 
0.585938 20.297450 0.000000 
0.585938 20.577222 0.000000 
0.195312 20.859254 0.000000 
0.195312 21.143039 0.000000 
0.585938 20.859254 0.000000 
0.585938 21.143039 0.000000 
0.195312 21.429380 0.000000 
0.195312 21.717379 0.000000 
0.585938 21.429380 0.000000 
0.585938 21.717379 0.000000 
0.195312 22.008072 0.000000 
0.195312 22.300795 0.000000 
0.585938 22.008072 0.000000 
0.585938 22.300795 0.000000 
0.195312 22.595911 0.000000 
0.195312 22.893191 0.000000 
0.585938 22.595911 0.000000 
0.585938 22.893191 0.000000 
0.195312 23.192647 0.000000 
0.195312 23.494993 0.000000 
0.585938 23.192647 0.000000 
0.585938 23.494993 0.000000 
0.195312 23.799574 0.000000 
0.195312 24.107075 0.000000 
0.585938 23.799574 0.000000 
0.585938 24.107075 0.000000 
0.195312 24.416708 0.000000 
0.195312 24.729037 0.000000 
0.585938 24.416708 0.000000 
0.585938 24.729037 0.000000 
0.195312 25.044384 0.000000 
0.195312 25.362425 0.000000 
0.585938 25.044384 0.000000 
0.585938 25.362425 0.000000 
0.195312 25.683555 0.000000 
0.195312 26.007268 0.000000 
0.585938 25.683555 0.000000 
0.585938 26.007268 0.000000 
0.195312 26.334512 0.000000 
0.195312 26.664859 0.000000 
0.585938 26.334512 0.000000 
0.585938 26.664859 0.000000 
0.195312 26.998149 0.000000 
0.195312 27.334617 0.000000 
0.585938 26.998149 0.000000 
0.585938 27.334617 0.000000 
0.195312 27.674394 0.000000 
0.195312 28.018071 0.000000 
0.585938 27.674394 0.000000 
0.585938 28.018071 0.000000 
0.195312 28.364848 0.000000 
0.195312 28.716011 0.000000 
0.585938 28.364848 0.000000 
0.585938 28.716011 0.000000 
0.195312 29.070499 0.000000 
0.195312 29.429543 0.000000 
0.585938 29.070499 0.000000 
0.585938 29.429543 0.000000 
0.195312 29.792100 0.000000 
0.195312 30.159596 0.000000 
0.585938 29.792100 0.000000 
0.585938 30.159596 0.000000 
0.195312 30.530757 0.000000 
0.195312 30.907030 0.000000 
0.585938 30.530757 0.000000 
0.585938 30.907030 0.000000 
0.195312 31.287477 0.000000 
0.195312 31.673259 0.000000 
0.585938 31.287477 0.000000 
0.585938 31.673259 0.000000 

POINT_DATA 256
SCALARS sigma_xx FLOAT 1
LOOKUP_TABLE default
0.000000
0.000000
0.000000
0.000000
-0.000000
0.000000
-0.000000
0.000000
-0.000000
0.000000
-0.000000
0.000000
0.000000
-0.000000
0.000000
-0.000000
-0.000000
0.000000
-0.000000
0.000000
0.000000
-0.000000
0.000000
-0.000000
-0.000000
0.000000
-0.000000
0.000000
-0.000000
-0.000000
-0.000000
-0.000000
0.000000
0.000000
0.000000
0.000000
0.000000
-0.000000
-0.000000
-0.000000
-0.000000
-0.000000
-0.000000
-0.000000
0.000000
-0.000000
0.000000
-0.000000
-0.000000
-0.000000
-0.000000
-0.000000
-0.000000
-0.000000
-0.000000
-0.000000
-0.000000
-0.000000
-0.000000
-0.000000
-0.000000
0.000000
-0.000000
-0.000000
-0.000000
-0.000000
-0.000000
-0.000000
0.000000
-0.000000
0.000000
-0.000000
-0.000000
-0.000000
-0.000000
-0.000000
-0.000000
-0.000000
-0.000000
-0.000000
-0.000000
0.000000
-0.000000
0.000000
-0.000000
-0.000000
-0.000000
-0.000000
-0.000000
-0.000000
-0.000000
-0.000000
-0.000000
-0.000000
-0.000000
-0.000000
-0.000000
-0.000000
-0.000000
-0.000000
-0.000000
-0.000000
0.000000
-0.000000
-0.000000
-0.000000
-0.000000
-0.000000
-0.000000
0.000000
0.000000
0.000000
0.000000
-0.000000
0.000000
-0.000000
-0.000000
-0.000000
-0.000000
-0.000000
-0.000000
-0.000000
-0.000000
-0.000000
-0.000000
-0.000000
-0.000000
-0.000000
-0.000000
-0.000000
-0.000000
-0.000000
0.000000
-0.000000
0.000000
-0.000000
0.000000
-0.000000
0.000000
-0.000000
-0.000000
-0.000000
-0.000000
-0.000000
0.000000
-0.000000
0.000000
-0.000000
-0.000000
0.000000
-0.000000
0.000000
-0.000000
-0.000000
-0.000000
-0.000000
0.000000
0.000000
0.000000
0.000000
-0.000000
-0.000000
0.000000
-0.000000
-0.000000
-0.000000
-0.000000
-0.000000
-0.000000
-0.000000
-0.000000
-0.000000
-0.000000
-0.000000
-0.000000
-0.000000
-0.000000
0.000000
-0.000000
0.000000
-0.000000
-0.000000
-0.000000
-0.000000
-0.000000
-0.000000
-0.000000
-0.000000
-0.000000
0.000000
-0.000000
0.000000
-0.000000
-0.000000
-0.000000
-0.000000
-0.000000
0.000000
-0.000000
0.000000
0.000000
-0.000000
-0.000000
-0.000000
0.000000
-0.000000
0.000000
-0.000000
-0.000000
-0.000000
-0.000000
-0.000000
-0.000000
-0.000000
-0.000000
-0.000000
-0.000000
-0.000000
-0.000000
-0.000000
-0.000000
-0.000000
-0.000000
-0.000000
-0.000000
-0.000000
-0.000000
-0.000000
-0.000000
-0.000000
-0.000000
-0.000000
0.000000
-0.000000
-0.000000
-0.000000
0.000000
-0.000000
-0.000000
-0.000000
-0.000000
0.000000
-0.000000
-0.000000
-0.000000
-0.000000
-0.000000
-0.000000
0.000000
-0.000000
0.000000
-0.000000
-0.000000
-0.000000
-0.000000
-0.000000

SCALARS sigma_yy FLOAT 1
LOOKUP_TABLE default
-16847.863812
-16847.863812
-16847.863812
-16847.863812
-16708.074847
-16546.640501
-16708.074847
-16546.640501
-16375.942811
-16280.731681
-16375.942811
-16280.731681
-16140.835055
-16017.426303
-16140.835055
-16017.426303
-15858.636615
-15742.430245
-15858.636615
-15742.430245
-15605.967426
-15482.640986
-15605.967426
-15482.640986
-15328.877436
-15213.139124
-15328.877436
-15213.139124
-15074.591005
-14947.774929
-15074.591005
-14947.774929
-14793.965137
-14682.577954
-14793.965137
-14682.577954
-14541.065006
-14421.008093
-14541.065006
-14421.008093
-14263.322083
-14147.547639
-14263.322083
-14147.547639
-14003.959127
-13895.200364
-14003.959127
-13895.200364
-13733.586686
-13616.582552
-13733.586686
-13616.582552
-13473.590417
-13357.814019
-13473.590417
-13357.814019
-13205.650537
-13092.296956
-13205.650537
-13092.296956
-12936.004483
-12817.813141
-12936.004483
-12817.813141
-12666.762030
-12551.856844
-12666.762030
-12551.856844
-12425.521863
-12300.323603
-12425.521863
-12300.323603
-12157.892463
-12020.263853
-12157.892463
-12020.263853
-11888.561805
-11746.234926
-11888.561805
-11746.234926
-11607.362249
-11495.489947
-11607.362249
-11495.489947
-11354.527629
-11235.164547
-11354.527629
-11235.164547
-11075.243383
-10975.222036
-11075.243383
-10975.222036
-10812.752662
-10689.329979
-10812.752662
-10689.329979
-10560.161291
-10426.328565
-10560.161291
-10426.328565
-10298.472492
-10161.954432
-10298.472492
-10161.954432
-10021.171138
-9894.443741
-10021.171138
-9894.443741
-9753.797772
-9642.303299
-9753.797772
-9642.303299
-9485.046834
-9381.297344
-9485.046834
-9381.297344
-9221.309735
-9101.537998
-9221.309735
-9101.537998
-8960.187327
-8830.167494
-8960.187327
-8830.167494
-8695.126935
-8571.505686
-8695.126935
-8571.505686
-8414.559968
-8319.670476
-8414.559968
-8319.670476
-8157.427417
-8045.225376
-8157.427417
-8045.225376
-7890.692420
-7776.863841
-7890.692420
-7776.863841
-7638.780149
-7502.920130
-7638.780149
-7502.920130
-7378.685330
-7231.510523
-7378.685330
-7231.510523
-7107.185770
-6983.182449
-7107.185770
-6983.182449
-6827.220534
-6717.360467
-6827.220534
-6717.360467
-6575.129545
-6434.917558
-6575.129545
-6434.917558
-6317.014258
-6165.965982
-6317.014258
-6165.965982
-6054.911334
-5896.080485
-6054.911334
-5896.080485
-5779.991996
-5645.642082
-5779.991996
-5645.642082
-5501.562236
-5387.593177
-5501.562236
-5387.593177
-5233.330297
-5113.663556
-5233.330297
-5113.663556
-4980.649243
-4845.841715
-4980.649243
-4845.841715
-4726.873541
-4584.729729
-4726.873541
-4584.729729
-4450.679478
-4326.462332
-4450.679478
-4326.462332
-4169.644227
-4074.804415
-4169.644227
-4074.804415
-3889.168602
-3796.168822
-3889.168602
-3796.168822
-3630.786701
-3544.933151
-3630.786701
-3544.933151
-3381.343956
-3254.002389
-3381.343956
-3254.002389
-3115.143580
-2983.428132
-3115.143580
-2983.428132
-2864.713171
-2727.221573
-2864.713171
-2727.221573
-2584.566084
-2453.915429
-2584.566084
-2453.915429
-2321.659596
-2205.090389
-2321.659596
-2205.090389
-2030.508181
-1934.797247
-2030.508181
-1934.797247
-1785.738576
-1683.812542
-1785.738576
-1683.812542
-1514.089853
-1410.474300
-1514.089853
-1410.474300
-1255.305840
-1133.587109
-1255.305840
-1133.587109
-989.315551
-863.492829
-989.315551
-863.492829
-725.514512
-592.967007
-725.514512
-592.967007
-464.457026
-329.093308
-464.457026
-329.093308
-199.909414
-67.859859
-199.909414
-67.859859

SCALARS sigma_zz FLOAT 1
LOOKUP_TABLE default
0.000000
0.000000
0.000000
0.000000
0.000000
0.000000
0.000000
0.000000
0.000000
0.000000
0.000000
0.000000
0.000000
0.000000
0.000000
0.000000
0.000000
0.000000
0.000000
0.000000
0.000000
0.000000
0.000000
0.000000
0.000000
0.000000
0.000000
0.000000
0.000000
0.000000
0.000000
0.000000
0.000000
0.000000
0.000000
0.000000
0.000000
0.000000
0.000000
0.000000
0.000000
0.000000
0.000000
0.000000
0.000000
0.000000
0.000000
0.000000
0.000000
0.000000
0.000000
0.000000
0.000000
0.000000
0.000000
0.000000
0.000000
0.000000
0.000000
0.000000
0.000000
0.000000
0.000000
0.000000
0.000000
0.000000
0.000000
0.000000
0.000000
0.000000
0.000000
0.000000
0.000000
0.000000
0.000000
0.000000
0.000000
0.000000
0.000000
0.000000
0.000000
0.000000
0.000000
0.000000
0.000000
0.000000
0.000000
0.000000
0.000000
0.000000
0.000000
0.000000
0.000000
0.000000
0.000000
0.000000
0.000000
0.000000
0.000000
0.000000
0.000000
0.000000
0.000000
0.000000
0.000000
0.000000
0.000000
0.000000
0.000000
0.000000
0.000000
0.000000
0.000000
0.000000
0.000000
0.000000
0.000000
0.000000
0.000000
0.000000
0.000000
0.000000
0.000000
0.000000
0.000000
0.000000
0.000000
0.000000
0.000000
0.000000
0.000000
0.000000
0.000000
0.000000
0.000000
0.000000
0.000000
0.000000
0.000000
0.000000
0.000000
0.000000
0.000000
0.000000
0.000000
0.000000
0.000000
0.000000
0.000000
0.000000
0.000000
0.000000
0.000000
0.000000
0.000000
0.000000
0.000000
0.000000
0.000000
0.000000
0.000000
0.000000
0.000000
0.000000
0.000000
0.000000
0.000000
0.000000
0.000000
0.000000
0.000000
0.000000
0.000000
0.000000
0.000000
0.000000
0.000000
0.000000
0.000000
0.000000
0.000000
0.000000
0.000000
0.000000
0.000000
0.000000
0.000000
0.000000
0.000000
0.000000
0.000000
0.000000
0.000000
0.000000
0.000000
0.000000
0.000000
0.000000
0.000000
0.000000
0.000000
0.000000
0.000000
0.000000
0.000000
0.000000
0.000000
0.000000
0.000000
0.000000
0.000000
0.000000
0.000000
0.000000
0.000000
0.000000
0.000000
0.000000
0.000000
0.000000
0.000000
0.000000
0.000000
0.000000
0.000000
0.000000
0.000000
0.000000
0.000000
0.000000
0.000000
0.000000
0.000000
0.000000
0.000000
0.000000
0.000000
0.000000
0.000000
0.000000
0.000000
0.000000
0.000000
0.000000
0.000000
0.000000
0.000000
0.000000
0.000000
0.000000
0.000000
0.000000
0.000000
0.000000
0.000000
0.000000

SCALARS sigma_xy FLOAT 1
LOOKUP_TABLE default
0.000000
0.000000
0.000000
0.000000
0.000000
0.000000
0.000000
0.000000
0.000000
0.000000
0.000000
0.000000
0.000000
-0.000000
0.000000
-0.000000
-0.000000
0.000000
-0.000000
0.000000
0.000000
0.000000
0.000000
0.000000
0.000000
0.000000
0.000000
0.000000
-0.000000
-0.000000
-0.000000
-0.000000
0.000000
0.000000
0.000000
0.000000
0.000000
-0.000000
0.000000
-0.000000
-0.000000
-0.000000
-0.000000
-0.000000
0.000000
-0.000000
0.000000
-0.000000
-0.000000
-0.000000
-0.000000
-0.000000
-0.000000
-0.000000
-0.000000
-0.000000
0.000000
0.000000
0.000000
0.000000
0.000000
0.000000
0.000000
0.000000
0.000000
-0.000000
0.000000
-0.000000
0.000000
-0.000000
0.000000
-0.000000
-0.000000
0.000000
-0.000000
0.000000
0.000000
-0.000000
0.000000
-0.000000
-0.000000
0.000000
-0.000000
0.000000
0.000000
-0.000000
0.000000
-0.000000
-0.000000
-0.000000
-0.000000
-0.000000
-0.000000
-0.000000
-0.000000
-0.000000
0.000000
-0.000000
0.000000
-0.000000
-0.000000
0.000000
0.000000
0.000000
0.000000
0.000000
0.000000
0.000000
-0.000000
0.000000
0.000000
0.000000
0.000000
0.000000
0.000000
0.000000
-0.000000
-0.000000
-0.000000
-0.000000
-0.000000
0.000000
-0.000000
0.000000
0.000000
0.000000
0.000000
0.000000
-0.000000
-0.000000
-0.000000
-0.000000
0.000000
0.000000
0.000000
0.000000
0.000000
-0.000000
0.000000
-0.000000
0.000000
0.000000
0.000000
0.000000
0.000000
-0.000000
0.000000
-0.000000
-0.000000
0.000000
-0.000000
0.000000
-0.000000
0.000000
-0.000000
0.000000
0.000000
0.000000
0.000000
0.000000
-0.000000
-0.000000
0.000000
-0.000000
-0.000000
-0.000000
-0.000000
-0.000000
0.000000
0.000000
0.000000
0.000000
0.000000
-0.000000
0.000000
-0.000000
0.000000
0.000000
0.000000
0.000000
0.000000
-0.000000
0.000000
-0.000000
-0.000000
-0.000000
-0.000000
-0.000000
-0.000000
0.000000
-0.000000
0.000000
0.000000
0.000000
0.000000
0.000000
0.000000
0.000000
0.000000
0.000000
0.000000
-0.000000
-0.000000
-0.000000
0.000000
0.000000
0.000000
0.000000
0.000000
0.000000
0.000000
0.000000
-0.000000
-0.000000
-0.000000
-0.000000
-0.000000
0.000000
-0.000000
0.000000
-0.000000
0.000000
-0.000000
0.000000
-0.000000
0.000000
-0.000000
0.000000
0.000000
0.000000
0.000000
0.000000
0.000000
0.000000
-0.000000
0.000000
0.000000
-0.000000
-0.000000
-0.000000
-0.000000
0.000000
-0.000000
-0.000000
-0.000000
0.000000
-0.000000
0.000000
0.000000
0.000000
0.000000
0.000000
-0.000000
-0.000000
-0.000000
-0.000000

SCALARS sigma_yz FLOAT 1
LOOKUP_TABLE default
0.000000
0.000000
0.000000
0.000000
0.000000
0.000000
0.000000
0.000000
0.000000
0.000000
0.000000
0.000000
0.000000
0.000000
0.000000
0.000000
0.000000
0.000000
0.000000
0.000000
0.000000
0.000000
0.000000
0.000000
0.000000
0.000000
0.000000
0.000000
0.000000
0.000000
0.000000
0.000000
0.000000
0.000000
0.000000
0.000000
0.000000
0.000000
0.000000
0.000000
0.000000
0.000000
0.000000
0.000000
0.000000
0.000000
0.000000
0.000000
0.000000
0.000000
0.000000
0.000000
0.000000
0.000000
0.000000
0.000000
0.000000
0.000000
0.000000
0.000000
0.000000
0.000000
0.000000
0.000000
0.000000
0.000000
0.000000
0.000000
0.000000
0.000000
0.000000
0.000000
0.000000
0.000000
0.000000
0.000000
0.000000
0.000000
0.000000
0.000000
0.000000
0.000000
0.000000
0.000000
0.000000
0.000000
0.000000
0.000000
0.000000
0.000000
0.000000
0.000000
0.000000
0.000000
0.000000
0.000000
0.000000
0.000000
0.000000
0.000000
0.000000
0.000000
0.000000
0.000000
0.000000
0.000000
0.000000
0.000000
0.000000
0.000000
0.000000
0.000000
0.000000
0.000000
0.000000
0.000000
0.000000
0.000000
0.000000
0.000000
0.000000
0.000000
0.000000
0.000000
0.000000
0.000000
0.000000
0.000000
0.000000
0.000000
0.000000
0.000000
0.000000
0.000000
0.000000
0.000000
0.000000
0.000000
0.000000
0.000000
0.000000
0.000000
0.000000
0.000000
0.000000
0.000000
0.000000
0.000000
0.000000
0.000000
0.000000
0.000000
0.000000
0.000000
0.000000
0.000000
0.000000
0.000000
0.000000
0.000000
0.000000
0.000000
0.000000
0.000000
0.000000
0.000000
0.000000
0.000000
0.000000
0.000000
0.000000
0.000000
0.000000
0.000000
0.000000
0.000000
0.000000
0.000000
0.000000
0.000000
0.000000
0.000000
0.000000
0.000000
0.000000
0.000000
0.000000
0.000000
0.000000
0.000000
0.000000
0.000000
0.000000
0.000000
0.000000
0.000000
0.000000
0.000000
0.000000
0.000000
0.000000
0.000000
0.000000
0.000000
0.000000
0.000000
0.000000
0.000000
0.000000
0.000000
0.000000
0.000000
0.000000
0.000000
0.000000
0.000000
0.000000
0.000000
0.000000
0.000000
0.000000
0.000000
0.000000
0.000000
0.000000
0.000000
0.000000
0.000000
0.000000
0.000000
0.000000
0.000000
0.000000
0.000000
0.000000
0.000000
0.000000
0.000000
0.000000
0.000000
0.000000
0.000000
0.000000
0.000000
0.000000
0.000000
0.000000
0.000000
0.000000
0.000000
0.000000
0.000000
0.000000
0.000000
0.000000
0.000000

SCALARS sigma_zx FLOAT 1
LOOKUP_TABLE default
0.000000
0.000000
0.000000
0.000000
0.000000
0.000000
0.000000
0.000000
0.000000
0.000000
0.000000
0.000000
0.000000
0.000000
0.000000
0.000000
0.000000
0.000000
0.000000
0.000000
0.000000
0.000000
0.000000
0.000000
0.000000
0.000000
0.000000
0.000000
0.000000
0.000000
0.000000
0.000000
0.000000
0.000000
0.000000
0.000000
0.000000
0.000000
0.000000
0.000000
0.000000
0.000000
0.000000
0.000000
0.000000
0.000000
0.000000
0.000000
0.000000
0.000000
0.000000
0.000000
0.000000
0.000000
0.000000
0.000000
0.000000
0.000000
0.000000
0.000000
0.000000
0.000000
0.000000
0.000000
0.000000
0.000000
0.000000
0.000000
0.000000
0.000000
0.000000
0.000000
0.000000
0.000000
0.000000
0.000000
0.000000
0.000000
0.000000
0.000000
0.000000
0.000000
0.000000
0.000000
0.000000
0.000000
0.000000
0.000000
0.000000
0.000000
0.000000
0.000000
0.000000
0.000000
0.000000
0.000000
0.000000
0.000000
0.000000
0.000000
0.000000
0.000000
0.000000
0.000000
0.000000
0.000000
0.000000
0.000000
0.000000
0.000000
0.000000
0.000000
0.000000
0.000000
0.000000
0.000000
0.000000
0.000000
0.000000
0.000000
0.000000
0.000000
0.000000
0.000000
0.000000
0.000000
0.000000
0.000000
0.000000
0.000000
0.000000
0.000000
0.000000
0.000000
0.000000
0.000000
0.000000
0.000000
0.000000
0.000000
0.000000
0.000000
0.000000
0.000000
0.000000
0.000000
0.000000
0.000000
0.000000
0.000000
0.000000
0.000000
0.000000
0.000000
0.000000
0.000000
0.000000
0.000000
0.000000
0.000000
0.000000
0.000000
0.000000
0.000000
0.000000
0.000000
0.000000
0.000000
0.000000
0.000000
0.000000
0.000000
0.000000
0.000000
0.000000
0.000000
0.000000
0.000000
0.000000
0.000000
0.000000
0.000000
0.000000
0.000000
0.000000
0.000000
0.000000
0.000000
0.000000
0.000000
0.000000
0.000000
0.000000
0.000000
0.000000
0.000000
0.000000
0.000000
0.000000
0.000000
0.000000
0.000000
0.000000
0.000000
0.000000
0.000000
0.000000
0.000000
0.000000
0.000000
0.000000
0.000000
0.000000
0.000000
0.000000
0.000000
0.000000
0.000000
0.000000
0.000000
0.000000
0.000000
0.000000
0.000000
0.000000
0.000000
0.000000
0.000000
0.000000
0.000000
0.000000
0.000000
0.000000
0.000000
0.000000
0.000000
0.000000
0.000000
0.000000
0.000000
0.000000
0.000000
0.000000
0.000000
0.000000
0.000000
0.000000
0.000000
0.000000
0.000000
0.000000
0.000000
0.000000
0.000000
0.000000
0.000000

SCALARS u_x FLOAT 1
LOOKUP_TABLE default
0.000000
0.000000
0.000000
0.000000
0.000000
0.000000
0.000000
0.000000
0.000000
0.000000
0.000000
0.000000
0.000000
0.000000
0.000000
0.000000
0.000000
0.000000
0.000000
0.000000
0.000000
0.000000
0.000000
0.000000
0.000000
0.000000
0.000000
0.000000
0.000000
0.000000
0.000000
0.000000
0.000000
0.000000
0.000000
0.000000
0.000000
0.000000
0.000000
0.000000
0.000000
0.000000
0.000000
0.000000
0.000000
0.000000
0.000000
0.000000
0.000000
0.000000
0.000000
0.000000
0.000000
0.000000
0.000000
0.000000
0.000000
0.000000
0.000000
0.000000
0.000000
0.000000
0.000000
0.000000
0.000000
0.000000
0.000000
0.000000
0.000000
0.000000
0.000000
0.000000
0.000000
0.000000
0.000000
0.000000
0.000000
0.000000
0.000000
0.000000
0.000000
0.000000
0.000000
0.000000
0.000000
0.000000
0.000000
0.000000
0.000000
0.000000
0.000000
0.000000
0.000000
0.000000
0.000000
0.000000
0.000000
0.000000
0.000000
0.000000
0.000000
0.000000
0.000000
0.000000
0.000000
0.000000
0.000000
0.000000
0.000000
0.000000
0.000000
0.000000
0.000000
0.000000
0.000000
0.000000
0.000000
0.000000
0.000000
0.000000
0.000000
0.000000
0.000000
0.000000
0.000000
0.000000
0.000000
0.000000
0.000000
0.000000
0.000000
0.000000
0.000000
0.000000
0.000000
0.000000
0.000000
0.000000
0.000000
0.000000
0.000000
0.000000
0.000000
0.000000
0.000000
0.000000
0.000000
0.000000
0.000000
0.000000
0.000000
0.000000
0.000000
0.000000
0.000000
0.000000
0.000000
0.000000
0.000000
0.000000
0.000000
0.000000
0.000000
0.000000
0.000000
0.000000
0.000000
0.000000
0.000000
0.000000
0.000000
0.000000
0.000000
0.000000
0.000000
0.000000
0.000000
0.000000
0.000000
0.000000
0.000000
0.000000
0.000000
0.000000
0.000000
0.000000
0.000000
0.000000
0.000000
0.000000
0.000000
0.000000
0.000000
0.000000
0.000000
0.000000
0.000000
0.000000
0.000000
0.000000
0.000000
0.000000
0.000000
0.000000
0.000000
0.000000
0.000000
0.000000
0.000000
0.000000
0.000000
0.000000
0.000000
0.000000
0.000000
0.000000
0.000000
0.000000
0.000000
0.000000
0.000000
0.000000
0.000000
0.000000
0.000000
0.000000
0.000000
0.000000
0.000000
0.000000
0.000000
0.000000
0.000000
0.000000
0.000000
0.000000
0.000000
0.000000
0.000000
0.000000
0.000000
0.000000
0.000000
0.000000
0.000000
0.000000
0.000000
0.000000
0.000000
0.000000
0.000000
0.000000
0.000000
0.000000
0.000000
0.000000

SCALARS u_y FLOAT 1
LOOKUP_TABLE default
-0.105391
-0.316174
-0.105391
-0.316174
-0.526709
-0.736427
-0.526709
-0.736427
-0.945380
-1.153684
-0.945380
-1.153684
-1.361449
-1.568554
-1.361449
-1.568554
-1.774965
-1.980670
-1.774965
-1.980670
-2.185769
-2.390186
-2.185769
-2.390186
-2.593912
-2.796911
-2.593912
-2.796911
-2.999281
-3.200943
-2.999281
-3.200943
-3.401866
-3.602060
-3.401866
-3.602060
-3.801572
-4.000372
-3.801572
-4.000372
-4.198379
-4.395642
-4.198379
-4.395642
-4.592172
-4.788001
-4.592172
-4.788001
-4.983010
-5.177231
-4.983010
-5.177231
-5.370664
-5.563400
-5.370664
-5.563400
-5.755262
-5.946328
-5.755262
-5.946328
-6.136604
-6.326024
-6.136604
-6.326024
-6.514562
-6.702235
-6.514562
-6.702235
-6.889253
-7.075341
-6.889253
-7.075341
-7.260601
-7.444910
-7.260601
-7.444910
-7.628360
-7.810868
-7.628360
-7.810868
-7.992343
-8.173112
-7.992343
-8.173112
-8.352814
-8.531738
-8.352814
-8.531738
-8.709566
-8.886525
-8.709566
-8.886525
-9.062479
-9.237367
-9.062479
-9.237367
-9.411345
-9.584227
-9.411345
-9.584227
-9.756222
-9.927131
-9.756222
-9.927131
-10.096903
-10.265735
-10.096903
-10.265735
-10.433273
-10.599945
-10.433273
-10.599945
-10.765437
-10.929865
-10.765437
-10.929865
-11.093182
-11.255240
-11.093182
-11.255240
-11.416210
-11.575877
-11.416210
-11.575877
-11.734483
-11.891838
-11.734483
-11.891838
-12.047821
-12.202763
-12.047821
-12.202763
-12.356333
-12.508708
-12.356333
-12.508708
-12.659810
-12.809366
-12.659810
-12.809366
-12.957889
-13.104790
-12.957889
-13.104790
-13.250506
-13.394728
-13.250506
-13.394728
-13.537459
-13.678895
-13.537459
-13.678895
-13.818747
-13.957117
-13.818747
-13.957117
-14.094127
-14.229338
-14.094127
-14.229338
-14.363172
-14.495224
-14.363172
-14.495224
-14.625836
-14.754774
-14.625836
-14.754774
-14.881778
-15.007496
-14.881778
-15.007496
-15.131061
-15.253196
-15.131061
-15.253196
-15.373310
-15.491661
-15.373310
-15.491661
-15.608113
-15.722679
-15.608113
-15.722679
-15.835363
-15.946215
-15.835363
-15.946215
-16.054809
-16.161648
-16.054809
-16.161648
-16.265933
-16.368558
-16.265933
-16.368558
-16.468491
-16.566392
-16.468491
-16.566392
-16.661901
-16.755247
-16.661901
-16.755247
-16.846416
-16.934694
-16.846416
-16.934694
-17.020739
-17.103863
-17.020739
-17.103863
-17.184854
-17.263151
-17.184854
-17.263151
-17.338429
-17.411013
-17.338429
-17.411013
-17.480508
-17.547419
-17.480508
-17.547419
-17.610801
-17.671079
-17.610801
-17.671079
-17.728414
-17.782570
-17.728414
-17.782570
-17.833418
-17.880366
-17.833418
-17.880366
-17.924214
-17.963677
-17.924214
-17.963677
-17.999814
-18.031394
-17.999814
-18.031394
-18.059463
-18.082592
-18.059463
-18.082592
-18.102056
-18.116408
-18.102056
-18.116408
-18.126586
-18.131429
-18.126586
-18.131429

