# vtk DataFile Version 2.0
MATLAB generated vtk file, WMC
ASCII
DATASET UNSTRUCTURED_GRID
POINTS 256 double
0.195312 0.078328 0.000000 
0.195312 0.234985 0.000000 
0.585938 0.078328 0.000000 
0.585938 0.234985 0.000000 
0.195312 0.391857 0.000000 
0.195312 0.549441 0.000000 
0.585938 0.391857 0.000000 
0.585938 0.549441 0.000000 
0.195312 0.707722 0.000000 
0.195312 0.866756 0.000000 
0.585938 0.707722 0.000000 
0.585938 0.866756 0.000000 
0.195312 1.026304 0.000000 
0.195312 1.186428 0.000000 
0.585938 1.026304 0.000000 
0.585938 1.186428 0.000000 
0.195312 1.347162 0.000000 
0.195312 1.508609 0.000000 
0.585938 1.347162 0.000000 
0.585938 1.508609 0.000000 
0.195312 1.670726 0.000000 
0.195312 1.833451 0.000000 
0.585938 1.670726 0.000000 
0.585938 1.833451 0.000000 
0.195312 1.996781 0.000000 
0.195312 2.160805 0.000000 
0.585938 1.996781 0.000000 
0.585938 2.160805 0.000000 
0.195312 2.325507 0.000000 
0.195312 2.490900 0.000000 
0.585938 2.325507 0.000000 
0.585938 2.490900 0.000000 
0.195312 2.656945 0.000000 
0.195312 2.823669 0.000000 
0.585938 2.656945 0.000000 
0.585938 2.823669 0.000000 
0.195312 2.991100 0.000000 
0.195312 3.159250 0.000000 
0.585938 2.991100 0.000000 
0.585938 3.159250 0.000000 
0.195312 3.328102 0.000000 
0.195312 3.497636 0.000000 
0.585938 3.328102 0.000000 
0.585938 3.497636 0.000000 
0.195312 3.667898 0.000000 
0.195312 3.838874 0.000000 
0.585938 3.667898 0.000000 
0.585938 3.838874 0.000000 
0.195312 4.010647 0.000000 
0.195312 4.183151 0.000000 
0.585938 4.010647 0.000000 
0.585938 4.183151 0.000000 
0.195312 4.356449 0.000000 
0.195312 4.530478 0.000000 
0.585938 4.356449 0.000000 
0.585938 4.530478 0.000000 
0.195312 4.705353 0.000000 
0.195312 4.880958 0.000000 
0.585938 4.705353 0.000000 
0.585938 4.880958 0.000000 
0.195312 5.057298 0.000000 
0.195312 5.234439 0.000000 
0.585938 5.057298 0.000000 
0.585938 5.234439 0.000000 
0.195312 5.412414 0.000000 
0.195312 5.591259 0.000000 
0.585938 5.412414 0.000000 
0.585938 5.591259 0.000000 
0.195312 5.770824 0.000000 
0.195312 5.951318 0.000000 
0.585938 5.770824 0.000000 
0.585938 5.951318 0.000000 
0.195312 6.132650 0.000000 
0.195312 6.314900 0.000000 
0.585938 6.132650 0.000000 
0.585938 6.314900 0.000000 
0.195312 6.497942 0.000000 
0.195312 6.681848 0.000000 
0.585938 6.497942 0.000000 
0.585938 6.681848 0.000000 
0.195312 6.866727 0.000000 
0.195312 7.052403 0.000000 
0.585938 6.866727 0.000000 
0.585938 7.052403 0.000000 
0.195312 7.239131 0.000000 
0.195312 7.426666 0.000000 
0.585938 7.239131 0.000000 
0.585938 7.426666 0.000000 
0.195312 7.615250 0.000000 
0.195312 7.804732 0.000000 
0.585938 7.615250 0.000000 
0.585938 7.804732 0.000000 
0.195312 7.995169 0.000000 
0.195312 8.186600 0.000000 
0.585938 7.995169 0.000000 
0.585938 8.186600 0.000000 
0.195312 8.379018 0.000000 
0.195312 8.572537 0.000000 
0.585938 8.379018 0.000000 
0.585938 8.572537 0.000000 
0.195312 8.766950 0.000000 
0.195312 8.962374 0.000000 
0.585938 8.766950 0.000000 
0.585938 8.962374 0.000000 
0.195312 9.158878 0.000000 
0.195312 9.356357 0.000000 
0.585938 9.158878 0.000000 
0.585938 9.356357 0.000000 
0.195312 9.555064 0.000000 
0.195312 9.754772 0.000000 
0.585938 9.555064 0.000000 
0.585938 9.754772 0.000000 
0.195312 9.955680 0.000000 
0.195312 10.157676 0.000000 
0.585938 9.955680 0.000000 
0.585938 10.157676 0.000000 
0.195312 10.360760 0.000000 
0.195312 10.565020 0.000000 
0.585938 10.360760 0.000000 
0.585938 10.565020 0.000000 
0.195312 10.770480 0.000000 
0.195312 10.977227 0.000000 
0.585938 10.770480 0.000000 
0.585938 10.977227 0.000000 
0.195312 11.185084 0.000000 
0.195312 11.394156 0.000000 
0.585938 11.185084 0.000000 
0.585938 11.394156 0.000000 
0.195312 11.604512 0.000000 
0.195312 11.815936 0.000000 
0.585938 11.604512 0.000000 
0.585938 11.815936 0.000000 
0.195312 12.028781 0.000000 
0.195312 12.242903 0.000000 
0.585938 12.028781 0.000000 
0.585938 12.242903 0.000000 
0.195312 12.458395 0.000000 
0.195312 12.675413 0.000000 
0.585938 12.458395 0.000000 
0.585938 12.675413 0.000000 
0.195312 12.893528 0.000000 
0.195312 13.113199 0.000000 
0.585938 12.893528 0.000000 
0.585938 13.113199 0.000000 
0.195312 13.334156 0.000000 
0.195312 13.556611 0.000000 
0.585938 13.334156 0.000000 
0.585938 13.556611 0.000000 
0.195312 13.780578 0.000000 
0.195312 14.006059 0.000000 
0.585938 13.780578 0.000000 
0.585938 14.006059 0.000000 
0.195312 14.233145 0.000000 
0.195312 14.461739 0.000000 
0.585938 14.233145 0.000000 
0.585938 14.461739 0.000000 
0.195312 14.691765 0.000000 
0.195312 14.923544 0.000000 
0.585938 14.691765 0.000000 
0.585938 14.923544 0.000000 
0.195312 15.156755 0.000000 
0.195312 15.391777 0.000000 
0.585938 15.156755 0.000000 
0.585938 15.391777 0.000000 
0.195312 15.628393 0.000000 
0.195312 15.866768 0.000000 
0.585938 15.628393 0.000000 
0.585938 15.866768 0.000000 
0.195312 16.107132 0.000000 
0.195312 16.348989 0.000000 
0.585938 16.107132 0.000000 
0.585938 16.348989 0.000000 
0.195312 16.593026 0.000000 
0.195312 16.838717 0.000000 
0.585938 16.593026 0.000000 
0.585938 16.838717 0.000000 
0.195312 17.086468 0.000000 
0.195312 17.336036 0.000000 
0.585938 17.086468 0.000000 
0.585938 17.336036 0.000000 
0.195312 17.587678 0.000000 
0.195312 17.841345 0.000000 
0.585938 17.587678 0.000000 
0.585938 17.841345 0.000000 
0.195312 18.097071 0.000000 
0.195312 18.354957 0.000000 
0.585938 18.097071 0.000000 
0.585938 18.354957 0.000000 
0.195312 18.615177 0.000000 
0.195312 18.877207 0.000000 
0.585938 18.615177 0.000000 
0.585938 18.877207 0.000000 
0.195312 19.141978 0.000000 
0.195312 19.408798 0.000000 
0.585938 19.141978 0.000000 
0.585938 19.408798 0.000000 
0.195312 19.678354 0.000000 
0.195312 19.950009 0.000000 
0.585938 19.678354 0.000000 
0.585938 19.950009 0.000000 
0.195312 20.224413 0.000000 
0.195312 20.501471 0.000000 
0.585938 20.224413 0.000000 
0.585938 20.501471 0.000000 
0.195312 20.780902 0.000000 
0.195312 21.063475 0.000000 
0.585938 20.780902 0.000000 
0.585938 21.063475 0.000000 
0.195312 21.348568 0.000000 
0.195312 21.636759 0.000000 
0.585938 21.348568 0.000000 
0.585938 21.636759 0.000000 
0.195312 21.927451 0.000000 
0.195312 22.221422 0.000000 
0.585938 21.927451 0.000000 
0.585938 22.221422 0.000000 
0.195312 22.518874 0.000000 
0.195312 22.819193 0.000000 
0.585938 22.518874 0.000000 
0.585938 22.819193 0.000000 
0.195312 23.122814 0.000000 
0.195312 23.429702 0.000000 
0.585938 23.122814 0.000000 
0.585938 23.429702 0.000000 
0.195312 23.740763 0.000000 
0.195312 24.055458 0.000000 
0.585938 23.740763 0.000000 
0.585938 24.055458 0.000000 
0.195312 24.373676 0.000000 
0.195312 24.695642 0.000000 
0.585938 24.373676 0.000000 
0.585938 24.695642 0.000000 
0.195312 25.021779 0.000000 
0.195312 25.352438 0.000000 
0.585938 25.021779 0.000000 
0.585938 25.352438 0.000000 
0.195312 25.687204 0.000000 
0.195312 26.027115 0.000000 
0.585938 25.687204 0.000000 
0.585938 26.027115 0.000000 
0.195312 26.371158 0.000000 
0.195312 26.720508 0.000000 
0.585938 26.371158 0.000000 
0.585938 26.720508 0.000000 
0.195312 27.074361 0.000000 
0.195312 27.434223 0.000000 
0.585938 27.074361 0.000000 
0.585938 27.434223 0.000000 
0.195312 27.798912 0.000000 
0.195312 28.170380 0.000000 
0.585938 27.798912 0.000000 
0.585938 28.170380 0.000000 
0.195312 28.547528 0.000000 
0.195312 28.931916 0.000000 
0.585938 28.547528 0.000000 
0.585938 28.931916 0.000000 

POINT_DATA 256
SCALARS sigma_xx FLOAT 1
LOOKUP_TABLE default
0.000000
0.000000
0.000000
0.000000
0.000000
0.000000
-0.000000
0.000000
-0.000000
0.000000
-0.000000
0.000000
-0.000000
-0.000000
-0.000000
-0.000000
-0.000000
-0.000000
-0.000000
-0.000000
-0.000000
-0.000000
-0.000000
-0.000000
-0.000000
-0.000000
-0.000000
-0.000000
-0.000000
-0.000000
-0.000000
-0.000000
-0.000000
0.000000
-0.000000
0.000000
-0.000000
-0.000000
-0.000000
-0.000000
-0.000000
-0.000000
-0.000000
-0.000000
0.000000
-0.000000
0.000000
-0.000000
-0.000000
-0.000000
-0.000000
-0.000000
0.000000
-0.000000
0.000000
-0.000000
0.000000
0.000000
-0.000000
0.000000
-0.000000
-0.000000
-0.000000
-0.000000
-0.000000
0.000000
-0.000000
0.000000
0.000000
-0.000000
0.000000
-0.000000
-0.000000
-0.000000
-0.000000
-0.000000
-0.000000
-0.000000
-0.000000
-0.000000
-0.000000
-0.000000
-0.000000
-0.000000
0.000000
-0.000000
0.000000
-0.000000
-0.000000
-0.000000
-0.000000
-0.000000
0.000000
-0.000000
0.000000
-0.000000
-0.000000
-0.000000
-0.000000
-0.000000
0.000000
-0.000000
-0.000000
-0.000000
-0.000000
0.000000
-0.000000
0.000000
-0.000000
-0.000000
-0.000000
-0.000000
0.000000
0.000000
0.000000
0.000000
-0.000000
-0.000000
-0.000000
-0.000000
-0.000000
-0.000000
0.000000
-0.000000
-0.000000
-0.000000
-0.000000
-0.000000
-0.000000
-0.000000
-0.000000
-0.000000
0.000000
-0.000000
-0.000000
-0.000000
0.000000
-0.000000
-0.000000
-0.000000
0.000000
-0.000000
0.000000
0.000000
-0.000000
-0.000000
-0.000000
-0.000000
-0.000000
-0.000000
-0.000000
-0.000000
0.000000
-0.000000
0.000000
-0.000000
-0.000000
0.000000
-0.000000
0.000000
-0.000000
-0.000000
0.000000
-0.000000
-0.000000
-0.000000
-0.000000
-0.000000
-0.000000
0.000000
-0.000000
0.000000
-0.000000
-0.000000
-0.000000
-0.000000
-0.000000
-0.000000
-0.000000
-0.000000
-0.000000
-0.000000
-0.000000
-0.000000
-0.000000
0.000000
-0.000000
0.000000
-0.000000
-0.000000
-0.000000
-0.000000
-0.000000
-0.000000
-0.000000
-0.000000
0.000000
-0.000000
0.000000
-0.000000
-0.000000
0.000000
-0.000000
0.000000
-0.000000
-0.000000
-0.000000
-0.000000
-0.000000
-0.000000
-0.000000
-0.000000
-0.000000
0.000000
-0.000000
0.000000
-0.000000
-0.000000
-0.000000
-0.000000
-0.000000
-0.000000
-0.000000
-0.000000
0.000000
-0.000000
0.000000
-0.000000
-0.000000
-0.000000
-0.000000
-0.000000
-0.000000
-0.000000
0.000000
-0.000000
-0.000000
-0.000000
-0.000000
-0.000000
-0.000000
-0.000000
-0.000000
-0.000000
-0.000000
-0.000000
0.000000
-0.000000
-0.000000
-0.000000
-0.000000
-0.000000
0.000000
-0.000000
0.000000
-0.000000

SCALARS sigma_yy FLOAT 1
LOOKUP_TABLE default
-22783.082096
-22783.082096
-22783.082096
-22783.082096
-22610.116879
-22410.337152
-22610.116879
-22410.337152
-22164.393138
-22004.301645
-22164.393138
-22004.301645
-21831.533265
-21679.104994
-21831.533265
-21679.104994
-21475.595881
-21284.709083
-21475.595881
-21284.709083
-21099.653754
-20947.602836
-21099.653754
-20947.602836
-20755.376352
-20580.160659
-20755.376352
-20580.160659
-20381.203944
-20217.555088
-20381.203944
-20217.555088
-20027.329909
-19865.662574
-20027.329909
-19865.662574
-19663.003067
-19504.373516
-19663.003067
-19504.373516
-19310.618104
-19149.933549
-19310.618104
-19149.933549
-18951.190530
-18794.787037
-18951.190530
-18794.787037
-18586.905828
-18425.163820
-18586.905828
-18425.163820
-18222.191050
-18056.363469
-18222.191050
-18056.363469
-17859.944357
-17713.388733
-17859.944357
-17713.388733
-17512.897322
-17355.925145
-17512.897322
-17355.925145
-17157.545539
-16983.809829
-17157.545539
-16983.809829
-16805.028636
-16628.517710
-16805.028636
-16628.517710
-16433.627642
-16256.838524
-16433.627642
-16256.838524
-16089.744948
-15910.199893
-16089.744948
-15910.199893
-15715.028045
-15551.915727
-15715.028045
-15551.915727
-15357.557051
-15193.460041
-15357.557051
-15193.460041
-14984.316945
-14835.077081
-14984.316945
-14835.077081
-14639.897224
-14466.216330
-14639.897224
-14466.216330
-14276.646955
-14098.867696
-14276.646955
-14098.867696
-13927.620498
-13757.496467
-13927.620498
-13757.496467
-13567.427148
-13397.009237
-13567.427148
-13397.009237
-13206.685695
-13031.332507
-13206.685695
-13031.332507
-12829.338618
-12676.122372
-12829.338618
-12676.122372
-12481.747137
-12313.035416
-12481.747137
-12313.035416
-12114.099991
-11943.450438
-12114.099991
-11943.450438
-11756.500646
-11601.423214
-11756.500646
-11601.423214
-11402.977942
-11261.570003
-11402.977942
-11261.570003
-11042.024484
-10880.935684
-11042.024484
-10880.935684
-10669.084382
-10518.278628
-10669.084382
-10518.278628
-10333.858235
-10156.338460
-10333.858235
-10156.338460
-9979.852041
-9793.452022
-9979.852041
-9793.452022
-9611.108556
-9432.688560
-9611.108556
-9432.688560
-9231.404143
-9079.245957
-9231.404143
-9079.245957
-8895.882634
-8712.255293
-8895.882634
-8712.255293
-8555.769653
-8352.709687
-8555.769653
-8352.709687
-8189.505423
-7987.577563
-8189.505423
-7987.577563
-7820.587438
-7634.922919
-7820.587438
-7634.922919
-7446.537486
-7281.660099
-7446.537486
-7281.660099
-7083.894487
-6924.920240
-7083.894487
-6924.920240
-6742.899680
-6553.812512
-6742.899680
-6553.812512
-6388.154732
-6191.478100
-6388.154732
-6191.478100
-6020.668994
-5853.362191
-6020.668994
-5853.362191
-5648.377048
-5493.888179
-5648.377048
-5493.888179
-5278.222324
-5144.885000
-5278.222324
-5144.885000
-4916.923329
-4777.789414
-4916.923329
-4777.789414
-4571.282448
-4401.080445
-4571.282448
-4401.080445
-4219.334702
-4047.304762
-4219.334702
-4047.304762
-3870.339963
-3681.442136
-3870.339963
-3681.442136
-3490.847563
-3337.710114
-3490.847563
-3337.710114
-3150.916391
-2978.963031
-3150.916391
-2978.963031
-2757.226282
-2608.352499
-2757.226282
-2608.352499
-2426.027189
-2265.878977
-2426.027189
-2265.878977
-2049.093776
-1899.834052
-2049.093776
-1899.834052
-1689.467977
-1527.105866
-1689.467977
-1527.105866
-1341.648772
-1174.956397
-1341.648772
-1174.956397
-989.001028
-816.438776
-989.001028
-816.438776
-630.271130
-448.286694
-630.271130
-448.286694
-262.330249
-79.654486
-262.330249
-79.654486

SCALARS sigma_zz FLOAT 1
LOOKUP_TABLE default
0.000000
0.000000
0.000000
0.000000
0.000000
0.000000
0.000000
0.000000
0.000000
0.000000
0.000000
0.000000
0.000000
0.000000
0.000000
0.000000
0.000000
0.000000
0.000000
0.000000
0.000000
0.000000
0.000000
0.000000
0.000000
0.000000
0.000000
0.000000
0.000000
0.000000
0.000000
0.000000
0.000000
0.000000
0.000000
0.000000
0.000000
0.000000
0.000000
0.000000
0.000000
0.000000
0.000000
0.000000
0.000000
0.000000
0.000000
0.000000
0.000000
0.000000
0.000000
0.000000
0.000000
0.000000
0.000000
0.000000
0.000000
0.000000
0.000000
0.000000
0.000000
0.000000
0.000000
0.000000
0.000000
0.000000
0.000000
0.000000
0.000000
0.000000
0.000000
0.000000
0.000000
0.000000
0.000000
0.000000
0.000000
0.000000
0.000000
0.000000
0.000000
0.000000
0.000000
0.000000
0.000000
0.000000
0.000000
0.000000
0.000000
0.000000
0.000000
0.000000
0.000000
0.000000
0.000000
0.000000
0.000000
0.000000
0.000000
0.000000
0.000000
0.000000
0.000000
0.000000
0.000000
0.000000
0.000000
0.000000
0.000000
0.000000
0.000000
0.000000
0.000000
0.000000
0.000000
0.000000
0.000000
0.000000
0.000000
0.000000
0.000000
0.000000
0.000000
0.000000
0.000000
0.000000
0.000000
0.000000
0.000000
0.000000
0.000000
0.000000
0.000000
0.000000
0.000000
0.000000
0.000000
0.000000
0.000000
0.000000
0.000000
0.000000
0.000000
0.000000
0.000000
0.000000
0.000000
0.000000
0.000000
0.000000
0.000000
0.000000
0.000000
0.000000
0.000000
0.000000
0.000000
0.000000
0.000000
0.000000
0.000000
0.000000
0.000000
0.000000
0.000000
0.000000
0.000000
0.000000
0.000000
0.000000
0.000000
0.000000
0.000000
0.000000
0.000000
0.000000
0.000000
0.000000
0.000000
0.000000
0.000000
0.000000
0.000000
0.000000
0.000000
0.000000
0.000000
0.000000
0.000000
0.000000
0.000000
0.000000
0.000000
0.000000
0.000000
0.000000
0.000000
0.000000
0.000000
0.000000
0.000000
0.000000
0.000000
0.000000
0.000000
0.000000
0.000000
0.000000
0.000000
0.000000
0.000000
0.000000
0.000000
0.000000
0.000000
0.000000
0.000000
0.000000
0.000000
0.000000
0.000000
0.000000
0.000000
0.000000
0.000000
0.000000
0.000000
0.000000
0.000000
0.000000
0.000000
0.000000
0.000000
0.000000
0.000000
0.000000
0.000000
0.000000
0.000000
0.000000
0.000000
0.000000
0.000000
0.000000
0.000000
0.000000
0.000000
0.000000
0.000000
0.000000
0.000000
0.000000
0.000000
0.000000
0.000000
0.000000

SCALARS sigma_xy FLOAT 1
LOOKUP_TABLE default
0.000000
0.000000
0.000000
0.000000
0.000000
0.000000
0.000000
0.000000
0.000000
0.000000
0.000000
0.000000
-0.000000
-0.000000
-0.000000
-0.000000
-0.000000
-0.000000
-0.000000
-0.000000
-0.000000
0.000000
-0.000000
0.000000
0.000000
0.000000
0.000000
0.000000
0.000000
0.000000
0.000000
0.000000
0.000000
0.000000
0.000000
0.000000
-0.000000
-0.000000
-0.000000
-0.000000
-0.000000
-0.000000
-0.000000
-0.000000
0.000000
0.000000
0.000000
0.000000
0.000000
0.000000
0.000000
0.000000
0.000000
-0.000000
0.000000
-0.000000
0.000000
0.000000
0.000000
0.000000
-0.000000
-0.000000
-0.000000
-0.000000
0.000000
0.000000
0.000000
0.000000
0.000000
-0.000000
0.000000
-0.000000
-0.000000
-0.000000
-0.000000
-0.000000
0.000000
0.000000
0.000000
0.000000
0.000000
0.000000
0.000000
0.000000
0.000000
-0.000000
0.000000
-0.000000
-0.000000
-0.000000
-0.000000
-0.000000
0.000000
0.000000
0.000000
0.000000
0.000000
0.000000
0.000000
0.000000
0.000000
-0.000000
0.000000
-0.000000
-0.000000
0.000000
-0.000000
0.000000
-0.000000
0.000000
-0.000000
0.000000
0.000000
0.000000
0.000000
0.000000
-0.000000
-0.000000
-0.000000
-0.000000
-0.000000
0.000000
0.000000
0.000000
0.000000
0.000000
0.000000
0.000000
-0.000000
-0.000000
-0.000000
-0.000000
0.000000
0.000000
-0.000000
0.000000
0.000000
-0.000000
0.000000
-0.000000
0.000000
-0.000000
0.000000
0.000000
-0.000000
-0.000000
-0.000000
-0.000000
0.000000
0.000000
0.000000
0.000000
0.000000
0.000000
0.000000
0.000000
0.000000
0.000000
0.000000
0.000000
-0.000000
-0.000000
0.000000
-0.000000
-0.000000
-0.000000
-0.000000
-0.000000
0.000000
0.000000
0.000000
0.000000
-0.000000
-0.000000
-0.000000
-0.000000
0.000000
0.000000
0.000000
0.000000
0.000000
-0.000000
0.000000
-0.000000
0.000000
0.000000
0.000000
0.000000
-0.000000
-0.000000
-0.000000
-0.000000
0.000000
0.000000
0.000000
0.000000
0.000000
-0.000000
0.000000
-0.000000
0.000000
0.000000
0.000000
0.000000
0.000000
-0.000000
0.000000
-0.000000
0.000000
-0.000000
0.000000
-0.000000
-0.000000
0.000000
-0.000000
0.000000
0.000000
0.000000
0.000000
0.000000
-0.000000
0.000000
-0.000000
0.000000
0.000000
0.000000
0.000000
0.000000
0.000000
0.000000
0.000000
0.000000
0.000000
0.000000
0.000000
0.000000
-0.000000
-0.000000
-0.000000
-0.000000
-0.000000
0.000000
-0.000000
0.000000
0.000000
0.000000
0.000000
0.000000
0.000000
0.000000
0.000000
0.000000
0.000000
-0.000000
0.000000
-0.000000

SCALARS sigma_yz FLOAT 1
LOOKUP_TABLE default
0.000000
0.000000
0.000000
0.000000
0.000000
0.000000
0.000000
0.000000
0.000000
0.000000
0.000000
0.000000
0.000000
0.000000
0.000000
0.000000
0.000000
0.000000
0.000000
0.000000
0.000000
0.000000
0.000000
0.000000
0.000000
0.000000
0.000000
0.000000
0.000000
0.000000
0.000000
0.000000
0.000000
0.000000
0.000000
0.000000
0.000000
0.000000
0.000000
0.000000
0.000000
0.000000
0.000000
0.000000
0.000000
0.000000
0.000000
0.000000
0.000000
0.000000
0.000000
0.000000
0.000000
0.000000
0.000000
0.000000
0.000000
0.000000
0.000000
0.000000
0.000000
0.000000
0.000000
0.000000
0.000000
0.000000
0.000000
0.000000
0.000000
0.000000
0.000000
0.000000
0.000000
0.000000
0.000000
0.000000
0.000000
0.000000
0.000000
0.000000
0.000000
0.000000
0.000000
0.000000
0.000000
0.000000
0.000000
0.000000
0.000000
0.000000
0.000000
0.000000
0.000000
0.000000
0.000000
0.000000
0.000000
0.000000
0.000000
0.000000
0.000000
0.000000
0.000000
0.000000
0.000000
0.000000
0.000000
0.000000
0.000000
0.000000
0.000000
0.000000
0.000000
0.000000
0.000000
0.000000
0.000000
0.000000
0.000000
0.000000
0.000000
0.000000
0.000000
0.000000
0.000000
0.000000
0.000000
0.000000
0.000000
0.000000
0.000000
0.000000
0.000000
0.000000
0.000000
0.000000
0.000000
0.000000
0.000000
0.000000
0.000000
0.000000
0.000000
0.000000
0.000000
0.000000
0.000000
0.000000
0.000000
0.000000
0.000000
0.000000
0.000000
0.000000
0.000000
0.000000
0.000000
0.000000
0.000000
0.000000
0.000000
0.000000
0.000000
0.000000
0.000000
0.000000
0.000000
0.000000
0.000000
0.000000
0.000000
0.000000
0.000000
0.000000
0.000000
0.000000
0.000000
0.000000
0.000000
0.000000
0.000000
0.000000
0.000000
0.000000
0.000000
0.000000
0.000000
0.000000
0.000000
0.000000
0.000000
0.000000
0.000000
0.000000
0.000000
0.000000
0.000000
0.000000
0.000000
0.000000
0.000000
0.000000
0.000000
0.000000
0.000000
0.000000
0.000000
0.000000
0.000000
0.000000
0.000000
0.000000
0.000000
0.000000
0.000000
0.000000
0.000000
0.000000
0.000000
0.000000
0.000000
0.000000
0.000000
0.000000
0.000000
0.000000
0.000000
0.000000
0.000000
0.000000
0.000000
0.000000
0.000000
0.000000
0.000000
0.000000
0.000000
0.000000
0.000000
0.000000
0.000000
0.000000
0.000000
0.000000
0.000000
0.000000
0.000000
0.000000
0.000000
0.000000
0.000000
0.000000
0.000000
0.000000
0.000000
0.000000

SCALARS sigma_zx FLOAT 1
LOOKUP_TABLE default
0.000000
0.000000
0.000000
0.000000
0.000000
0.000000
0.000000
0.000000
0.000000
0.000000
0.000000
0.000000
0.000000
0.000000
0.000000
0.000000
0.000000
0.000000
0.000000
0.000000
0.000000
0.000000
0.000000
0.000000
0.000000
0.000000
0.000000
0.000000
0.000000
0.000000
0.000000
0.000000
0.000000
0.000000
0.000000
0.000000
0.000000
0.000000
0.000000
0.000000
0.000000
0.000000
0.000000
0.000000
0.000000
0.000000
0.000000
0.000000
0.000000
0.000000
0.000000
0.000000
0.000000
0.000000
0.000000
0.000000
0.000000
0.000000
0.000000
0.000000
0.000000
0.000000
0.000000
0.000000
0.000000
0.000000
0.000000
0.000000
0.000000
0.000000
0.000000
0.000000
0.000000
0.000000
0.000000
0.000000
0.000000
0.000000
0.000000
0.000000
0.000000
0.000000
0.000000
0.000000
0.000000
0.000000
0.000000
0.000000
0.000000
0.000000
0.000000
0.000000
0.000000
0.000000
0.000000
0.000000
0.000000
0.000000
0.000000
0.000000
0.000000
0.000000
0.000000
0.000000
0.000000
0.000000
0.000000
0.000000
0.000000
0.000000
0.000000
0.000000
0.000000
0.000000
0.000000
0.000000
0.000000
0.000000
0.000000
0.000000
0.000000
0.000000
0.000000
0.000000
0.000000
0.000000
0.000000
0.000000
0.000000
0.000000
0.000000
0.000000
0.000000
0.000000
0.000000
0.000000
0.000000
0.000000
0.000000
0.000000
0.000000
0.000000
0.000000
0.000000
0.000000
0.000000
0.000000
0.000000
0.000000
0.000000
0.000000
0.000000
0.000000
0.000000
0.000000
0.000000
0.000000
0.000000
0.000000
0.000000
0.000000
0.000000
0.000000
0.000000
0.000000
0.000000
0.000000
0.000000
0.000000
0.000000
0.000000
0.000000
0.000000
0.000000
0.000000
0.000000
0.000000
0.000000
0.000000
0.000000
0.000000
0.000000
0.000000
0.000000
0.000000
0.000000
0.000000
0.000000
0.000000
0.000000
0.000000
0.000000
0.000000
0.000000
0.000000
0.000000
0.000000
0.000000
0.000000
0.000000
0.000000
0.000000
0.000000
0.000000
0.000000
0.000000
0.000000
0.000000
0.000000
0.000000
0.000000
0.000000
0.000000
0.000000
0.000000
0.000000
0.000000
0.000000
0.000000
0.000000
0.000000
0.000000
0.000000
0.000000
0.000000
0.000000
0.000000
0.000000
0.000000
0.000000
0.000000
0.000000
0.000000
0.000000
0.000000
0.000000
0.000000
0.000000
0.000000
0.000000
0.000000
0.000000
0.000000
0.000000
0.000000
0.000000
0.000000
0.000000
0.000000
0.000000
0.000000
0.000000
0.000000
0.000000
0.000000
0.000000

SCALARS u_x FLOAT 1
LOOKUP_TABLE default
0.000000
0.000000
0.000000
0.000000
0.000000
0.000000
0.000000
0.000000
0.000000
0.000000
0.000000
0.000000
0.000000
0.000000
0.000000
0.000000
0.000000
0.000000
0.000000
0.000000
0.000000
0.000000
0.000000
0.000000
0.000000
0.000000
0.000000
0.000000
0.000000
0.000000
0.000000
0.000000
0.000000
0.000000
0.000000
0.000000
0.000000
0.000000
0.000000
0.000000
0.000000
0.000000
0.000000
0.000000
0.000000
0.000000
0.000000
0.000000
0.000000
0.000000
0.000000
0.000000
0.000000
0.000000
0.000000
0.000000
0.000000
0.000000
0.000000
0.000000
0.000000
0.000000
0.000000
0.000000
0.000000
0.000000
0.000000
0.000000
0.000000
0.000000
0.000000
0.000000
0.000000
0.000000
0.000000
0.000000
0.000000
0.000000
0.000000
0.000000
0.000000
0.000000
0.000000
0.000000
0.000000
0.000000
0.000000
0.000000
0.000000
0.000000
0.000000
0.000000
0.000000
0.000000
0.000000
0.000000
0.000000
0.000000
0.000000
0.000000
0.000000
0.000000
0.000000
0.000000
0.000000
0.000000
0.000000
0.000000
0.000000
0.000000
0.000000
0.000000
0.000000
0.000000
0.000000
0.000000
0.000000
0.000000
0.000000
0.000000
0.000000
0.000000
0.000000
0.000000
0.000000
0.000000
0.000000
0.000000
0.000000
0.000000
0.000000
0.000000
0.000000
0.000000
0.000000
0.000000
0.000000
0.000000
0.000000
0.000000
0.000000
0.000000
0.000000
0.000000
0.000000
0.000000
0.000000
0.000000
0.000000
0.000000
0.000000
0.000000
0.000000
0.000000
0.000000
0.000000
0.000000
0.000000
0.000000
0.000000
0.000000
0.000000
0.000000
0.000000
0.000000
0.000000
0.000000
0.000000
0.000000
0.000000
0.000000
0.000000
0.000000
0.000000
0.000000
0.000000
0.000000
0.000000
0.000000
0.000000
0.000000
0.000000
0.000000
0.000000
0.000000
0.000000
0.000000
0.000000
0.000000
0.000000
0.000000
0.000000
0.000000
0.000000
0.000000
0.000000
0.000000
0.000000
0.000000
0.000000
0.000000
0.000000
0.000000
0.000000
0.000000
0.000000
0.000000
0.000000
0.000000
0.000000
0.000000
0.000000
0.000000
0.000000
0.000000
0.000000
0.000000
0.000000
0.000000
0.000000
0.000000
0.000000
0.000000
0.000000
0.000000
0.000000
0.000000
0.000000
0.000000
0.000000
0.000000
0.000000
0.000000
0.000000
0.000000
0.000000
0.000000
0.000000
0.000000
0.000000
0.000000
0.000000
0.000000
0.000000
0.000000
0.000000
0.000000
0.000000
0.000000
0.000000
0.000000
0.000000
0.000000
0.000000
0.000000
0.000000

SCALARS u_y FLOAT 1
LOOKUP_TABLE default
-0.116984
-0.350953
-0.116984
-0.350953
-0.584706
-0.817747
-0.584706
-0.817747
-1.050091
-1.281681
-1.050091
-1.281681
-1.512758
-1.743259
-1.512758
-1.743259
-1.973150
-2.202328
-1.973150
-2.202328
-2.430836
-2.658737
-2.430836
-2.658737
-2.886031
-3.112633
-2.886031
-3.112633
-3.338556
-3.563787
-3.338556
-3.563787
-3.788368
-4.012269
-3.788368
-4.012269
-4.235462
-4.457938
-4.235462
-4.457938
-4.679711
-4.900802
-4.679711
-4.900802
-5.121164
-5.340814
-5.121164
-5.340814
-5.559666
-5.777787
-5.559666
-5.777787
-5.995113
-6.211710
-5.995113
-6.211710
-6.427460
-6.642479
-6.427460
-6.642479
-6.856765
-7.070248
-6.856765
-7.070248
-7.282899
-7.494678
-7.282899
-7.494678
-7.705738
-7.915870
-7.705738
-7.915870
-8.125163
-8.333538
-8.125163
-8.333538
-8.541121
-8.747839
-8.541121
-8.747839
-8.953585
-9.158535
-8.953585
-9.158535
-9.362431
-9.565522
-9.362431
-9.565522
-9.767562
-9.968706
-9.767562
-9.968706
-10.168893
-10.368088
-10.168893
-10.368088
-10.566294
-10.763400
-10.566294
-10.763400
-10.959612
-11.154813
-10.959612
-11.154813
-11.348935
-11.542080
-11.348935
-11.542080
-11.733999
-11.924915
-11.733999
-11.924915
-12.114633
-12.303261
-12.114633
-12.303261
-12.490803
-12.677168
-12.490803
-12.677168
-12.862332
-13.046211
-12.862332
-13.046211
-13.228979
-13.410531
-13.228979
-13.410531
-13.590801
-13.770002
-13.590801
-13.770002
-13.947781
-14.124285
-13.947781
-14.124285
-14.299417
-14.473025
-14.299417
-14.473025
-14.645534
-14.816488
-14.645534
-14.816488
-14.986156
-15.154326
-14.986156
-15.154326
-15.320985
-15.486129
-15.320985
-15.486129
-15.649667
-15.811698
-15.649667
-15.811698
-15.972297
-16.131144
-15.972297
-16.131144
-16.288557
-16.444160
-16.288557
-16.444160
-16.598169
-16.750419
-16.598169
-16.750419
-16.900680
-17.049448
-16.900680
-17.049448
-17.196036
-17.340970
-17.196036
-17.340970
-17.483844
-17.624902
-17.483844
-17.624902
-17.763884
-17.900842
-17.763884
-17.900842
-18.035741
-18.168481
-18.035741
-18.168481
-18.298886
-18.427481
-18.298886
-18.427481
-18.553334
-18.677140
-18.553334
-18.677140
-18.798208
-18.917178
-18.798208
-18.917178
-19.033400
-19.146966
-19.033400
-19.146966
-19.258160
-19.366212
-19.258160
-19.366212
-19.471745
-19.574179
-19.471745
-19.574179
-19.674112
-19.770765
-19.674112
-19.770765
-19.863938
-19.954244
-19.863938
-19.954244
-20.041249
-20.124986
-20.041249
-20.124986
-20.204550
-20.280480
-20.204550
-20.280480
-20.352886
-20.421546
-20.352886
-20.421546
-20.486033
-20.546000
-20.486033
-20.546000
-20.601858
-20.652573
-20.601858
-20.652573
-20.699154
-20.740430
-20.699154
-20.740430
-20.777202
-20.807964
-20.777202
-20.807964
-20.833900
-20.853058
-20.833900
-20.853058
-20.866534
-20.872771
-20.866534
-20.872771

