# vtk DataFile Version 2.0
MATLAB generated vtk file, WMC
ASCII
DATASET UNSTRUCTURED_GRID
POINTS 256 double
0.195312 0.094870 0.000000 
0.195312 0.284610 0.000000 
0.585938 0.094870 0.000000 
0.585938 0.284610 0.000000 
0.195312 0.474611 0.000000 
0.195312 0.665475 0.000000 
0.585938 0.474611 0.000000 
0.585938 0.665475 0.000000 
0.195312 0.857096 0.000000 
0.195312 1.049316 0.000000 
0.585938 0.857096 0.000000 
0.585938 1.049316 0.000000 
0.195312 1.242102 0.000000 
0.195312 1.435583 0.000000 
0.585938 1.242102 0.000000 
0.585938 1.435583 0.000000 
0.195312 1.629763 0.000000 
0.195312 1.824604 0.000000 
0.585938 1.629763 0.000000 
0.585938 1.824604 0.000000 
0.195312 2.020079 0.000000 
0.195312 2.216272 0.000000 
0.585938 2.020079 0.000000 
0.585938 2.216272 0.000000 
0.195312 2.413163 0.000000 
0.195312 2.610737 0.000000 
0.585938 2.413163 0.000000 
0.585938 2.610737 0.000000 
0.195312 2.808968 0.000000 
0.195312 3.007944 0.000000 
0.585938 2.808968 0.000000 
0.585938 3.007944 0.000000 
0.195312 3.207664 0.000000 
0.195312 3.408066 0.000000 
0.585938 3.207664 0.000000 
0.585938 3.408066 0.000000 
0.195312 3.609178 0.000000 
0.195312 3.811040 0.000000 
0.585938 3.609178 0.000000 
0.585938 3.811040 0.000000 
0.195312 4.013704 0.000000 
0.195312 4.217058 0.000000 
0.585938 4.013704 0.000000 
0.585938 4.217058 0.000000 
0.195312 4.421171 0.000000 
0.195312 4.626020 0.000000 
0.585938 4.421171 0.000000 
0.585938 4.626020 0.000000 
0.195312 4.831673 0.000000 
0.195312 5.038087 0.000000 
0.585938 4.831673 0.000000 
0.585938 5.038087 0.000000 
0.195312 5.245323 0.000000 
0.195312 5.453286 0.000000 
0.585938 5.245323 0.000000 
0.585938 5.453286 0.000000 
0.195312 5.662087 0.000000 
0.195312 5.871672 0.000000 
0.585938 5.662087 0.000000 
0.585938 5.871672 0.000000 
0.195312 6.082085 0.000000 
0.195312 6.293371 0.000000 
0.585938 6.082085 0.000000 
0.585938 6.293371 0.000000 
0.195312 6.505487 0.000000 
0.195312 6.718476 0.000000 
0.585938 6.505487 0.000000 
0.585938 6.718476 0.000000 
0.195312 6.932153 0.000000 
0.195312 7.146787 0.000000 
0.585938 6.932153 0.000000 
0.585938 7.146787 0.000000 
0.195312 7.362223 0.000000 
0.195312 7.578630 0.000000 
0.585938 7.362223 0.000000 
0.585938 7.578630 0.000000 
0.195312 7.795927 0.000000 
0.195312 8.014104 0.000000 
0.585938 7.795927 0.000000 
0.585938 8.014104 0.000000 
0.195312 8.233257 0.000000 
0.195312 8.453136 0.000000 
0.585938 8.233257 0.000000 
0.585938 8.453136 0.000000 
0.195312 8.674107 0.000000 
0.195312 8.895838 0.000000 
0.585938 8.674107 0.000000 
0.585938 8.895838 0.000000 
0.195312 9.118692 0.000000 
0.195312 9.342453 0.000000 
0.585938 9.118692 0.000000 
0.585938 9.342453 0.000000 
0.195312 9.567209 0.000000 
0.195312 9.792985 0.000000 
0.585938 9.567209 0.000000 
0.585938 9.792985 0.000000 
0.195312 10.019684 0.000000 
0.195312 10.247482 0.000000 
0.585938 10.019684 0.000000 
0.585938 10.247482 0.000000 
0.195312 10.476108 0.000000 
0.195312 10.705796 0.000000 
0.585938 10.476108 0.000000 
0.585938 10.705796 0.000000 
0.195312 10.936652 0.000000 
0.195312 11.168365 0.000000 
0.585938 10.936652 0.000000 
0.585938 11.168365 0.000000 
0.195312 11.401391 0.000000 
0.195312 11.635317 0.000000 
0.585938 11.401391 0.000000 
0.585938 11.635317 0.000000 
0.195312 11.870504 0.000000 
0.195312 12.106745 0.000000 
0.585938 11.870504 0.000000 
0.585938 12.106745 0.000000 
0.195312 12.344035 0.000000 
0.195312 12.582570 0.000000 
0.585938 12.344035 0.000000 
0.585938 12.582570 0.000000 
0.195312 12.822106 0.000000 
0.195312 13.062924 0.000000 
0.585938 12.822106 0.000000 
0.585938 13.062924 0.000000 
0.195312 13.304812 0.000000 
0.195312 13.547891 0.000000 
0.585938 13.304812 0.000000 
0.585938 13.547891 0.000000 
0.195312 13.792328 0.000000 
0.195312 14.037816 0.000000 
0.585938 13.792328 0.000000 
0.585938 14.037816 0.000000 
0.195312 14.284650 0.000000 
0.195312 14.532665 0.000000 
0.585938 14.284650 0.000000 
0.585938 14.532665 0.000000 
0.195312 14.781959 0.000000 
0.195312 15.032792 0.000000 
0.585938 14.781959 0.000000 
0.585938 15.032792 0.000000 
0.195312 15.284625 0.000000 
0.195312 15.538055 0.000000 
0.585938 15.284625 0.000000 
0.585938 15.538055 0.000000 
0.195312 15.792628 0.000000 
0.195312 16.048675 0.000000 
0.585938 15.792628 0.000000 
0.585938 16.048675 0.000000 
0.195312 16.306184 0.000000 
0.195312 16.564943 0.000000 
0.585938 16.306184 0.000000 
0.585938 16.564943 0.000000 
0.195312 16.825265 0.000000 
0.195312 17.087027 0.000000 
0.585938 16.825265 0.000000 
0.585938 17.087027 0.000000 
0.195312 17.350097 0.000000 
0.195312 17.614940 0.000000 
0.585938 17.350097 0.000000 
0.585938 17.614940 0.000000 
0.195312 17.881062 0.000000 
0.195312 18.148970 0.000000 
0.585938 17.881062 0.000000 
0.585938 18.148970 0.000000 
0.195312 18.418307 0.000000 
0.195312 18.689213 0.000000 
0.585938 18.418307 0.000000 
0.585938 18.689213 0.000000 
0.195312 18.961967 0.000000 
0.195312 19.235974 0.000000 
0.585938 18.961967 0.000000 
0.585938 19.235974 0.000000 
0.195312 19.512108 0.000000 
0.195312 19.789504 0.000000 
0.585938 19.512108 0.000000 
0.585938 19.789504 0.000000 
0.195312 20.068886 0.000000 
0.195312 20.349956 0.000000 
0.585938 20.068886 0.000000 
0.585938 20.349956 0.000000 
0.195312 20.632914 0.000000 
0.195312 20.917789 0.000000 
0.585938 20.632914 0.000000 
0.585938 20.917789 0.000000 
0.195312 21.204529 0.000000 
0.195312 21.493056 0.000000 
0.585938 21.204529 0.000000 
0.585938 21.493056 0.000000 
0.195312 21.783662 0.000000 
0.195312 22.075779 0.000000 
0.585938 21.783662 0.000000 
0.585938 22.075779 0.000000 
0.195312 22.370419 0.000000 
0.195312 22.666669 0.000000 
0.585938 22.370419 0.000000 
0.585938 22.666669 0.000000 
0.195312 22.965410 0.000000 
0.195312 23.266026 0.000000 
0.585938 22.965410 0.000000 
0.585938 23.266026 0.000000 
0.195312 23.568855 0.000000 
0.195312 23.873929 0.000000 
0.585938 23.568855 0.000000 
0.585938 23.873929 0.000000 
0.195312 24.181129 0.000000 
0.195312 24.490991 0.000000 
0.585938 24.181129 0.000000 
0.585938 24.490991 0.000000 
0.195312 24.802981 0.000000 
0.195312 25.117653 0.000000 
0.585938 24.802981 0.000000 
0.585938 25.117653 0.000000 
0.195312 25.434391 0.000000 
0.195312 25.753806 0.000000 
0.585938 25.434391 0.000000 
0.585938 25.753806 0.000000 
0.195312 26.075811 0.000000 
0.195312 26.400295 0.000000 
0.585938 26.075811 0.000000 
0.585938 26.400295 0.000000 
0.195312 26.727687 0.000000 
0.195312 27.057783 0.000000 
0.585938 26.727687 0.000000 
0.585938 27.057783 0.000000 
0.195312 27.390940 0.000000 
0.195312 27.726675 0.000000 
0.585938 27.390940 0.000000 
0.585938 27.726675 0.000000 
0.195312 28.065468 0.000000 
0.195312 28.407267 0.000000 
0.585938 28.065468 0.000000 
0.585938 28.407267 0.000000 
0.195312 28.752169 0.000000 
0.195312 29.100562 0.000000 
0.585938 28.752169 0.000000 
0.585938 29.100562 0.000000 
0.195312 29.451954 0.000000 
0.195312 29.807188 0.000000 
0.585938 29.451954 0.000000 
0.585938 29.807188 0.000000 
0.195312 30.165432 0.000000 
0.195312 30.527854 0.000000 
0.585938 30.165432 0.000000 
0.585938 30.527854 0.000000 
0.195312 30.893318 0.000000 
0.195312 31.263345 0.000000 
0.585938 30.893318 0.000000 
0.585938 31.263345 0.000000 
0.195312 31.636488 0.000000 
0.195312 32.014536 0.000000 
0.585938 31.636488 0.000000 
0.585938 32.014536 0.000000 
0.195312 32.396083 0.000000 
0.195312 32.782596 0.000000 
0.585938 32.396083 0.000000 
0.585938 32.782596 0.000000 

POINT_DATA 256
SCALARS sigma_xx FLOAT 1
LOOKUP_TABLE default
0.000000
-0.000000
0.000000
-0.000000
0.000000
-0.000000
0.000000
-0.000000
0.000000
0.000000
0.000000
0.000000
0.000000
0.000000
0.000000
0.000000
-0.000000
-0.000000
-0.000000
-0.000000
-0.000000
-0.000000
-0.000000
-0.000000
-0.000000
0.000000
-0.000000
0.000000
-0.000000
-0.000000
-0.000000
-0.000000
-0.000000
0.000000
-0.000000
0.000000
0.000000
0.000000
-0.000000
0.000000
0.000000
0.000000
0.000000
0.000000
0.000000
0.000000
0.000000
0.000000
0.000000
-0.000000
0.000000
-0.000000
-0.000000
-0.000000
-0.000000
-0.000000
-0.000000
-0.000000
-0.000000
-0.000000
-0.000000
0.000000
-0.000000
-0.000000
-0.000000
-0.000000
-0.000000
-0.000000
-0.000000
-0.000000
-0.000000
-0.000000
-0.000000
-0.000000
-0.000000
-0.000000
-0.000000
-0.000000
-0.000000
-0.000000
0.000000
-0.000000
-0.000000
-0.000000
0.000000
-0.000000
0.000000
-0.000000
-0.000000
-0.000000
-0.000000
-0.000000
-0.000000
-0.000000
-0.000000
-0.000000
-0.000000
0.000000
-0.000000
0.000000
-0.000000
-0.000000
-0.000000
-0.000000
0.000000
-0.000000
0.000000
-0.000000
-0.000000
-0.000000
-0.000000
-0.000000
-0.000000
-0.000000
-0.000000
-0.000000
-0.000000
-0.000000
-0.000000
-0.000000
-0.000000
-0.000000
-0.000000
-0.000000
-0.000000
-0.000000
-0.000000
-0.000000
-0.000000
-0.000000
-0.000000
-0.000000
-0.000000
-0.000000
-0.000000
-0.000000
-0.000000
0.000000
-0.000000
0.000000
-0.000000
-0.000000
-0.000000
-0.000000
0.000000
-0.000000
0.000000
-0.000000
0.000000
-0.000000
0.000000
-0.000000
-0.000000
-0.000000
-0.000000
-0.000000
0.000000
-0.000000
0.000000
-0.000000
-0.000000
0.000000
-0.000000
0.000000
-0.000000
-0.000000
-0.000000
-0.000000
-0.000000
-0.000000
-0.000000
0.000000
-0.000000
-0.000000
-0.000000
-0.000000
-0.000000
-0.000000
-0.000000
-0.000000
-0.000000
-0.000000
-0.000000
-0.000000
-0.000000
-0.000000
-0.000000
-0.000000
-0.000000
-0.000000
-0.000000
-0.000000
0.000000
-0.000000
0.000000
-0.000000
-0.000000
-0.000000
0.000000
-0.000000
-0.000000
0.000000
0.000000
0.000000
-0.000000
-0.000000
-0.000000
-0.000000
0.000000
0.000000
0.000000
0.000000
0.000000
0.000000
0.000000
0.000000
-0.000000
0.000000
-0.000000
0.000000
-0.000000
-0.000000
-0.000000
-0.000000
0.000000
-0.000000
0.000000
-0.000000
-0.000000
-0.000000
-0.000000
-0.000000
-0.000000
-0.000000
-0.000000
-0.000000
-0.000000
-0.000000
-0.000000
-0.000000
-0.000000
0.000000
-0.000000
-0.000000
-0.000000
-0.000000
-0.000000
-0.000000
-0.000000
-0.000000
-0.000000
-0.000000
-0.000000
-0.000000
-0.000000
-0.000000

SCALARS sigma_yy FLOAT 1
LOOKUP_TABLE default
-14866.020516
-14866.020516
-14866.020516
-14866.020516
-14737.525431
-14589.144005
-14737.525431
-14589.144005
-14453.247410
-14369.569385
-14453.247410
-14369.569385
-14240.863202
-14127.333055
-14240.863202
-14127.333055
-13997.012899
-13895.473791
-13997.012899
-13895.473791
-13769.834585
-13656.296979
-13769.834585
-13656.296979
-13528.938856
-13428.224909
-13528.938856
-13428.224909
-13300.576122
-13183.744160
-13300.576122
-13183.744160
-13056.661405
-12960.028765
-13056.661405
-12960.028765
-12829.550877
-12719.027438
-12829.550877
-12719.027438
-12587.121358
-12488.006432
-12587.121358
-12488.006432
-12355.509044
-12257.371591
-12355.509044
-12257.371591
-12122.304311
-12017.938124
-12122.304311
-12017.938124
-11885.892032
-11784.318773
-11885.892032
-11784.318773
-11656.759173
-11554.184068
-11656.759173
-11554.184068
-11409.740553
-11310.652412
-11409.740553
-11310.652412
-11182.224532
-11076.513805
-11182.224532
-11076.513805
-10959.810757
-10850.002867
-10959.810757
-10850.002867
-10727.036595
-10599.649627
-10727.036595
-10599.649627
-10484.724973
-10369.540528
-10484.724973
-10369.540528
-10248.334526
-10144.634630
-10248.334526
-10144.634630
-10021.194020
-9915.670432
-10021.194020
-9915.670432
-9768.027487
-9678.283318
-9768.027487
-9678.283318
-9536.916939
-9432.259928
-9536.916939
-9432.259928
-9312.340853
-9200.278554
-9312.340853
-9200.278554
-9092.015828
-8967.956222
-9092.015828
-8967.956222
-8846.065910
-8738.100895
-8846.065910
-8738.100895
-8609.200569
-8504.723969
-8609.200569
-8504.723969
-8354.154224
-8275.181321
-8354.154224
-8275.181321
-8128.285197
-8033.104871
-8128.285197
-8033.104871
-7909.752973
-7793.074980
-7909.752973
-7793.074980
-7675.735695
-7568.224063
-7675.735695
-7568.224063
-7428.069277
-7343.593074
-7428.069277
-7343.593074
-7198.219281
-7101.324055
-7198.219281
-7101.324055
-6959.171138
-6859.569011
-6959.171138
-6859.569011
-6740.154885
-6617.054402
-6740.154885
-6617.054402
-6510.745160
-6379.797473
-6510.745160
-6379.797473
-6267.835800
-6162.381435
-6267.835800
-6162.381435
-6022.383460
-5924.793719
-6022.383460
-5924.793719
-5801.856716
-5678.937468
-5801.856716
-5678.937468
-5575.304819
-5437.414094
-5575.304819
-5437.414094
-5342.322492
-5202.697817
-5342.322492
-5202.697817
-5103.496739
-4981.813369
-5103.496739
-4981.813369
-4856.430328
-4759.662069
-4856.430328
-4759.662069
-4623.248620
-4516.089378
-4623.248620
-4516.089378
-4392.541394
-4267.477268
-4392.541394
-4267.477268
-4163.137292
-4034.879247
-4163.137292
-4034.879247
-3927.115055
-3823.407350
-3927.115055
-3823.407350
-3676.169964
-3598.503477
-3676.169964
-3598.503477
-3431.140436
-3363.643533
-3431.140436
-3363.643533
-3205.752262
-3125.246343
-3205.752262
-3125.246343
-2980.415901
-2870.156873
-2980.415901
-2870.156873
-2749.414449
-2634.845155
-2749.414449
-2634.845155
-2522.261305
-2403.770307
-2522.261305
-2403.770307
-2283.823118
-2175.875651
-2283.823118
-2175.875651
-2043.328662
-1939.229172
-2043.328662
-1939.229172
-1801.414591
-1717.662036
-1801.414591
-1717.662036
-1569.151497
-1482.760936
-1569.151497
-1482.760936
-1332.871248
-1241.820695
-1332.871248
-1241.820695
-1100.431997
-1003.676341
-1100.431997
-1003.676341
-868.207481
-766.063649
-868.207481
-766.063649
-637.576088
-528.586142
-637.576088
-528.586142
-408.233116
-289.557391
-408.233116
-289.557391
-173.192754
-63.514189
-173.192754
-63.514189

SCALARS sigma_zz FLOAT 1
LOOKUP_TABLE default
0.000000
0.000000
0.000000
0.000000
0.000000
0.000000
0.000000
0.000000
0.000000
0.000000
0.000000
0.000000
0.000000
0.000000
0.000000
0.000000
0.000000
0.000000
0.000000
0.000000
0.000000
0.000000
0.000000
0.000000
0.000000
0.000000
0.000000
0.000000
0.000000
0.000000
0.000000
0.000000
0.000000
0.000000
0.000000
0.000000
0.000000
0.000000
0.000000
0.000000
0.000000
0.000000
0.000000
0.000000
0.000000
0.000000
0.000000
0.000000
0.000000
0.000000
0.000000
0.000000
0.000000
0.000000
0.000000
0.000000
0.000000
0.000000
0.000000
0.000000
0.000000
0.000000
0.000000
0.000000
0.000000
0.000000
0.000000
0.000000
0.000000
0.000000
0.000000
0.000000
0.000000
0.000000
0.000000
0.000000
0.000000
0.000000
0.000000
0.000000
0.000000
0.000000
0.000000
0.000000
0.000000
0.000000
0.000000
0.000000
0.000000
0.000000
0.000000
0.000000
0.000000
0.000000
0.000000
0.000000
0.000000
0.000000
0.000000
0.000000
0.000000
0.000000
0.000000
0.000000
0.000000
0.000000
0.000000
0.000000
0.000000
0.000000
0.000000
0.000000
0.000000
0.000000
0.000000
0.000000
0.000000
0.000000
0.000000
0.000000
0.000000
0.000000
0.000000
0.000000
0.000000
0.000000
0.000000
0.000000
0.000000
0.000000
0.000000
0.000000
0.000000
0.000000
0.000000
0.000000
0.000000
0.000000
0.000000
0.000000
0.000000
0.000000
0.000000
0.000000
0.000000
0.000000
0.000000
0.000000
0.000000
0.000000
0.000000
0.000000
0.000000
0.000000
0.000000
0.000000
0.000000
0.000000
0.000000
0.000000
0.000000
0.000000
0.000000
0.000000
0.000000
0.000000
0.000000
0.000000
0.000000
0.000000
0.000000
0.000000
0.000000
0.000000
0.000000
0.000000
0.000000
0.000000
0.000000
0.000000
0.000000
0.000000
0.000000
0.000000
0.000000
0.000000
0.000000
0.000000
0.000000
0.000000
0.000000
0.000000
0.000000
0.000000
0.000000
0.000000
0.000000
0.000000
0.000000
0.000000
0.000000
0.000000
0.000000
0.000000
0.000000
0.000000
0.000000
0.000000
0.000000
0.000000
0.000000
0.000000
0.000000
0.000000
0.000000
0.000000
0.000000
0.000000
0.000000
0.000000
0.000000
0.000000
0.000000
0.000000
0.000000
0.000000
0.000000
0.000000
0.000000
0.000000
0.000000
0.000000
0.000000
0.000000
0.000000
0.000000
0.000000
0.000000
0.000000
0.000000
0.000000
0.000000
0.000000
0.000000
0.000000
0.000000
0.000000
0.000000
0.000000
0.000000
0.000000
0.000000
0.000000
0.000000
0.000000
0.000000

SCALARS sigma_xy FLOAT 1
LOOKUP_TABLE default
0.000000
-0.000000
0.000000
-0.000000
0.000000
-0.000000
0.000000
-0.000000
0.000000
0.000000
0.000000
0.000000
0.000000
0.000000
0.000000
0.000000
0.000000
0.000000
0.000000
0.000000
0.000000
0.000000
0.000000
0.000000
0.000000
0.000000
0.000000
0.000000
-0.000000
-0.000000
-0.000000
-0.000000
-0.000000
0.000000
-0.000000
0.000000
0.000000
0.000000
0.000000
0.000000
0.000000
0.000000
0.000000
0.000000
0.000000
0.000000
0.000000
0.000000
0.000000
-0.000000
0.000000
-0.000000
-0.000000
-0.000000
-0.000000
-0.000000
0.000000
0.000000
0.000000
0.000000
0.000000
0.000000
0.000000
0.000000
0.000000
-0.000000
0.000000
-0.000000
-0.000000
-0.000000
-0.000000
-0.000000
-0.000000
0.000000
-0.000000
0.000000
0.000000
0.000000
0.000000
0.000000
0.000000
-0.000000
0.000000
-0.000000
0.000000
-0.000000
0.000000
-0.000000
-0.000000
-0.000000
-0.000000
-0.000000
-0.000000
-0.000000
-0.000000
-0.000000
0.000000
0.000000
0.000000
0.000000
0.000000
0.000000
0.000000
0.000000
0.000000
-0.000000
0.000000
-0.000000
-0.000000
-0.000000
-0.000000
-0.000000
-0.000000
0.000000
-0.000000
0.000000
0.000000
0.000000
0.000000
0.000000
0.000000
0.000000
0.000000
0.000000
0.000000
-0.000000
0.000000
-0.000000
-0.000000
-0.000000
-0.000000
-0.000000
0.000000
0.000000
0.000000
0.000000
0.000000
0.000000
0.000000
0.000000
0.000000
0.000000
0.000000
0.000000
0.000000
-0.000000
0.000000
-0.000000
0.000000
0.000000
0.000000
0.000000
-0.000000
0.000000
-0.000000
0.000000
0.000000
0.000000
0.000000
0.000000
-0.000000
0.000000
0.000000
0.000000
-0.000000
-0.000000
-0.000000
-0.000000
0.000000
0.000000
0.000000
0.000000
-0.000000
-0.000000
-0.000000
-0.000000
0.000000
0.000000
0.000000
0.000000
0.000000
-0.000000
0.000000
-0.000000
-0.000000
0.000000
-0.000000
0.000000
0.000000
0.000000
0.000000
0.000000
0.000000
0.000000
0.000000
0.000000
0.000000
0.000000
0.000000
0.000000
0.000000
0.000000
0.000000
0.000000
0.000000
-0.000000
0.000000
-0.000000
0.000000
0.000000
0.000000
0.000000
0.000000
0.000000
0.000000
0.000000
-0.000000
0.000000
-0.000000
0.000000
-0.000000
0.000000
-0.000000
0.000000
0.000000
0.000000
0.000000
0.000000
0.000000
0.000000
0.000000
0.000000
0.000000
0.000000
0.000000
0.000000
-0.000000
-0.000000
-0.000000
-0.000000
-0.000000
0.000000
-0.000000
-0.000000
-0.000000
0.000000
-0.000000
0.000000
0.000000
0.000000
0.000000
0.000000
-0.000000
-0.000000
-0.000000
-0.000000

SCALARS sigma_yz FLOAT 1
LOOKUP_TABLE default
0.000000
0.000000
0.000000
0.000000
0.000000
0.000000
0.000000
0.000000
0.000000
0.000000
0.000000
0.000000
0.000000
0.000000
0.000000
0.000000
0.000000
0.000000
0.000000
0.000000
0.000000
0.000000
0.000000
0.000000
0.000000
0.000000
0.000000
0.000000
0.000000
0.000000
0.000000
0.000000
0.000000
0.000000
0.000000
0.000000
0.000000
0.000000
0.000000
0.000000
0.000000
0.000000
0.000000
0.000000
0.000000
0.000000
0.000000
0.000000
0.000000
0.000000
0.000000
0.000000
0.000000
0.000000
0.000000
0.000000
0.000000
0.000000
0.000000
0.000000
0.000000
0.000000
0.000000
0.000000
0.000000
0.000000
0.000000
0.000000
0.000000
0.000000
0.000000
0.000000
0.000000
0.000000
0.000000
0.000000
0.000000
0.000000
0.000000
0.000000
0.000000
0.000000
0.000000
0.000000
0.000000
0.000000
0.000000
0.000000
0.000000
0.000000
0.000000
0.000000
0.000000
0.000000
0.000000
0.000000
0.000000
0.000000
0.000000
0.000000
0.000000
0.000000
0.000000
0.000000
0.000000
0.000000
0.000000
0.000000
0.000000
0.000000
0.000000
0.000000
0.000000
0.000000
0.000000
0.000000
0.000000
0.000000
0.000000
0.000000
0.000000
0.000000
0.000000
0.000000
0.000000
0.000000
0.000000
0.000000
0.000000
0.000000
0.000000
0.000000
0.000000
0.000000
0.000000
0.000000
0.000000
0.000000
0.000000
0.000000
0.000000
0.000000
0.000000
0.000000
0.000000
0.000000
0.000000
0.000000
0.000000
0.000000
0.000000
0.000000
0.000000
0.000000
0.000000
0.000000
0.000000
0.000000
0.000000
0.000000
0.000000
0.000000
0.000000
0.000000
0.000000
0.000000
0.000000
0.000000
0.000000
0.000000
0.000000
0.000000
0.000000
0.000000
0.000000
0.000000
0.000000
0.000000
0.000000
0.000000
0.000000
0.000000
0.000000
0.000000
0.000000
0.000000
0.000000
0.000000
0.000000
0.000000
0.000000
0.000000
0.000000
0.000000
0.000000
0.000000
0.000000
0.000000
0.000000
0.000000
0.000000
0.000000
0.000000
0.000000
0.000000
0.000000
0.000000
0.000000
0.000000
0.000000
0.000000
0.000000
0.000000
0.000000
0.000000
0.000000
0.000000
0.000000
0.000000
0.000000
0.000000
0.000000
0.000000
0.000000
0.000000
0.000000
0.000000
0.000000
0.000000
0.000000
0.000000
0.000000
0.000000
0.000000
0.000000
0.000000
0.000000
0.000000
0.000000
0.000000
0.000000
0.000000
0.000000
0.000000
0.000000
0.000000
0.000000
0.000000
0.000000
0.000000
0.000000
0.000000
0.000000
0.000000
0.000000
0.000000

SCALARS sigma_zx FLOAT 1
LOOKUP_TABLE default
0.000000
0.000000
0.000000
0.000000
0.000000
0.000000
0.000000
0.000000
0.000000
0.000000
0.000000
0.000000
0.000000
0.000000
0.000000
0.000000
0.000000
0.000000
0.000000
0.000000
0.000000
0.000000
0.000000
0.000000
0.000000
0.000000
0.000000
0.000000
0.000000
0.000000
0.000000
0.000000
0.000000
0.000000
0.000000
0.000000
0.000000
0.000000
0.000000
0.000000
0.000000
0.000000
0.000000
0.000000
0.000000
0.000000
0.000000
0.000000
0.000000
0.000000
0.000000
0.000000
0.000000
0.000000
0.000000
0.000000
0.000000
0.000000
0.000000
0.000000
0.000000
0.000000
0.000000
0.000000
0.000000
0.000000
0.000000
0.000000
0.000000
0.000000
0.000000
0.000000
0.000000
0.000000
0.000000
0.000000
0.000000
0.000000
0.000000
0.000000
0.000000
0.000000
0.000000
0.000000
0.000000
0.000000
0.000000
0.000000
0.000000
0.000000
0.000000
0.000000
0.000000
0.000000
0.000000
0.000000
0.000000
0.000000
0.000000
0.000000
0.000000
0.000000
0.000000
0.000000
0.000000
0.000000
0.000000
0.000000
0.000000
0.000000
0.000000
0.000000
0.000000
0.000000
0.000000
0.000000
0.000000
0.000000
0.000000
0.000000
0.000000
0.000000
0.000000
0.000000
0.000000
0.000000
0.000000
0.000000
0.000000
0.000000
0.000000
0.000000
0.000000
0.000000
0.000000
0.000000
0.000000
0.000000
0.000000
0.000000
0.000000
0.000000
0.000000
0.000000
0.000000
0.000000
0.000000
0.000000
0.000000
0.000000
0.000000
0.000000
0.000000
0.000000
0.000000
0.000000
0.000000
0.000000
0.000000
0.000000
0.000000
0.000000
0.000000
0.000000
0.000000
0.000000
0.000000
0.000000
0.000000
0.000000
0.000000
0.000000
0.000000
0.000000
0.000000
0.000000
0.000000
0.000000
0.000000
0.000000
0.000000
0.000000
0.000000
0.000000
0.000000
0.000000
0.000000
0.000000
0.000000
0.000000
0.000000
0.000000
0.000000
0.000000
0.000000
0.000000
0.000000
0.000000
0.000000
0.000000
0.000000
0.000000
0.000000
0.000000
0.000000
0.000000
0.000000
0.000000
0.000000
0.000000
0.000000
0.000000
0.000000
0.000000
0.000000
0.000000
0.000000
0.000000
0.000000
0.000000
0.000000
0.000000
0.000000
0.000000
0.000000
0.000000
0.000000
0.000000
0.000000
0.000000
0.000000
0.000000
0.000000
0.000000
0.000000
0.000000
0.000000
0.000000
0.000000
0.000000
0.000000
0.000000
0.000000
0.000000
0.000000
0.000000
0.000000
0.000000
0.000000
0.000000
0.000000
0.000000
0.000000
0.000000
0.000000
0.000000

SCALARS u_x FLOAT 1
LOOKUP_TABLE default
0.000000
0.000000
0.000000
0.000000
0.000000
0.000000
0.000000
0.000000
0.000000
0.000000
0.000000
0.000000
0.000000
0.000000
0.000000
0.000000
0.000000
0.000000
0.000000
0.000000
0.000000
0.000000
0.000000
0.000000
0.000000
0.000000
0.000000
0.000000
0.000000
0.000000
0.000000
0.000000
0.000000
0.000000
0.000000
0.000000
0.000000
0.000000
0.000000
0.000000
0.000000
0.000000
0.000000
0.000000
0.000000
0.000000
0.000000
0.000000
0.000000
0.000000
0.000000
0.000000
0.000000
0.000000
0.000000
0.000000
0.000000
0.000000
0.000000
0.000000
0.000000
0.000000
0.000000
0.000000
0.000000
0.000000
0.000000
0.000000
0.000000
0.000000
0.000000
0.000000
0.000000
0.000000
0.000000
0.000000
0.000000
0.000000
0.000000
0.000000
0.000000
0.000000
0.000000
0.000000
0.000000
0.000000
0.000000
0.000000
0.000000
0.000000
0.000000
0.000000
0.000000
0.000000
0.000000
0.000000
0.000000
0.000000
0.000000
0.000000
0.000000
0.000000
0.000000
0.000000
0.000000
0.000000
0.000000
0.000000
0.000000
0.000000
0.000000
0.000000
0.000000
0.000000
0.000000
0.000000
0.000000
0.000000
0.000000
0.000000
0.000000
0.000000
0.000000
0.000000
0.000000
0.000000
0.000000
0.000000
0.000000
0.000000
0.000000
0.000000
0.000000
0.000000
0.000000
0.000000
0.000000
0.000000
0.000000
0.000000
0.000000
0.000000
0.000000
0.000000
0.000000
0.000000
0.000000
0.000000
0.000000
0.000000
0.000000
0.000000
0.000000
0.000000
0.000000
0.000000
0.000000
0.000000
0.000000
0.000000
0.000000
0.000000
0.000000
0.000000
0.000000
0.000000
0.000000
0.000000
0.000000
0.000000
0.000000
0.000000
0.000000
0.000000
0.000000
0.000000
0.000000
0.000000
0.000000
0.000000
0.000000
0.000000
0.000000
0.000000
0.000000
0.000000
0.000000
0.000000
0.000000
0.000000
0.000000
0.000000
0.000000
0.000000
0.000000
0.000000
0.000000
0.000000
0.000000
0.000000
0.000000
0.000000
0.000000
0.000000
0.000000
0.000000
0.000000
0.000000
0.000000
0.000000
0.000000
0.000000
0.000000
0.000000
0.000000
0.000000
0.000000
0.000000
0.000000
0.000000
0.000000
0.000000
0.000000
0.000000
0.000000
0.000000
0.000000
0.000000
0.000000
0.000000
0.000000
0.000000
0.000000
0.000000
0.000000
0.000000
0.000000
0.000000
0.000000
0.000000
0.000000
0.000000
0.000000
0.000000
0.000000
0.000000
0.000000
0.000000
0.000000
0.000000
0.000000
0.000000
0.000000
0.000000
0.000000
0.000000

SCALARS u_y FLOAT 1
LOOKUP_TABLE default
-0.100443
-0.301328
-0.100443
-0.301328
-0.501951
-0.701713
-0.501951
-0.701713
-0.900716
-1.099121
-0.900716
-1.099121
-1.296960
-1.494104
-1.296960
-1.494104
-1.690550
-1.886334
-1.690550
-1.886334
-2.081484
-2.275916
-2.081484
-2.275916
-2.469650
-2.662701
-2.469650
-2.662701
-2.855095
-3.046743
-2.855095
-3.046743
-3.237649
-3.427872
-3.237649
-3.427872
-3.617384
-3.806148
-3.617384
-3.806148
-3.994109
-4.181380
-3.994109
-4.181380
-4.367891
-4.553668
-4.367891
-4.553668
-4.738640
-4.922851
-4.738640
-4.922851
-5.106239
-5.288902
-5.106239
-5.288902
-5.470726
-5.651766
-5.470726
-5.651766
-5.831977
-6.011316
-5.831977
-6.011316
-6.189825
-6.367461
-6.189825
-6.367461
-6.544410
-6.720401
-6.544410
-6.720401
-6.895589
-7.069807
-6.895589
-7.069807
-7.243136
-7.415584
-7.243136
-7.415584
-7.587056
-7.757802
-7.587056
-7.757802
-7.927456
-8.096350
-7.927456
-8.096350
-8.264120
-8.430985
-8.264120
-8.430985
-8.596854
-8.761702
-8.596854
-8.761702
-8.925629
-9.088456
-8.925629
-9.088456
-9.250455
-9.411391
-9.250455
-9.411391
-9.571161
-9.730072
-9.571161
-9.730072
-9.887671
-10.044371
-9.887671
-10.044371
-10.199808
-10.354192
-10.199808
-10.354192
-10.507528
-10.659617
-10.507528
-10.659617
-10.810706
-10.960514
-10.810706
-10.960514
-11.109250
-11.256796
-11.109250
-11.256796
-11.402984
-11.548122
-11.402984
-11.548122
-11.691912
-11.834522
-11.691912
-11.834522
-11.975853
-12.115645
-11.975853
-12.115645
-12.254437
-12.391632
-12.254437
-12.391632
-12.527685
-12.662263
-12.527685
-12.662263
-12.795378
-12.927245
-12.795378
-12.927245
-13.057548
-13.186411
-13.057548
-13.186411
-13.313965
-13.439748
-13.313965
-13.439748
-13.564250
-13.686968
-13.564250
-13.686968
-13.808256
-13.927974
-13.808256
-13.927974
-14.045845
-14.162463
-14.045845
-14.162463
-14.276955
-14.390183
-14.276955
-14.390183
-14.501426
-14.610981
-14.501426
-14.610981
-14.718649
-14.824398
-14.718649
-14.824398
-14.928283
-15.030381
-14.928283
-15.030381
-15.130400
-15.228908
-15.130400
-15.228908
-15.324893
-15.419269
-15.324893
-15.419269
-15.511153
-15.601162
-15.511153
-15.601162
-15.688957
-15.774508
-15.688957
-15.774508
-15.857933
-15.938696
-15.857933
-15.938696
-16.017332
-16.093284
-16.017332
-16.093284
-16.167172
-16.238381
-16.167172
-16.238381
-16.307002
-16.373142
-16.307002
-16.373142
-16.436375
-16.496905
-16.436375
-16.496905
-16.554373
-16.609263
-16.554373
-16.609263
-16.661094
-16.709920
-16.661094
-16.709920
-16.755643
-16.797875
-16.755643
-16.797875
-16.837108
-16.872500
-16.837108
-16.872500
-16.904880
-16.933083
-16.904880
-16.933083
-16.958245
-16.978842
-16.958245
-16.978842
-16.996325
-17.008902
-16.996325
-17.008902
-17.017980
-17.022092
-17.017980
-17.022092

