# vtk DataFile Version 2.0
MATLAB generated vtk file, WMC
ASCII
DATASET UNSTRUCTURED_GRID
POINTS 256 double
0.195312 0.097611 0.000000 
0.195312 0.292834 0.000000 
0.585938 0.097611 0.000000 
0.585938 0.292834 0.000000 
0.195312 0.488325 0.000000 
0.195312 0.684704 0.000000 
0.585938 0.488325 0.000000 
0.585938 0.684704 0.000000 
0.195312 0.881832 0.000000 
0.195312 1.079547 0.000000 
0.585938 0.881832 0.000000 
0.585938 1.079547 0.000000 
0.195312 1.277844 0.000000 
0.195312 1.476856 0.000000 
0.585938 1.277844 0.000000 
0.585938 1.476856 0.000000 
0.195312 1.676556 0.000000 
0.195312 1.876912 0.000000 
0.585938 1.676556 0.000000 
0.585938 1.876912 0.000000 
0.195312 2.077921 0.000000 
0.195312 2.279667 0.000000 
0.585938 2.077921 0.000000 
0.585938 2.279667 0.000000 
0.195312 2.482097 0.000000 
0.195312 2.685213 0.000000 
0.585938 2.482097 0.000000 
0.585938 2.685213 0.000000 
0.195312 2.889004 0.000000 
0.195312 3.093556 0.000000 
0.585938 2.889004 0.000000 
0.585938 3.093556 0.000000 
0.195312 3.298811 0.000000 
0.195312 3.504749 0.000000 
0.585938 3.298811 0.000000 
0.585938 3.504749 0.000000 
0.195312 3.711417 0.000000 
0.195312 3.918838 0.000000 
0.585938 3.711417 0.000000 
0.585938 3.918838 0.000000 
0.195312 4.127002 0.000000 
0.195312 4.335865 0.000000 
0.585938 4.127002 0.000000 
0.585938 4.335865 0.000000 
0.195312 4.545507 0.000000 
0.195312 4.755903 0.000000 
0.585938 4.545507 0.000000 
0.585938 4.755903 0.000000 
0.195312 4.967122 0.000000 
0.195312 5.179121 0.000000 
0.585938 4.967122 0.000000 
0.585938 5.179121 0.000000 
0.195312 5.391965 0.000000 
0.195312 5.605473 0.000000 
0.585938 5.391965 0.000000 
0.585938 5.605473 0.000000 
0.195312 5.819794 0.000000 
0.195312 6.034919 0.000000 
0.585938 5.819794 0.000000 
0.585938 6.034919 0.000000 
0.195312 6.250881 0.000000 
0.195312 6.467660 0.000000 
0.585938 6.250881 0.000000 
0.585938 6.467660 0.000000 
0.195312 6.685278 0.000000 
0.195312 6.903791 0.000000 
0.585938 6.685278 0.000000 
0.585938 6.903791 0.000000 
0.195312 7.123015 0.000000 
0.195312 7.343228 0.000000 
0.585938 7.123015 0.000000 
0.585938 7.343228 0.000000 
0.195312 7.564264 0.000000 
0.195312 7.786283 0.000000 
0.585938 7.564264 0.000000 
0.585938 7.786283 0.000000 
0.195312 8.009087 0.000000 
0.195312 8.232762 0.000000 
0.585938 8.009087 0.000000 
0.585938 8.232762 0.000000 
0.195312 8.457436 0.000000 
0.195312 8.682836 0.000000 
0.585938 8.457436 0.000000 
0.585938 8.682836 0.000000 
0.195312 8.909328 0.000000 
0.195312 9.136599 0.000000 
0.585938 8.909328 0.000000 
0.585938 9.136599 0.000000 
0.195312 9.365005 0.000000 
0.195312 9.594227 0.000000 
0.585938 9.365005 0.000000 
0.585938 9.594227 0.000000 
0.195312 9.824447 0.000000 
0.195312 10.055712 0.000000 
0.585938 9.824447 0.000000 
0.585938 10.055712 0.000000 
0.195312 10.287909 0.000000 
0.195312 10.521221 0.000000 
0.585938 10.287909 0.000000 
0.585938 10.521221 0.000000 
0.195312 10.755381 0.000000 
0.195312 10.990591 0.000000 
0.585938 10.755381 0.000000 
0.585938 10.990591 0.000000 
0.195312 11.226893 0.000000 
0.195312 11.464068 0.000000 
0.585938 11.226893 0.000000 
0.585938 11.464068 0.000000 
0.195312 11.702573 0.000000 
0.195312 11.941892 0.000000 
0.585938 11.702573 0.000000 
0.585938 11.941892 0.000000 
0.195312 12.182480 0.000000 
0.195312 12.424144 0.000000 
0.585938 12.182480 0.000000 
0.585938 12.424144 0.000000 
0.195312 12.666801 0.000000 
0.195312 12.910692 0.000000 
0.585938 12.666801 0.000000 
0.585938 12.910692 0.000000 
0.195312 13.155606 0.000000 
0.195312 13.401828 0.000000 
0.585938 13.155606 0.000000 
0.585938 13.401828 0.000000 
0.195312 13.649141 0.000000 
0.195312 13.897671 0.000000 
0.585938 13.649141 0.000000 
0.585938 13.897671 0.000000 
0.195312 14.147529 0.000000 
0.195312 14.398347 0.000000 
0.585938 14.147529 0.000000 
0.585938 14.398347 0.000000 
0.195312 14.650539 0.000000 
0.195312 14.903891 0.000000 
0.585938 14.650539 0.000000 
0.585938 14.903891 0.000000 
0.195312 15.158429 0.000000 
0.195312 15.414533 0.000000 
0.585938 15.158429 0.000000 
0.585938 15.414533 0.000000 
0.195312 15.671629 0.000000 
0.195312 15.930265 0.000000 
0.585938 15.671629 0.000000 
0.585938 15.930265 0.000000 
0.195312 16.190061 0.000000 
0.195312 16.451327 0.000000 
0.585938 16.190061 0.000000 
0.585938 16.451327 0.000000 
0.195312 16.713977 0.000000 
0.195312 16.977893 0.000000 
0.585938 16.713977 0.000000 
0.585938 16.977893 0.000000 
0.195312 17.243374 0.000000 
0.195312 17.510239 0.000000 
0.585938 17.243374 0.000000 
0.585938 17.510239 0.000000 
0.195312 17.778433 0.000000 
0.195312 18.048390 0.000000 
0.585938 17.778433 0.000000 
0.585938 18.048390 0.000000 
0.195312 18.319558 0.000000 
0.195312 18.592543 0.000000 
0.585938 18.319558 0.000000 
0.585938 18.592543 0.000000 
0.195312 18.866915 0.000000 
0.195312 19.142791 0.000000 
0.585938 18.866915 0.000000 
0.585938 19.142791 0.000000 
0.195312 19.420548 0.000000 
0.195312 19.699419 0.000000 
0.585938 19.420548 0.000000 
0.585938 19.699419 0.000000 
0.195312 19.980343 0.000000 
0.195312 20.262545 0.000000 
0.585938 19.980343 0.000000 
0.585938 20.262545 0.000000 
0.195312 20.546657 0.000000 
0.195312 20.832452 0.000000 
0.585938 20.546657 0.000000 
0.585938 20.832452 0.000000 
0.195312 21.120135 0.000000 
0.195312 21.409643 0.000000 
0.585938 21.120135 0.000000 
0.585938 21.409643 0.000000 
0.195312 21.701032 0.000000 
0.195312 21.994114 0.000000 
0.585938 21.701032 0.000000 
0.585938 21.994114 0.000000 
0.195312 22.289135 0.000000 
0.195312 22.585686 0.000000 
0.585938 22.289135 0.000000 
0.585938 22.585686 0.000000 
0.195312 22.884746 0.000000 
0.195312 23.185419 0.000000 
0.585938 22.884746 0.000000 
0.585938 23.185419 0.000000 
0.195312 23.488542 0.000000 
0.195312 23.793317 0.000000 
0.585938 23.488542 0.000000 
0.585938 23.793317 0.000000 
0.195312 24.100317 0.000000 
0.195312 24.409605 0.000000 
0.585938 24.100317 0.000000 
0.585938 24.409605 0.000000 
0.195312 24.721056 0.000000 
0.195312 25.035066 0.000000 
0.585938 24.721056 0.000000 
0.585938 25.035066 0.000000 
0.195312 25.350682 0.000000 
0.195312 25.668957 0.000000 
0.585938 25.350682 0.000000 
0.585938 25.668957 0.000000 
0.195312 25.989348 0.000000 
0.195312 26.312465 0.000000 
0.585938 25.989348 0.000000 
0.585938 26.312465 0.000000 
0.195312 26.638113 0.000000 
0.195312 26.966038 0.000000 
0.585938 26.638113 0.000000 
0.585938 26.966038 0.000000 
0.195312 27.296855 0.000000 
0.195312 27.630002 0.000000 
0.585938 27.296855 0.000000 
0.585938 27.630002 0.000000 
0.195312 27.966125 0.000000 
0.195312 28.304829 0.000000 
0.585938 27.966125 0.000000 
0.585938 28.304829 0.000000 
0.195312 28.646602 0.000000 
0.195312 28.991305 0.000000 
0.585938 28.646602 0.000000 
0.585938 28.991305 0.000000 
0.195312 29.338880 0.000000 
0.195312 29.689877 0.000000 
0.585938 29.338880 0.000000 
0.585938 29.689877 0.000000 
0.195312 30.043404 0.000000 
0.195312 30.400689 0.000000 
0.585938 30.043404 0.000000 
0.585938 30.400689 0.000000 
0.195312 30.760620 0.000000 
0.195312 31.124615 0.000000 
0.585938 30.760620 0.000000 
0.585938 31.124615 0.000000 
0.195312 31.491404 0.000000 
0.195312 31.862626 0.000000 
0.585938 31.491404 0.000000 
0.585938 31.862626 0.000000 
0.195312 32.236737 0.000000 
0.195312 32.615571 0.000000 
0.585938 32.236737 0.000000 
0.585938 32.615571 0.000000 
0.195312 32.997759 0.000000 
0.195312 33.384761 0.000000 
0.585938 32.997759 0.000000 
0.585938 33.384761 0.000000 

POINT_DATA 256
SCALARS sigma_xx FLOAT 1
LOOKUP_TABLE default
0.000000
-0.000000
0.000000
-0.000000
0.000000
-0.000000
0.000000
-0.000000
0.000000
0.000000
0.000000
0.000000
0.000000
0.000000
-0.000000
0.000000
0.000000
-0.000000
0.000000
-0.000000
0.000000
-0.000000
0.000000
-0.000000
-0.000000
0.000000
-0.000000
0.000000
-0.000000
-0.000000
-0.000000
-0.000000
-0.000000
0.000000
-0.000000
0.000000
0.000000
0.000000
-0.000000
0.000000
0.000000
0.000000
0.000000
0.000000
0.000000
0.000000
0.000000
0.000000
0.000000
-0.000000
0.000000
-0.000000
-0.000000
-0.000000
-0.000000
-0.000000
-0.000000
-0.000000
-0.000000
-0.000000
-0.000000
-0.000000
-0.000000
0.000000
-0.000000
0.000000
-0.000000
0.000000
-0.000000
-0.000000
0.000000
-0.000000
-0.000000
0.000000
-0.000000
0.000000
-0.000000
-0.000000
-0.000000
-0.000000
-0.000000
-0.000000
-0.000000
-0.000000
-0.000000
-0.000000
-0.000000
-0.000000
-0.000000
-0.000000
-0.000000
-0.000000
-0.000000
0.000000
-0.000000
0.000000
-0.000000
0.000000
-0.000000
0.000000
-0.000000
-0.000000
0.000000
-0.000000
-0.000000
-0.000000
-0.000000
-0.000000
-0.000000
0.000000
-0.000000
0.000000
-0.000000
-0.000000
-0.000000
-0.000000
-0.000000
-0.000000
-0.000000
-0.000000
-0.000000
-0.000000
-0.000000
-0.000000
-0.000000
-0.000000
-0.000000
-0.000000
-0.000000
-0.000000
-0.000000
-0.000000
-0.000000
-0.000000
-0.000000
-0.000000
-0.000000
0.000000
-0.000000
0.000000
-0.000000
-0.000000
-0.000000
-0.000000
0.000000
-0.000000
0.000000
-0.000000
0.000000
-0.000000
0.000000
-0.000000
0.000000
-0.000000
0.000000
-0.000000
-0.000000
-0.000000
-0.000000
-0.000000
-0.000000
-0.000000
0.000000
-0.000000
-0.000000
-0.000000
-0.000000
-0.000000
-0.000000
-0.000000
-0.000000
-0.000000
-0.000000
-0.000000
-0.000000
-0.000000
-0.000000
-0.000000
-0.000000
-0.000000
-0.000000
-0.000000
-0.000000
-0.000000
-0.000000
0.000000
-0.000000
0.000000
-0.000000
-0.000000
-0.000000
-0.000000
0.000000
-0.000000
0.000000
-0.000000
0.000000
-0.000000
-0.000000
-0.000000
-0.000000
0.000000
0.000000
0.000000
-0.000000
-0.000000
-0.000000
-0.000000
-0.000000
0.000000
-0.000000
0.000000
0.000000
0.000000
0.000000
0.000000
-0.000000
0.000000
-0.000000
0.000000
-0.000000
-0.000000
-0.000000
-0.000000
-0.000000
-0.000000
-0.000000
-0.000000
0.000000
-0.000000
0.000000
-0.000000
-0.000000
-0.000000
0.000000
-0.000000
-0.000000
-0.000000
-0.000000
-0.000000
0.000000
-0.000000
0.000000
-0.000000
-0.000000
-0.000000
-0.000000
-0.000000
-0.000000
-0.000000
-0.000000
-0.000000
-0.000000
0.000000
-0.000000
0.000000

SCALARS sigma_yy FLOAT 1
LOOKUP_TABLE default
-13878.560386
-13878.560386
-13878.560386
-13878.560386
-13755.741837
-13614.014296
-13755.741837
-13614.014296
-13493.989052
-13413.978290
-13493.989052
-13413.978290
-13290.916478
-13182.994738
-13290.916478
-13182.994738
-13066.613462
-12969.495253
-13066.613462
-12969.495253
-12849.330218
-12742.226937
-12849.330218
-12742.226937
-12627.007211
-12530.652472
-12627.007211
-12530.652472
-12408.532907
-12301.253285
-12408.532907
-12301.253285
-12188.066601
-12095.568329
-12188.066601
-12095.568329
-11970.677228
-11873.842962
-11970.677228
-11873.842962
-11754.506781
-11659.566602
-11754.506781
-11659.566602
-11532.654670
-11439.302261
-11532.654670
-11439.302261
-11310.070028
-11210.110500
-11310.070028
-11210.110500
-11086.163807
-11004.274579
-11086.163807
-11004.274579
-10881.993544
-10783.666863
-10881.993544
-10783.666863
-10652.198305
-10564.022214
-10652.198305
-10564.022214
-10440.831479
-10339.435554
-10440.831479
-10339.435554
-10226.149780
-10120.719877
-10226.149780
-10120.719877
-10002.796858
-9888.788196
-10002.796858
-9888.788196
-9791.624052
-9681.037130
-9791.624052
-9681.037130
-9564.673929
-9470.076095
-9564.673929
-9470.076095
-9352.122197
-9250.792899
-9352.122197
-9250.792899
-9116.867104
-9039.948979
-9116.867104
-9039.948979
-8904.072586
-8803.656699
-8904.072586
-8803.656699
-8690.816234
-8583.102224
-8690.816234
-8583.102224
-8479.044831
-8371.076425
-8479.044831
-8371.076425
-8258.079788
-8154.215429
-8258.079788
-8154.215429
-8036.463483
-7944.070043
-8036.463483
-7944.070043
-7799.096805
-7725.283951
-7799.096805
-7725.283951
-7593.427120
-7501.720957
-7593.427120
-7501.720957
-7382.876911
-7271.025781
-7382.876911
-7271.025781
-7157.987764
-7054.416337
-7157.987764
-7054.416337
-6932.731244
-6853.810609
-6932.731244
-6853.810609
-6713.619177
-6631.210833
-6713.619177
-6631.210833
-6497.919872
-6401.772912
-6497.919872
-6401.772912
-6293.573470
-6177.970666
-6293.573470
-6177.970666
-6075.280605
-5956.867367
-6075.280605
-5956.867367
-5852.560935
-5750.612673
-5852.560935
-5750.612673
-5621.695036
-5529.912253
-5621.695036
-5529.912253
-5410.991344
-5300.175226
-5410.991344
-5300.175226
-5201.942878
-5068.461085
-5201.942878
-5068.461085
-4986.973969
-4852.543703
-4986.973969
-4852.543703
-4758.309119
-4656.709589
-4758.309119
-4656.709589
-4535.038331
-4444.291287
-4535.038331
-4444.291287
-4318.397769
-4214.331799
-4318.397769
-4214.331799
-4100.484028
-3983.152221
-4100.484028
-3983.152221
-3881.737739
-3772.625046
-3881.737739
-3772.625046
-3669.338170
-3569.490817
-3669.338170
-3569.490817
-3429.222249
-3353.587005
-3429.222249
-3353.587005
-3202.828001
-3143.052140
-3202.828001
-3143.052140
-2988.887625
-2909.470829
-2988.887625
-2909.470829
-2768.200064
-2682.443099
-2768.200064
-2682.443099
-2578.034073
-2465.512416
-2578.034073
-2465.512416
-2353.509587
-2237.499209
-2353.509587
-2237.499209
-2130.446800
-2028.388939
-2130.446800
-2028.388939
-1906.489056
-1818.555816
-1906.489056
-1818.555816
-1683.043667
-1602.033974
-1683.043667
-1602.033974
-1455.946372
-1381.080143
-1455.946372
-1381.080143
-1236.798096
-1158.587236
-1236.798096
-1158.587236
-1029.984000
-939.765043
-1029.984000
-939.765043
-817.584484
-718.298072
-817.584484
-718.298072
-601.400716
-493.692771
-601.400716
-493.692771
-385.850337
-267.658350
-385.850337
-267.658350
-159.997696
-50.746810
-159.997696
-50.746810

SCALARS sigma_zz FLOAT 1
LOOKUP_TABLE default
0.000000
0.000000
0.000000
0.000000
0.000000
0.000000
0.000000
0.000000
0.000000
0.000000
0.000000
0.000000
0.000000
0.000000
0.000000
0.000000
0.000000
0.000000
0.000000
0.000000
0.000000
0.000000
0.000000
0.000000
0.000000
0.000000
0.000000
0.000000
0.000000
0.000000
0.000000
0.000000
0.000000
0.000000
0.000000
0.000000
0.000000
0.000000
0.000000
0.000000
0.000000
0.000000
0.000000
0.000000
0.000000
0.000000
0.000000
0.000000
0.000000
0.000000
0.000000
0.000000
0.000000
0.000000
0.000000
0.000000
0.000000
0.000000
0.000000
0.000000
0.000000
0.000000
0.000000
0.000000
0.000000
0.000000
0.000000
0.000000
0.000000
0.000000
0.000000
0.000000
0.000000
0.000000
0.000000
0.000000
0.000000
0.000000
0.000000
0.000000
0.000000
0.000000
0.000000
0.000000
0.000000
0.000000
0.000000
0.000000
0.000000
0.000000
0.000000
0.000000
0.000000
0.000000
0.000000
0.000000
0.000000
0.000000
0.000000
0.000000
0.000000
0.000000
0.000000
0.000000
0.000000
0.000000
0.000000
0.000000
0.000000
0.000000
0.000000
0.000000
0.000000
0.000000
0.000000
0.000000
0.000000
0.000000
0.000000
0.000000
0.000000
0.000000
0.000000
0.000000
0.000000
0.000000
0.000000
0.000000
0.000000
0.000000
0.000000
0.000000
0.000000
0.000000
0.000000
0.000000
0.000000
0.000000
0.000000
0.000000
0.000000
0.000000
0.000000
0.000000
0.000000
0.000000
0.000000
0.000000
0.000000
0.000000
0.000000
0.000000
0.000000
0.000000
0.000000
0.000000
0.000000
0.000000
0.000000
0.000000
0.000000
0.000000
0.000000
0.000000
0.000000
0.000000
0.000000
0.000000
0.000000
0.000000
0.000000
0.000000
0.000000
0.000000
0.000000
0.000000
0.000000
0.000000
0.000000
0.000000
0.000000
0.000000
0.000000
0.000000
0.000000
0.000000
0.000000
0.000000
0.000000
0.000000
0.000000
0.000000
0.000000
0.000000
0.000000
0.000000
0.000000
0.000000
0.000000
0.000000
0.000000
0.000000
0.000000
0.000000
0.000000
0.000000
0.000000
0.000000
0.000000
0.000000
0.000000
0.000000
0.000000
0.000000
0.000000
0.000000
0.000000
0.000000
0.000000
0.000000
0.000000
0.000000
0.000000
0.000000
0.000000
0.000000
0.000000
0.000000
0.000000
0.000000
0.000000
0.000000
0.000000
0.000000
0.000000
0.000000
0.000000
0.000000
0.000000
0.000000
0.000000
0.000000
0.000000
0.000000
0.000000
0.000000
0.000000
0.000000
0.000000
0.000000
0.000000
0.000000
0.000000
0.000000
0.000000
0.000000

SCALARS sigma_xy FLOAT 1
LOOKUP_TABLE default
0.000000
-0.000000
0.000000
-0.000000
0.000000
-0.000000
0.000000
-0.000000
0.000000
0.000000
0.000000
0.000000
0.000000
0.000000
-0.000000
0.000000
0.000000
0.000000
0.000000
0.000000
0.000000
0.000000
0.000000
0.000000
0.000000
0.000000
0.000000
0.000000
-0.000000
-0.000000
-0.000000
-0.000000
-0.000000
0.000000
-0.000000
0.000000
0.000000
0.000000
0.000000
0.000000
0.000000
0.000000
0.000000
0.000000
0.000000
0.000000
0.000000
0.000000
0.000000
-0.000000
0.000000
-0.000000
-0.000000
-0.000000
-0.000000
-0.000000
0.000000
0.000000
0.000000
0.000000
0.000000
-0.000000
0.000000
0.000000
0.000000
0.000000
0.000000
0.000000
0.000000
-0.000000
0.000000
-0.000000
-0.000000
0.000000
-0.000000
0.000000
0.000000
0.000000
0.000000
0.000000
0.000000
0.000000
0.000000
0.000000
0.000000
-0.000000
0.000000
-0.000000
-0.000000
-0.000000
-0.000000
-0.000000
-0.000000
0.000000
-0.000000
0.000000
0.000000
0.000000
0.000000
0.000000
-0.000000
-0.000000
0.000000
-0.000000
0.000000
0.000000
0.000000
0.000000
0.000000
0.000000
0.000000
0.000000
-0.000000
-0.000000
-0.000000
-0.000000
-0.000000
-0.000000
-0.000000
-0.000000
0.000000
0.000000
0.000000
0.000000
0.000000
-0.000000
0.000000
-0.000000
-0.000000
-0.000000
-0.000000
-0.000000
0.000000
0.000000
0.000000
0.000000
0.000000
0.000000
0.000000
0.000000
0.000000
0.000000
0.000000
0.000000
0.000000
-0.000000
0.000000
-0.000000
0.000000
0.000000
0.000000
0.000000
0.000000
0.000000
0.000000
0.000000
0.000000
0.000000
0.000000
0.000000
-0.000000
-0.000000
0.000000
-0.000000
-0.000000
-0.000000
-0.000000
-0.000000
0.000000
0.000000
0.000000
0.000000
0.000000
0.000000
0.000000
0.000000
0.000000
0.000000
0.000000
0.000000
-0.000000
-0.000000
-0.000000
-0.000000
-0.000000
0.000000
-0.000000
0.000000
0.000000
0.000000
0.000000
0.000000
0.000000
0.000000
0.000000
0.000000
0.000000
0.000000
-0.000000
0.000000
0.000000
0.000000
0.000000
0.000000
0.000000
-0.000000
0.000000
-0.000000
-0.000000
0.000000
-0.000000
0.000000
0.000000
0.000000
0.000000
0.000000
-0.000000
0.000000
-0.000000
0.000000
-0.000000
0.000000
-0.000000
0.000000
-0.000000
0.000000
-0.000000
0.000000
0.000000
0.000000
0.000000
0.000000
0.000000
0.000000
0.000000
0.000000
-0.000000
-0.000000
-0.000000
-0.000000
0.000000
-0.000000
0.000000
-0.000000
-0.000000
0.000000
-0.000000
0.000000
0.000000
0.000000
0.000000
0.000000
-0.000000
0.000000
-0.000000
0.000000

SCALARS sigma_yz FLOAT 1
LOOKUP_TABLE default
0.000000
0.000000
0.000000
0.000000
0.000000
0.000000
0.000000
0.000000
0.000000
0.000000
0.000000
0.000000
0.000000
0.000000
0.000000
0.000000
0.000000
0.000000
0.000000
0.000000
0.000000
0.000000
0.000000
0.000000
0.000000
0.000000
0.000000
0.000000
0.000000
0.000000
0.000000
0.000000
0.000000
0.000000
0.000000
0.000000
0.000000
0.000000
0.000000
0.000000
0.000000
0.000000
0.000000
0.000000
0.000000
0.000000
0.000000
0.000000
0.000000
0.000000
0.000000
0.000000
0.000000
0.000000
0.000000
0.000000
0.000000
0.000000
0.000000
0.000000
0.000000
0.000000
0.000000
0.000000
0.000000
0.000000
0.000000
0.000000
0.000000
0.000000
0.000000
0.000000
0.000000
0.000000
0.000000
0.000000
0.000000
0.000000
0.000000
0.000000
0.000000
0.000000
0.000000
0.000000
0.000000
0.000000
0.000000
0.000000
0.000000
0.000000
0.000000
0.000000
0.000000
0.000000
0.000000
0.000000
0.000000
0.000000
0.000000
0.000000
0.000000
0.000000
0.000000
0.000000
0.000000
0.000000
0.000000
0.000000
0.000000
0.000000
0.000000
0.000000
0.000000
0.000000
0.000000
0.000000
0.000000
0.000000
0.000000
0.000000
0.000000
0.000000
0.000000
0.000000
0.000000
0.000000
0.000000
0.000000
0.000000
0.000000
0.000000
0.000000
0.000000
0.000000
0.000000
0.000000
0.000000
0.000000
0.000000
0.000000
0.000000
0.000000
0.000000
0.000000
0.000000
0.000000
0.000000
0.000000
0.000000
0.000000
0.000000
0.000000
0.000000
0.000000
0.000000
0.000000
0.000000
0.000000
0.000000
0.000000
0.000000
0.000000
0.000000
0.000000
0.000000
0.000000
0.000000
0.000000
0.000000
0.000000
0.000000
0.000000
0.000000
0.000000
0.000000
0.000000
0.000000
0.000000
0.000000
0.000000
0.000000
0.000000
0.000000
0.000000
0.000000
0.000000
0.000000
0.000000
0.000000
0.000000
0.000000
0.000000
0.000000
0.000000
0.000000
0.000000
0.000000
0.000000
0.000000
0.000000
0.000000
0.000000
0.000000
0.000000
0.000000
0.000000
0.000000
0.000000
0.000000
0.000000
0.000000
0.000000
0.000000
0.000000
0.000000
0.000000
0.000000
0.000000
0.000000
0.000000
0.000000
0.000000
0.000000
0.000000
0.000000
0.000000
0.000000
0.000000
0.000000
0.000000
0.000000
0.000000
0.000000
0.000000
0.000000
0.000000
0.000000
0.000000
0.000000
0.000000
0.000000
0.000000
0.000000
0.000000
0.000000
0.000000
0.000000
0.000000
0.000000
0.000000
0.000000
0.000000
0.000000
0.000000
0.000000
0.000000

SCALARS sigma_zx FLOAT 1
LOOKUP_TABLE default
0.000000
0.000000
0.000000
0.000000
0.000000
0.000000
0.000000
0.000000
0.000000
0.000000
0.000000
0.000000
0.000000
0.000000
0.000000
0.000000
0.000000
0.000000
0.000000
0.000000
0.000000
0.000000
0.000000
0.000000
0.000000
0.000000
0.000000
0.000000
0.000000
0.000000
0.000000
0.000000
0.000000
0.000000
0.000000
0.000000
0.000000
0.000000
0.000000
0.000000
0.000000
0.000000
0.000000
0.000000
0.000000
0.000000
0.000000
0.000000
0.000000
0.000000
0.000000
0.000000
0.000000
0.000000
0.000000
0.000000
0.000000
0.000000
0.000000
0.000000
0.000000
0.000000
0.000000
0.000000
0.000000
0.000000
0.000000
0.000000
0.000000
0.000000
0.000000
0.000000
0.000000
0.000000
0.000000
0.000000
0.000000
0.000000
0.000000
0.000000
0.000000
0.000000
0.000000
0.000000
0.000000
0.000000
0.000000
0.000000
0.000000
0.000000
0.000000
0.000000
0.000000
0.000000
0.000000
0.000000
0.000000
0.000000
0.000000
0.000000
0.000000
0.000000
0.000000
0.000000
0.000000
0.000000
0.000000
0.000000
0.000000
0.000000
0.000000
0.000000
0.000000
0.000000
0.000000
0.000000
0.000000
0.000000
0.000000
0.000000
0.000000
0.000000
0.000000
0.000000
0.000000
0.000000
0.000000
0.000000
0.000000
0.000000
0.000000
0.000000
0.000000
0.000000
0.000000
0.000000
0.000000
0.000000
0.000000
0.000000
0.000000
0.000000
0.000000
0.000000
0.000000
0.000000
0.000000
0.000000
0.000000
0.000000
0.000000
0.000000
0.000000
0.000000
0.000000
0.000000
0.000000
0.000000
0.000000
0.000000
0.000000
0.000000
0.000000
0.000000
0.000000
0.000000
0.000000
0.000000
0.000000
0.000000
0.000000
0.000000
0.000000
0.000000
0.000000
0.000000
0.000000
0.000000
0.000000
0.000000
0.000000
0.000000
0.000000
0.000000
0.000000
0.000000
0.000000
0.000000
0.000000
0.000000
0.000000
0.000000
0.000000
0.000000
0.000000
0.000000
0.000000
0.000000
0.000000
0.000000
0.000000
0.000000
0.000000
0.000000
0.000000
0.000000
0.000000
0.000000
0.000000
0.000000
0.000000
0.000000
0.000000
0.000000
0.000000
0.000000
0.000000
0.000000
0.000000
0.000000
0.000000
0.000000
0.000000
0.000000
0.000000
0.000000
0.000000
0.000000
0.000000
0.000000
0.000000
0.000000
0.000000
0.000000
0.000000
0.000000
0.000000
0.000000
0.000000
0.000000
0.000000
0.000000
0.000000
0.000000
0.000000
0.000000
0.000000
0.000000
0.000000
0.000000
0.000000
0.000000
0.000000
0.000000
0.000000
0.000000

SCALARS u_x FLOAT 1
LOOKUP_TABLE default
0.000000
0.000000
0.000000
0.000000
0.000000
0.000000
0.000000
0.000000
0.000000
0.000000
0.000000
0.000000
0.000000
0.000000
0.000000
0.000000
0.000000
0.000000
0.000000
0.000000
0.000000
0.000000
0.000000
0.000000
0.000000
0.000000
0.000000
0.000000
0.000000
0.000000
0.000000
0.000000
0.000000
0.000000
0.000000
0.000000
0.000000
0.000000
0.000000
0.000000
0.000000
0.000000
0.000000
0.000000
0.000000
0.000000
0.000000
0.000000
0.000000
0.000000
0.000000
0.000000
0.000000
0.000000
0.000000
0.000000
0.000000
0.000000
0.000000
0.000000
0.000000
0.000000
0.000000
0.000000
0.000000
0.000000
0.000000
0.000000
0.000000
0.000000
0.000000
0.000000
0.000000
0.000000
0.000000
0.000000
0.000000
0.000000
0.000000
0.000000
0.000000
0.000000
0.000000
0.000000
0.000000
0.000000
0.000000
0.000000
0.000000
0.000000
0.000000
0.000000
0.000000
0.000000
0.000000
0.000000
0.000000
0.000000
0.000000
0.000000
0.000000
0.000000
0.000000
0.000000
0.000000
0.000000
0.000000
0.000000
0.000000
0.000000
0.000000
0.000000
0.000000
0.000000
0.000000
0.000000
0.000000
0.000000
0.000000
0.000000
0.000000
0.000000
0.000000
0.000000
0.000000
0.000000
0.000000
0.000000
0.000000
0.000000
0.000000
0.000000
0.000000
0.000000
0.000000
0.000000
0.000000
0.000000
0.000000
0.000000
0.000000
0.000000
0.000000
0.000000
0.000000
0.000000
0.000000
0.000000
0.000000
0.000000
0.000000
0.000000
0.000000
0.000000
0.000000
0.000000
0.000000
0.000000
0.000000
0.000000
0.000000
0.000000
0.000000
0.000000
0.000000
0.000000
0.000000
0.000000
0.000000
0.000000
0.000000
0.000000
0.000000
0.000000
0.000000
0.000000
0.000000
0.000000
0.000000
0.000000
0.000000
0.000000
0.000000
0.000000
0.000000
0.000000
0.000000
0.000000
0.000000
0.000000
0.000000
0.000000
0.000000
0.000000
0.000000
0.000000
0.000000
0.000000
0.000000
0.000000
0.000000
0.000000
0.000000
0.000000
0.000000
0.000000
0.000000
0.000000
0.000000
0.000000
0.000000
0.000000
0.000000
0.000000
0.000000
0.000000
0.000000
0.000000
0.000000
0.000000
0.000000
0.000000
0.000000
0.000000
0.000000
0.000000
0.000000
0.000000
0.000000
0.000000
0.000000
0.000000
0.000000
0.000000
0.000000
0.000000
0.000000
0.000000
0.000000
0.000000
0.000000
0.000000
0.000000
0.000000
0.000000
0.000000
0.000000
0.000000
0.000000
0.000000
0.000000
0.000000
0.000000
0.000000
0.000000
0.000000

SCALARS u_y FLOAT 1
LOOKUP_TABLE default
-0.097701
-0.293104
-0.097701
-0.293104
-0.488237
-0.682484
-0.488237
-0.682484
-0.875980
-1.068890
-0.875980
-1.068890
-1.261219
-1.452831
-1.261219
-1.452831
-1.643757
-1.834025
-1.643757
-1.834025
-2.023641
-2.212521
-2.023641
-2.212521
-2.400715
-2.588224
-2.400715
-2.588224
-2.775058
-2.961131
-2.775058
-2.961131
-3.146501
-3.331189
-3.146501
-3.331189
-3.515146
-3.698350
-3.515146
-3.698350
-3.880811
-4.062573
-3.880811
-4.062573
-4.243555
-4.423784
-4.243555
-4.423784
-4.603191
-4.781816
-4.603191
-4.781816
-4.959597
-5.136714
-4.959597
-5.136714
-5.313019
-5.488519
-5.313019
-5.488519
-5.663182
-5.837027
-5.663182
-5.837027
-6.010035
-6.182146
-6.010035
-6.182146
-6.353547
-6.523960
-6.353547
-6.523960
-6.693548
-6.862154
-6.693548
-6.862154
-7.029975
-7.196926
-7.029975
-7.196926
-7.362876
-7.528101
-7.362876
-7.528101
-7.692234
-7.855589
-7.692234
-7.855589
-8.017807
-8.179210
-8.017807
-8.179210
-8.339615
-8.498975
-8.339615
-8.498975
-8.657404
-8.814717
-8.657404
-8.814717
-8.971181
-9.126597
-8.971181
-9.126597
-9.280919
-9.434370
-9.280919
-9.434370
-9.586490
-9.737795
-9.586490
-9.737795
-9.887832
-10.036794
-9.887832
-10.036794
-10.184762
-10.331496
-10.184762
-10.331496
-10.477206
-10.621610
-10.477206
-10.621610
-10.764922
-10.907016
-10.764922
-10.907016
-11.047784
-11.187590
-11.047784
-11.187590
-11.326023
-11.463296
-11.326023
-11.463296
-11.599383
-11.733905
-11.599383
-11.733905
-11.867434
-11.999423
-11.867434
-11.999423
-12.130252
-12.259610
-12.130252
-12.259610
-12.387585
-12.514294
-12.387585
-12.514294
-12.639439
-12.763199
-12.639439
-12.763199
-12.885629
-13.006298
-12.885629
-13.006298
-13.125754
-13.243394
-13.125754
-13.243394
-13.359648
-13.474396
-13.359648
-13.474396
-13.587265
-13.699019
-13.587265
-13.699019
-13.808719
-13.917143
-13.808719
-13.917143
-14.023655
-14.128486
-14.023655
-14.128486
-14.231427
-14.332544
-14.231427
-14.332544
-14.431781
-14.529323
-14.431781
-14.529323
-14.624927
-14.719001
-14.624927
-14.719001
-14.810567
-14.900519
-14.810567
-14.900519
-14.988021
-15.073870
-14.988021
-15.073870
-15.157495
-15.238832
-15.157495
-15.238832
-15.318007
-15.394621
-15.318007
-15.394621
-15.469630
-15.541981
-15.469630
-15.541981
-15.612215
-15.679723
-15.612215
-15.679723
-15.744700
-15.807399
-15.744700
-15.807399
-15.867207
-15.924686
-15.867207
-15.924686
-15.979188
-16.031108
-15.979188
-16.031108
-16.079960
-16.125883
-16.079960
-16.125883
-16.168933
-16.208560
-16.168933
-16.208560
-16.245659
-16.278998
-16.245659
-16.278998
-16.309692
-16.336323
-16.309692
-16.336323
-16.360158
-16.379562
-16.360158
-16.379562
-16.396075
-16.407867
-16.396075
-16.407867
-16.416303
-16.419927
-16.416303
-16.419927

