# vtk DataFile Version 2.0
MATLAB generated vtk file, WMC
ASCII
DATASET UNSTRUCTURED_GRID
POINTS 128 double
0.781250 0.781250 0.406372 
0.781250 0.781250 1.219115 
0.781250 2.343750 0.406372 
0.781250 2.343750 1.219115 
2.343750 0.781250 0.406372 
2.343750 0.781250 1.219115 
2.343750 2.343750 0.406372 
2.343750 2.343750 1.219115 
0.781250 0.781250 2.036512 
0.781250 0.781250 2.869631 
0.781250 2.343750 2.036512 
0.781250 2.343750 2.869631 
2.343750 0.781250 2.036512 
2.343750 0.781250 2.869631 
2.343750 2.343750 2.036512 
2.343750 2.343750 2.869631 
0.781250 0.781250 3.715441 
0.781250 0.781250 4.571638 
0.781250 2.343750 3.715441 
0.781250 2.343750 4.571638 
2.343750 0.781250 3.715441 
2.343750 0.781250 4.571638 
2.343750 2.343750 3.715441 
2.343750 2.343750 4.571638 
0.781250 0.781250 5.439288 
0.781250 0.781250 6.321420 
0.781250 2.343750 5.439288 
0.781250 2.343750 6.321420 
2.343750 0.781250 5.439288 
2.343750 0.781250 6.321420 
2.343750 2.343750 5.439288 
2.343750 2.343750 6.321420 
0.781250 0.781250 7.215709 
0.781250 0.781250 8.123018 
0.781250 2.343750 7.215709 
0.781250 2.343750 8.123018 
2.343750 0.781250 7.215709 
2.343750 0.781250 8.123018 
2.343750 2.343750 7.215709 
2.343750 2.343750 8.123018 
0.781250 0.781250 9.044610 
0.781250 0.781250 9.982470 
0.781250 2.343750 9.044610 
0.781250 2.343750 9.982470 
2.343750 0.781250 9.044610 
2.343750 0.781250 9.982470 
2.343750 2.343750 9.044610 
2.343750 2.343750 9.982470 
0.781250 0.781250 10.934608 
0.781250 0.781250 11.902925 
0.781250 2.343750 10.934608 
0.781250 2.343750 11.902925 
2.343750 0.781250 10.934608 
2.343750 0.781250 11.902925 
2.343750 2.343750 10.934608 
2.343750 2.343750 11.902925 
0.781250 0.781250 12.889048 
0.781250 0.781250 13.892189 
0.781250 2.343750 12.889048 
0.781250 2.343750 13.892189 
2.343750 0.781250 12.889048 
2.343750 0.781250 13.892189 
2.343750 2.343750 12.889048 
2.343750 2.343750 13.892189 
0.781250 0.781250 14.912742 
0.781250 0.781250 15.953910 
0.781250 2.343750 14.912742 
0.781250 2.343750 15.953910 
2.343750 0.781250 14.912742 
2.343750 0.781250 15.953910 
2.343750 2.343750 14.912742 
2.343750 2.343750 15.953910 
0.781250 0.781250 17.015810 
0.781250 0.781250 18.098636 
0.781250 2.343750 17.015810 
0.781250 2.343750 18.098636 
2.343750 0.781250 17.015810 
2.343750 0.781250 18.098636 
2.343750 2.343750 17.015810 
2.343750 2.343750 18.098636 
0.781250 0.781250 19.205263 
0.781250 0.781250 20.335407 
0.781250 2.343750 19.205263 
0.781250 2.343750 20.335407 
2.343750 0.781250 19.205263 
2.343750 0.781250 20.335407 
2.343750 2.343750 19.205263 
2.343750 2.343750 20.335407 
0.781250 0.781250 21.492477 
0.781250 0.781250 22.677485 
0.781250 2.343750 21.492477 
0.781250 2.343750 22.677485 
2.343750 0.781250 21.492477 
2.343750 0.781250 22.677485 
2.343750 2.343750 21.492477 
2.343750 2.343750 22.677485 
0.781250 0.781250 23.891832 
0.781250 0.781250 25.137647 
0.781250 2.343750 23.891832 
0.781250 2.343750 25.137647 
2.343750 0.781250 23.891832 
2.343750 0.781250 25.137647 
2.343750 2.343750 23.891832 
2.343750 2.343750 25.137647 
0.781250 0.781250 26.416595 
0.781250 0.781250 27.732474 
0.781250 2.343750 26.416595 
0.781250 2.343750 27.732474 
2.343750 0.781250 26.416595 
2.343750 0.781250 27.732474 
2.343750 2.343750 26.416595 
2.343750 2.343750 27.732474 
0.781250 0.781250 29.087570 
0.781250 0.781250 30.490954 
0.781250 2.343750 29.087570 
0.781250 2.343750 30.490954 
2.343750 0.781250 29.087570 
2.343750 0.781250 30.490954 
2.343750 2.343750 29.087570 
2.343750 2.343750 30.490954 
0.781250 0.781250 31.936329 
0.781250 0.781250 33.421438 
0.781250 2.343750 31.936329 
0.781250 2.343750 33.421438 
2.343750 0.781250 31.936329 
2.343750 0.781250 33.421438 
2.343750 2.343750 31.936329 
2.343750 2.343750 33.421438 

POINT_DATA 128
SCALARS sigma_xx FLOAT 1
LOOKUP_TABLE default
-0.000000
-0.000000
0.000000
-0.000000
0.000000
0.000000
0.000000
-0.000000
-0.000000
-0.000000
0.000000
-0.000000
-0.000000
0.000000
-0.000000
-0.000000
-0.000000
0.000000
-0.000000
-0.000000
0.000000
-0.000000
0.000000
-0.000000
-0.000000
-0.000000
0.000000
0.000000
-0.000000
0.000000
-0.000000
-0.000000
0.000000
-0.000000
0.000000
0.000000
-0.000000
-0.000000
-0.000000
-0.000000
-0.000000
-0.000000
-0.000000
0.000000
0.000000
-0.000000
-0.000000
-0.000000
0.000000
-0.000000
-0.000000
-0.000000
0.000000
-0.000000
-0.000000
0.000000
-0.000000
-0.000000
0.000000
-0.000000
0.000000
-0.000000
-0.000000
-0.000000
0.000000
0.000000
-0.000000
-0.000000
-0.000000
-0.000000
-0.000000
-0.000000
-0.000000
0.000000
-0.000000
-0.000000
-0.000000
0.000000
0.000000
0.000000
-0.000000
-0.000000
-0.000000
0.000000
-0.000000
-0.000000
0.000000
0.000000
0.000000
0.000000
0.000000
0.000000
0.000000
0.000000
0.000000
-0.000000
0.000000
-0.000000
-0.000000
0.000000
0.000000
-0.000000
0.000000
0.000000
-0.000000
-0.000000
0.000000
0.000000
-0.000000
0.000000
0.000000
-0.000000
0.000000
-0.000000
-0.000000
-0.000000
0.000000
0.000000
0.000000
-0.000000
-0.000000
-0.000000
-0.000000
-0.000000
0.000000
0.000000
-0.000000
0.000000

SCALARS sigma_yy FLOAT 1
LOOKUP_TABLE default
-0.000000
-0.000000
0.000000
-0.000000
-0.000000
0.000000
0.000000
-0.000000
0.000000
0.000000
0.000000
-0.000000
0.000000
0.000000
-0.000000
-0.000000
-0.000000
-0.000000
-0.000000
0.000000
0.000000
0.000000
-0.000000
-0.000000
0.000000
-0.000000
0.000000
0.000000
-0.000000
0.000000
-0.000000
-0.000000
0.000000
-0.000000
0.000000
0.000000
-0.000000
-0.000000
-0.000000
-0.000000
-0.000000
-0.000000
-0.000000
0.000000
-0.000000
-0.000000
-0.000000
-0.000000
0.000000
0.000000
0.000000
-0.000000
0.000000
-0.000000
0.000000
0.000000
0.000000
0.000000
-0.000000
-0.000000
-0.000000
-0.000000
0.000000
0.000000
0.000000
-0.000000
0.000000
-0.000000
-0.000000
-0.000000
-0.000000
-0.000000
-0.000000
0.000000
-0.000000
-0.000000
-0.000000
0.000000
0.000000
0.000000
0.000000
-0.000000
-0.000000
-0.000000
-0.000000
-0.000000
0.000000
0.000000
0.000000
0.000000
-0.000000
-0.000000
0.000000
0.000000
-0.000000
-0.000000
-0.000000
-0.000000
-0.000000
0.000000
0.000000
-0.000000
0.000000
-0.000000
-0.000000
0.000000
0.000000
0.000000
0.000000
0.000000
0.000000
0.000000
0.000000
-0.000000
-0.000000
0.000000
0.000000
-0.000000
0.000000
-0.000000
-0.000000
-0.000000
-0.000000
-0.000000
0.000000
-0.000000
-0.000000
0.000000

SCALARS sigma_zz FLOAT 1
LOOKUP_TABLE default
-12565.978684
-12565.978684
-12565.978684
-12565.978684
-12565.978684
-12565.978684
-12565.978684
-12565.978684
-12091.563564
-11548.472837
-12091.563564
-11548.472837
-12091.563564
-11548.472837
-12091.563564
-11548.472837
-11138.047020
-10823.522158
-11138.047020
-10823.522158
-11138.047020
-10823.522158
-11138.047020
-10823.522158
-10341.659259
-9940.067738
-10341.659259
-9940.067738
-10341.659259
-9940.067738
-10341.659259
-9940.067738
-9545.513850
-9186.398199
-9545.513850
-9186.398199
-9545.513850
-9186.398199
-9545.513850
-9186.398199
-8696.113766
-8336.586062
-8696.113766
-8336.586062
-8696.113766
-8336.586062
-8696.113766
-8336.586062
-7923.585795
-7510.936559
-7923.585795
-7510.936559
-7923.585795
-7510.936559
-7923.585795
-7510.936559
-7083.312821
-6736.668084
-7083.312821
-6736.668084
-7083.312821
-6736.668084
-7083.312821
-6736.668084
-6285.154489
-5909.064909
-6285.154489
-5909.064909
-6285.154489
-5909.064909
-6285.154489
-5909.064909
-5471.872961
-5093.219458
-5471.872961
-5093.219458
-5471.872961
-5093.219458
-5471.872961
-5093.219458
-4665.404132
-4277.309475
-4665.404132
-4277.309475
-4665.404132
-4277.309475
-4665.404132
-4277.309475
-3835.784365
-3465.351311
-3835.784365
-3465.351311
-3835.784365
-3465.351311
-3835.784365
-3465.351311
-3015.408534
-2668.960091
-3015.408534
-2668.960091
-3015.408534
-2668.960091
-3015.408534
-2668.960091
-2232.793375
-1847.924602
-2232.793375
-1847.924602
-2232.793375
-1847.924602
-2232.793375
-1847.924602
-1420.027496
-1011.406231
-1420.027496
-1011.406231
-1420.027496
-1011.406231
-1420.027496
-1011.406231
-701.124652
-66.929676
-701.124652
-66.929676
-701.124652
-66.929676
-701.124652
-66.929676

SCALARS sigma_xy FLOAT 1
LOOKUP_TABLE default
-0.000000
-0.000000
0.000000
-0.000000
0.000000
0.000000
0.000000
0.000000
0.000000
-0.000000
0.000000
0.000000
0.000000
-0.000000
-0.000000
-0.000000
0.000000
0.000000
0.000000
-0.000000
-0.000000
-0.000000
-0.000000
-0.000000
0.000000
0.000000
-0.000000
-0.000000
0.000000
-0.000000
-0.000000
0.000000
-0.000000
0.000000
-0.000000
0.000000
0.000000
-0.000000
0.000000
0.000000
0.000000
0.000000
0.000000
-0.000000
0.000000
-0.000000
0.000000
-0.000000
0.000000
-0.000000
0.000000
0.000000
0.000000
0.000000
0.000000
-0.000000
0.000000
-0.000000
-0.000000
-0.000000
0.000000
0.000000
0.000000
0.000000
-0.000000
-0.000000
0.000000
-0.000000
-0.000000
0.000000
0.000000
-0.000000
-0.000000
0.000000
-0.000000
-0.000000
-0.000000
0.000000
0.000000
0.000000
-0.000000
-0.000000
0.000000
-0.000000
-0.000000
-0.000000
-0.000000
-0.000000
0.000000
-0.000000
0.000000
-0.000000
-0.000000
-0.000000
-0.000000
-0.000000
0.000000
0.000000
0.000000
0.000000
-0.000000
0.000000
-0.000000
0.000000
0.000000
-0.000000
0.000000
-0.000000
-0.000000
0.000000
0.000000
0.000000
-0.000000
0.000000
0.000000
-0.000000
-0.000000
0.000000
0.000000
-0.000000
0.000000
-0.000000
0.000000
-0.000000
-0.000000
-0.000000
0.000000
-0.000000

SCALARS sigma_yz FLOAT 1
LOOKUP_TABLE default
0.000000
-0.000000
0.000000
-0.000000
-0.000000
0.000000
0.000000
0.000000
-0.000000
-0.000000
-0.000000
-0.000000
0.000000
0.000000
0.000000
-0.000000
0.000000
0.000000
0.000000
0.000000
0.000000
0.000000
0.000000
0.000000
0.000000
-0.000000
0.000000
0.000000
-0.000000
0.000000
0.000000
0.000000
-0.000000
-0.000000
0.000000
0.000000
0.000000
0.000000
-0.000000
0.000000
-0.000000
0.000000
0.000000
0.000000
0.000000
-0.000000
0.000000
0.000000
-0.000000
-0.000000
-0.000000
0.000000
-0.000000
-0.000000
-0.000000
0.000000
-0.000000
0.000000
0.000000
0.000000
-0.000000
0.000000
0.000000
0.000000
-0.000000
0.000000
0.000000
0.000000
-0.000000
-0.000000
0.000000
0.000000
0.000000
-0.000000
0.000000
0.000000
-0.000000
-0.000000
0.000000
-0.000000
-0.000000
-0.000000
-0.000000
-0.000000
0.000000
-0.000000
0.000000
0.000000
-0.000000
-0.000000
0.000000
-0.000000
-0.000000
-0.000000
0.000000
0.000000
-0.000000
-0.000000
0.000000
0.000000
-0.000000
-0.000000
0.000000
0.000000
-0.000000
-0.000000
0.000000
0.000000
-0.000000
-0.000000
0.000000
0.000000
-0.000000
-0.000000
0.000000
0.000000
-0.000000
-0.000000
0.000000
0.000000
-0.000000
-0.000000
-0.000000
0.000000
-0.000000
-0.000000
0.000000
-0.000000

SCALARS sigma_zx FLOAT 1
LOOKUP_TABLE default
0.000000
-0.000000
0.000000
0.000000
-0.000000
0.000000
0.000000
0.000000
-0.000000
-0.000000
0.000000
0.000000
-0.000000
-0.000000
0.000000
0.000000
-0.000000
0.000000
0.000000
0.000000
-0.000000
0.000000
0.000000
0.000000
0.000000
-0.000000
-0.000000
-0.000000
0.000000
0.000000
0.000000
0.000000
-0.000000
0.000000
0.000000
0.000000
0.000000
0.000000
0.000000
0.000000
-0.000000
-0.000000
0.000000
-0.000000
0.000000
-0.000000
0.000000
-0.000000
-0.000000
-0.000000
-0.000000
-0.000000
0.000000
-0.000000
-0.000000
-0.000000
-0.000000
-0.000000
-0.000000
-0.000000
-0.000000
-0.000000
0.000000
-0.000000
-0.000000
0.000000
-0.000000
-0.000000
0.000000
0.000000
-0.000000
0.000000
0.000000
-0.000000
0.000000
0.000000
0.000000
-0.000000
0.000000
0.000000
-0.000000
-0.000000
-0.000000
-0.000000
-0.000000
0.000000
0.000000
0.000000
-0.000000
-0.000000
0.000000
-0.000000
-0.000000
0.000000
0.000000
0.000000
0.000000
0.000000
-0.000000
-0.000000
0.000000
0.000000
0.000000
0.000000
-0.000000
-0.000000
-0.000000
-0.000000
0.000000
0.000000
0.000000
0.000000
-0.000000
-0.000000
-0.000000
-0.000000
0.000000
0.000000
0.000000
0.000000
0.000000
-0.000000
-0.000000
-0.000000
0.000000
0.000000
0.000000
0.000000

SCALARS u_x FLOAT 1
LOOKUP_TABLE default
0.000000
0.000000
0.000000
0.000000
0.000000
0.000000
0.000000
0.000000
0.000000
0.000000
0.000000
0.000000
0.000000
0.000000
0.000000
0.000000
0.000000
0.000000
0.000000
0.000000
0.000000
0.000000
0.000000
0.000000
0.000000
0.000000
0.000000
0.000000
0.000000
0.000000
0.000000
0.000000
0.000000
0.000000
0.000000
0.000000
0.000000
0.000000
0.000000
0.000000
0.000000
0.000000
0.000000
0.000000
0.000000
0.000000
0.000000
0.000000
0.000000
0.000000
0.000000
0.000000
0.000000
0.000000
0.000000
0.000000
0.000000
0.000000
0.000000
0.000000
0.000000
0.000000
0.000000
0.000000
0.000000
0.000000
0.000000
0.000000
0.000000
0.000000
0.000000
0.000000
0.000000
0.000000
0.000000
0.000000
0.000000
0.000000
0.000000
0.000000
0.000000
0.000000
0.000000
0.000000
0.000000
0.000000
0.000000
0.000000
0.000000
0.000000
0.000000
0.000000
0.000000
0.000000
0.000000
0.000000
0.000000
0.000000
0.000000
0.000000
0.000000
0.000000
0.000000
0.000000
0.000000
0.000000
0.000000
0.000000
0.000000
0.000000
0.000000
0.000000
0.000000
0.000000
0.000000
0.000000
0.000000
0.000000
0.000000
0.000000
0.000000
0.000000
0.000000
0.000000
0.000000
0.000000
0.000000
0.000000

SCALARS u_y FLOAT 1
LOOKUP_TABLE default
0.000000
0.000000
0.000000
0.000000
0.000000
0.000000
0.000000
0.000000
0.000000
0.000000
0.000000
0.000000
0.000000
0.000000
0.000000
0.000000
0.000000
0.000000
0.000000
0.000000
0.000000
0.000000
0.000000
0.000000
0.000000
0.000000
0.000000
0.000000
0.000000
0.000000
0.000000
0.000000
0.000000
0.000000
0.000000
0.000000
0.000000
0.000000
0.000000
0.000000
0.000000
0.000000
0.000000
0.000000
0.000000
0.000000
0.000000
0.000000
0.000000
0.000000
0.000000
0.000000
0.000000
0.000000
0.000000
0.000000
0.000000
0.000000
0.000000
0.000000
0.000000
0.000000
0.000000
0.000000
0.000000
0.000000
0.000000
0.000000
0.000000
0.000000
0.000000
0.000000
0.000000
0.000000
0.000000
0.000000
0.000000
0.000000
0.000000
0.000000
0.000000
0.000000
0.000000
0.000000
0.000000
0.000000
0.000000
0.000000
0.000000
0.000000
0.000000
0.000000
0.000000
0.000000
0.000000
0.000000
0.000000
0.000000
0.000000
0.000000
0.000000
0.000000
0.000000
0.000000
0.000000
0.000000
0.000000
0.000000
0.000000
0.000000
0.000000
0.000000
0.000000
0.000000
0.000000
0.000000
0.000000
0.000000
0.000000
0.000000
0.000000
0.000000
0.000000
0.000000
0.000000
0.000000
0.000000
0.000000

SCALARS u_z FLOAT 1
LOOKUP_TABLE default
-0.374878
-1.124635
-0.374878
-1.124635
-0.374878
-1.124635
-0.374878
-1.124635
-1.869738
-2.599119
-1.869738
-2.599119
-1.869738
-2.599119
-1.869738
-2.599119
-3.315809
-4.022112
-3.315809
-4.022112
-3.315809
-4.022112
-3.315809
-4.022112
-4.716962
-5.397330
-4.716962
-5.397330
-4.716962
-5.397330
-4.716962
-5.397330
-6.065541
-6.720732
-6.065541
-6.720732
-6.065541
-6.720732
-6.065541
-6.720732
-7.361640
-7.986280
-7.361640
-7.986280
-7.361640
-7.986280
-7.361640
-7.986280
-8.596642
-9.190825
-8.596642
-9.190825
-8.596642
-9.190825
-8.596642
-9.190825
-9.767202
-10.326561
-9.767202
-10.326561
-9.767202
-10.326561
-9.767202
-10.326561
-10.868508
-11.389840
-10.868508
-11.389840
-10.868508
-11.389840
-10.868508
-11.389840
-11.890440
-12.370114
-11.890440
-12.370114
-11.890440
-12.370114
-11.890440
-12.370114
-12.825987
-13.258343
-12.825987
-13.258343
-12.825987
-13.258343
-12.825987
-13.258343
-13.663773
-14.041265
-13.663773
-14.041265
-13.663773
-14.041265
-13.663773
-14.041265
-14.389418
-14.706103
-14.389418
-14.706103
-14.389418
-14.706103
-14.389418
-14.706103
-14.989655
-15.236276
-14.989655
-15.236276
-14.989655
-15.236276
-14.989655
-15.236276
-15.443680
-15.602796
-15.443680
-15.602796
-15.443680
-15.602796
-15.443680
-15.602796
-15.719921
-15.797312
-15.719921
-15.797312
-15.719921
-15.797312
-15.719921
-15.797312

