# vtk DataFile Version 2.0
MATLAB generated vtk file, WMC
ASCII
DATASET UNSTRUCTURED_GRID
POINTS 256 double
0.195312 0.059854 0.000000 
0.195312 0.179562 0.000000 
0.585938 0.059854 0.000000 
0.585938 0.179562 0.000000 
0.195312 0.299436 0.000000 
0.195312 0.419853 0.000000 
0.585938 0.299436 0.000000 
0.585938 0.419853 0.000000 
0.195312 0.540802 0.000000 
0.195312 0.662391 0.000000 
0.585938 0.540802 0.000000 
0.585938 0.662391 0.000000 
0.195312 0.784591 0.000000 
0.195312 0.907342 0.000000 
0.585938 0.784591 0.000000 
0.585938 0.907342 0.000000 
0.195312 1.030564 0.000000 
0.195312 1.154333 0.000000 
0.585938 1.030564 0.000000 
0.585938 1.154333 0.000000 
0.195312 1.278656 0.000000 
0.195312 1.403574 0.000000 
0.585938 1.278656 0.000000 
0.585938 1.403574 0.000000 
0.195312 1.529090 0.000000 
0.195312 1.655217 0.000000 
0.585938 1.529090 0.000000 
0.585938 1.655217 0.000000 
0.195312 1.781875 0.000000 
0.195312 1.909116 0.000000 
0.585938 1.781875 0.000000 
0.585938 1.909116 0.000000 
0.195312 2.036942 0.000000 
0.195312 2.165381 0.000000 
0.585938 2.036942 0.000000 
0.585938 2.165381 0.000000 
0.195312 2.294448 0.000000 
0.195312 2.424142 0.000000 
0.585938 2.294448 0.000000 
0.585938 2.424142 0.000000 
0.195312 2.554462 0.000000 
0.195312 2.685407 0.000000 
0.585938 2.554462 0.000000 
0.585938 2.685407 0.000000 
0.195312 2.817000 0.000000 
0.195312 2.949234 0.000000 
0.585938 2.817000 0.000000 
0.585938 2.949234 0.000000 
0.195312 3.082154 0.000000 
0.195312 3.215750 0.000000 
0.585938 3.082154 0.000000 
0.585938 3.215750 0.000000 
0.195312 3.350018 0.000000 
0.195312 3.484917 0.000000 
0.585938 3.350018 0.000000 
0.585938 3.484917 0.000000 
0.195312 3.620545 0.000000 
0.195312 3.756887 0.000000 
0.585938 3.620545 0.000000 
0.585938 3.756887 0.000000 
0.195312 3.893937 0.000000 
0.195312 4.031703 0.000000 
0.585938 3.893937 0.000000 
0.585938 4.031703 0.000000 
0.195312 4.170180 0.000000 
0.195312 4.309424 0.000000 
0.585938 4.170180 0.000000 
0.585938 4.309424 0.000000 
0.195312 4.449339 0.000000 
0.195312 4.590090 0.000000 
0.585938 4.449339 0.000000 
0.585938 4.590090 0.000000 
0.195312 4.731598 0.000000 
0.195312 4.873914 0.000000 
0.585938 4.731598 0.000000 
0.585938 4.873914 0.000000 
0.195312 5.016972 0.000000 
0.195312 5.160839 0.000000 
0.585938 5.016972 0.000000 
0.585938 5.160839 0.000000 
0.195312 5.305566 0.000000 
0.195312 5.451038 0.000000 
0.585938 5.305566 0.000000 
0.585938 5.451038 0.000000 
0.195312 5.597425 0.000000 
0.195312 5.744554 0.000000 
0.585938 5.597425 0.000000 
0.585938 5.744554 0.000000 
0.195312 5.892643 0.000000 
0.195312 6.041559 0.000000 
0.585938 5.892643 0.000000 
0.585938 6.041559 0.000000 
0.195312 6.191407 0.000000 
0.195312 6.342155 0.000000 
0.585938 6.191407 0.000000 
0.585938 6.342155 0.000000 
0.195312 6.493771 0.000000 
0.195312 6.646369 0.000000 
0.585938 6.493771 0.000000 
0.585938 6.646369 0.000000 
0.195312 6.799851 0.000000 
0.195312 6.954301 0.000000 
0.585938 6.799851 0.000000 
0.585938 6.954301 0.000000 
0.195312 7.109810 0.000000 
0.195312 7.266176 0.000000 
0.585938 7.109810 0.000000 
0.585938 7.266176 0.000000 
0.195312 7.423665 0.000000 
0.195312 7.582104 0.000000 
0.585938 7.423665 0.000000 
0.585938 7.582104 0.000000 
0.195312 7.741614 0.000000 
0.195312 7.902172 0.000000 
0.585938 7.741614 0.000000 
0.585938 7.902172 0.000000 
0.195312 8.063796 0.000000 
0.195312 8.226484 0.000000 
0.585938 8.063796 0.000000 
0.585938 8.226484 0.000000 
0.195312 8.390344 0.000000 
0.195312 8.555374 0.000000 
0.585938 8.390344 0.000000 
0.585938 8.555374 0.000000 
0.195312 8.721433 0.000000 
0.195312 8.888696 0.000000 
0.585938 8.721433 0.000000 
0.585938 8.888696 0.000000 
0.195312 9.057207 0.000000 
0.195312 9.226802 0.000000 
0.585938 9.057207 0.000000 
0.585938 9.226802 0.000000 
0.195312 9.397776 0.000000 
0.195312 9.569931 0.000000 
0.585938 9.397776 0.000000 
0.585938 9.569931 0.000000 
0.195312 9.743339 0.000000 
0.195312 9.918233 0.000000 
0.585938 9.743339 0.000000 
0.585938 9.918233 0.000000 
0.195312 10.094320 0.000000 
0.195312 10.271838 0.000000 
0.585938 10.094320 0.000000 
0.585938 10.271838 0.000000 
0.195312 10.450633 0.000000 
0.195312 10.630841 0.000000 
0.585938 10.450633 0.000000 
0.585938 10.630841 0.000000 
0.195312 10.812481 0.000000 
0.195312 10.995649 0.000000 
0.585938 10.812481 0.000000 
0.585938 10.995649 0.000000 
0.195312 11.180345 0.000000 
0.195312 11.366610 0.000000 
0.585938 11.180345 0.000000 
0.585938 11.366610 0.000000 
0.195312 11.554375 0.000000 
0.195312 11.743866 0.000000 
0.585938 11.554375 0.000000 
0.585938 11.743866 0.000000 
0.195312 11.934902 0.000000 
0.195312 12.127645 0.000000 
0.585938 11.934902 0.000000 
0.585938 12.127645 0.000000 
0.195312 12.322001 0.000000 
0.195312 12.518164 0.000000 
0.585938 12.322001 0.000000 
0.585938 12.518164 0.000000 
0.195312 12.716214 0.000000 
0.195312 12.915933 0.000000 
0.585938 12.716214 0.000000 
0.585938 12.915933 0.000000 
0.195312 13.117747 0.000000 
0.195312 13.321377 0.000000 
0.585938 13.117747 0.000000 
0.585938 13.321377 0.000000 
0.195312 13.527018 0.000000 
0.195312 13.734642 0.000000 
0.585938 13.527018 0.000000 
0.585938 13.734642 0.000000 
0.195312 13.944590 0.000000 
0.195312 14.156616 0.000000 
0.585938 13.944590 0.000000 
0.585938 14.156616 0.000000 
0.195312 14.370764 0.000000 
0.195312 14.587070 0.000000 
0.585938 14.370764 0.000000 
0.585938 14.587070 0.000000 
0.195312 14.805735 0.000000 
0.195312 15.026605 0.000000 
0.585938 14.805735 0.000000 
0.585938 15.026605 0.000000 
0.195312 15.250217 0.000000 
0.195312 15.476411 0.000000 
0.585938 15.250217 0.000000 
0.585938 15.476411 0.000000 
0.195312 15.705300 0.000000 
0.195312 15.936589 0.000000 
0.585938 15.705300 0.000000 
0.585938 15.936589 0.000000 
0.195312 16.170722 0.000000 
0.195312 16.407986 0.000000 
0.585938 16.170722 0.000000 
0.585938 16.407986 0.000000 
0.195312 16.648045 0.000000 
0.195312 16.891291 0.000000 
0.585938 16.648045 0.000000 
0.585938 16.891291 0.000000 
0.195312 17.137603 0.000000 
0.195312 17.387389 0.000000 
0.585938 17.137603 0.000000 
0.585938 17.387389 0.000000 
0.195312 17.640355 0.000000 
0.195312 17.896935 0.000000 
0.585938 17.640355 0.000000 
0.585938 17.896935 0.000000 
0.195312 18.157283 0.000000 
0.195312 18.421291 0.000000 
0.585938 18.157283 0.000000 
0.585938 18.421291 0.000000 
0.195312 18.689530 0.000000 
0.195312 18.961608 0.000000 
0.585938 18.689530 0.000000 
0.585938 18.961608 0.000000 
0.195312 19.238051 0.000000 
0.195312 19.519050 0.000000 
0.585938 19.238051 0.000000 
0.585938 19.519050 0.000000 
0.195312 19.804879 0.000000 
0.195312 20.095770 0.000000 
0.585938 19.804879 0.000000 
0.585938 20.095770 0.000000 
0.195312 20.391799 0.000000 
0.195312 20.693833 0.000000 
0.585938 20.391799 0.000000 
0.585938 20.693833 0.000000 
0.195312 21.001383 0.000000 
0.195312 21.314933 0.000000 
0.585938 21.001383 0.000000 
0.585938 21.314933 0.000000 
0.195312 21.633949 0.000000 
0.195312 21.961233 0.000000 
0.585938 21.633949 0.000000 
0.585938 21.961233 0.000000 
0.195312 22.295471 0.000000 
0.195312 22.637539 0.000000 
0.585938 22.295471 0.000000 
0.585938 22.637539 0.000000 
0.195312 22.987347 0.000000 
0.195312 23.347204 0.000000 
0.585938 22.987347 0.000000 
0.585938 23.347204 0.000000 
0.195312 23.715475 0.000000 
0.195312 24.094931 0.000000 
0.585938 23.715475 0.000000 
0.585938 24.094931 0.000000 

POINT_DATA 256
SCALARS sigma_xx FLOAT 1
LOOKUP_TABLE default
0.000000
0.000000
0.000000
0.000000
0.000000
-0.000000
-0.000000
-0.000000
-0.000000
-0.000000
-0.000000
-0.000000
-0.000000
-0.000000
-0.000000
-0.000000
0.000000
0.000000
0.000000
0.000000
-0.000000
-0.000000
-0.000000
-0.000000
-0.000000
-0.000000
-0.000000
-0.000000
0.000000
-0.000000
-0.000000
-0.000000
-0.000000
-0.000000
-0.000000
-0.000000
-0.000000
0.000000
-0.000000
0.000000
-0.000000
-0.000000
-0.000000
-0.000000
-0.000000
-0.000000
0.000000
-0.000000
-0.000000
-0.000000
-0.000000
-0.000000
-0.000000
-0.000000
-0.000000
-0.000000
-0.000000
-0.000000
-0.000000
-0.000000
-0.000000
-0.000000
-0.000000
-0.000000
-0.000000
-0.000000
-0.000000
-0.000000
-0.000000
-0.000000
-0.000000
-0.000000
-0.000000
-0.000000
-0.000000
-0.000000
-0.000000
-0.000000
-0.000000
-0.000000
-0.000000
0.000000
-0.000000
0.000000
0.000000
-0.000000
0.000000
-0.000000
-0.000000
-0.000000
-0.000000
-0.000000
-0.000000
-0.000000
-0.000000
-0.000000
-0.000000
-0.000000
-0.000000
-0.000000
-0.000000
-0.000000
-0.000000
-0.000000
-0.000000
-0.000000
-0.000000
-0.000000
-0.000000
-0.000000
-0.000000
-0.000000
-0.000000
-0.000000
-0.000000
-0.000000
-0.000000
-0.000000
-0.000000
-0.000000
-0.000000
-0.000000
-0.000000
-0.000000
-0.000000
0.000000
-0.000000
0.000000
-0.000000
-0.000000
-0.000000
-0.000000
-0.000000
-0.000000
-0.000000
-0.000000
-0.000000
-0.000000
-0.000000
-0.000000
-0.000000
0.000000
-0.000000
-0.000000
-0.000000
-0.000000
-0.000000
-0.000000
-0.000000
-0.000000
-0.000000
-0.000000
-0.000000
-0.000000
-0.000000
-0.000000
-0.000000
-0.000000
-0.000000
-0.000000
-0.000000
-0.000000
-0.000000
-0.000000
-0.000000
-0.000000
-0.000000
-0.000000
-0.000000
-0.000000
-0.000000
-0.000000
-0.000000
-0.000000
-0.000000
-0.000000
-0.000000
-0.000000
-0.000000
-0.000000
-0.000000
-0.000000
-0.000000
-0.000000
-0.000000
-0.000000
-0.000000
-0.000000
0.000000
-0.000000
0.000000
-0.000000
-0.000000
-0.000000
-0.000000
-0.000000
-0.000000
0.000000
-0.000000
0.000000
-0.000000
-0.000000
-0.000000
-0.000000
-0.000000
-0.000000
-0.000000
-0.000000
-0.000000
-0.000000
-0.000000
-0.000000
-0.000000
-0.000000
-0.000000
-0.000000
-0.000000
-0.000000
-0.000000
-0.000000
-0.000000
0.000000
-0.000000
0.000000
-0.000000
-0.000000
-0.000000
-0.000000
0.000000
-0.000000
0.000000
-0.000000
-0.000000
-0.000000
-0.000000
-0.000000
-0.000000
-0.000000
-0.000000
-0.000000
-0.000000
-0.000000
-0.000000
-0.000000
0.000000
0.000000
-0.000000
0.000000
0.000000
-0.000000
0.000000
-0.000000
0.000000
0.000000
0.000000
-0.000000

SCALARS sigma_yy FLOAT 1
LOOKUP_TABLE default
-38592.857145
-38592.857145
-38592.857145
-38592.857145
-38334.658904
-38036.356876
-38334.658904
-38036.356876
-37668.478785
-37334.795974
-37668.478785
-37334.795974
-36961.969812
-36721.751056
-36961.969812
-36721.751056
-36418.919580
-36132.979798
-36418.919580
-36132.979798
-35804.311882
-35506.118119
-35804.311882
-35506.118119
-35156.528684
-34881.339366
-35156.528684
-34881.339366
-34578.654154
-34294.040451
-34578.654154
-34294.040451
-33967.494523
-33686.155301
-33967.494523
-33686.155301
-33346.708156
-33074.521219
-33346.708156
-33074.521219
-32746.482245
-32461.321944
-32746.482245
-32461.321944
-32127.338474
-31860.114702
-32127.338474
-31860.114702
-31514.260749
-31235.203519
-31514.260749
-31235.203519
-30912.118911
-30638.321274
-30912.118911
-30638.321274
-30300.793602
-30018.780614
-30300.793602
-30018.780614
-29679.364881
-29415.522188
-29679.364881
-29415.522188
-29099.421366
-28792.684173
-29099.421366
-28792.684173
-28496.192396
-28190.819814
-28496.192396
-28190.819814
-27869.046012
-27570.503279
-27869.046012
-27570.503279
-27271.728902
-26973.801270
-27271.728902
-26973.801270
-26639.864914
-26371.912886
-26639.864914
-26371.912886
-26051.972556
-25767.698790
-26051.972556
-25767.698790
-25420.081914
-25152.049034
-25420.081914
-25152.049034
-24809.943004
-24534.404028
-24809.943004
-24534.404028
-24223.458078
-23918.978664
-24223.458078
-23918.978664
-23619.046383
-23306.361130
-23619.046383
-23306.361130
-22991.146772
-22715.136238
-22991.146772
-22715.136238
-22387.600073
-22100.895744
-22387.600073
-22100.895744
-21771.429345
-21486.620999
-21771.429345
-21486.620999
-21168.589976
-20879.858125
-21168.589976
-20879.858125
-20544.102960
-20265.253401
-20544.102960
-20265.253401
-19953.183792
-19667.903872
-19953.183792
-19667.903872
-19335.711886
-19070.011134
-19335.711886
-19070.011134
-18714.753821
-18449.777066
-18714.753821
-18449.777066
-18110.985319
-17821.894005
-18110.985319
-17821.894005
-17511.004924
-17219.523973
-17511.004924
-17219.523973
-16917.045471
-16620.702378
-16917.045471
-16620.702378
-16307.884783
-16007.639810
-16307.884783
-16007.639810
-15676.241807
-15386.436401
-15676.241807
-15386.436401
-15082.585708
-14757.182715
-15082.585708
-14757.182715
-14483.416255
-14172.363439
-14483.416255
-14172.363439
-13871.948111
-13556.251195
-13871.948111
-13556.251195
-13261.897322
-12946.960586
-13261.897322
-12946.960586
-12640.283738
-12342.283038
-12640.283738
-12342.283038
-12036.677908
-11720.842968
-12036.677908
-11720.842968
-11410.117075
-11105.281550
-11410.117075
-11105.281550
-10823.638907
-10524.009217
-10823.638907
-10524.009217
-10219.208584
-9923.551818
-10219.208584
-9923.551818
-9578.242360
-9289.209241
-9578.242360
-9289.209241
-8974.591595
-8707.405711
-8974.591595
-8707.405711
-8365.857136
-8067.957972
-8365.857136
-8067.957972
-7764.905010
-7463.321227
-7764.905010
-7463.321227
-7156.479365
-6847.985339
-7156.479365
-6847.985339
-6547.709819
-6248.892321
-6547.709819
-6248.892321
-5943.874835
-5637.002186
-5943.874835
-5637.002186
-5322.852830
-5045.673761
-5322.852830
-5045.673761
-4735.145508
-4425.557425
-4735.145508
-4425.557425
-4112.793620
-3814.531105
-4112.793620
-3814.531105
-3483.678043
-3188.497542
-3483.678043
-3188.497542
-2878.580850
-2624.824848
-2878.580850
-2624.824848
-2299.398333
-1961.252273
-2299.398333
-1961.252273
-1667.919660
-1384.595834
-1667.919660
-1384.595834
-1054.356002
-756.090522
-1054.356002
-756.090522
-472.419129
-127.848172
-472.419129
-127.848172

SCALARS sigma_zz FLOAT 1
LOOKUP_TABLE default
0.000000
0.000000
0.000000
0.000000
0.000000
0.000000
0.000000
0.000000
0.000000
0.000000
0.000000
0.000000
0.000000
0.000000
0.000000
0.000000
0.000000
0.000000
0.000000
0.000000
0.000000
0.000000
0.000000
0.000000
0.000000
0.000000
0.000000
0.000000
0.000000
0.000000
0.000000
0.000000
0.000000
0.000000
0.000000
0.000000
0.000000
0.000000
0.000000
0.000000
0.000000
0.000000
0.000000
0.000000
0.000000
0.000000
0.000000
0.000000
0.000000
0.000000
0.000000
0.000000
0.000000
0.000000
0.000000
0.000000
0.000000
0.000000
0.000000
0.000000
0.000000
0.000000
0.000000
0.000000
0.000000
0.000000
0.000000
0.000000
0.000000
0.000000
0.000000
0.000000
0.000000
0.000000
0.000000
0.000000
0.000000
0.000000
0.000000
0.000000
0.000000
0.000000
0.000000
0.000000
0.000000
0.000000
0.000000
0.000000
0.000000
0.000000
0.000000
0.000000
0.000000
0.000000
0.000000
0.000000
0.000000
0.000000
0.000000
0.000000
0.000000
0.000000
0.000000
0.000000
0.000000
0.000000
0.000000
0.000000
0.000000
0.000000
0.000000
0.000000
0.000000
0.000000
0.000000
0.000000
0.000000
0.000000
0.000000
0.000000
0.000000
0.000000
0.000000
0.000000
0.000000
0.000000
0.000000
0.000000
0.000000
0.000000
0.000000
0.000000
0.000000
0.000000
0.000000
0.000000
0.000000
0.000000
0.000000
0.000000
0.000000
0.000000
0.000000
0.000000
0.000000
0.000000
0.000000
0.000000
0.000000
0.000000
0.000000
0.000000
0.000000
0.000000
0.000000
0.000000
0.000000
0.000000
0.000000
0.000000
0.000000
0.000000
0.000000
0.000000
0.000000
0.000000
0.000000
0.000000
0.000000
0.000000
0.000000
0.000000
0.000000
0.000000
0.000000
0.000000
0.000000
0.000000
0.000000
0.000000
0.000000
0.000000
0.000000
0.000000
0.000000
0.000000
0.000000
0.000000
0.000000
0.000000
0.000000
0.000000
0.000000
0.000000
0.000000
0.000000
0.000000
0.000000
0.000000
0.000000
0.000000
0.000000
0.000000
0.000000
0.000000
0.000000
0.000000
0.000000
0.000000
0.000000
0.000000
0.000000
0.000000
0.000000
0.000000
0.000000
0.000000
0.000000
0.000000
0.000000
0.000000
0.000000
0.000000
0.000000
0.000000
0.000000
0.000000
0.000000
0.000000
0.000000
0.000000
0.000000
0.000000
0.000000
0.000000
0.000000
0.000000
0.000000
0.000000
0.000000
0.000000
0.000000
0.000000
0.000000
0.000000
0.000000
0.000000
0.000000
0.000000
0.000000
0.000000
0.000000
0.000000
0.000000
0.000000
0.000000

SCALARS sigma_xy FLOAT 1
LOOKUP_TABLE default
0.000000
0.000000
0.000000
0.000000
0.000000
-0.000000
-0.000000
-0.000000
-0.000000
-0.000000
-0.000000
-0.000000
-0.000000
-0.000000
-0.000000
-0.000000
0.000000
0.000000
0.000000
0.000000
0.000000
0.000000
0.000000
0.000000
0.000000
0.000000
0.000000
0.000000
0.000000
-0.000000
-0.000000
-0.000000
-0.000000
-0.000000
-0.000000
-0.000000
-0.000000
0.000000
-0.000000
0.000000
0.000000
0.000000
0.000000
0.000000
0.000000
-0.000000
0.000000
-0.000000
-0.000000
-0.000000
-0.000000
-0.000000
-0.000000
0.000000
-0.000000
0.000000
0.000000
0.000000
0.000000
0.000000
0.000000
-0.000000
0.000000
0.000000
-0.000000
-0.000000
-0.000000
-0.000000
-0.000000
-0.000000
-0.000000
-0.000000
-0.000000
0.000000
-0.000000
0.000000
0.000000
0.000000
0.000000
0.000000
0.000000
0.000000
0.000000
0.000000
0.000000
-0.000000
0.000000
-0.000000
-0.000000
0.000000
-0.000000
0.000000
0.000000
0.000000
0.000000
0.000000
0.000000
-0.000000
0.000000
-0.000000
-0.000000
-0.000000
-0.000000
-0.000000
-0.000000
0.000000
-0.000000
0.000000
0.000000
0.000000
0.000000
0.000000
0.000000
0.000000
0.000000
0.000000
-0.000000
-0.000000
-0.000000
-0.000000
-0.000000
0.000000
-0.000000
0.000000
0.000000
0.000000
0.000000
0.000000
-0.000000
-0.000000
-0.000000
-0.000000
-0.000000
-0.000000
-0.000000
-0.000000
0.000000
0.000000
0.000000
0.000000
0.000000
0.000000
0.000000
0.000000
-0.000000
-0.000000
-0.000000
-0.000000
0.000000
0.000000
0.000000
0.000000
0.000000
0.000000
0.000000
0.000000
0.000000
-0.000000
0.000000
-0.000000
-0.000000
-0.000000
0.000000
-0.000000
-0.000000
-0.000000
-0.000000
-0.000000
-0.000000
0.000000
-0.000000
0.000000
-0.000000
-0.000000
-0.000000
-0.000000
0.000000
0.000000
0.000000
0.000000
0.000000
-0.000000
0.000000
-0.000000
0.000000
-0.000000
0.000000
-0.000000
0.000000
-0.000000
0.000000
-0.000000
0.000000
-0.000000
0.000000
-0.000000
0.000000
0.000000
0.000000
0.000000
0.000000
-0.000000
0.000000
-0.000000
0.000000
-0.000000
0.000000
-0.000000
0.000000
-0.000000
0.000000
-0.000000
-0.000000
-0.000000
-0.000000
-0.000000
0.000000
0.000000
0.000000
0.000000
0.000000
0.000000
0.000000
0.000000
-0.000000
-0.000000
-0.000000
-0.000000
0.000000
0.000000
0.000000
0.000000
0.000000
0.000000
-0.000000
0.000000
-0.000000
-0.000000
-0.000000
-0.000000
0.000000
0.000000
0.000000
0.000000
0.000000
0.000000
-0.000000
0.000000
0.000000
0.000000
0.000000
0.000000
0.000000
0.000000
0.000000
-0.000000

SCALARS sigma_yz FLOAT 1
LOOKUP_TABLE default
0.000000
0.000000
0.000000
0.000000
0.000000
0.000000
0.000000
0.000000
0.000000
0.000000
0.000000
0.000000
0.000000
0.000000
0.000000
0.000000
0.000000
0.000000
0.000000
0.000000
0.000000
0.000000
0.000000
0.000000
0.000000
0.000000
0.000000
0.000000
0.000000
0.000000
0.000000
0.000000
0.000000
0.000000
0.000000
0.000000
0.000000
0.000000
0.000000
0.000000
0.000000
0.000000
0.000000
0.000000
0.000000
0.000000
0.000000
0.000000
0.000000
0.000000
0.000000
0.000000
0.000000
0.000000
0.000000
0.000000
0.000000
0.000000
0.000000
0.000000
0.000000
0.000000
0.000000
0.000000
0.000000
0.000000
0.000000
0.000000
0.000000
0.000000
0.000000
0.000000
0.000000
0.000000
0.000000
0.000000
0.000000
0.000000
0.000000
0.000000
0.000000
0.000000
0.000000
0.000000
0.000000
0.000000
0.000000
0.000000
0.000000
0.000000
0.000000
0.000000
0.000000
0.000000
0.000000
0.000000
0.000000
0.000000
0.000000
0.000000
0.000000
0.000000
0.000000
0.000000
0.000000
0.000000
0.000000
0.000000
0.000000
0.000000
0.000000
0.000000
0.000000
0.000000
0.000000
0.000000
0.000000
0.000000
0.000000
0.000000
0.000000
0.000000
0.000000
0.000000
0.000000
0.000000
0.000000
0.000000
0.000000
0.000000
0.000000
0.000000
0.000000
0.000000
0.000000
0.000000
0.000000
0.000000
0.000000
0.000000
0.000000
0.000000
0.000000
0.000000
0.000000
0.000000
0.000000
0.000000
0.000000
0.000000
0.000000
0.000000
0.000000
0.000000
0.000000
0.000000
0.000000
0.000000
0.000000
0.000000
0.000000
0.000000
0.000000
0.000000
0.000000
0.000000
0.000000
0.000000
0.000000
0.000000
0.000000
0.000000
0.000000
0.000000
0.000000
0.000000
0.000000
0.000000
0.000000
0.000000
0.000000
0.000000
0.000000
0.000000
0.000000
0.000000
0.000000
0.000000
0.000000
0.000000
0.000000
0.000000
0.000000
0.000000
0.000000
0.000000
0.000000
0.000000
0.000000
0.000000
0.000000
0.000000
0.000000
0.000000
0.000000
0.000000
0.000000
0.000000
0.000000
0.000000
0.000000
0.000000
0.000000
0.000000
0.000000
0.000000
0.000000
0.000000
0.000000
0.000000
0.000000
0.000000
0.000000
0.000000
0.000000
0.000000
0.000000
0.000000
0.000000
0.000000
0.000000
0.000000
0.000000
0.000000
0.000000
0.000000
0.000000
0.000000
0.000000
0.000000
0.000000
0.000000
0.000000
0.000000
0.000000
0.000000
0.000000
0.000000
0.000000
0.000000
0.000000
0.000000
0.000000
0.000000
0.000000
0.000000

SCALARS sigma_zx FLOAT 1
LOOKUP_TABLE default
0.000000
0.000000
0.000000
0.000000
0.000000
0.000000
0.000000
0.000000
0.000000
0.000000
0.000000
0.000000
0.000000
0.000000
0.000000
0.000000
0.000000
0.000000
0.000000
0.000000
0.000000
0.000000
0.000000
0.000000
0.000000
0.000000
0.000000
0.000000
0.000000
0.000000
0.000000
0.000000
0.000000
0.000000
0.000000
0.000000
0.000000
0.000000
0.000000
0.000000
0.000000
0.000000
0.000000
0.000000
0.000000
0.000000
0.000000
0.000000
0.000000
0.000000
0.000000
0.000000
0.000000
0.000000
0.000000
0.000000
0.000000
0.000000
0.000000
0.000000
0.000000
0.000000
0.000000
0.000000
0.000000
0.000000
0.000000
0.000000
0.000000
0.000000
0.000000
0.000000
0.000000
0.000000
0.000000
0.000000
0.000000
0.000000
0.000000
0.000000
0.000000
0.000000
0.000000
0.000000
0.000000
0.000000
0.000000
0.000000
0.000000
0.000000
0.000000
0.000000
0.000000
0.000000
0.000000
0.000000
0.000000
0.000000
0.000000
0.000000
0.000000
0.000000
0.000000
0.000000
0.000000
0.000000
0.000000
0.000000
0.000000
0.000000
0.000000
0.000000
0.000000
0.000000
0.000000
0.000000
0.000000
0.000000
0.000000
0.000000
0.000000
0.000000
0.000000
0.000000
0.000000
0.000000
0.000000
0.000000
0.000000
0.000000
0.000000
0.000000
0.000000
0.000000
0.000000
0.000000
0.000000
0.000000
0.000000
0.000000
0.000000
0.000000
0.000000
0.000000
0.000000
0.000000
0.000000
0.000000
0.000000
0.000000
0.000000
0.000000
0.000000
0.000000
0.000000
0.000000
0.000000
0.000000
0.000000
0.000000
0.000000
0.000000
0.000000
0.000000
0.000000
0.000000
0.000000
0.000000
0.000000
0.000000
0.000000
0.000000
0.000000
0.000000
0.000000
0.000000
0.000000
0.000000
0.000000
0.000000
0.000000
0.000000
0.000000
0.000000
0.000000
0.000000
0.000000
0.000000
0.000000
0.000000
0.000000
0.000000
0.000000
0.000000
0.000000
0.000000
0.000000
0.000000
0.000000
0.000000
0.000000
0.000000
0.000000
0.000000
0.000000
0.000000
0.000000
0.000000
0.000000
0.000000
0.000000
0.000000
0.000000
0.000000
0.000000
0.000000
0.000000
0.000000
0.000000
0.000000
0.000000
0.000000
0.000000
0.000000
0.000000
0.000000
0.000000
0.000000
0.000000
0.000000
0.000000
0.000000
0.000000
0.000000
0.000000
0.000000
0.000000
0.000000
0.000000
0.000000
0.000000
0.000000
0.000000
0.000000
0.000000
0.000000
0.000000
0.000000
0.000000
0.000000
0.000000
0.000000
0.000000
0.000000
0.000000
0.000000

SCALARS u_x FLOAT 1
LOOKUP_TABLE default
0.000000
0.000000
0.000000
0.000000
0.000000
0.000000
0.000000
0.000000
0.000000
0.000000
0.000000
0.000000
0.000000
0.000000
0.000000
0.000000
0.000000
0.000000
0.000000
0.000000
0.000000
0.000000
0.000000
0.000000
0.000000
0.000000
0.000000
0.000000
0.000000
0.000000
0.000000
0.000000
0.000000
0.000000
0.000000
0.000000
0.000000
0.000000
0.000000
0.000000
0.000000
0.000000
0.000000
0.000000
0.000000
0.000000
0.000000
0.000000
0.000000
0.000000
0.000000
0.000000
0.000000
0.000000
0.000000
0.000000
0.000000
0.000000
0.000000
0.000000
0.000000
0.000000
0.000000
0.000000
0.000000
0.000000
0.000000
0.000000
0.000000
0.000000
0.000000
0.000000
0.000000
0.000000
0.000000
0.000000
0.000000
0.000000
0.000000
0.000000
0.000000
0.000000
0.000000
0.000000
0.000000
0.000000
0.000000
0.000000
0.000000
0.000000
0.000000
0.000000
0.000000
0.000000
0.000000
0.000000
0.000000
0.000000
0.000000
0.000000
0.000000
0.000000
0.000000
0.000000
0.000000
0.000000
0.000000
0.000000
0.000000
0.000000
0.000000
0.000000
0.000000
0.000000
0.000000
0.000000
0.000000
0.000000
0.000000
0.000000
0.000000
0.000000
0.000000
0.000000
0.000000
0.000000
0.000000
0.000000
0.000000
0.000000
0.000000
0.000000
0.000000
0.000000
0.000000
0.000000
0.000000
0.000000
0.000000
0.000000
0.000000
0.000000
0.000000
0.000000
0.000000
0.000000
0.000000
0.000000
0.000000
0.000000
0.000000
0.000000
0.000000
0.000000
0.000000
0.000000
0.000000
0.000000
0.000000
0.000000
0.000000
0.000000
0.000000
0.000000
0.000000
0.000000
0.000000
0.000000
0.000000
0.000000
0.000000
0.000000
0.000000
0.000000
0.000000
0.000000
0.000000
0.000000
0.000000
0.000000
0.000000
0.000000
0.000000
0.000000
0.000000
0.000000
0.000000
0.000000
0.000000
0.000000
0.000000
0.000000
0.000000
0.000000
0.000000
0.000000
0.000000
0.000000
0.000000
0.000000
0.000000
0.000000
0.000000
0.000000
0.000000
0.000000
0.000000
0.000000
0.000000
0.000000
0.000000
0.000000
0.000000
0.000000
0.000000
0.000000
0.000000
0.000000
0.000000
0.000000
0.000000
0.000000
0.000000
0.000000
0.000000
0.000000
0.000000
0.000000
0.000000
0.000000
0.000000
0.000000
0.000000
0.000000
0.000000
0.000000
0.000000
0.000000
0.000000
0.000000
0.000000
0.000000
0.000000
0.000000
0.000000
0.000000
0.000000
0.000000
0.000000
0.000000
0.000000
0.000000
0.000000
0.000000
0.000000
0.000000

SCALARS u_y FLOAT 1
LOOKUP_TABLE default
-0.135458
-0.406375
-0.135458
-0.406375
-0.677127
-0.947335
-0.677127
-0.947335
-1.217010
-1.486047
-1.217010
-1.486047
-1.754472
-2.022346
-1.754472
-2.022346
-2.289748
-2.556605
-2.289748
-2.556605
-2.822906
-3.088614
-2.822906
-3.088614
-3.353723
-3.618220
-3.353723
-3.618220
-3.882188
-4.145572
-3.882188
-4.145572
-4.408371
-4.670557
-4.408371
-4.670557
-4.932114
-5.193046
-4.932114
-5.193046
-5.453350
-5.713031
-5.453350
-5.713031
-5.972063
-6.230454
-5.972063
-6.230454
-6.488159
-6.745188
-6.488159
-6.745188
-7.001544
-7.257271
-7.001544
-7.257271
-7.512268
-7.766551
-7.512268
-7.766551
-8.020126
-8.272984
-8.020126
-8.272984
-8.525133
-8.776513
-8.525133
-8.776513
-9.027224
-9.277097
-9.027224
-9.277097
-9.526214
-9.774524
-9.526214
-9.774524
-10.022090
-10.268849
-10.022090
-10.268849
-10.514747
-10.759900
-10.514747
-10.759900
-11.004138
-11.247634
-11.004138
-11.247634
-11.490170
-11.731878
-11.490170
-11.731878
-11.972656
-12.212533
-11.972656
-12.212533
-12.451542
-12.689568
-12.451542
-12.689568
-12.926712
-13.162887
-12.926712
-13.162887
-13.398002
-13.632261
-13.398002
-13.632261
-13.865398
-14.097584
-13.865398
-14.097584
-14.328698
-14.558766
-14.328698
-14.558766
-14.787766
-15.015703
-14.787766
-15.015703
-15.242469
-15.468063
-15.242469
-15.468063
-15.692630
-15.915992
-15.692630
-15.915992
-16.138106
-16.359135
-16.138106
-16.359135
-16.578786
-16.797256
-16.578786
-16.797256
-17.014474
-17.230205
-17.014474
-17.230205
-17.444743
-17.657850
-17.444743
-17.657850
-17.869680
-18.080096
-17.869680
-18.080096
-18.289081
-18.496538
-18.289081
-18.496538
-18.702467
-18.906827
-18.702467
-18.906827
-19.109688
-19.310822
-19.109688
-19.310822
-19.510410
-19.708293
-19.510410
-19.708293
-19.904561
-20.099024
-19.904561
-20.099024
-20.291598
-20.482505
-20.291598
-20.482505
-20.671315
-20.858311
-20.671315
-20.858311
-21.043294
-21.226296
-21.043294
-21.226296
-21.406973
-21.585572
-21.406973
-21.585572
-21.762048
-21.936367
-21.762048
-21.936367
-22.108328
-22.278083
-22.108328
-22.278083
-22.445096
-22.609526
-22.445096
-22.609526
-22.771262
-22.930598
-22.771262
-22.930598
-23.087091
-23.240452
-23.087091
-23.240452
-23.391017
-23.538397
-23.391017
-23.538397
-23.682709
-23.823549
-23.682709
-23.823549
-23.961208
-24.095252
-23.961208
-24.095252
-24.225530
-24.352146
-24.225530
-24.352146
-24.474532
-24.593080
-24.474532
-24.593080
-24.707262
-24.816888
-24.707262
-24.816888
-24.921683
-25.021417
-24.921683
-25.021417
-25.116013
-25.204605
-25.116013
-25.204605
-25.287679
-25.364755
-25.287679
-25.364755
-25.436364
-25.499705
-25.436364
-25.499705
-25.556092
-25.604648
-25.556092
-25.604648
-25.645465
-25.676234
-25.645465
-25.676234
-25.698587
-25.709757
-25.698587
-25.709757

