# vtk DataFile Version 2.0
MATLAB generated vtk file, WMC
ASCII
DATASET UNSTRUCTURED_GRID
POINTS 128 double
0.781250 0.781250 0.355049 
0.781250 0.781250 1.065146 
0.781250 2.343750 0.355049 
0.781250 2.343750 1.065146 
2.343750 0.781250 0.355049 
2.343750 0.781250 1.065146 
2.343750 2.343750 0.355049 
2.343750 2.343750 1.065146 
0.781250 0.781250 1.779310 
0.781250 0.781250 2.507226 
0.781250 2.343750 1.779310 
0.781250 2.343750 2.507226 
2.343750 0.781250 1.779310 
2.343750 0.781250 2.507226 
2.343750 2.343750 1.779310 
2.343750 2.343750 2.507226 
0.781250 0.781250 3.248473 
0.781250 0.781250 4.001433 
0.781250 2.343750 3.248473 
0.781250 2.343750 4.001433 
2.343750 0.781250 3.248473 
2.343750 0.781250 4.001433 
2.343750 2.343750 3.248473 
2.343750 2.343750 4.001433 
0.781250 0.781250 4.764503 
0.781250 0.781250 5.540728 
0.781250 2.343750 4.764503 
0.781250 2.343750 5.540728 
2.343750 0.781250 4.764503 
2.343750 0.781250 5.540728 
2.343750 2.343750 4.764503 
2.343750 2.343750 5.540728 
0.781250 0.781250 6.331244 
0.781250 0.781250 7.135462 
0.781250 2.343750 6.331244 
0.781250 2.343750 7.135462 
2.343750 0.781250 6.331244 
2.343750 0.781250 7.135462 
2.343750 2.343750 6.331244 
2.343750 2.343750 7.135462 
0.781250 0.781250 7.952394 
0.781250 0.781250 8.785212 
0.781250 2.343750 7.952394 
0.781250 2.343750 8.785212 
2.343750 0.781250 7.952394 
2.343750 0.781250 8.785212 
2.343750 2.343750 7.952394 
2.343750 2.343750 8.785212 
0.781250 0.781250 9.634268 
0.781250 0.781250 10.498117 
0.781250 2.343750 9.634268 
0.781250 2.343750 10.498117 
2.343750 0.781250 9.634268 
2.343750 0.781250 10.498117 
2.343750 2.343750 9.634268 
2.343750 2.343750 10.498117 
0.781250 0.781250 11.378902 
0.781250 0.781250 12.279713 
0.781250 2.343750 11.378902 
0.781250 2.343750 12.279713 
2.343750 0.781250 11.378902 
2.343750 0.781250 12.279713 
2.343750 2.343750 11.378902 
2.343750 2.343750 12.279713 
0.781250 0.781250 13.199623 
0.781250 0.781250 14.139444 
0.781250 2.343750 13.199623 
0.781250 2.343750 14.139444 
2.343750 0.781250 13.199623 
2.343750 0.781250 14.139444 
2.343750 2.343750 13.199623 
2.343750 2.343750 14.139444 
0.781250 0.781250 15.102144 
0.781250 0.781250 16.088358 
0.781250 2.343750 15.102144 
0.781250 2.343750 16.088358 
2.343750 0.781250 15.102144 
2.343750 0.781250 16.088358 
2.343750 2.343750 15.102144 
2.343750 2.343750 16.088358 
0.781250 0.781250 17.097866 
0.781250 0.781250 18.134274 
0.781250 2.343750 17.097866 
0.781250 2.343750 18.134274 
2.343750 0.781250 17.097866 
2.343750 0.781250 18.134274 
2.343750 2.343750 17.097866 
2.343750 2.343750 18.134274 
0.781250 0.781250 19.199736 
0.781250 0.781250 20.293999 
0.781250 2.343750 19.199736 
0.781250 2.343750 20.293999 
2.343750 0.781250 19.199736 
2.343750 0.781250 20.293999 
2.343750 2.343750 19.199736 
2.343750 2.343750 20.293999 
0.781250 0.781250 21.422563 
0.781250 0.781250 22.589084 
0.781250 2.343750 21.422563 
0.781250 2.343750 22.589084 
2.343750 0.781250 21.422563 
2.343750 0.781250 22.589084 
2.343750 2.343750 21.422563 
2.343750 2.343750 22.589084 
0.781250 0.781250 23.795113 
0.781250 0.781250 25.043362 
0.781250 2.343750 23.795113 
0.781250 2.343750 25.043362 
2.343750 0.781250 23.795113 
2.343750 0.781250 25.043362 
2.343750 2.343750 23.795113 
2.343750 2.343750 25.043362 
0.781250 0.781250 26.334213 
0.781250 0.781250 27.689170 
0.781250 2.343750 26.334213 
0.781250 2.343750 27.689170 
2.343750 0.781250 26.334213 
2.343750 0.781250 27.689170 
2.343750 2.343750 26.334213 
2.343750 2.343750 27.689170 
0.781250 0.781250 29.097834 
0.781250 0.781250 30.555989 
0.781250 2.343750 29.097834 
0.781250 2.343750 30.555989 
2.343750 0.781250 29.097834 
2.343750 0.781250 30.555989 
2.343750 2.343750 29.097834 
2.343750 2.343750 30.555989 

POINT_DATA 128
SCALARS sigma_xx FLOAT 1
LOOKUP_TABLE default
-0.000000
-0.000000
0.000000
-0.000000
0.000000
0.000000
0.000000
-0.000000
-0.000000
-0.000000
0.000000
-0.000000
-0.000000
0.000000
-0.000000
-0.000000
-0.000000
0.000000
-0.000000
0.000000
0.000000
-0.000000
0.000000
0.000000
-0.000000
-0.000000
0.000000
0.000000
0.000000
0.000000
-0.000000
0.000000
0.000000
-0.000000
0.000000
0.000000
-0.000000
-0.000000
-0.000000
0.000000
-0.000000
-0.000000
-0.000000
-0.000000
-0.000000
-0.000000
-0.000000
-0.000000
0.000000
-0.000000
-0.000000
-0.000000
0.000000
-0.000000
-0.000000
-0.000000
-0.000000
-0.000000
-0.000000
-0.000000
-0.000000
-0.000000
0.000000
-0.000000
0.000000
0.000000
-0.000000
-0.000000
-0.000000
-0.000000
-0.000000
-0.000000
-0.000000
0.000000
-0.000000
-0.000000
-0.000000
0.000000
0.000000
0.000000
-0.000000
-0.000000
-0.000000
0.000000
-0.000000
-0.000000
0.000000
0.000000
0.000000
0.000000
0.000000
0.000000
0.000000
0.000000
0.000000
0.000000
-0.000000
0.000000
-0.000000
0.000000
0.000000
-0.000000
0.000000
0.000000
-0.000000
-0.000000
0.000000
-0.000000
-0.000000
0.000000
0.000000
-0.000000
0.000000
-0.000000
-0.000000
0.000000
-0.000000
0.000000
0.000000
-0.000000
-0.000000
-0.000000
-0.000000
-0.000000
0.000000
0.000000
-0.000000
0.000000

SCALARS sigma_yy FLOAT 1
LOOKUP_TABLE default
0.000000
-0.000000
0.000000
-0.000000
-0.000000
0.000000
0.000000
0.000000
0.000000
0.000000
0.000000
0.000000
-0.000000
0.000000
0.000000
-0.000000
-0.000000
0.000000
-0.000000
0.000000
0.000000
-0.000000
-0.000000
-0.000000
-0.000000
-0.000000
0.000000
-0.000000
-0.000000
0.000000
0.000000
0.000000
0.000000
-0.000000
0.000000
-0.000000
-0.000000
-0.000000
-0.000000
-0.000000
-0.000000
-0.000000
-0.000000
0.000000
-0.000000
-0.000000
-0.000000
-0.000000
0.000000
-0.000000
0.000000
-0.000000
0.000000
-0.000000
-0.000000
0.000000
0.000000
0.000000
-0.000000
-0.000000
-0.000000
-0.000000
0.000000
0.000000
0.000000
-0.000000
0.000000
-0.000000
-0.000000
-0.000000
0.000000
-0.000000
-0.000000
0.000000
-0.000000
-0.000000
-0.000000
0.000000
0.000000
0.000000
0.000000
-0.000000
-0.000000
-0.000000
-0.000000
-0.000000
0.000000
0.000000
-0.000000
0.000000
-0.000000
-0.000000
0.000000
-0.000000
-0.000000
-0.000000
-0.000000
-0.000000
-0.000000
0.000000
0.000000
-0.000000
0.000000
0.000000
-0.000000
-0.000000
0.000000
0.000000
0.000000
0.000000
0.000000
0.000000
0.000000
-0.000000
0.000000
0.000000
0.000000
0.000000
0.000000
-0.000000
-0.000000
-0.000000
0.000000
-0.000000
0.000000
-0.000000
0.000000
0.000000

SCALARS sigma_zz FLOAT 1
LOOKUP_TABLE default
-17353.248474
-17353.248474
-17353.248474
-17353.248474
-17353.248474
-17353.248474
-17353.248474
-17353.248474
-16765.719261
-16081.964466
-16765.719261
-16081.964466
-16765.719261
-16081.964466
-16765.719261
-16081.964466
-15364.805847
-14958.002968
-15364.805847
-14958.002968
-15364.805847
-14958.002968
-15364.805847
-14958.002968
-14365.779824
-13798.862989
-14365.779824
-13798.862989
-14365.779824
-13798.862989
-14365.779824
-13798.862989
-13144.480484
-12690.221831
-13144.480484
-12690.221831
-13144.480484
-12690.221831
-13144.480484
-12690.221831
-12087.927028
-11523.492041
-12087.927028
-11523.492041
-12087.927028
-11523.492041
-12087.927028
-11523.492041
-10964.213880
-10465.940985
-10964.213880
-10465.940985
-10964.213880
-10465.940985
-10964.213880
-10465.940985
-9850.402131
-9285.869640
-9850.402131
-9285.869640
-9850.402131
-9285.869640
-9850.402131
-9285.869640
-8709.335310
-8188.521496
-8709.335310
-8188.521496
-8709.335310
-8188.521496
-8709.335310
-8188.521496
-7543.702518
-7044.140811
-7543.702518
-7044.140811
-7543.702518
-7044.140811
-7543.702518
-7044.140811
-6474.118846
-5896.084635
-6474.118846
-5896.084635
-6474.118846
-5896.084635
-6474.118846
-5896.084635
-5346.387716
-4818.192192
-5346.387716
-4818.192192
-5346.387716
-4818.192192
-5346.387716
-4818.192192
-4180.439399
-3659.563886
-4180.439399
-3659.563886
-4180.439399
-3659.563886
-4180.439399
-3659.563886
-3058.370610
-2590.924231
-3058.370610
-2590.924231
-3058.370610
-2590.924231
-3058.370610
-2590.924231
-1979.370683
-1377.859105
-1979.370683
-1377.859105
-1979.370683
-1377.859105
-1979.370683
-1377.859105
-966.585507
-109.051010
-966.585507
-109.051010
-966.585507
-109.051010
-966.585507
-109.051010

SCALARS sigma_xy FLOAT 1
LOOKUP_TABLE default
0.000000
-0.000000
-0.000000
-0.000000
0.000000
0.000000
0.000000
0.000000
0.000000
0.000000
0.000000
0.000000
-0.000000
-0.000000
-0.000000
0.000000
0.000000
-0.000000
0.000000
-0.000000
-0.000000
0.000000
-0.000000
0.000000
-0.000000
0.000000
-0.000000
-0.000000
0.000000
-0.000000
-0.000000
0.000000
-0.000000
-0.000000
-0.000000
-0.000000
-0.000000
0.000000
0.000000
0.000000
0.000000
-0.000000
0.000000
-0.000000
0.000000
-0.000000
-0.000000
-0.000000
0.000000
0.000000
0.000000
0.000000
-0.000000
-0.000000
-0.000000
-0.000000
0.000000
-0.000000
-0.000000
0.000000
0.000000
0.000000
0.000000
-0.000000
-0.000000
0.000000
0.000000
-0.000000
-0.000000
0.000000
0.000000
-0.000000
0.000000
0.000000
-0.000000
-0.000000
-0.000000
0.000000
0.000000
0.000000
0.000000
-0.000000
-0.000000
0.000000
-0.000000
-0.000000
-0.000000
-0.000000
0.000000
-0.000000
0.000000
-0.000000
-0.000000
-0.000000
-0.000000
-0.000000
0.000000
0.000000
0.000000
0.000000
-0.000000
0.000000
-0.000000
-0.000000
0.000000
0.000000
0.000000
-0.000000
-0.000000
0.000000
-0.000000
0.000000
0.000000
0.000000
-0.000000
0.000000
-0.000000
-0.000000
0.000000
-0.000000
0.000000
0.000000
0.000000
0.000000
-0.000000
0.000000
0.000000
-0.000000

SCALARS sigma_yz FLOAT 1
LOOKUP_TABLE default
0.000000
0.000000
0.000000
-0.000000
0.000000
-0.000000
0.000000
-0.000000
-0.000000
0.000000
-0.000000
-0.000000
0.000000
-0.000000
-0.000000
-0.000000
-0.000000
0.000000
-0.000000
0.000000
0.000000
-0.000000
0.000000
0.000000
-0.000000
-0.000000
0.000000
0.000000
-0.000000
-0.000000
0.000000
-0.000000
-0.000000
0.000000
0.000000
0.000000
-0.000000
-0.000000
-0.000000
0.000000
-0.000000
0.000000
0.000000
0.000000
-0.000000
-0.000000
0.000000
0.000000
-0.000000
0.000000
-0.000000
0.000000
-0.000000
-0.000000
0.000000
0.000000
-0.000000
-0.000000
0.000000
0.000000
0.000000
0.000000
-0.000000
0.000000
-0.000000
-0.000000
0.000000
0.000000
-0.000000
-0.000000
0.000000
0.000000
-0.000000
-0.000000
0.000000
0.000000
-0.000000
-0.000000
0.000000
0.000000
-0.000000
-0.000000
-0.000000
-0.000000
-0.000000
-0.000000
-0.000000
-0.000000
-0.000000
-0.000000
0.000000
-0.000000
-0.000000
-0.000000
-0.000000
0.000000
0.000000
-0.000000
0.000000
0.000000
-0.000000
-0.000000
0.000000
0.000000
-0.000000
0.000000
0.000000
0.000000
-0.000000
-0.000000
0.000000
0.000000
-0.000000
-0.000000
0.000000
0.000000
-0.000000
-0.000000
0.000000
0.000000
-0.000000
-0.000000
-0.000000
0.000000
-0.000000
-0.000000
0.000000
0.000000

SCALARS sigma_zx FLOAT 1
LOOKUP_TABLE default
0.000000
0.000000
0.000000
0.000000
0.000000
-0.000000
0.000000
0.000000
-0.000000
0.000000
0.000000
0.000000
-0.000000
-0.000000
0.000000
0.000000
-0.000000
0.000000
0.000000
0.000000
-0.000000
-0.000000
0.000000
0.000000
-0.000000
-0.000000
-0.000000
-0.000000
-0.000000
-0.000000
0.000000
0.000000
-0.000000
0.000000
0.000000
0.000000
0.000000
0.000000
0.000000
0.000000
0.000000
-0.000000
0.000000
-0.000000
0.000000
-0.000000
0.000000
-0.000000
-0.000000
-0.000000
-0.000000
-0.000000
0.000000
-0.000000
-0.000000
0.000000
-0.000000
0.000000
0.000000
0.000000
0.000000
0.000000
0.000000
0.000000
-0.000000
0.000000
0.000000
0.000000
0.000000
0.000000
0.000000
0.000000
-0.000000
-0.000000
0.000000
0.000000
0.000000
-0.000000
0.000000
0.000000
-0.000000
0.000000
-0.000000
-0.000000
-0.000000
0.000000
-0.000000
-0.000000
-0.000000
-0.000000
-0.000000
-0.000000
0.000000
0.000000
-0.000000
0.000000
-0.000000
-0.000000
-0.000000
-0.000000
0.000000
-0.000000
0.000000
0.000000
-0.000000
0.000000
0.000000
-0.000000
0.000000
0.000000
0.000000
0.000000
-0.000000
0.000000
-0.000000
-0.000000
0.000000
0.000000
0.000000
0.000000
-0.000000
-0.000000
-0.000000
-0.000000
0.000000
0.000000
0.000000
0.000000

SCALARS u_x FLOAT 1
LOOKUP_TABLE default
0.000000
0.000000
0.000000
0.000000
0.000000
0.000000
0.000000
0.000000
0.000000
0.000000
0.000000
0.000000
0.000000
0.000000
0.000000
0.000000
0.000000
0.000000
0.000000
0.000000
0.000000
0.000000
0.000000
0.000000
0.000000
0.000000
0.000000
0.000000
0.000000
0.000000
0.000000
0.000000
0.000000
0.000000
0.000000
0.000000
0.000000
0.000000
0.000000
0.000000
0.000000
0.000000
0.000000
0.000000
0.000000
0.000000
0.000000
0.000000
0.000000
0.000000
0.000000
0.000000
0.000000
0.000000
0.000000
0.000000
0.000000
0.000000
0.000000
0.000000
0.000000
0.000000
0.000000
0.000000
0.000000
0.000000
0.000000
0.000000
0.000000
0.000000
0.000000
0.000000
0.000000
0.000000
0.000000
0.000000
0.000000
0.000000
0.000000
0.000000
0.000000
0.000000
0.000000
0.000000
0.000000
0.000000
0.000000
0.000000
0.000000
0.000000
0.000000
0.000000
0.000000
0.000000
0.000000
0.000000
0.000000
0.000000
0.000000
0.000000
0.000000
0.000000
0.000000
0.000000
0.000000
0.000000
0.000000
0.000000
0.000000
0.000000
0.000000
0.000000
0.000000
0.000000
0.000000
0.000000
0.000000
0.000000
0.000000
0.000000
0.000000
0.000000
0.000000
0.000000
0.000000
0.000000
0.000000
0.000000

SCALARS u_y FLOAT 1
LOOKUP_TABLE default
0.000000
0.000000
0.000000
0.000000
0.000000
0.000000
0.000000
0.000000
0.000000
0.000000
0.000000
0.000000
0.000000
0.000000
0.000000
0.000000
0.000000
0.000000
0.000000
0.000000
0.000000
0.000000
0.000000
0.000000
0.000000
0.000000
0.000000
0.000000
0.000000
0.000000
0.000000
0.000000
0.000000
0.000000
0.000000
0.000000
0.000000
0.000000
0.000000
0.000000
0.000000
0.000000
0.000000
0.000000
0.000000
0.000000
0.000000
0.000000
0.000000
0.000000
0.000000
0.000000
0.000000
0.000000
0.000000
0.000000
0.000000
0.000000
0.000000
0.000000
0.000000
0.000000
0.000000
0.000000
0.000000
0.000000
0.000000
0.000000
0.000000
0.000000
0.000000
0.000000
0.000000
0.000000
0.000000
0.000000
0.000000
0.000000
0.000000
0.000000
0.000000
0.000000
0.000000
0.000000
0.000000
0.000000
0.000000
0.000000
0.000000
0.000000
0.000000
0.000000
0.000000
0.000000
0.000000
0.000000
0.000000
0.000000
0.000000
0.000000
0.000000
0.000000
0.000000
0.000000
0.000000
0.000000
0.000000
0.000000
0.000000
0.000000
0.000000
0.000000
0.000000
0.000000
0.000000
0.000000
0.000000
0.000000
0.000000
0.000000
0.000000
0.000000
0.000000
0.000000
0.000000
0.000000
0.000000
0.000000

SCALARS u_z FLOAT 1
LOOKUP_TABLE default
-0.426201
-1.278604
-0.426201
-1.278604
-0.426201
-1.278604
-0.426201
-1.278604
-2.126940
-2.961524
-2.126940
-2.961524
-2.126940
-2.961524
-2.126940
-2.961524
-3.782777
-4.592317
-3.782777
-4.592317
-3.782777
-4.592317
-3.782777
-4.592317
-5.391747
-6.178022
-5.391747
-6.178022
-5.391747
-6.178022
-5.391747
-6.178022
-6.950006
-7.708288
-6.950006
-7.708288
-6.950006
-7.708288
-6.950006
-7.708288
-8.453856
-9.183538
-8.453856
-9.183538
-8.453856
-9.183538
-8.453856
-9.183538
-9.896982
-10.595633
-9.896982
-10.595633
-9.896982
-10.595633
-9.896982
-10.595633
-11.277348
-11.939037
-11.277348
-11.939037
-11.277348
-11.939037
-11.277348
-11.939037
-12.581627
-13.204306
-12.581627
-13.204306
-12.581627
-13.204306
-12.581627
-13.204306
-13.804106
-14.380392
-13.804106
-14.380392
-13.804106
-14.380392
-13.804106
-14.380392
-14.933384
-15.459476
-14.933384
-15.459476
-14.933384
-15.459476
-14.933384
-15.459476
-15.956514
-16.424751
-15.956514
-16.424751
-15.956514
-16.424751
-15.956514
-16.424751
-16.858687
-17.254666
-16.858687
-17.254666
-16.858687
-17.254666
-16.858687
-17.254666
-17.611137
-17.925388
-17.611137
-17.925388
-17.611137
-17.925388
-17.611137
-17.925388
-18.197037
-18.404580
-18.197037
-18.404580
-18.197037
-18.404580
-18.197037
-18.404580
-18.558416
-18.662761
-18.558416
-18.662761
-18.558416
-18.662761
-18.558416
-18.662761

