# vtk DataFile Version 2.0
MATLAB generated vtk file, WMC
ASCII
DATASET UNSTRUCTURED_GRID
POINTS 128 double
0.781250 0.781250 0.265855 
0.781250 0.781250 0.797566 
0.781250 2.343750 0.265855 
0.781250 2.343750 0.797566 
2.343750 0.781250 0.265855 
2.343750 0.781250 0.797566 
2.343750 2.343750 0.265855 
2.343750 2.343750 0.797566 
0.781250 0.781250 1.332321 
0.781250 0.781250 1.877374 
0.781250 2.343750 1.332321 
0.781250 2.343750 1.877374 
2.343750 0.781250 1.332321 
2.343750 0.781250 1.877374 
2.343750 2.343750 1.332321 
2.343750 2.343750 1.877374 
0.781250 0.781250 2.432836 
0.781250 0.781250 3.001251 
0.781250 2.343750 2.432836 
0.781250 2.343750 3.001251 
2.343750 0.781250 2.432836 
2.343750 0.781250 3.001251 
2.343750 2.343750 2.432836 
2.343750 2.343750 3.001251 
0.781250 0.781250 3.581126 
0.781250 0.781250 4.171289 
0.781250 2.343750 3.581126 
0.781250 2.343750 4.171289 
2.343750 0.781250 3.581126 
2.343750 0.781250 4.171289 
2.343750 2.343750 3.581126 
2.343750 2.343750 4.171289 
0.781250 0.781250 4.772529 
0.781250 0.781250 5.386761 
0.781250 2.343750 4.772529 
0.781250 2.343750 5.386761 
2.343750 0.781250 4.772529 
2.343750 0.781250 5.386761 
2.343750 2.343750 4.772529 
2.343750 2.343750 5.386761 
0.781250 0.781250 6.014756 
0.781250 0.781250 6.657781 
0.781250 2.343750 6.014756 
0.781250 2.343750 6.657781 
2.343750 0.781250 6.014756 
2.343750 0.781250 6.657781 
2.343750 2.343750 6.014756 
2.343750 2.343750 6.657781 
0.781250 0.781250 7.314389 
0.781250 0.781250 7.985928 
0.781250 2.343750 7.314389 
0.781250 2.343750 7.985928 
2.343750 0.781250 7.314389 
2.343750 0.781250 7.985928 
2.343750 2.343750 7.314389 
2.343750 2.343750 7.985928 
0.781250 0.781250 8.674463 
0.781250 0.781250 9.382573 
0.781250 2.343750 8.674463 
0.781250 2.343750 9.382573 
2.343750 0.781250 8.674463 
2.343750 0.781250 9.382573 
2.343750 2.343750 8.674463 
2.343750 2.343750 9.382573 
0.781250 0.781250 10.108543 
0.781250 0.781250 10.854194 
0.781250 2.343750 10.108543 
0.781250 2.343750 10.854194 
2.343750 0.781250 10.108543 
2.343750 0.781250 10.854194 
2.343750 2.343750 10.108543 
2.343750 2.343750 10.854194 
0.781250 0.781250 11.622118 
0.781250 0.781250 12.414785 
0.781250 2.343750 11.622118 
0.781250 2.343750 12.414785 
2.343750 0.781250 11.622118 
2.343750 0.781250 12.414785 
2.343750 2.343750 11.622118 
2.343750 2.343750 12.414785 
0.781250 0.781250 13.233946 
0.781250 0.781250 14.080706 
0.781250 2.343750 13.233946 
0.781250 2.343750 14.080706 
2.343750 0.781250 13.233946 
2.343750 0.781250 14.080706 
2.343750 2.343750 13.233946 
2.343750 2.343750 14.080706 
0.781250 0.781250 14.957636 
0.781250 0.781250 15.867048 
0.781250 2.343750 14.957636 
0.781250 2.343750 15.867048 
2.343750 0.781250 14.957636 
2.343750 0.781250 15.867048 
2.343750 2.343750 14.957636 
2.343750 2.343750 15.867048 
0.781250 0.781250 16.811223 
0.781250 0.781250 17.800360 
0.781250 2.343750 16.811223 
0.781250 2.343750 17.800360 
2.343750 0.781250 16.811223 
2.343750 0.781250 17.800360 
2.343750 2.343750 16.811223 
2.343750 2.343750 17.800360 
0.781250 0.781250 18.841639 
0.781250 0.781250 19.931493 
0.781250 2.343750 18.841639 
0.781250 2.343750 19.931493 
2.343750 0.781250 18.841639 
2.343750 0.781250 19.931493 
2.343750 2.343750 18.841639 
2.343750 2.343750 19.931493 
0.781250 0.781250 21.078011 
0.781250 0.781250 22.329308 
0.781250 2.343750 21.078011 
0.781250 2.343750 22.329308 
2.343750 0.781250 21.078011 
2.343750 0.781250 22.329308 
2.343750 2.343750 21.078011 
2.343750 2.343750 22.329308 
0.781250 0.781250 23.642063 
0.781250 0.781250 24.991029 
0.781250 2.343750 23.642063 
0.781250 2.343750 24.991029 
2.343750 0.781250 23.642063 
2.343750 0.781250 24.991029 
2.343750 2.343750 23.642063 
2.343750 2.343750 24.991029 

POINT_DATA 128
SCALARS sigma_xx FLOAT 1
LOOKUP_TABLE default
-0.000000
-0.000000
0.000000
-0.000000
0.000000
0.000000
-0.000000
-0.000000
-0.000000
-0.000000
0.000000
-0.000000
-0.000000
-0.000000
0.000000
-0.000000
-0.000000
0.000000
-0.000000
-0.000000
0.000000
-0.000000
-0.000000
0.000000
-0.000000
-0.000000
0.000000
0.000000
-0.000000
-0.000000
0.000000
0.000000
0.000000
-0.000000
0.000000
-0.000000
-0.000000
-0.000000
-0.000000
-0.000000
-0.000000
-0.000000
-0.000000
-0.000000
-0.000000
0.000000
-0.000000
0.000000
0.000000
-0.000000
-0.000000
-0.000000
0.000000
-0.000000
-0.000000
0.000000
-0.000000
-0.000000
0.000000
-0.000000
-0.000000
-0.000000
0.000000
0.000000
0.000000
0.000000
-0.000000
-0.000000
-0.000000
-0.000000
-0.000000
-0.000000
-0.000000
0.000000
-0.000000
-0.000000
-0.000000
0.000000
0.000000
0.000000
-0.000000
-0.000000
-0.000000
0.000000
-0.000000
-0.000000
0.000000
0.000000
0.000000
0.000000
0.000000
-0.000000
0.000000
0.000000
0.000000
-0.000000
-0.000000
0.000000
-0.000000
-0.000000
0.000000
0.000000
0.000000
0.000000
-0.000000
-0.000000
0.000000
-0.000000
-0.000000
0.000000
0.000000
0.000000
0.000000
-0.000000
-0.000000
0.000000
-0.000000
0.000000
0.000000
0.000000
0.000000
-0.000000
-0.000000
-0.000000
0.000000
0.000000
-0.000000
0.000000

SCALARS sigma_yy FLOAT 1
LOOKUP_TABLE default
0.000000
-0.000000
-0.000000
0.000000
-0.000000
0.000000
-0.000000
0.000000
0.000000
-0.000000
0.000000
0.000000
-0.000000
0.000000
0.000000
0.000000
-0.000000
-0.000000
-0.000000
0.000000
0.000000
-0.000000
-0.000000
0.000000
-0.000000
-0.000000
-0.000000
-0.000000
-0.000000
0.000000
-0.000000
-0.000000
-0.000000
0.000000
0.000000
-0.000000
-0.000000
-0.000000
-0.000000
-0.000000
-0.000000
-0.000000
0.000000
0.000000
-0.000000
-0.000000
0.000000
0.000000
0.000000
0.000000
0.000000
-0.000000
0.000000
0.000000
-0.000000
0.000000
0.000000
-0.000000
-0.000000
-0.000000
-0.000000
-0.000000
-0.000000
-0.000000
0.000000
-0.000000
0.000000
-0.000000
-0.000000
-0.000000
0.000000
-0.000000
-0.000000
0.000000
0.000000
-0.000000
-0.000000
-0.000000
0.000000
-0.000000
0.000000
-0.000000
-0.000000
-0.000000
-0.000000
-0.000000
0.000000
-0.000000
-0.000000
0.000000
-0.000000
-0.000000
-0.000000
0.000000
0.000000
-0.000000
-0.000000
-0.000000
-0.000000
-0.000000
0.000000
-0.000000
0.000000
0.000000
-0.000000
-0.000000
0.000000
0.000000
0.000000
0.000000
0.000000
0.000000
-0.000000
-0.000000
0.000000
0.000000
-0.000000
-0.000000
0.000000
-0.000000
-0.000000
0.000000
0.000000
-0.000000
0.000000
-0.000000
0.000000
0.000000

SCALARS sigma_zz FLOAT 1
LOOKUP_TABLE default
-31676.749136
-31676.749136
-31676.749136
-31676.749136
-31676.749136
-31676.749136
-31676.749136
-31676.749136
-30764.657197
-29701.790422
-30764.657197
-29701.790422
-30764.657197
-29701.790422
-30764.657197
-29701.790422
-28412.310116
-27239.715269
-28412.310116
-27239.715269
-28412.310116
-27239.715269
-28412.310116
-27239.715269
-26210.423369
-25344.539747
-26210.423369
-25344.539747
-26210.423369
-25344.539747
-26210.423369
-25344.539747
-24268.941487
-23257.546502
-24268.941487
-23257.546502
-24268.941487
-23257.546502
-24268.941487
-23257.546502
-22070.708775
-21130.387906
-22070.708775
-21130.387906
-22070.708775
-21130.387906
-22070.708775
-21130.387906
-20141.452273
-19158.457300
-20141.452273
-19158.457300
-20141.452273
-19158.457300
-20141.452273
-19158.457300
-18004.215802
-16986.173949
-18004.215802
-16986.173949
-18004.215802
-16986.173949
-18004.215802
-16986.173949
-15983.548332
-15025.960876
-15983.548332
-15025.960876
-15983.548332
-15025.960876
-15983.548332
-15025.960876
-13900.190251
-12846.192632
-13900.190251
-12846.192632
-13900.190251
-12846.192632
-13900.190251
-12846.192632
-11809.093463
-10797.365238
-11809.093463
-10797.365238
-11809.093463
-10797.365238
-11809.093463
-10797.365238
-9781.502347
-8855.729523
-9781.502347
-8855.729523
-9781.502347
-8855.729523
-9781.502347
-8855.729523
-7783.077859
-6660.288796
-7783.077859
-6660.288796
-7783.077859
-6660.288796
-7783.077859
-6660.288796
-5564.064654
-4794.364570
-5564.064654
-4794.364570
-5564.064654
-4794.364570
-5564.064654
-4794.364570
-3466.365492
-2357.927674
-3466.365492
-2357.927674
-3466.365492
-2357.927674
-3466.365492
-2357.927674
-1900.579771
-354.113018
-1900.579771
-354.113018
-1900.579771
-354.113018
-1900.579771
-354.113018

SCALARS sigma_xy FLOAT 1
LOOKUP_TABLE default
0.000000
-0.000000
-0.000000
-0.000000
-0.000000
-0.000000
-0.000000
-0.000000
0.000000
0.000000
0.000000
0.000000
-0.000000
-0.000000
-0.000000
0.000000
0.000000
-0.000000
-0.000000
-0.000000
-0.000000
0.000000
-0.000000
-0.000000
-0.000000
0.000000
0.000000
-0.000000
0.000000
0.000000
0.000000
-0.000000
-0.000000
-0.000000
-0.000000
0.000000
-0.000000
0.000000
0.000000
-0.000000
0.000000
-0.000000
0.000000
-0.000000
0.000000
-0.000000
0.000000
-0.000000
0.000000
-0.000000
0.000000
0.000000
-0.000000
-0.000000
-0.000000
0.000000
-0.000000
0.000000
-0.000000
0.000000
0.000000
0.000000
0.000000
0.000000
0.000000
-0.000000
0.000000
-0.000000
-0.000000
0.000000
0.000000
-0.000000
-0.000000
0.000000
0.000000
-0.000000
0.000000
-0.000000
-0.000000
0.000000
0.000000
-0.000000
-0.000000
0.000000
-0.000000
0.000000
0.000000
-0.000000
0.000000
-0.000000
0.000000
-0.000000
0.000000
-0.000000
0.000000
-0.000000
-0.000000
-0.000000
0.000000
0.000000
0.000000
-0.000000
-0.000000
-0.000000
-0.000000
0.000000
0.000000
-0.000000
-0.000000
0.000000
-0.000000
-0.000000
0.000000
0.000000
-0.000000
0.000000
-0.000000
0.000000
0.000000
-0.000000
0.000000
0.000000
0.000000
-0.000000
-0.000000
-0.000000
0.000000
0.000000

SCALARS sigma_yz FLOAT 1
LOOKUP_TABLE default
-0.000000
0.000000
-0.000000
0.000000
0.000000
-0.000000
-0.000000
-0.000000
-0.000000
0.000000
-0.000000
0.000000
-0.000000
-0.000000
-0.000000
-0.000000
0.000000
0.000000
0.000000
0.000000
-0.000000
-0.000000
-0.000000
0.000000
0.000000
-0.000000
0.000000
0.000000
-0.000000
-0.000000
0.000000
0.000000
-0.000000
-0.000000
-0.000000
-0.000000
-0.000000
0.000000
-0.000000
0.000000
-0.000000
-0.000000
-0.000000
0.000000
0.000000
-0.000000
0.000000
0.000000
-0.000000
0.000000
0.000000
0.000000
-0.000000
0.000000
0.000000
-0.000000
-0.000000
0.000000
0.000000
0.000000
-0.000000
0.000000
-0.000000
0.000000
0.000000
-0.000000
0.000000
0.000000
0.000000
-0.000000
0.000000
0.000000
-0.000000
-0.000000
0.000000
0.000000
-0.000000
-0.000000
0.000000
0.000000
-0.000000
-0.000000
-0.000000
0.000000
-0.000000
0.000000
-0.000000
0.000000
-0.000000
-0.000000
0.000000
0.000000
-0.000000
-0.000000
0.000000
0.000000
-0.000000
-0.000000
0.000000
0.000000
-0.000000
-0.000000
0.000000
0.000000
-0.000000
-0.000000
0.000000
0.000000
-0.000000
-0.000000
0.000000
-0.000000
-0.000000
-0.000000
-0.000000
0.000000
-0.000000
-0.000000
0.000000
0.000000
-0.000000
-0.000000
0.000000
0.000000
-0.000000
-0.000000
0.000000
-0.000000

SCALARS sigma_zx FLOAT 1
LOOKUP_TABLE default
0.000000
0.000000
-0.000000
-0.000000
0.000000
0.000000
-0.000000
-0.000000
-0.000000
0.000000
-0.000000
-0.000000
0.000000
0.000000
-0.000000
-0.000000
0.000000
0.000000
-0.000000
-0.000000
0.000000
0.000000
-0.000000
-0.000000
-0.000000
-0.000000
-0.000000
-0.000000
0.000000
-0.000000
-0.000000
0.000000
-0.000000
-0.000000
0.000000
0.000000
-0.000000
-0.000000
0.000000
0.000000
-0.000000
-0.000000
0.000000
-0.000000
0.000000
-0.000000
0.000000
0.000000
-0.000000
-0.000000
-0.000000
-0.000000
-0.000000
-0.000000
-0.000000
-0.000000
-0.000000
-0.000000
-0.000000
-0.000000
-0.000000
0.000000
-0.000000
-0.000000
0.000000
0.000000
0.000000
0.000000
0.000000
0.000000
0.000000
0.000000
-0.000000
-0.000000
0.000000
0.000000
0.000000
-0.000000
0.000000
0.000000
-0.000000
-0.000000
-0.000000
-0.000000
-0.000000
0.000000
-0.000000
-0.000000
0.000000
-0.000000
-0.000000
-0.000000
0.000000
0.000000
0.000000
0.000000
-0.000000
-0.000000
-0.000000
-0.000000
-0.000000
-0.000000
0.000000
-0.000000
-0.000000
0.000000
-0.000000
-0.000000
0.000000
0.000000
0.000000
0.000000
0.000000
0.000000
-0.000000
-0.000000
0.000000
0.000000
0.000000
0.000000
-0.000000
-0.000000
-0.000000
-0.000000
0.000000
0.000000
0.000000
0.000000

SCALARS u_x FLOAT 1
LOOKUP_TABLE default
0.000000
0.000000
0.000000
0.000000
0.000000
0.000000
0.000000
0.000000
0.000000
0.000000
0.000000
0.000000
0.000000
0.000000
0.000000
0.000000
0.000000
0.000000
0.000000
0.000000
0.000000
0.000000
0.000000
0.000000
0.000000
0.000000
0.000000
0.000000
0.000000
0.000000
0.000000
0.000000
0.000000
0.000000
0.000000
0.000000
0.000000
0.000000
0.000000
0.000000
0.000000
0.000000
0.000000
0.000000
0.000000
0.000000
0.000000
0.000000
0.000000
0.000000
0.000000
0.000000
0.000000
0.000000
0.000000
0.000000
0.000000
0.000000
0.000000
0.000000
0.000000
0.000000
0.000000
0.000000
0.000000
0.000000
0.000000
0.000000
0.000000
0.000000
0.000000
0.000000
0.000000
0.000000
0.000000
0.000000
0.000000
0.000000
0.000000
0.000000
0.000000
0.000000
0.000000
0.000000
0.000000
0.000000
0.000000
0.000000
0.000000
0.000000
0.000000
0.000000
0.000000
0.000000
0.000000
0.000000
0.000000
0.000000
0.000000
0.000000
0.000000
0.000000
0.000000
0.000000
0.000000
0.000000
0.000000
0.000000
0.000000
0.000000
0.000000
0.000000
0.000000
0.000000
0.000000
0.000000
0.000000
0.000000
0.000000
0.000000
0.000000
0.000000
0.000000
0.000000
0.000000
0.000000
0.000000
0.000000

SCALARS u_y FLOAT 1
LOOKUP_TABLE default
0.000000
0.000000
0.000000
0.000000
0.000000
0.000000
0.000000
0.000000
0.000000
0.000000
0.000000
0.000000
0.000000
0.000000
0.000000
0.000000
0.000000
0.000000
0.000000
0.000000
0.000000
0.000000
0.000000
0.000000
0.000000
0.000000
0.000000
0.000000
0.000000
0.000000
0.000000
0.000000
0.000000
0.000000
0.000000
0.000000
0.000000
0.000000
0.000000
0.000000
0.000000
0.000000
0.000000
0.000000
0.000000
0.000000
0.000000
0.000000
0.000000
0.000000
0.000000
0.000000
0.000000
0.000000
0.000000
0.000000
0.000000
0.000000
0.000000
0.000000
0.000000
0.000000
0.000000
0.000000
0.000000
0.000000
0.000000
0.000000
0.000000
0.000000
0.000000
0.000000
0.000000
0.000000
0.000000
0.000000
0.000000
0.000000
0.000000
0.000000
0.000000
0.000000
0.000000
0.000000
0.000000
0.000000
0.000000
0.000000
0.000000
0.000000
0.000000
0.000000
0.000000
0.000000
0.000000
0.000000
0.000000
0.000000
0.000000
0.000000
0.000000
0.000000
0.000000
0.000000
0.000000
0.000000
0.000000
0.000000
0.000000
0.000000
0.000000
0.000000
0.000000
0.000000
0.000000
0.000000
0.000000
0.000000
0.000000
0.000000
0.000000
0.000000
0.000000
0.000000
0.000000
0.000000
0.000000
0.000000

SCALARS u_z FLOAT 1
LOOKUP_TABLE default
-0.515395
-1.546184
-0.515395
-1.546184
-0.515395
-1.546184
-0.515395
-1.546184
-2.573929
-3.591376
-2.573929
-3.591376
-2.573929
-3.591376
-2.573929
-3.591376
-4.598414
-5.592499
-4.598414
-5.592499
-4.598414
-5.592499
-4.598414
-5.592499
-6.575124
-7.547461
-6.575124
-7.547461
-6.575124
-7.547461
-6.575124
-7.547461
-8.508721
-9.456989
-8.508721
-9.456989
-8.508721
-9.456989
-8.508721
-9.456989
-10.391494
-11.310969
-10.391494
-11.310969
-10.391494
-11.310969
-10.391494
-11.310969
-12.216861
-13.107822
-12.216861
-13.107822
-12.216861
-13.107822
-12.216861
-13.107822
-13.981787
-14.836177
-13.981787
-14.836177
-13.981787
-14.836177
-13.981787
-14.836177
-15.672707
-16.489556
-15.672707
-16.489556
-15.672707
-16.489556
-15.672707
-16.489556
-17.284132
-18.053965
-17.284132
-18.053965
-17.284132
-18.053965
-17.284132
-18.053965
-18.797304
-19.513044
-18.797304
-19.513044
-18.797304
-19.513044
-18.797304
-19.513044
-20.198614
-20.851702
-20.198614
-20.851702
-20.198614
-20.851702
-20.198614
-20.851702
-21.470027
-22.043390
-21.470027
-22.043390
-21.470027
-22.043390
-21.470027
-22.043390
-22.564611
-23.037257
-22.564611
-23.037257
-22.564611
-23.037257
-22.564611
-23.037257
-23.453239
-23.764442
-23.453239
-23.764442
-23.453239
-23.764442
-23.453239
-23.764442
-24.014187
-24.227721
-24.014187
-24.227721
-24.014187
-24.227721
-24.014187
-24.227721

