# vtk DataFile Version 2.0
MATLAB generated vtk file, WMC
ASCII
DATASET UNSTRUCTURED_GRID
POINTS 256 double
0.195312 0.067557 0.000000 
0.195312 0.202672 0.000000 
0.585938 0.067557 0.000000 
0.585938 0.202672 0.000000 
0.195312 0.337973 0.000000 
0.195312 0.473888 0.000000 
0.585938 0.337973 0.000000 
0.585938 0.473888 0.000000 
0.195312 0.610404 0.000000 
0.195312 0.747640 0.000000 
0.585938 0.610404 0.000000 
0.585938 0.747640 0.000000 
0.195312 0.885486 0.000000 
0.195312 1.023845 0.000000 
0.585938 0.885486 0.000000 
0.585938 1.023845 0.000000 
0.195312 1.162733 0.000000 
0.195312 1.302236 0.000000 
0.585938 1.162733 0.000000 
0.585938 1.302236 0.000000 
0.195312 1.442364 0.000000 
0.195312 1.583148 0.000000 
0.585938 1.442364 0.000000 
0.585938 1.583148 0.000000 
0.195312 1.724503 0.000000 
0.195312 1.866458 0.000000 
0.585938 1.724503 0.000000 
0.585938 1.866458 0.000000 
0.195312 2.009003 0.000000 
0.195312 2.152204 0.000000 
0.585938 2.009003 0.000000 
0.585938 2.152204 0.000000 
0.195312 2.296064 0.000000 
0.195312 2.440591 0.000000 
0.585938 2.296064 0.000000 
0.585938 2.440591 0.000000 
0.195312 2.585740 0.000000 
0.195312 2.731531 0.000000 
0.585938 2.585740 0.000000 
0.585938 2.731531 0.000000 
0.195312 2.878020 0.000000 
0.195312 3.025210 0.000000 
0.585938 2.878020 0.000000 
0.585938 3.025210 0.000000 
0.195312 3.173112 0.000000 
0.195312 3.321645 0.000000 
0.585938 3.173112 0.000000 
0.585938 3.321645 0.000000 
0.195312 3.470866 0.000000 
0.195312 3.620785 0.000000 
0.585938 3.470866 0.000000 
0.585938 3.620785 0.000000 
0.195312 3.771454 0.000000 
0.195312 3.922824 0.000000 
0.585938 3.771454 0.000000 
0.585938 3.922824 0.000000 
0.195312 4.074971 0.000000 
0.195312 4.227843 0.000000 
0.585938 4.074971 0.000000 
0.585938 4.227843 0.000000 
0.195312 4.381435 0.000000 
0.195312 4.535810 0.000000 
0.585938 4.381435 0.000000 
0.585938 4.535810 0.000000 
0.195312 4.690972 0.000000 
0.195312 4.846932 0.000000 
0.585938 4.690972 0.000000 
0.585938 4.846932 0.000000 
0.195312 5.003569 0.000000 
0.195312 5.161085 0.000000 
0.585938 5.003569 0.000000 
0.585938 5.161085 0.000000 
0.195312 5.319389 0.000000 
0.195312 5.478576 0.000000 
0.585938 5.319389 0.000000 
0.585938 5.478576 0.000000 
0.195312 5.638544 0.000000 
0.195312 5.799346 0.000000 
0.585938 5.638544 0.000000 
0.585938 5.799346 0.000000 
0.195312 5.961047 0.000000 
0.195312 6.123515 0.000000 
0.585938 5.961047 0.000000 
0.585938 6.123515 0.000000 
0.195312 6.286986 0.000000 
0.195312 6.451241 0.000000 
0.585938 6.286986 0.000000 
0.585938 6.451241 0.000000 
0.195312 6.616511 0.000000 
0.195312 6.782623 0.000000 
0.585938 6.616511 0.000000 
0.585938 6.782623 0.000000 
0.195312 6.949707 0.000000 
0.195312 7.117737 0.000000 
0.585938 6.949707 0.000000 
0.585938 7.117737 0.000000 
0.195312 7.286668 0.000000 
0.195312 7.456649 0.000000 
0.585938 7.286668 0.000000 
0.585938 7.456649 0.000000 
0.195312 7.627560 0.000000 
0.195312 7.799491 0.000000 
0.585938 7.627560 0.000000 
0.585938 7.799491 0.000000 
0.195312 7.972471 0.000000 
0.195312 8.146353 0.000000 
0.585938 7.972471 0.000000 
0.585938 8.146353 0.000000 
0.195312 8.321384 0.000000 
0.195312 8.497414 0.000000 
0.585938 8.321384 0.000000 
0.585938 8.497414 0.000000 
0.195312 8.674576 0.000000 
0.195312 8.852800 0.000000 
0.585938 8.674576 0.000000 
0.585938 8.852800 0.000000 
0.195312 9.032117 0.000000 
0.195312 9.212607 0.000000 
0.585938 9.032117 0.000000 
0.585938 9.212607 0.000000 
0.195312 9.394282 0.000000 
0.195312 9.577140 0.000000 
0.585938 9.394282 0.000000 
0.585938 9.577140 0.000000 
0.195312 9.761099 0.000000 
0.195312 9.946289 0.000000 
0.585938 9.761099 0.000000 
0.585938 9.946289 0.000000 
0.195312 10.132790 0.000000 
0.195312 10.320414 0.000000 
0.585938 10.132790 0.000000 
0.585938 10.320414 0.000000 
0.195312 10.509407 0.000000 
0.195312 10.699615 0.000000 
0.585938 10.509407 0.000000 
0.585938 10.699615 0.000000 
0.195312 10.891116 0.000000 
0.195312 11.084088 0.000000 
0.585938 10.891116 0.000000 
0.585938 11.084088 0.000000 
0.195312 11.278247 0.000000 
0.195312 11.473952 0.000000 
0.585938 11.278247 0.000000 
0.585938 11.473952 0.000000 
0.195312 11.671040 0.000000 
0.195312 11.869590 0.000000 
0.585938 11.671040 0.000000 
0.585938 11.869590 0.000000 
0.195312 12.069540 0.000000 
0.195312 12.270958 0.000000 
0.585938 12.069540 0.000000 
0.585938 12.270958 0.000000 
0.195312 12.473913 0.000000 
0.195312 12.678453 0.000000 
0.585938 12.473913 0.000000 
0.585938 12.678453 0.000000 
0.195312 12.884522 0.000000 
0.195312 13.092417 0.000000 
0.585938 12.884522 0.000000 
0.585938 13.092417 0.000000 
0.195312 13.301961 0.000000 
0.195312 13.513250 0.000000 
0.585938 13.301961 0.000000 
0.585938 13.513250 0.000000 
0.195312 13.726061 0.000000 
0.195312 13.940600 0.000000 
0.585938 13.726061 0.000000 
0.585938 13.940600 0.000000 
0.195312 14.157027 0.000000 
0.195312 14.375100 0.000000 
0.585938 14.157027 0.000000 
0.585938 14.375100 0.000000 
0.195312 14.595397 0.000000 
0.195312 14.817566 0.000000 
0.585938 14.595397 0.000000 
0.585938 14.817566 0.000000 
0.195312 15.041758 0.000000 
0.195312 15.267805 0.000000 
0.585938 15.041758 0.000000 
0.585938 15.267805 0.000000 
0.195312 15.496028 0.000000 
0.195312 15.726275 0.000000 
0.585938 15.496028 0.000000 
0.585938 15.726275 0.000000 
0.195312 15.958681 0.000000 
0.195312 16.193392 0.000000 
0.585938 15.958681 0.000000 
0.585938 16.193392 0.000000 
0.195312 16.430527 0.000000 
0.195312 16.669682 0.000000 
0.585938 16.430527 0.000000 
0.585938 16.669682 0.000000 
0.195312 16.911559 0.000000 
0.195312 17.155841 0.000000 
0.585938 16.911559 0.000000 
0.585938 17.155841 0.000000 
0.195312 17.402860 0.000000 
0.195312 17.652202 0.000000 
0.585938 17.402860 0.000000 
0.585938 17.652202 0.000000 
0.195312 17.904359 0.000000 
0.195312 18.159405 0.000000 
0.585938 17.904359 0.000000 
0.585938 18.159405 0.000000 
0.195312 18.417047 0.000000 
0.195312 18.677842 0.000000 
0.585938 18.417047 0.000000 
0.585938 18.677842 0.000000 
0.195312 18.941504 0.000000 
0.195312 19.208588 0.000000 
0.585938 18.941504 0.000000 
0.585938 19.208588 0.000000 
0.195312 19.478715 0.000000 
0.195312 19.752271 0.000000 
0.585938 19.478715 0.000000 
0.585938 19.752271 0.000000 
0.195312 20.029347 0.000000 
0.195312 20.309783 0.000000 
0.585938 20.029347 0.000000 
0.585938 20.309783 0.000000 
0.195312 20.594296 0.000000 
0.195312 20.882675 0.000000 
0.585938 20.594296 0.000000 
0.585938 20.882675 0.000000 
0.195312 21.175428 0.000000 
0.195312 21.471903 0.000000 
0.585938 21.175428 0.000000 
0.585938 21.471903 0.000000 
0.195312 21.772455 0.000000 
0.195312 22.077578 0.000000 
0.585938 21.772455 0.000000 
0.585938 22.077578 0.000000 
0.195312 22.387720 0.000000 
0.195312 22.703286 0.000000 
0.585938 22.387720 0.000000 
0.585938 22.703286 0.000000 
0.195312 23.023395 0.000000 
0.195312 23.349388 0.000000 
0.585938 23.023395 0.000000 
0.585938 23.349388 0.000000 
0.195312 23.680471 0.000000 
0.195312 24.018085 0.000000 
0.585938 23.680471 0.000000 
0.585938 24.018085 0.000000 
0.195312 24.361449 0.000000 
0.195312 24.712074 0.000000 
0.585938 24.361449 0.000000 
0.585938 24.712074 0.000000 
0.195312 25.069087 0.000000 
0.195312 25.434498 0.000000 
0.585938 25.069087 0.000000 
0.585938 25.434498 0.000000 
0.195312 25.807481 0.000000 
0.195312 26.189360 0.000000 
0.585938 25.807481 0.000000 
0.585938 26.189360 0.000000 

POINT_DATA 256
SCALARS sigma_xx FLOAT 1
LOOKUP_TABLE default
0.000000
-0.000000
0.000000
-0.000000
-0.000000
-0.000000
-0.000000
-0.000000
-0.000000
-0.000000
-0.000000
-0.000000
-0.000000
-0.000000
-0.000000
-0.000000
0.000000
-0.000000
0.000000
-0.000000
-0.000000
-0.000000
-0.000000
-0.000000
-0.000000
-0.000000
-0.000000
-0.000000
-0.000000
-0.000000
-0.000000
-0.000000
-0.000000
-0.000000
-0.000000
-0.000000
-0.000000
-0.000000
-0.000000
-0.000000
-0.000000
-0.000000
-0.000000
-0.000000
-0.000000
-0.000000
-0.000000
-0.000000
-0.000000
-0.000000
-0.000000
-0.000000
-0.000000
-0.000000
-0.000000
-0.000000
-0.000000
-0.000000
-0.000000
-0.000000
-0.000000
0.000000
-0.000000
-0.000000
-0.000000
-0.000000
-0.000000
-0.000000
-0.000000
-0.000000
-0.000000
-0.000000
-0.000000
-0.000000
-0.000000
-0.000000
-0.000000
-0.000000
-0.000000
-0.000000
-0.000000
-0.000000
-0.000000
-0.000000
-0.000000
-0.000000
-0.000000
-0.000000
-0.000000
0.000000
-0.000000
0.000000
-0.000000
-0.000000
-0.000000
-0.000000
-0.000000
-0.000000
-0.000000
-0.000000
0.000000
-0.000000
0.000000
-0.000000
-0.000000
-0.000000
-0.000000
-0.000000
-0.000000
-0.000000
0.000000
-0.000000
-0.000000
0.000000
-0.000000
-0.000000
-0.000000
-0.000000
-0.000000
-0.000000
-0.000000
-0.000000
-0.000000
-0.000000
-0.000000
-0.000000
-0.000000
-0.000000
-0.000000
-0.000000
-0.000000
-0.000000
-0.000000
-0.000000
-0.000000
-0.000000
-0.000000
-0.000000
-0.000000
0.000000
-0.000000
-0.000000
-0.000000
-0.000000
-0.000000
0.000000
-0.000000
0.000000
-0.000000
-0.000000
-0.000000
-0.000000
0.000000
-0.000000
0.000000
-0.000000
-0.000000
-0.000000
-0.000000
-0.000000
-0.000000
-0.000000
-0.000000
-0.000000
-0.000000
-0.000000
-0.000000
-0.000000
-0.000000
-0.000000
-0.000000
-0.000000
-0.000000
-0.000000
-0.000000
-0.000000
-0.000000
-0.000000
-0.000000
-0.000000
-0.000000
-0.000000
-0.000000
-0.000000
-0.000000
-0.000000
-0.000000
-0.000000
-0.000000
-0.000000
-0.000000
-0.000000
-0.000000
-0.000000
-0.000000
-0.000000
-0.000000
-0.000000
-0.000000
-0.000000
-0.000000
-0.000000
-0.000000
0.000000
-0.000000
-0.000000
-0.000000
-0.000000
-0.000000
-0.000000
-0.000000
-0.000000
-0.000000
-0.000000
-0.000000
-0.000000
-0.000000
-0.000000
-0.000000
-0.000000
-0.000000
0.000000
-0.000000
0.000000
0.000000
-0.000000
0.000000
-0.000000
-0.000000
-0.000000
-0.000000
-0.000000
-0.000000
-0.000000
0.000000
-0.000000
-0.000000
-0.000000
-0.000000
-0.000000
0.000000
-0.000000
0.000000
-0.000000
-0.000000
-0.000000
-0.000000
-0.000000
-0.000000
-0.000000
0.000000
-0.000000
0.000000
0.000000
0.000000
-0.000000

SCALARS sigma_yy FLOAT 1
LOOKUP_TABLE default
-30692.195370
-30692.195370
-30692.195370
-30692.195370
-30476.137163
-30226.546907
-30476.137163
-30226.546907
-29918.781635
-29643.311435
-29918.781635
-29643.311435
-29396.962979
-29206.934895
-29396.962979
-29206.934895
-28953.188477
-28713.624197
-28953.188477
-28713.624197
-28438.296109
-28208.431300
-28438.296109
-28208.431300
-27966.365529
-27748.247778
-27966.365529
-27748.247778
-27494.245348
-27255.437634
-27494.245348
-27255.437634
-26982.037773
-26767.744560
-26982.037773
-26767.744560
-26515.899540
-26296.783397
-26515.899540
-26296.783397
-26021.221302
-25781.711575
-26021.221302
-25781.711575
-25521.794249
-25329.166707
-25521.794249
-25329.166707
-25064.442988
-24839.321866
-25064.442988
-24839.321866
-24567.448625
-24343.652221
-24567.448625
-24343.652221
-24080.021227
-23868.942269
-24080.021227
-23868.942269
-23598.584318
-23377.705119
-23598.584318
-23377.705119
-23120.264110
-22887.106674
-23120.264110
-22887.106674
-22655.829673
-22416.051200
-22655.829673
-22416.051200
-22156.199129
-21911.741061
-22156.199129
-21911.741061
-21678.128523
-21446.145343
-21678.128523
-21446.145343
-21182.899450
-20966.800133
-21182.899450
-20966.800133
-20703.540319
-20476.990923
-20703.540319
-20476.990923
-20201.168367
-19995.921196
-20201.168367
-19995.921196
-19722.436339
-19501.056033
-19722.436339
-19501.056033
-19255.178999
-19006.496874
-19255.178999
-19006.496874
-18766.005532
-18524.238707
-18766.005532
-18524.238707
-18278.588377
-18059.486449
-18278.588377
-18059.486449
-17803.660029
-17568.966090
-17803.660029
-17568.966090
-17304.028381
-17089.918689
-17304.028381
-17089.918689
-16825.228386
-16588.749760
-16825.228386
-16588.749760
-16333.005322
-16110.048298
-16333.005322
-16110.048298
-15853.180803
-15634.101213
-15853.180803
-15634.101213
-15357.529216
-15155.732663
-15357.529216
-15155.732663
-14879.520961
-14662.599597
-14879.520961
-14662.599597
-14399.427384
-14182.116145
-14399.427384
-14182.116145
-13926.387303
-13682.789604
-13926.387303
-13682.789604
-13427.306184
-13199.853726
-13427.306184
-13199.853726
-12964.117630
-12733.784893
-12964.117630
-12733.784893
-12469.495181
-12242.155276
-12469.495181
-12242.155276
-11993.734180
-11718.961797
-11993.734180
-11718.961797
-11497.230743
-11248.616363
-11497.230743
-11248.616363
-11031.201860
-10782.647446
-11031.201860
-10782.647446
-10556.739154
-10295.217559
-10556.739154
-10295.217559
-10038.610780
-9796.577633
-10038.610780
-9796.577633
-9559.093371
-9325.779137
-9559.093371
-9325.779137
-9090.468044
-8842.812295
-9090.468044
-8842.812295
-8611.089099
-8345.712122
-8611.089099
-8345.712122
-8115.304162
-7884.707535
-8115.304162
-7884.707535
-7614.416864
-7388.932074
-7614.416864
-7388.932074
-7124.764048
-6919.757490
-7124.764048
-6919.757490
-6642.903541
-6426.955952
-6642.903541
-6426.955952
-6179.538220
-5939.360733
-6179.538220
-5939.360733
-5697.252354
-5443.634788
-5697.252354
-5443.634788
-5204.501490
-4968.779548
-5204.501490
-4968.779548
-4730.160631
-4488.595579
-4730.160631
-4488.595579
-4223.444954
-3983.319544
-4223.444954
-3983.319544
-3732.454781
-3530.935393
-3732.454781
-3530.935393
-3283.889933
-3043.394055
-3283.889933
-3043.394055
-2758.061545
-2546.152672
-2758.061545
-2546.152672
-2295.149433
-2066.136613
-2295.149433
-2066.136613
-1818.515210
-1580.000158
-1818.515210
-1580.000158
-1334.372885
-1096.990558
-1334.372885
-1096.990558
-847.936781
-597.458009
-847.936781
-597.458009
-360.819354
-98.794147
-360.819354
-98.794147

SCALARS sigma_zz FLOAT 1
LOOKUP_TABLE default
0.000000
0.000000
0.000000
0.000000
0.000000
0.000000
0.000000
0.000000
0.000000
0.000000
0.000000
0.000000
0.000000
0.000000
0.000000
0.000000
0.000000
0.000000
0.000000
0.000000
0.000000
0.000000
0.000000
0.000000
0.000000
0.000000
0.000000
0.000000
0.000000
0.000000
0.000000
0.000000
0.000000
0.000000
0.000000
0.000000
0.000000
0.000000
0.000000
0.000000
0.000000
0.000000
0.000000
0.000000
0.000000
0.000000
0.000000
0.000000
0.000000
0.000000
0.000000
0.000000
0.000000
0.000000
0.000000
0.000000
0.000000
0.000000
0.000000
0.000000
0.000000
0.000000
0.000000
0.000000
0.000000
0.000000
0.000000
0.000000
0.000000
0.000000
0.000000
0.000000
0.000000
0.000000
0.000000
0.000000
0.000000
0.000000
0.000000
0.000000
0.000000
0.000000
0.000000
0.000000
0.000000
0.000000
0.000000
0.000000
0.000000
0.000000
0.000000
0.000000
0.000000
0.000000
0.000000
0.000000
0.000000
0.000000
0.000000
0.000000
0.000000
0.000000
0.000000
0.000000
0.000000
0.000000
0.000000
0.000000
0.000000
0.000000
0.000000
0.000000
0.000000
0.000000
0.000000
0.000000
0.000000
0.000000
0.000000
0.000000
0.000000
0.000000
0.000000
0.000000
0.000000
0.000000
0.000000
0.000000
0.000000
0.000000
0.000000
0.000000
0.000000
0.000000
0.000000
0.000000
0.000000
0.000000
0.000000
0.000000
0.000000
0.000000
0.000000
0.000000
0.000000
0.000000
0.000000
0.000000
0.000000
0.000000
0.000000
0.000000
0.000000
0.000000
0.000000
0.000000
0.000000
0.000000
0.000000
0.000000
0.000000
0.000000
0.000000
0.000000
0.000000
0.000000
0.000000
0.000000
0.000000
0.000000
0.000000
0.000000
0.000000
0.000000
0.000000
0.000000
0.000000
0.000000
0.000000
0.000000
0.000000
0.000000
0.000000
0.000000
0.000000
0.000000
0.000000
0.000000
0.000000
0.000000
0.000000
0.000000
0.000000
0.000000
0.000000
0.000000
0.000000
0.000000
0.000000
0.000000
0.000000
0.000000
0.000000
0.000000
0.000000
0.000000
0.000000
0.000000
0.000000
0.000000
0.000000
0.000000
0.000000
0.000000
0.000000
0.000000
0.000000
0.000000
0.000000
0.000000
0.000000
0.000000
0.000000
0.000000
0.000000
0.000000
0.000000
0.000000
0.000000
0.000000
0.000000
0.000000
0.000000
0.000000
0.000000
0.000000
0.000000
0.000000
0.000000
0.000000
0.000000
0.000000
0.000000
0.000000
0.000000
0.000000
0.000000
0.000000
0.000000
0.000000
0.000000
0.000000
0.000000
0.000000
0.000000
0.000000

SCALARS sigma_xy FLOAT 1
LOOKUP_TABLE default
0.000000
0.000000
0.000000
0.000000
0.000000
0.000000
0.000000
0.000000
0.000000
0.000000
0.000000
0.000000
0.000000
0.000000
0.000000
0.000000
0.000000
-0.000000
0.000000
-0.000000
-0.000000
-0.000000
-0.000000
-0.000000
-0.000000
-0.000000
-0.000000
-0.000000
-0.000000
-0.000000
-0.000000
-0.000000
0.000000
0.000000
0.000000
0.000000
0.000000
0.000000
0.000000
0.000000
0.000000
-0.000000
0.000000
-0.000000
-0.000000
-0.000000
-0.000000
-0.000000
-0.000000
-0.000000
-0.000000
-0.000000
-0.000000
-0.000000
-0.000000
-0.000000
0.000000
0.000000
0.000000
0.000000
0.000000
0.000000
0.000000
0.000000
0.000000
-0.000000
0.000000
-0.000000
-0.000000
-0.000000
-0.000000
-0.000000
-0.000000
-0.000000
-0.000000
-0.000000
0.000000
0.000000
0.000000
0.000000
0.000000
0.000000
0.000000
0.000000
0.000000
-0.000000
0.000000
-0.000000
-0.000000
0.000000
-0.000000
0.000000
0.000000
0.000000
0.000000
0.000000
0.000000
-0.000000
0.000000
-0.000000
0.000000
-0.000000
0.000000
-0.000000
-0.000000
0.000000
-0.000000
0.000000
-0.000000
0.000000
0.000000
0.000000
0.000000
0.000000
0.000000
0.000000
-0.000000
-0.000000
-0.000000
-0.000000
0.000000
0.000000
0.000000
0.000000
0.000000
0.000000
0.000000
0.000000
-0.000000
-0.000000
-0.000000
-0.000000
-0.000000
-0.000000
-0.000000
-0.000000
-0.000000
-0.000000
-0.000000
0.000000
0.000000
0.000000
0.000000
0.000000
-0.000000
0.000000
-0.000000
0.000000
0.000000
0.000000
0.000000
0.000000
0.000000
0.000000
0.000000
0.000000
-0.000000
-0.000000
-0.000000
-0.000000
-0.000000
-0.000000
-0.000000
-0.000000
-0.000000
0.000000
-0.000000
0.000000
0.000000
0.000000
0.000000
0.000000
-0.000000
-0.000000
-0.000000
-0.000000
0.000000
0.000000
0.000000
0.000000
0.000000
-0.000000
0.000000
-0.000000
-0.000000
-0.000000
-0.000000
-0.000000
-0.000000
0.000000
-0.000000
0.000000
0.000000
-0.000000
0.000000
-0.000000
-0.000000
-0.000000
-0.000000
-0.000000
0.000000
-0.000000
0.000000
0.000000
0.000000
-0.000000
0.000000
-0.000000
0.000000
-0.000000
0.000000
-0.000000
-0.000000
-0.000000
-0.000000
-0.000000
0.000000
0.000000
0.000000
0.000000
-0.000000
0.000000
-0.000000
0.000000
0.000000
0.000000
0.000000
0.000000
0.000000
0.000000
0.000000
0.000000
0.000000
0.000000
0.000000
0.000000
-0.000000
-0.000000
-0.000000
-0.000000
0.000000
0.000000
0.000000
0.000000
-0.000000
0.000000
-0.000000
0.000000
0.000000
0.000000
0.000000
0.000000
0.000000
0.000000
0.000000
-0.000000

SCALARS sigma_yz FLOAT 1
LOOKUP_TABLE default
0.000000
0.000000
0.000000
0.000000
0.000000
0.000000
0.000000
0.000000
0.000000
0.000000
0.000000
0.000000
0.000000
0.000000
0.000000
0.000000
0.000000
0.000000
0.000000
0.000000
0.000000
0.000000
0.000000
0.000000
0.000000
0.000000
0.000000
0.000000
0.000000
0.000000
0.000000
0.000000
0.000000
0.000000
0.000000
0.000000
0.000000
0.000000
0.000000
0.000000
0.000000
0.000000
0.000000
0.000000
0.000000
0.000000
0.000000
0.000000
0.000000
0.000000
0.000000
0.000000
0.000000
0.000000
0.000000
0.000000
0.000000
0.000000
0.000000
0.000000
0.000000
0.000000
0.000000
0.000000
0.000000
0.000000
0.000000
0.000000
0.000000
0.000000
0.000000
0.000000
0.000000
0.000000
0.000000
0.000000
0.000000
0.000000
0.000000
0.000000
0.000000
0.000000
0.000000
0.000000
0.000000
0.000000
0.000000
0.000000
0.000000
0.000000
0.000000
0.000000
0.000000
0.000000
0.000000
0.000000
0.000000
0.000000
0.000000
0.000000
0.000000
0.000000
0.000000
0.000000
0.000000
0.000000
0.000000
0.000000
0.000000
0.000000
0.000000
0.000000
0.000000
0.000000
0.000000
0.000000
0.000000
0.000000
0.000000
0.000000
0.000000
0.000000
0.000000
0.000000
0.000000
0.000000
0.000000
0.000000
0.000000
0.000000
0.000000
0.000000
0.000000
0.000000
0.000000
0.000000
0.000000
0.000000
0.000000
0.000000
0.000000
0.000000
0.000000
0.000000
0.000000
0.000000
0.000000
0.000000
0.000000
0.000000
0.000000
0.000000
0.000000
0.000000
0.000000
0.000000
0.000000
0.000000
0.000000
0.000000
0.000000
0.000000
0.000000
0.000000
0.000000
0.000000
0.000000
0.000000
0.000000
0.000000
0.000000
0.000000
0.000000
0.000000
0.000000
0.000000
0.000000
0.000000
0.000000
0.000000
0.000000
0.000000
0.000000
0.000000
0.000000
0.000000
0.000000
0.000000
0.000000
0.000000
0.000000
0.000000
0.000000
0.000000
0.000000
0.000000
0.000000
0.000000
0.000000
0.000000
0.000000
0.000000
0.000000
0.000000
0.000000
0.000000
0.000000
0.000000
0.000000
0.000000
0.000000
0.000000
0.000000
0.000000
0.000000
0.000000
0.000000
0.000000
0.000000
0.000000
0.000000
0.000000
0.000000
0.000000
0.000000
0.000000
0.000000
0.000000
0.000000
0.000000
0.000000
0.000000
0.000000
0.000000
0.000000
0.000000
0.000000
0.000000
0.000000
0.000000
0.000000
0.000000
0.000000
0.000000
0.000000
0.000000
0.000000
0.000000
0.000000
0.000000
0.000000
0.000000
0.000000
0.000000
0.000000
0.000000

SCALARS sigma_zx FLOAT 1
LOOKUP_TABLE default
0.000000
0.000000
0.000000
0.000000
0.000000
0.000000
0.000000
0.000000
0.000000
0.000000
0.000000
0.000000
0.000000
0.000000
0.000000
0.000000
0.000000
0.000000
0.000000
0.000000
0.000000
0.000000
0.000000
0.000000
0.000000
0.000000
0.000000
0.000000
0.000000
0.000000
0.000000
0.000000
0.000000
0.000000
0.000000
0.000000
0.000000
0.000000
0.000000
0.000000
0.000000
0.000000
0.000000
0.000000
0.000000
0.000000
0.000000
0.000000
0.000000
0.000000
0.000000
0.000000
0.000000
0.000000
0.000000
0.000000
0.000000
0.000000
0.000000
0.000000
0.000000
0.000000
0.000000
0.000000
0.000000
0.000000
0.000000
0.000000
0.000000
0.000000
0.000000
0.000000
0.000000
0.000000
0.000000
0.000000
0.000000
0.000000
0.000000
0.000000
0.000000
0.000000
0.000000
0.000000
0.000000
0.000000
0.000000
0.000000
0.000000
0.000000
0.000000
0.000000
0.000000
0.000000
0.000000
0.000000
0.000000
0.000000
0.000000
0.000000
0.000000
0.000000
0.000000
0.000000
0.000000
0.000000
0.000000
0.000000
0.000000
0.000000
0.000000
0.000000
0.000000
0.000000
0.000000
0.000000
0.000000
0.000000
0.000000
0.000000
0.000000
0.000000
0.000000
0.000000
0.000000
0.000000
0.000000
0.000000
0.000000
0.000000
0.000000
0.000000
0.000000
0.000000
0.000000
0.000000
0.000000
0.000000
0.000000
0.000000
0.000000
0.000000
0.000000
0.000000
0.000000
0.000000
0.000000
0.000000
0.000000
0.000000
0.000000
0.000000
0.000000
0.000000
0.000000
0.000000
0.000000
0.000000
0.000000
0.000000
0.000000
0.000000
0.000000
0.000000
0.000000
0.000000
0.000000
0.000000
0.000000
0.000000
0.000000
0.000000
0.000000
0.000000
0.000000
0.000000
0.000000
0.000000
0.000000
0.000000
0.000000
0.000000
0.000000
0.000000
0.000000
0.000000
0.000000
0.000000
0.000000
0.000000
0.000000
0.000000
0.000000
0.000000
0.000000
0.000000
0.000000
0.000000
0.000000
0.000000
0.000000
0.000000
0.000000
0.000000
0.000000
0.000000
0.000000
0.000000
0.000000
0.000000
0.000000
0.000000
0.000000
0.000000
0.000000
0.000000
0.000000
0.000000
0.000000
0.000000
0.000000
0.000000
0.000000
0.000000
0.000000
0.000000
0.000000
0.000000
0.000000
0.000000
0.000000
0.000000
0.000000
0.000000
0.000000
0.000000
0.000000
0.000000
0.000000
0.000000
0.000000
0.000000
0.000000
0.000000
0.000000
0.000000
0.000000
0.000000
0.000000
0.000000
0.000000
0.000000
0.000000
0.000000
0.000000
0.000000

SCALARS u_x FLOAT 1
LOOKUP_TABLE default
0.000000
0.000000
0.000000
0.000000
0.000000
0.000000
0.000000
0.000000
0.000000
0.000000
0.000000
0.000000
0.000000
0.000000
0.000000
0.000000
0.000000
0.000000
0.000000
0.000000
0.000000
0.000000
0.000000
0.000000
0.000000
0.000000
0.000000
0.000000
0.000000
0.000000
0.000000
0.000000
0.000000
0.000000
0.000000
0.000000
0.000000
0.000000
0.000000
0.000000
0.000000
0.000000
0.000000
0.000000
0.000000
0.000000
0.000000
0.000000
0.000000
0.000000
0.000000
0.000000
0.000000
0.000000
0.000000
0.000000
0.000000
0.000000
0.000000
0.000000
0.000000
0.000000
0.000000
0.000000
0.000000
0.000000
0.000000
0.000000
0.000000
0.000000
0.000000
0.000000
0.000000
0.000000
0.000000
0.000000
0.000000
0.000000
0.000000
0.000000
0.000000
0.000000
0.000000
0.000000
0.000000
0.000000
0.000000
0.000000
0.000000
0.000000
0.000000
0.000000
0.000000
0.000000
0.000000
0.000000
0.000000
0.000000
0.000000
0.000000
0.000000
0.000000
0.000000
0.000000
0.000000
0.000000
0.000000
0.000000
0.000000
0.000000
0.000000
0.000000
0.000000
0.000000
0.000000
0.000000
0.000000
0.000000
0.000000
0.000000
0.000000
0.000000
0.000000
0.000000
0.000000
0.000000
0.000000
0.000000
0.000000
0.000000
0.000000
0.000000
0.000000
0.000000
0.000000
0.000000
0.000000
0.000000
0.000000
0.000000
0.000000
0.000000
0.000000
0.000000
0.000000
0.000000
0.000000
0.000000
0.000000
0.000000
0.000000
0.000000
0.000000
0.000000
0.000000
0.000000
0.000000
0.000000
0.000000
0.000000
0.000000
0.000000
0.000000
0.000000
0.000000
0.000000
0.000000
0.000000
0.000000
0.000000
0.000000
0.000000
0.000000
0.000000
0.000000
0.000000
0.000000
0.000000
0.000000
0.000000
0.000000
0.000000
0.000000
0.000000
0.000000
0.000000
0.000000
0.000000
0.000000
0.000000
0.000000
0.000000
0.000000
0.000000
0.000000
0.000000
0.000000
0.000000
0.000000
0.000000
0.000000
0.000000
0.000000
0.000000
0.000000
0.000000
0.000000
0.000000
0.000000
0.000000
0.000000
0.000000
0.000000
0.000000
0.000000
0.000000
0.000000
0.000000
0.000000
0.000000
0.000000
0.000000
0.000000
0.000000
0.000000
0.000000
0.000000
0.000000
0.000000
0.000000
0.000000
0.000000
0.000000
0.000000
0.000000
0.000000
0.000000
0.000000
0.000000
0.000000
0.000000
0.000000
0.000000
0.000000
0.000000
0.000000
0.000000
0.000000
0.000000
0.000000
0.000000
0.000000
0.000000
0.000000
0.000000
0.000000

SCALARS u_y FLOAT 1
LOOKUP_TABLE default
-0.127755
-0.383265
-0.127755
-0.383265
-0.638589
-0.893300
-0.638589
-0.893300
-1.147409
-1.400798
-1.147409
-1.400798
-1.653577
-1.905842
-1.653577
-1.905842
-2.157580
-2.408702
-2.157580
-2.408702
-2.659199
-2.909039
-2.659199
-2.909039
-3.158309
-3.406979
-3.158309
-3.406979
-3.655060
-3.902484
-3.655060
-3.902484
-4.149249
-4.395346
-4.149249
-4.395346
-4.640822
-4.885657
-4.640822
-4.885657
-5.129792
-5.373227
-5.129792
-5.373227
-5.615951
-5.858043
-5.615951
-5.858043
-6.099447
-6.340152
-6.099447
-6.340152
-6.580109
-6.819364
-6.580109
-6.819364
-7.057841
-7.295594
-7.057841
-7.295594
-7.532627
-7.768878
-7.532627
-7.768878
-8.004341
-8.239006
-8.004341
-8.239006
-8.472994
-8.706102
-8.472994
-8.706102
-8.938424
-9.169862
-8.938424
-9.169862
-9.400519
-9.630341
-9.400519
-9.630341
-9.859265
-10.087423
-9.859265
-10.087423
-10.314577
-10.540946
-10.314577
-10.540946
-10.766301
-10.990814
-10.766301
-10.990814
-11.214356
-11.436950
-11.214356
-11.436950
-11.658645
-11.879289
-11.658645
-11.879289
-12.099002
-12.317696
-12.099002
-12.317696
-12.535342
-12.752084
-12.535342
-12.752084
-12.967678
-13.182274
-12.967678
-13.182274
-13.395737
-13.608138
-13.395737
-13.608138
-13.819446
-14.029581
-13.819446
-14.029581
-14.238530
-14.446297
-14.238530
-14.446297
-14.652964
-14.858398
-14.652964
-14.858398
-15.062522
-15.265523
-15.062522
-15.265523
-15.467156
-15.667573
-15.467156
-15.667573
-15.866697
-16.064349
-15.866697
-16.064349
-16.260816
-16.455735
-16.260816
-16.455735
-16.649272
-16.841348
-16.649272
-16.841348
-17.032022
-17.221229
-17.032022
-17.221229
-17.408899
-17.594984
-17.408899
-17.594984
-17.779540
-17.962270
-17.779540
-17.962270
-18.143352
-18.322688
-18.143352
-18.322688
-18.500501
-18.676587
-18.500501
-18.676587
-18.850785
-19.023338
-18.850785
-19.023338
-19.193665
-19.362121
-19.193665
-19.362121
-19.528555
-19.693133
-19.528555
-19.693133
-19.855534
-20.015912
-19.855534
-20.015912
-20.174131
-20.330046
-20.174131
-20.330046
-20.483536
-20.635005
-20.483536
-20.635005
-20.783753
-20.930096
-20.783753
-20.930096
-21.073702
-21.214985
-21.073702
-21.214985
-21.353454
-21.489033
-21.353454
-21.489033
-21.622016
-21.751845
-21.622016
-21.751845
-21.878809
-22.002350
-21.878809
-22.002350
-22.122848
-22.239917
-22.122848
-22.239917
-22.353465
-22.463655
-22.353465
-22.463655
-22.569766
-22.672012
-22.569766
-22.672012
-22.769884
-22.864034
-22.769884
-22.864034
-22.954107
-23.039609
-22.954107
-23.039609
-23.120092
-23.195151
-23.120092
-23.195151
-23.265668
-23.330300
-23.265668
-23.330300
-23.389842
-23.442853
-23.389842
-23.442853
-23.490113
-23.530113
-23.490113
-23.530113
-23.563725
-23.588940
-23.563725
-23.588940
-23.606582
-23.615328
-23.606582
-23.615328

