# vtk DataFile Version 2.0
MATLAB generated vtk file, WMC
ASCII
DATASET UNSTRUCTURED_GRID
POINTS 128 double
0.781250 0.781250 0.465054 
0.781250 0.781250 1.395161 
0.781250 2.343750 0.465054 
0.781250 2.343750 1.395161 
2.343750 0.781250 0.465054 
2.343750 0.781250 1.395161 
2.343750 2.343750 0.465054 
2.343750 2.343750 1.395161 
0.781250 0.781250 2.330593 
0.781250 0.781250 3.283078 
0.781250 2.343750 2.330593 
0.781250 2.343750 3.283078 
2.343750 0.781250 2.330593 
2.343750 0.781250 3.283078 
2.343750 2.343750 2.330593 
2.343750 2.343750 3.283078 
0.781250 0.781250 4.244982 
0.781250 0.781250 5.217805 
0.781250 2.343750 4.244982 
0.781250 2.343750 5.217805 
2.343750 0.781250 4.244982 
2.343750 0.781250 5.217805 
2.343750 2.343750 4.244982 
2.343750 2.343750 5.217805 
0.781250 0.781250 6.203358 
0.781250 0.781250 7.201265 
0.781250 2.343750 6.203358 
0.781250 2.343750 7.201265 
2.343750 0.781250 6.203358 
2.343750 0.781250 7.201265 
2.343750 2.343750 6.203358 
2.343750 2.343750 7.201265 
0.781250 0.781250 8.210159 
0.781250 0.781250 9.233596 
0.781250 2.343750 8.210159 
0.781250 2.343750 9.233596 
2.343750 0.781250 8.210159 
2.343750 0.781250 9.233596 
2.343750 2.343750 8.210159 
2.343750 2.343750 9.233596 
0.781250 0.781250 10.270274 
0.781250 0.781250 11.320724 
0.781250 2.343750 10.270274 
0.781250 2.343750 11.320724 
2.343750 0.781250 10.270274 
2.343750 0.781250 11.320724 
2.343750 2.343750 10.270274 
2.343750 2.343750 11.320724 
0.781250 0.781250 12.386521 
0.781250 0.781250 13.466711 
0.781250 2.343750 12.386521 
0.781250 2.343750 13.466711 
2.343750 0.781250 12.386521 
2.343750 0.781250 13.466711 
2.343750 2.343750 12.386521 
2.343750 2.343750 13.466711 
0.781250 0.781250 14.562020 
0.781250 0.781250 15.674933 
0.781250 2.343750 14.562020 
0.781250 2.343750 15.674933 
2.343750 0.781250 14.562020 
2.343750 0.781250 15.674933 
2.343750 2.343750 14.562020 
2.343750 2.343750 15.674933 
0.781250 0.781250 16.802539 
0.781250 0.781250 17.947966 
0.781250 2.343750 16.802539 
0.781250 2.343750 17.947966 
2.343750 0.781250 16.802539 
2.343750 0.781250 17.947966 
2.343750 2.343750 16.802539 
2.343750 2.343750 17.947966 
0.781250 0.781250 19.114542 
0.781250 0.781250 20.298303 
0.781250 2.343750 19.114542 
0.781250 2.343750 20.298303 
2.343750 0.781250 19.114542 
2.343750 0.781250 20.298303 
2.343750 2.343750 19.114542 
2.343750 2.343750 20.298303 
0.781250 0.781250 21.503017 
0.781250 0.781250 22.728470 
0.781250 2.343750 21.503017 
0.781250 2.343750 22.728470 
2.343750 0.781250 21.503017 
2.343750 0.781250 22.728470 
2.343750 2.343750 21.503017 
2.343750 2.343750 22.728470 
0.781250 0.781250 23.975784 
0.781250 0.781250 25.246974 
0.781250 2.343750 23.975784 
0.781250 2.343750 25.246974 
2.343750 0.781250 23.975784 
2.343750 0.781250 25.246974 
2.343750 2.343750 23.975784 
2.343750 2.343750 25.246974 
0.781250 0.781250 26.544511 
0.781250 0.781250 27.868000 
0.781250 2.343750 26.544511 
0.781250 2.343750 27.868000 
2.343750 0.781250 26.544511 
2.343750 0.781250 27.868000 
2.343750 2.343750 26.544511 
2.343750 2.343750 27.868000 
0.781250 0.781250 29.217571 
0.781250 0.781250 30.596135 
0.781250 2.343750 29.217571 
0.781250 2.343750 30.596135 
2.343750 0.781250 29.217571 
2.343750 0.781250 30.596135 
2.343750 2.343750 29.217571 
2.343750 2.343750 30.596135 
0.781250 0.781250 32.006985 
0.781250 0.781250 33.453559 
0.781250 2.343750 32.006985 
0.781250 2.343750 33.453559 
2.343750 0.781250 32.006985 
2.343750 0.781250 33.453559 
2.343750 2.343750 32.006985 
2.343750 2.343750 33.453559 
0.781250 0.781250 34.933187 
0.781250 0.781250 36.441949 
0.781250 2.343750 34.933187 
0.781250 2.343750 36.441949 
2.343750 0.781250 34.933187 
2.343750 0.781250 36.441949 
2.343750 2.343750 34.933187 
2.343750 2.343750 36.441949 

POINT_DATA 128
SCALARS sigma_xx FLOAT 1
LOOKUP_TABLE default
0.000000
-0.000000
0.000000
-0.000000
-0.000000
-0.000000
0.000000
-0.000000
-0.000000
-0.000000
-0.000000
-0.000000
-0.000000
0.000000
-0.000000
-0.000000
-0.000000
0.000000
-0.000000
-0.000000
0.000000
-0.000000
0.000000
0.000000
-0.000000
-0.000000
0.000000
0.000000
0.000000
0.000000
-0.000000
-0.000000
-0.000000
-0.000000
0.000000
-0.000000
0.000000
-0.000000
-0.000000
-0.000000
-0.000000
-0.000000
-0.000000
0.000000
0.000000
-0.000000
-0.000000
-0.000000
-0.000000
-0.000000
-0.000000
-0.000000
0.000000
0.000000
0.000000
0.000000
-0.000000
-0.000000
0.000000
-0.000000
0.000000
-0.000000
-0.000000
-0.000000
0.000000
-0.000000
-0.000000
0.000000
-0.000000
-0.000000
-0.000000
-0.000000
-0.000000
0.000000
0.000000
-0.000000
-0.000000
-0.000000
0.000000
0.000000
-0.000000
-0.000000
-0.000000
0.000000
-0.000000
-0.000000
-0.000000
0.000000
0.000000
-0.000000
0.000000
-0.000000
-0.000000
0.000000
0.000000
-0.000000
0.000000
0.000000
-0.000000
0.000000
0.000000
-0.000000
0.000000
0.000000
-0.000000
-0.000000
-0.000000
0.000000
-0.000000
0.000000
-0.000000
-0.000000
0.000000
-0.000000
-0.000000
-0.000000
0.000000
0.000000
0.000000
-0.000000
-0.000000
-0.000000
0.000000
-0.000000
0.000000
-0.000000
-0.000000
0.000000

SCALARS sigma_yy FLOAT 1
LOOKUP_TABLE default
0.000000
-0.000000
0.000000
-0.000000
-0.000000
-0.000000
0.000000
0.000000
-0.000000
0.000000
0.000000
0.000000
0.000000
0.000000
-0.000000
-0.000000
0.000000
-0.000000
-0.000000
0.000000
0.000000
0.000000
-0.000000
-0.000000
0.000000
-0.000000
0.000000
0.000000
-0.000000
-0.000000
-0.000000
-0.000000
-0.000000
-0.000000
0.000000
-0.000000
0.000000
0.000000
-0.000000
-0.000000
0.000000
-0.000000
0.000000
0.000000
-0.000000
-0.000000
-0.000000
-0.000000
0.000000
0.000000
0.000000
-0.000000
-0.000000
-0.000000
0.000000
0.000000
0.000000
0.000000
0.000000
-0.000000
-0.000000
-0.000000
-0.000000
-0.000000
0.000000
-0.000000
-0.000000
0.000000
-0.000000
-0.000000
-0.000000
-0.000000
-0.000000
0.000000
0.000000
-0.000000
-0.000000
-0.000000
0.000000
0.000000
0.000000
-0.000000
0.000000
-0.000000
-0.000000
-0.000000
0.000000
-0.000000
-0.000000
-0.000000
-0.000000
-0.000000
-0.000000
-0.000000
-0.000000
0.000000
-0.000000
0.000000
-0.000000
0.000000
0.000000
-0.000000
0.000000
0.000000
-0.000000
-0.000000
0.000000
0.000000
-0.000000
0.000000
0.000000
-0.000000
-0.000000
0.000000
0.000000
0.000000
0.000000
-0.000000
-0.000000
-0.000000
-0.000000
-0.000000
0.000000
-0.000000
-0.000000
-0.000000
-0.000000
0.000000

SCALARS sigma_zz FLOAT 1
LOOKUP_TABLE default
-8714.430584
-8714.430584
-8714.430584
-8714.430584
-8714.430584
-8714.430584
-8714.430584
-8714.430584
-8333.847718
-7986.958754
-8333.847718
-7986.958754
-8333.847718
-7986.958754
-8333.847718
-7986.958754
-7740.459650
-7485.712641
-7740.459650
-7485.712641
-7740.459650
-7485.712641
-7740.459650
-7485.712641
-7130.052254
-6920.679702
-7130.052254
-6920.679702
-7130.052254
-6920.679702
-7130.052254
-6920.679702
-6608.834384
-6327.731286
-6608.834384
-6327.731286
-6608.834384
-6327.731286
-6608.834384
-6327.731286
-6034.807156
-5776.394358
-6034.807156
-5776.394358
-6034.807156
-5776.394358
-6034.807156
-5776.394358
-5454.789125
-5221.878759
-5454.789125
-5221.878759
-5454.789125
-5221.878759
-5454.789125
-5221.878759
-4903.963591
-4654.721948
-4903.963591
-4654.721948
-4903.963591
-4654.721948
-4903.963591
-4654.721948
-4365.987465
-4094.696009
-4365.987465
-4094.696009
-4365.987465
-4094.696009
-4365.987465
-4094.696009
-3765.181417
-3539.940856
-3765.181417
-3539.940856
-3765.181417
-3539.940856
-3765.181417
-3539.940856
-3215.766335
-2971.518224
-3215.766335
-2971.518224
-3215.766335
-2971.518224
-3215.766335
-2971.518224
-2672.820620
-2398.798986
-2672.820620
-2398.798986
-2672.820620
-2398.798986
-2672.820620
-2398.798986
-2080.558523
-1841.506211
-2080.558523
-1841.506211
-2080.558523
-1841.506211
-2080.558523
-1841.506211
-1549.995836
-1285.026199
-1549.995836
-1285.026199
-1549.995836
-1285.026199
-1549.995836
-1285.026199
-977.430582
-701.562757
-977.430582
-701.562757
-977.430582
-701.562757
-977.430582
-701.562757
-472.748754
-56.894024
-472.748754
-56.894024
-472.748754
-56.894024
-472.748754
-56.894024

SCALARS sigma_xy FLOAT 1
LOOKUP_TABLE default
0.000000
0.000000
-0.000000
0.000000
0.000000
0.000000
0.000000
0.000000
-0.000000
0.000000
0.000000
0.000000
0.000000
-0.000000
0.000000
-0.000000
0.000000
0.000000
0.000000
-0.000000
-0.000000
-0.000000
-0.000000
0.000000
-0.000000
0.000000
-0.000000
-0.000000
0.000000
-0.000000
-0.000000
0.000000
-0.000000
0.000000
-0.000000
0.000000
0.000000
-0.000000
-0.000000
0.000000
0.000000
-0.000000
0.000000
-0.000000
0.000000
-0.000000
0.000000
-0.000000
0.000000
0.000000
0.000000
0.000000
0.000000
0.000000
-0.000000
-0.000000
0.000000
0.000000
-0.000000
-0.000000
0.000000
0.000000
-0.000000
-0.000000
-0.000000
0.000000
0.000000
-0.000000
-0.000000
0.000000
0.000000
-0.000000
-0.000000
0.000000
-0.000000
-0.000000
0.000000
0.000000
0.000000
-0.000000
-0.000000
-0.000000
-0.000000
0.000000
-0.000000
-0.000000
0.000000
0.000000
0.000000
-0.000000
-0.000000
-0.000000
0.000000
0.000000
-0.000000
-0.000000
-0.000000
0.000000
0.000000
0.000000
-0.000000
-0.000000
-0.000000
-0.000000
0.000000
-0.000000
0.000000
-0.000000
-0.000000
0.000000
0.000000
0.000000
-0.000000
0.000000
0.000000
-0.000000
-0.000000
0.000000
-0.000000
-0.000000
0.000000
-0.000000
0.000000
-0.000000
-0.000000
-0.000000
-0.000000
-0.000000

SCALARS sigma_yz FLOAT 1
LOOKUP_TABLE default
0.000000
-0.000000
0.000000
0.000000
-0.000000
0.000000
-0.000000
0.000000
-0.000000
0.000000
-0.000000
0.000000
-0.000000
0.000000
0.000000
0.000000
0.000000
0.000000
0.000000
0.000000
0.000000
0.000000
0.000000
0.000000
-0.000000
-0.000000
0.000000
0.000000
0.000000
0.000000
0.000000
0.000000
-0.000000
-0.000000
-0.000000
-0.000000
0.000000
-0.000000
0.000000
0.000000
-0.000000
0.000000
-0.000000
0.000000
0.000000
-0.000000
0.000000
0.000000
-0.000000
-0.000000
0.000000
0.000000
-0.000000
0.000000
0.000000
0.000000
-0.000000
-0.000000
0.000000
0.000000
-0.000000
0.000000
0.000000
0.000000
-0.000000
0.000000
0.000000
0.000000
0.000000
-0.000000
0.000000
0.000000
0.000000
-0.000000
0.000000
0.000000
-0.000000
-0.000000
0.000000
0.000000
-0.000000
-0.000000
-0.000000
-0.000000
-0.000000
-0.000000
-0.000000
0.000000
0.000000
-0.000000
0.000000
0.000000
-0.000000
-0.000000
-0.000000
0.000000
-0.000000
-0.000000
0.000000
0.000000
-0.000000
-0.000000
0.000000
0.000000
0.000000
0.000000
0.000000
0.000000
-0.000000
-0.000000
0.000000
-0.000000
-0.000000
-0.000000
0.000000
0.000000
-0.000000
-0.000000
0.000000
0.000000
-0.000000
-0.000000
0.000000
0.000000
-0.000000
-0.000000
0.000000
0.000000

SCALARS sigma_zx FLOAT 1
LOOKUP_TABLE default
0.000000
-0.000000
0.000000
0.000000
-0.000000
0.000000
-0.000000
0.000000
-0.000000
0.000000
-0.000000
0.000000
-0.000000
0.000000
0.000000
0.000000
0.000000
0.000000
0.000000
-0.000000
-0.000000
0.000000
0.000000
0.000000
-0.000000
0.000000
-0.000000
-0.000000
0.000000
0.000000
0.000000
-0.000000
-0.000000
0.000000
0.000000
0.000000
0.000000
-0.000000
0.000000
0.000000
-0.000000
-0.000000
-0.000000
-0.000000
0.000000
-0.000000
0.000000
-0.000000
-0.000000
-0.000000
-0.000000
-0.000000
0.000000
-0.000000
0.000000
0.000000
-0.000000
-0.000000
0.000000
-0.000000
-0.000000
-0.000000
0.000000
0.000000
-0.000000
0.000000
0.000000
0.000000
0.000000
0.000000
-0.000000
0.000000
0.000000
-0.000000
0.000000
-0.000000
0.000000
-0.000000
0.000000
0.000000
-0.000000
-0.000000
-0.000000
-0.000000
-0.000000
0.000000
-0.000000
-0.000000
-0.000000
-0.000000
-0.000000
-0.000000
0.000000
0.000000
-0.000000
0.000000
0.000000
0.000000
-0.000000
-0.000000
0.000000
0.000000
-0.000000
0.000000
-0.000000
0.000000
0.000000
-0.000000
0.000000
0.000000
0.000000
0.000000
-0.000000
-0.000000
-0.000000
-0.000000
0.000000
0.000000
0.000000
0.000000
0.000000
-0.000000
0.000000
-0.000000
0.000000
-0.000000
0.000000
0.000000

SCALARS u_x FLOAT 1
LOOKUP_TABLE default
0.000000
0.000000
0.000000
0.000000
0.000000
0.000000
0.000000
0.000000
0.000000
0.000000
0.000000
0.000000
0.000000
0.000000
0.000000
0.000000
0.000000
0.000000
0.000000
0.000000
0.000000
0.000000
0.000000
0.000000
0.000000
0.000000
0.000000
0.000000
0.000000
0.000000
0.000000
0.000000
0.000000
0.000000
0.000000
0.000000
0.000000
0.000000
0.000000
0.000000
0.000000
0.000000
0.000000
0.000000
0.000000
0.000000
0.000000
0.000000
0.000000
0.000000
0.000000
0.000000
0.000000
0.000000
0.000000
0.000000
0.000000
0.000000
0.000000
0.000000
0.000000
0.000000
0.000000
0.000000
0.000000
0.000000
0.000000
0.000000
0.000000
0.000000
0.000000
0.000000
0.000000
0.000000
0.000000
0.000000
0.000000
0.000000
0.000000
0.000000
0.000000
0.000000
0.000000
0.000000
0.000000
0.000000
0.000000
0.000000
0.000000
0.000000
0.000000
0.000000
0.000000
0.000000
0.000000
0.000000
0.000000
0.000000
0.000000
0.000000
0.000000
0.000000
0.000000
0.000000
0.000000
0.000000
0.000000
0.000000
0.000000
0.000000
0.000000
0.000000
0.000000
0.000000
0.000000
0.000000
0.000000
0.000000
0.000000
0.000000
0.000000
0.000000
0.000000
0.000000
0.000000
0.000000
0.000000
0.000000

SCALARS u_y FLOAT 1
LOOKUP_TABLE default
0.000000
0.000000
0.000000
0.000000
0.000000
0.000000
0.000000
0.000000
0.000000
0.000000
0.000000
0.000000
0.000000
0.000000
0.000000
0.000000
0.000000
0.000000
0.000000
0.000000
0.000000
0.000000
0.000000
0.000000
0.000000
0.000000
0.000000
0.000000
0.000000
0.000000
0.000000
0.000000
0.000000
0.000000
0.000000
0.000000
0.000000
0.000000
0.000000
0.000000
0.000000
0.000000
0.000000
0.000000
0.000000
0.000000
0.000000
0.000000
0.000000
0.000000
0.000000
0.000000
0.000000
0.000000
0.000000
0.000000
0.000000
0.000000
0.000000
0.000000
0.000000
0.000000
0.000000
0.000000
0.000000
0.000000
0.000000
0.000000
0.000000
0.000000
0.000000
0.000000
0.000000
0.000000
0.000000
0.000000
0.000000
0.000000
0.000000
0.000000
0.000000
0.000000
0.000000
0.000000
0.000000
0.000000
0.000000
0.000000
0.000000
0.000000
0.000000
0.000000
0.000000
0.000000
0.000000
0.000000
0.000000
0.000000
0.000000
0.000000
0.000000
0.000000
0.000000
0.000000
0.000000
0.000000
0.000000
0.000000
0.000000
0.000000
0.000000
0.000000
0.000000
0.000000
0.000000
0.000000
0.000000
0.000000
0.000000
0.000000
0.000000
0.000000
0.000000
0.000000
0.000000
0.000000
0.000000
0.000000

SCALARS u_z FLOAT 1
LOOKUP_TABLE default
-0.316196
-0.948589
-0.316196
-0.948589
-0.316196
-0.948589
-0.316196
-0.948589
-1.575657
-2.185672
-1.575657
-2.185672
-1.575657
-2.185672
-1.575657
-2.185672
-2.786268
-3.375945
-2.786268
-3.375945
-2.786268
-3.375945
-2.786268
-3.375945
-3.952892
-4.517485
-3.952892
-4.517485
-3.952892
-4.517485
-3.952892
-4.517485
-5.071091
-5.610154
-5.071091
-5.610154
-5.071091
-5.610154
-5.071091
-5.610154
-6.135976
-6.648026
-6.135976
-6.648026
-6.135976
-6.648026
-6.135976
-6.648026
-7.144729
-7.627039
-7.144729
-7.627039
-7.144729
-7.627039
-7.144729
-7.627039
-8.094230
-8.543817
-8.094230
-8.543817
-8.094230
-8.543817
-8.094230
-8.543817
-8.978711
-9.395784
-8.978711
-9.395784
-8.978711
-9.395784
-8.978711
-9.395784
-9.791708
-10.170447
-9.791708
-10.170447
-9.791708
-10.170447
-9.791708
-10.170447
-10.528233
-10.865280
-10.528233
-10.865280
-10.528233
-10.865280
-10.528233
-10.865280
-11.180466
-11.471776
-11.180466
-11.471776
-11.180466
-11.471776
-11.180466
-11.471776
-11.736739
-11.975750
-11.736739
-11.975750
-11.736739
-11.975750
-11.736739
-11.975750
-12.188679
-12.372615
-12.188679
-12.372615
-12.188679
-12.372615
-12.188679
-12.372615
-12.524265
-12.640191
-12.524265
-12.640191
-12.524265
-12.640191
-12.524265
-12.640191
-12.723063
-12.776801
-12.723063
-12.776801
-12.723063
-12.776801
-12.723063
-12.776801

