# vtk DataFile Version 2.0
MATLAB generated vtk file, WMC
ASCII
DATASET UNSTRUCTURED_GRID
POINTS 256 double
0.195312 0.069893 0.000000 
0.195312 0.209679 0.000000 
0.585938 0.069893 0.000000 
0.585938 0.209679 0.000000 
0.195312 0.349658 0.000000 
0.195312 0.490272 0.000000 
0.585938 0.349658 0.000000 
0.585938 0.490272 0.000000 
0.195312 0.631508 0.000000 
0.195312 0.773484 0.000000 
0.585938 0.631508 0.000000 
0.585938 0.773484 0.000000 
0.195312 0.916051 0.000000 
0.195312 1.059141 0.000000 
0.585938 0.916051 0.000000 
0.585938 1.059141 0.000000 
0.195312 1.202775 0.000000 
0.195312 1.347047 0.000000 
0.585938 1.202775 0.000000 
0.585938 1.347047 0.000000 
0.195312 1.491965 0.000000 
0.195312 1.637549 0.000000 
0.585938 1.491965 0.000000 
0.585938 1.637549 0.000000 
0.195312 1.783695 0.000000 
0.195312 1.930461 0.000000 
0.585938 1.783695 0.000000 
0.585938 1.930461 0.000000 
0.195312 2.077838 0.000000 
0.195312 2.225892 0.000000 
0.585938 2.077838 0.000000 
0.585938 2.225892 0.000000 
0.195312 2.374610 0.000000 
0.195312 2.523951 0.000000 
0.585938 2.374610 0.000000 
0.585938 2.523951 0.000000 
0.195312 2.673926 0.000000 
0.195312 2.824564 0.000000 
0.585938 2.673926 0.000000 
0.585938 2.824564 0.000000 
0.195312 2.975924 0.000000 
0.195312 3.128005 0.000000 
0.585938 2.975924 0.000000 
0.585938 3.128005 0.000000 
0.195312 3.280786 0.000000 
0.195312 3.434207 0.000000 
0.585938 3.280786 0.000000 
0.585938 3.434207 0.000000 
0.195312 3.588339 0.000000 
0.195312 3.743192 0.000000 
0.585938 3.588339 0.000000 
0.585938 3.743192 0.000000 
0.195312 3.898816 0.000000 
0.195312 4.055119 0.000000 
0.585938 3.898816 0.000000 
0.585938 4.055119 0.000000 
0.195312 4.212203 0.000000 
0.195312 4.370036 0.000000 
0.585938 4.212203 0.000000 
0.585938 4.370036 0.000000 
0.195312 4.528612 0.000000 
0.195312 4.687988 0.000000 
0.585938 4.528612 0.000000 
0.585938 4.687988 0.000000 
0.195312 4.848133 0.000000 
0.195312 5.009090 0.000000 
0.585938 4.848133 0.000000 
0.585938 5.009090 0.000000 
0.195312 5.170745 0.000000 
0.195312 5.333308 0.000000 
0.585938 5.170745 0.000000 
0.585938 5.333308 0.000000 
0.195312 5.496673 0.000000 
0.195312 5.660894 0.000000 
0.585938 5.496673 0.000000 
0.585938 5.660894 0.000000 
0.195312 5.825903 0.000000 
0.195312 5.991773 0.000000 
0.585938 5.825903 0.000000 
0.585938 5.991773 0.000000 
0.195312 6.158571 0.000000 
0.195312 6.326164 0.000000 
0.585938 6.158571 0.000000 
0.585938 6.326164 0.000000 
0.195312 6.494751 0.000000 
0.195312 6.664130 0.000000 
0.585938 6.494751 0.000000 
0.585938 6.664130 0.000000 
0.195312 6.834557 0.000000 
0.195312 7.005844 0.000000 
0.585938 6.834557 0.000000 
0.585938 7.005844 0.000000 
0.195312 7.178046 0.000000 
0.195312 7.351184 0.000000 
0.585938 7.178046 0.000000 
0.585938 7.351184 0.000000 
0.195312 7.525250 0.000000 
0.195312 7.700397 0.000000 
0.585938 7.525250 0.000000 
0.585938 7.700397 0.000000 
0.195312 7.876507 0.000000 
0.195312 8.053630 0.000000 
0.585938 7.876507 0.000000 
0.585938 8.053630 0.000000 
0.195312 8.231807 0.000000 
0.195312 8.410915 0.000000 
0.585938 8.231807 0.000000 
0.585938 8.410915 0.000000 
0.195312 8.591199 0.000000 
0.195312 8.772469 0.000000 
0.585938 8.591199 0.000000 
0.585938 8.772469 0.000000 
0.195312 8.954901 0.000000 
0.195312 9.138426 0.000000 
0.585938 8.954901 0.000000 
0.585938 9.138426 0.000000 
0.195312 9.323074 0.000000 
0.195312 9.508846 0.000000 
0.585938 9.323074 0.000000 
0.585938 9.508846 0.000000 
0.195312 9.695728 0.000000 
0.195312 9.883808 0.000000 
0.585938 9.695728 0.000000 
0.585938 9.883808 0.000000 
0.195312 10.073020 0.000000 
0.195312 10.263493 0.000000 
0.585938 10.073020 0.000000 
0.585938 10.263493 0.000000 
0.195312 10.455280 0.000000 
0.195312 10.648209 0.000000 
0.585938 10.455280 0.000000 
0.585938 10.648209 0.000000 
0.195312 10.842546 0.000000 
0.195312 11.038095 0.000000 
0.585938 10.842546 0.000000 
0.585938 11.038095 0.000000 
0.195312 11.234916 0.000000 
0.195312 11.433237 0.000000 
0.585938 11.234916 0.000000 
0.585938 11.433237 0.000000 
0.195312 11.632777 0.000000 
0.195312 11.833843 0.000000 
0.585938 11.632777 0.000000 
0.585938 11.833843 0.000000 
0.195312 12.036187 0.000000 
0.195312 12.239979 0.000000 
0.585938 12.036187 0.000000 
0.585938 12.239979 0.000000 
0.195312 12.445210 0.000000 
0.195312 12.651958 0.000000 
0.585938 12.445210 0.000000 
0.585938 12.651958 0.000000 
0.195312 12.860332 0.000000 
0.195312 13.070349 0.000000 
0.585938 12.860332 0.000000 
0.585938 13.070349 0.000000 
0.195312 13.281917 0.000000 
0.195312 13.495201 0.000000 
0.585938 13.281917 0.000000 
0.585938 13.495201 0.000000 
0.195312 13.709966 0.000000 
0.195312 13.926492 0.000000 
0.585938 13.709966 0.000000 
0.585938 13.926492 0.000000 
0.195312 14.144573 0.000000 
0.195312 14.364471 0.000000 
0.585938 14.144573 0.000000 
0.585938 14.364471 0.000000 
0.195312 14.586385 0.000000 
0.195312 14.809978 0.000000 
0.585938 14.586385 0.000000 
0.585938 14.809978 0.000000 
0.195312 15.035722 0.000000 
0.195312 15.263129 0.000000 
0.585938 15.035722 0.000000 
0.585938 15.263129 0.000000 
0.195312 15.492543 0.000000 
0.195312 15.723830 0.000000 
0.585938 15.492543 0.000000 
0.585938 15.723830 0.000000 
0.195312 15.957311 0.000000 
0.195312 16.192866 0.000000 
0.585938 15.957311 0.000000 
0.585938 16.192866 0.000000 
0.195312 16.430600 0.000000 
0.195312 16.670556 0.000000 
0.585938 16.430600 0.000000 
0.585938 16.670556 0.000000 
0.195312 16.912914 0.000000 
0.195312 17.157330 0.000000 
0.585938 16.912914 0.000000 
0.585938 17.157330 0.000000 
0.195312 17.404514 0.000000 
0.195312 17.653939 0.000000 
0.585938 17.404514 0.000000 
0.585938 17.653939 0.000000 
0.195312 17.906089 0.000000 
0.195312 18.160433 0.000000 
0.585938 17.906089 0.000000 
0.585938 18.160433 0.000000 
0.195312 18.417644 0.000000 
0.195312 18.677826 0.000000 
0.585938 18.417644 0.000000 
0.585938 18.677826 0.000000 
0.195312 18.940541 0.000000 
0.195312 19.206271 0.000000 
0.585938 18.940541 0.000000 
0.585938 19.206271 0.000000 
0.195312 19.474847 0.000000 
0.195312 19.746835 0.000000 
0.585938 19.474847 0.000000 
0.585938 19.746835 0.000000 
0.195312 20.021697 0.000000 
0.195312 20.299970 0.000000 
0.585938 20.021697 0.000000 
0.585938 20.299970 0.000000 
0.195312 20.581816 0.000000 
0.195312 20.867149 0.000000 
0.585938 20.581816 0.000000 
0.585938 20.867149 0.000000 
0.195312 21.156486 0.000000 
0.195312 21.449097 0.000000 
0.585938 21.156486 0.000000 
0.585938 21.449097 0.000000 
0.195312 21.745559 0.000000 
0.195312 22.045921 0.000000 
0.585938 21.745559 0.000000 
0.585938 22.045921 0.000000 
0.195312 22.350888 0.000000 
0.195312 22.660623 0.000000 
0.585938 22.350888 0.000000 
0.585938 22.660623 0.000000 
0.195312 22.974636 0.000000 
0.195312 23.293359 0.000000 
0.585938 22.974636 0.000000 
0.585938 23.293359 0.000000 
0.195312 23.616684 0.000000 
0.195312 23.945857 0.000000 
0.585938 23.616684 0.000000 
0.585938 23.945857 0.000000 
0.195312 24.280018 0.000000 
0.195312 24.620655 0.000000 
0.585938 24.280018 0.000000 
0.585938 24.620655 0.000000 
0.195312 24.967034 0.000000 
0.195312 25.320149 0.000000 
0.585938 24.967034 0.000000 
0.585938 25.320149 0.000000 
0.195312 25.679250 0.000000 
0.195312 26.046235 0.000000 
0.585938 25.679250 0.000000 
0.585938 26.046235 0.000000 
0.195312 26.419961 0.000000 
0.195312 26.802149 0.000000 
0.585938 26.419961 0.000000 
0.585938 26.802149 0.000000 

POINT_DATA 256
SCALARS sigma_xx FLOAT 1
LOOKUP_TABLE default
0.000000
-0.000000
0.000000
-0.000000
0.000000
-0.000000
-0.000000
-0.000000
-0.000000
-0.000000
-0.000000
-0.000000
-0.000000
-0.000000
-0.000000
-0.000000
-0.000000
-0.000000
-0.000000
-0.000000
-0.000000
-0.000000
-0.000000
-0.000000
-0.000000
-0.000000
-0.000000
-0.000000
-0.000000
-0.000000
-0.000000
-0.000000
0.000000
0.000000
0.000000
0.000000
0.000000
0.000000
0.000000
0.000000
0.000000
-0.000000
0.000000
-0.000000
-0.000000
-0.000000
-0.000000
-0.000000
-0.000000
-0.000000
-0.000000
-0.000000
0.000000
-0.000000
0.000000
-0.000000
-0.000000
-0.000000
-0.000000
-0.000000
-0.000000
-0.000000
-0.000000
-0.000000
0.000000
-0.000000
0.000000
-0.000000
-0.000000
-0.000000
-0.000000
-0.000000
-0.000000
-0.000000
-0.000000
-0.000000
-0.000000
-0.000000
-0.000000
-0.000000
-0.000000
-0.000000
-0.000000
-0.000000
-0.000000
-0.000000
-0.000000
-0.000000
-0.000000
-0.000000
-0.000000
-0.000000
-0.000000
-0.000000
-0.000000
-0.000000
-0.000000
-0.000000
0.000000
-0.000000
-0.000000
-0.000000
-0.000000
-0.000000
-0.000000
-0.000000
-0.000000
-0.000000
-0.000000
-0.000000
-0.000000
-0.000000
-0.000000
-0.000000
-0.000000
-0.000000
0.000000
0.000000
0.000000
0.000000
0.000000
-0.000000
0.000000
-0.000000
-0.000000
-0.000000
0.000000
-0.000000
-0.000000
-0.000000
-0.000000
-0.000000
-0.000000
-0.000000
-0.000000
-0.000000
-0.000000
-0.000000
-0.000000
-0.000000
-0.000000
-0.000000
-0.000000
-0.000000
-0.000000
-0.000000
-0.000000
-0.000000
-0.000000
-0.000000
-0.000000
-0.000000
-0.000000
-0.000000
-0.000000
-0.000000
-0.000000
-0.000000
-0.000000
-0.000000
0.000000
-0.000000
-0.000000
-0.000000
-0.000000
-0.000000
-0.000000
-0.000000
0.000000
-0.000000
0.000000
-0.000000
-0.000000
-0.000000
-0.000000
-0.000000
-0.000000
-0.000000
-0.000000
-0.000000
-0.000000
-0.000000
-0.000000
-0.000000
-0.000000
-0.000000
-0.000000
-0.000000
-0.000000
-0.000000
-0.000000
-0.000000
-0.000000
-0.000000
-0.000000
-0.000000
-0.000000
-0.000000
-0.000000
-0.000000
-0.000000
-0.000000
-0.000000
-0.000000
0.000000
-0.000000
0.000000
-0.000000
-0.000000
-0.000000
-0.000000
-0.000000
0.000000
-0.000000
0.000000
-0.000000
-0.000000
-0.000000
-0.000000
-0.000000
-0.000000
-0.000000
-0.000000
-0.000000
-0.000000
-0.000000
-0.000000
-0.000000
-0.000000
-0.000000
-0.000000
-0.000000
-0.000000
-0.000000
0.000000
-0.000000
-0.000000
-0.000000
-0.000000
-0.000000
0.000000
-0.000000
0.000000
-0.000000
-0.000000
-0.000000
0.000000
-0.000000
-0.000000
-0.000000
-0.000000
-0.000000
0.000000
-0.000000
0.000000
-0.000000

SCALARS sigma_yy FLOAT 1
LOOKUP_TABLE default
-28716.650776
-28716.650776
-28716.650776
-28716.650776
-28511.259210
-28273.998656
-28511.259210
-28273.998656
-27981.448268
-27728.309569
-27981.448268
-27728.309569
-27506.227887
-27325.511376
-27506.227887
-27325.511376
-27084.206491
-26856.396533
-27084.206491
-26856.396533
-26594.574605
-26388.184964
-26594.574605
-26388.184964
-26160.597949
-25953.125272
-26160.597949
-25953.125272
-25711.527908
-25484.391775
-25711.527908
-25484.391775
-25243.802728
-25052.498620
-25243.802728
-25052.498620
-24812.763824
-24604.191847
-24812.763824
-24604.191847
-24341.900523
-24119.322810
-24341.900523
-24119.322810
-23882.681685
-23699.261984
-23882.681685
-23699.261984
-23447.201935
-23232.858789
-23447.201935
-23232.858789
-22979.258547
-22782.354429
-22979.258547
-22782.354429
-22531.205376
-22330.128493
-22531.205376
-22330.128493
-22072.592469
-21869.988962
-22072.592469
-21869.988962
-21635.190651
-21412.985445
-21635.190651
-21412.985445
-21192.581682
-20964.086080
-21192.581682
-20964.086080
-20726.096801
-20505.944101
-20726.096801
-20505.944101
-20283.182167
-20061.983790
-20283.182167
-20061.983790
-19810.988180
-19606.117585
-19810.988180
-19606.117585
-19367.123938
-19151.045054
-19367.123938
-19151.045054
-18887.983748
-18701.767647
-18887.983748
-18701.767647
-18461.748447
-18252.056200
-18461.748447
-18252.056200
-18017.318756
-17779.915848
-18017.318756
-17779.915848
-17550.209393
-17332.753763
-17550.209393
-17332.753763
-17098.160097
-16888.930817
-17098.160097
-16888.930817
-16650.382613
-16431.915420
-16650.382613
-16431.915420
-16178.706576
-15974.195987
-16178.706576
-15974.195987
-15726.239864
-15525.573148
-15726.239864
-15525.573148
-15292.833722
-15079.536973
-15292.833722
-15079.536973
-14833.935586
-14627.824711
-14833.935586
-14627.824711
-14369.229677
-14176.139926
-14369.229677
-14176.139926
-13912.027904
-13717.556500
-13912.027904
-13717.556500
-13470.696093
-13262.634420
-13470.696093
-13262.634420
-13019.043484
-12805.599519
-13019.043484
-12805.599519
-12580.653669
-12362.496512
-12580.653669
-12362.496512
-12135.933392
-11910.803867
-12135.933392
-11910.803867
-11651.009812
-11433.151425
-11651.009812
-11433.151425
-11206.238496
-10972.485337
-11206.238496
-10972.485337
-10775.355240
-10536.433211
-10775.355240
-10536.433211
-10329.284701
-10075.087279
-10329.284701
-10075.087279
-9856.381067
-9611.790842
-9856.381067
-9611.790842
-9389.829068
-9179.679232
-9389.829068
-9179.679232
-8951.037557
-8732.647348
-8951.037557
-8732.647348
-8506.007289
-8267.494106
-8506.007289
-8267.494106
-8054.279847
-7810.139614
-8054.279847
-7810.139614
-7591.509047
-7368.905416
-7591.509047
-7368.905416
-7117.742432
-6917.323136
-7117.742432
-6917.323136
-6667.937510
-6484.613094
-6667.937510
-6484.613094
-6210.476628
-6004.711202
-6210.476628
-6004.711202
-5779.225097
-5560.267816
-5779.225097
-5560.267816
-5327.640888
-5092.241270
-5327.640888
-5092.241270
-4874.597943
-4646.617473
-4874.597943
-4646.617473
-4413.011953
-4175.190772
-4413.011953
-4175.190772
-3944.861789
-3755.467186
-3944.861789
-3755.467186
-3521.584743
-3307.545876
-3521.584743
-3307.545876
-3038.377744
-2826.995571
-3038.377744
-2826.995571
-2593.303371
-2403.222985
-2593.303371
-2403.222985
-2150.475309
-1936.475961
-2150.475309
-1936.475961
-1697.508151
-1464.729082
-1697.508151
-1464.729082
-1233.310207
-1021.142108
-1233.310207
-1021.142108
-785.858268
-563.793295
-785.858268
-563.793295
-345.412172
-106.177013
-345.412172
-106.177013

SCALARS sigma_zz FLOAT 1
LOOKUP_TABLE default
0.000000
0.000000
0.000000
0.000000
0.000000
0.000000
0.000000
0.000000
0.000000
0.000000
0.000000
0.000000
0.000000
0.000000
0.000000
0.000000
0.000000
0.000000
0.000000
0.000000
0.000000
0.000000
0.000000
0.000000
0.000000
0.000000
0.000000
0.000000
0.000000
0.000000
0.000000
0.000000
0.000000
0.000000
0.000000
0.000000
0.000000
0.000000
0.000000
0.000000
0.000000
0.000000
0.000000
0.000000
0.000000
0.000000
0.000000
0.000000
0.000000
0.000000
0.000000
0.000000
0.000000
0.000000
0.000000
0.000000
0.000000
0.000000
0.000000
0.000000
0.000000
0.000000
0.000000
0.000000
0.000000
0.000000
0.000000
0.000000
0.000000
0.000000
0.000000
0.000000
0.000000
0.000000
0.000000
0.000000
0.000000
0.000000
0.000000
0.000000
0.000000
0.000000
0.000000
0.000000
0.000000
0.000000
0.000000
0.000000
0.000000
0.000000
0.000000
0.000000
0.000000
0.000000
0.000000
0.000000
0.000000
0.000000
0.000000
0.000000
0.000000
0.000000
0.000000
0.000000
0.000000
0.000000
0.000000
0.000000
0.000000
0.000000
0.000000
0.000000
0.000000
0.000000
0.000000
0.000000
0.000000
0.000000
0.000000
0.000000
0.000000
0.000000
0.000000
0.000000
0.000000
0.000000
0.000000
0.000000
0.000000
0.000000
0.000000
0.000000
0.000000
0.000000
0.000000
0.000000
0.000000
0.000000
0.000000
0.000000
0.000000
0.000000
0.000000
0.000000
0.000000
0.000000
0.000000
0.000000
0.000000
0.000000
0.000000
0.000000
0.000000
0.000000
0.000000
0.000000
0.000000
0.000000
0.000000
0.000000
0.000000
0.000000
0.000000
0.000000
0.000000
0.000000
0.000000
0.000000
0.000000
0.000000
0.000000
0.000000
0.000000
0.000000
0.000000
0.000000
0.000000
0.000000
0.000000
0.000000
0.000000
0.000000
0.000000
0.000000
0.000000
0.000000
0.000000
0.000000
0.000000
0.000000
0.000000
0.000000
0.000000
0.000000
0.000000
0.000000
0.000000
0.000000
0.000000
0.000000
0.000000
0.000000
0.000000
0.000000
0.000000
0.000000
0.000000
0.000000
0.000000
0.000000
0.000000
0.000000
0.000000
0.000000
0.000000
0.000000
0.000000
0.000000
0.000000
0.000000
0.000000
0.000000
0.000000
0.000000
0.000000
0.000000
0.000000
0.000000
0.000000
0.000000
0.000000
0.000000
0.000000
0.000000
0.000000
0.000000
0.000000
0.000000
0.000000
0.000000
0.000000
0.000000
0.000000
0.000000
0.000000
0.000000
0.000000
0.000000
0.000000
0.000000
0.000000
0.000000
0.000000
0.000000
0.000000
0.000000

SCALARS sigma_xy FLOAT 1
LOOKUP_TABLE default
0.000000
0.000000
0.000000
0.000000
0.000000
0.000000
0.000000
0.000000
0.000000
0.000000
0.000000
0.000000
0.000000
0.000000
0.000000
0.000000
0.000000
0.000000
0.000000
0.000000
0.000000
0.000000
0.000000
0.000000
0.000000
-0.000000
0.000000
-0.000000
-0.000000
-0.000000
-0.000000
-0.000000
0.000000
0.000000
0.000000
0.000000
0.000000
0.000000
0.000000
0.000000
0.000000
-0.000000
0.000000
-0.000000
-0.000000
-0.000000
-0.000000
-0.000000
-0.000000
-0.000000
-0.000000
-0.000000
0.000000
0.000000
0.000000
0.000000
0.000000
0.000000
0.000000
0.000000
0.000000
0.000000
0.000000
0.000000
0.000000
-0.000000
0.000000
-0.000000
-0.000000
-0.000000
-0.000000
-0.000000
-0.000000
-0.000000
-0.000000
-0.000000
0.000000
0.000000
0.000000
0.000000
0.000000
0.000000
0.000000
0.000000
0.000000
-0.000000
0.000000
-0.000000
-0.000000
-0.000000
-0.000000
-0.000000
-0.000000
-0.000000
-0.000000
-0.000000
0.000000
-0.000000
0.000000
-0.000000
-0.000000
-0.000000
-0.000000
-0.000000
-0.000000
0.000000
-0.000000
0.000000
0.000000
0.000000
0.000000
0.000000
0.000000
0.000000
0.000000
0.000000
0.000000
0.000000
0.000000
0.000000
0.000000
0.000000
0.000000
0.000000
-0.000000
-0.000000
0.000000
-0.000000
-0.000000
-0.000000
-0.000000
-0.000000
0.000000
0.000000
0.000000
0.000000
0.000000
0.000000
0.000000
0.000000
0.000000
-0.000000
0.000000
-0.000000
-0.000000
-0.000000
-0.000000
-0.000000
0.000000
0.000000
0.000000
0.000000
-0.000000
0.000000
-0.000000
0.000000
-0.000000
-0.000000
-0.000000
-0.000000
0.000000
-0.000000
0.000000
-0.000000
-0.000000
-0.000000
-0.000000
-0.000000
0.000000
0.000000
0.000000
0.000000
-0.000000
0.000000
-0.000000
0.000000
0.000000
0.000000
0.000000
0.000000
0.000000
-0.000000
0.000000
-0.000000
-0.000000
-0.000000
-0.000000
-0.000000
0.000000
0.000000
0.000000
0.000000
0.000000
-0.000000
0.000000
-0.000000
-0.000000
0.000000
-0.000000
0.000000
0.000000
0.000000
0.000000
0.000000
0.000000
-0.000000
0.000000
-0.000000
0.000000
-0.000000
0.000000
-0.000000
0.000000
-0.000000
0.000000
-0.000000
0.000000
0.000000
0.000000
0.000000
-0.000000
0.000000
-0.000000
0.000000
0.000000
0.000000
0.000000
0.000000
0.000000
0.000000
0.000000
0.000000
0.000000
0.000000
0.000000
0.000000
-0.000000
-0.000000
-0.000000
-0.000000
0.000000
0.000000
0.000000
0.000000
0.000000
0.000000
0.000000
0.000000
0.000000
0.000000
0.000000
0.000000
0.000000
-0.000000
0.000000
-0.000000

SCALARS sigma_yz FLOAT 1
LOOKUP_TABLE default
0.000000
0.000000
0.000000
0.000000
0.000000
0.000000
0.000000
0.000000
0.000000
0.000000
0.000000
0.000000
0.000000
0.000000
0.000000
0.000000
0.000000
0.000000
0.000000
0.000000
0.000000
0.000000
0.000000
0.000000
0.000000
0.000000
0.000000
0.000000
0.000000
0.000000
0.000000
0.000000
0.000000
0.000000
0.000000
0.000000
0.000000
0.000000
0.000000
0.000000
0.000000
0.000000
0.000000
0.000000
0.000000
0.000000
0.000000
0.000000
0.000000
0.000000
0.000000
0.000000
0.000000
0.000000
0.000000
0.000000
0.000000
0.000000
0.000000
0.000000
0.000000
0.000000
0.000000
0.000000
0.000000
0.000000
0.000000
0.000000
0.000000
0.000000
0.000000
0.000000
0.000000
0.000000
0.000000
0.000000
0.000000
0.000000
0.000000
0.000000
0.000000
0.000000
0.000000
0.000000
0.000000
0.000000
0.000000
0.000000
0.000000
0.000000
0.000000
0.000000
0.000000
0.000000
0.000000
0.000000
0.000000
0.000000
0.000000
0.000000
0.000000
0.000000
0.000000
0.000000
0.000000
0.000000
0.000000
0.000000
0.000000
0.000000
0.000000
0.000000
0.000000
0.000000
0.000000
0.000000
0.000000
0.000000
0.000000
0.000000
0.000000
0.000000
0.000000
0.000000
0.000000
0.000000
0.000000
0.000000
0.000000
0.000000
0.000000
0.000000
0.000000
0.000000
0.000000
0.000000
0.000000
0.000000
0.000000
0.000000
0.000000
0.000000
0.000000
0.000000
0.000000
0.000000
0.000000
0.000000
0.000000
0.000000
0.000000
0.000000
0.000000
0.000000
0.000000
0.000000
0.000000
0.000000
0.000000
0.000000
0.000000
0.000000
0.000000
0.000000
0.000000
0.000000
0.000000
0.000000
0.000000
0.000000
0.000000
0.000000
0.000000
0.000000
0.000000
0.000000
0.000000
0.000000
0.000000
0.000000
0.000000
0.000000
0.000000
0.000000
0.000000
0.000000
0.000000
0.000000
0.000000
0.000000
0.000000
0.000000
0.000000
0.000000
0.000000
0.000000
0.000000
0.000000
0.000000
0.000000
0.000000
0.000000
0.000000
0.000000
0.000000
0.000000
0.000000
0.000000
0.000000
0.000000
0.000000
0.000000
0.000000
0.000000
0.000000
0.000000
0.000000
0.000000
0.000000
0.000000
0.000000
0.000000
0.000000
0.000000
0.000000
0.000000
0.000000
0.000000
0.000000
0.000000
0.000000
0.000000
0.000000
0.000000
0.000000
0.000000
0.000000
0.000000
0.000000
0.000000
0.000000
0.000000
0.000000
0.000000
0.000000
0.000000
0.000000
0.000000
0.000000
0.000000
0.000000
0.000000
0.000000
0.000000
0.000000
0.000000

SCALARS sigma_zx FLOAT 1
LOOKUP_TABLE default
0.000000
0.000000
0.000000
0.000000
0.000000
0.000000
0.000000
0.000000
0.000000
0.000000
0.000000
0.000000
0.000000
0.000000
0.000000
0.000000
0.000000
0.000000
0.000000
0.000000
0.000000
0.000000
0.000000
0.000000
0.000000
0.000000
0.000000
0.000000
0.000000
0.000000
0.000000
0.000000
0.000000
0.000000
0.000000
0.000000
0.000000
0.000000
0.000000
0.000000
0.000000
0.000000
0.000000
0.000000
0.000000
0.000000
0.000000
0.000000
0.000000
0.000000
0.000000
0.000000
0.000000
0.000000
0.000000
0.000000
0.000000
0.000000
0.000000
0.000000
0.000000
0.000000
0.000000
0.000000
0.000000
0.000000
0.000000
0.000000
0.000000
0.000000
0.000000
0.000000
0.000000
0.000000
0.000000
0.000000
0.000000
0.000000
0.000000
0.000000
0.000000
0.000000
0.000000
0.000000
0.000000
0.000000
0.000000
0.000000
0.000000
0.000000
0.000000
0.000000
0.000000
0.000000
0.000000
0.000000
0.000000
0.000000
0.000000
0.000000
0.000000
0.000000
0.000000
0.000000
0.000000
0.000000
0.000000
0.000000
0.000000
0.000000
0.000000
0.000000
0.000000
0.000000
0.000000
0.000000
0.000000
0.000000
0.000000
0.000000
0.000000
0.000000
0.000000
0.000000
0.000000
0.000000
0.000000
0.000000
0.000000
0.000000
0.000000
0.000000
0.000000
0.000000
0.000000
0.000000
0.000000
0.000000
0.000000
0.000000
0.000000
0.000000
0.000000
0.000000
0.000000
0.000000
0.000000
0.000000
0.000000
0.000000
0.000000
0.000000
0.000000
0.000000
0.000000
0.000000
0.000000
0.000000
0.000000
0.000000
0.000000
0.000000
0.000000
0.000000
0.000000
0.000000
0.000000
0.000000
0.000000
0.000000
0.000000
0.000000
0.000000
0.000000
0.000000
0.000000
0.000000
0.000000
0.000000
0.000000
0.000000
0.000000
0.000000
0.000000
0.000000
0.000000
0.000000
0.000000
0.000000
0.000000
0.000000
0.000000
0.000000
0.000000
0.000000
0.000000
0.000000
0.000000
0.000000
0.000000
0.000000
0.000000
0.000000
0.000000
0.000000
0.000000
0.000000
0.000000
0.000000
0.000000
0.000000
0.000000
0.000000
0.000000
0.000000
0.000000
0.000000
0.000000
0.000000
0.000000
0.000000
0.000000
0.000000
0.000000
0.000000
0.000000
0.000000
0.000000
0.000000
0.000000
0.000000
0.000000
0.000000
0.000000
0.000000
0.000000
0.000000
0.000000
0.000000
0.000000
0.000000
0.000000
0.000000
0.000000
0.000000
0.000000
0.000000
0.000000
0.000000
0.000000
0.000000
0.000000
0.000000
0.000000
0.000000
0.000000

SCALARS u_x FLOAT 1
LOOKUP_TABLE default
0.000000
0.000000
0.000000
0.000000
0.000000
0.000000
0.000000
0.000000
0.000000
0.000000
0.000000
0.000000
0.000000
0.000000
0.000000
0.000000
0.000000
0.000000
0.000000
0.000000
0.000000
0.000000
0.000000
0.000000
0.000000
0.000000
0.000000
0.000000
0.000000
0.000000
0.000000
0.000000
0.000000
0.000000
0.000000
0.000000
0.000000
0.000000
0.000000
0.000000
0.000000
0.000000
0.000000
0.000000
0.000000
0.000000
0.000000
0.000000
0.000000
0.000000
0.000000
0.000000
0.000000
0.000000
0.000000
0.000000
0.000000
0.000000
0.000000
0.000000
0.000000
0.000000
0.000000
0.000000
0.000000
0.000000
0.000000
0.000000
0.000000
0.000000
0.000000
0.000000
0.000000
0.000000
0.000000
0.000000
0.000000
0.000000
0.000000
0.000000
0.000000
0.000000
0.000000
0.000000
0.000000
0.000000
0.000000
0.000000
0.000000
0.000000
0.000000
0.000000
0.000000
0.000000
0.000000
0.000000
0.000000
0.000000
0.000000
0.000000
0.000000
0.000000
0.000000
0.000000
0.000000
0.000000
0.000000
0.000000
0.000000
0.000000
0.000000
0.000000
0.000000
0.000000
0.000000
0.000000
0.000000
0.000000
0.000000
0.000000
0.000000
0.000000
0.000000
0.000000
0.000000
0.000000
0.000000
0.000000
0.000000
0.000000
0.000000
0.000000
0.000000
0.000000
0.000000
0.000000
0.000000
0.000000
0.000000
0.000000
0.000000
0.000000
0.000000
0.000000
0.000000
0.000000
0.000000
0.000000
0.000000
0.000000
0.000000
0.000000
0.000000
0.000000
0.000000
0.000000
0.000000
0.000000
0.000000
0.000000
0.000000
0.000000
0.000000
0.000000
0.000000
0.000000
0.000000
0.000000
0.000000
0.000000
0.000000
0.000000
0.000000
0.000000
0.000000
0.000000
0.000000
0.000000
0.000000
0.000000
0.000000
0.000000
0.000000
0.000000
0.000000
0.000000
0.000000
0.000000
0.000000
0.000000
0.000000
0.000000
0.000000
0.000000
0.000000
0.000000
0.000000
0.000000
0.000000
0.000000
0.000000
0.000000
0.000000
0.000000
0.000000
0.000000
0.000000
0.000000
0.000000
0.000000
0.000000
0.000000
0.000000
0.000000
0.000000
0.000000
0.000000
0.000000
0.000000
0.000000
0.000000
0.000000
0.000000
0.000000
0.000000
0.000000
0.000000
0.000000
0.000000
0.000000
0.000000
0.000000
0.000000
0.000000
0.000000
0.000000
0.000000
0.000000
0.000000
0.000000
0.000000
0.000000
0.000000
0.000000
0.000000
0.000000
0.000000
0.000000
0.000000
0.000000
0.000000
0.000000
0.000000
0.000000
0.000000
0.000000

SCALARS u_y FLOAT 1
LOOKUP_TABLE default
-0.125419
-0.376258
-0.125419
-0.376258
-0.626904
-0.876915
-0.626904
-0.876915
-1.126304
-1.374953
-1.126304
-1.374953
-1.623011
-1.870547
-1.623011
-1.870547
-2.117537
-2.363890
-2.117537
-2.363890
-2.609597
-2.854639
-2.609597
-2.854639
-3.099118
-3.342976
-3.099118
-3.342976
-3.586225
-3.828795
-3.586225
-3.828795
-4.070702
-4.311986
-4.070702
-4.311986
-4.552636
-4.792623
-4.552636
-4.792623
-5.031889
-5.270433
-5.031889
-5.270433
-5.508277
-5.745481
-5.508277
-5.745481
-5.981974
-6.217745
-5.981974
-6.217745
-6.452747
-6.687068
-6.452747
-6.687068
-6.920609
-7.153402
-6.920609
-7.153402
-7.385451
-7.616699
-7.385451
-7.616699
-7.847180
-8.076848
-7.847180
-8.076848
-8.305817
-8.533879
-8.305817
-8.533879
-8.761140
-8.987544
-8.761140
-8.987544
-9.213159
-9.437914
-9.213159
-9.437914
-9.661742
-9.884774
-9.661742
-9.884774
-10.106811
-10.328057
-10.106811
-10.328057
-10.548256
-10.767594
-10.548256
-10.767594
-10.986017
-11.203503
-10.986017
-11.203503
-11.420063
-11.635541
-11.420063
-11.635541
-11.850056
-12.063557
-11.850056
-12.063557
-12.276005
-12.487523
-12.276005
-12.487523
-12.697864
-12.907218
-12.697864
-12.907218
-13.115412
-13.322512
-13.115412
-13.322512
-13.528489
-13.733342
-13.528489
-13.733342
-13.937085
-14.139630
-13.937085
-14.139630
-14.341043
-14.541195
-14.341043
-14.541195
-14.740032
-14.937728
-14.740032
-14.937728
-15.134016
-15.329093
-15.134016
-15.329093
-15.522896
-15.715200
-15.522896
-15.715200
-15.906286
-16.095845
-15.906286
-16.095845
-16.284125
-16.470958
-16.284125
-16.470958
-16.656353
-16.840230
-16.656353
-16.840230
-17.022480
-17.203088
-17.022480
-17.203088
-17.382146
-17.559486
-17.382146
-17.559486
-17.735346
-17.909445
-17.735346
-17.909445
-18.081989
-18.252717
-18.081989
-18.252717
-18.421427
-18.588459
-18.421427
-18.588459
-18.753340
-18.916558
-18.753340
-18.916558
-19.077769
-19.237107
-19.077769
-19.237107
-19.394251
-19.549322
-19.394251
-19.549322
-19.702213
-19.852882
-19.702213
-19.852882
-20.001149
-20.147357
-20.001149
-20.147357
-20.290799
-20.431999
-20.290799
-20.431999
-20.570473
-20.706754
-20.570473
-20.706754
-20.840169
-20.970611
-20.840169
-20.970611
-21.098522
-21.223416
-21.098522
-21.223416
-21.345465
-21.464102
-21.345465
-21.464102
-21.579866
-21.692217
-21.579866
-21.692217
-21.800997
-21.906289
-21.800997
-21.906289
-22.007576
-22.105591
-22.007576
-22.105591
-22.199753
-22.290017
-22.199753
-22.290017
-22.375674
-22.456565
-22.375674
-22.456565
-22.533176
-22.605078
-22.533176
-22.605078
-22.672379
-22.733831
-22.672379
-22.733831
-22.790295
-22.840283
-22.790295
-22.840283
-22.884529
-22.922038
-22.884529
-22.922038
-22.953562
-22.977202
-22.953562
-22.977202
-22.994101
-23.002538
-22.994101
-23.002538

